G04 MADE WITH FRITZING*
G04 WWW.FRITZING.ORG*
G04 DOUBLE SIDED*
G04 HOLES PLATED*
G04 CONTOUR ON CENTER OF CONTOUR VECTOR*
%ASAXBY*%
%FSLAX23Y23*%
%MOIN*%
%OFA0B0*%
%SFA1.0B1.0*%
%ADD10R,0.035433X0.027559*%
%ADD11R,0.013780X0.086614*%
%ADD12R,0.062992X0.102362*%
%ADD13R,0.027559X0.035433*%
%ADD14R,0.019685X0.027559*%
%ADD15R,0.027559X0.019685*%
%ADD16R,0.026000X0.080000*%
%ADD17R,0.031496X0.035433*%
%ADD18R,0.032677X0.024803*%
%ADD19R,0.047244X0.043307*%
%ADD20R,0.043307X0.047244*%
%LNCOPPER1*%
G90*
G70*
G54D10*
X331Y561D03*
X331Y509D03*
X331Y1511D03*
X331Y1459D03*
G54D11*
X306Y159D03*
X331Y159D03*
X356Y159D03*
X381Y159D03*
X406Y159D03*
X431Y159D03*
X456Y159D03*
X481Y159D03*
X481Y411D03*
X456Y411D03*
X431Y411D03*
X406Y411D03*
X381Y411D03*
X356Y411D03*
X331Y411D03*
X306Y411D03*
G54D12*
X391Y729D03*
X391Y871D03*
X391Y2179D03*
X391Y2321D03*
G54D13*
X289Y3891D03*
X341Y3891D03*
G54D10*
X411Y3551D03*
X411Y3602D03*
G54D14*
X541Y2961D03*
X541Y3012D03*
G54D15*
X282Y3101D03*
X231Y3101D03*
G54D10*
X666Y1931D03*
X666Y1879D03*
G54D16*
X81Y2789D03*
X131Y2789D03*
X181Y2789D03*
X231Y2789D03*
X281Y2789D03*
X331Y2789D03*
X381Y2789D03*
X431Y2789D03*
X431Y3031D03*
X381Y3031D03*
X331Y3031D03*
X281Y3031D03*
X231Y3031D03*
X181Y3031D03*
X131Y3031D03*
X81Y3031D03*
G54D13*
X611Y3791D03*
X559Y3791D03*
G54D17*
X501Y3821D03*
X426Y3821D03*
X463Y3742D03*
X495Y3691D03*
X421Y3691D03*
X458Y3612D03*
G54D10*
X481Y2841D03*
X481Y2789D03*
G54D14*
X461Y3451D03*
X461Y3399D03*
G54D17*
X351Y3831D03*
X276Y3831D03*
X313Y3752D03*
X355Y3701D03*
X281Y3701D03*
X318Y3622D03*
G54D10*
X341Y3451D03*
X341Y3502D03*
X361Y3551D03*
X361Y3602D03*
G54D13*
X321Y3381D03*
X269Y3381D03*
G54D14*
X281Y3501D03*
X281Y3449D03*
G54D10*
X411Y3482D03*
X411Y3431D03*
G54D11*
X306Y1099D03*
X331Y1099D03*
X356Y1099D03*
X381Y1099D03*
X406Y1099D03*
X431Y1099D03*
X456Y1099D03*
X481Y1099D03*
X481Y1351D03*
X456Y1351D03*
X431Y1351D03*
X406Y1351D03*
X381Y1351D03*
X356Y1351D03*
X331Y1351D03*
X306Y1351D03*
G54D10*
X291Y2081D03*
X291Y2029D03*
X421Y2641D03*
X421Y2589D03*
G54D13*
X279Y1966D03*
X331Y1966D03*
X491Y1796D03*
X439Y1796D03*
G54D10*
X451Y561D03*
X451Y509D03*
X701Y61D03*
X701Y112D03*
X61Y69D03*
X61Y121D03*
X476Y1686D03*
X476Y1634D03*
G54D18*
X721Y3281D03*
X721Y3191D03*
X71Y3281D03*
X71Y3190D03*
G54D19*
X407Y51D03*
X341Y51D03*
X421Y981D03*
X354Y981D03*
G54D20*
X291Y2451D03*
X291Y2384D03*
X391Y596D03*
X391Y529D03*
X391Y1538D03*
X391Y1471D03*
G04 End of Copper1*
M02*