; NON-PLATED HOLES START AT T1
; THROUGH (PLATED) HOLES START AT T100
M48
INCH
T1C0.118110
T100C0.015748
T101C0.031497
T102C0.038000
T103C0.059842
%
T1
X001902Y002543
X005902Y023343
X001908Y018036
X005908Y036869
X001902Y023343
X005908Y018036
X001902Y012943
X005902Y002543
X005908Y007636
X001908Y007636
X005902Y012943
X001908Y036869
T100
X003705Y011806
X004205Y011806
X002705Y001706
X004755Y016006
X001555Y011756
X001105Y006856
X002705Y017456
X006605Y003206
X000805Y030806
X004505Y035506
X004405Y019656
X001305Y028506
X003605Y033806
X006655Y017306
X003155Y005606
X003605Y002956
X006705Y033206
X001155Y019406
X007055Y019756
X007055Y011756
X000405Y001506
X003905Y019106
X001305Y031006
X003705Y012706
X003455Y020306
X002305Y012156
X007205Y033706
X001155Y018856
X007155Y025256
X007405Y029406
X004905Y012506
X004005Y002456
X003905Y014206
X007055Y001906
X001005Y010306
X003805Y028606
X002705Y014906
X004905Y014106
X004755Y015056
X002955Y008956
X004205Y038806
X005205Y027906
X004705Y000406
X003705Y026306
X001155Y013606
X002605Y036206
X002605Y029206
X007555Y005106
X002305Y027306
X003855Y005356
X003105Y019156
X003605Y026906
X005105Y030106
X004405Y018556
X002305Y030606
X001005Y009756
X004805Y005606
X006705Y031306
X007055Y018206
T101
X002905Y026890
X006905Y025906
X006905Y026890
X000905Y026890
X000905Y025906
X002905Y025906
X004905Y025906
X004905Y026890
T102
X004905Y031906
X002905Y031906
X004905Y032906
X005905Y032906
X003905Y032906
X003905Y031906
X006205Y029006
X006205Y028006
X001905Y031906
X005905Y031906
X006205Y030006
X001905Y032906
X002905Y032906
T103
X001905Y000606
X001905Y003874
X001905Y011006
X005905Y016706
X001905Y019973
X005905Y019973
X001905Y034318
X001905Y015494
X005905Y021406
X005905Y009573
X005905Y005085
X005905Y006306
X005905Y005094
X005905Y014274
X001905Y016706
X005905Y024674
X005905Y003874
X005905Y000606
X001905Y005085
X001905Y006306
X001905Y025894
X001905Y021406
X001905Y009573
X005905Y015494
X005905Y035538
X001905Y015485
X005905Y011006
X001905Y038806
X001905Y024674
X005905Y015485
X001905Y035538
X001905Y005094
X005905Y038806
X001905Y014274
X005905Y034318
X005905Y025894
T00
M30
