G04 MADE WITH FRITZING*
G04 WWW.FRITZING.ORG*
G04 DOUBLE SIDED*
G04 HOLES PLATED*
G04 CONTOUR ON CENTER OF CONTOUR VECTOR*
%ASAXBY*%
%FSLAX23Y23*%
%MOIN*%
%OFA0B0*%
%SFA1.0B1.0*%
%ADD10C,0.039370*%
%ADD11C,0.078000*%
%ADD12C,0.062992*%
%ADD13C,0.107087*%
%ADD14R,0.078000X0.078000*%
%ADD15R,0.062992X0.062992*%
%ADD16C,0.012000*%
%ADD17C,0.008000*%
%ADD18C,0.024000*%
%ADD19C,0.016000*%
%ADD20R,0.001000X0.001000*%
%LNCOPPER0*%
G90*
G70*
G54D10*
X156Y1176D03*
X371Y2631D03*
X231Y1216D03*
X756Y511D03*
X471Y41D03*
X441Y1966D03*
X441Y1856D03*
X491Y1411D03*
X716Y2526D03*
X706Y1976D03*
X706Y1821D03*
X706Y1176D03*
X116Y1886D03*
X116Y1361D03*
X101Y1031D03*
X361Y296D03*
X706Y191D03*
X666Y1731D03*
X401Y246D03*
X116Y1941D03*
X271Y1746D03*
X476Y1601D03*
X476Y1506D03*
X491Y1251D03*
X361Y2691D03*
X131Y3101D03*
X361Y3381D03*
X511Y3011D03*
X381Y2861D03*
X671Y3321D03*
X671Y3131D03*
X261Y2921D03*
X521Y2791D03*
X231Y2731D03*
X271Y1491D03*
X346Y2031D03*
X371Y1271D03*
X371Y1181D03*
X311Y1916D03*
X41Y151D03*
X421Y1181D03*
X391Y1911D03*
X131Y2851D03*
X481Y561D03*
X316Y561D03*
X231Y3061D03*
X261Y3621D03*
X421Y3881D03*
X81Y3081D03*
X391Y1421D03*
X721Y3371D03*
X451Y3551D03*
X741Y2941D03*
G54D11*
X621Y2801D03*
X621Y2901D03*
X621Y3001D03*
X621Y2801D03*
X621Y2901D03*
X621Y3001D03*
X591Y3291D03*
X491Y3291D03*
X391Y3291D03*
X291Y3291D03*
X191Y3291D03*
X591Y3291D03*
X491Y3291D03*
X391Y3291D03*
X291Y3291D03*
X191Y3291D03*
X191Y3191D03*
X291Y3191D03*
X391Y3191D03*
X491Y3191D03*
X591Y3191D03*
G54D12*
X691Y2689D03*
X691Y2591D03*
X691Y2689D03*
X691Y2591D03*
X491Y2689D03*
X491Y2591D03*
X491Y2689D03*
X491Y2591D03*
X91Y2689D03*
X91Y2591D03*
X91Y2689D03*
X91Y2591D03*
X291Y2689D03*
X291Y2591D03*
X291Y2689D03*
X291Y2591D03*
G54D13*
X191Y3432D03*
X191Y3554D03*
X191Y3881D03*
X191Y3432D03*
X191Y3554D03*
X191Y3881D03*
X591Y1549D03*
X591Y1671D03*
X591Y1997D03*
X591Y1549D03*
X591Y1671D03*
X591Y1997D03*
X591Y2589D03*
X591Y2467D03*
X591Y2141D03*
X591Y2589D03*
X591Y2467D03*
X591Y2141D03*
X591Y509D03*
X591Y631D03*
X591Y957D03*
X591Y509D03*
X591Y631D03*
X591Y957D03*
X591Y1549D03*
X591Y1427D03*
X591Y1101D03*
X591Y1549D03*
X591Y1427D03*
X591Y1101D03*
X591Y509D03*
X591Y387D03*
X591Y61D03*
X591Y509D03*
X591Y387D03*
X591Y61D03*
X191Y509D03*
X191Y387D03*
X191Y61D03*
X191Y509D03*
X191Y387D03*
X191Y61D03*
X191Y509D03*
X191Y631D03*
X191Y957D03*
X191Y509D03*
X191Y631D03*
X191Y957D03*
X191Y1549D03*
X191Y1427D03*
X191Y1101D03*
X191Y1549D03*
X191Y1427D03*
X191Y1101D03*
X191Y1549D03*
X191Y1671D03*
X191Y1997D03*
X191Y1549D03*
X191Y1671D03*
X191Y1997D03*
X191Y2589D03*
X191Y2467D03*
X191Y2141D03*
X191Y2589D03*
X191Y2467D03*
X191Y2141D03*
X591Y3432D03*
X591Y3554D03*
X591Y3881D03*
X591Y3432D03*
X591Y3554D03*
X591Y3881D03*
G54D10*
X661Y321D03*
X386Y536D03*
X271Y171D03*
X296Y896D03*
X111Y686D03*
X101Y976D03*
G54D14*
X621Y2801D03*
X621Y2801D03*
G54D15*
X691Y2689D03*
X691Y2689D03*
X491Y2689D03*
X491Y2689D03*
X91Y2689D03*
X91Y2689D03*
X291Y2689D03*
X291Y2689D03*
G54D16*
X26Y1176D02*
X142Y1176D01*
D02*
X31Y2631D02*
X26Y1176D01*
D02*
X75Y2674D02*
X31Y2631D01*
G54D17*
D02*
X56Y1216D02*
X217Y1216D01*
D02*
X371Y2236D02*
X56Y2231D01*
D02*
X56Y2231D02*
X56Y1216D01*
D02*
X371Y2617D02*
X371Y2236D01*
G54D18*
D02*
X521Y2760D02*
X590Y2691D01*
D02*
X590Y2691D02*
X590Y2630D01*
D02*
X521Y2772D02*
X521Y2760D01*
D02*
X471Y66D02*
X471Y60D01*
D02*
X531Y141D02*
X471Y66D01*
D02*
X755Y141D02*
X531Y141D01*
D02*
X756Y492D02*
X755Y141D01*
G54D16*
D02*
X480Y2005D02*
X450Y1975D01*
D02*
X486Y2500D02*
X480Y2005D01*
D02*
X440Y2551D02*
X486Y2501D01*
D02*
X440Y2641D02*
X440Y2551D01*
D02*
X475Y2674D02*
X440Y2641D01*
D02*
X440Y1471D02*
X441Y1842D01*
D02*
X482Y1421D02*
X440Y1471D01*
D02*
X720Y2010D02*
X720Y2506D01*
D02*
X720Y2506D02*
X719Y2513D01*
D02*
X711Y1988D02*
X720Y2010D01*
D02*
X706Y1189D02*
X706Y1807D01*
D02*
X116Y1872D02*
X116Y1374D01*
G54D17*
D02*
X361Y131D02*
X75Y126D01*
D02*
X75Y221D02*
X60Y241D01*
D02*
X60Y241D02*
X60Y996D01*
D02*
X60Y996D02*
X90Y1022D01*
D02*
X75Y126D02*
X75Y221D01*
D02*
X361Y282D02*
X361Y131D01*
D02*
X716Y536D02*
X716Y470D01*
D02*
X726Y556D02*
X716Y536D01*
D02*
X725Y455D02*
X726Y216D01*
D02*
X716Y470D02*
X725Y455D01*
D02*
X726Y1150D02*
X726Y556D01*
D02*
X726Y216D02*
X714Y201D01*
D02*
X714Y1165D02*
X726Y1150D01*
D02*
X470Y170D02*
X471Y246D01*
D02*
X706Y251D02*
X620Y170D01*
D02*
X620Y170D02*
X470Y170D01*
D02*
X471Y246D02*
X414Y246D01*
D02*
X665Y1151D02*
X696Y1111D01*
D02*
X696Y1111D02*
X695Y460D01*
D02*
X695Y460D02*
X706Y446D01*
D02*
X706Y446D02*
X706Y251D01*
D02*
X666Y1717D02*
X665Y1151D01*
G54D16*
D02*
X241Y1916D02*
X150Y1916D01*
D02*
X150Y1916D02*
X127Y1933D01*
D02*
X271Y1881D02*
X241Y1916D01*
D02*
X271Y1759D02*
X271Y1881D01*
D02*
X476Y1587D02*
X476Y1519D01*
D02*
X374Y2690D02*
X469Y2689D01*
G54D18*
D02*
X591Y550D02*
X590Y468D01*
D02*
X190Y468D02*
X191Y550D01*
G54D16*
D02*
X361Y3351D02*
X131Y3351D01*
D02*
X131Y3351D02*
X131Y3114D01*
D02*
X361Y3367D02*
X361Y3351D01*
D02*
X41Y2960D02*
X461Y2960D01*
D02*
X31Y3135D02*
X31Y2970D01*
D02*
X461Y2960D02*
X501Y3001D01*
D02*
X31Y2970D02*
X41Y2960D01*
D02*
X46Y3151D02*
X31Y3135D01*
D02*
X80Y3151D02*
X46Y3151D01*
D02*
X121Y3110D02*
X80Y3151D01*
D02*
X581Y3001D02*
X596Y3001D01*
D02*
X520Y2911D02*
X581Y3001D01*
D02*
X381Y2911D02*
X520Y2911D01*
D02*
X381Y2874D02*
X381Y2911D01*
D02*
X671Y3307D02*
X671Y3144D01*
G54D18*
D02*
X261Y2891D02*
X261Y2902D01*
D02*
X361Y2790D02*
X261Y2891D01*
D02*
X502Y2791D02*
X361Y2790D01*
G54D16*
D02*
X330Y2641D02*
X360Y2671D01*
D02*
X360Y2671D02*
X360Y2677D01*
D02*
X250Y2640D02*
X330Y2641D01*
D02*
X231Y2661D02*
X250Y2640D01*
D02*
X231Y2717D02*
X231Y2661D01*
G54D18*
D02*
X190Y1508D02*
X191Y1590D01*
D02*
X590Y1508D02*
X591Y1590D01*
G54D16*
D02*
X270Y1171D02*
X271Y1477D01*
D02*
X217Y1124D02*
X270Y1171D01*
D02*
X350Y1281D02*
X361Y1271D01*
D02*
X361Y1271D02*
X357Y1271D01*
D02*
X351Y2010D02*
X350Y1281D01*
D02*
X349Y2018D02*
X351Y2010D01*
D02*
X341Y1180D02*
X311Y1210D01*
D02*
X311Y1210D02*
X311Y1902D01*
D02*
X357Y1181D02*
X341Y1180D01*
G54D17*
D02*
X355Y1030D02*
X396Y1066D01*
D02*
X396Y1066D02*
X396Y1151D01*
D02*
X396Y1151D02*
X412Y1170D01*
D02*
X110Y1075D02*
X150Y1031D01*
D02*
X40Y1075D02*
X110Y1075D01*
D02*
X150Y1031D02*
X355Y1030D01*
D02*
X41Y164D02*
X40Y1075D01*
G54D18*
D02*
X490Y3430D02*
X491Y3321D01*
D02*
X550Y3431D02*
X490Y3430D01*
D02*
X591Y3221D02*
X591Y3261D01*
D02*
X741Y3080D02*
X741Y2960D01*
D02*
X741Y3351D02*
X741Y3080D01*
D02*
X734Y3357D02*
X741Y3351D01*
D02*
X501Y3080D02*
X420Y3001D01*
D02*
X420Y3001D02*
X140Y3000D01*
D02*
X140Y3000D02*
X92Y3065D01*
D02*
X741Y3080D02*
X501Y3080D01*
D02*
X721Y1911D02*
X410Y1911D01*
D02*
X391Y1440D02*
X391Y1892D01*
G54D16*
D02*
X250Y2850D02*
X144Y2851D01*
D02*
X291Y2811D02*
X250Y2850D01*
D02*
X291Y2710D02*
X291Y2811D01*
G54D17*
D02*
X481Y956D02*
X555Y957D01*
D02*
X481Y574D02*
X481Y956D01*
D02*
X316Y496D02*
X316Y547D01*
D02*
X431Y495D02*
X316Y496D01*
D02*
X430Y576D02*
X431Y495D01*
D02*
X456Y601D02*
X430Y576D01*
D02*
X456Y995D02*
X456Y601D01*
D02*
X501Y996D02*
X456Y995D01*
D02*
X567Y1074D02*
X501Y996D01*
G54D18*
D02*
X270Y3101D02*
X244Y3074D01*
D02*
X391Y3101D02*
X270Y3101D01*
D02*
X391Y3161D02*
X391Y3101D01*
D02*
X421Y3191D02*
X460Y3191D01*
D02*
X321Y3191D02*
X360Y3191D01*
D02*
X291Y3261D02*
X291Y3221D01*
D02*
X191Y3261D02*
X191Y3221D01*
D02*
X321Y3291D02*
X360Y3291D01*
D02*
X421Y3291D02*
X460Y3291D01*
D02*
X491Y3261D02*
X491Y3221D01*
D02*
X391Y3261D02*
X391Y3221D01*
G54D19*
D02*
X391Y3631D02*
X380Y3621D01*
D02*
X391Y3860D02*
X391Y3631D01*
D02*
X380Y3621D02*
X274Y3621D01*
D02*
X409Y3873D02*
X391Y3860D01*
G54D18*
D02*
X761Y1950D02*
X760Y2835D01*
D02*
X721Y1911D02*
X761Y1950D01*
D02*
X760Y2835D02*
X741Y2851D01*
D02*
X741Y2851D02*
X741Y2922D01*
G54D16*
D02*
X491Y3590D02*
X490Y3761D01*
D02*
X490Y3761D02*
X511Y3781D01*
D02*
X511Y3781D02*
X691Y3781D01*
D02*
X691Y3781D02*
X721Y3750D01*
D02*
X721Y3750D02*
X721Y3384D01*
D02*
X460Y3560D02*
X491Y3590D01*
G54D17*
D02*
X611Y1190D02*
X531Y1190D01*
D02*
X671Y1105D02*
X611Y1190D01*
D02*
X531Y1190D02*
X498Y1239D01*
D02*
X671Y321D02*
X671Y1105D01*
D02*
X674Y321D02*
X671Y321D01*
G54D18*
D02*
X480Y1180D02*
X480Y1071D01*
D02*
X430Y1291D02*
X430Y1246D01*
D02*
X430Y1246D02*
X480Y1180D01*
D02*
X480Y1071D02*
X425Y1030D01*
D02*
X390Y1321D02*
X430Y1291D01*
D02*
X390Y1402D02*
X390Y1321D01*
D02*
X385Y611D02*
X385Y555D01*
D02*
X425Y1030D02*
X425Y645D01*
D02*
X425Y645D02*
X385Y611D01*
G54D17*
D02*
X281Y191D02*
X281Y870D01*
D02*
X281Y870D02*
X289Y884D01*
D02*
X277Y183D02*
X281Y191D01*
D02*
X105Y698D02*
X101Y706D01*
D02*
X101Y706D02*
X101Y962D01*
G54D20*
D02*
G04 End of Copper0*
M02*