G04 MADE WITH FRITZING*
G04 WWW.FRITZING.ORG*
G04 DOUBLE SIDED*
G04 HOLES PLATED*
G04 CONTOUR ON CENTER OF CONTOUR VECTOR*
%ASAXBY*%
%FSLAX23Y23*%
%MOIN*%
%OFA0B0*%
%SFA1.0B1.0*%
%ADD10C,0.118110*%
%ADD11C,0.074000*%
%ADD12R,0.035433X0.027559*%
%ADD13R,0.013780X0.086614*%
%ADD14R,0.062992X0.102362*%
%ADD15R,0.027559X0.035433*%
%ADD16R,0.019685X0.027559*%
%ADD17R,0.027559X0.019685*%
%ADD18R,0.026000X0.080000*%
%ADD19R,0.031496X0.035433*%
%ADD20R,0.024803X0.032677*%
%ADD21R,0.032677X0.024803*%
%ADD22R,0.047244X0.043307*%
%ADD23R,0.043307X0.047244*%
%ADD24R,0.001000X0.001000*%
%LNPASTEMASK1*%
G90*
G70*
G54D10*
X191Y3683D03*
X191Y3683D03*
X591Y1802D03*
X591Y1802D03*
X590Y2329D03*
X590Y2329D03*
X591Y763D03*
X591Y763D03*
X590Y1290D03*
X590Y1290D03*
X590Y250D03*
X590Y250D03*
X190Y250D03*
X190Y250D03*
X191Y763D03*
X191Y763D03*
X190Y1290D03*
X190Y1290D03*
X191Y1803D03*
X191Y1803D03*
X190Y2330D03*
X190Y2330D03*
X591Y3683D03*
X591Y3683D03*
G54D11*
X711Y3353D03*
X533Y3353D03*
X711Y3353D03*
X533Y3353D03*
X711Y3353D03*
X533Y3353D03*
G54D12*
X331Y1507D03*
X331Y1456D03*
G54D13*
X306Y155D03*
X331Y155D03*
X356Y155D03*
X381Y155D03*
X406Y155D03*
X431Y155D03*
X456Y155D03*
X481Y155D03*
X481Y407D03*
X456Y407D03*
X431Y407D03*
X406Y407D03*
X381Y407D03*
X356Y407D03*
X331Y407D03*
X306Y407D03*
G54D14*
X391Y725D03*
X391Y867D03*
X391Y2175D03*
X391Y2317D03*
G54D15*
X289Y3887D03*
X341Y3887D03*
G54D12*
X411Y3547D03*
X411Y3598D03*
G54D16*
X541Y2957D03*
X541Y3008D03*
G54D17*
X282Y3097D03*
X231Y3097D03*
G54D12*
X681Y1998D03*
X681Y1947D03*
G54D18*
X81Y2785D03*
X131Y2785D03*
X181Y2785D03*
X231Y2785D03*
X281Y2785D03*
X331Y2785D03*
X381Y2785D03*
X431Y2785D03*
X431Y3027D03*
X381Y3027D03*
X331Y3027D03*
X281Y3027D03*
X231Y3027D03*
X181Y3027D03*
X131Y3027D03*
X81Y3027D03*
G54D15*
X611Y3787D03*
X559Y3787D03*
G54D19*
X501Y3817D03*
X426Y3817D03*
X463Y3738D03*
X495Y3687D03*
X421Y3687D03*
X458Y3608D03*
G54D12*
X481Y2837D03*
X481Y2786D03*
G54D16*
X461Y3447D03*
X461Y3396D03*
G54D19*
X351Y3827D03*
X276Y3827D03*
X313Y3748D03*
X355Y3697D03*
X281Y3697D03*
X318Y3618D03*
G54D12*
X341Y3447D03*
X341Y3498D03*
X361Y3547D03*
X361Y3598D03*
G54D15*
X321Y3377D03*
X269Y3377D03*
G54D16*
X281Y3497D03*
X281Y3446D03*
G54D12*
X411Y3478D03*
X411Y3427D03*
G54D13*
X306Y1095D03*
X331Y1095D03*
X356Y1095D03*
X381Y1095D03*
X406Y1095D03*
X431Y1095D03*
X456Y1095D03*
X481Y1095D03*
X481Y1347D03*
X456Y1347D03*
X431Y1347D03*
X406Y1347D03*
X381Y1347D03*
X356Y1347D03*
X331Y1347D03*
X306Y1347D03*
G54D12*
X291Y2077D03*
X291Y2026D03*
X411Y2637D03*
X411Y2586D03*
X271Y1947D03*
X271Y1896D03*
X491Y2077D03*
X491Y2026D03*
X451Y557D03*
X451Y506D03*
G54D15*
X571Y147D03*
X519Y147D03*
G54D12*
X61Y66D03*
X61Y117D03*
X451Y1507D03*
X451Y1456D03*
G54D20*
X641Y3207D03*
X551Y3207D03*
G54D21*
X61Y2387D03*
X61Y2296D03*
G54D16*
X481Y3007D03*
X481Y2956D03*
G54D22*
X421Y47D03*
X354Y47D03*
X421Y977D03*
X354Y977D03*
G54D23*
X291Y2447D03*
X291Y2380D03*
X711Y3170D03*
X711Y3237D03*
X391Y567D03*
X391Y500D03*
X391Y1534D03*
X391Y1467D03*
G54D12*
X721Y2977D03*
X721Y3028D03*
X331Y557D03*
X331Y506D03*
G54D24*
D02*
G04 End of PasteMask1*
M02*