G04 MADE WITH FRITZING*
G04 WWW.FRITZING.ORG*
G04 DOUBLE SIDED*
G04 HOLES PLATED*
G04 CONTOUR ON CENTER OF CONTOUR VECTOR*
%ASAXBY*%
%FSLAX23Y23*%
%MOIN*%
%OFA0B0*%
%SFA1.0B1.0*%
%ADD10C,0.039370*%
%ADD11C,0.078000*%
%ADD12C,0.062992*%
%ADD13C,0.107087*%
%ADD14C,0.074000*%
%ADD15R,0.035433X0.027559*%
%ADD16R,0.013780X0.086614*%
%ADD17R,0.062992X0.102362*%
%ADD18R,0.078000X0.078000*%
%ADD19R,0.027559X0.035433*%
%ADD20R,0.019685X0.027559*%
%ADD21R,0.027559X0.019685*%
%ADD22R,0.062992X0.062992*%
%ADD23R,0.026000X0.080000*%
%ADD24R,0.031496X0.035433*%
%ADD25R,0.024803X0.032677*%
%ADD26R,0.032677X0.024803*%
%ADD27R,0.047244X0.043307*%
%ADD28R,0.043307X0.047244*%
%ADD29C,0.012000*%
%ADD30C,0.024000*%
%ADD31C,0.016000*%
%ADD32C,0.008000*%
%ADD33R,0.001000X0.001000*%
%LNCOPPER1*%
G90*
G70*
G54D10*
X261Y3617D03*
X421Y3877D03*
X81Y3077D03*
X391Y1417D03*
X641Y3257D03*
X451Y3547D03*
X721Y2937D03*
G54D11*
X621Y2797D03*
X621Y2897D03*
X621Y2997D03*
X621Y2797D03*
X621Y2897D03*
X621Y2997D03*
X471Y3277D03*
X371Y3277D03*
X271Y3277D03*
X171Y3277D03*
X71Y3277D03*
X471Y3277D03*
X371Y3277D03*
X271Y3277D03*
X171Y3277D03*
X71Y3277D03*
X71Y3177D03*
X171Y3177D03*
X271Y3177D03*
X371Y3177D03*
X471Y3177D03*
G54D12*
X691Y2685D03*
X691Y2587D03*
X691Y2685D03*
X691Y2587D03*
X491Y2685D03*
X491Y2587D03*
X491Y2685D03*
X491Y2587D03*
X91Y2685D03*
X91Y2587D03*
X91Y2685D03*
X91Y2587D03*
X291Y2685D03*
X291Y2587D03*
X291Y2685D03*
X291Y2587D03*
G54D13*
X191Y3428D03*
X191Y3550D03*
X191Y3877D03*
X191Y3428D03*
X191Y3550D03*
X191Y3877D03*
X591Y1547D03*
X591Y1669D03*
X591Y1996D03*
X591Y1547D03*
X591Y1669D03*
X591Y1996D03*
X591Y2584D03*
X591Y2462D03*
X591Y2136D03*
X591Y2584D03*
X591Y2462D03*
X591Y2136D03*
X591Y508D03*
X591Y630D03*
X591Y957D03*
X591Y508D03*
X591Y630D03*
X591Y957D03*
X591Y1546D03*
X591Y1423D03*
X591Y1097D03*
X591Y1546D03*
X591Y1423D03*
X591Y1097D03*
X591Y506D03*
X591Y383D03*
X591Y57D03*
X591Y506D03*
X591Y383D03*
X591Y57D03*
X191Y506D03*
X191Y383D03*
X191Y57D03*
X191Y506D03*
X191Y383D03*
X191Y57D03*
X191Y508D03*
X191Y630D03*
X191Y957D03*
X191Y508D03*
X191Y630D03*
X191Y957D03*
X191Y1546D03*
X191Y1423D03*
X191Y1097D03*
X191Y1546D03*
X191Y1423D03*
X191Y1097D03*
X191Y1548D03*
X191Y1670D03*
X191Y1997D03*
X191Y1548D03*
X191Y1670D03*
X191Y1997D03*
X191Y2586D03*
X191Y2463D03*
X191Y2137D03*
X191Y2586D03*
X191Y2463D03*
X191Y2137D03*
X591Y3428D03*
X591Y3550D03*
X591Y3877D03*
X591Y3428D03*
X591Y3550D03*
X591Y3877D03*
G54D14*
X711Y3097D03*
X711Y3353D03*
X533Y3097D03*
X533Y3353D03*
X711Y3097D03*
X711Y3353D03*
X533Y3097D03*
X533Y3353D03*
X711Y3097D03*
X711Y3353D03*
X533Y3097D03*
X533Y3353D03*
G54D10*
X391Y1927D03*
X131Y2847D03*
X481Y557D03*
X301Y557D03*
G54D15*
X331Y1507D03*
X331Y1456D03*
G54D16*
X306Y155D03*
X331Y155D03*
X356Y155D03*
X381Y155D03*
X406Y155D03*
X431Y155D03*
X456Y155D03*
X481Y155D03*
X481Y407D03*
X456Y407D03*
X431Y407D03*
X406Y407D03*
X381Y407D03*
X356Y407D03*
X331Y407D03*
X306Y407D03*
G54D17*
X391Y725D03*
X391Y867D03*
X391Y2175D03*
X391Y2317D03*
G54D18*
X621Y2797D03*
X621Y2797D03*
G54D19*
X289Y3887D03*
X341Y3887D03*
G54D15*
X411Y3547D03*
X411Y3598D03*
G54D20*
X541Y2957D03*
X541Y3008D03*
G54D21*
X282Y3097D03*
X231Y3097D03*
G54D15*
X681Y1998D03*
X681Y1947D03*
G54D22*
X691Y2685D03*
X691Y2685D03*
X491Y2685D03*
X491Y2685D03*
X91Y2685D03*
X91Y2685D03*
X291Y2685D03*
X291Y2685D03*
G54D23*
X81Y2785D03*
X131Y2785D03*
X181Y2785D03*
X231Y2785D03*
X281Y2785D03*
X331Y2785D03*
X381Y2785D03*
X431Y2785D03*
X431Y3027D03*
X381Y3027D03*
X331Y3027D03*
X281Y3027D03*
X231Y3027D03*
X181Y3027D03*
X131Y3027D03*
X81Y3027D03*
G54D19*
X611Y3787D03*
X559Y3787D03*
G54D24*
X501Y3817D03*
X426Y3817D03*
X463Y3738D03*
X495Y3687D03*
X421Y3687D03*
X458Y3608D03*
G54D15*
X481Y2837D03*
X481Y2786D03*
G54D20*
X461Y3447D03*
X461Y3396D03*
G54D24*
X351Y3827D03*
X276Y3827D03*
X313Y3748D03*
X355Y3697D03*
X281Y3697D03*
X318Y3618D03*
G54D15*
X341Y3447D03*
X341Y3498D03*
X361Y3547D03*
X361Y3598D03*
G54D19*
X321Y3377D03*
X269Y3377D03*
G54D20*
X281Y3497D03*
X281Y3446D03*
G54D15*
X411Y3478D03*
X411Y3427D03*
G54D16*
X306Y1095D03*
X331Y1095D03*
X356Y1095D03*
X381Y1095D03*
X406Y1095D03*
X431Y1095D03*
X456Y1095D03*
X481Y1095D03*
X481Y1347D03*
X456Y1347D03*
X431Y1347D03*
X406Y1347D03*
X381Y1347D03*
X356Y1347D03*
X331Y1347D03*
X306Y1347D03*
G54D15*
X291Y2077D03*
X291Y2026D03*
X411Y2637D03*
X411Y2586D03*
X271Y1947D03*
X271Y1896D03*
X491Y2077D03*
X491Y2026D03*
X451Y557D03*
X451Y506D03*
G54D19*
X571Y147D03*
X519Y147D03*
G54D15*
X61Y66D03*
X61Y117D03*
X451Y1507D03*
X451Y1456D03*
G54D25*
X641Y3207D03*
X551Y3207D03*
G54D26*
X61Y2387D03*
X61Y2296D03*
G54D20*
X481Y3007D03*
X481Y2956D03*
G54D27*
X421Y47D03*
X354Y47D03*
X421Y977D03*
X354Y977D03*
G54D28*
X291Y2447D03*
X291Y2380D03*
X711Y3170D03*
X711Y3237D03*
X391Y567D03*
X391Y500D03*
X391Y1534D03*
X391Y1467D03*
G54D15*
X721Y2977D03*
X721Y3028D03*
X331Y557D03*
X331Y506D03*
G54D29*
X580Y3166D02*
X694Y3169D01*
D02*
X547Y3118D02*
X580Y3166D01*
D02*
X520Y3075D02*
X485Y3014D01*
D02*
X221Y3787D02*
X70Y3787D01*
D02*
X61Y3447D02*
X81Y3427D01*
D02*
X61Y3777D02*
X61Y3447D01*
D02*
X250Y3817D02*
X221Y3787D01*
D02*
X70Y3787D02*
X61Y3777D01*
D02*
X81Y3427D02*
X155Y3428D01*
D02*
X266Y3823D02*
X250Y3817D01*
D02*
X621Y3397D02*
X615Y3402D01*
D02*
X621Y3337D02*
X621Y3397D01*
D02*
X710Y3277D02*
X621Y3337D01*
D02*
X710Y3255D02*
X710Y3277D01*
D02*
X280Y3656D02*
X267Y3629D01*
D02*
X281Y3685D02*
X280Y3656D01*
D02*
X425Y3829D02*
X422Y3863D01*
D02*
X81Y3063D02*
X81Y3061D01*
D02*
X401Y1407D02*
X404Y1364D01*
D02*
X400Y1407D02*
X401Y1407D01*
D02*
X381Y1397D02*
X381Y1384D01*
D02*
X385Y1405D02*
X381Y1397D01*
D02*
X391Y1449D02*
X391Y1430D01*
D02*
X41Y2406D02*
X54Y2394D01*
D02*
X41Y3136D02*
X41Y2406D01*
D02*
X56Y3157D02*
X41Y3136D01*
D02*
X365Y867D02*
X61Y867D01*
D02*
X61Y867D02*
X61Y2289D01*
D02*
X544Y3204D02*
X494Y3185D01*
D02*
X489Y3261D02*
X544Y3213D01*
D02*
X380Y1007D02*
X368Y993D01*
D02*
X380Y1057D02*
X380Y1007D01*
D02*
X520Y3786D02*
X508Y3805D01*
D02*
X240Y3886D02*
X281Y3887D01*
D02*
X225Y3884D02*
X240Y3886D01*
D02*
X351Y3867D02*
X350Y3827D01*
D02*
X350Y3827D02*
X351Y3827D01*
D02*
X347Y3875D02*
X351Y3867D01*
D02*
X611Y3827D02*
X611Y3799D01*
D02*
X604Y3844D02*
X611Y3827D01*
D02*
X551Y3787D02*
X520Y3786D01*
D02*
X411Y987D02*
X407Y1066D01*
D02*
X421Y977D02*
X411Y987D01*
D02*
X411Y3538D02*
X411Y3486D01*
D02*
X398Y3547D02*
X373Y3547D01*
D02*
X321Y3396D02*
X290Y3427D01*
D02*
X290Y3427D02*
X285Y3437D01*
D02*
X380Y3467D02*
X353Y3453D01*
D02*
X320Y3586D02*
X319Y3606D01*
D02*
X280Y3547D02*
X320Y3586D01*
D02*
X171Y3387D02*
X171Y3301D01*
D02*
X175Y3396D02*
X171Y3387D01*
D02*
X231Y3377D02*
X261Y3377D01*
D02*
X212Y3400D02*
X231Y3377D01*
D02*
X321Y3389D02*
X321Y3396D01*
D02*
X398Y3473D02*
X380Y3467D01*
D02*
X281Y3505D02*
X280Y3547D01*
D02*
X285Y3497D02*
X328Y3498D01*
D02*
X421Y3807D02*
X421Y3699D01*
D02*
X426Y3817D02*
X421Y3807D01*
D02*
X488Y3699D02*
X471Y3726D01*
D02*
X411Y3627D02*
X411Y3606D01*
D02*
X485Y3679D02*
X411Y3627D01*
D02*
X440Y3447D02*
X456Y3447D01*
D02*
X423Y3435D02*
X440Y3447D01*
D02*
X423Y3547D02*
X437Y3547D01*
D02*
X641Y3243D02*
X641Y3217D01*
D02*
X371Y3667D02*
X362Y3606D01*
D02*
X362Y3685D02*
X371Y3667D01*
D02*
X351Y3737D02*
X323Y3745D01*
D02*
X354Y3709D02*
X351Y3737D01*
D02*
X271Y3807D02*
X273Y3815D01*
D02*
X271Y3717D02*
X271Y3807D01*
D02*
X275Y3709D02*
X271Y3717D01*
D02*
X720Y3056D02*
X720Y3036D01*
D02*
X721Y2968D02*
X721Y2950D01*
D02*
X717Y3072D02*
X720Y3056D01*
D02*
X491Y3477D02*
X491Y3577D01*
D02*
X491Y3577D02*
X468Y3598D01*
D02*
X465Y3451D02*
X491Y3477D01*
D02*
X380Y3087D02*
X371Y3097D01*
D02*
X131Y3087D02*
X131Y3061D01*
D02*
X371Y3097D02*
X290Y3097D01*
D02*
X380Y3061D02*
X380Y3087D01*
D02*
X140Y3097D02*
X131Y3087D01*
D02*
X222Y3097D02*
X140Y3097D01*
D02*
X190Y2957D02*
X476Y2956D01*
D02*
X181Y2967D02*
X190Y2957D01*
D02*
X181Y2992D02*
X181Y2967D01*
G54D30*
D02*
X291Y2207D02*
X320Y2177D01*
D02*
X291Y2362D02*
X291Y2207D01*
D02*
X320Y2177D02*
X365Y2176D01*
G54D31*
D02*
X391Y1946D02*
X391Y2129D01*
D02*
X481Y2947D02*
X481Y2845D01*
D02*
X438Y2785D02*
X468Y2785D01*
G54D30*
D02*
X131Y2828D02*
X131Y2819D01*
G54D31*
D02*
X182Y2697D02*
X170Y2687D01*
D02*
X181Y2750D02*
X182Y2697D01*
D02*
X170Y2687D02*
X117Y2686D01*
D02*
X469Y2586D02*
X423Y2586D01*
D02*
X398Y2586D02*
X391Y2587D01*
D02*
X391Y2587D02*
X312Y2587D01*
D02*
X426Y2750D02*
X412Y2645D01*
D02*
X596Y2897D02*
X540Y2897D01*
D02*
X540Y2897D02*
X541Y2948D01*
D02*
X375Y912D02*
X359Y961D01*
D02*
X391Y585D02*
X391Y679D01*
D02*
X340Y607D02*
X290Y607D01*
D02*
X290Y607D02*
X216Y533D01*
D02*
X374Y580D02*
X340Y607D01*
D02*
X490Y607D02*
X562Y535D01*
D02*
X441Y607D02*
X490Y607D01*
D02*
X407Y580D02*
X441Y607D01*
G54D29*
D02*
X351Y457D02*
X334Y497D01*
D02*
X354Y420D02*
X351Y457D01*
D02*
X446Y497D02*
X430Y466D01*
D02*
X430Y466D02*
X430Y444D01*
D02*
X80Y58D02*
X73Y61D01*
D02*
X155Y57D02*
X80Y58D01*
G54D32*
D02*
X336Y287D02*
X332Y375D01*
D02*
X332Y190D02*
X336Y287D01*
D02*
X455Y287D02*
X455Y369D01*
D02*
X336Y287D02*
X455Y287D01*
D02*
X455Y287D02*
X455Y192D01*
G54D29*
D02*
X410Y76D02*
X407Y132D01*
D02*
X415Y63D02*
X410Y76D01*
D02*
X362Y63D02*
X380Y97D01*
D02*
X380Y97D02*
X380Y117D01*
G54D30*
D02*
X463Y557D02*
X462Y557D01*
D02*
X320Y557D02*
X318Y557D01*
G54D33*
D02*
G04 End of Copper1*
M02*