; NON-PLATED HOLES START AT T1
; THROUGH (PLATED) HOLES START AT T100
M48
INCH
T1C0.118110
T100C0.059842
T101C0.015748
T102C0.038000
T103C0.031497
%
T1
X005902Y002543
X001908Y018036
X005908Y007636
X005908Y036869
X001902Y002543
X005908Y018036
X001908Y036869
X005902Y012943
X005902Y023331
X001902Y023343
X001908Y007636
X001902Y012943
T100
X005905Y034318
X005905Y024662
X005905Y006306
X001905Y016706
X005905Y015485
X005905Y011006
X005905Y038806
X001905Y009574
X005905Y015494
X001905Y003874
X005905Y009574
X001905Y024674
X005905Y014274
X001905Y006306
X001905Y034318
X005905Y003874
X001905Y019974
X005905Y005085
X001905Y005094
X005905Y019974
X001905Y025894
X001905Y000606
X001905Y021406
X001905Y035538
X005905Y021394
X001905Y015494
X005905Y035538
X001905Y011006
X001905Y005085
X005905Y025882
X001905Y015485
X001905Y038806
X005905Y005094
X001905Y014274
X005905Y016706
X005905Y000606
T101
X002605Y029206
X006705Y033206
X001305Y031006
X003605Y026906
X003805Y028606
X001305Y028506
X003705Y012706
X002305Y027306
X003705Y011806
X002305Y030606
X000805Y030806
X004205Y011806
X006705Y031306
X003605Y033806
X000405Y001606
X005205Y027906
X004505Y035506
X003505Y020306
X005105Y030106
X004205Y038806
X003105Y019006
X004805Y005606
X003005Y005606
X003905Y014206
X007405Y029406
X007205Y033706
X003905Y019106
X002705Y014906
X002605Y036206
T102
X006205Y028006
X002905Y031906
X001905Y032906
X001905Y031906
X002905Y032906
X004905Y031906
X003905Y031906
X003905Y032906
X006205Y030006
X005905Y031906
X005905Y032906
X006205Y029006
X004905Y032906
T103
X004905Y026890
X000905Y026890
X002905Y026890
X002905Y025906
X006905Y025906
X006905Y026890
X004905Y025906
X000905Y025906
T00
M30
