; NON-PLATED HOLES START AT T1
; THROUGH (PLATED) HOLES START AT T100
M48
INCH
T1C0.118110
T100C0.038000
T101C0.015748
T102C0.040000
T103C0.059842
T104C0.031497
%
T1
X005902Y012904
X005902Y002504
X001902Y012904
X001908Y007629
X005902Y023292
X001902Y023304
X001908Y036829
X001902Y002504
X005908Y007629
X005908Y036829
X001908Y018029
X005908Y018018
T100
X001705Y031767
X004705Y032767
X002705Y032767
X002705Y031767
X004705Y031767
X006205Y027967
X000705Y031767
X000705Y032767
X001705Y032767
X003705Y031767
X003705Y032767
X006205Y029967
X006205Y028967
T101
X001305Y028467
X002605Y036167
X004805Y005566
X003905Y019267
X004505Y035467
X003005Y005566
X003905Y014166
X007205Y029367
X006405Y032567
X000805Y030767
X004205Y038767
T102
X005325Y030967
X007105Y030967
X005325Y033527
X007105Y033527
T103
X005905Y006299
X001905Y006299
X005905Y005078
X001905Y005078
X001905Y015478
X005905Y005055
X005905Y025843
X005905Y021355
X001905Y010967
X001905Y025855
X001905Y015455
X005905Y000567
X001905Y003834
X001905Y014234
X005905Y016687
X005905Y035499
X001905Y024634
X005905Y034278
X005905Y010967
X005905Y038767
X005905Y015466
X001905Y021367
X001905Y038767
X001905Y005055
X001905Y016699
X005905Y024622
X005905Y019955
X001905Y000567
X001905Y009566
X005905Y014234
X001905Y035499
X005905Y015455
X001905Y034278
X001905Y019967
X005905Y009566
X005905Y003834
T104
X006905Y026851
X000905Y025867
X004905Y025867
X004905Y026851
X000905Y026851
X006905Y025867
X002905Y025867
X002905Y026851
T00
M30
