; NON-PLATED HOLES START AT T1
; THROUGH (PLATED) HOLES START AT T100
M48
INCH
T1C0.118110
T100C0.059842
T101C0.015748
T102C0.038000
T103C0.031497
%
T1
X001902Y023343
X005902Y002543
X001902Y012943
X001902Y002543
X001908Y018036
X005908Y007636
X005902Y012943
X005908Y036869
X005902Y023343
X001908Y007636
X005908Y018036
X001908Y036869
T100
X001905Y021406
X005905Y005094
X001905Y024674
X001905Y034318
X005905Y014274
X001905Y000606
X005905Y005085
X001905Y025894
X001905Y005094
X005905Y034318
X005905Y015485
X001905Y011006
X005905Y016706
X001905Y014274
X001905Y006306
X005905Y024674
X005905Y003874
X001905Y015494
X005905Y015494
X005905Y038806
X001905Y019973
X005905Y006306
X005905Y011006
X001905Y005085
X005905Y035538
X001905Y035538
X005905Y009573
X001905Y003874
X005905Y021406
X005905Y025894
X001905Y038806
X005905Y019973
X005905Y000606
X001905Y015485
X001905Y016706
X001905Y009573
T101
X006603Y003205
X004703Y000405
X001003Y009755
X001153Y013605
X006705Y033206
X005205Y027906
X007153Y025255
X004505Y035506
X002305Y030556
X003603Y002955
X004903Y014105
X006705Y031306
X003703Y012705
X006653Y017305
X004753Y015055
X001305Y028506
X004203Y011805
X002303Y012155
X002703Y001705
X002605Y036206
X001153Y018855
X003903Y019105
X000403Y001505
X001153Y019405
X004803Y005605
X002953Y008955
X002305Y027456
X001003Y010305
X007205Y033706
X000805Y030806
X002605Y029206
X007053Y018205
X005105Y030106
X003603Y026905
X003153Y005605
X003703Y011805
X001103Y006855
X003903Y014205
X007053Y011755
X002703Y017455
X007053Y001905
X007405Y029406
X001553Y011755
X003703Y026305
X004403Y019655
X003453Y020305
X003605Y033806
X007053Y019755
X004403Y018555
X004903Y012505
X003853Y005355
X004205Y038806
X002703Y014905
X003805Y028606
X004753Y016005
X007553Y005105
X004003Y002455
X003103Y019155
X001305Y031006
T102
X001905Y031906
X006205Y029006
X005905Y032906
X005905Y031906
X001905Y032906
X004905Y032906
X002905Y031906
X003905Y031906
X002905Y032906
X004905Y031906
X006205Y030006
X006205Y028006
X003905Y032906
T103
X006905Y025906
X000905Y025906
X004905Y026890
X006905Y026890
X002905Y026890
X002905Y025906
X004905Y025906
X000905Y026890
T00
M30
