G04 MADE WITH FRITZING*
G04 WWW.FRITZING.ORG*
G04 DOUBLE SIDED*
G04 HOLES PLATED*
G04 CONTOUR ON CENTER OF CONTOUR VECTOR*
%ASAXBY*%
%FSLAX23Y23*%
%MOIN*%
%OFA0B0*%
%SFA1.0B1.0*%
%ADD10C,0.023361*%
%ADD11R,0.799213X5.059060X0.783213X5.043060*%
%ADD12C,0.008000*%
%ADD13R,0.309167X0.027778*%
%ADD14R,0.001000X0.001000*%
%LNSILK0*%
G90*
G70*
G54D10*
X603Y3422D03*
G54D12*
X4Y5055D02*
X795Y5055D01*
X795Y4D01*
X4Y4D01*
X4Y5055D01*
D02*
G54D13*
X592Y3333D03*
G54D14*
X438Y3628D02*
X746Y3628D01*
X438Y3627D02*
X746Y3627D01*
X438Y3626D02*
X746Y3626D01*
X438Y3625D02*
X746Y3625D01*
X438Y3624D02*
X746Y3624D01*
X438Y3623D02*
X746Y3623D01*
X438Y3622D02*
X746Y3622D01*
X438Y3621D02*
X746Y3621D01*
X438Y3620D02*
X746Y3620D01*
X438Y3619D02*
X746Y3619D01*
X438Y3618D02*
X746Y3618D01*
X438Y3617D02*
X746Y3617D01*
X438Y3616D02*
X746Y3616D01*
X438Y3615D02*
X746Y3615D01*
X438Y3614D02*
X746Y3614D01*
X438Y3613D02*
X746Y3613D01*
X438Y3612D02*
X746Y3612D01*
X438Y3611D02*
X746Y3611D01*
X438Y3610D02*
X746Y3610D01*
X438Y3609D02*
X746Y3609D01*
X438Y3608D02*
X746Y3608D01*
X438Y3607D02*
X746Y3607D01*
X438Y3606D02*
X746Y3606D01*
X438Y3605D02*
X746Y3605D01*
X438Y3604D02*
X746Y3604D01*
X438Y3603D02*
X746Y3603D01*
X438Y3602D02*
X746Y3602D01*
X438Y3601D02*
X746Y3601D01*
X438Y3600D02*
X746Y3600D01*
X438Y3599D02*
X746Y3599D01*
X438Y3598D02*
X746Y3598D01*
X438Y3597D02*
X746Y3597D01*
X438Y3596D02*
X746Y3596D01*
X438Y3595D02*
X746Y3595D01*
X438Y3594D02*
X746Y3594D01*
X438Y3593D02*
X746Y3593D01*
X438Y3592D02*
X746Y3592D01*
X438Y3591D02*
X746Y3591D01*
X438Y3590D02*
X746Y3590D01*
X438Y3589D02*
X546Y3589D01*
X580Y3589D02*
X746Y3589D01*
X438Y3588D02*
X541Y3588D01*
X588Y3588D02*
X746Y3588D01*
X438Y3587D02*
X539Y3587D01*
X591Y3587D02*
X746Y3587D01*
X438Y3586D02*
X537Y3586D01*
X594Y3586D02*
X746Y3586D01*
X438Y3585D02*
X536Y3585D01*
X596Y3585D02*
X746Y3585D01*
X438Y3584D02*
X535Y3584D01*
X597Y3584D02*
X746Y3584D01*
X438Y3583D02*
X534Y3583D01*
X599Y3583D02*
X746Y3583D01*
X438Y3582D02*
X534Y3582D01*
X600Y3582D02*
X746Y3582D01*
X438Y3581D02*
X533Y3581D01*
X601Y3581D02*
X746Y3581D01*
X438Y3580D02*
X533Y3580D01*
X603Y3580D02*
X746Y3580D01*
X438Y3579D02*
X533Y3579D01*
X604Y3579D02*
X746Y3579D01*
X438Y3578D02*
X533Y3578D01*
X605Y3578D02*
X746Y3578D01*
X438Y3577D02*
X533Y3577D01*
X606Y3577D02*
X746Y3577D01*
X438Y3576D02*
X532Y3576D01*
X607Y3576D02*
X746Y3576D01*
X438Y3575D02*
X532Y3575D01*
X608Y3575D02*
X746Y3575D01*
X438Y3574D02*
X532Y3574D01*
X608Y3574D02*
X746Y3574D01*
X438Y3573D02*
X532Y3573D01*
X609Y3573D02*
X746Y3573D01*
X438Y3572D02*
X533Y3572D01*
X610Y3572D02*
X746Y3572D01*
X438Y3571D02*
X533Y3571D01*
X611Y3571D02*
X746Y3571D01*
X438Y3570D02*
X533Y3570D01*
X611Y3570D02*
X746Y3570D01*
X438Y3569D02*
X533Y3569D01*
X612Y3569D02*
X746Y3569D01*
X438Y3568D02*
X534Y3568D01*
X612Y3568D02*
X746Y3568D01*
X438Y3567D02*
X534Y3567D01*
X613Y3567D02*
X746Y3567D01*
X438Y3566D02*
X535Y3566D01*
X614Y3566D02*
X746Y3566D01*
X438Y3565D02*
X536Y3565D01*
X614Y3565D02*
X746Y3565D01*
X438Y3564D02*
X537Y3564D01*
X614Y3564D02*
X746Y3564D01*
X438Y3563D02*
X539Y3563D01*
X615Y3563D02*
X746Y3563D01*
X438Y3562D02*
X542Y3562D01*
X615Y3562D02*
X746Y3562D01*
X438Y3561D02*
X546Y3561D01*
X615Y3561D02*
X746Y3561D01*
X438Y3560D02*
X580Y3560D01*
X616Y3560D02*
X746Y3560D01*
X438Y3559D02*
X582Y3559D01*
X616Y3559D02*
X746Y3559D01*
X438Y3558D02*
X584Y3558D01*
X616Y3558D02*
X746Y3558D01*
X438Y3557D02*
X584Y3557D01*
X616Y3557D02*
X746Y3557D01*
X438Y3556D02*
X585Y3556D01*
X616Y3556D02*
X746Y3556D01*
X438Y3555D02*
X586Y3555D01*
X617Y3555D02*
X746Y3555D01*
X438Y3554D02*
X586Y3554D01*
X617Y3554D02*
X746Y3554D01*
X438Y3553D02*
X587Y3553D01*
X617Y3553D02*
X746Y3553D01*
X438Y3552D02*
X587Y3552D01*
X617Y3552D02*
X746Y3552D01*
X438Y3551D02*
X587Y3551D01*
X617Y3551D02*
X746Y3551D01*
X438Y3550D02*
X587Y3550D01*
X617Y3550D02*
X746Y3550D01*
X438Y3549D02*
X588Y3549D01*
X617Y3549D02*
X746Y3549D01*
X438Y3548D02*
X588Y3548D01*
X617Y3548D02*
X746Y3548D01*
X438Y3547D02*
X588Y3547D01*
X617Y3547D02*
X746Y3547D01*
X438Y3546D02*
X588Y3546D01*
X617Y3546D02*
X746Y3546D01*
X438Y3545D02*
X588Y3545D01*
X617Y3545D02*
X746Y3545D01*
X438Y3544D02*
X588Y3544D01*
X617Y3544D02*
X746Y3544D01*
X438Y3543D02*
X588Y3543D01*
X617Y3543D02*
X746Y3543D01*
X438Y3542D02*
X588Y3542D01*
X617Y3542D02*
X746Y3542D01*
X438Y3541D02*
X588Y3541D01*
X617Y3541D02*
X746Y3541D01*
X438Y3540D02*
X588Y3540D01*
X617Y3540D02*
X746Y3540D01*
X438Y3539D02*
X588Y3539D01*
X617Y3539D02*
X746Y3539D01*
X438Y3538D02*
X588Y3538D01*
X617Y3538D02*
X746Y3538D01*
X438Y3537D02*
X588Y3537D01*
X617Y3537D02*
X746Y3537D01*
X438Y3536D02*
X588Y3536D01*
X617Y3536D02*
X746Y3536D01*
X438Y3535D02*
X588Y3535D01*
X617Y3535D02*
X746Y3535D01*
X438Y3534D02*
X588Y3534D01*
X617Y3534D02*
X746Y3534D01*
X438Y3533D02*
X588Y3533D01*
X617Y3533D02*
X746Y3533D01*
X438Y3532D02*
X588Y3532D01*
X617Y3532D02*
X746Y3532D01*
X438Y3531D02*
X565Y3531D01*
X633Y3531D02*
X746Y3531D01*
X438Y3530D02*
X561Y3530D01*
X637Y3530D02*
X746Y3530D01*
X438Y3529D02*
X559Y3529D01*
X639Y3529D02*
X746Y3529D01*
X438Y3528D02*
X558Y3528D01*
X640Y3528D02*
X746Y3528D01*
X438Y3527D02*
X557Y3527D01*
X642Y3527D02*
X746Y3527D01*
X438Y3526D02*
X556Y3526D01*
X642Y3526D02*
X746Y3526D01*
X438Y3525D02*
X555Y3525D01*
X643Y3525D02*
X746Y3525D01*
X438Y3524D02*
X555Y3524D01*
X644Y3524D02*
X746Y3524D01*
X438Y3523D02*
X554Y3523D01*
X644Y3523D02*
X746Y3523D01*
X438Y3522D02*
X554Y3522D01*
X644Y3522D02*
X746Y3522D01*
X438Y3521D02*
X554Y3521D01*
X645Y3521D02*
X746Y3521D01*
X438Y3520D02*
X553Y3520D01*
X645Y3520D02*
X746Y3520D01*
X438Y3519D02*
X553Y3519D01*
X645Y3519D02*
X746Y3519D01*
X438Y3518D02*
X553Y3518D01*
X645Y3518D02*
X746Y3518D01*
X438Y3517D02*
X553Y3517D01*
X645Y3517D02*
X746Y3517D01*
X438Y3516D02*
X553Y3516D01*
X645Y3516D02*
X746Y3516D01*
X438Y3515D02*
X553Y3515D01*
X645Y3515D02*
X746Y3515D01*
X438Y3514D02*
X554Y3514D01*
X645Y3514D02*
X746Y3514D01*
X438Y3513D02*
X554Y3513D01*
X645Y3513D02*
X746Y3513D01*
X438Y3512D02*
X554Y3512D01*
X644Y3512D02*
X746Y3512D01*
X438Y3511D02*
X554Y3511D01*
X644Y3511D02*
X746Y3511D01*
X438Y3510D02*
X555Y3510D01*
X643Y3510D02*
X746Y3510D01*
X438Y3509D02*
X555Y3509D01*
X643Y3509D02*
X746Y3509D01*
X438Y3508D02*
X556Y3508D01*
X642Y3508D02*
X746Y3508D01*
X438Y3507D02*
X557Y3507D01*
X641Y3507D02*
X746Y3507D01*
X438Y3506D02*
X559Y3506D01*
X640Y3506D02*
X746Y3506D01*
X438Y3505D02*
X560Y3505D01*
X638Y3505D02*
X746Y3505D01*
X438Y3504D02*
X563Y3504D01*
X635Y3504D02*
X746Y3504D01*
X438Y3503D02*
X588Y3503D01*
X618Y3503D02*
X746Y3503D01*
X438Y3502D02*
X588Y3502D01*
X617Y3502D02*
X746Y3502D01*
X438Y3501D02*
X588Y3501D01*
X617Y3501D02*
X746Y3501D01*
X438Y3500D02*
X588Y3500D01*
X617Y3500D02*
X746Y3500D01*
X438Y3499D02*
X588Y3499D01*
X617Y3499D02*
X746Y3499D01*
X438Y3498D02*
X588Y3498D01*
X617Y3498D02*
X746Y3498D01*
X438Y3497D02*
X588Y3497D01*
X617Y3497D02*
X746Y3497D01*
X438Y3496D02*
X588Y3496D01*
X617Y3496D02*
X746Y3496D01*
X438Y3495D02*
X588Y3495D01*
X617Y3495D02*
X746Y3495D01*
X438Y3494D02*
X588Y3494D01*
X617Y3494D02*
X746Y3494D01*
X438Y3493D02*
X588Y3493D01*
X617Y3493D02*
X746Y3493D01*
X438Y3492D02*
X588Y3492D01*
X617Y3492D02*
X746Y3492D01*
X438Y3491D02*
X588Y3491D01*
X617Y3491D02*
X746Y3491D01*
X438Y3490D02*
X588Y3490D01*
X617Y3490D02*
X746Y3490D01*
X438Y3489D02*
X588Y3489D01*
X617Y3489D02*
X746Y3489D01*
X438Y3488D02*
X588Y3488D01*
X617Y3488D02*
X746Y3488D01*
X438Y3487D02*
X588Y3487D01*
X617Y3487D02*
X746Y3487D01*
X438Y3486D02*
X588Y3486D01*
X617Y3486D02*
X746Y3486D01*
X438Y3485D02*
X588Y3485D01*
X617Y3485D02*
X746Y3485D01*
X438Y3484D02*
X588Y3484D01*
X617Y3484D02*
X746Y3484D01*
X438Y3483D02*
X588Y3483D01*
X617Y3483D02*
X746Y3483D01*
X438Y3482D02*
X588Y3482D01*
X617Y3482D02*
X746Y3482D01*
X438Y3481D02*
X588Y3481D01*
X617Y3481D02*
X746Y3481D01*
X438Y3480D02*
X588Y3480D01*
X617Y3480D02*
X746Y3480D01*
X438Y3479D02*
X588Y3479D01*
X617Y3479D02*
X746Y3479D01*
X438Y3478D02*
X588Y3478D01*
X617Y3478D02*
X746Y3478D01*
X438Y3477D02*
X588Y3477D01*
X617Y3477D02*
X746Y3477D01*
X438Y3476D02*
X588Y3476D01*
X617Y3476D02*
X746Y3476D01*
X438Y3475D02*
X588Y3475D01*
X617Y3475D02*
X746Y3475D01*
X438Y3474D02*
X588Y3474D01*
X617Y3474D02*
X746Y3474D01*
X438Y3473D02*
X588Y3473D01*
X617Y3473D02*
X746Y3473D01*
X438Y3472D02*
X588Y3472D01*
X617Y3472D02*
X746Y3472D01*
X438Y3471D02*
X588Y3471D01*
X617Y3471D02*
X746Y3471D01*
X438Y3470D02*
X588Y3470D01*
X617Y3470D02*
X746Y3470D01*
X438Y3469D02*
X588Y3469D01*
X617Y3469D02*
X746Y3469D01*
X438Y3468D02*
X588Y3468D01*
X617Y3468D02*
X746Y3468D01*
X438Y3467D02*
X588Y3467D01*
X617Y3467D02*
X746Y3467D01*
X438Y3466D02*
X588Y3466D01*
X617Y3466D02*
X746Y3466D01*
X438Y3465D02*
X588Y3465D01*
X617Y3465D02*
X746Y3465D01*
X438Y3464D02*
X588Y3464D01*
X617Y3464D02*
X746Y3464D01*
X438Y3463D02*
X588Y3463D01*
X617Y3463D02*
X746Y3463D01*
X438Y3462D02*
X588Y3462D01*
X617Y3462D02*
X746Y3462D01*
X438Y3461D02*
X588Y3461D01*
X617Y3461D02*
X746Y3461D01*
X438Y3460D02*
X588Y3460D01*
X617Y3460D02*
X746Y3460D01*
X438Y3459D02*
X588Y3459D01*
X617Y3459D02*
X746Y3459D01*
X438Y3458D02*
X588Y3458D01*
X617Y3458D02*
X746Y3458D01*
X438Y3457D02*
X588Y3457D01*
X617Y3457D02*
X746Y3457D01*
X438Y3456D02*
X588Y3456D01*
X617Y3456D02*
X746Y3456D01*
X438Y3455D02*
X588Y3455D01*
X617Y3455D02*
X746Y3455D01*
X438Y3454D02*
X588Y3454D01*
X617Y3454D02*
X746Y3454D01*
X438Y3453D02*
X588Y3453D01*
X617Y3453D02*
X746Y3453D01*
X438Y3452D02*
X588Y3452D01*
X617Y3452D02*
X746Y3452D01*
X438Y3451D02*
X588Y3451D01*
X618Y3451D02*
X746Y3451D01*
X438Y3450D02*
X587Y3450D01*
X619Y3450D02*
X746Y3450D01*
X438Y3449D02*
X585Y3449D01*
X621Y3449D02*
X746Y3449D01*
X438Y3448D02*
X583Y3448D01*
X622Y3448D02*
X746Y3448D01*
X438Y3447D02*
X582Y3447D01*
X623Y3447D02*
X746Y3447D01*
X438Y3446D02*
X581Y3446D01*
X625Y3446D02*
X746Y3446D01*
X438Y3445D02*
X580Y3445D01*
X626Y3445D02*
X746Y3445D01*
X438Y3444D02*
X579Y3444D01*
X627Y3444D02*
X746Y3444D01*
X438Y3443D02*
X578Y3443D01*
X627Y3443D02*
X746Y3443D01*
X438Y3442D02*
X577Y3442D01*
X628Y3442D02*
X746Y3442D01*
X438Y3441D02*
X576Y3441D01*
X629Y3441D02*
X746Y3441D01*
X438Y3440D02*
X576Y3440D01*
X630Y3440D02*
X746Y3440D01*
X438Y3439D02*
X575Y3439D01*
X630Y3439D02*
X746Y3439D01*
X438Y3438D02*
X574Y3438D01*
X631Y3438D02*
X746Y3438D01*
X438Y3437D02*
X574Y3437D01*
X632Y3437D02*
X746Y3437D01*
X438Y3436D02*
X573Y3436D01*
X632Y3436D02*
X746Y3436D01*
X438Y3435D02*
X573Y3435D01*
X633Y3435D02*
X746Y3435D01*
X438Y3434D02*
X572Y3434D01*
X633Y3434D02*
X746Y3434D01*
X438Y3433D02*
X572Y3433D01*
X633Y3433D02*
X746Y3433D01*
X438Y3432D02*
X572Y3432D01*
X634Y3432D02*
X746Y3432D01*
X438Y3431D02*
X571Y3431D01*
X634Y3431D02*
X746Y3431D01*
X438Y3430D02*
X571Y3430D01*
X634Y3430D02*
X746Y3430D01*
X438Y3429D02*
X571Y3429D01*
X634Y3429D02*
X746Y3429D01*
X438Y3428D02*
X571Y3428D01*
X635Y3428D02*
X746Y3428D01*
X438Y3427D02*
X570Y3427D01*
X635Y3427D02*
X746Y3427D01*
X438Y3426D02*
X570Y3426D01*
X635Y3426D02*
X746Y3426D01*
X438Y3425D02*
X570Y3425D01*
X635Y3425D02*
X746Y3425D01*
X438Y3424D02*
X570Y3424D01*
X635Y3424D02*
X746Y3424D01*
X438Y3423D02*
X570Y3423D01*
X635Y3423D02*
X746Y3423D01*
X438Y3422D02*
X570Y3422D01*
X635Y3422D02*
X746Y3422D01*
X438Y3421D02*
X570Y3421D01*
X635Y3421D02*
X746Y3421D01*
X438Y3420D02*
X570Y3420D01*
X635Y3420D02*
X746Y3420D01*
X438Y3419D02*
X570Y3419D01*
X635Y3419D02*
X746Y3419D01*
X438Y3418D02*
X570Y3418D01*
X635Y3418D02*
X746Y3418D01*
X438Y3417D02*
X571Y3417D01*
X635Y3417D02*
X746Y3417D01*
X438Y3416D02*
X571Y3416D01*
X635Y3416D02*
X746Y3416D01*
X438Y3415D02*
X571Y3415D01*
X634Y3415D02*
X746Y3415D01*
X438Y3414D02*
X571Y3414D01*
X634Y3414D02*
X746Y3414D01*
X438Y3413D02*
X571Y3413D01*
X634Y3413D02*
X746Y3413D01*
X438Y3412D02*
X572Y3412D01*
X634Y3412D02*
X746Y3412D01*
X438Y3411D02*
X572Y3411D01*
X633Y3411D02*
X746Y3411D01*
X438Y3410D02*
X572Y3410D01*
X633Y3410D02*
X746Y3410D01*
X438Y3409D02*
X573Y3409D01*
X632Y3409D02*
X746Y3409D01*
X438Y3408D02*
X573Y3408D01*
X632Y3408D02*
X746Y3408D01*
X438Y3407D02*
X574Y3407D01*
X631Y3407D02*
X746Y3407D01*
X438Y3406D02*
X574Y3406D01*
X631Y3406D02*
X746Y3406D01*
X438Y3405D02*
X575Y3405D01*
X630Y3405D02*
X746Y3405D01*
X438Y3404D02*
X576Y3404D01*
X630Y3404D02*
X746Y3404D01*
X438Y3403D02*
X576Y3403D01*
X629Y3403D02*
X746Y3403D01*
X438Y3402D02*
X577Y3402D01*
X628Y3402D02*
X746Y3402D01*
X438Y3401D02*
X578Y3401D01*
X627Y3401D02*
X746Y3401D01*
X438Y3400D02*
X579Y3400D01*
X626Y3400D02*
X746Y3400D01*
X438Y3399D02*
X580Y3399D01*
X625Y3399D02*
X746Y3399D01*
X438Y3398D02*
X581Y3398D01*
X624Y3398D02*
X746Y3398D01*
X438Y3397D02*
X582Y3397D01*
X623Y3397D02*
X746Y3397D01*
X438Y3396D02*
X584Y3396D01*
X622Y3396D02*
X746Y3396D01*
X438Y3395D02*
X585Y3395D01*
X620Y3395D02*
X746Y3395D01*
X438Y3394D02*
X587Y3394D01*
X619Y3394D02*
X746Y3394D01*
X438Y3393D02*
X589Y3393D01*
X617Y3393D02*
X746Y3393D01*
X438Y3392D02*
X591Y3392D01*
X614Y3392D02*
X746Y3392D01*
X438Y3391D02*
X595Y3391D01*
X611Y3391D02*
X746Y3391D01*
X438Y3390D02*
X746Y3390D01*
X438Y3389D02*
X746Y3389D01*
X438Y3388D02*
X746Y3388D01*
X438Y3387D02*
X746Y3387D01*
X438Y3386D02*
X746Y3386D01*
X438Y3385D02*
X746Y3385D01*
X438Y3384D02*
X746Y3384D01*
X438Y3383D02*
X746Y3383D01*
X438Y3382D02*
X746Y3382D01*
X438Y3381D02*
X746Y3381D01*
X438Y3380D02*
X746Y3380D01*
X438Y3379D02*
X746Y3379D01*
X438Y3378D02*
X746Y3378D01*
X438Y3377D02*
X746Y3377D01*
X438Y3376D02*
X746Y3376D01*
X438Y3375D02*
X746Y3375D01*
X438Y3374D02*
X746Y3374D01*
X438Y3373D02*
X746Y3373D01*
X438Y3372D02*
X746Y3372D01*
X438Y3371D02*
X746Y3371D01*
X438Y3370D02*
X746Y3370D01*
X438Y3369D02*
X746Y3369D01*
X438Y3368D02*
X746Y3368D01*
X438Y3367D02*
X746Y3367D01*
X438Y3366D02*
X746Y3366D01*
X438Y3365D02*
X745Y3365D01*
D02*
G04 End of Silk0*
M02*