G04 EAGLE Gerber RS-274X export*
G75*
%MOMM*%
%FSLAX34Y34*%
%LPD*%
%INTop Copper*%
%IPPOS*%
%AMOC8*
5,1,8,0,0,1.08239X$1,22.5*%
G01*
%ADD10P,1.979475X8X202.500000*%
%ADD11C,1.879600*%
%ADD12C,1.828800*%
%ADD13R,1.100000X1.000000*%
%ADD14C,0.406400*%
%ADD15C,0.452400*%

G36*
X184181Y90906D02*
X184181Y90906D01*
X184249Y90907D01*
X185178Y91029D01*
X185241Y91048D01*
X185306Y91058D01*
X185382Y91091D01*
X185413Y91101D01*
X185429Y91112D01*
X185459Y91125D01*
X187068Y92054D01*
X187156Y92126D01*
X187247Y92197D01*
X187253Y92205D01*
X187258Y92209D01*
X187270Y92228D01*
X187346Y92332D01*
X188275Y93941D01*
X188298Y94002D01*
X188330Y94059D01*
X188350Y94140D01*
X188362Y94171D01*
X188363Y94190D01*
X188371Y94222D01*
X188493Y95151D01*
X188492Y95182D01*
X188499Y95250D01*
X188499Y763081D01*
X188488Y763152D01*
X188486Y763224D01*
X188468Y763272D01*
X188460Y763324D01*
X188426Y763387D01*
X188401Y763455D01*
X188369Y763495D01*
X188344Y763541D01*
X188292Y763591D01*
X188248Y763647D01*
X188204Y763675D01*
X188166Y763711D01*
X188101Y763741D01*
X188041Y763780D01*
X187990Y763792D01*
X187943Y763814D01*
X187872Y763822D01*
X187802Y763840D01*
X187750Y763836D01*
X187699Y763841D01*
X187628Y763826D01*
X187557Y763820D01*
X187509Y763800D01*
X187458Y763789D01*
X187397Y763752D01*
X187331Y763724D01*
X187275Y763679D01*
X187247Y763663D01*
X187232Y763645D01*
X187200Y763619D01*
X175420Y751839D01*
X162908Y751839D01*
X160083Y754664D01*
X160009Y754717D01*
X159940Y754777D01*
X159910Y754789D01*
X159884Y754808D01*
X159797Y754835D01*
X159712Y754869D01*
X159671Y754873D01*
X159648Y754880D01*
X159616Y754879D01*
X159545Y754887D01*
X142532Y754887D01*
X142442Y754873D01*
X142351Y754865D01*
X142321Y754853D01*
X142290Y754848D01*
X142209Y754805D01*
X142125Y754769D01*
X142093Y754743D01*
X142072Y754732D01*
X142050Y754709D01*
X141994Y754664D01*
X141987Y754657D01*
X138429Y754657D01*
X135913Y757173D01*
X135913Y760731D01*
X138429Y763247D01*
X141987Y763247D01*
X141994Y763240D01*
X142068Y763187D01*
X142137Y763127D01*
X142168Y763115D01*
X142194Y763096D01*
X142281Y763069D01*
X142366Y763035D01*
X142406Y763031D01*
X142429Y763024D01*
X142461Y763025D01*
X142532Y763017D01*
X162784Y763017D01*
X162880Y763032D01*
X162977Y763042D01*
X163001Y763052D01*
X163027Y763056D01*
X163113Y763102D01*
X163202Y763142D01*
X163221Y763159D01*
X163244Y763172D01*
X163311Y763242D01*
X163319Y763250D01*
X163333Y763157D01*
X163340Y763060D01*
X163350Y763036D01*
X163354Y763010D01*
X163399Y762923D01*
X163437Y762834D01*
X163457Y762808D01*
X163466Y762791D01*
X163489Y762768D01*
X163541Y762703D01*
X166053Y760192D01*
X166127Y760139D01*
X166196Y760079D01*
X166226Y760067D01*
X166252Y760048D01*
X166340Y760021D01*
X166424Y759987D01*
X166465Y759983D01*
X166488Y759976D01*
X166520Y759977D01*
X166591Y759969D01*
X171737Y759969D01*
X171827Y759983D01*
X171918Y759991D01*
X171948Y760003D01*
X171980Y760008D01*
X172060Y760051D01*
X172144Y760087D01*
X172176Y760113D01*
X172197Y760124D01*
X172219Y760147D01*
X172275Y760192D01*
X181640Y769557D01*
X181693Y769631D01*
X181753Y769700D01*
X181765Y769730D01*
X181784Y769756D01*
X181811Y769843D01*
X181845Y769928D01*
X181849Y769969D01*
X181856Y769992D01*
X181855Y770024D01*
X181863Y770095D01*
X181863Y781337D01*
X181849Y781427D01*
X181841Y781518D01*
X181829Y781548D01*
X181824Y781580D01*
X181781Y781660D01*
X181745Y781744D01*
X181719Y781776D01*
X181708Y781797D01*
X181685Y781819D01*
X181673Y781835D01*
X181666Y781845D01*
X181660Y781851D01*
X181640Y781875D01*
X173947Y789568D01*
X173852Y789637D01*
X173759Y789706D01*
X173753Y789708D01*
X173748Y789712D01*
X173636Y789746D01*
X173525Y789782D01*
X173518Y789782D01*
X173512Y789784D01*
X173396Y789781D01*
X173279Y789780D01*
X173272Y789778D01*
X173267Y789778D01*
X173249Y789772D01*
X173118Y789733D01*
X170549Y788669D01*
X166001Y788669D01*
X161800Y790410D01*
X158585Y793625D01*
X156844Y797826D01*
X156844Y802374D01*
X158585Y806575D01*
X161800Y809790D01*
X166001Y811531D01*
X170549Y811531D01*
X174750Y809790D01*
X177965Y806575D01*
X179706Y802374D01*
X179706Y797826D01*
X179162Y796515D01*
X179136Y796401D01*
X179107Y796287D01*
X179108Y796281D01*
X179106Y796275D01*
X179117Y796159D01*
X179126Y796042D01*
X179129Y796037D01*
X179129Y796030D01*
X179177Y795923D01*
X179223Y795816D01*
X179227Y795810D01*
X179229Y795806D01*
X179242Y795792D01*
X179327Y795685D01*
X187200Y787813D01*
X187258Y787771D01*
X187310Y787721D01*
X187357Y787699D01*
X187399Y787669D01*
X187468Y787648D01*
X187533Y787618D01*
X187585Y787612D01*
X187635Y787597D01*
X187706Y787599D01*
X187777Y787591D01*
X187828Y787602D01*
X187880Y787603D01*
X187948Y787628D01*
X188018Y787643D01*
X188063Y787670D01*
X188111Y787688D01*
X188167Y787732D01*
X188229Y787769D01*
X188263Y787809D01*
X188303Y787841D01*
X188342Y787902D01*
X188389Y787956D01*
X188408Y788004D01*
X188436Y788048D01*
X188454Y788118D01*
X188481Y788184D01*
X188489Y788256D01*
X188497Y788287D01*
X188495Y788310D01*
X188499Y788351D01*
X188499Y1187450D01*
X188494Y1187481D01*
X188493Y1187549D01*
X188371Y1188478D01*
X188352Y1188541D01*
X188342Y1188606D01*
X188309Y1188682D01*
X188299Y1188713D01*
X188288Y1188729D01*
X188275Y1188759D01*
X187346Y1190368D01*
X187274Y1190456D01*
X187203Y1190547D01*
X187195Y1190553D01*
X187191Y1190558D01*
X187172Y1190570D01*
X187068Y1190646D01*
X185459Y1191575D01*
X185398Y1191598D01*
X185341Y1191630D01*
X185260Y1191650D01*
X185229Y1191662D01*
X185210Y1191663D01*
X185178Y1191671D01*
X184249Y1191793D01*
X184218Y1191792D01*
X184150Y1191799D01*
X19050Y1191799D01*
X19019Y1191794D01*
X18951Y1191793D01*
X18022Y1191671D01*
X17959Y1191652D01*
X17894Y1191642D01*
X17818Y1191609D01*
X17787Y1191599D01*
X17771Y1191588D01*
X17741Y1191575D01*
X16132Y1190646D01*
X16044Y1190574D01*
X15953Y1190503D01*
X15947Y1190495D01*
X15942Y1190491D01*
X15930Y1190472D01*
X15854Y1190368D01*
X14925Y1188759D01*
X14902Y1188698D01*
X14870Y1188641D01*
X14850Y1188560D01*
X14838Y1188529D01*
X14837Y1188510D01*
X14829Y1188478D01*
X14707Y1187549D01*
X14708Y1187518D01*
X14701Y1187450D01*
X14701Y814767D01*
X14712Y814696D01*
X14714Y814624D01*
X14732Y814575D01*
X14740Y814524D01*
X14774Y814461D01*
X14799Y814393D01*
X14831Y814353D01*
X14856Y814307D01*
X14907Y814257D01*
X14952Y814201D01*
X14996Y814173D01*
X15034Y814137D01*
X15099Y814107D01*
X15159Y814068D01*
X15210Y814056D01*
X15257Y814034D01*
X15328Y814026D01*
X15398Y814008D01*
X15450Y814012D01*
X15501Y814007D01*
X15572Y814022D01*
X15643Y814028D01*
X15691Y814048D01*
X15742Y814059D01*
X15803Y814096D01*
X15869Y814124D01*
X15925Y814169D01*
X15953Y814185D01*
X15968Y814203D01*
X16000Y814229D01*
X19672Y817901D01*
X19684Y817917D01*
X19700Y817929D01*
X19756Y818017D01*
X19816Y818101D01*
X19822Y818120D01*
X19833Y818136D01*
X19858Y818237D01*
X19888Y818336D01*
X19888Y818356D01*
X19893Y818375D01*
X19885Y818478D01*
X19882Y818581D01*
X19875Y818600D01*
X19874Y818620D01*
X19833Y818715D01*
X19797Y818812D01*
X19785Y818828D01*
X19777Y818846D01*
X19672Y818977D01*
X19481Y819169D01*
X17779Y823277D01*
X17779Y827723D01*
X19481Y831831D01*
X22625Y834975D01*
X26733Y836677D01*
X49467Y836677D01*
X53575Y834975D01*
X56719Y831831D01*
X58421Y827723D01*
X58421Y823277D01*
X56719Y819169D01*
X53575Y816025D01*
X49467Y814323D01*
X27907Y814323D01*
X27817Y814309D01*
X27726Y814301D01*
X27696Y814289D01*
X27664Y814284D01*
X27584Y814241D01*
X27500Y814205D01*
X27468Y814179D01*
X27447Y814168D01*
X27425Y814145D01*
X27369Y814100D01*
X22576Y809307D01*
X22523Y809233D01*
X22463Y809164D01*
X22451Y809134D01*
X22432Y809108D01*
X22405Y809021D01*
X22395Y808996D01*
X22381Y808964D01*
X22380Y808958D01*
X22371Y808936D01*
X22367Y808895D01*
X22360Y808872D01*
X22361Y808840D01*
X22353Y808769D01*
X22353Y803445D01*
X22368Y803349D01*
X22378Y803252D01*
X22388Y803228D01*
X22392Y803202D01*
X22438Y803116D01*
X22478Y803027D01*
X22495Y803008D01*
X22508Y802985D01*
X22578Y802918D01*
X22644Y802846D01*
X22667Y802833D01*
X22686Y802815D01*
X22774Y802774D01*
X22860Y802727D01*
X22885Y802723D01*
X22909Y802712D01*
X23006Y802701D01*
X23102Y802684D01*
X23128Y802687D01*
X23153Y802685D01*
X23249Y802705D01*
X23345Y802719D01*
X23368Y802731D01*
X23394Y802737D01*
X23477Y802787D01*
X23564Y802831D01*
X23583Y802850D01*
X23605Y802863D01*
X23668Y802937D01*
X23736Y803007D01*
X23752Y803035D01*
X23765Y803050D01*
X23777Y803081D01*
X23817Y803154D01*
X25235Y806575D01*
X28450Y809790D01*
X32651Y811531D01*
X37199Y811531D01*
X41400Y809790D01*
X44615Y806575D01*
X46356Y802374D01*
X46356Y800956D01*
X46370Y800866D01*
X46378Y800775D01*
X46390Y800745D01*
X46395Y800713D01*
X46438Y800633D01*
X46474Y800549D01*
X46500Y800517D01*
X46511Y800496D01*
X46534Y800474D01*
X46579Y800418D01*
X58929Y788068D01*
X58929Y776191D01*
X58943Y776101D01*
X58951Y776010D01*
X58963Y775980D01*
X58968Y775948D01*
X59011Y775868D01*
X59047Y775784D01*
X59073Y775752D01*
X59084Y775731D01*
X59107Y775709D01*
X59152Y775653D01*
X74613Y760192D01*
X74687Y760139D01*
X74756Y760079D01*
X74786Y760067D01*
X74812Y760048D01*
X74899Y760021D01*
X74984Y759987D01*
X75025Y759983D01*
X75048Y759976D01*
X75080Y759977D01*
X75151Y759969D01*
X83345Y759969D01*
X83435Y759983D01*
X83526Y759991D01*
X83556Y760003D01*
X83588Y760008D01*
X83668Y760051D01*
X83752Y760087D01*
X83784Y760113D01*
X83805Y760124D01*
X83827Y760147D01*
X83883Y760192D01*
X93248Y769557D01*
X93301Y769631D01*
X93361Y769700D01*
X93373Y769730D01*
X93392Y769756D01*
X93419Y769843D01*
X93453Y769928D01*
X93457Y769969D01*
X93464Y769992D01*
X93463Y770024D01*
X93471Y770095D01*
X93471Y805721D01*
X93468Y805738D01*
X93470Y805754D01*
X93456Y805820D01*
X93449Y805902D01*
X93437Y805932D01*
X93432Y805964D01*
X93420Y805986D01*
X93418Y805994D01*
X93395Y806033D01*
X93389Y806044D01*
X93353Y806128D01*
X93327Y806160D01*
X93316Y806181D01*
X93293Y806203D01*
X93293Y806204D01*
X93292Y806205D01*
X93291Y806206D01*
X93248Y806259D01*
X87161Y812346D01*
X87087Y812399D01*
X87018Y812459D01*
X86988Y812471D01*
X86962Y812490D01*
X86875Y812517D01*
X86790Y812551D01*
X86749Y812555D01*
X86726Y812562D01*
X86694Y812561D01*
X86623Y812569D01*
X86613Y812569D01*
X84097Y815085D01*
X84097Y818643D01*
X86515Y821060D01*
X86526Y821077D01*
X86542Y821089D01*
X86598Y821176D01*
X86658Y821260D01*
X86664Y821279D01*
X86675Y821296D01*
X86700Y821396D01*
X86731Y821495D01*
X86730Y821515D01*
X86735Y821534D01*
X86727Y821637D01*
X86724Y821741D01*
X86717Y821760D01*
X86716Y821780D01*
X86675Y821874D01*
X86640Y821972D01*
X86627Y821988D01*
X86620Y822006D01*
X86515Y822137D01*
X65595Y843056D01*
X62991Y845660D01*
X62991Y860585D01*
X62977Y860675D01*
X62969Y860766D01*
X62957Y860796D01*
X62952Y860828D01*
X62909Y860908D01*
X62873Y860992D01*
X62847Y861024D01*
X62836Y861045D01*
X62813Y861067D01*
X62768Y861123D01*
X55859Y868032D01*
X55843Y868044D01*
X55831Y868060D01*
X55743Y868116D01*
X55660Y868176D01*
X55641Y868182D01*
X55624Y868193D01*
X55523Y868218D01*
X55424Y868248D01*
X55404Y868248D01*
X55385Y868253D01*
X55282Y868245D01*
X55179Y868242D01*
X55160Y868235D01*
X55140Y868234D01*
X55045Y868193D01*
X54948Y868157D01*
X54932Y868145D01*
X54914Y868137D01*
X54783Y868032D01*
X53575Y866825D01*
X49467Y865123D01*
X26733Y865123D01*
X22625Y866825D01*
X19481Y869969D01*
X17779Y874077D01*
X17779Y878523D01*
X19481Y882631D01*
X22625Y885775D01*
X26733Y887477D01*
X49467Y887477D01*
X53575Y885775D01*
X56719Y882631D01*
X58421Y878523D01*
X58421Y877283D01*
X58435Y877193D01*
X58443Y877102D01*
X58455Y877072D01*
X58460Y877040D01*
X58484Y876995D01*
X58485Y876992D01*
X58493Y876979D01*
X58503Y876960D01*
X58539Y876876D01*
X58565Y876844D01*
X58576Y876823D01*
X58599Y876801D01*
X58601Y876798D01*
X58611Y876781D01*
X58622Y876772D01*
X58644Y876745D01*
X59152Y876237D01*
X70836Y864553D01*
X70894Y864511D01*
X70946Y864461D01*
X70964Y864453D01*
X70978Y864441D01*
X71007Y864429D01*
X71035Y864409D01*
X71104Y864388D01*
X71169Y864358D01*
X71191Y864355D01*
X71206Y864349D01*
X71243Y864345D01*
X71271Y864337D01*
X71310Y864338D01*
X71373Y864331D01*
X71374Y864331D01*
X71390Y864333D01*
X71413Y864331D01*
X71464Y864342D01*
X71516Y864343D01*
X71571Y864363D01*
X71617Y864370D01*
X71631Y864378D01*
X71654Y864383D01*
X71699Y864410D01*
X71747Y864428D01*
X71792Y864463D01*
X71834Y864486D01*
X71846Y864498D01*
X71865Y864509D01*
X71899Y864549D01*
X71939Y864581D01*
X71970Y864628D01*
X72004Y864664D01*
X72011Y864680D01*
X72025Y864696D01*
X72044Y864744D01*
X72072Y864788D01*
X72086Y864841D01*
X72107Y864887D01*
X72109Y864905D01*
X72117Y864924D01*
X72125Y864996D01*
X72133Y865027D01*
X72131Y865050D01*
X72135Y865091D01*
X72135Y890232D01*
X72133Y890244D01*
X72134Y890253D01*
X72125Y890297D01*
X72124Y890303D01*
X72122Y890374D01*
X72104Y890423D01*
X72096Y890475D01*
X72062Y890538D01*
X72037Y890605D01*
X72005Y890646D01*
X71980Y890692D01*
X71928Y890741D01*
X71884Y890797D01*
X71840Y890825D01*
X71802Y890861D01*
X71737Y890891D01*
X71677Y890930D01*
X71626Y890943D01*
X71579Y890965D01*
X71508Y890973D01*
X71438Y890990D01*
X71386Y890986D01*
X71335Y890992D01*
X71264Y890977D01*
X71193Y890971D01*
X71145Y890951D01*
X71094Y890940D01*
X71033Y890903D01*
X70967Y890875D01*
X70911Y890830D01*
X70883Y890814D01*
X70868Y890796D01*
X70836Y890770D01*
X68835Y888769D01*
X65277Y888769D01*
X62761Y891285D01*
X62761Y894843D01*
X62768Y894850D01*
X62821Y894924D01*
X62881Y894993D01*
X62893Y895024D01*
X62912Y895050D01*
X62939Y895137D01*
X62973Y895222D01*
X62977Y895262D01*
X62984Y895285D01*
X62983Y895317D01*
X62991Y895388D01*
X62991Y915124D01*
X62977Y915214D01*
X62969Y915305D01*
X62957Y915334D01*
X62952Y915366D01*
X62909Y915447D01*
X62873Y915531D01*
X62847Y915563D01*
X62836Y915584D01*
X62813Y915606D01*
X62768Y915662D01*
X62761Y915669D01*
X62761Y919227D01*
X65277Y921743D01*
X68835Y921743D01*
X71351Y919227D01*
X71351Y915669D01*
X71344Y915662D01*
X71291Y915588D01*
X71231Y915519D01*
X71219Y915488D01*
X71200Y915462D01*
X71173Y915375D01*
X71139Y915290D01*
X71135Y915250D01*
X71128Y915227D01*
X71129Y915195D01*
X71121Y915124D01*
X71121Y911136D01*
X71132Y911065D01*
X71134Y910994D01*
X71152Y910945D01*
X71160Y910893D01*
X71194Y910830D01*
X71219Y910763D01*
X71251Y910722D01*
X71276Y910676D01*
X71328Y910627D01*
X71372Y910571D01*
X71416Y910543D01*
X71454Y910507D01*
X71519Y910477D01*
X71579Y910438D01*
X71630Y910425D01*
X71677Y910403D01*
X71748Y910395D01*
X71818Y910378D01*
X71870Y910382D01*
X71921Y910376D01*
X71992Y910391D01*
X72063Y910397D01*
X72111Y910417D01*
X72162Y910428D01*
X72223Y910465D01*
X72289Y910493D01*
X72345Y910538D01*
X72373Y910554D01*
X72388Y910572D01*
X72420Y910598D01*
X74421Y912599D01*
X77979Y912599D01*
X79980Y910598D01*
X80038Y910556D01*
X80090Y910507D01*
X80137Y910485D01*
X80179Y910454D01*
X80248Y910433D01*
X80313Y910403D01*
X80365Y910397D01*
X80415Y910382D01*
X80486Y910384D01*
X80557Y910376D01*
X80608Y910387D01*
X80660Y910388D01*
X80728Y910413D01*
X80798Y910428D01*
X80843Y910455D01*
X80891Y910473D01*
X80947Y910518D01*
X81009Y910554D01*
X81043Y910594D01*
X81083Y910627D01*
X81122Y910687D01*
X81169Y910741D01*
X81188Y910790D01*
X81216Y910833D01*
X81234Y910903D01*
X81261Y910969D01*
X81269Y911041D01*
X81277Y911072D01*
X81275Y911095D01*
X81279Y911136D01*
X81279Y934372D01*
X138968Y992061D01*
X139021Y992135D01*
X139081Y992204D01*
X139093Y992234D01*
X139112Y992260D01*
X139139Y992347D01*
X139173Y992432D01*
X139177Y992473D01*
X139184Y992496D01*
X139183Y992528D01*
X139191Y992599D01*
X139191Y995332D01*
X144556Y1000697D01*
X144609Y1000771D01*
X144669Y1000840D01*
X144681Y1000870D01*
X144700Y1000896D01*
X144727Y1000983D01*
X144761Y1001068D01*
X144765Y1001109D01*
X144772Y1001132D01*
X144771Y1001164D01*
X144779Y1001235D01*
X144779Y1005523D01*
X146481Y1009631D01*
X149625Y1012775D01*
X153733Y1014477D01*
X176467Y1014477D01*
X180575Y1012775D01*
X183719Y1009631D01*
X185421Y1005523D01*
X185421Y1001077D01*
X183719Y996969D01*
X180575Y993825D01*
X176467Y992123D01*
X153733Y992123D01*
X149781Y993760D01*
X149668Y993787D01*
X149554Y993815D01*
X149548Y993815D01*
X149542Y993816D01*
X149425Y993805D01*
X149309Y993796D01*
X149303Y993794D01*
X149297Y993793D01*
X149190Y993746D01*
X149082Y993700D01*
X149077Y993695D01*
X149072Y993693D01*
X149058Y993681D01*
X148951Y993595D01*
X147544Y992187D01*
X147491Y992113D01*
X147431Y992044D01*
X147419Y992014D01*
X147400Y991988D01*
X147373Y991900D01*
X147339Y991816D01*
X147335Y991775D01*
X147328Y991752D01*
X147329Y991720D01*
X147321Y991649D01*
X147321Y988916D01*
X89632Y931227D01*
X89579Y931153D01*
X89519Y931084D01*
X89507Y931054D01*
X89488Y931028D01*
X89461Y930941D01*
X89427Y930856D01*
X89423Y930815D01*
X89416Y930792D01*
X89417Y930760D01*
X89409Y930689D01*
X89409Y906620D01*
X86805Y904016D01*
X86584Y903795D01*
X86531Y903721D01*
X86471Y903652D01*
X86459Y903622D01*
X86440Y903596D01*
X86413Y903509D01*
X86379Y903424D01*
X86375Y903383D01*
X86368Y903361D01*
X86369Y903328D01*
X86361Y903257D01*
X86361Y852391D01*
X86375Y852301D01*
X86383Y852210D01*
X86395Y852180D01*
X86400Y852148D01*
X86443Y852068D01*
X86479Y851984D01*
X86505Y851951D01*
X86516Y851931D01*
X86539Y851909D01*
X86584Y851853D01*
X88870Y849567D01*
X88928Y849525D01*
X88980Y849475D01*
X89027Y849453D01*
X89069Y849423D01*
X89138Y849402D01*
X89203Y849372D01*
X89255Y849366D01*
X89305Y849351D01*
X89376Y849353D01*
X89447Y849345D01*
X89498Y849356D01*
X89550Y849357D01*
X89618Y849382D01*
X89688Y849397D01*
X89733Y849424D01*
X89781Y849442D01*
X89837Y849486D01*
X89899Y849523D01*
X89933Y849563D01*
X89973Y849595D01*
X90012Y849656D01*
X90059Y849710D01*
X90078Y849758D01*
X90106Y849802D01*
X90124Y849872D01*
X90151Y849938D01*
X90159Y850010D01*
X90167Y850041D01*
X90165Y850064D01*
X90169Y850105D01*
X90169Y853174D01*
X91910Y857375D01*
X95125Y860590D01*
X99326Y862331D01*
X103874Y862331D01*
X108075Y860590D01*
X111290Y857375D01*
X113031Y853174D01*
X113031Y848626D01*
X111290Y844425D01*
X108075Y841210D01*
X103874Y839469D01*
X100805Y839469D01*
X100734Y839458D01*
X100662Y839456D01*
X100614Y839438D01*
X100562Y839430D01*
X100499Y839396D01*
X100431Y839371D01*
X100391Y839339D01*
X100345Y839314D01*
X100295Y839262D01*
X100239Y839218D01*
X100211Y839174D01*
X100175Y839136D01*
X100145Y839071D01*
X100106Y839011D01*
X100094Y838960D01*
X100072Y838913D01*
X100064Y838842D01*
X100046Y838772D01*
X100050Y838720D01*
X100045Y838669D01*
X100060Y838598D01*
X100066Y838527D01*
X100086Y838479D01*
X100097Y838428D01*
X100134Y838367D01*
X100162Y838301D01*
X100207Y838245D01*
X100223Y838217D01*
X100241Y838202D01*
X100267Y838170D01*
X114237Y824200D01*
X114311Y824147D01*
X114380Y824087D01*
X114410Y824075D01*
X114436Y824056D01*
X114523Y824029D01*
X114608Y823995D01*
X114649Y823991D01*
X114672Y823984D01*
X114704Y823985D01*
X114775Y823977D01*
X129700Y823977D01*
X131796Y821881D01*
X131854Y821839D01*
X131906Y821789D01*
X131953Y821767D01*
X131995Y821737D01*
X132064Y821716D01*
X132129Y821686D01*
X132181Y821680D01*
X132231Y821665D01*
X132302Y821667D01*
X132373Y821659D01*
X132424Y821670D01*
X132476Y821671D01*
X132544Y821696D01*
X132614Y821711D01*
X132659Y821738D01*
X132707Y821756D01*
X132763Y821800D01*
X132825Y821837D01*
X132859Y821877D01*
X132899Y821909D01*
X132938Y821970D01*
X132985Y822024D01*
X133004Y822072D01*
X133032Y822116D01*
X133050Y822186D01*
X133077Y822252D01*
X133085Y822324D01*
X133093Y822355D01*
X133091Y822378D01*
X133095Y822419D01*
X133095Y833788D01*
X145358Y846051D01*
X145426Y846145D01*
X145496Y846239D01*
X145498Y846245D01*
X145502Y846251D01*
X145536Y846361D01*
X145572Y846473D01*
X145572Y846480D01*
X145574Y846486D01*
X145571Y846602D01*
X145570Y846719D01*
X145568Y846726D01*
X145568Y846731D01*
X145561Y846749D01*
X145523Y846880D01*
X144779Y848677D01*
X144779Y853123D01*
X146481Y857231D01*
X149625Y860375D01*
X153733Y862077D01*
X176467Y862077D01*
X180575Y860375D01*
X183719Y857231D01*
X185421Y853123D01*
X185421Y848677D01*
X183719Y844569D01*
X180575Y841425D01*
X176467Y839723D01*
X153733Y839723D01*
X151936Y840467D01*
X151823Y840494D01*
X151709Y840523D01*
X151703Y840522D01*
X151697Y840524D01*
X151580Y840513D01*
X151464Y840503D01*
X151458Y840501D01*
X151452Y840500D01*
X151344Y840453D01*
X151238Y840407D01*
X151232Y840403D01*
X151227Y840400D01*
X151214Y840388D01*
X151107Y840302D01*
X141448Y830643D01*
X141395Y830569D01*
X141335Y830500D01*
X141323Y830470D01*
X141304Y830444D01*
X141277Y830357D01*
X141243Y830272D01*
X141239Y830231D01*
X141232Y830208D01*
X141233Y830176D01*
X141225Y830105D01*
X141225Y821911D01*
X141239Y821821D01*
X141247Y821730D01*
X141259Y821700D01*
X141264Y821668D01*
X141307Y821588D01*
X141343Y821504D01*
X141369Y821472D01*
X141380Y821451D01*
X141403Y821429D01*
X141448Y821373D01*
X150369Y812452D01*
X150369Y797527D01*
X150383Y797437D01*
X150391Y797346D01*
X150403Y797316D01*
X150408Y797284D01*
X150451Y797204D01*
X150487Y797120D01*
X150513Y797088D01*
X150524Y797067D01*
X150547Y797045D01*
X150592Y796989D01*
X156679Y790902D01*
X156753Y790849D01*
X156822Y790789D01*
X156852Y790777D01*
X156878Y790758D01*
X156965Y790731D01*
X157050Y790697D01*
X157091Y790693D01*
X157114Y790686D01*
X157146Y790687D01*
X157217Y790679D01*
X157227Y790679D01*
X159743Y788163D01*
X159743Y784605D01*
X157742Y782604D01*
X157700Y782546D01*
X157651Y782494D01*
X157629Y782447D01*
X157598Y782405D01*
X157577Y782336D01*
X157547Y782271D01*
X157541Y782219D01*
X157526Y782169D01*
X157528Y782098D01*
X157520Y782027D01*
X157531Y781976D01*
X157532Y781924D01*
X157557Y781856D01*
X157572Y781786D01*
X157599Y781741D01*
X157617Y781693D01*
X157662Y781637D01*
X157698Y781575D01*
X157738Y781541D01*
X157771Y781501D01*
X157831Y781462D01*
X157885Y781415D01*
X157934Y781396D01*
X157977Y781368D01*
X158047Y781350D01*
X158113Y781323D01*
X158185Y781315D01*
X158216Y781307D01*
X158239Y781309D01*
X158280Y781305D01*
X158399Y781305D01*
X158489Y781319D01*
X158580Y781327D01*
X158610Y781339D01*
X158642Y781344D01*
X158722Y781387D01*
X158806Y781423D01*
X158838Y781449D01*
X158859Y781460D01*
X158881Y781483D01*
X158937Y781528D01*
X161800Y784390D01*
X166001Y786131D01*
X170549Y786131D01*
X174750Y784390D01*
X177965Y781175D01*
X179706Y776974D01*
X179706Y772426D01*
X177965Y768225D01*
X174750Y765010D01*
X170549Y763269D01*
X166001Y763269D01*
X164371Y763945D01*
X164276Y763967D01*
X164183Y763995D01*
X164157Y763995D01*
X164132Y764001D01*
X164035Y763992D01*
X163937Y763989D01*
X163913Y763980D01*
X163887Y763978D01*
X163798Y763938D01*
X163706Y763905D01*
X163686Y763888D01*
X163662Y763878D01*
X163590Y763812D01*
X163544Y763775D01*
X163541Y763792D01*
X163544Y763817D01*
X163523Y763913D01*
X163509Y764009D01*
X163497Y764032D01*
X163492Y764058D01*
X163442Y764141D01*
X163398Y764228D01*
X163379Y764247D01*
X163366Y764269D01*
X163292Y764332D01*
X163222Y764400D01*
X163194Y764416D01*
X163179Y764429D01*
X163148Y764441D01*
X163075Y764481D01*
X161800Y765010D01*
X158585Y768225D01*
X156841Y772434D01*
X156843Y772453D01*
X156821Y772555D01*
X156805Y772657D01*
X156795Y772674D01*
X156791Y772694D01*
X156738Y772783D01*
X156689Y772874D01*
X156675Y772888D01*
X156665Y772905D01*
X156586Y772972D01*
X156511Y773044D01*
X156493Y773052D01*
X156478Y773065D01*
X156382Y773104D01*
X156288Y773147D01*
X156268Y773149D01*
X156250Y773157D01*
X156083Y773175D01*
X153764Y773175D01*
X150939Y776000D01*
X150865Y776053D01*
X150796Y776113D01*
X150766Y776125D01*
X150740Y776144D01*
X150653Y776171D01*
X150568Y776205D01*
X150527Y776209D01*
X150504Y776216D01*
X150472Y776215D01*
X150401Y776223D01*
X136111Y776223D01*
X136021Y776209D01*
X135930Y776201D01*
X135900Y776189D01*
X135868Y776184D01*
X135788Y776141D01*
X135704Y776105D01*
X135671Y776079D01*
X135651Y776068D01*
X135629Y776045D01*
X135573Y776000D01*
X135479Y775906D01*
X135426Y775832D01*
X135366Y775763D01*
X135354Y775733D01*
X135335Y775707D01*
X135308Y775620D01*
X135274Y775535D01*
X135270Y775494D01*
X135263Y775472D01*
X135264Y775440D01*
X135256Y775368D01*
X135256Y772426D01*
X133515Y768225D01*
X130300Y765010D01*
X126099Y763269D01*
X121551Y763269D01*
X118623Y764482D01*
X118510Y764509D01*
X118396Y764537D01*
X118390Y764537D01*
X118384Y764538D01*
X118267Y764527D01*
X118151Y764518D01*
X118145Y764516D01*
X118139Y764515D01*
X118031Y764467D01*
X117924Y764422D01*
X117919Y764417D01*
X117914Y764415D01*
X117900Y764403D01*
X117794Y764317D01*
X106909Y753432D01*
X106867Y753374D01*
X106817Y753322D01*
X106795Y753275D01*
X106765Y753233D01*
X106744Y753164D01*
X106714Y753099D01*
X106708Y753047D01*
X106693Y752997D01*
X106695Y752926D01*
X106687Y752855D01*
X106698Y752804D01*
X106699Y752752D01*
X106724Y752684D01*
X106739Y752614D01*
X106766Y752570D01*
X106784Y752521D01*
X106828Y752465D01*
X106865Y752403D01*
X106905Y752369D01*
X106937Y752329D01*
X106998Y752290D01*
X107052Y752243D01*
X107100Y752224D01*
X107144Y752196D01*
X107214Y752178D01*
X107280Y752151D01*
X107352Y752143D01*
X107383Y752135D01*
X107406Y752137D01*
X107447Y752133D01*
X107942Y752133D01*
X109133Y750942D01*
X109133Y739258D01*
X107942Y738067D01*
X95258Y738067D01*
X94067Y739258D01*
X94067Y741934D01*
X94064Y741954D01*
X94066Y741973D01*
X94044Y742075D01*
X94028Y742177D01*
X94018Y742194D01*
X94014Y742214D01*
X93961Y742303D01*
X93912Y742394D01*
X93898Y742408D01*
X93888Y742425D01*
X93809Y742492D01*
X93734Y742564D01*
X93716Y742572D01*
X93701Y742585D01*
X93605Y742624D01*
X93511Y742667D01*
X93491Y742669D01*
X93473Y742677D01*
X93306Y742695D01*
X71468Y742695D01*
X68864Y745299D01*
X62777Y751386D01*
X62703Y751439D01*
X62634Y751499D01*
X62604Y751511D01*
X62578Y751530D01*
X62491Y751557D01*
X62406Y751591D01*
X62365Y751595D01*
X62343Y751602D01*
X62310Y751601D01*
X62239Y751609D01*
X62229Y751609D01*
X59713Y754125D01*
X59713Y754135D01*
X59699Y754225D01*
X59691Y754316D01*
X59679Y754346D01*
X59674Y754378D01*
X59631Y754458D01*
X59595Y754542D01*
X59569Y754574D01*
X59558Y754595D01*
X59535Y754617D01*
X59490Y754673D01*
X45809Y768355D01*
X45771Y768382D01*
X45740Y768416D01*
X45672Y768453D01*
X45609Y768499D01*
X45565Y768512D01*
X45524Y768534D01*
X45448Y768548D01*
X45374Y768571D01*
X45327Y768570D01*
X45282Y768578D01*
X45205Y768567D01*
X45128Y768565D01*
X45084Y768549D01*
X45039Y768542D01*
X44970Y768507D01*
X44897Y768480D01*
X44861Y768451D01*
X44819Y768430D01*
X44765Y768375D01*
X44705Y768326D01*
X44683Y768293D01*
X41400Y765010D01*
X37199Y763269D01*
X32651Y763269D01*
X28450Y765010D01*
X25235Y768225D01*
X23817Y771646D01*
X23766Y771729D01*
X23720Y771815D01*
X23701Y771833D01*
X23688Y771856D01*
X23613Y771918D01*
X23542Y771985D01*
X23518Y771996D01*
X23498Y772012D01*
X23407Y772047D01*
X23319Y772088D01*
X23293Y772091D01*
X23269Y772101D01*
X23171Y772105D01*
X23075Y772115D01*
X23049Y772110D01*
X23023Y772111D01*
X22929Y772084D01*
X22834Y772063D01*
X22812Y772050D01*
X22787Y772042D01*
X22707Y771987D01*
X22623Y771937D01*
X22606Y771917D01*
X22585Y771902D01*
X22526Y771824D01*
X22463Y771750D01*
X22453Y771726D01*
X22438Y771705D01*
X22408Y771612D01*
X22371Y771522D01*
X22368Y771489D01*
X22362Y771471D01*
X22362Y771438D01*
X22353Y771355D01*
X22353Y767047D01*
X22367Y766957D01*
X22375Y766866D01*
X22387Y766836D01*
X22392Y766804D01*
X22435Y766724D01*
X22471Y766640D01*
X22497Y766608D01*
X22508Y766587D01*
X22531Y766565D01*
X22576Y766509D01*
X25401Y763684D01*
X25401Y379951D01*
X25415Y379861D01*
X25423Y379770D01*
X25435Y379740D01*
X25440Y379708D01*
X25483Y379628D01*
X25519Y379544D01*
X25545Y379512D01*
X25556Y379491D01*
X25579Y379469D01*
X25624Y379413D01*
X44852Y360185D01*
X44868Y360173D01*
X44880Y360157D01*
X44968Y360101D01*
X45052Y360041D01*
X45071Y360035D01*
X45087Y360024D01*
X45188Y359999D01*
X45287Y359969D01*
X45307Y359969D01*
X45326Y359964D01*
X45429Y359972D01*
X45533Y359975D01*
X45551Y359982D01*
X45571Y359983D01*
X45666Y360024D01*
X45764Y360060D01*
X45779Y360072D01*
X45797Y360080D01*
X45928Y360185D01*
X46170Y360427D01*
X55430Y360427D01*
X61977Y353880D01*
X61977Y344620D01*
X55430Y338073D01*
X46170Y338073D01*
X39623Y344620D01*
X39623Y353601D01*
X39609Y353691D01*
X39601Y353782D01*
X39589Y353812D01*
X39584Y353844D01*
X39541Y353924D01*
X39505Y354008D01*
X39479Y354040D01*
X39468Y354061D01*
X39445Y354083D01*
X39400Y354139D01*
X17271Y376268D01*
X17271Y760001D01*
X17257Y760091D01*
X17249Y760182D01*
X17237Y760212D01*
X17232Y760244D01*
X17189Y760324D01*
X17153Y760408D01*
X17127Y760440D01*
X17116Y760461D01*
X17093Y760483D01*
X17048Y760539D01*
X16827Y760760D01*
X16000Y761587D01*
X15942Y761629D01*
X15890Y761679D01*
X15843Y761701D01*
X15801Y761731D01*
X15732Y761752D01*
X15667Y761782D01*
X15615Y761788D01*
X15565Y761803D01*
X15494Y761801D01*
X15423Y761809D01*
X15372Y761798D01*
X15320Y761797D01*
X15252Y761772D01*
X15182Y761757D01*
X15137Y761730D01*
X15089Y761712D01*
X15033Y761668D01*
X14971Y761631D01*
X14937Y761591D01*
X14897Y761559D01*
X14858Y761498D01*
X14811Y761444D01*
X14792Y761396D01*
X14764Y761352D01*
X14746Y761282D01*
X14719Y761216D01*
X14711Y761145D01*
X14703Y761113D01*
X14705Y761090D01*
X14701Y761049D01*
X14701Y95250D01*
X14706Y95219D01*
X14707Y95151D01*
X14829Y94222D01*
X14848Y94159D01*
X14858Y94094D01*
X14891Y94018D01*
X14901Y93987D01*
X14912Y93971D01*
X14925Y93941D01*
X15854Y92332D01*
X15926Y92243D01*
X15997Y92153D01*
X16005Y92147D01*
X16009Y92142D01*
X16028Y92130D01*
X16132Y92054D01*
X17741Y91125D01*
X17802Y91102D01*
X17859Y91070D01*
X17940Y91050D01*
X17971Y91038D01*
X17990Y91037D01*
X18022Y91029D01*
X18951Y90907D01*
X18982Y90908D01*
X19050Y90901D01*
X184150Y90901D01*
X184181Y90906D01*
G37*
%LPC*%
G36*
X99326Y890269D02*
X99326Y890269D01*
X95125Y892010D01*
X91910Y895225D01*
X90169Y899426D01*
X90169Y903974D01*
X91910Y908175D01*
X95125Y911390D01*
X99326Y913131D01*
X103874Y913131D01*
X108075Y911390D01*
X110080Y909385D01*
X110096Y909374D01*
X110109Y909358D01*
X110196Y909302D01*
X110280Y909242D01*
X110299Y909236D01*
X110316Y909225D01*
X110416Y909200D01*
X110515Y909169D01*
X110535Y909170D01*
X110554Y909165D01*
X110657Y909173D01*
X110761Y909176D01*
X110780Y909183D01*
X110800Y909184D01*
X110895Y909225D01*
X110992Y909260D01*
X111008Y909273D01*
X111026Y909280D01*
X111076Y909321D01*
X128232Y909321D01*
X128303Y909332D01*
X128374Y909334D01*
X128423Y909352D01*
X128475Y909360D01*
X128538Y909394D01*
X128605Y909419D01*
X128646Y909451D01*
X128692Y909476D01*
X128741Y909528D01*
X128797Y909572D01*
X128825Y909616D01*
X128861Y909654D01*
X128891Y909719D01*
X128930Y909779D01*
X128943Y909830D01*
X128965Y909877D01*
X128973Y909948D01*
X128990Y910018D01*
X128986Y910070D01*
X128992Y910121D01*
X128977Y910192D01*
X128971Y910263D01*
X128951Y910311D01*
X128940Y910362D01*
X128903Y910423D01*
X128875Y910489D01*
X128830Y910545D01*
X128814Y910573D01*
X128796Y910588D01*
X128770Y910620D01*
X126769Y912621D01*
X126769Y916179D01*
X126776Y916186D01*
X126829Y916260D01*
X126889Y916329D01*
X126901Y916360D01*
X126920Y916386D01*
X126947Y916473D01*
X126981Y916558D01*
X126985Y916598D01*
X126992Y916621D01*
X126991Y916653D01*
X126999Y916724D01*
X126999Y958756D01*
X129603Y961360D01*
X144556Y976313D01*
X144609Y976387D01*
X144669Y976456D01*
X144681Y976486D01*
X144700Y976512D01*
X144727Y976599D01*
X144761Y976684D01*
X144765Y976725D01*
X144772Y976747D01*
X144771Y976780D01*
X144779Y976851D01*
X144779Y980123D01*
X146481Y984231D01*
X149625Y987375D01*
X153733Y989077D01*
X176467Y989077D01*
X180575Y987375D01*
X183719Y984231D01*
X185421Y980123D01*
X185421Y975677D01*
X183719Y971569D01*
X180575Y968425D01*
X176467Y966723D01*
X153733Y966723D01*
X149625Y968425D01*
X149433Y968616D01*
X149417Y968628D01*
X149405Y968644D01*
X149318Y968700D01*
X149234Y968760D01*
X149215Y968766D01*
X149198Y968777D01*
X149098Y968802D01*
X148999Y968832D01*
X148979Y968832D01*
X148959Y968837D01*
X148856Y968829D01*
X148753Y968826D01*
X148734Y968819D01*
X148714Y968818D01*
X148619Y968777D01*
X148522Y968741D01*
X148506Y968729D01*
X148488Y968721D01*
X148357Y968616D01*
X135352Y955611D01*
X135299Y955537D01*
X135239Y955468D01*
X135227Y955438D01*
X135208Y955412D01*
X135181Y955325D01*
X135147Y955240D01*
X135143Y955199D01*
X135136Y955176D01*
X135137Y955144D01*
X135129Y955073D01*
X135129Y916907D01*
X135140Y916836D01*
X135142Y916764D01*
X135160Y916715D01*
X135168Y916664D01*
X135202Y916601D01*
X135227Y916533D01*
X135259Y916493D01*
X135284Y916447D01*
X135335Y916397D01*
X135380Y916341D01*
X135424Y916313D01*
X135462Y916277D01*
X135527Y916247D01*
X135587Y916208D01*
X135638Y916196D01*
X135685Y916174D01*
X135756Y916166D01*
X135826Y916148D01*
X135878Y916152D01*
X135929Y916147D01*
X136000Y916162D01*
X136071Y916168D01*
X136119Y916188D01*
X136170Y916199D01*
X136231Y916236D01*
X136297Y916264D01*
X136353Y916309D01*
X136381Y916325D01*
X136396Y916343D01*
X136428Y916369D01*
X144556Y924497D01*
X144609Y924571D01*
X144669Y924640D01*
X144681Y924670D01*
X144700Y924696D01*
X144727Y924783D01*
X144761Y924868D01*
X144765Y924909D01*
X144772Y924931D01*
X144771Y924964D01*
X144779Y925035D01*
X144779Y929323D01*
X146481Y933431D01*
X149625Y936575D01*
X153733Y938277D01*
X176467Y938277D01*
X180575Y936575D01*
X183719Y933431D01*
X185421Y929323D01*
X185421Y924877D01*
X183719Y920769D01*
X180575Y917625D01*
X176467Y915923D01*
X153733Y915923D01*
X149781Y917560D01*
X149668Y917587D01*
X149554Y917615D01*
X149548Y917615D01*
X149542Y917616D01*
X149425Y917605D01*
X149309Y917596D01*
X149303Y917594D01*
X149297Y917593D01*
X149189Y917545D01*
X149082Y917500D01*
X149077Y917495D01*
X149072Y917493D01*
X149058Y917481D01*
X148951Y917395D01*
X135352Y903795D01*
X132748Y901191D01*
X114775Y901191D01*
X114685Y901177D01*
X114594Y901169D01*
X114564Y901157D01*
X114532Y901152D01*
X114452Y901109D01*
X114368Y901073D01*
X114336Y901047D01*
X114315Y901036D01*
X114293Y901013D01*
X114237Y900968D01*
X113254Y899985D01*
X113201Y899911D01*
X113141Y899842D01*
X113129Y899812D01*
X113110Y899786D01*
X113083Y899699D01*
X113049Y899614D01*
X113045Y899573D01*
X113038Y899550D01*
X113039Y899518D01*
X113031Y899447D01*
X113031Y899426D01*
X111290Y895225D01*
X108075Y892010D01*
X103874Y890269D01*
X99326Y890269D01*
G37*
%LPD*%
%LPC*%
G36*
X121932Y984757D02*
X121932Y984757D01*
X117731Y986498D01*
X114516Y989713D01*
X112775Y993914D01*
X112775Y998462D01*
X114516Y1002663D01*
X117731Y1005878D01*
X119671Y1006682D01*
X119771Y1006744D01*
X119871Y1006804D01*
X119875Y1006809D01*
X119880Y1006812D01*
X119955Y1006901D01*
X120031Y1006991D01*
X120033Y1006997D01*
X120037Y1007001D01*
X120079Y1007109D01*
X120123Y1007219D01*
X120124Y1007226D01*
X120125Y1007231D01*
X120126Y1007249D01*
X120141Y1007386D01*
X120141Y1049561D01*
X120130Y1049632D01*
X120128Y1049704D01*
X120110Y1049752D01*
X120102Y1049804D01*
X120068Y1049867D01*
X120043Y1049935D01*
X120011Y1049975D01*
X119986Y1050021D01*
X119934Y1050071D01*
X119890Y1050127D01*
X119846Y1050155D01*
X119808Y1050191D01*
X119743Y1050221D01*
X119683Y1050260D01*
X119632Y1050272D01*
X119585Y1050294D01*
X119514Y1050302D01*
X119444Y1050320D01*
X119392Y1050316D01*
X119341Y1050321D01*
X119270Y1050306D01*
X119199Y1050300D01*
X119151Y1050280D01*
X119100Y1050269D01*
X119039Y1050232D01*
X118973Y1050204D01*
X118917Y1050159D01*
X118889Y1050143D01*
X118874Y1050125D01*
X118842Y1050099D01*
X95982Y1027239D01*
X93378Y1024635D01*
X58167Y1024635D01*
X58052Y1024616D01*
X57936Y1024599D01*
X57930Y1024597D01*
X57924Y1024596D01*
X57821Y1024541D01*
X57716Y1024488D01*
X57712Y1024483D01*
X57706Y1024480D01*
X57627Y1024396D01*
X57544Y1024312D01*
X57541Y1024306D01*
X57537Y1024302D01*
X57529Y1024285D01*
X57463Y1024165D01*
X56719Y1022369D01*
X53575Y1019225D01*
X49467Y1017523D01*
X26733Y1017523D01*
X22625Y1019225D01*
X19481Y1022369D01*
X17779Y1026477D01*
X17779Y1030923D01*
X19481Y1035031D01*
X22625Y1038175D01*
X26733Y1039877D01*
X49467Y1039877D01*
X53575Y1038175D01*
X56719Y1035031D01*
X57463Y1033235D01*
X57525Y1033135D01*
X57585Y1033035D01*
X57590Y1033031D01*
X57593Y1033026D01*
X57683Y1032951D01*
X57772Y1032875D01*
X57778Y1032873D01*
X57782Y1032869D01*
X57891Y1032827D01*
X58000Y1032783D01*
X58007Y1032782D01*
X58012Y1032781D01*
X58030Y1032780D01*
X58167Y1032765D01*
X89695Y1032765D01*
X89785Y1032779D01*
X89876Y1032787D01*
X89906Y1032799D01*
X89938Y1032804D01*
X90018Y1032847D01*
X90102Y1032883D01*
X90134Y1032909D01*
X90155Y1032920D01*
X90177Y1032943D01*
X90233Y1032988D01*
X113414Y1056168D01*
X113481Y1056262D01*
X113552Y1056357D01*
X113554Y1056363D01*
X113557Y1056368D01*
X113592Y1056479D01*
X113628Y1056591D01*
X113628Y1056597D01*
X113630Y1056603D01*
X113627Y1056720D01*
X113626Y1056837D01*
X113624Y1056844D01*
X113623Y1056849D01*
X113617Y1056867D01*
X113579Y1056998D01*
X112775Y1058938D01*
X112775Y1063486D01*
X114516Y1067687D01*
X117731Y1070902D01*
X121932Y1072643D01*
X126480Y1072643D01*
X130681Y1070902D01*
X133896Y1067687D01*
X135637Y1063486D01*
X135637Y1058938D01*
X133896Y1054737D01*
X130681Y1051522D01*
X128741Y1050718D01*
X128641Y1050656D01*
X128541Y1050596D01*
X128537Y1050591D01*
X128532Y1050588D01*
X128457Y1050499D01*
X128381Y1050409D01*
X128379Y1050403D01*
X128375Y1050399D01*
X128333Y1050291D01*
X128289Y1050181D01*
X128288Y1050174D01*
X128287Y1050169D01*
X128286Y1050151D01*
X128271Y1050014D01*
X128271Y1007386D01*
X128290Y1007271D01*
X128307Y1007155D01*
X128309Y1007149D01*
X128310Y1007143D01*
X128365Y1007040D01*
X128418Y1006935D01*
X128423Y1006931D01*
X128426Y1006925D01*
X128510Y1006846D01*
X128594Y1006763D01*
X128600Y1006759D01*
X128604Y1006756D01*
X128621Y1006748D01*
X128741Y1006682D01*
X130681Y1005878D01*
X133896Y1002663D01*
X135637Y998462D01*
X135637Y993914D01*
X133896Y989713D01*
X130681Y986498D01*
X126480Y984757D01*
X121932Y984757D01*
G37*
%LPD*%
%LPC*%
G36*
X153733Y1042923D02*
X153733Y1042923D01*
X149625Y1044625D01*
X146481Y1047769D01*
X144779Y1051877D01*
X144779Y1056323D01*
X146481Y1060431D01*
X149390Y1063341D01*
X149432Y1063399D01*
X149482Y1063451D01*
X149504Y1063498D01*
X149534Y1063540D01*
X149555Y1063609D01*
X149585Y1063674D01*
X149591Y1063726D01*
X149606Y1063776D01*
X149604Y1063847D01*
X149612Y1063918D01*
X149601Y1063969D01*
X149600Y1064021D01*
X149575Y1064089D01*
X149560Y1064159D01*
X149533Y1064204D01*
X149516Y1064252D01*
X149471Y1064308D01*
X149434Y1064370D01*
X149394Y1064404D01*
X149362Y1064444D01*
X149302Y1064483D01*
X149247Y1064530D01*
X149199Y1064549D01*
X149155Y1064577D01*
X149085Y1064595D01*
X149019Y1064622D01*
X148948Y1064630D01*
X148916Y1064638D01*
X148893Y1064636D01*
X148852Y1064640D01*
X147560Y1064640D01*
X140715Y1071485D01*
X140715Y1074802D01*
X151638Y1074802D01*
X151658Y1074805D01*
X151677Y1074803D01*
X151779Y1074825D01*
X151881Y1074842D01*
X151898Y1074851D01*
X151918Y1074855D01*
X152007Y1074908D01*
X152098Y1074957D01*
X152112Y1074971D01*
X152129Y1074981D01*
X152196Y1075060D01*
X152267Y1075135D01*
X152276Y1075153D01*
X152289Y1075168D01*
X152327Y1075264D01*
X152371Y1075358D01*
X152373Y1075378D01*
X152381Y1075396D01*
X152399Y1075563D01*
X152399Y1076326D01*
X152401Y1076326D01*
X152401Y1075563D01*
X152404Y1075543D01*
X152402Y1075524D01*
X152424Y1075422D01*
X152441Y1075320D01*
X152450Y1075303D01*
X152454Y1075283D01*
X152507Y1075194D01*
X152556Y1075103D01*
X152570Y1075089D01*
X152580Y1075072D01*
X152659Y1075005D01*
X152734Y1074934D01*
X152752Y1074925D01*
X152767Y1074912D01*
X152863Y1074873D01*
X152957Y1074830D01*
X152977Y1074828D01*
X152995Y1074820D01*
X153162Y1074802D01*
X164085Y1074802D01*
X164085Y1071485D01*
X159176Y1066576D01*
X159134Y1066518D01*
X159085Y1066466D01*
X159063Y1066419D01*
X159032Y1066377D01*
X159011Y1066308D01*
X158981Y1066243D01*
X158975Y1066191D01*
X158960Y1066141D01*
X158962Y1066070D01*
X158954Y1065999D01*
X158965Y1065948D01*
X158966Y1065896D01*
X158991Y1065828D01*
X159006Y1065758D01*
X159033Y1065713D01*
X159051Y1065665D01*
X159096Y1065609D01*
X159132Y1065547D01*
X159172Y1065513D01*
X159205Y1065473D01*
X159265Y1065434D01*
X159319Y1065387D01*
X159368Y1065368D01*
X159411Y1065340D01*
X159481Y1065322D01*
X159548Y1065295D01*
X159619Y1065287D01*
X159650Y1065279D01*
X159673Y1065281D01*
X159714Y1065277D01*
X162814Y1065277D01*
X162834Y1065280D01*
X162853Y1065278D01*
X162955Y1065300D01*
X163057Y1065316D01*
X163074Y1065326D01*
X163094Y1065330D01*
X163183Y1065383D01*
X163274Y1065432D01*
X163288Y1065446D01*
X163305Y1065456D01*
X163372Y1065535D01*
X163444Y1065610D01*
X163452Y1065628D01*
X163465Y1065643D01*
X163504Y1065739D01*
X163547Y1065833D01*
X163549Y1065853D01*
X163557Y1065871D01*
X163575Y1066038D01*
X163575Y1068484D01*
X169448Y1074357D01*
X169501Y1074431D01*
X169561Y1074500D01*
X169573Y1074530D01*
X169592Y1074556D01*
X169619Y1074643D01*
X169653Y1074728D01*
X169657Y1074769D01*
X169664Y1074792D01*
X169663Y1074824D01*
X169671Y1074895D01*
X169671Y1137953D01*
X169657Y1138043D01*
X169649Y1138134D01*
X169637Y1138164D01*
X169632Y1138196D01*
X169589Y1138276D01*
X169553Y1138360D01*
X169527Y1138392D01*
X169516Y1138413D01*
X169493Y1138435D01*
X169448Y1138491D01*
X148335Y1159604D01*
X148335Y1165987D01*
X148332Y1166007D01*
X148334Y1166026D01*
X148312Y1166128D01*
X148296Y1166230D01*
X148286Y1166247D01*
X148282Y1166267D01*
X148229Y1166356D01*
X148180Y1166447D01*
X148166Y1166461D01*
X148156Y1166478D01*
X148077Y1166545D01*
X148002Y1166617D01*
X147984Y1166625D01*
X147969Y1166638D01*
X147873Y1166677D01*
X147816Y1166703D01*
X141223Y1173295D01*
X141223Y1182555D01*
X147770Y1189102D01*
X157030Y1189102D01*
X163577Y1182555D01*
X163577Y1173295D01*
X156991Y1166710D01*
X156983Y1166709D01*
X156966Y1166699D01*
X156946Y1166695D01*
X156857Y1166642D01*
X156766Y1166593D01*
X156752Y1166579D01*
X156735Y1166569D01*
X156668Y1166490D01*
X156596Y1166415D01*
X156588Y1166397D01*
X156575Y1166382D01*
X156536Y1166286D01*
X156493Y1166192D01*
X156491Y1166172D01*
X156483Y1166154D01*
X156465Y1165987D01*
X156465Y1163287D01*
X156479Y1163197D01*
X156487Y1163106D01*
X156499Y1163076D01*
X156504Y1163044D01*
X156547Y1162964D01*
X156583Y1162880D01*
X156609Y1162848D01*
X156620Y1162827D01*
X156643Y1162805D01*
X156688Y1162749D01*
X177801Y1141636D01*
X177801Y1071212D01*
X175197Y1068608D01*
X173165Y1066576D01*
X173123Y1066518D01*
X173073Y1066466D01*
X173051Y1066419D01*
X173021Y1066377D01*
X173000Y1066308D01*
X172970Y1066243D01*
X172964Y1066191D01*
X172949Y1066141D01*
X172951Y1066070D01*
X172943Y1065999D01*
X172954Y1065948D01*
X172955Y1065896D01*
X172980Y1065828D01*
X172995Y1065758D01*
X173022Y1065713D01*
X173040Y1065665D01*
X173084Y1065609D01*
X173121Y1065547D01*
X173161Y1065513D01*
X173193Y1065473D01*
X173254Y1065434D01*
X173308Y1065387D01*
X173356Y1065368D01*
X173400Y1065340D01*
X173470Y1065322D01*
X173536Y1065295D01*
X173608Y1065287D01*
X173639Y1065279D01*
X173662Y1065281D01*
X173703Y1065277D01*
X176467Y1065277D01*
X180575Y1063575D01*
X183719Y1060431D01*
X185421Y1056323D01*
X185421Y1051877D01*
X183719Y1047769D01*
X180575Y1044625D01*
X176467Y1042923D01*
X153733Y1042923D01*
G37*
%LPD*%
%LPC*%
G36*
X26733Y1042923D02*
X26733Y1042923D01*
X22625Y1044625D01*
X19481Y1047769D01*
X17779Y1051877D01*
X17779Y1056323D01*
X19481Y1060431D01*
X22625Y1063575D01*
X26733Y1065277D01*
X27465Y1065277D01*
X27536Y1065288D01*
X27608Y1065290D01*
X27656Y1065308D01*
X27708Y1065316D01*
X27771Y1065350D01*
X27839Y1065375D01*
X27879Y1065407D01*
X27925Y1065432D01*
X27975Y1065484D01*
X28031Y1065528D01*
X28059Y1065572D01*
X28095Y1065610D01*
X28125Y1065675D01*
X28164Y1065735D01*
X28176Y1065786D01*
X28198Y1065833D01*
X28206Y1065904D01*
X28224Y1065974D01*
X28220Y1066026D01*
X28225Y1066077D01*
X28210Y1066148D01*
X28204Y1066219D01*
X28184Y1066267D01*
X28173Y1066318D01*
X28136Y1066379D01*
X28108Y1066445D01*
X28063Y1066501D01*
X28047Y1066529D01*
X28029Y1066544D01*
X28025Y1066549D01*
X28023Y1066553D01*
X28020Y1066555D01*
X28003Y1066576D01*
X26415Y1068164D01*
X26415Y1159924D01*
X39400Y1172909D01*
X39453Y1172983D01*
X39513Y1173052D01*
X39525Y1173082D01*
X39544Y1173108D01*
X39571Y1173195D01*
X39605Y1173280D01*
X39609Y1173321D01*
X39616Y1173344D01*
X39615Y1173376D01*
X39623Y1173447D01*
X39623Y1182555D01*
X46170Y1189102D01*
X55430Y1189102D01*
X61977Y1182555D01*
X61977Y1173295D01*
X55430Y1166748D01*
X46170Y1166748D01*
X45992Y1166927D01*
X45976Y1166938D01*
X45963Y1166954D01*
X45876Y1167010D01*
X45792Y1167070D01*
X45773Y1167076D01*
X45756Y1167087D01*
X45656Y1167112D01*
X45557Y1167143D01*
X45537Y1167142D01*
X45518Y1167147D01*
X45415Y1167139D01*
X45311Y1167136D01*
X45292Y1167130D01*
X45273Y1167128D01*
X45178Y1167088D01*
X45080Y1167052D01*
X45065Y1167039D01*
X45046Y1167032D01*
X44915Y1166927D01*
X34768Y1156779D01*
X34715Y1156705D01*
X34655Y1156636D01*
X34643Y1156606D01*
X34624Y1156580D01*
X34597Y1156493D01*
X34563Y1156408D01*
X34559Y1156367D01*
X34552Y1156344D01*
X34553Y1156312D01*
X34545Y1156241D01*
X34545Y1071847D01*
X34559Y1071757D01*
X34567Y1071666D01*
X34579Y1071636D01*
X34584Y1071604D01*
X34627Y1071524D01*
X34663Y1071440D01*
X34689Y1071408D01*
X34700Y1071387D01*
X34723Y1071365D01*
X34768Y1071309D01*
X40577Y1065500D01*
X40651Y1065447D01*
X40720Y1065387D01*
X40750Y1065375D01*
X40776Y1065356D01*
X40863Y1065329D01*
X40948Y1065295D01*
X40989Y1065291D01*
X41012Y1065284D01*
X41044Y1065285D01*
X41115Y1065277D01*
X43486Y1065277D01*
X43556Y1065288D01*
X43628Y1065290D01*
X43677Y1065308D01*
X43729Y1065316D01*
X43792Y1065350D01*
X43859Y1065375D01*
X43900Y1065407D01*
X43946Y1065432D01*
X43995Y1065484D01*
X44051Y1065528D01*
X44079Y1065572D01*
X44115Y1065610D01*
X44145Y1065675D01*
X44184Y1065735D01*
X44197Y1065786D01*
X44219Y1065833D01*
X44227Y1065904D01*
X44244Y1065974D01*
X44240Y1066026D01*
X44246Y1066077D01*
X44231Y1066148D01*
X44225Y1066219D01*
X44205Y1066267D01*
X44194Y1066318D01*
X44157Y1066379D01*
X44129Y1066445D01*
X44084Y1066501D01*
X44068Y1066529D01*
X44050Y1066544D01*
X44046Y1066549D01*
X44044Y1066553D01*
X44041Y1066555D01*
X44024Y1066576D01*
X39115Y1071485D01*
X39115Y1074802D01*
X50038Y1074802D01*
X50058Y1074805D01*
X50077Y1074803D01*
X50179Y1074825D01*
X50281Y1074842D01*
X50298Y1074851D01*
X50318Y1074855D01*
X50407Y1074908D01*
X50498Y1074957D01*
X50512Y1074971D01*
X50529Y1074981D01*
X50596Y1075060D01*
X50667Y1075135D01*
X50676Y1075153D01*
X50689Y1075168D01*
X50727Y1075264D01*
X50771Y1075358D01*
X50773Y1075378D01*
X50781Y1075396D01*
X50799Y1075563D01*
X50799Y1076326D01*
X50801Y1076326D01*
X50801Y1075563D01*
X50804Y1075543D01*
X50802Y1075524D01*
X50824Y1075422D01*
X50841Y1075320D01*
X50850Y1075303D01*
X50854Y1075283D01*
X50907Y1075194D01*
X50956Y1075103D01*
X50970Y1075089D01*
X50980Y1075072D01*
X51059Y1075005D01*
X51134Y1074934D01*
X51152Y1074925D01*
X51167Y1074912D01*
X51263Y1074873D01*
X51357Y1074830D01*
X51377Y1074828D01*
X51395Y1074820D01*
X51562Y1074802D01*
X62485Y1074802D01*
X62485Y1071485D01*
X55640Y1064640D01*
X54348Y1064640D01*
X54277Y1064629D01*
X54205Y1064627D01*
X54156Y1064609D01*
X54105Y1064601D01*
X54042Y1064567D01*
X53974Y1064542D01*
X53934Y1064510D01*
X53888Y1064485D01*
X53838Y1064433D01*
X53782Y1064389D01*
X53754Y1064345D01*
X53718Y1064307D01*
X53688Y1064242D01*
X53649Y1064182D01*
X53637Y1064131D01*
X53615Y1064084D01*
X53607Y1064013D01*
X53589Y1063943D01*
X53593Y1063891D01*
X53588Y1063840D01*
X53603Y1063769D01*
X53608Y1063698D01*
X53629Y1063650D01*
X53640Y1063599D01*
X53677Y1063538D01*
X53705Y1063472D01*
X53750Y1063416D01*
X53766Y1063388D01*
X53784Y1063373D01*
X53810Y1063341D01*
X56719Y1060431D01*
X58421Y1056323D01*
X58421Y1051877D01*
X56719Y1047769D01*
X53575Y1044625D01*
X49467Y1042923D01*
X26733Y1042923D01*
G37*
%LPD*%
%LPC*%
G36*
X124777Y93979D02*
X124777Y93979D01*
X120669Y95681D01*
X117525Y98825D01*
X115823Y102933D01*
X115823Y125667D01*
X117525Y129775D01*
X118478Y130729D01*
X118490Y130745D01*
X118506Y130757D01*
X118536Y130804D01*
X118550Y130819D01*
X118561Y130844D01*
X118562Y130844D01*
X118622Y130928D01*
X118628Y130947D01*
X118639Y130964D01*
X118664Y131065D01*
X118694Y131163D01*
X118694Y131183D01*
X118699Y131203D01*
X118691Y131306D01*
X118688Y131409D01*
X118681Y131428D01*
X118680Y131448D01*
X118639Y131543D01*
X118603Y131640D01*
X118591Y131656D01*
X118583Y131674D01*
X118478Y131805D01*
X117411Y132872D01*
X114807Y135476D01*
X114807Y175420D01*
X148112Y208725D01*
X148165Y208799D01*
X148225Y208868D01*
X148237Y208898D01*
X148256Y208924D01*
X148283Y209011D01*
X148317Y209096D01*
X148321Y209137D01*
X148328Y209160D01*
X148327Y209192D01*
X148335Y209263D01*
X148335Y210312D01*
X148332Y210332D01*
X148334Y210351D01*
X148312Y210453D01*
X148296Y210555D01*
X148286Y210572D01*
X148282Y210592D01*
X148229Y210681D01*
X148180Y210772D01*
X148166Y210786D01*
X148156Y210803D01*
X148077Y210870D01*
X148002Y210942D01*
X147984Y210950D01*
X147969Y210963D01*
X147873Y211002D01*
X147816Y211028D01*
X141223Y217620D01*
X141223Y226880D01*
X147770Y233427D01*
X157030Y233427D01*
X163577Y226880D01*
X163577Y217620D01*
X156991Y211035D01*
X156983Y211034D01*
X156966Y211024D01*
X156946Y211020D01*
X156857Y210967D01*
X156766Y210918D01*
X156752Y210904D01*
X156735Y210894D01*
X156668Y210815D01*
X156596Y210740D01*
X156588Y210722D01*
X156575Y210707D01*
X156536Y210611D01*
X156493Y210517D01*
X156491Y210497D01*
X156483Y210479D01*
X156465Y210312D01*
X156465Y205580D01*
X123160Y172275D01*
X123107Y172201D01*
X123047Y172132D01*
X123035Y172102D01*
X123016Y172076D01*
X122989Y171989D01*
X122955Y171904D01*
X122951Y171863D01*
X122944Y171840D01*
X122945Y171808D01*
X122937Y171737D01*
X122937Y139159D01*
X122951Y139069D01*
X122959Y138978D01*
X122971Y138948D01*
X122976Y138916D01*
X123019Y138836D01*
X123055Y138752D01*
X123081Y138720D01*
X123092Y138699D01*
X123115Y138677D01*
X123160Y138621D01*
X126937Y134844D01*
X127011Y134791D01*
X127080Y134731D01*
X127110Y134719D01*
X127136Y134700D01*
X127223Y134673D01*
X127308Y134639D01*
X127349Y134635D01*
X127371Y134628D01*
X127404Y134629D01*
X127475Y134621D01*
X129223Y134621D01*
X133331Y132919D01*
X136475Y129775D01*
X138177Y125667D01*
X138177Y102933D01*
X136475Y98825D01*
X133331Y95681D01*
X129223Y93979D01*
X124777Y93979D01*
G37*
%LPD*%
%LPC*%
G36*
X73977Y93979D02*
X73977Y93979D01*
X69869Y95681D01*
X66725Y98825D01*
X65023Y102933D01*
X65023Y125667D01*
X66725Y129775D01*
X69869Y132919D01*
X70072Y133003D01*
X70111Y133027D01*
X70154Y133043D01*
X70215Y133092D01*
X70281Y133133D01*
X70310Y133168D01*
X70346Y133197D01*
X70388Y133262D01*
X70438Y133322D01*
X70454Y133365D01*
X70479Y133404D01*
X70498Y133479D01*
X70526Y133552D01*
X70528Y133598D01*
X70539Y133642D01*
X70533Y133720D01*
X70536Y133798D01*
X70523Y133842D01*
X70520Y133888D01*
X70489Y133959D01*
X70468Y134034D01*
X70442Y134072D01*
X70424Y134114D01*
X70338Y134221D01*
X70328Y134236D01*
X70323Y134239D01*
X70319Y134245D01*
X68643Y135920D01*
X66039Y138524D01*
X66039Y186977D01*
X66025Y187067D01*
X66017Y187158D01*
X66005Y187188D01*
X66000Y187220D01*
X65957Y187300D01*
X65921Y187384D01*
X65895Y187416D01*
X65884Y187437D01*
X65861Y187459D01*
X65816Y187515D01*
X44703Y208628D01*
X44703Y212225D01*
X44689Y212315D01*
X44681Y212406D01*
X44669Y212436D01*
X44664Y212468D01*
X44621Y212549D01*
X44585Y212632D01*
X44559Y212665D01*
X44548Y212685D01*
X44525Y212707D01*
X44480Y212763D01*
X39623Y217620D01*
X39623Y226880D01*
X46170Y233427D01*
X55430Y233427D01*
X61977Y226880D01*
X61977Y217620D01*
X55398Y211041D01*
X55350Y211034D01*
X55333Y211024D01*
X55313Y211020D01*
X55268Y210993D01*
X55220Y210975D01*
X55179Y210943D01*
X55133Y210918D01*
X55119Y210904D01*
X55102Y210894D01*
X55068Y210854D01*
X55027Y210822D01*
X54999Y210778D01*
X54963Y210740D01*
X54955Y210722D01*
X54942Y210707D01*
X54923Y210658D01*
X54894Y210615D01*
X54882Y210564D01*
X54860Y210517D01*
X54858Y210497D01*
X54850Y210479D01*
X54842Y210407D01*
X54834Y210376D01*
X54836Y210353D01*
X54832Y210312D01*
X54835Y210292D01*
X54833Y210273D01*
X54848Y210202D01*
X54854Y210131D01*
X54866Y210101D01*
X54871Y210069D01*
X54881Y210052D01*
X54885Y210032D01*
X54922Y209971D01*
X54950Y209905D01*
X54976Y209873D01*
X54987Y209852D01*
X55001Y209838D01*
X55011Y209821D01*
X55029Y209806D01*
X55055Y209774D01*
X74169Y190660D01*
X74169Y142207D01*
X74183Y142117D01*
X74191Y142026D01*
X74203Y141996D01*
X74208Y141964D01*
X74251Y141884D01*
X74287Y141800D01*
X74313Y141768D01*
X74324Y141747D01*
X74347Y141725D01*
X74392Y141669D01*
X80265Y135796D01*
X80265Y134367D01*
X80284Y134252D01*
X80301Y134136D01*
X80303Y134130D01*
X80304Y134124D01*
X80359Y134021D01*
X80412Y133916D01*
X80417Y133912D01*
X80420Y133906D01*
X80504Y133827D01*
X80588Y133744D01*
X80594Y133741D01*
X80598Y133737D01*
X80615Y133729D01*
X80735Y133663D01*
X82531Y132919D01*
X85675Y129775D01*
X87377Y125667D01*
X87377Y102933D01*
X85675Y98825D01*
X82531Y95681D01*
X78423Y93979D01*
X73977Y93979D01*
G37*
%LPD*%
%LPC*%
G36*
X26733Y941323D02*
X26733Y941323D01*
X22625Y943025D01*
X19481Y946169D01*
X17779Y950277D01*
X17779Y954723D01*
X19481Y958831D01*
X22625Y961975D01*
X26733Y963677D01*
X49467Y963677D01*
X53575Y961975D01*
X56719Y958831D01*
X57463Y957035D01*
X57525Y956935D01*
X57585Y956835D01*
X57590Y956831D01*
X57593Y956826D01*
X57683Y956751D01*
X57772Y956675D01*
X57778Y956673D01*
X57782Y956669D01*
X57891Y956627D01*
X58000Y956583D01*
X58007Y956582D01*
X58012Y956581D01*
X58030Y956580D01*
X58167Y956565D01*
X71374Y956565D01*
X71394Y956568D01*
X71413Y956566D01*
X71515Y956588D01*
X71617Y956604D01*
X71634Y956614D01*
X71654Y956618D01*
X71743Y956671D01*
X71834Y956720D01*
X71848Y956734D01*
X71865Y956744D01*
X71932Y956823D01*
X72004Y956898D01*
X72012Y956916D01*
X72025Y956931D01*
X72064Y957027D01*
X72107Y957121D01*
X72109Y957141D01*
X72117Y957159D01*
X72135Y957326D01*
X72135Y986566D01*
X72121Y986656D01*
X72113Y986747D01*
X72101Y986777D01*
X72096Y986809D01*
X72053Y986889D01*
X72017Y986973D01*
X71991Y987005D01*
X71980Y987026D01*
X71957Y987048D01*
X71912Y987104D01*
X69304Y989713D01*
X67563Y993914D01*
X67563Y998462D01*
X69304Y1002663D01*
X72519Y1005878D01*
X76720Y1007619D01*
X81268Y1007619D01*
X85469Y1005878D01*
X88684Y1002663D01*
X90425Y998462D01*
X90425Y993914D01*
X88684Y989713D01*
X85469Y986498D01*
X81268Y984757D01*
X81026Y984757D01*
X81006Y984754D01*
X80987Y984756D01*
X80885Y984734D01*
X80783Y984718D01*
X80766Y984708D01*
X80746Y984704D01*
X80657Y984651D01*
X80566Y984602D01*
X80552Y984588D01*
X80535Y984578D01*
X80468Y984499D01*
X80396Y984424D01*
X80388Y984406D01*
X80375Y984391D01*
X80336Y984295D01*
X80293Y984201D01*
X80291Y984181D01*
X80283Y984163D01*
X80265Y983996D01*
X80265Y950816D01*
X77884Y948435D01*
X58167Y948435D01*
X58052Y948416D01*
X57936Y948399D01*
X57930Y948397D01*
X57924Y948396D01*
X57821Y948341D01*
X57716Y948288D01*
X57712Y948283D01*
X57706Y948280D01*
X57627Y948196D01*
X57544Y948112D01*
X57541Y948106D01*
X57537Y948102D01*
X57529Y948085D01*
X57463Y947965D01*
X56719Y946169D01*
X53575Y943025D01*
X49467Y941323D01*
X26733Y941323D01*
G37*
%LPD*%
%LPC*%
G36*
X56133Y797329D02*
X56133Y797329D01*
X53617Y799845D01*
X53617Y803403D01*
X53624Y803410D01*
X53677Y803484D01*
X53737Y803553D01*
X53749Y803584D01*
X53768Y803610D01*
X53795Y803697D01*
X53829Y803782D01*
X53833Y803822D01*
X53840Y803845D01*
X53839Y803877D01*
X53847Y803948D01*
X53847Y812452D01*
X62768Y821373D01*
X62821Y821447D01*
X62881Y821516D01*
X62893Y821546D01*
X62912Y821572D01*
X62939Y821659D01*
X62973Y821744D01*
X62977Y821785D01*
X62984Y821808D01*
X62983Y821840D01*
X62991Y821911D01*
X62991Y830105D01*
X62990Y830112D01*
X62990Y830114D01*
X62988Y830122D01*
X62977Y830195D01*
X62969Y830286D01*
X62957Y830316D01*
X62952Y830348D01*
X62909Y830428D01*
X62873Y830512D01*
X62847Y830544D01*
X62836Y830565D01*
X62813Y830587D01*
X62768Y830643D01*
X52812Y840600D01*
X52718Y840668D01*
X52623Y840738D01*
X52617Y840740D01*
X52612Y840743D01*
X52501Y840778D01*
X52389Y840814D01*
X52383Y840814D01*
X52377Y840816D01*
X52260Y840813D01*
X52143Y840812D01*
X52136Y840810D01*
X52131Y840809D01*
X52114Y840803D01*
X51982Y840765D01*
X49467Y839723D01*
X26733Y839723D01*
X22625Y841425D01*
X19481Y844569D01*
X17779Y848677D01*
X17779Y853123D01*
X19481Y857231D01*
X22625Y860375D01*
X26733Y862077D01*
X49467Y862077D01*
X53575Y860375D01*
X56719Y857231D01*
X58421Y853123D01*
X58421Y848677D01*
X57974Y847599D01*
X57947Y847485D01*
X57919Y847372D01*
X57919Y847365D01*
X57918Y847359D01*
X57929Y847243D01*
X57938Y847126D01*
X57941Y847121D01*
X57941Y847114D01*
X57989Y847007D01*
X58034Y846900D01*
X58039Y846894D01*
X58041Y846890D01*
X58054Y846876D01*
X58139Y846769D01*
X71121Y833788D01*
X71121Y818228D01*
X62200Y809307D01*
X62147Y809233D01*
X62087Y809164D01*
X62075Y809134D01*
X62056Y809108D01*
X62029Y809021D01*
X62019Y808996D01*
X62005Y808964D01*
X62004Y808958D01*
X61995Y808936D01*
X61991Y808895D01*
X61984Y808872D01*
X61985Y808840D01*
X61977Y808769D01*
X61977Y803948D01*
X61991Y803858D01*
X61999Y803767D01*
X62011Y803737D01*
X62016Y803706D01*
X62059Y803625D01*
X62095Y803541D01*
X62121Y803509D01*
X62132Y803488D01*
X62155Y803466D01*
X62200Y803410D01*
X62207Y803403D01*
X62207Y799845D01*
X59691Y797329D01*
X56133Y797329D01*
G37*
%LPD*%
%LPC*%
G36*
X120141Y836953D02*
X120141Y836953D01*
X117625Y839469D01*
X117625Y843027D01*
X120141Y845543D01*
X120151Y845543D01*
X120241Y845557D01*
X120332Y845565D01*
X120362Y845577D01*
X120394Y845582D01*
X120474Y845625D01*
X120558Y845661D01*
X120590Y845687D01*
X120611Y845698D01*
X120633Y845721D01*
X120689Y845766D01*
X145656Y870732D01*
X145724Y870827D01*
X145794Y870921D01*
X145796Y870927D01*
X145799Y870932D01*
X145834Y871043D01*
X145870Y871155D01*
X145870Y871161D01*
X145872Y871167D01*
X145869Y871284D01*
X145868Y871401D01*
X145866Y871408D01*
X145865Y871413D01*
X145859Y871430D01*
X145821Y871562D01*
X144779Y874077D01*
X144779Y878523D01*
X146481Y882631D01*
X149625Y885775D01*
X153733Y887477D01*
X176467Y887477D01*
X180575Y885775D01*
X183719Y882631D01*
X185421Y878523D01*
X185421Y874077D01*
X183719Y869969D01*
X180575Y866825D01*
X176467Y865123D01*
X153733Y865123D01*
X152655Y865570D01*
X152541Y865597D01*
X152428Y865625D01*
X152421Y865625D01*
X152415Y865626D01*
X152299Y865615D01*
X152182Y865606D01*
X152177Y865603D01*
X152170Y865603D01*
X152063Y865555D01*
X151956Y865510D01*
X151950Y865505D01*
X151946Y865503D01*
X151932Y865490D01*
X151825Y865405D01*
X126438Y840017D01*
X126385Y839943D01*
X126325Y839874D01*
X126313Y839844D01*
X126294Y839818D01*
X126267Y839731D01*
X126233Y839646D01*
X126229Y839605D01*
X126222Y839582D01*
X126223Y839550D01*
X126215Y839479D01*
X126215Y839469D01*
X123699Y836953D01*
X120141Y836953D01*
G37*
%LPD*%
%LPC*%
G36*
X153733Y941323D02*
X153733Y941323D01*
X149625Y943025D01*
X146481Y946169D01*
X144779Y950277D01*
X144779Y954723D01*
X146481Y958831D01*
X149625Y961975D01*
X153733Y963677D01*
X176467Y963677D01*
X180575Y961975D01*
X183719Y958831D01*
X185421Y954723D01*
X185421Y950277D01*
X183719Y946169D01*
X180575Y943025D01*
X176467Y941323D01*
X153733Y941323D01*
G37*
%LPD*%
%LPC*%
G36*
X153733Y814323D02*
X153733Y814323D01*
X149625Y816025D01*
X146481Y819169D01*
X144779Y823277D01*
X144779Y827723D01*
X146481Y831831D01*
X149625Y834975D01*
X153733Y836677D01*
X176467Y836677D01*
X180575Y834975D01*
X183719Y831831D01*
X185421Y827723D01*
X185421Y823277D01*
X183719Y819169D01*
X180575Y816025D01*
X176467Y814323D01*
X153733Y814323D01*
G37*
%LPD*%
%LPC*%
G36*
X26733Y992123D02*
X26733Y992123D01*
X22625Y993825D01*
X19481Y996969D01*
X17779Y1001077D01*
X17779Y1005523D01*
X19481Y1009631D01*
X22625Y1012775D01*
X26733Y1014477D01*
X49467Y1014477D01*
X53575Y1012775D01*
X56719Y1009631D01*
X58421Y1005523D01*
X58421Y1001077D01*
X56719Y996969D01*
X53575Y993825D01*
X49467Y992123D01*
X26733Y992123D01*
G37*
%LPD*%
%LPC*%
G36*
X26733Y966723D02*
X26733Y966723D01*
X22625Y968425D01*
X19481Y971569D01*
X17779Y975677D01*
X17779Y980123D01*
X19481Y984231D01*
X22625Y987375D01*
X26733Y989077D01*
X49467Y989077D01*
X53575Y987375D01*
X56719Y984231D01*
X58421Y980123D01*
X58421Y975677D01*
X56719Y971569D01*
X53575Y968425D01*
X49467Y966723D01*
X26733Y966723D01*
G37*
%LPD*%
%LPC*%
G36*
X26733Y915923D02*
X26733Y915923D01*
X22625Y917625D01*
X19481Y920769D01*
X17779Y924877D01*
X17779Y929323D01*
X19481Y933431D01*
X22625Y936575D01*
X26733Y938277D01*
X49467Y938277D01*
X53575Y936575D01*
X56719Y933431D01*
X58421Y929323D01*
X58421Y924877D01*
X56719Y920769D01*
X53575Y917625D01*
X49467Y915923D01*
X26733Y915923D01*
G37*
%LPD*%
%LPC*%
G36*
X153733Y890523D02*
X153733Y890523D01*
X149625Y892225D01*
X146481Y895369D01*
X144779Y899477D01*
X144779Y903923D01*
X146481Y908031D01*
X149625Y911175D01*
X153733Y912877D01*
X176467Y912877D01*
X180575Y911175D01*
X183719Y908031D01*
X185421Y903923D01*
X185421Y899477D01*
X183719Y895369D01*
X180575Y892225D01*
X176467Y890523D01*
X153733Y890523D01*
G37*
%LPD*%
%LPC*%
G36*
X26733Y890523D02*
X26733Y890523D01*
X22625Y892225D01*
X19481Y895369D01*
X17779Y899477D01*
X17779Y903923D01*
X19481Y908031D01*
X22625Y911175D01*
X26733Y912877D01*
X49467Y912877D01*
X53575Y911175D01*
X56719Y908031D01*
X58421Y903923D01*
X58421Y899477D01*
X56719Y895369D01*
X53575Y892225D01*
X49467Y890523D01*
X26733Y890523D01*
G37*
%LPD*%
%LPC*%
G36*
X46170Y719073D02*
X46170Y719073D01*
X39623Y725620D01*
X39623Y734880D01*
X42151Y737408D01*
X42163Y737424D01*
X42179Y737436D01*
X42235Y737524D01*
X42295Y737607D01*
X42301Y737626D01*
X42312Y737643D01*
X42337Y737744D01*
X42367Y737842D01*
X42367Y737862D01*
X42372Y737882D01*
X42364Y737985D01*
X42361Y738088D01*
X42354Y738107D01*
X42353Y738127D01*
X42312Y738222D01*
X42276Y738319D01*
X42264Y738335D01*
X42256Y738353D01*
X42184Y738444D01*
X42178Y738454D01*
X42171Y738460D01*
X42151Y738484D01*
X38607Y742028D01*
X38607Y753580D01*
X38593Y753670D01*
X38585Y753761D01*
X38573Y753791D01*
X38568Y753822D01*
X38525Y753903D01*
X38489Y753987D01*
X38463Y754019D01*
X38452Y754040D01*
X38429Y754062D01*
X38384Y754118D01*
X38377Y754125D01*
X38377Y757683D01*
X40893Y760199D01*
X44451Y760199D01*
X46967Y757683D01*
X46967Y754125D01*
X46960Y754118D01*
X46907Y754044D01*
X46847Y753975D01*
X46835Y753944D01*
X46816Y753918D01*
X46789Y753831D01*
X46755Y753746D01*
X46751Y753706D01*
X46744Y753683D01*
X46745Y753651D01*
X46737Y753580D01*
X46737Y745711D01*
X46751Y745621D01*
X46759Y745530D01*
X46771Y745500D01*
X46776Y745468D01*
X46819Y745388D01*
X46855Y745304D01*
X46881Y745272D01*
X46892Y745251D01*
X46915Y745229D01*
X46960Y745173D01*
X50229Y741904D01*
X50483Y741650D01*
X50557Y741597D01*
X50626Y741537D01*
X50656Y741525D01*
X50682Y741506D01*
X50770Y741479D01*
X50854Y741445D01*
X50895Y741441D01*
X50917Y741434D01*
X50950Y741435D01*
X51021Y741427D01*
X55430Y741427D01*
X61977Y734880D01*
X61977Y725620D01*
X55430Y719073D01*
X46170Y719073D01*
G37*
%LPD*%
%LPC*%
G36*
X48214Y1120474D02*
X48214Y1120474D01*
X43436Y1122454D01*
X39779Y1126111D01*
X37799Y1130889D01*
X37799Y1136061D01*
X39779Y1140839D01*
X43436Y1144496D01*
X48214Y1146476D01*
X53386Y1146476D01*
X58164Y1144496D01*
X61821Y1140839D01*
X63801Y1136061D01*
X63801Y1130889D01*
X61821Y1126111D01*
X58164Y1122454D01*
X53386Y1120474D01*
X48214Y1120474D01*
G37*
%LPD*%
%LPC*%
G36*
X149814Y1120474D02*
X149814Y1120474D01*
X145036Y1122454D01*
X141379Y1126111D01*
X139399Y1130889D01*
X139399Y1136061D01*
X141379Y1140839D01*
X145036Y1144496D01*
X149814Y1146476D01*
X154986Y1146476D01*
X159764Y1144496D01*
X163421Y1140839D01*
X165401Y1136061D01*
X165401Y1130889D01*
X163421Y1126111D01*
X159764Y1122454D01*
X154986Y1120474D01*
X149814Y1120474D01*
G37*
%LPD*%
%LPC*%
G36*
X149814Y164799D02*
X149814Y164799D01*
X145036Y166779D01*
X141379Y170436D01*
X139399Y175214D01*
X139399Y180386D01*
X141379Y185164D01*
X145036Y188821D01*
X149814Y190801D01*
X154986Y190801D01*
X159764Y188821D01*
X163421Y185164D01*
X165401Y180386D01*
X165401Y175214D01*
X163421Y170436D01*
X159764Y166779D01*
X154986Y164799D01*
X149814Y164799D01*
G37*
%LPD*%
%LPC*%
G36*
X48214Y164799D02*
X48214Y164799D01*
X43436Y166779D01*
X39779Y170436D01*
X37799Y175214D01*
X37799Y180386D01*
X39779Y185164D01*
X43436Y188821D01*
X48214Y190801D01*
X53386Y190801D01*
X58164Y188821D01*
X61821Y185164D01*
X63801Y180386D01*
X63801Y175214D01*
X61821Y170436D01*
X58164Y166779D01*
X53386Y164799D01*
X48214Y164799D01*
G37*
%LPD*%
%LPC*%
G36*
X149814Y672799D02*
X149814Y672799D01*
X145036Y674779D01*
X141379Y678436D01*
X139399Y683214D01*
X139399Y688386D01*
X141379Y693164D01*
X145036Y696821D01*
X149814Y698801D01*
X154986Y698801D01*
X159764Y696821D01*
X163421Y693164D01*
X165401Y688386D01*
X165401Y683214D01*
X163421Y678436D01*
X159764Y674779D01*
X154986Y672799D01*
X149814Y672799D01*
G37*
%LPD*%
%LPC*%
G36*
X48214Y672799D02*
X48214Y672799D01*
X43436Y674779D01*
X39779Y678436D01*
X37799Y683214D01*
X37799Y688386D01*
X39779Y693164D01*
X43436Y696821D01*
X48214Y698801D01*
X53386Y698801D01*
X58164Y696821D01*
X61821Y693164D01*
X63801Y688386D01*
X63801Y683214D01*
X61821Y678436D01*
X58164Y674779D01*
X53386Y672799D01*
X48214Y672799D01*
G37*
%LPD*%
%LPC*%
G36*
X48214Y418799D02*
X48214Y418799D01*
X43436Y420779D01*
X39779Y424436D01*
X37799Y429214D01*
X37799Y434386D01*
X39779Y439164D01*
X43436Y442821D01*
X48214Y444801D01*
X53386Y444801D01*
X58164Y442821D01*
X61821Y439164D01*
X63801Y434386D01*
X63801Y429214D01*
X61821Y424436D01*
X58164Y420779D01*
X53386Y418799D01*
X48214Y418799D01*
G37*
%LPD*%
%LPC*%
G36*
X48214Y291799D02*
X48214Y291799D01*
X43436Y293779D01*
X39779Y297436D01*
X37799Y302214D01*
X37799Y307386D01*
X39779Y312164D01*
X43436Y315821D01*
X48214Y317801D01*
X53386Y317801D01*
X58164Y315821D01*
X61821Y312164D01*
X63801Y307386D01*
X63801Y302214D01*
X61821Y297436D01*
X58164Y293779D01*
X53386Y291799D01*
X48214Y291799D01*
G37*
%LPD*%
%LPC*%
G36*
X149814Y291799D02*
X149814Y291799D01*
X145036Y293779D01*
X141379Y297436D01*
X139399Y302214D01*
X139399Y307386D01*
X141379Y312164D01*
X145036Y315821D01*
X149814Y317801D01*
X154986Y317801D01*
X159764Y315821D01*
X163421Y312164D01*
X165401Y307386D01*
X165401Y302214D01*
X163421Y297436D01*
X159764Y293779D01*
X154986Y291799D01*
X149814Y291799D01*
G37*
%LPD*%
%LPC*%
G36*
X149814Y418799D02*
X149814Y418799D01*
X145036Y420779D01*
X141379Y424436D01*
X139399Y429214D01*
X139399Y434386D01*
X141379Y439164D01*
X145036Y442821D01*
X149814Y444801D01*
X154986Y444801D01*
X159764Y442821D01*
X163421Y439164D01*
X165401Y434386D01*
X165401Y429214D01*
X163421Y424436D01*
X159764Y420779D01*
X154986Y418799D01*
X149814Y418799D01*
G37*
%LPD*%
%LPC*%
G36*
X149814Y545799D02*
X149814Y545799D01*
X145036Y547779D01*
X141379Y551436D01*
X139399Y556214D01*
X139399Y561386D01*
X141379Y566164D01*
X145036Y569821D01*
X149814Y571801D01*
X154986Y571801D01*
X159764Y569821D01*
X163421Y566164D01*
X165401Y561386D01*
X165401Y556214D01*
X163421Y551436D01*
X159764Y547779D01*
X154986Y545799D01*
X149814Y545799D01*
G37*
%LPD*%
%LPC*%
G36*
X48214Y545799D02*
X48214Y545799D01*
X43436Y547779D01*
X39779Y551436D01*
X37799Y556214D01*
X37799Y561386D01*
X39779Y566164D01*
X43436Y569821D01*
X48214Y571801D01*
X53386Y571801D01*
X58164Y569821D01*
X61821Y566164D01*
X63801Y561386D01*
X63801Y556214D01*
X61821Y551436D01*
X58164Y547779D01*
X53386Y545799D01*
X48214Y545799D01*
G37*
%LPD*%
%LPC*%
G36*
X99326Y864869D02*
X99326Y864869D01*
X95125Y866610D01*
X91910Y869825D01*
X90169Y874026D01*
X90169Y878574D01*
X91910Y882775D01*
X95125Y885990D01*
X99326Y887731D01*
X103874Y887731D01*
X108075Y885990D01*
X111290Y882775D01*
X113031Y878574D01*
X113031Y874026D01*
X111290Y869825D01*
X108075Y866610D01*
X103874Y864869D01*
X99326Y864869D01*
G37*
%LPD*%
%LPC*%
G36*
X76720Y1049781D02*
X76720Y1049781D01*
X72519Y1051522D01*
X69304Y1054737D01*
X67563Y1058938D01*
X67563Y1063486D01*
X69304Y1067687D01*
X72519Y1070902D01*
X76720Y1072643D01*
X81268Y1072643D01*
X85469Y1070902D01*
X88684Y1067687D01*
X90425Y1063486D01*
X90425Y1058938D01*
X88684Y1054737D01*
X85469Y1051522D01*
X81268Y1049781D01*
X76720Y1049781D01*
G37*
%LPD*%
%LPC*%
G36*
X77101Y763269D02*
X77101Y763269D01*
X72900Y765010D01*
X69685Y768225D01*
X67944Y772426D01*
X67944Y776974D01*
X69685Y781175D01*
X72900Y784390D01*
X77101Y786131D01*
X81649Y786131D01*
X85850Y784390D01*
X89065Y781175D01*
X90806Y776974D01*
X90806Y772426D01*
X89065Y768225D01*
X85850Y765010D01*
X81649Y763269D01*
X77101Y763269D01*
G37*
%LPD*%
%LPC*%
G36*
X77101Y788669D02*
X77101Y788669D01*
X72900Y790410D01*
X69685Y793625D01*
X67944Y797826D01*
X67944Y802374D01*
X69685Y806575D01*
X72900Y809790D01*
X77101Y811531D01*
X81649Y811531D01*
X85850Y809790D01*
X89065Y806575D01*
X90806Y802374D01*
X90806Y797826D01*
X89065Y793625D01*
X85850Y790410D01*
X81649Y788669D01*
X77101Y788669D01*
G37*
%LPD*%
%LPC*%
G36*
X147770Y1090548D02*
X147770Y1090548D01*
X141223Y1097095D01*
X141223Y1106355D01*
X147770Y1112902D01*
X157030Y1112902D01*
X163577Y1106355D01*
X163577Y1097095D01*
X157030Y1090548D01*
X147770Y1090548D01*
G37*
%LPD*%
%LPC*%
G36*
X147770Y642873D02*
X147770Y642873D01*
X141223Y649420D01*
X141223Y658680D01*
X147770Y665227D01*
X157030Y665227D01*
X163577Y658680D01*
X163577Y649420D01*
X157030Y642873D01*
X147770Y642873D01*
G37*
%LPD*%
%LPC*%
G36*
X46170Y642873D02*
X46170Y642873D01*
X39623Y649420D01*
X39623Y658680D01*
X46170Y665227D01*
X55430Y665227D01*
X61977Y658680D01*
X61977Y649420D01*
X55430Y642873D01*
X46170Y642873D01*
G37*
%LPD*%
%LPC*%
G36*
X147770Y465073D02*
X147770Y465073D01*
X141223Y471620D01*
X141223Y480880D01*
X147770Y487427D01*
X157030Y487427D01*
X163577Y480880D01*
X163577Y471620D01*
X157030Y465073D01*
X147770Y465073D01*
G37*
%LPD*%
%LPC*%
G36*
X147770Y261873D02*
X147770Y261873D01*
X141223Y268420D01*
X141223Y277680D01*
X147770Y284227D01*
X157030Y284227D01*
X163577Y277680D01*
X163577Y268420D01*
X157030Y261873D01*
X147770Y261873D01*
G37*
%LPD*%
%LPC*%
G36*
X46170Y515873D02*
X46170Y515873D01*
X39623Y522420D01*
X39623Y531680D01*
X46170Y538227D01*
X55430Y538227D01*
X61977Y531680D01*
X61977Y522420D01*
X55430Y515873D01*
X46170Y515873D01*
G37*
%LPD*%
%LPC*%
G36*
X147770Y134873D02*
X147770Y134873D01*
X141223Y141420D01*
X141223Y150680D01*
X147770Y157227D01*
X157030Y157227D01*
X163577Y150680D01*
X163577Y141420D01*
X157030Y134873D01*
X147770Y134873D01*
G37*
%LPD*%
%LPC*%
G36*
X147770Y338073D02*
X147770Y338073D01*
X141223Y344620D01*
X141223Y353880D01*
X147770Y360427D01*
X157030Y360427D01*
X163577Y353880D01*
X163577Y344620D01*
X157030Y338073D01*
X147770Y338073D01*
G37*
%LPD*%
%LPC*%
G36*
X46170Y388873D02*
X46170Y388873D01*
X39623Y395420D01*
X39623Y404680D01*
X46170Y411227D01*
X55430Y411227D01*
X61977Y404680D01*
X61977Y395420D01*
X55430Y388873D01*
X46170Y388873D01*
G37*
%LPD*%
%LPC*%
G36*
X147770Y388873D02*
X147770Y388873D01*
X141223Y395420D01*
X141223Y404680D01*
X147770Y411227D01*
X157030Y411227D01*
X163577Y404680D01*
X163577Y395420D01*
X157030Y388873D01*
X147770Y388873D01*
G37*
%LPD*%
%LPC*%
G36*
X46170Y261873D02*
X46170Y261873D01*
X39623Y268420D01*
X39623Y277680D01*
X46170Y284227D01*
X55430Y284227D01*
X61977Y277680D01*
X61977Y268420D01*
X55430Y261873D01*
X46170Y261873D01*
G37*
%LPD*%
%LPC*%
G36*
X147770Y719073D02*
X147770Y719073D01*
X141223Y725620D01*
X141223Y734880D01*
X147770Y741427D01*
X157030Y741427D01*
X163577Y734880D01*
X163577Y725620D01*
X157030Y719073D01*
X147770Y719073D01*
G37*
%LPD*%
%LPC*%
G36*
X46170Y465073D02*
X46170Y465073D01*
X39623Y471620D01*
X39623Y480880D01*
X46170Y487427D01*
X55430Y487427D01*
X61977Y480880D01*
X61977Y471620D01*
X55430Y465073D01*
X46170Y465073D01*
G37*
%LPD*%
%LPC*%
G36*
X147770Y592073D02*
X147770Y592073D01*
X141223Y598620D01*
X141223Y607880D01*
X147770Y614427D01*
X157030Y614427D01*
X163577Y607880D01*
X163577Y598620D01*
X157030Y592073D01*
X147770Y592073D01*
G37*
%LPD*%
%LPC*%
G36*
X46170Y592073D02*
X46170Y592073D01*
X39623Y598620D01*
X39623Y607880D01*
X46170Y614427D01*
X55430Y614427D01*
X61977Y607880D01*
X61977Y598620D01*
X55430Y592073D01*
X46170Y592073D01*
G37*
%LPD*%
%LPC*%
G36*
X46170Y134873D02*
X46170Y134873D01*
X39623Y141420D01*
X39623Y150680D01*
X46170Y157227D01*
X55430Y157227D01*
X61977Y150680D01*
X61977Y141420D01*
X55430Y134873D01*
X46170Y134873D01*
G37*
%LPD*%
%LPC*%
G36*
X46170Y1090548D02*
X46170Y1090548D01*
X39623Y1097095D01*
X39623Y1106355D01*
X46170Y1112902D01*
X55430Y1112902D01*
X61977Y1106355D01*
X61977Y1097095D01*
X55430Y1090548D01*
X46170Y1090548D01*
G37*
%LPD*%
%LPC*%
G36*
X147770Y515873D02*
X147770Y515873D01*
X141223Y522420D01*
X141223Y531680D01*
X147770Y538227D01*
X157030Y538227D01*
X163577Y531680D01*
X163577Y522420D01*
X157030Y515873D01*
X147770Y515873D01*
G37*
%LPD*%
%LPC*%
G36*
X103123Y115823D02*
X103123Y115823D01*
X103123Y135033D01*
X104336Y134841D01*
X106085Y134273D01*
X107724Y133438D01*
X109212Y132357D01*
X110513Y131056D01*
X111594Y129568D01*
X112429Y127929D01*
X112997Y126180D01*
X113285Y124364D01*
X113285Y115823D01*
X103123Y115823D01*
G37*
%LPD*%
%LPC*%
G36*
X166623Y1030223D02*
X166623Y1030223D01*
X166623Y1040385D01*
X175164Y1040385D01*
X176980Y1040097D01*
X178729Y1039529D01*
X180368Y1038694D01*
X181856Y1037613D01*
X183157Y1036312D01*
X184238Y1034824D01*
X185073Y1033185D01*
X185641Y1031436D01*
X185833Y1030223D01*
X166623Y1030223D01*
G37*
%LPD*%
%LPC*%
G36*
X144367Y1030223D02*
X144367Y1030223D01*
X144559Y1031436D01*
X145127Y1033185D01*
X145962Y1034824D01*
X147043Y1036312D01*
X148344Y1037613D01*
X149832Y1038694D01*
X151471Y1039529D01*
X153220Y1040097D01*
X155036Y1040385D01*
X163577Y1040385D01*
X163577Y1030223D01*
X144367Y1030223D01*
G37*
%LPD*%
%LPC*%
G36*
X103123Y112777D02*
X103123Y112777D01*
X113285Y112777D01*
X113285Y104236D01*
X112997Y102420D01*
X112429Y100671D01*
X111594Y99032D01*
X110513Y97544D01*
X109212Y96243D01*
X107724Y95162D01*
X106085Y94327D01*
X104336Y93759D01*
X103123Y93567D01*
X103123Y112777D01*
G37*
%LPD*%
%LPC*%
G36*
X89915Y115823D02*
X89915Y115823D01*
X89915Y124364D01*
X90203Y126180D01*
X90771Y127929D01*
X91606Y129568D01*
X92687Y131056D01*
X93988Y132357D01*
X95476Y133438D01*
X97115Y134273D01*
X98864Y134841D01*
X100077Y135033D01*
X100077Y115823D01*
X89915Y115823D01*
G37*
%LPD*%
%LPC*%
G36*
X166623Y1017015D02*
X166623Y1017015D01*
X166623Y1027177D01*
X185833Y1027177D01*
X185641Y1025964D01*
X185073Y1024215D01*
X184238Y1022576D01*
X183157Y1021088D01*
X181856Y1019787D01*
X180368Y1018706D01*
X178729Y1017871D01*
X176980Y1017303D01*
X175164Y1017015D01*
X166623Y1017015D01*
G37*
%LPD*%
%LPC*%
G36*
X98864Y93759D02*
X98864Y93759D01*
X97115Y94327D01*
X95476Y95162D01*
X93988Y96243D01*
X92687Y97544D01*
X91606Y99032D01*
X90771Y100671D01*
X90203Y102420D01*
X89915Y104236D01*
X89915Y112777D01*
X100077Y112777D01*
X100077Y93567D01*
X98864Y93759D01*
G37*
%LPD*%
%LPC*%
G36*
X155036Y1017015D02*
X155036Y1017015D01*
X153220Y1017303D01*
X151471Y1017871D01*
X149832Y1018706D01*
X148344Y1019787D01*
X147043Y1021088D01*
X145962Y1022576D01*
X145127Y1024215D01*
X144559Y1025964D01*
X144367Y1027177D01*
X163577Y1027177D01*
X163577Y1017015D01*
X155036Y1017015D01*
G37*
%LPD*%
%LPC*%
G36*
X52323Y1077848D02*
X52323Y1077848D01*
X52323Y1088010D01*
X55640Y1088010D01*
X62485Y1081165D01*
X62485Y1077848D01*
X52323Y1077848D01*
G37*
%LPD*%
%LPC*%
G36*
X153923Y1077848D02*
X153923Y1077848D01*
X153923Y1088010D01*
X157240Y1088010D01*
X164085Y1081165D01*
X164085Y1077848D01*
X153923Y1077848D01*
G37*
%LPD*%
%LPC*%
G36*
X153923Y249173D02*
X153923Y249173D01*
X153923Y259335D01*
X157240Y259335D01*
X164085Y252490D01*
X164085Y249173D01*
X153923Y249173D01*
G37*
%LPD*%
%LPC*%
G36*
X153923Y122173D02*
X153923Y122173D01*
X153923Y132335D01*
X157240Y132335D01*
X164085Y125490D01*
X164085Y122173D01*
X153923Y122173D01*
G37*
%LPD*%
%LPC*%
G36*
X52323Y122173D02*
X52323Y122173D01*
X52323Y132335D01*
X55640Y132335D01*
X62485Y125490D01*
X62485Y122173D01*
X52323Y122173D01*
G37*
%LPD*%
%LPC*%
G36*
X52323Y503173D02*
X52323Y503173D01*
X52323Y513335D01*
X55640Y513335D01*
X62485Y506490D01*
X62485Y503173D01*
X52323Y503173D01*
G37*
%LPD*%
%LPC*%
G36*
X153923Y630173D02*
X153923Y630173D01*
X153923Y640335D01*
X157240Y640335D01*
X164085Y633490D01*
X164085Y630173D01*
X153923Y630173D01*
G37*
%LPD*%
%LPC*%
G36*
X52323Y630173D02*
X52323Y630173D01*
X52323Y640335D01*
X55640Y640335D01*
X62485Y633490D01*
X62485Y630173D01*
X52323Y630173D01*
G37*
%LPD*%
%LPC*%
G36*
X52323Y376173D02*
X52323Y376173D01*
X52323Y386335D01*
X55640Y386335D01*
X62485Y379490D01*
X62485Y376173D01*
X52323Y376173D01*
G37*
%LPD*%
%LPC*%
G36*
X153923Y376173D02*
X153923Y376173D01*
X153923Y386335D01*
X157240Y386335D01*
X164085Y379490D01*
X164085Y376173D01*
X153923Y376173D01*
G37*
%LPD*%
%LPC*%
G36*
X52323Y249173D02*
X52323Y249173D01*
X52323Y259335D01*
X55640Y259335D01*
X62485Y252490D01*
X62485Y249173D01*
X52323Y249173D01*
G37*
%LPD*%
%LPC*%
G36*
X153923Y503173D02*
X153923Y503173D01*
X153923Y513335D01*
X157240Y513335D01*
X164085Y506490D01*
X164085Y503173D01*
X153923Y503173D01*
G37*
%LPD*%
%LPC*%
G36*
X140715Y503173D02*
X140715Y503173D01*
X140715Y506490D01*
X147560Y513335D01*
X150877Y513335D01*
X150877Y503173D01*
X140715Y503173D01*
G37*
%LPD*%
%LPC*%
G36*
X39115Y503173D02*
X39115Y503173D01*
X39115Y506490D01*
X45960Y513335D01*
X49277Y513335D01*
X49277Y503173D01*
X39115Y503173D01*
G37*
%LPD*%
%LPC*%
G36*
X140715Y249173D02*
X140715Y249173D01*
X140715Y252490D01*
X147560Y259335D01*
X150877Y259335D01*
X150877Y249173D01*
X140715Y249173D01*
G37*
%LPD*%
%LPC*%
G36*
X39115Y1077848D02*
X39115Y1077848D01*
X39115Y1081165D01*
X45960Y1088010D01*
X49277Y1088010D01*
X49277Y1077848D01*
X39115Y1077848D01*
G37*
%LPD*%
%LPC*%
G36*
X39115Y122173D02*
X39115Y122173D01*
X39115Y125490D01*
X45960Y132335D01*
X49277Y132335D01*
X49277Y122173D01*
X39115Y122173D01*
G37*
%LPD*%
%LPC*%
G36*
X140715Y122173D02*
X140715Y122173D01*
X140715Y125490D01*
X147560Y132335D01*
X150877Y132335D01*
X150877Y122173D01*
X140715Y122173D01*
G37*
%LPD*%
%LPC*%
G36*
X140715Y1077848D02*
X140715Y1077848D01*
X140715Y1081165D01*
X147560Y1088010D01*
X150877Y1088010D01*
X150877Y1077848D01*
X140715Y1077848D01*
G37*
%LPD*%
%LPC*%
G36*
X140715Y376173D02*
X140715Y376173D01*
X140715Y379490D01*
X147560Y386335D01*
X150877Y386335D01*
X150877Y376173D01*
X140715Y376173D01*
G37*
%LPD*%
%LPC*%
G36*
X39115Y376173D02*
X39115Y376173D01*
X39115Y379490D01*
X45960Y386335D01*
X49277Y386335D01*
X49277Y376173D01*
X39115Y376173D01*
G37*
%LPD*%
%LPC*%
G36*
X39115Y630173D02*
X39115Y630173D01*
X39115Y633490D01*
X45960Y640335D01*
X49277Y640335D01*
X49277Y630173D01*
X39115Y630173D01*
G37*
%LPD*%
%LPC*%
G36*
X39115Y249173D02*
X39115Y249173D01*
X39115Y252490D01*
X45960Y259335D01*
X49277Y259335D01*
X49277Y249173D01*
X39115Y249173D01*
G37*
%LPD*%
%LPC*%
G36*
X140715Y630173D02*
X140715Y630173D01*
X140715Y633490D01*
X147560Y640335D01*
X150877Y640335D01*
X150877Y630173D01*
X140715Y630173D01*
G37*
%LPD*%
%LPC*%
G36*
X52323Y108965D02*
X52323Y108965D01*
X52323Y119127D01*
X62485Y119127D01*
X62485Y115810D01*
X55640Y108965D01*
X52323Y108965D01*
G37*
%LPD*%
%LPC*%
G36*
X52323Y489965D02*
X52323Y489965D01*
X52323Y500127D01*
X62485Y500127D01*
X62485Y496810D01*
X55640Y489965D01*
X52323Y489965D01*
G37*
%LPD*%
%LPC*%
G36*
X52323Y616965D02*
X52323Y616965D01*
X52323Y627127D01*
X62485Y627127D01*
X62485Y623810D01*
X55640Y616965D01*
X52323Y616965D01*
G37*
%LPD*%
%LPC*%
G36*
X153923Y616965D02*
X153923Y616965D01*
X153923Y627127D01*
X164085Y627127D01*
X164085Y623810D01*
X157240Y616965D01*
X153923Y616965D01*
G37*
%LPD*%
%LPC*%
G36*
X153923Y362965D02*
X153923Y362965D01*
X153923Y373127D01*
X164085Y373127D01*
X164085Y369810D01*
X157240Y362965D01*
X153923Y362965D01*
G37*
%LPD*%
%LPC*%
G36*
X52323Y362965D02*
X52323Y362965D01*
X52323Y373127D01*
X62485Y373127D01*
X62485Y369810D01*
X55640Y362965D01*
X52323Y362965D01*
G37*
%LPD*%
%LPC*%
G36*
X153923Y489965D02*
X153923Y489965D01*
X153923Y500127D01*
X164085Y500127D01*
X164085Y496810D01*
X157240Y489965D01*
X153923Y489965D01*
G37*
%LPD*%
%LPC*%
G36*
X153923Y235965D02*
X153923Y235965D01*
X153923Y246127D01*
X164085Y246127D01*
X164085Y242810D01*
X157240Y235965D01*
X153923Y235965D01*
G37*
%LPD*%
%LPC*%
G36*
X52323Y235965D02*
X52323Y235965D01*
X52323Y246127D01*
X62485Y246127D01*
X62485Y242810D01*
X55640Y235965D01*
X52323Y235965D01*
G37*
%LPD*%
%LPC*%
G36*
X153923Y108965D02*
X153923Y108965D01*
X153923Y119127D01*
X164085Y119127D01*
X164085Y115810D01*
X157240Y108965D01*
X153923Y108965D01*
G37*
%LPD*%
%LPC*%
G36*
X45960Y362965D02*
X45960Y362965D01*
X39115Y369810D01*
X39115Y373127D01*
X49277Y373127D01*
X49277Y362965D01*
X45960Y362965D01*
G37*
%LPD*%
%LPC*%
G36*
X45960Y235965D02*
X45960Y235965D01*
X39115Y242810D01*
X39115Y246127D01*
X49277Y246127D01*
X49277Y235965D01*
X45960Y235965D01*
G37*
%LPD*%
%LPC*%
G36*
X147560Y616965D02*
X147560Y616965D01*
X140715Y623810D01*
X140715Y627127D01*
X150877Y627127D01*
X150877Y616965D01*
X147560Y616965D01*
G37*
%LPD*%
%LPC*%
G36*
X45960Y616965D02*
X45960Y616965D01*
X39115Y623810D01*
X39115Y627127D01*
X49277Y627127D01*
X49277Y616965D01*
X45960Y616965D01*
G37*
%LPD*%
%LPC*%
G36*
X147560Y489965D02*
X147560Y489965D01*
X140715Y496810D01*
X140715Y500127D01*
X150877Y500127D01*
X150877Y489965D01*
X147560Y489965D01*
G37*
%LPD*%
%LPC*%
G36*
X45960Y489965D02*
X45960Y489965D01*
X39115Y496810D01*
X39115Y500127D01*
X49277Y500127D01*
X49277Y489965D01*
X45960Y489965D01*
G37*
%LPD*%
%LPC*%
G36*
X147560Y235965D02*
X147560Y235965D01*
X140715Y242810D01*
X140715Y246127D01*
X150877Y246127D01*
X150877Y235965D01*
X147560Y235965D01*
G37*
%LPD*%
%LPC*%
G36*
X147560Y362965D02*
X147560Y362965D01*
X140715Y369810D01*
X140715Y373127D01*
X150877Y373127D01*
X150877Y362965D01*
X147560Y362965D01*
G37*
%LPD*%
%LPC*%
G36*
X147560Y108965D02*
X147560Y108965D01*
X140715Y115810D01*
X140715Y119127D01*
X150877Y119127D01*
X150877Y108965D01*
X147560Y108965D01*
G37*
%LPD*%
%LPC*%
G36*
X45960Y108965D02*
X45960Y108965D01*
X39115Y115810D01*
X39115Y119127D01*
X49277Y119127D01*
X49277Y108965D01*
X45960Y108965D01*
G37*
%LPD*%
%LPC*%
G36*
X103123Y729623D02*
X103123Y729623D01*
X103123Y735641D01*
X107434Y735641D01*
X108081Y735468D01*
X108660Y735133D01*
X109133Y734660D01*
X109468Y734081D01*
X109641Y733434D01*
X109641Y729623D01*
X103123Y729623D01*
G37*
%LPD*%
%LPC*%
G36*
X93559Y729623D02*
X93559Y729623D01*
X93559Y733434D01*
X93732Y734081D01*
X94067Y734660D01*
X94540Y735133D01*
X95119Y735468D01*
X95766Y735641D01*
X100077Y735641D01*
X100077Y729623D01*
X93559Y729623D01*
G37*
%LPD*%
%LPC*%
G36*
X103123Y720559D02*
X103123Y720559D01*
X103123Y726577D01*
X109641Y726577D01*
X109641Y722766D01*
X109468Y722119D01*
X109133Y721540D01*
X108660Y721067D01*
X108081Y720732D01*
X107434Y720559D01*
X103123Y720559D01*
G37*
%LPD*%
%LPC*%
G36*
X95766Y720559D02*
X95766Y720559D01*
X95119Y720732D01*
X94540Y721067D01*
X94067Y721540D01*
X93732Y722119D01*
X93559Y722766D01*
X93559Y726577D01*
X100077Y726577D01*
X100077Y720559D01*
X95766Y720559D01*
G37*
%LPD*%
%LPC*%
G36*
X152399Y501649D02*
X152399Y501649D01*
X152399Y501651D01*
X152401Y501651D01*
X152401Y501649D01*
X152399Y501649D01*
G37*
%LPD*%
%LPC*%
G36*
X50799Y247649D02*
X50799Y247649D01*
X50799Y247651D01*
X50801Y247651D01*
X50801Y247649D01*
X50799Y247649D01*
G37*
%LPD*%
%LPC*%
G36*
X152399Y628649D02*
X152399Y628649D01*
X152399Y628651D01*
X152401Y628651D01*
X152401Y628649D01*
X152399Y628649D01*
G37*
%LPD*%
%LPC*%
G36*
X165099Y1028699D02*
X165099Y1028699D01*
X165099Y1028701D01*
X165101Y1028701D01*
X165101Y1028699D01*
X165099Y1028699D01*
G37*
%LPD*%
%LPC*%
G36*
X50799Y374649D02*
X50799Y374649D01*
X50799Y374651D01*
X50801Y374651D01*
X50801Y374649D01*
X50799Y374649D01*
G37*
%LPD*%
%LPC*%
G36*
X152399Y374649D02*
X152399Y374649D01*
X152399Y374651D01*
X152401Y374651D01*
X152401Y374649D01*
X152399Y374649D01*
G37*
%LPD*%
%LPC*%
G36*
X50799Y628649D02*
X50799Y628649D01*
X50799Y628651D01*
X50801Y628651D01*
X50801Y628649D01*
X50799Y628649D01*
G37*
%LPD*%
%LPC*%
G36*
X152399Y120649D02*
X152399Y120649D01*
X152399Y120651D01*
X152401Y120651D01*
X152401Y120649D01*
X152399Y120649D01*
G37*
%LPD*%
%LPC*%
G36*
X152399Y247649D02*
X152399Y247649D01*
X152399Y247651D01*
X152401Y247651D01*
X152401Y247649D01*
X152399Y247649D01*
G37*
%LPD*%
%LPC*%
G36*
X101599Y114299D02*
X101599Y114299D01*
X101599Y114301D01*
X101601Y114301D01*
X101601Y114299D01*
X101599Y114299D01*
G37*
%LPD*%
%LPC*%
G36*
X50799Y501649D02*
X50799Y501649D01*
X50799Y501651D01*
X50801Y501651D01*
X50801Y501649D01*
X50799Y501649D01*
G37*
%LPD*%
%LPC*%
G36*
X50799Y120649D02*
X50799Y120649D01*
X50799Y120651D01*
X50801Y120651D01*
X50801Y120649D01*
X50799Y120649D01*
G37*
%LPD*%
%LPC*%
G36*
X101599Y728099D02*
X101599Y728099D01*
X101599Y728101D01*
X101601Y728101D01*
X101601Y728099D01*
X101599Y728099D01*
G37*
%LPD*%
D10*
X152400Y654050D03*
X152400Y730250D03*
X152400Y628650D03*
X152400Y527050D03*
X152400Y603250D03*
X152400Y501650D03*
X152400Y400050D03*
X152400Y476250D03*
X152400Y374650D03*
X152400Y273050D03*
X152400Y349250D03*
X152400Y247650D03*
X152400Y146050D03*
X152400Y222250D03*
X152400Y120650D03*
X50800Y654050D03*
X50800Y730250D03*
X50800Y628650D03*
X50800Y527050D03*
X50800Y603250D03*
X50800Y501650D03*
X50800Y400050D03*
X50800Y476250D03*
X50800Y374650D03*
X50800Y273050D03*
X50800Y349250D03*
X50800Y247650D03*
X50800Y146050D03*
X50800Y222250D03*
X50800Y120650D03*
X152400Y1101725D03*
X152400Y1177925D03*
X152400Y1076325D03*
X50800Y1101725D03*
X50800Y1177925D03*
X50800Y1076325D03*
D11*
X168275Y800100D03*
X168275Y774700D03*
X123825Y800100D03*
X123825Y774700D03*
X79375Y800100D03*
X79375Y774700D03*
X34925Y800100D03*
X34925Y774700D03*
D12*
X155956Y825500D02*
X174244Y825500D01*
X174244Y850900D02*
X155956Y850900D01*
X155956Y876300D02*
X174244Y876300D01*
X174244Y901700D02*
X155956Y901700D01*
X155956Y927100D02*
X174244Y927100D01*
X174244Y952500D02*
X155956Y952500D01*
X155956Y977900D02*
X174244Y977900D01*
X174244Y1003300D02*
X155956Y1003300D01*
X155956Y1028700D02*
X174244Y1028700D01*
X174244Y1054100D02*
X155956Y1054100D01*
X47244Y825500D02*
X28956Y825500D01*
X28956Y850900D02*
X47244Y850900D01*
X47244Y876300D02*
X28956Y876300D01*
X28956Y901700D02*
X47244Y901700D01*
X47244Y927100D02*
X28956Y927100D01*
X28956Y952500D02*
X47244Y952500D01*
X47244Y977900D02*
X28956Y977900D01*
X28956Y1003300D02*
X47244Y1003300D01*
X47244Y1028700D02*
X28956Y1028700D01*
X28956Y1054100D02*
X47244Y1054100D01*
D11*
X101600Y901700D03*
X101600Y876300D03*
X101600Y850900D03*
D13*
X101600Y728100D03*
X101600Y745100D03*
D12*
X127000Y123444D02*
X127000Y105156D01*
X101600Y105156D02*
X101600Y123444D01*
X76200Y123444D02*
X76200Y105156D01*
D11*
X124206Y996188D03*
X124206Y1061212D03*
X78994Y996188D03*
X78994Y1061212D03*
D14*
X152400Y1002792D02*
X164592Y1002792D01*
X152400Y1002792D02*
X143256Y993648D01*
X143256Y990600D01*
X85344Y932688D01*
X85344Y908304D01*
X82296Y905256D01*
X82296Y850392D01*
X112776Y819912D01*
X128016Y819912D01*
X137160Y810768D01*
X140208Y758952D02*
X161544Y758952D01*
X164592Y755904D01*
X173736Y755904D01*
X185928Y768096D01*
X185928Y783336D01*
X170688Y798576D01*
X164592Y1002792D02*
X165100Y1003300D01*
X168275Y800100D02*
X170688Y798576D01*
D15*
X137160Y810768D03*
X140208Y758952D03*
D14*
X149352Y975360D02*
X164592Y975360D01*
X149352Y975360D02*
X131064Y957072D01*
X131064Y914400D01*
X164592Y975360D02*
X165100Y977900D01*
D15*
X131064Y914400D03*
D14*
X76200Y908304D02*
X76200Y847344D01*
X97536Y826008D01*
D15*
X76200Y908304D03*
X97536Y826008D03*
D14*
X67056Y893064D02*
X67056Y917448D01*
X88392Y816864D02*
X97536Y807720D01*
X97536Y768096D01*
X85344Y755904D01*
X73152Y755904D01*
X54864Y774192D01*
X54864Y786384D01*
X42672Y798576D01*
X36576Y798576D01*
X34925Y800100D01*
D15*
X67056Y917448D03*
X67056Y893064D03*
X88392Y816864D03*
D14*
X100584Y752856D02*
X100584Y746760D01*
X100584Y752856D02*
X121920Y774192D01*
X123825Y774700D01*
X45720Y774192D02*
X36576Y774192D01*
X64008Y755904D02*
X73152Y746760D01*
X64008Y755904D02*
X45720Y774192D01*
X73152Y746760D02*
X100584Y746760D01*
X36576Y774192D02*
X34925Y774700D01*
X100584Y746760D02*
X101600Y745100D01*
X155448Y777240D02*
X167640Y777240D01*
X155448Y777240D02*
X152400Y780288D01*
X134112Y780288D01*
X131064Y777240D01*
X124968Y777240D01*
X167640Y777240D02*
X168275Y774700D01*
X124968Y777240D02*
X123825Y774700D01*
D15*
X64008Y755904D03*
D14*
X152400Y926592D02*
X164592Y926592D01*
X152400Y926592D02*
X131064Y905256D01*
X112776Y905256D01*
X109728Y902208D01*
X103632Y902208D01*
X164592Y926592D02*
X165100Y927100D01*
X103632Y902208D02*
X101600Y901700D01*
X155448Y874776D02*
X121920Y841248D01*
X155448Y874776D02*
X164592Y874776D01*
X165100Y876300D01*
D15*
X121920Y841248D03*
D14*
X146304Y795528D02*
X155448Y786384D01*
X146304Y795528D02*
X146304Y810768D01*
X137160Y819912D01*
X137160Y832104D01*
X155448Y850392D01*
X164592Y850392D01*
X165100Y850900D01*
D15*
X155448Y786384D03*
D14*
X124968Y131064D02*
X124968Y115824D01*
X124968Y131064D02*
X118872Y137160D01*
X118872Y173736D01*
X152400Y207264D01*
X152400Y222250D01*
X124968Y115824D02*
X127000Y114300D01*
X42672Y743712D02*
X42672Y755904D01*
X42672Y743712D02*
X48768Y737616D01*
X48768Y731520D01*
X50800Y730250D01*
D15*
X42672Y755904D03*
D14*
X100584Y762000D02*
X103632Y765048D01*
X103632Y810768D01*
X67056Y847344D01*
X67056Y862584D01*
X54864Y874776D01*
X39624Y874776D01*
X38100Y876300D01*
D15*
X100584Y762000D03*
D14*
X57912Y801624D02*
X57912Y810768D01*
X67056Y819912D01*
X67056Y832104D01*
X48768Y850392D01*
X39624Y850392D01*
X38100Y850900D01*
D15*
X57912Y801624D03*
D14*
X21336Y377952D02*
X48768Y350520D01*
X21336Y377952D02*
X21336Y762000D01*
X18288Y765048D01*
X18288Y774192D01*
X21336Y777240D01*
X18288Y780288D01*
X18288Y810768D01*
X30480Y822960D01*
X36576Y822960D01*
X48768Y350520D02*
X50800Y349250D01*
X36576Y822960D02*
X38100Y825500D01*
X76200Y134112D02*
X76200Y114300D01*
X76200Y134112D02*
X70104Y140208D01*
X70104Y188976D01*
X48768Y210312D01*
X51816Y213360D01*
X51816Y219456D01*
X50800Y222250D01*
X76200Y993394D02*
X78994Y996188D01*
X76200Y993394D02*
X76200Y952500D01*
X38100Y952500D01*
X167640Y1054608D02*
X167640Y1066800D01*
X173736Y1072896D01*
X173736Y1139952D01*
X152400Y1161288D01*
X152400Y1177925D01*
X167640Y1054608D02*
X165100Y1054100D01*
X36576Y1054608D02*
X36576Y1063752D01*
X30480Y1069848D01*
X30480Y1158240D01*
X48768Y1176528D01*
X36576Y1054608D02*
X38100Y1054100D01*
X48768Y1176528D02*
X50800Y1177925D01*
X124206Y1061212D02*
X122047Y1059053D01*
X91694Y1028700D01*
X38100Y1028700D01*
X124206Y1056894D02*
X124206Y996188D01*
X124206Y1056894D02*
X122047Y1059053D01*
M02*
