G04 EAGLE Gerber RS-274X export*
G75*
%MOMM*%
%FSLAX34Y34*%
%LPD*%
%INSilkscreen Top*%
%IPPOS*%
%AMOC8*
5,1,8,0,0,1.08239X$1,22.5*%
G01*
%ADD10C,0.025400*%
%ADD11C,0.254000*%
%ADD12C,0.152400*%
%ADD13C,0.127000*%
%ADD14C,0.101600*%


D10*
X146813Y787274D02*
X149099Y787274D01*
X149098Y787273D02*
X149107Y786814D01*
X149127Y786354D01*
X149157Y785896D01*
X149199Y785438D01*
X149251Y784982D01*
X149315Y784526D01*
X149389Y784073D01*
X149474Y783621D01*
X149570Y783172D01*
X149677Y782725D01*
X149794Y782280D01*
X149922Y781839D01*
X150061Y781401D01*
X150210Y780966D01*
X150369Y780535D01*
X150539Y780108D01*
X150718Y779685D01*
X150908Y779266D01*
X151108Y778852D01*
X151318Y778444D01*
X151538Y778040D01*
X151767Y777641D01*
X152005Y777249D01*
X152253Y776862D01*
X152510Y776481D01*
X152777Y776106D01*
X153052Y775738D01*
X153335Y775376D01*
X153628Y775022D01*
X153929Y774674D01*
X154238Y774334D01*
X154555Y774002D01*
X154880Y773677D01*
X155213Y773360D01*
X155553Y773051D01*
X155900Y772750D01*
X154437Y770994D01*
X154047Y771331D01*
X153665Y771677D01*
X153292Y772032D01*
X152928Y772396D01*
X152572Y772769D01*
X152225Y773150D01*
X151888Y773539D01*
X151560Y773936D01*
X151242Y774342D01*
X150933Y774754D01*
X150634Y775174D01*
X150346Y775601D01*
X150068Y776035D01*
X149800Y776475D01*
X149544Y776922D01*
X149297Y777374D01*
X149062Y777833D01*
X148838Y778297D01*
X148625Y778766D01*
X148424Y779240D01*
X148234Y779719D01*
X148055Y780202D01*
X147888Y780690D01*
X147733Y781181D01*
X147589Y781676D01*
X147458Y782174D01*
X147339Y782675D01*
X147231Y783179D01*
X147136Y783685D01*
X147053Y784194D01*
X146982Y784704D01*
X146923Y785216D01*
X146877Y785729D01*
X146843Y786243D01*
X146822Y786758D01*
X146812Y787273D01*
X147052Y787273D01*
X147062Y786764D01*
X147083Y786255D01*
X147117Y785747D01*
X147162Y785239D01*
X147220Y784733D01*
X147290Y784229D01*
X147372Y783726D01*
X147467Y783225D01*
X147573Y782727D01*
X147691Y782232D01*
X147821Y781739D01*
X147963Y781250D01*
X148116Y780764D01*
X148281Y780282D01*
X148458Y779805D01*
X148646Y779331D01*
X148845Y778862D01*
X149056Y778398D01*
X149277Y777940D01*
X149510Y777487D01*
X149753Y777039D01*
X150007Y776598D01*
X150271Y776162D01*
X150546Y775733D01*
X150831Y775311D01*
X151127Y774896D01*
X151432Y774488D01*
X151746Y774088D01*
X152071Y773695D01*
X152404Y773310D01*
X152747Y772933D01*
X153099Y772565D01*
X153459Y772205D01*
X153828Y771853D01*
X154205Y771511D01*
X154591Y771178D01*
X154744Y771362D01*
X154363Y771692D01*
X153990Y772030D01*
X153626Y772377D01*
X153269Y772733D01*
X152922Y773097D01*
X152583Y773470D01*
X152253Y773850D01*
X151933Y774239D01*
X151622Y774635D01*
X151320Y775038D01*
X151028Y775448D01*
X150747Y775866D01*
X150475Y776290D01*
X150213Y776720D01*
X149962Y777156D01*
X149722Y777599D01*
X149492Y778047D01*
X149273Y778500D01*
X149065Y778959D01*
X148868Y779422D01*
X148682Y779890D01*
X148507Y780363D01*
X148344Y780839D01*
X148192Y781319D01*
X148052Y781803D01*
X147924Y782290D01*
X147807Y782779D01*
X147702Y783272D01*
X147609Y783767D01*
X147528Y784264D01*
X147458Y784762D01*
X147401Y785263D01*
X147356Y785764D01*
X147323Y786267D01*
X147301Y786770D01*
X147292Y787273D01*
X147532Y787273D01*
X147541Y786776D01*
X147562Y786278D01*
X147595Y785782D01*
X147640Y785286D01*
X147697Y784791D01*
X147765Y784299D01*
X147845Y783807D01*
X147938Y783318D01*
X148041Y782831D01*
X148157Y782347D01*
X148284Y781866D01*
X148422Y781388D01*
X148572Y780914D01*
X148734Y780443D01*
X148906Y779976D01*
X149090Y779513D01*
X149285Y779055D01*
X149490Y778602D01*
X149707Y778154D01*
X149934Y777711D01*
X150172Y777274D01*
X150420Y776842D01*
X150678Y776417D01*
X150947Y775998D01*
X151225Y775586D01*
X151514Y775180D01*
X151812Y774781D01*
X152119Y774390D01*
X152436Y774006D01*
X152762Y773630D01*
X153097Y773262D01*
X153440Y772902D01*
X153792Y772550D01*
X154153Y772207D01*
X154521Y771872D01*
X154898Y771547D01*
X155052Y771731D01*
X154679Y772053D01*
X154315Y772383D01*
X153959Y772723D01*
X153611Y773070D01*
X153272Y773426D01*
X152941Y773790D01*
X152619Y774162D01*
X152306Y774541D01*
X152002Y774928D01*
X151707Y775322D01*
X151422Y775723D01*
X151147Y776130D01*
X150882Y776545D01*
X150626Y776965D01*
X150381Y777391D01*
X150146Y777823D01*
X149921Y778261D01*
X149708Y778704D01*
X149504Y779152D01*
X149312Y779604D01*
X149130Y780062D01*
X148960Y780523D01*
X148800Y780988D01*
X148652Y781457D01*
X148515Y781930D01*
X148390Y782405D01*
X148276Y782884D01*
X148173Y783365D01*
X148082Y783848D01*
X148003Y784333D01*
X147935Y784821D01*
X147879Y785309D01*
X147835Y785799D01*
X147802Y786290D01*
X147781Y786781D01*
X147772Y787273D01*
X148012Y787273D01*
X148021Y786787D01*
X148042Y786302D01*
X148074Y785817D01*
X148118Y785333D01*
X148173Y784850D01*
X148240Y784368D01*
X148319Y783889D01*
X148408Y783411D01*
X148510Y782936D01*
X148623Y782463D01*
X148747Y781993D01*
X148882Y781526D01*
X149028Y781063D01*
X149186Y780603D01*
X149354Y780147D01*
X149534Y779696D01*
X149724Y779248D01*
X149925Y778806D01*
X150136Y778368D01*
X150358Y777936D01*
X150590Y777509D01*
X150833Y777087D01*
X151085Y776672D01*
X151347Y776263D01*
X151619Y775860D01*
X151901Y775464D01*
X152192Y775075D01*
X152492Y774692D01*
X152801Y774317D01*
X153120Y773950D01*
X153446Y773590D01*
X153782Y773239D01*
X154126Y772895D01*
X154478Y772560D01*
X154838Y772233D01*
X155205Y771916D01*
X155359Y772100D01*
X154996Y772414D01*
X154640Y772737D01*
X154292Y773068D01*
X153953Y773407D01*
X153621Y773755D01*
X153298Y774110D01*
X152984Y774473D01*
X152678Y774843D01*
X152382Y775221D01*
X152094Y775606D01*
X151816Y775997D01*
X151547Y776395D01*
X151288Y776799D01*
X151039Y777210D01*
X150800Y777626D01*
X150570Y778048D01*
X150351Y778475D01*
X150142Y778907D01*
X149944Y779345D01*
X149756Y779787D01*
X149579Y780233D01*
X149412Y780683D01*
X149257Y781138D01*
X149112Y781595D01*
X148978Y782057D01*
X148856Y782521D01*
X148744Y782988D01*
X148644Y783458D01*
X148555Y783929D01*
X148478Y784403D01*
X148411Y784879D01*
X148357Y785356D01*
X148313Y785834D01*
X148282Y786313D01*
X148261Y786793D01*
X148252Y787273D01*
X148492Y787273D01*
X148501Y786799D01*
X148521Y786325D01*
X148553Y785852D01*
X148595Y785379D01*
X148650Y784908D01*
X148715Y784438D01*
X148792Y783970D01*
X148879Y783504D01*
X148978Y783040D01*
X149088Y782579D01*
X149210Y782120D01*
X149342Y781664D01*
X149485Y781212D01*
X149638Y780763D01*
X149803Y780319D01*
X149978Y779878D01*
X150164Y779441D01*
X150360Y779009D01*
X150566Y778582D01*
X150782Y778160D01*
X151009Y777743D01*
X151245Y777332D01*
X151492Y776927D01*
X151748Y776527D01*
X152013Y776134D01*
X152288Y775748D01*
X152572Y775368D01*
X152865Y774995D01*
X153167Y774629D01*
X153477Y774270D01*
X153796Y773919D01*
X154124Y773576D01*
X154459Y773241D01*
X154803Y772913D01*
X155154Y772595D01*
X155512Y772284D01*
X155666Y772469D01*
X155312Y772775D01*
X154965Y773090D01*
X154626Y773413D01*
X154294Y773744D01*
X153971Y774084D01*
X153656Y774430D01*
X153349Y774784D01*
X153051Y775146D01*
X152762Y775514D01*
X152481Y775890D01*
X152210Y776271D01*
X151948Y776660D01*
X151695Y777054D01*
X151452Y777455D01*
X151218Y777861D01*
X150995Y778272D01*
X150781Y778689D01*
X150577Y779111D01*
X150383Y779538D01*
X150200Y779969D01*
X150027Y780404D01*
X149865Y780844D01*
X149713Y781287D01*
X149572Y781734D01*
X149441Y782184D01*
X149321Y782636D01*
X149213Y783092D01*
X149115Y783550D01*
X149028Y784011D01*
X148952Y784473D01*
X148888Y784937D01*
X148834Y785403D01*
X148792Y785869D01*
X148761Y786337D01*
X148741Y786805D01*
X148732Y787273D01*
X148972Y787273D01*
X148981Y786811D01*
X149001Y786348D01*
X149031Y785887D01*
X149073Y785426D01*
X149126Y784966D01*
X149190Y784508D01*
X149265Y784051D01*
X149350Y783597D01*
X149447Y783144D01*
X149554Y782694D01*
X149673Y782247D01*
X149801Y781803D01*
X149941Y781362D01*
X150091Y780924D01*
X150251Y780490D01*
X150422Y780060D01*
X150603Y779634D01*
X150794Y779213D01*
X150996Y778796D01*
X151207Y778385D01*
X151428Y777978D01*
X151658Y777577D01*
X151898Y777182D01*
X152148Y776792D01*
X152407Y776409D01*
X152675Y776031D01*
X152952Y775661D01*
X153238Y775297D01*
X153532Y774940D01*
X153835Y774590D01*
X154146Y774248D01*
X154465Y773913D01*
X154792Y773586D01*
X155127Y773267D01*
X155470Y772956D01*
X155820Y772653D01*
X158064Y806277D02*
X159140Y804259D01*
X159139Y804260D02*
X158733Y804033D01*
X158332Y803797D01*
X157937Y803551D01*
X157548Y803295D01*
X157166Y803030D01*
X156790Y802756D01*
X156420Y802473D01*
X156058Y802181D01*
X155703Y801880D01*
X155356Y801571D01*
X155016Y801253D01*
X154683Y800928D01*
X154359Y800594D01*
X154043Y800252D01*
X153735Y799903D01*
X153436Y799547D01*
X153146Y799183D01*
X152865Y798813D01*
X152592Y798436D01*
X152329Y798052D01*
X152075Y797662D01*
X151831Y797266D01*
X151597Y796864D01*
X151372Y796457D01*
X151157Y796044D01*
X150952Y795626D01*
X150758Y795203D01*
X150574Y794776D01*
X150400Y794344D01*
X150237Y793909D01*
X150084Y793469D01*
X149942Y793026D01*
X149811Y792580D01*
X149691Y792130D01*
X149581Y791678D01*
X149483Y791223D01*
X149396Y790766D01*
X149320Y790307D01*
X149255Y789846D01*
X149201Y789384D01*
X149158Y788921D01*
X149127Y788457D01*
X149107Y787992D01*
X149098Y787527D01*
X146813Y787526D01*
X146812Y787527D01*
X146822Y788048D01*
X146844Y788569D01*
X146879Y789089D01*
X146926Y789609D01*
X146986Y790126D01*
X147059Y790643D01*
X147144Y791157D01*
X147241Y791670D01*
X147351Y792179D01*
X147473Y792686D01*
X147608Y793190D01*
X147755Y793690D01*
X147914Y794187D01*
X148085Y794680D01*
X148267Y795168D01*
X148462Y795652D01*
X148668Y796131D01*
X148886Y796604D01*
X149116Y797073D01*
X149356Y797535D01*
X149608Y797992D01*
X149871Y798442D01*
X150145Y798886D01*
X150429Y799323D01*
X150724Y799753D01*
X151029Y800176D01*
X151345Y800591D01*
X151670Y800998D01*
X152005Y801398D01*
X152350Y801789D01*
X152705Y802171D01*
X153068Y802545D01*
X153440Y802910D01*
X153822Y803266D01*
X154211Y803612D01*
X154609Y803949D01*
X155015Y804276D01*
X155429Y804594D01*
X155851Y804900D01*
X156280Y805197D01*
X156716Y805483D01*
X157158Y805759D01*
X157608Y806023D01*
X158063Y806277D01*
X158176Y806065D01*
X157726Y805814D01*
X157282Y805553D01*
X156844Y805280D01*
X156413Y804997D01*
X155989Y804704D01*
X155572Y804401D01*
X155163Y804087D01*
X154762Y803764D01*
X154368Y803431D01*
X153983Y803088D01*
X153606Y802736D01*
X153238Y802375D01*
X152878Y802006D01*
X152528Y801627D01*
X152187Y801241D01*
X151856Y800846D01*
X151534Y800443D01*
X151222Y800033D01*
X150920Y799615D01*
X150628Y799190D01*
X150347Y798757D01*
X150077Y798319D01*
X149817Y797873D01*
X149568Y797422D01*
X149330Y796965D01*
X149103Y796502D01*
X148888Y796033D01*
X148684Y795560D01*
X148491Y795081D01*
X148311Y794599D01*
X148142Y794112D01*
X147984Y793621D01*
X147839Y793126D01*
X147706Y792628D01*
X147585Y792127D01*
X147477Y791623D01*
X147380Y791116D01*
X147296Y790608D01*
X147224Y790097D01*
X147165Y789585D01*
X147118Y789072D01*
X147084Y788557D01*
X147062Y788042D01*
X147052Y787527D01*
X147292Y787527D01*
X147302Y788036D01*
X147323Y788545D01*
X147357Y789054D01*
X147404Y789561D01*
X147462Y790068D01*
X147533Y790572D01*
X147617Y791075D01*
X147712Y791576D01*
X147819Y792074D01*
X147939Y792569D01*
X148071Y793062D01*
X148214Y793551D01*
X148369Y794036D01*
X148536Y794518D01*
X148715Y794995D01*
X148905Y795468D01*
X149107Y795936D01*
X149320Y796399D01*
X149544Y796857D01*
X149779Y797309D01*
X150026Y797755D01*
X150282Y798195D01*
X150550Y798629D01*
X150828Y799056D01*
X151116Y799476D01*
X151415Y799890D01*
X151723Y800295D01*
X152041Y800694D01*
X152369Y801084D01*
X152706Y801466D01*
X153052Y801840D01*
X153407Y802206D01*
X153771Y802562D01*
X154144Y802910D01*
X154525Y803249D01*
X154914Y803578D01*
X155311Y803898D01*
X155715Y804208D01*
X156127Y804508D01*
X156546Y804798D01*
X156972Y805078D01*
X157405Y805347D01*
X157844Y805606D01*
X158289Y805854D01*
X158402Y805642D01*
X157962Y805397D01*
X157528Y805141D01*
X157100Y804875D01*
X156679Y804598D01*
X156265Y804311D01*
X155858Y804015D01*
X155458Y803708D01*
X155066Y803392D01*
X154681Y803067D01*
X154305Y802732D01*
X153937Y802388D01*
X153577Y802036D01*
X153226Y801675D01*
X152883Y801305D01*
X152550Y800927D01*
X152226Y800541D01*
X151912Y800148D01*
X151607Y799746D01*
X151312Y799338D01*
X151027Y798923D01*
X150753Y798500D01*
X150488Y798072D01*
X150234Y797637D01*
X149991Y797195D01*
X149759Y796749D01*
X149537Y796296D01*
X149326Y795838D01*
X149127Y795376D01*
X148939Y794909D01*
X148762Y794437D01*
X148597Y793961D01*
X148444Y793481D01*
X148302Y792998D01*
X148172Y792511D01*
X148054Y792021D01*
X147947Y791529D01*
X147853Y791034D01*
X147771Y790537D01*
X147701Y790038D01*
X147643Y789538D01*
X147597Y789036D01*
X147563Y788534D01*
X147542Y788030D01*
X147532Y787527D01*
X147772Y787527D01*
X147782Y788024D01*
X147803Y788522D01*
X147836Y789019D01*
X147881Y789514D01*
X147939Y790009D01*
X148008Y790502D01*
X148089Y790993D01*
X148183Y791482D01*
X148288Y791969D01*
X148405Y792453D01*
X148533Y792934D01*
X148673Y793411D01*
X148825Y793886D01*
X148988Y794356D01*
X149163Y794822D01*
X149349Y795284D01*
X149546Y795741D01*
X149754Y796193D01*
X149973Y796641D01*
X150203Y797082D01*
X150443Y797518D01*
X150694Y797948D01*
X150955Y798372D01*
X151227Y798789D01*
X151509Y799200D01*
X151800Y799603D01*
X152101Y800000D01*
X152412Y800389D01*
X152732Y800770D01*
X153061Y801144D01*
X153399Y801509D01*
X153746Y801866D01*
X154102Y802214D01*
X154466Y802554D01*
X154838Y802885D01*
X155218Y803207D01*
X155606Y803519D01*
X156001Y803822D01*
X156403Y804115D01*
X156812Y804398D01*
X157229Y804672D01*
X157651Y804935D01*
X158080Y805188D01*
X158515Y805430D01*
X158628Y805218D01*
X158198Y804979D01*
X157774Y804729D01*
X157357Y804469D01*
X156946Y804199D01*
X156541Y803919D01*
X156143Y803629D01*
X155753Y803330D01*
X155370Y803021D01*
X154995Y802703D01*
X154627Y802376D01*
X154267Y802041D01*
X153916Y801696D01*
X153573Y801343D01*
X153239Y800982D01*
X152914Y800613D01*
X152597Y800236D01*
X152290Y799852D01*
X151993Y799460D01*
X151705Y799061D01*
X151426Y798656D01*
X151158Y798243D01*
X150900Y797825D01*
X150652Y797400D01*
X150414Y796969D01*
X150187Y796533D01*
X149971Y796091D01*
X149765Y795644D01*
X149571Y795192D01*
X149387Y794736D01*
X149214Y794275D01*
X149053Y793810D01*
X148903Y793342D01*
X148764Y792870D01*
X148637Y792394D01*
X148522Y791916D01*
X148418Y791435D01*
X148326Y790952D01*
X148246Y790467D01*
X148177Y789979D01*
X148120Y789491D01*
X148075Y789001D01*
X148042Y788510D01*
X148021Y788018D01*
X148012Y787527D01*
X148252Y787527D01*
X148261Y788013D01*
X148282Y788498D01*
X148315Y788983D01*
X148359Y789467D01*
X148415Y789950D01*
X148483Y790431D01*
X148562Y790911D01*
X148653Y791388D01*
X148756Y791863D01*
X148870Y792336D01*
X148996Y792806D01*
X149133Y793272D01*
X149281Y793735D01*
X149440Y794194D01*
X149611Y794649D01*
X149792Y795100D01*
X149985Y795546D01*
X150188Y795988D01*
X150402Y796425D01*
X150626Y796856D01*
X150861Y797281D01*
X151106Y797701D01*
X151361Y798115D01*
X151626Y798522D01*
X151901Y798923D01*
X152185Y799317D01*
X152479Y799704D01*
X152783Y800084D01*
X153095Y800456D01*
X153417Y800821D01*
X153747Y801178D01*
X154086Y801526D01*
X154433Y801867D01*
X154788Y802198D01*
X155151Y802521D01*
X155522Y802835D01*
X155901Y803140D01*
X156286Y803436D01*
X156679Y803722D01*
X157079Y803999D01*
X157485Y804266D01*
X157898Y804523D01*
X158316Y804770D01*
X158741Y805006D01*
X158854Y804795D01*
X158434Y804561D01*
X158021Y804317D01*
X157613Y804063D01*
X157212Y803799D01*
X156817Y803526D01*
X156429Y803243D01*
X156048Y802951D01*
X155674Y802650D01*
X155308Y802339D01*
X154949Y802020D01*
X154598Y801693D01*
X154255Y801356D01*
X153921Y801012D01*
X153594Y800660D01*
X153277Y800300D01*
X152968Y799932D01*
X152669Y799557D01*
X152378Y799174D01*
X152097Y798785D01*
X151825Y798389D01*
X151564Y797986D01*
X151311Y797578D01*
X151069Y797163D01*
X150838Y796743D01*
X150616Y796317D01*
X150405Y795885D01*
X150204Y795449D01*
X150014Y795008D01*
X149835Y794563D01*
X149666Y794113D01*
X149509Y793659D01*
X149362Y793202D01*
X149227Y792741D01*
X149103Y792278D01*
X148990Y791811D01*
X148889Y791341D01*
X148799Y790870D01*
X148720Y790396D01*
X148653Y789921D01*
X148598Y789444D01*
X148554Y788965D01*
X148522Y788486D01*
X148501Y788007D01*
X148492Y787527D01*
X148732Y787527D01*
X148741Y788001D01*
X148762Y788475D01*
X148793Y788948D01*
X148837Y789420D01*
X148892Y789891D01*
X148958Y790361D01*
X149035Y790829D01*
X149124Y791295D01*
X149224Y791758D01*
X149336Y792219D01*
X149458Y792677D01*
X149592Y793132D01*
X149737Y793584D01*
X149892Y794032D01*
X150058Y794476D01*
X150236Y794916D01*
X150423Y795352D01*
X150622Y795783D01*
X150830Y796209D01*
X151049Y796629D01*
X151278Y797045D01*
X151517Y797454D01*
X151766Y797858D01*
X152025Y798255D01*
X152293Y798647D01*
X152571Y799031D01*
X152858Y799409D01*
X153154Y799779D01*
X153458Y800143D01*
X153772Y800498D01*
X154094Y800846D01*
X154425Y801187D01*
X154763Y801519D01*
X155110Y801842D01*
X155464Y802158D01*
X155826Y802464D01*
X156196Y802762D01*
X156572Y803050D01*
X156955Y803330D01*
X157345Y803600D01*
X157741Y803860D01*
X158144Y804111D01*
X158553Y804352D01*
X158967Y804583D01*
X159080Y804371D01*
X158671Y804143D01*
X158267Y803905D01*
X157870Y803657D01*
X157478Y803400D01*
X157093Y803133D01*
X156715Y802858D01*
X156343Y802572D01*
X155978Y802279D01*
X155621Y801976D01*
X155271Y801664D01*
X154929Y801345D01*
X154594Y801017D01*
X154268Y800681D01*
X153950Y800337D01*
X153640Y799986D01*
X153339Y799627D01*
X153047Y799261D01*
X152763Y798888D01*
X152489Y798508D01*
X152224Y798122D01*
X151969Y797729D01*
X151723Y797331D01*
X151487Y796926D01*
X151261Y796516D01*
X151045Y796101D01*
X150838Y795680D01*
X150643Y795254D01*
X150457Y794824D01*
X150282Y794390D01*
X150118Y793951D01*
X149964Y793509D01*
X149822Y793063D01*
X149690Y792613D01*
X149569Y792161D01*
X149459Y791706D01*
X149360Y791248D01*
X149272Y790788D01*
X149195Y790326D01*
X149130Y789862D01*
X149076Y789397D01*
X149033Y788930D01*
X149001Y788463D01*
X148981Y787995D01*
X148972Y787527D01*
X182236Y771099D02*
X180759Y772844D01*
X180759Y772843D02*
X181111Y773153D01*
X181456Y773471D01*
X181792Y773797D01*
X182120Y774131D01*
X182440Y774473D01*
X182752Y774823D01*
X183055Y775181D01*
X183349Y775546D01*
X183634Y775917D01*
X183910Y776296D01*
X184177Y776682D01*
X184434Y777073D01*
X184682Y777471D01*
X184919Y777875D01*
X185147Y778285D01*
X185365Y778700D01*
X185572Y779120D01*
X185769Y779545D01*
X185956Y779975D01*
X186132Y780409D01*
X186298Y780847D01*
X186452Y781290D01*
X186596Y781736D01*
X186729Y782185D01*
X186851Y782637D01*
X186962Y783093D01*
X187062Y783551D01*
X187150Y784011D01*
X187227Y784473D01*
X187293Y784937D01*
X187348Y785402D01*
X187391Y785869D01*
X187422Y786337D01*
X187443Y786805D01*
X187452Y787273D01*
X189737Y787274D01*
X189738Y787273D01*
X189728Y786748D01*
X189706Y786223D01*
X189670Y785699D01*
X189622Y785176D01*
X189562Y784654D01*
X189488Y784134D01*
X189402Y783616D01*
X189303Y783100D01*
X189191Y782587D01*
X189067Y782076D01*
X188931Y781569D01*
X188782Y781065D01*
X188621Y780565D01*
X188447Y780069D01*
X188262Y779578D01*
X188064Y779091D01*
X187855Y778609D01*
X187634Y778132D01*
X187401Y777661D01*
X187157Y777196D01*
X186902Y776737D01*
X186635Y776284D01*
X186358Y775838D01*
X186069Y775399D01*
X185770Y774967D01*
X185461Y774543D01*
X185141Y774126D01*
X184811Y773717D01*
X184471Y773317D01*
X184122Y772924D01*
X183763Y772541D01*
X183394Y772166D01*
X183017Y771801D01*
X182631Y771445D01*
X182236Y771098D01*
X182081Y771281D01*
X182471Y771624D01*
X182853Y771976D01*
X183226Y772338D01*
X183590Y772708D01*
X183945Y773087D01*
X184291Y773475D01*
X184627Y773871D01*
X184953Y774275D01*
X185269Y774687D01*
X185575Y775107D01*
X185871Y775534D01*
X186156Y775968D01*
X186430Y776409D01*
X186694Y776857D01*
X186946Y777310D01*
X187188Y777770D01*
X187418Y778236D01*
X187636Y778707D01*
X187843Y779184D01*
X188038Y779665D01*
X188222Y780151D01*
X188393Y780641D01*
X188552Y781135D01*
X188700Y781633D01*
X188835Y782135D01*
X188957Y782640D01*
X189068Y783147D01*
X189165Y783657D01*
X189251Y784170D01*
X189323Y784684D01*
X189384Y785200D01*
X189431Y785717D01*
X189466Y786235D01*
X189488Y786754D01*
X189498Y787273D01*
X189258Y787273D01*
X189248Y786760D01*
X189226Y786247D01*
X189192Y785735D01*
X189145Y785224D01*
X189085Y784714D01*
X189013Y784205D01*
X188929Y783699D01*
X188832Y783195D01*
X188723Y782693D01*
X188602Y782194D01*
X188468Y781698D01*
X188323Y781206D01*
X188165Y780717D01*
X187996Y780233D01*
X187815Y779752D01*
X187622Y779276D01*
X187417Y778805D01*
X187201Y778340D01*
X186974Y777879D01*
X186735Y777425D01*
X186486Y776976D01*
X186225Y776534D01*
X185954Y776098D01*
X185672Y775668D01*
X185380Y775246D01*
X185077Y774831D01*
X184765Y774424D01*
X184442Y774025D01*
X184110Y773633D01*
X183769Y773250D01*
X183418Y772875D01*
X183058Y772509D01*
X182689Y772151D01*
X182312Y771803D01*
X181926Y771465D01*
X181771Y771648D01*
X182152Y771983D01*
X182525Y772327D01*
X182890Y772680D01*
X183245Y773042D01*
X183592Y773412D01*
X183930Y773791D01*
X184258Y774178D01*
X184577Y774573D01*
X184886Y774976D01*
X185185Y775386D01*
X185473Y775803D01*
X185752Y776227D01*
X186020Y776658D01*
X186277Y777095D01*
X186524Y777539D01*
X186760Y777988D01*
X186985Y778443D01*
X187198Y778904D01*
X187400Y779369D01*
X187591Y779839D01*
X187770Y780314D01*
X187938Y780793D01*
X188093Y781276D01*
X188237Y781763D01*
X188369Y782253D01*
X188489Y782746D01*
X188597Y783242D01*
X188693Y783740D01*
X188776Y784241D01*
X188847Y784743D01*
X188906Y785247D01*
X188952Y785753D01*
X188987Y786259D01*
X189008Y786766D01*
X189018Y787273D01*
X188778Y787273D01*
X188768Y786772D01*
X188747Y786271D01*
X188713Y785771D01*
X188667Y785271D01*
X188609Y784773D01*
X188539Y784276D01*
X188456Y783782D01*
X188362Y783289D01*
X188255Y782799D01*
X188137Y782312D01*
X188006Y781828D01*
X187864Y781347D01*
X187710Y780869D01*
X187545Y780396D01*
X187367Y779927D01*
X187179Y779462D01*
X186979Y779002D01*
X186768Y778547D01*
X186546Y778097D01*
X186313Y777653D01*
X186069Y777215D01*
X185815Y776783D01*
X185550Y776357D01*
X185275Y775938D01*
X184989Y775525D01*
X184694Y775120D01*
X184389Y774722D01*
X184074Y774332D01*
X183749Y773949D01*
X183416Y773575D01*
X183073Y773209D01*
X182721Y772851D01*
X182361Y772502D01*
X181993Y772162D01*
X181616Y771831D01*
X181461Y772014D01*
X181833Y772341D01*
X182197Y772677D01*
X182553Y773022D01*
X182901Y773376D01*
X183239Y773738D01*
X183569Y774108D01*
X183889Y774486D01*
X184200Y774871D01*
X184502Y775264D01*
X184794Y775665D01*
X185076Y776072D01*
X185348Y776487D01*
X185610Y776907D01*
X185861Y777334D01*
X186102Y777768D01*
X186332Y778206D01*
X186552Y778651D01*
X186760Y779100D01*
X186958Y779555D01*
X187144Y780014D01*
X187319Y780478D01*
X187482Y780945D01*
X187635Y781417D01*
X187775Y781892D01*
X187904Y782371D01*
X188021Y782852D01*
X188126Y783337D01*
X188220Y783823D01*
X188301Y784312D01*
X188371Y784803D01*
X188428Y785295D01*
X188474Y785788D01*
X188507Y786283D01*
X188528Y786778D01*
X188538Y787273D01*
X188298Y787273D01*
X188289Y786784D01*
X188267Y786295D01*
X188234Y785806D01*
X188190Y785319D01*
X188133Y784832D01*
X188064Y784348D01*
X187983Y783865D01*
X187891Y783384D01*
X187787Y782905D01*
X187671Y782430D01*
X187544Y781957D01*
X187405Y781487D01*
X187255Y781021D01*
X187093Y780559D01*
X186920Y780101D01*
X186736Y779648D01*
X186541Y779199D01*
X186335Y778754D01*
X186118Y778315D01*
X185891Y777882D01*
X185653Y777454D01*
X185405Y777032D01*
X185146Y776616D01*
X184877Y776207D01*
X184599Y775804D01*
X184310Y775409D01*
X184012Y775020D01*
X183705Y774639D01*
X183388Y774266D01*
X183063Y773900D01*
X182728Y773543D01*
X182385Y773193D01*
X182033Y772853D01*
X181674Y772521D01*
X181306Y772197D01*
X181151Y772381D01*
X181514Y772700D01*
X181870Y773028D01*
X182217Y773365D01*
X182556Y773710D01*
X182886Y774063D01*
X183208Y774424D01*
X183521Y774793D01*
X183824Y775169D01*
X184119Y775553D01*
X184403Y775944D01*
X184679Y776342D01*
X184944Y776746D01*
X185200Y777157D01*
X185445Y777573D01*
X185680Y777996D01*
X185905Y778424D01*
X186119Y778858D01*
X186322Y779297D01*
X186515Y779740D01*
X186697Y780189D01*
X186868Y780641D01*
X187027Y781098D01*
X187176Y781558D01*
X187313Y782022D01*
X187439Y782489D01*
X187553Y782959D01*
X187656Y783431D01*
X187747Y783906D01*
X187827Y784383D01*
X187895Y784862D01*
X187951Y785342D01*
X187995Y785824D01*
X188028Y786307D01*
X188049Y786790D01*
X188058Y787273D01*
X187818Y787273D01*
X187809Y786796D01*
X187788Y786319D01*
X187756Y785842D01*
X187712Y785366D01*
X187656Y784892D01*
X187589Y784419D01*
X187511Y783948D01*
X187421Y783479D01*
X187319Y783012D01*
X187206Y782548D01*
X187082Y782086D01*
X186946Y781628D01*
X186800Y781174D01*
X186642Y780723D01*
X186473Y780276D01*
X186294Y779833D01*
X186103Y779395D01*
X185902Y778962D01*
X185691Y778533D01*
X185469Y778110D01*
X185237Y777693D01*
X184994Y777281D01*
X184742Y776876D01*
X184480Y776476D01*
X184208Y776083D01*
X183927Y775697D01*
X183636Y775318D01*
X183336Y774947D01*
X183027Y774582D01*
X182710Y774225D01*
X182383Y773877D01*
X182049Y773536D01*
X181706Y773203D01*
X181355Y772879D01*
X180996Y772564D01*
X180841Y772747D01*
X181195Y773059D01*
X181542Y773379D01*
X181880Y773707D01*
X182211Y774043D01*
X182533Y774388D01*
X182847Y774740D01*
X183152Y775100D01*
X183448Y775467D01*
X183735Y775842D01*
X184013Y776223D01*
X184281Y776611D01*
X184540Y777005D01*
X184789Y777406D01*
X185029Y777812D01*
X185258Y778225D01*
X185477Y778642D01*
X185686Y779065D01*
X185884Y779493D01*
X186072Y779926D01*
X186250Y780363D01*
X186416Y780804D01*
X186572Y781250D01*
X186717Y781699D01*
X186851Y782151D01*
X186973Y782607D01*
X187085Y783065D01*
X187185Y783526D01*
X187274Y783989D01*
X187352Y784454D01*
X187418Y784921D01*
X187473Y785390D01*
X187516Y785860D01*
X187548Y786330D01*
X187569Y786802D01*
X187578Y787273D01*
X189737Y787527D02*
X187451Y787527D01*
X187452Y787527D02*
X187443Y787990D01*
X187423Y788453D01*
X187392Y788915D01*
X187350Y789376D01*
X187297Y789836D01*
X187232Y790295D01*
X187157Y790752D01*
X187071Y791207D01*
X186973Y791660D01*
X186865Y792110D01*
X186746Y792557D01*
X186616Y793002D01*
X186475Y793443D01*
X186324Y793881D01*
X186162Y794315D01*
X185990Y794745D01*
X185808Y795170D01*
X185615Y795591D01*
X185412Y796008D01*
X185199Y796419D01*
X184977Y796825D01*
X184744Y797226D01*
X184502Y797620D01*
X184251Y798009D01*
X183990Y798392D01*
X183720Y798768D01*
X183441Y799138D01*
X183153Y799501D01*
X182857Y799856D01*
X182552Y800205D01*
X182238Y800546D01*
X181917Y800879D01*
X181587Y801205D01*
X181250Y801522D01*
X180905Y801831D01*
X180553Y802132D01*
X180194Y802424D01*
X179828Y802708D01*
X179455Y802982D01*
X179075Y803247D01*
X178690Y803504D01*
X178298Y803750D01*
X177900Y803988D01*
X179034Y805972D01*
X179480Y805707D01*
X179919Y805431D01*
X180352Y805144D01*
X180777Y804847D01*
X181196Y804539D01*
X181606Y804222D01*
X182009Y803895D01*
X182404Y803558D01*
X182790Y803211D01*
X183168Y802856D01*
X183538Y802491D01*
X183898Y802118D01*
X184249Y801736D01*
X184591Y801345D01*
X184924Y800946D01*
X185246Y800540D01*
X185559Y800126D01*
X185862Y799704D01*
X186154Y799275D01*
X186436Y798839D01*
X186707Y798397D01*
X186968Y797948D01*
X187217Y797493D01*
X187456Y797032D01*
X187683Y796565D01*
X187899Y796094D01*
X188103Y795617D01*
X188296Y795135D01*
X188477Y794648D01*
X188647Y794158D01*
X188804Y793663D01*
X188950Y793165D01*
X189083Y792663D01*
X189204Y792159D01*
X189313Y791651D01*
X189410Y791141D01*
X189494Y790629D01*
X189566Y790115D01*
X189625Y789600D01*
X189672Y789083D01*
X189706Y788565D01*
X189728Y788046D01*
X189738Y787527D01*
X189498Y787527D01*
X189488Y788040D01*
X189467Y788553D01*
X189433Y789065D01*
X189386Y789576D01*
X189327Y790086D01*
X189256Y790594D01*
X189173Y791100D01*
X189078Y791605D01*
X188970Y792106D01*
X188850Y792605D01*
X188718Y793101D01*
X188574Y793594D01*
X188419Y794083D01*
X188251Y794568D01*
X188072Y795049D01*
X187882Y795525D01*
X187679Y795997D01*
X187466Y796463D01*
X187241Y796925D01*
X187005Y797380D01*
X186759Y797830D01*
X186501Y798274D01*
X186233Y798711D01*
X185954Y799142D01*
X185665Y799566D01*
X185366Y799983D01*
X185057Y800393D01*
X184738Y800795D01*
X184409Y801189D01*
X184071Y801575D01*
X183724Y801953D01*
X183368Y802322D01*
X183002Y802682D01*
X182629Y803034D01*
X182247Y803376D01*
X181856Y803709D01*
X181458Y804033D01*
X181052Y804347D01*
X180639Y804651D01*
X180218Y804945D01*
X179790Y805228D01*
X179356Y805502D01*
X178915Y805764D01*
X178796Y805556D01*
X179232Y805296D01*
X179661Y805026D01*
X180084Y804746D01*
X180500Y804455D01*
X180908Y804155D01*
X181310Y803844D01*
X181703Y803524D01*
X182089Y803195D01*
X182467Y802857D01*
X182836Y802509D01*
X183197Y802153D01*
X183550Y801788D01*
X183893Y801414D01*
X184227Y801032D01*
X184552Y800643D01*
X184867Y800246D01*
X185173Y799841D01*
X185469Y799429D01*
X185754Y799009D01*
X186030Y798584D01*
X186295Y798151D01*
X186550Y797712D01*
X186794Y797268D01*
X187027Y796817D01*
X187249Y796361D01*
X187460Y795900D01*
X187660Y795433D01*
X187848Y794963D01*
X188025Y794487D01*
X188191Y794008D01*
X188345Y793524D01*
X188487Y793037D01*
X188617Y792547D01*
X188736Y792054D01*
X188842Y791558D01*
X188937Y791060D01*
X189019Y790559D01*
X189089Y790057D01*
X189147Y789553D01*
X189193Y789048D01*
X189227Y788541D01*
X189248Y788035D01*
X189258Y787527D01*
X189018Y787527D01*
X189008Y788029D01*
X188987Y788530D01*
X188954Y789030D01*
X188909Y789529D01*
X188851Y790027D01*
X188782Y790524D01*
X188700Y791019D01*
X188607Y791511D01*
X188501Y792001D01*
X188384Y792489D01*
X188255Y792974D01*
X188115Y793455D01*
X187963Y793933D01*
X187799Y794407D01*
X187624Y794876D01*
X187438Y795342D01*
X187240Y795803D01*
X187032Y796259D01*
X186812Y796709D01*
X186582Y797155D01*
X186341Y797594D01*
X186089Y798028D01*
X185827Y798456D01*
X185555Y798877D01*
X185272Y799291D01*
X184980Y799698D01*
X184678Y800098D01*
X184366Y800491D01*
X184045Y800876D01*
X183715Y801253D01*
X183375Y801623D01*
X183027Y801983D01*
X182670Y802336D01*
X182305Y802679D01*
X181932Y803014D01*
X181551Y803339D01*
X181161Y803656D01*
X180765Y803962D01*
X180361Y804259D01*
X179950Y804547D01*
X179532Y804824D01*
X179108Y805091D01*
X178677Y805347D01*
X178558Y805139D01*
X178984Y804885D01*
X179403Y804621D01*
X179816Y804347D01*
X180222Y804064D01*
X180621Y803770D01*
X181013Y803467D01*
X181398Y803154D01*
X181775Y802833D01*
X182144Y802502D01*
X182504Y802162D01*
X182857Y801814D01*
X183201Y801457D01*
X183536Y801093D01*
X183863Y800720D01*
X184180Y800339D01*
X184488Y799951D01*
X184787Y799556D01*
X185076Y799153D01*
X185355Y798744D01*
X185624Y798328D01*
X185883Y797905D01*
X186132Y797476D01*
X186370Y797042D01*
X186598Y796602D01*
X186815Y796156D01*
X187021Y795706D01*
X187216Y795250D01*
X187400Y794790D01*
X187573Y794326D01*
X187735Y793858D01*
X187885Y793385D01*
X188024Y792910D01*
X188151Y792431D01*
X188267Y791949D01*
X188371Y791465D01*
X188464Y790978D01*
X188544Y790489D01*
X188613Y789998D01*
X188670Y789506D01*
X188715Y789012D01*
X188748Y788518D01*
X188769Y788023D01*
X188778Y787527D01*
X188538Y787527D01*
X188529Y788017D01*
X188508Y788506D01*
X188475Y788995D01*
X188431Y789482D01*
X188375Y789969D01*
X188307Y790454D01*
X188227Y790937D01*
X188136Y791418D01*
X188033Y791897D01*
X187919Y792373D01*
X187793Y792846D01*
X187655Y793316D01*
X187507Y793783D01*
X187347Y794245D01*
X187176Y794704D01*
X186994Y795159D01*
X186801Y795609D01*
X186597Y796054D01*
X186383Y796494D01*
X186158Y796929D01*
X185923Y797359D01*
X185677Y797782D01*
X185421Y798200D01*
X185155Y798611D01*
X184879Y799015D01*
X184594Y799413D01*
X184299Y799804D01*
X183994Y800187D01*
X183681Y800564D01*
X183358Y800932D01*
X183027Y801292D01*
X182687Y801645D01*
X182338Y801989D01*
X181982Y802325D01*
X181617Y802651D01*
X181245Y802969D01*
X180865Y803278D01*
X180478Y803578D01*
X180083Y803868D01*
X179682Y804148D01*
X179274Y804419D01*
X178859Y804680D01*
X178439Y804931D01*
X178320Y804722D01*
X178735Y804474D01*
X179145Y804217D01*
X179548Y803949D01*
X179944Y803672D01*
X180334Y803385D01*
X180717Y803089D01*
X181092Y802784D01*
X181460Y802470D01*
X181820Y802147D01*
X182172Y801816D01*
X182517Y801476D01*
X182853Y801127D01*
X183180Y800771D01*
X183499Y800407D01*
X183808Y800036D01*
X184109Y799657D01*
X184401Y799271D01*
X184683Y798878D01*
X184955Y798478D01*
X185218Y798072D01*
X185471Y797659D01*
X185714Y797241D01*
X185946Y796816D01*
X186168Y796387D01*
X186380Y795952D01*
X186582Y795512D01*
X186772Y795067D01*
X186952Y794618D01*
X187121Y794165D01*
X187279Y793708D01*
X187426Y793247D01*
X187561Y792782D01*
X187686Y792315D01*
X187799Y791844D01*
X187900Y791371D01*
X187991Y790896D01*
X188069Y790419D01*
X188136Y789940D01*
X188192Y789459D01*
X188236Y788977D01*
X188268Y788494D01*
X188289Y788011D01*
X188298Y787527D01*
X188058Y787527D01*
X188049Y788005D01*
X188028Y788483D01*
X187997Y788960D01*
X187953Y789436D01*
X187898Y789910D01*
X187832Y790384D01*
X187754Y790855D01*
X187665Y791325D01*
X187565Y791792D01*
X187453Y792257D01*
X187330Y792718D01*
X187196Y793177D01*
X187051Y793633D01*
X186895Y794084D01*
X186728Y794532D01*
X186550Y794976D01*
X186362Y795415D01*
X186163Y795850D01*
X185954Y796279D01*
X185734Y796704D01*
X185504Y797123D01*
X185265Y797536D01*
X185015Y797944D01*
X184755Y798345D01*
X184486Y798740D01*
X184207Y799128D01*
X183920Y799509D01*
X183622Y799884D01*
X183316Y800251D01*
X183002Y800611D01*
X182678Y800962D01*
X182346Y801306D01*
X182006Y801642D01*
X181658Y801970D01*
X181303Y802289D01*
X180939Y802599D01*
X180568Y802901D01*
X180190Y803193D01*
X179805Y803476D01*
X179414Y803750D01*
X179016Y804014D01*
X178611Y804269D01*
X178201Y804514D01*
X178082Y804305D01*
X178487Y804064D01*
X178886Y803812D01*
X179280Y803551D01*
X179667Y803281D01*
X180047Y803001D01*
X180420Y802712D01*
X180786Y802414D01*
X181145Y802108D01*
X181497Y801792D01*
X181840Y801469D01*
X182176Y801137D01*
X182504Y800797D01*
X182823Y800450D01*
X183134Y800095D01*
X183437Y799732D01*
X183730Y799362D01*
X184014Y798986D01*
X184290Y798602D01*
X184555Y798212D01*
X184812Y797816D01*
X185059Y797413D01*
X185295Y797005D01*
X185522Y796591D01*
X185739Y796172D01*
X185946Y795747D01*
X186143Y795318D01*
X186329Y794884D01*
X186504Y794446D01*
X186669Y794004D01*
X186823Y793558D01*
X186966Y793108D01*
X187099Y792655D01*
X187220Y792198D01*
X187330Y791740D01*
X187430Y791278D01*
X187518Y790814D01*
X187594Y790349D01*
X187660Y789881D01*
X187714Y789412D01*
X187757Y788942D01*
X187789Y788471D01*
X187809Y787999D01*
X187818Y787527D01*
X187578Y787527D01*
X187569Y787994D01*
X187549Y788459D01*
X187518Y788924D01*
X187475Y789389D01*
X187422Y789852D01*
X187357Y790313D01*
X187281Y790773D01*
X187194Y791231D01*
X187096Y791687D01*
X186987Y792140D01*
X186867Y792591D01*
X186736Y793038D01*
X186595Y793483D01*
X186443Y793923D01*
X186280Y794360D01*
X186107Y794793D01*
X185923Y795221D01*
X185729Y795645D01*
X185525Y796064D01*
X185311Y796478D01*
X185086Y796887D01*
X184852Y797290D01*
X184609Y797688D01*
X184356Y798079D01*
X184093Y798464D01*
X183821Y798843D01*
X183540Y799215D01*
X183251Y799580D01*
X182952Y799938D01*
X182645Y800289D01*
X182330Y800632D01*
X182006Y800968D01*
X181674Y801296D01*
X181335Y801615D01*
X180988Y801926D01*
X180634Y802229D01*
X180272Y802523D01*
X179903Y802809D01*
X179528Y803085D01*
X179146Y803352D01*
X178757Y803610D01*
X178363Y803858D01*
X177962Y804097D01*
D11*
X160401Y771652D02*
X155321Y771652D01*
X176657Y771652D02*
X181229Y771652D01*
D10*
X102363Y787274D02*
X104649Y787274D01*
X104648Y787273D02*
X104657Y786814D01*
X104677Y786354D01*
X104707Y785896D01*
X104749Y785438D01*
X104801Y784982D01*
X104865Y784526D01*
X104939Y784073D01*
X105024Y783621D01*
X105120Y783172D01*
X105227Y782725D01*
X105344Y782280D01*
X105472Y781839D01*
X105611Y781401D01*
X105760Y780966D01*
X105919Y780535D01*
X106089Y780108D01*
X106268Y779685D01*
X106458Y779266D01*
X106658Y778852D01*
X106868Y778444D01*
X107088Y778040D01*
X107317Y777641D01*
X107555Y777249D01*
X107803Y776862D01*
X108060Y776481D01*
X108327Y776106D01*
X108602Y775738D01*
X108885Y775376D01*
X109178Y775022D01*
X109479Y774674D01*
X109788Y774334D01*
X110105Y774002D01*
X110430Y773677D01*
X110763Y773360D01*
X111103Y773051D01*
X111450Y772750D01*
X109987Y770994D01*
X109597Y771331D01*
X109215Y771677D01*
X108842Y772032D01*
X108478Y772396D01*
X108122Y772769D01*
X107775Y773150D01*
X107438Y773539D01*
X107110Y773936D01*
X106792Y774342D01*
X106483Y774754D01*
X106184Y775174D01*
X105896Y775601D01*
X105618Y776035D01*
X105350Y776475D01*
X105094Y776922D01*
X104847Y777374D01*
X104612Y777833D01*
X104388Y778297D01*
X104175Y778766D01*
X103974Y779240D01*
X103784Y779719D01*
X103605Y780202D01*
X103438Y780690D01*
X103283Y781181D01*
X103139Y781676D01*
X103008Y782174D01*
X102889Y782675D01*
X102781Y783179D01*
X102686Y783685D01*
X102603Y784194D01*
X102532Y784704D01*
X102473Y785216D01*
X102427Y785729D01*
X102393Y786243D01*
X102372Y786758D01*
X102362Y787273D01*
X102602Y787273D01*
X102612Y786764D01*
X102633Y786255D01*
X102667Y785747D01*
X102712Y785239D01*
X102770Y784733D01*
X102840Y784229D01*
X102922Y783726D01*
X103017Y783225D01*
X103123Y782727D01*
X103241Y782232D01*
X103371Y781739D01*
X103513Y781250D01*
X103666Y780764D01*
X103831Y780282D01*
X104008Y779805D01*
X104196Y779331D01*
X104395Y778862D01*
X104606Y778398D01*
X104827Y777940D01*
X105060Y777487D01*
X105303Y777039D01*
X105557Y776598D01*
X105821Y776162D01*
X106096Y775733D01*
X106381Y775311D01*
X106677Y774896D01*
X106982Y774488D01*
X107296Y774088D01*
X107621Y773695D01*
X107954Y773310D01*
X108297Y772933D01*
X108649Y772565D01*
X109009Y772205D01*
X109378Y771853D01*
X109755Y771511D01*
X110141Y771178D01*
X110294Y771362D01*
X109913Y771692D01*
X109540Y772030D01*
X109176Y772377D01*
X108819Y772733D01*
X108472Y773097D01*
X108133Y773470D01*
X107803Y773850D01*
X107483Y774239D01*
X107172Y774635D01*
X106870Y775038D01*
X106578Y775448D01*
X106297Y775866D01*
X106025Y776290D01*
X105763Y776720D01*
X105512Y777156D01*
X105272Y777599D01*
X105042Y778047D01*
X104823Y778500D01*
X104615Y778959D01*
X104418Y779422D01*
X104232Y779890D01*
X104057Y780363D01*
X103894Y780839D01*
X103742Y781319D01*
X103602Y781803D01*
X103474Y782290D01*
X103357Y782779D01*
X103252Y783272D01*
X103159Y783767D01*
X103078Y784264D01*
X103008Y784762D01*
X102951Y785263D01*
X102906Y785764D01*
X102873Y786267D01*
X102851Y786770D01*
X102842Y787273D01*
X103082Y787273D01*
X103091Y786776D01*
X103112Y786278D01*
X103145Y785782D01*
X103190Y785286D01*
X103247Y784791D01*
X103315Y784299D01*
X103395Y783807D01*
X103488Y783318D01*
X103591Y782831D01*
X103707Y782347D01*
X103834Y781866D01*
X103972Y781388D01*
X104122Y780914D01*
X104284Y780443D01*
X104456Y779976D01*
X104640Y779513D01*
X104835Y779055D01*
X105040Y778602D01*
X105257Y778154D01*
X105484Y777711D01*
X105722Y777274D01*
X105970Y776842D01*
X106228Y776417D01*
X106497Y775998D01*
X106775Y775586D01*
X107064Y775180D01*
X107362Y774781D01*
X107669Y774390D01*
X107986Y774006D01*
X108312Y773630D01*
X108647Y773262D01*
X108990Y772902D01*
X109342Y772550D01*
X109703Y772207D01*
X110071Y771872D01*
X110448Y771547D01*
X110602Y771731D01*
X110229Y772053D01*
X109865Y772383D01*
X109509Y772723D01*
X109161Y773070D01*
X108822Y773426D01*
X108491Y773790D01*
X108169Y774162D01*
X107856Y774541D01*
X107552Y774928D01*
X107257Y775322D01*
X106972Y775723D01*
X106697Y776130D01*
X106432Y776545D01*
X106176Y776965D01*
X105931Y777391D01*
X105696Y777823D01*
X105471Y778261D01*
X105258Y778704D01*
X105054Y779152D01*
X104862Y779604D01*
X104680Y780062D01*
X104510Y780523D01*
X104350Y780988D01*
X104202Y781457D01*
X104065Y781930D01*
X103940Y782405D01*
X103826Y782884D01*
X103723Y783365D01*
X103632Y783848D01*
X103553Y784333D01*
X103485Y784821D01*
X103429Y785309D01*
X103385Y785799D01*
X103352Y786290D01*
X103331Y786781D01*
X103322Y787273D01*
X103562Y787273D01*
X103571Y786787D01*
X103592Y786302D01*
X103624Y785817D01*
X103668Y785333D01*
X103723Y784850D01*
X103790Y784368D01*
X103869Y783889D01*
X103958Y783411D01*
X104060Y782936D01*
X104173Y782463D01*
X104297Y781993D01*
X104432Y781526D01*
X104578Y781063D01*
X104736Y780603D01*
X104904Y780147D01*
X105084Y779696D01*
X105274Y779248D01*
X105475Y778806D01*
X105686Y778368D01*
X105908Y777936D01*
X106140Y777509D01*
X106383Y777087D01*
X106635Y776672D01*
X106897Y776263D01*
X107169Y775860D01*
X107451Y775464D01*
X107742Y775075D01*
X108042Y774692D01*
X108351Y774317D01*
X108670Y773950D01*
X108996Y773590D01*
X109332Y773239D01*
X109676Y772895D01*
X110028Y772560D01*
X110388Y772233D01*
X110755Y771916D01*
X110909Y772100D01*
X110546Y772414D01*
X110190Y772737D01*
X109842Y773068D01*
X109503Y773407D01*
X109171Y773755D01*
X108848Y774110D01*
X108534Y774473D01*
X108228Y774843D01*
X107932Y775221D01*
X107644Y775606D01*
X107366Y775997D01*
X107097Y776395D01*
X106838Y776799D01*
X106589Y777210D01*
X106350Y777626D01*
X106120Y778048D01*
X105901Y778475D01*
X105692Y778907D01*
X105494Y779345D01*
X105306Y779787D01*
X105129Y780233D01*
X104962Y780683D01*
X104807Y781138D01*
X104662Y781595D01*
X104528Y782057D01*
X104406Y782521D01*
X104294Y782988D01*
X104194Y783458D01*
X104105Y783929D01*
X104028Y784403D01*
X103961Y784879D01*
X103907Y785356D01*
X103863Y785834D01*
X103832Y786313D01*
X103811Y786793D01*
X103802Y787273D01*
X104042Y787273D01*
X104051Y786799D01*
X104071Y786325D01*
X104103Y785852D01*
X104145Y785379D01*
X104200Y784908D01*
X104265Y784438D01*
X104342Y783970D01*
X104429Y783504D01*
X104528Y783040D01*
X104638Y782579D01*
X104760Y782120D01*
X104892Y781664D01*
X105035Y781212D01*
X105188Y780763D01*
X105353Y780319D01*
X105528Y779878D01*
X105714Y779441D01*
X105910Y779009D01*
X106116Y778582D01*
X106332Y778160D01*
X106559Y777743D01*
X106795Y777332D01*
X107042Y776927D01*
X107298Y776527D01*
X107563Y776134D01*
X107838Y775748D01*
X108122Y775368D01*
X108415Y774995D01*
X108717Y774629D01*
X109027Y774270D01*
X109346Y773919D01*
X109674Y773576D01*
X110009Y773241D01*
X110353Y772913D01*
X110704Y772595D01*
X111062Y772284D01*
X111216Y772469D01*
X110862Y772775D01*
X110515Y773090D01*
X110176Y773413D01*
X109844Y773744D01*
X109521Y774084D01*
X109206Y774430D01*
X108899Y774784D01*
X108601Y775146D01*
X108312Y775514D01*
X108031Y775890D01*
X107760Y776271D01*
X107498Y776660D01*
X107245Y777054D01*
X107002Y777455D01*
X106768Y777861D01*
X106545Y778272D01*
X106331Y778689D01*
X106127Y779111D01*
X105933Y779538D01*
X105750Y779969D01*
X105577Y780404D01*
X105415Y780844D01*
X105263Y781287D01*
X105122Y781734D01*
X104991Y782184D01*
X104871Y782636D01*
X104763Y783092D01*
X104665Y783550D01*
X104578Y784011D01*
X104502Y784473D01*
X104438Y784937D01*
X104384Y785403D01*
X104342Y785869D01*
X104311Y786337D01*
X104291Y786805D01*
X104282Y787273D01*
X104522Y787273D01*
X104531Y786811D01*
X104551Y786348D01*
X104581Y785887D01*
X104623Y785426D01*
X104676Y784966D01*
X104740Y784508D01*
X104815Y784051D01*
X104900Y783597D01*
X104997Y783144D01*
X105104Y782694D01*
X105223Y782247D01*
X105351Y781803D01*
X105491Y781362D01*
X105641Y780924D01*
X105801Y780490D01*
X105972Y780060D01*
X106153Y779634D01*
X106344Y779213D01*
X106546Y778796D01*
X106757Y778385D01*
X106978Y777978D01*
X107208Y777577D01*
X107448Y777182D01*
X107698Y776792D01*
X107957Y776409D01*
X108225Y776031D01*
X108502Y775661D01*
X108788Y775297D01*
X109082Y774940D01*
X109385Y774590D01*
X109696Y774248D01*
X110015Y773913D01*
X110342Y773586D01*
X110677Y773267D01*
X111020Y772956D01*
X111370Y772653D01*
X113614Y806277D02*
X114690Y804259D01*
X114689Y804260D02*
X114283Y804033D01*
X113882Y803797D01*
X113487Y803551D01*
X113098Y803295D01*
X112716Y803030D01*
X112340Y802756D01*
X111970Y802473D01*
X111608Y802181D01*
X111253Y801880D01*
X110906Y801571D01*
X110566Y801253D01*
X110233Y800928D01*
X109909Y800594D01*
X109593Y800252D01*
X109285Y799903D01*
X108986Y799547D01*
X108696Y799183D01*
X108415Y798813D01*
X108142Y798436D01*
X107879Y798052D01*
X107625Y797662D01*
X107381Y797266D01*
X107147Y796864D01*
X106922Y796457D01*
X106707Y796044D01*
X106502Y795626D01*
X106308Y795203D01*
X106124Y794776D01*
X105950Y794344D01*
X105787Y793909D01*
X105634Y793469D01*
X105492Y793026D01*
X105361Y792580D01*
X105241Y792130D01*
X105131Y791678D01*
X105033Y791223D01*
X104946Y790766D01*
X104870Y790307D01*
X104805Y789846D01*
X104751Y789384D01*
X104708Y788921D01*
X104677Y788457D01*
X104657Y787992D01*
X104648Y787527D01*
X102363Y787526D01*
X102362Y787527D01*
X102372Y788048D01*
X102394Y788569D01*
X102429Y789089D01*
X102476Y789609D01*
X102536Y790126D01*
X102609Y790643D01*
X102694Y791157D01*
X102791Y791670D01*
X102901Y792179D01*
X103023Y792686D01*
X103158Y793190D01*
X103305Y793690D01*
X103464Y794187D01*
X103635Y794680D01*
X103817Y795168D01*
X104012Y795652D01*
X104218Y796131D01*
X104436Y796604D01*
X104666Y797073D01*
X104906Y797535D01*
X105158Y797992D01*
X105421Y798442D01*
X105695Y798886D01*
X105979Y799323D01*
X106274Y799753D01*
X106579Y800176D01*
X106895Y800591D01*
X107220Y800998D01*
X107555Y801398D01*
X107900Y801789D01*
X108255Y802171D01*
X108618Y802545D01*
X108990Y802910D01*
X109372Y803266D01*
X109761Y803612D01*
X110159Y803949D01*
X110565Y804276D01*
X110979Y804594D01*
X111401Y804900D01*
X111830Y805197D01*
X112266Y805483D01*
X112708Y805759D01*
X113158Y806023D01*
X113613Y806277D01*
X113726Y806065D01*
X113276Y805814D01*
X112832Y805553D01*
X112394Y805280D01*
X111963Y804997D01*
X111539Y804704D01*
X111122Y804401D01*
X110713Y804087D01*
X110312Y803764D01*
X109918Y803431D01*
X109533Y803088D01*
X109156Y802736D01*
X108788Y802375D01*
X108428Y802006D01*
X108078Y801627D01*
X107737Y801241D01*
X107406Y800846D01*
X107084Y800443D01*
X106772Y800033D01*
X106470Y799615D01*
X106178Y799190D01*
X105897Y798757D01*
X105627Y798319D01*
X105367Y797873D01*
X105118Y797422D01*
X104880Y796965D01*
X104653Y796502D01*
X104438Y796033D01*
X104234Y795560D01*
X104041Y795081D01*
X103861Y794599D01*
X103692Y794112D01*
X103534Y793621D01*
X103389Y793126D01*
X103256Y792628D01*
X103135Y792127D01*
X103027Y791623D01*
X102930Y791116D01*
X102846Y790608D01*
X102774Y790097D01*
X102715Y789585D01*
X102668Y789072D01*
X102634Y788557D01*
X102612Y788042D01*
X102602Y787527D01*
X102842Y787527D01*
X102852Y788036D01*
X102873Y788545D01*
X102907Y789054D01*
X102954Y789561D01*
X103012Y790068D01*
X103083Y790572D01*
X103167Y791075D01*
X103262Y791576D01*
X103369Y792074D01*
X103489Y792569D01*
X103621Y793062D01*
X103764Y793551D01*
X103919Y794036D01*
X104086Y794518D01*
X104265Y794995D01*
X104455Y795468D01*
X104657Y795936D01*
X104870Y796399D01*
X105094Y796857D01*
X105329Y797309D01*
X105576Y797755D01*
X105832Y798195D01*
X106100Y798629D01*
X106378Y799056D01*
X106666Y799476D01*
X106965Y799890D01*
X107273Y800295D01*
X107591Y800694D01*
X107919Y801084D01*
X108256Y801466D01*
X108602Y801840D01*
X108957Y802206D01*
X109321Y802562D01*
X109694Y802910D01*
X110075Y803249D01*
X110464Y803578D01*
X110861Y803898D01*
X111265Y804208D01*
X111677Y804508D01*
X112096Y804798D01*
X112522Y805078D01*
X112955Y805347D01*
X113394Y805606D01*
X113839Y805854D01*
X113952Y805642D01*
X113512Y805397D01*
X113078Y805141D01*
X112650Y804875D01*
X112229Y804598D01*
X111815Y804311D01*
X111408Y804015D01*
X111008Y803708D01*
X110616Y803392D01*
X110231Y803067D01*
X109855Y802732D01*
X109487Y802388D01*
X109127Y802036D01*
X108776Y801675D01*
X108433Y801305D01*
X108100Y800927D01*
X107776Y800541D01*
X107462Y800148D01*
X107157Y799746D01*
X106862Y799338D01*
X106577Y798923D01*
X106303Y798500D01*
X106038Y798072D01*
X105784Y797637D01*
X105541Y797195D01*
X105309Y796749D01*
X105087Y796296D01*
X104876Y795838D01*
X104677Y795376D01*
X104489Y794909D01*
X104312Y794437D01*
X104147Y793961D01*
X103994Y793481D01*
X103852Y792998D01*
X103722Y792511D01*
X103604Y792021D01*
X103497Y791529D01*
X103403Y791034D01*
X103321Y790537D01*
X103251Y790038D01*
X103193Y789538D01*
X103147Y789036D01*
X103113Y788534D01*
X103092Y788030D01*
X103082Y787527D01*
X103322Y787527D01*
X103332Y788024D01*
X103353Y788522D01*
X103386Y789019D01*
X103431Y789514D01*
X103489Y790009D01*
X103558Y790502D01*
X103639Y790993D01*
X103733Y791482D01*
X103838Y791969D01*
X103955Y792453D01*
X104083Y792934D01*
X104223Y793411D01*
X104375Y793886D01*
X104538Y794356D01*
X104713Y794822D01*
X104899Y795284D01*
X105096Y795741D01*
X105304Y796193D01*
X105523Y796641D01*
X105753Y797082D01*
X105993Y797518D01*
X106244Y797948D01*
X106505Y798372D01*
X106777Y798789D01*
X107059Y799200D01*
X107350Y799603D01*
X107651Y800000D01*
X107962Y800389D01*
X108282Y800770D01*
X108611Y801144D01*
X108949Y801509D01*
X109296Y801866D01*
X109652Y802214D01*
X110016Y802554D01*
X110388Y802885D01*
X110768Y803207D01*
X111156Y803519D01*
X111551Y803822D01*
X111953Y804115D01*
X112362Y804398D01*
X112779Y804672D01*
X113201Y804935D01*
X113630Y805188D01*
X114065Y805430D01*
X114178Y805218D01*
X113748Y804979D01*
X113324Y804729D01*
X112907Y804469D01*
X112496Y804199D01*
X112091Y803919D01*
X111693Y803629D01*
X111303Y803330D01*
X110920Y803021D01*
X110545Y802703D01*
X110177Y802376D01*
X109817Y802041D01*
X109466Y801696D01*
X109123Y801343D01*
X108789Y800982D01*
X108464Y800613D01*
X108147Y800236D01*
X107840Y799852D01*
X107543Y799460D01*
X107255Y799061D01*
X106976Y798656D01*
X106708Y798243D01*
X106450Y797825D01*
X106202Y797400D01*
X105964Y796969D01*
X105737Y796533D01*
X105521Y796091D01*
X105315Y795644D01*
X105121Y795192D01*
X104937Y794736D01*
X104764Y794275D01*
X104603Y793810D01*
X104453Y793342D01*
X104314Y792870D01*
X104187Y792394D01*
X104072Y791916D01*
X103968Y791435D01*
X103876Y790952D01*
X103796Y790467D01*
X103727Y789979D01*
X103670Y789491D01*
X103625Y789001D01*
X103592Y788510D01*
X103571Y788018D01*
X103562Y787527D01*
X103802Y787527D01*
X103811Y788013D01*
X103832Y788498D01*
X103865Y788983D01*
X103909Y789467D01*
X103965Y789950D01*
X104033Y790431D01*
X104112Y790911D01*
X104203Y791388D01*
X104306Y791863D01*
X104420Y792336D01*
X104546Y792806D01*
X104683Y793272D01*
X104831Y793735D01*
X104990Y794194D01*
X105161Y794649D01*
X105342Y795100D01*
X105535Y795546D01*
X105738Y795988D01*
X105952Y796425D01*
X106176Y796856D01*
X106411Y797281D01*
X106656Y797701D01*
X106911Y798115D01*
X107176Y798522D01*
X107451Y798923D01*
X107735Y799317D01*
X108029Y799704D01*
X108333Y800084D01*
X108645Y800456D01*
X108967Y800821D01*
X109297Y801178D01*
X109636Y801526D01*
X109983Y801867D01*
X110338Y802198D01*
X110701Y802521D01*
X111072Y802835D01*
X111451Y803140D01*
X111836Y803436D01*
X112229Y803722D01*
X112629Y803999D01*
X113035Y804266D01*
X113448Y804523D01*
X113866Y804770D01*
X114291Y805006D01*
X114404Y804795D01*
X113984Y804561D01*
X113571Y804317D01*
X113163Y804063D01*
X112762Y803799D01*
X112367Y803526D01*
X111979Y803243D01*
X111598Y802951D01*
X111224Y802650D01*
X110858Y802339D01*
X110499Y802020D01*
X110148Y801693D01*
X109805Y801356D01*
X109471Y801012D01*
X109144Y800660D01*
X108827Y800300D01*
X108518Y799932D01*
X108219Y799557D01*
X107928Y799174D01*
X107647Y798785D01*
X107375Y798389D01*
X107114Y797986D01*
X106861Y797578D01*
X106619Y797163D01*
X106388Y796743D01*
X106166Y796317D01*
X105955Y795885D01*
X105754Y795449D01*
X105564Y795008D01*
X105385Y794563D01*
X105216Y794113D01*
X105059Y793659D01*
X104912Y793202D01*
X104777Y792741D01*
X104653Y792278D01*
X104540Y791811D01*
X104439Y791341D01*
X104349Y790870D01*
X104270Y790396D01*
X104203Y789921D01*
X104148Y789444D01*
X104104Y788965D01*
X104072Y788486D01*
X104051Y788007D01*
X104042Y787527D01*
X104282Y787527D01*
X104291Y788001D01*
X104312Y788475D01*
X104343Y788948D01*
X104387Y789420D01*
X104442Y789891D01*
X104508Y790361D01*
X104585Y790829D01*
X104674Y791295D01*
X104774Y791758D01*
X104886Y792219D01*
X105008Y792677D01*
X105142Y793132D01*
X105287Y793584D01*
X105442Y794032D01*
X105608Y794476D01*
X105786Y794916D01*
X105973Y795352D01*
X106172Y795783D01*
X106380Y796209D01*
X106599Y796629D01*
X106828Y797045D01*
X107067Y797454D01*
X107316Y797858D01*
X107575Y798255D01*
X107843Y798647D01*
X108121Y799031D01*
X108408Y799409D01*
X108704Y799779D01*
X109008Y800143D01*
X109322Y800498D01*
X109644Y800846D01*
X109975Y801187D01*
X110313Y801519D01*
X110660Y801842D01*
X111014Y802158D01*
X111376Y802464D01*
X111746Y802762D01*
X112122Y803050D01*
X112505Y803330D01*
X112895Y803600D01*
X113291Y803860D01*
X113694Y804111D01*
X114103Y804352D01*
X114517Y804583D01*
X114630Y804371D01*
X114221Y804143D01*
X113817Y803905D01*
X113420Y803657D01*
X113028Y803400D01*
X112643Y803133D01*
X112265Y802858D01*
X111893Y802572D01*
X111528Y802279D01*
X111171Y801976D01*
X110821Y801664D01*
X110479Y801345D01*
X110144Y801017D01*
X109818Y800681D01*
X109500Y800337D01*
X109190Y799986D01*
X108889Y799627D01*
X108597Y799261D01*
X108313Y798888D01*
X108039Y798508D01*
X107774Y798122D01*
X107519Y797729D01*
X107273Y797331D01*
X107037Y796926D01*
X106811Y796516D01*
X106595Y796101D01*
X106388Y795680D01*
X106193Y795254D01*
X106007Y794824D01*
X105832Y794390D01*
X105668Y793951D01*
X105514Y793509D01*
X105372Y793063D01*
X105240Y792613D01*
X105119Y792161D01*
X105009Y791706D01*
X104910Y791248D01*
X104822Y790788D01*
X104745Y790326D01*
X104680Y789862D01*
X104626Y789397D01*
X104583Y788930D01*
X104551Y788463D01*
X104531Y787995D01*
X104522Y787527D01*
X137786Y771099D02*
X136309Y772844D01*
X136309Y772843D02*
X136661Y773153D01*
X137006Y773471D01*
X137342Y773797D01*
X137670Y774131D01*
X137990Y774473D01*
X138302Y774823D01*
X138605Y775181D01*
X138899Y775546D01*
X139184Y775917D01*
X139460Y776296D01*
X139727Y776682D01*
X139984Y777073D01*
X140232Y777471D01*
X140469Y777875D01*
X140697Y778285D01*
X140915Y778700D01*
X141122Y779120D01*
X141319Y779545D01*
X141506Y779975D01*
X141682Y780409D01*
X141848Y780847D01*
X142002Y781290D01*
X142146Y781736D01*
X142279Y782185D01*
X142401Y782637D01*
X142512Y783093D01*
X142612Y783551D01*
X142700Y784011D01*
X142777Y784473D01*
X142843Y784937D01*
X142898Y785402D01*
X142941Y785869D01*
X142972Y786337D01*
X142993Y786805D01*
X143002Y787273D01*
X145287Y787274D01*
X145288Y787273D01*
X145278Y786748D01*
X145256Y786223D01*
X145220Y785699D01*
X145172Y785176D01*
X145112Y784654D01*
X145038Y784134D01*
X144952Y783616D01*
X144853Y783100D01*
X144741Y782587D01*
X144617Y782076D01*
X144481Y781569D01*
X144332Y781065D01*
X144171Y780565D01*
X143997Y780069D01*
X143812Y779578D01*
X143614Y779091D01*
X143405Y778609D01*
X143184Y778132D01*
X142951Y777661D01*
X142707Y777196D01*
X142452Y776737D01*
X142185Y776284D01*
X141908Y775838D01*
X141619Y775399D01*
X141320Y774967D01*
X141011Y774543D01*
X140691Y774126D01*
X140361Y773717D01*
X140021Y773317D01*
X139672Y772924D01*
X139313Y772541D01*
X138944Y772166D01*
X138567Y771801D01*
X138181Y771445D01*
X137786Y771098D01*
X137631Y771281D01*
X138021Y771624D01*
X138403Y771976D01*
X138776Y772338D01*
X139140Y772708D01*
X139495Y773087D01*
X139841Y773475D01*
X140177Y773871D01*
X140503Y774275D01*
X140819Y774687D01*
X141125Y775107D01*
X141421Y775534D01*
X141706Y775968D01*
X141980Y776409D01*
X142244Y776857D01*
X142496Y777310D01*
X142738Y777770D01*
X142968Y778236D01*
X143186Y778707D01*
X143393Y779184D01*
X143588Y779665D01*
X143772Y780151D01*
X143943Y780641D01*
X144102Y781135D01*
X144250Y781633D01*
X144385Y782135D01*
X144507Y782640D01*
X144618Y783147D01*
X144715Y783657D01*
X144801Y784170D01*
X144873Y784684D01*
X144934Y785200D01*
X144981Y785717D01*
X145016Y786235D01*
X145038Y786754D01*
X145048Y787273D01*
X144808Y787273D01*
X144798Y786760D01*
X144776Y786247D01*
X144742Y785735D01*
X144695Y785224D01*
X144635Y784714D01*
X144563Y784205D01*
X144479Y783699D01*
X144382Y783195D01*
X144273Y782693D01*
X144152Y782194D01*
X144018Y781698D01*
X143873Y781206D01*
X143715Y780717D01*
X143546Y780233D01*
X143365Y779752D01*
X143172Y779276D01*
X142967Y778805D01*
X142751Y778340D01*
X142524Y777879D01*
X142285Y777425D01*
X142036Y776976D01*
X141775Y776534D01*
X141504Y776098D01*
X141222Y775668D01*
X140930Y775246D01*
X140627Y774831D01*
X140315Y774424D01*
X139992Y774025D01*
X139660Y773633D01*
X139319Y773250D01*
X138968Y772875D01*
X138608Y772509D01*
X138239Y772151D01*
X137862Y771803D01*
X137476Y771465D01*
X137321Y771648D01*
X137702Y771983D01*
X138075Y772327D01*
X138440Y772680D01*
X138795Y773042D01*
X139142Y773412D01*
X139480Y773791D01*
X139808Y774178D01*
X140127Y774573D01*
X140436Y774976D01*
X140735Y775386D01*
X141023Y775803D01*
X141302Y776227D01*
X141570Y776658D01*
X141827Y777095D01*
X142074Y777539D01*
X142310Y777988D01*
X142535Y778443D01*
X142748Y778904D01*
X142950Y779369D01*
X143141Y779839D01*
X143320Y780314D01*
X143488Y780793D01*
X143643Y781276D01*
X143787Y781763D01*
X143919Y782253D01*
X144039Y782746D01*
X144147Y783242D01*
X144243Y783740D01*
X144326Y784241D01*
X144397Y784743D01*
X144456Y785247D01*
X144502Y785753D01*
X144537Y786259D01*
X144558Y786766D01*
X144568Y787273D01*
X144328Y787273D01*
X144318Y786772D01*
X144297Y786271D01*
X144263Y785771D01*
X144217Y785271D01*
X144159Y784773D01*
X144089Y784276D01*
X144006Y783782D01*
X143912Y783289D01*
X143805Y782799D01*
X143687Y782312D01*
X143556Y781828D01*
X143414Y781347D01*
X143260Y780869D01*
X143095Y780396D01*
X142917Y779927D01*
X142729Y779462D01*
X142529Y779002D01*
X142318Y778547D01*
X142096Y778097D01*
X141863Y777653D01*
X141619Y777215D01*
X141365Y776783D01*
X141100Y776357D01*
X140825Y775938D01*
X140539Y775525D01*
X140244Y775120D01*
X139939Y774722D01*
X139624Y774332D01*
X139299Y773949D01*
X138966Y773575D01*
X138623Y773209D01*
X138271Y772851D01*
X137911Y772502D01*
X137543Y772162D01*
X137166Y771831D01*
X137011Y772014D01*
X137383Y772341D01*
X137747Y772677D01*
X138103Y773022D01*
X138451Y773376D01*
X138789Y773738D01*
X139119Y774108D01*
X139439Y774486D01*
X139750Y774871D01*
X140052Y775264D01*
X140344Y775665D01*
X140626Y776072D01*
X140898Y776487D01*
X141160Y776907D01*
X141411Y777334D01*
X141652Y777768D01*
X141882Y778206D01*
X142102Y778651D01*
X142310Y779100D01*
X142508Y779555D01*
X142694Y780014D01*
X142869Y780478D01*
X143032Y780945D01*
X143185Y781417D01*
X143325Y781892D01*
X143454Y782371D01*
X143571Y782852D01*
X143676Y783337D01*
X143770Y783823D01*
X143851Y784312D01*
X143921Y784803D01*
X143978Y785295D01*
X144024Y785788D01*
X144057Y786283D01*
X144078Y786778D01*
X144088Y787273D01*
X143848Y787273D01*
X143839Y786784D01*
X143817Y786295D01*
X143784Y785806D01*
X143740Y785319D01*
X143683Y784832D01*
X143614Y784348D01*
X143533Y783865D01*
X143441Y783384D01*
X143337Y782905D01*
X143221Y782430D01*
X143094Y781957D01*
X142955Y781487D01*
X142805Y781021D01*
X142643Y780559D01*
X142470Y780101D01*
X142286Y779648D01*
X142091Y779199D01*
X141885Y778754D01*
X141668Y778315D01*
X141441Y777882D01*
X141203Y777454D01*
X140955Y777032D01*
X140696Y776616D01*
X140427Y776207D01*
X140149Y775804D01*
X139860Y775409D01*
X139562Y775020D01*
X139255Y774639D01*
X138938Y774266D01*
X138613Y773900D01*
X138278Y773543D01*
X137935Y773193D01*
X137583Y772853D01*
X137224Y772521D01*
X136856Y772197D01*
X136701Y772381D01*
X137064Y772700D01*
X137420Y773028D01*
X137767Y773365D01*
X138106Y773710D01*
X138436Y774063D01*
X138758Y774424D01*
X139071Y774793D01*
X139374Y775169D01*
X139669Y775553D01*
X139953Y775944D01*
X140229Y776342D01*
X140494Y776746D01*
X140750Y777157D01*
X140995Y777573D01*
X141230Y777996D01*
X141455Y778424D01*
X141669Y778858D01*
X141872Y779297D01*
X142065Y779740D01*
X142247Y780189D01*
X142418Y780641D01*
X142577Y781098D01*
X142726Y781558D01*
X142863Y782022D01*
X142989Y782489D01*
X143103Y782959D01*
X143206Y783431D01*
X143297Y783906D01*
X143377Y784383D01*
X143445Y784862D01*
X143501Y785342D01*
X143545Y785824D01*
X143578Y786307D01*
X143599Y786790D01*
X143608Y787273D01*
X143368Y787273D01*
X143359Y786796D01*
X143338Y786319D01*
X143306Y785842D01*
X143262Y785366D01*
X143206Y784892D01*
X143139Y784419D01*
X143061Y783948D01*
X142971Y783479D01*
X142869Y783012D01*
X142756Y782548D01*
X142632Y782086D01*
X142496Y781628D01*
X142350Y781174D01*
X142192Y780723D01*
X142023Y780276D01*
X141844Y779833D01*
X141653Y779395D01*
X141452Y778962D01*
X141241Y778533D01*
X141019Y778110D01*
X140787Y777693D01*
X140544Y777281D01*
X140292Y776876D01*
X140030Y776476D01*
X139758Y776083D01*
X139477Y775697D01*
X139186Y775318D01*
X138886Y774947D01*
X138577Y774582D01*
X138260Y774225D01*
X137933Y773877D01*
X137599Y773536D01*
X137256Y773203D01*
X136905Y772879D01*
X136546Y772564D01*
X136391Y772747D01*
X136745Y773059D01*
X137092Y773379D01*
X137430Y773707D01*
X137761Y774043D01*
X138083Y774388D01*
X138397Y774740D01*
X138702Y775100D01*
X138998Y775467D01*
X139285Y775842D01*
X139563Y776223D01*
X139831Y776611D01*
X140090Y777005D01*
X140339Y777406D01*
X140579Y777812D01*
X140808Y778225D01*
X141027Y778642D01*
X141236Y779065D01*
X141434Y779493D01*
X141622Y779926D01*
X141800Y780363D01*
X141966Y780804D01*
X142122Y781250D01*
X142267Y781699D01*
X142401Y782151D01*
X142523Y782607D01*
X142635Y783065D01*
X142735Y783526D01*
X142824Y783989D01*
X142902Y784454D01*
X142968Y784921D01*
X143023Y785390D01*
X143066Y785860D01*
X143098Y786330D01*
X143119Y786802D01*
X143128Y787273D01*
X145287Y787527D02*
X143001Y787527D01*
X143002Y787527D02*
X142993Y787990D01*
X142973Y788453D01*
X142942Y788915D01*
X142900Y789376D01*
X142847Y789836D01*
X142782Y790295D01*
X142707Y790752D01*
X142621Y791207D01*
X142523Y791660D01*
X142415Y792110D01*
X142296Y792557D01*
X142166Y793002D01*
X142025Y793443D01*
X141874Y793881D01*
X141712Y794315D01*
X141540Y794745D01*
X141358Y795170D01*
X141165Y795591D01*
X140962Y796008D01*
X140749Y796419D01*
X140527Y796825D01*
X140294Y797226D01*
X140052Y797620D01*
X139801Y798009D01*
X139540Y798392D01*
X139270Y798768D01*
X138991Y799138D01*
X138703Y799501D01*
X138407Y799856D01*
X138102Y800205D01*
X137788Y800546D01*
X137467Y800879D01*
X137137Y801205D01*
X136800Y801522D01*
X136455Y801831D01*
X136103Y802132D01*
X135744Y802424D01*
X135378Y802708D01*
X135005Y802982D01*
X134625Y803247D01*
X134240Y803504D01*
X133848Y803750D01*
X133450Y803988D01*
X134584Y805972D01*
X135030Y805707D01*
X135469Y805431D01*
X135902Y805144D01*
X136327Y804847D01*
X136746Y804539D01*
X137156Y804222D01*
X137559Y803895D01*
X137954Y803558D01*
X138340Y803211D01*
X138718Y802856D01*
X139088Y802491D01*
X139448Y802118D01*
X139799Y801736D01*
X140141Y801345D01*
X140474Y800946D01*
X140796Y800540D01*
X141109Y800126D01*
X141412Y799704D01*
X141704Y799275D01*
X141986Y798839D01*
X142257Y798397D01*
X142518Y797948D01*
X142767Y797493D01*
X143006Y797032D01*
X143233Y796565D01*
X143449Y796094D01*
X143653Y795617D01*
X143846Y795135D01*
X144027Y794648D01*
X144197Y794158D01*
X144354Y793663D01*
X144500Y793165D01*
X144633Y792663D01*
X144754Y792159D01*
X144863Y791651D01*
X144960Y791141D01*
X145044Y790629D01*
X145116Y790115D01*
X145175Y789600D01*
X145222Y789083D01*
X145256Y788565D01*
X145278Y788046D01*
X145288Y787527D01*
X145048Y787527D01*
X145038Y788040D01*
X145017Y788553D01*
X144983Y789065D01*
X144936Y789576D01*
X144877Y790086D01*
X144806Y790594D01*
X144723Y791100D01*
X144628Y791605D01*
X144520Y792106D01*
X144400Y792605D01*
X144268Y793101D01*
X144124Y793594D01*
X143969Y794083D01*
X143801Y794568D01*
X143622Y795049D01*
X143432Y795525D01*
X143229Y795997D01*
X143016Y796463D01*
X142791Y796925D01*
X142555Y797380D01*
X142309Y797830D01*
X142051Y798274D01*
X141783Y798711D01*
X141504Y799142D01*
X141215Y799566D01*
X140916Y799983D01*
X140607Y800393D01*
X140288Y800795D01*
X139959Y801189D01*
X139621Y801575D01*
X139274Y801953D01*
X138918Y802322D01*
X138552Y802682D01*
X138179Y803034D01*
X137797Y803376D01*
X137406Y803709D01*
X137008Y804033D01*
X136602Y804347D01*
X136189Y804651D01*
X135768Y804945D01*
X135340Y805228D01*
X134906Y805502D01*
X134465Y805764D01*
X134346Y805556D01*
X134782Y805296D01*
X135211Y805026D01*
X135634Y804746D01*
X136050Y804455D01*
X136458Y804155D01*
X136860Y803844D01*
X137253Y803524D01*
X137639Y803195D01*
X138017Y802857D01*
X138386Y802509D01*
X138747Y802153D01*
X139100Y801788D01*
X139443Y801414D01*
X139777Y801032D01*
X140102Y800643D01*
X140417Y800246D01*
X140723Y799841D01*
X141019Y799429D01*
X141304Y799009D01*
X141580Y798584D01*
X141845Y798151D01*
X142100Y797712D01*
X142344Y797268D01*
X142577Y796817D01*
X142799Y796361D01*
X143010Y795900D01*
X143210Y795433D01*
X143398Y794963D01*
X143575Y794487D01*
X143741Y794008D01*
X143895Y793524D01*
X144037Y793037D01*
X144167Y792547D01*
X144286Y792054D01*
X144392Y791558D01*
X144487Y791060D01*
X144569Y790559D01*
X144639Y790057D01*
X144697Y789553D01*
X144743Y789048D01*
X144777Y788541D01*
X144798Y788035D01*
X144808Y787527D01*
X144568Y787527D01*
X144558Y788029D01*
X144537Y788530D01*
X144504Y789030D01*
X144459Y789529D01*
X144401Y790027D01*
X144332Y790524D01*
X144250Y791019D01*
X144157Y791511D01*
X144051Y792001D01*
X143934Y792489D01*
X143805Y792974D01*
X143665Y793455D01*
X143513Y793933D01*
X143349Y794407D01*
X143174Y794876D01*
X142988Y795342D01*
X142790Y795803D01*
X142582Y796259D01*
X142362Y796709D01*
X142132Y797155D01*
X141891Y797594D01*
X141639Y798028D01*
X141377Y798456D01*
X141105Y798877D01*
X140822Y799291D01*
X140530Y799698D01*
X140228Y800098D01*
X139916Y800491D01*
X139595Y800876D01*
X139265Y801253D01*
X138925Y801623D01*
X138577Y801983D01*
X138220Y802336D01*
X137855Y802679D01*
X137482Y803014D01*
X137101Y803339D01*
X136711Y803656D01*
X136315Y803962D01*
X135911Y804259D01*
X135500Y804547D01*
X135082Y804824D01*
X134658Y805091D01*
X134227Y805347D01*
X134108Y805139D01*
X134534Y804885D01*
X134953Y804621D01*
X135366Y804347D01*
X135772Y804064D01*
X136171Y803770D01*
X136563Y803467D01*
X136948Y803154D01*
X137325Y802833D01*
X137694Y802502D01*
X138054Y802162D01*
X138407Y801814D01*
X138751Y801457D01*
X139086Y801093D01*
X139413Y800720D01*
X139730Y800339D01*
X140038Y799951D01*
X140337Y799556D01*
X140626Y799153D01*
X140905Y798744D01*
X141174Y798328D01*
X141433Y797905D01*
X141682Y797476D01*
X141920Y797042D01*
X142148Y796602D01*
X142365Y796156D01*
X142571Y795706D01*
X142766Y795250D01*
X142950Y794790D01*
X143123Y794326D01*
X143285Y793858D01*
X143435Y793385D01*
X143574Y792910D01*
X143701Y792431D01*
X143817Y791949D01*
X143921Y791465D01*
X144014Y790978D01*
X144094Y790489D01*
X144163Y789998D01*
X144220Y789506D01*
X144265Y789012D01*
X144298Y788518D01*
X144319Y788023D01*
X144328Y787527D01*
X144088Y787527D01*
X144079Y788017D01*
X144058Y788506D01*
X144025Y788995D01*
X143981Y789482D01*
X143925Y789969D01*
X143857Y790454D01*
X143777Y790937D01*
X143686Y791418D01*
X143583Y791897D01*
X143469Y792373D01*
X143343Y792846D01*
X143205Y793316D01*
X143057Y793783D01*
X142897Y794245D01*
X142726Y794704D01*
X142544Y795159D01*
X142351Y795609D01*
X142147Y796054D01*
X141933Y796494D01*
X141708Y796929D01*
X141473Y797359D01*
X141227Y797782D01*
X140971Y798200D01*
X140705Y798611D01*
X140429Y799015D01*
X140144Y799413D01*
X139849Y799804D01*
X139544Y800187D01*
X139231Y800564D01*
X138908Y800932D01*
X138577Y801292D01*
X138237Y801645D01*
X137888Y801989D01*
X137532Y802325D01*
X137167Y802651D01*
X136795Y802969D01*
X136415Y803278D01*
X136028Y803578D01*
X135633Y803868D01*
X135232Y804148D01*
X134824Y804419D01*
X134409Y804680D01*
X133989Y804931D01*
X133870Y804722D01*
X134285Y804474D01*
X134695Y804217D01*
X135098Y803949D01*
X135494Y803672D01*
X135884Y803385D01*
X136267Y803089D01*
X136642Y802784D01*
X137010Y802470D01*
X137370Y802147D01*
X137722Y801816D01*
X138067Y801476D01*
X138403Y801127D01*
X138730Y800771D01*
X139049Y800407D01*
X139358Y800036D01*
X139659Y799657D01*
X139951Y799271D01*
X140233Y798878D01*
X140505Y798478D01*
X140768Y798072D01*
X141021Y797659D01*
X141264Y797241D01*
X141496Y796816D01*
X141718Y796387D01*
X141930Y795952D01*
X142132Y795512D01*
X142322Y795067D01*
X142502Y794618D01*
X142671Y794165D01*
X142829Y793708D01*
X142976Y793247D01*
X143111Y792782D01*
X143236Y792315D01*
X143349Y791844D01*
X143450Y791371D01*
X143541Y790896D01*
X143619Y790419D01*
X143686Y789940D01*
X143742Y789459D01*
X143786Y788977D01*
X143818Y788494D01*
X143839Y788011D01*
X143848Y787527D01*
X143608Y787527D01*
X143599Y788005D01*
X143578Y788483D01*
X143547Y788960D01*
X143503Y789436D01*
X143448Y789910D01*
X143382Y790384D01*
X143304Y790855D01*
X143215Y791325D01*
X143115Y791792D01*
X143003Y792257D01*
X142880Y792718D01*
X142746Y793177D01*
X142601Y793633D01*
X142445Y794084D01*
X142278Y794532D01*
X142100Y794976D01*
X141912Y795415D01*
X141713Y795850D01*
X141504Y796279D01*
X141284Y796704D01*
X141054Y797123D01*
X140815Y797536D01*
X140565Y797944D01*
X140305Y798345D01*
X140036Y798740D01*
X139757Y799128D01*
X139470Y799509D01*
X139172Y799884D01*
X138866Y800251D01*
X138552Y800611D01*
X138228Y800962D01*
X137896Y801306D01*
X137556Y801642D01*
X137208Y801970D01*
X136853Y802289D01*
X136489Y802599D01*
X136118Y802901D01*
X135740Y803193D01*
X135355Y803476D01*
X134964Y803750D01*
X134566Y804014D01*
X134161Y804269D01*
X133751Y804514D01*
X133632Y804305D01*
X134037Y804064D01*
X134436Y803812D01*
X134830Y803551D01*
X135217Y803281D01*
X135597Y803001D01*
X135970Y802712D01*
X136336Y802414D01*
X136695Y802108D01*
X137047Y801792D01*
X137390Y801469D01*
X137726Y801137D01*
X138054Y800797D01*
X138373Y800450D01*
X138684Y800095D01*
X138987Y799732D01*
X139280Y799362D01*
X139564Y798986D01*
X139840Y798602D01*
X140105Y798212D01*
X140362Y797816D01*
X140609Y797413D01*
X140845Y797005D01*
X141072Y796591D01*
X141289Y796172D01*
X141496Y795747D01*
X141693Y795318D01*
X141879Y794884D01*
X142054Y794446D01*
X142219Y794004D01*
X142373Y793558D01*
X142516Y793108D01*
X142649Y792655D01*
X142770Y792198D01*
X142880Y791740D01*
X142980Y791278D01*
X143068Y790814D01*
X143144Y790349D01*
X143210Y789881D01*
X143264Y789412D01*
X143307Y788942D01*
X143339Y788471D01*
X143359Y787999D01*
X143368Y787527D01*
X143128Y787527D01*
X143119Y787994D01*
X143099Y788459D01*
X143068Y788924D01*
X143025Y789389D01*
X142972Y789852D01*
X142907Y790313D01*
X142831Y790773D01*
X142744Y791231D01*
X142646Y791687D01*
X142537Y792140D01*
X142417Y792591D01*
X142286Y793038D01*
X142145Y793483D01*
X141993Y793923D01*
X141830Y794360D01*
X141657Y794793D01*
X141473Y795221D01*
X141279Y795645D01*
X141075Y796064D01*
X140861Y796478D01*
X140636Y796887D01*
X140402Y797290D01*
X140159Y797688D01*
X139906Y798079D01*
X139643Y798464D01*
X139371Y798843D01*
X139090Y799215D01*
X138801Y799580D01*
X138502Y799938D01*
X138195Y800289D01*
X137880Y800632D01*
X137556Y800968D01*
X137224Y801296D01*
X136885Y801615D01*
X136538Y801926D01*
X136184Y802229D01*
X135822Y802523D01*
X135453Y802809D01*
X135078Y803085D01*
X134696Y803352D01*
X134307Y803610D01*
X133913Y803858D01*
X133512Y804097D01*
D11*
X115951Y771652D02*
X110871Y771652D01*
X132207Y771652D02*
X136779Y771652D01*
D10*
X57913Y787274D02*
X60199Y787274D01*
X60198Y787273D02*
X60207Y786814D01*
X60227Y786354D01*
X60257Y785896D01*
X60299Y785438D01*
X60351Y784982D01*
X60415Y784526D01*
X60489Y784073D01*
X60574Y783621D01*
X60670Y783172D01*
X60777Y782725D01*
X60894Y782280D01*
X61022Y781839D01*
X61161Y781401D01*
X61310Y780966D01*
X61469Y780535D01*
X61639Y780108D01*
X61818Y779685D01*
X62008Y779266D01*
X62208Y778852D01*
X62418Y778444D01*
X62638Y778040D01*
X62867Y777641D01*
X63105Y777249D01*
X63353Y776862D01*
X63610Y776481D01*
X63877Y776106D01*
X64152Y775738D01*
X64435Y775376D01*
X64728Y775022D01*
X65029Y774674D01*
X65338Y774334D01*
X65655Y774002D01*
X65980Y773677D01*
X66313Y773360D01*
X66653Y773051D01*
X67000Y772750D01*
X65537Y770994D01*
X65147Y771331D01*
X64765Y771677D01*
X64392Y772032D01*
X64028Y772396D01*
X63672Y772769D01*
X63325Y773150D01*
X62988Y773539D01*
X62660Y773936D01*
X62342Y774342D01*
X62033Y774754D01*
X61734Y775174D01*
X61446Y775601D01*
X61168Y776035D01*
X60900Y776475D01*
X60644Y776922D01*
X60397Y777374D01*
X60162Y777833D01*
X59938Y778297D01*
X59725Y778766D01*
X59524Y779240D01*
X59334Y779719D01*
X59155Y780202D01*
X58988Y780690D01*
X58833Y781181D01*
X58689Y781676D01*
X58558Y782174D01*
X58439Y782675D01*
X58331Y783179D01*
X58236Y783685D01*
X58153Y784194D01*
X58082Y784704D01*
X58023Y785216D01*
X57977Y785729D01*
X57943Y786243D01*
X57922Y786758D01*
X57912Y787273D01*
X58152Y787273D01*
X58162Y786764D01*
X58183Y786255D01*
X58217Y785747D01*
X58262Y785239D01*
X58320Y784733D01*
X58390Y784229D01*
X58472Y783726D01*
X58567Y783225D01*
X58673Y782727D01*
X58791Y782232D01*
X58921Y781739D01*
X59063Y781250D01*
X59216Y780764D01*
X59381Y780282D01*
X59558Y779805D01*
X59746Y779331D01*
X59945Y778862D01*
X60156Y778398D01*
X60377Y777940D01*
X60610Y777487D01*
X60853Y777039D01*
X61107Y776598D01*
X61371Y776162D01*
X61646Y775733D01*
X61931Y775311D01*
X62227Y774896D01*
X62532Y774488D01*
X62846Y774088D01*
X63171Y773695D01*
X63504Y773310D01*
X63847Y772933D01*
X64199Y772565D01*
X64559Y772205D01*
X64928Y771853D01*
X65305Y771511D01*
X65691Y771178D01*
X65844Y771362D01*
X65463Y771692D01*
X65090Y772030D01*
X64726Y772377D01*
X64369Y772733D01*
X64022Y773097D01*
X63683Y773470D01*
X63353Y773850D01*
X63033Y774239D01*
X62722Y774635D01*
X62420Y775038D01*
X62128Y775448D01*
X61847Y775866D01*
X61575Y776290D01*
X61313Y776720D01*
X61062Y777156D01*
X60822Y777599D01*
X60592Y778047D01*
X60373Y778500D01*
X60165Y778959D01*
X59968Y779422D01*
X59782Y779890D01*
X59607Y780363D01*
X59444Y780839D01*
X59292Y781319D01*
X59152Y781803D01*
X59024Y782290D01*
X58907Y782779D01*
X58802Y783272D01*
X58709Y783767D01*
X58628Y784264D01*
X58558Y784762D01*
X58501Y785263D01*
X58456Y785764D01*
X58423Y786267D01*
X58401Y786770D01*
X58392Y787273D01*
X58632Y787273D01*
X58641Y786776D01*
X58662Y786278D01*
X58695Y785782D01*
X58740Y785286D01*
X58797Y784791D01*
X58865Y784299D01*
X58945Y783807D01*
X59038Y783318D01*
X59141Y782831D01*
X59257Y782347D01*
X59384Y781866D01*
X59522Y781388D01*
X59672Y780914D01*
X59834Y780443D01*
X60006Y779976D01*
X60190Y779513D01*
X60385Y779055D01*
X60590Y778602D01*
X60807Y778154D01*
X61034Y777711D01*
X61272Y777274D01*
X61520Y776842D01*
X61778Y776417D01*
X62047Y775998D01*
X62325Y775586D01*
X62614Y775180D01*
X62912Y774781D01*
X63219Y774390D01*
X63536Y774006D01*
X63862Y773630D01*
X64197Y773262D01*
X64540Y772902D01*
X64892Y772550D01*
X65253Y772207D01*
X65621Y771872D01*
X65998Y771547D01*
X66152Y771731D01*
X65779Y772053D01*
X65415Y772383D01*
X65059Y772723D01*
X64711Y773070D01*
X64372Y773426D01*
X64041Y773790D01*
X63719Y774162D01*
X63406Y774541D01*
X63102Y774928D01*
X62807Y775322D01*
X62522Y775723D01*
X62247Y776130D01*
X61982Y776545D01*
X61726Y776965D01*
X61481Y777391D01*
X61246Y777823D01*
X61021Y778261D01*
X60808Y778704D01*
X60604Y779152D01*
X60412Y779604D01*
X60230Y780062D01*
X60060Y780523D01*
X59900Y780988D01*
X59752Y781457D01*
X59615Y781930D01*
X59490Y782405D01*
X59376Y782884D01*
X59273Y783365D01*
X59182Y783848D01*
X59103Y784333D01*
X59035Y784821D01*
X58979Y785309D01*
X58935Y785799D01*
X58902Y786290D01*
X58881Y786781D01*
X58872Y787273D01*
X59112Y787273D01*
X59121Y786787D01*
X59142Y786302D01*
X59174Y785817D01*
X59218Y785333D01*
X59273Y784850D01*
X59340Y784368D01*
X59419Y783889D01*
X59508Y783411D01*
X59610Y782936D01*
X59723Y782463D01*
X59847Y781993D01*
X59982Y781526D01*
X60128Y781063D01*
X60286Y780603D01*
X60454Y780147D01*
X60634Y779696D01*
X60824Y779248D01*
X61025Y778806D01*
X61236Y778368D01*
X61458Y777936D01*
X61690Y777509D01*
X61933Y777087D01*
X62185Y776672D01*
X62447Y776263D01*
X62719Y775860D01*
X63001Y775464D01*
X63292Y775075D01*
X63592Y774692D01*
X63901Y774317D01*
X64220Y773950D01*
X64546Y773590D01*
X64882Y773239D01*
X65226Y772895D01*
X65578Y772560D01*
X65938Y772233D01*
X66305Y771916D01*
X66459Y772100D01*
X66096Y772414D01*
X65740Y772737D01*
X65392Y773068D01*
X65053Y773407D01*
X64721Y773755D01*
X64398Y774110D01*
X64084Y774473D01*
X63778Y774843D01*
X63482Y775221D01*
X63194Y775606D01*
X62916Y775997D01*
X62647Y776395D01*
X62388Y776799D01*
X62139Y777210D01*
X61900Y777626D01*
X61670Y778048D01*
X61451Y778475D01*
X61242Y778907D01*
X61044Y779345D01*
X60856Y779787D01*
X60679Y780233D01*
X60512Y780683D01*
X60357Y781138D01*
X60212Y781595D01*
X60078Y782057D01*
X59956Y782521D01*
X59844Y782988D01*
X59744Y783458D01*
X59655Y783929D01*
X59578Y784403D01*
X59511Y784879D01*
X59457Y785356D01*
X59413Y785834D01*
X59382Y786313D01*
X59361Y786793D01*
X59352Y787273D01*
X59592Y787273D01*
X59601Y786799D01*
X59621Y786325D01*
X59653Y785852D01*
X59695Y785379D01*
X59750Y784908D01*
X59815Y784438D01*
X59892Y783970D01*
X59979Y783504D01*
X60078Y783040D01*
X60188Y782579D01*
X60310Y782120D01*
X60442Y781664D01*
X60585Y781212D01*
X60738Y780763D01*
X60903Y780319D01*
X61078Y779878D01*
X61264Y779441D01*
X61460Y779009D01*
X61666Y778582D01*
X61882Y778160D01*
X62109Y777743D01*
X62345Y777332D01*
X62592Y776927D01*
X62848Y776527D01*
X63113Y776134D01*
X63388Y775748D01*
X63672Y775368D01*
X63965Y774995D01*
X64267Y774629D01*
X64577Y774270D01*
X64896Y773919D01*
X65224Y773576D01*
X65559Y773241D01*
X65903Y772913D01*
X66254Y772595D01*
X66612Y772284D01*
X66766Y772469D01*
X66412Y772775D01*
X66065Y773090D01*
X65726Y773413D01*
X65394Y773744D01*
X65071Y774084D01*
X64756Y774430D01*
X64449Y774784D01*
X64151Y775146D01*
X63862Y775514D01*
X63581Y775890D01*
X63310Y776271D01*
X63048Y776660D01*
X62795Y777054D01*
X62552Y777455D01*
X62318Y777861D01*
X62095Y778272D01*
X61881Y778689D01*
X61677Y779111D01*
X61483Y779538D01*
X61300Y779969D01*
X61127Y780404D01*
X60965Y780844D01*
X60813Y781287D01*
X60672Y781734D01*
X60541Y782184D01*
X60421Y782636D01*
X60313Y783092D01*
X60215Y783550D01*
X60128Y784011D01*
X60052Y784473D01*
X59988Y784937D01*
X59934Y785403D01*
X59892Y785869D01*
X59861Y786337D01*
X59841Y786805D01*
X59832Y787273D01*
X60072Y787273D01*
X60081Y786811D01*
X60101Y786348D01*
X60131Y785887D01*
X60173Y785426D01*
X60226Y784966D01*
X60290Y784508D01*
X60365Y784051D01*
X60450Y783597D01*
X60547Y783144D01*
X60654Y782694D01*
X60773Y782247D01*
X60901Y781803D01*
X61041Y781362D01*
X61191Y780924D01*
X61351Y780490D01*
X61522Y780060D01*
X61703Y779634D01*
X61894Y779213D01*
X62096Y778796D01*
X62307Y778385D01*
X62528Y777978D01*
X62758Y777577D01*
X62998Y777182D01*
X63248Y776792D01*
X63507Y776409D01*
X63775Y776031D01*
X64052Y775661D01*
X64338Y775297D01*
X64632Y774940D01*
X64935Y774590D01*
X65246Y774248D01*
X65565Y773913D01*
X65892Y773586D01*
X66227Y773267D01*
X66570Y772956D01*
X66920Y772653D01*
X69164Y806277D02*
X70240Y804259D01*
X70239Y804260D02*
X69833Y804033D01*
X69432Y803797D01*
X69037Y803551D01*
X68648Y803295D01*
X68266Y803030D01*
X67890Y802756D01*
X67520Y802473D01*
X67158Y802181D01*
X66803Y801880D01*
X66456Y801571D01*
X66116Y801253D01*
X65783Y800928D01*
X65459Y800594D01*
X65143Y800252D01*
X64835Y799903D01*
X64536Y799547D01*
X64246Y799183D01*
X63965Y798813D01*
X63692Y798436D01*
X63429Y798052D01*
X63175Y797662D01*
X62931Y797266D01*
X62697Y796864D01*
X62472Y796457D01*
X62257Y796044D01*
X62052Y795626D01*
X61858Y795203D01*
X61674Y794776D01*
X61500Y794344D01*
X61337Y793909D01*
X61184Y793469D01*
X61042Y793026D01*
X60911Y792580D01*
X60791Y792130D01*
X60681Y791678D01*
X60583Y791223D01*
X60496Y790766D01*
X60420Y790307D01*
X60355Y789846D01*
X60301Y789384D01*
X60258Y788921D01*
X60227Y788457D01*
X60207Y787992D01*
X60198Y787527D01*
X57913Y787526D01*
X57912Y787527D01*
X57922Y788048D01*
X57944Y788569D01*
X57979Y789089D01*
X58026Y789609D01*
X58086Y790126D01*
X58159Y790643D01*
X58244Y791157D01*
X58341Y791670D01*
X58451Y792179D01*
X58573Y792686D01*
X58708Y793190D01*
X58855Y793690D01*
X59014Y794187D01*
X59185Y794680D01*
X59367Y795168D01*
X59562Y795652D01*
X59768Y796131D01*
X59986Y796604D01*
X60216Y797073D01*
X60456Y797535D01*
X60708Y797992D01*
X60971Y798442D01*
X61245Y798886D01*
X61529Y799323D01*
X61824Y799753D01*
X62129Y800176D01*
X62445Y800591D01*
X62770Y800998D01*
X63105Y801398D01*
X63450Y801789D01*
X63805Y802171D01*
X64168Y802545D01*
X64540Y802910D01*
X64922Y803266D01*
X65311Y803612D01*
X65709Y803949D01*
X66115Y804276D01*
X66529Y804594D01*
X66951Y804900D01*
X67380Y805197D01*
X67816Y805483D01*
X68258Y805759D01*
X68708Y806023D01*
X69163Y806277D01*
X69276Y806065D01*
X68826Y805814D01*
X68382Y805553D01*
X67944Y805280D01*
X67513Y804997D01*
X67089Y804704D01*
X66672Y804401D01*
X66263Y804087D01*
X65862Y803764D01*
X65468Y803431D01*
X65083Y803088D01*
X64706Y802736D01*
X64338Y802375D01*
X63978Y802006D01*
X63628Y801627D01*
X63287Y801241D01*
X62956Y800846D01*
X62634Y800443D01*
X62322Y800033D01*
X62020Y799615D01*
X61728Y799190D01*
X61447Y798757D01*
X61177Y798319D01*
X60917Y797873D01*
X60668Y797422D01*
X60430Y796965D01*
X60203Y796502D01*
X59988Y796033D01*
X59784Y795560D01*
X59591Y795081D01*
X59411Y794599D01*
X59242Y794112D01*
X59084Y793621D01*
X58939Y793126D01*
X58806Y792628D01*
X58685Y792127D01*
X58577Y791623D01*
X58480Y791116D01*
X58396Y790608D01*
X58324Y790097D01*
X58265Y789585D01*
X58218Y789072D01*
X58184Y788557D01*
X58162Y788042D01*
X58152Y787527D01*
X58392Y787527D01*
X58402Y788036D01*
X58423Y788545D01*
X58457Y789054D01*
X58504Y789561D01*
X58562Y790068D01*
X58633Y790572D01*
X58717Y791075D01*
X58812Y791576D01*
X58919Y792074D01*
X59039Y792569D01*
X59171Y793062D01*
X59314Y793551D01*
X59469Y794036D01*
X59636Y794518D01*
X59815Y794995D01*
X60005Y795468D01*
X60207Y795936D01*
X60420Y796399D01*
X60644Y796857D01*
X60879Y797309D01*
X61126Y797755D01*
X61382Y798195D01*
X61650Y798629D01*
X61928Y799056D01*
X62216Y799476D01*
X62515Y799890D01*
X62823Y800295D01*
X63141Y800694D01*
X63469Y801084D01*
X63806Y801466D01*
X64152Y801840D01*
X64507Y802206D01*
X64871Y802562D01*
X65244Y802910D01*
X65625Y803249D01*
X66014Y803578D01*
X66411Y803898D01*
X66815Y804208D01*
X67227Y804508D01*
X67646Y804798D01*
X68072Y805078D01*
X68505Y805347D01*
X68944Y805606D01*
X69389Y805854D01*
X69502Y805642D01*
X69062Y805397D01*
X68628Y805141D01*
X68200Y804875D01*
X67779Y804598D01*
X67365Y804311D01*
X66958Y804015D01*
X66558Y803708D01*
X66166Y803392D01*
X65781Y803067D01*
X65405Y802732D01*
X65037Y802388D01*
X64677Y802036D01*
X64326Y801675D01*
X63983Y801305D01*
X63650Y800927D01*
X63326Y800541D01*
X63012Y800148D01*
X62707Y799746D01*
X62412Y799338D01*
X62127Y798923D01*
X61853Y798500D01*
X61588Y798072D01*
X61334Y797637D01*
X61091Y797195D01*
X60859Y796749D01*
X60637Y796296D01*
X60426Y795838D01*
X60227Y795376D01*
X60039Y794909D01*
X59862Y794437D01*
X59697Y793961D01*
X59544Y793481D01*
X59402Y792998D01*
X59272Y792511D01*
X59154Y792021D01*
X59047Y791529D01*
X58953Y791034D01*
X58871Y790537D01*
X58801Y790038D01*
X58743Y789538D01*
X58697Y789036D01*
X58663Y788534D01*
X58642Y788030D01*
X58632Y787527D01*
X58872Y787527D01*
X58882Y788024D01*
X58903Y788522D01*
X58936Y789019D01*
X58981Y789514D01*
X59039Y790009D01*
X59108Y790502D01*
X59189Y790993D01*
X59283Y791482D01*
X59388Y791969D01*
X59505Y792453D01*
X59633Y792934D01*
X59773Y793411D01*
X59925Y793886D01*
X60088Y794356D01*
X60263Y794822D01*
X60449Y795284D01*
X60646Y795741D01*
X60854Y796193D01*
X61073Y796641D01*
X61303Y797082D01*
X61543Y797518D01*
X61794Y797948D01*
X62055Y798372D01*
X62327Y798789D01*
X62609Y799200D01*
X62900Y799603D01*
X63201Y800000D01*
X63512Y800389D01*
X63832Y800770D01*
X64161Y801144D01*
X64499Y801509D01*
X64846Y801866D01*
X65202Y802214D01*
X65566Y802554D01*
X65938Y802885D01*
X66318Y803207D01*
X66706Y803519D01*
X67101Y803822D01*
X67503Y804115D01*
X67912Y804398D01*
X68329Y804672D01*
X68751Y804935D01*
X69180Y805188D01*
X69615Y805430D01*
X69728Y805218D01*
X69298Y804979D01*
X68874Y804729D01*
X68457Y804469D01*
X68046Y804199D01*
X67641Y803919D01*
X67243Y803629D01*
X66853Y803330D01*
X66470Y803021D01*
X66095Y802703D01*
X65727Y802376D01*
X65367Y802041D01*
X65016Y801696D01*
X64673Y801343D01*
X64339Y800982D01*
X64014Y800613D01*
X63697Y800236D01*
X63390Y799852D01*
X63093Y799460D01*
X62805Y799061D01*
X62526Y798656D01*
X62258Y798243D01*
X62000Y797825D01*
X61752Y797400D01*
X61514Y796969D01*
X61287Y796533D01*
X61071Y796091D01*
X60865Y795644D01*
X60671Y795192D01*
X60487Y794736D01*
X60314Y794275D01*
X60153Y793810D01*
X60003Y793342D01*
X59864Y792870D01*
X59737Y792394D01*
X59622Y791916D01*
X59518Y791435D01*
X59426Y790952D01*
X59346Y790467D01*
X59277Y789979D01*
X59220Y789491D01*
X59175Y789001D01*
X59142Y788510D01*
X59121Y788018D01*
X59112Y787527D01*
X59352Y787527D01*
X59361Y788013D01*
X59382Y788498D01*
X59415Y788983D01*
X59459Y789467D01*
X59515Y789950D01*
X59583Y790431D01*
X59662Y790911D01*
X59753Y791388D01*
X59856Y791863D01*
X59970Y792336D01*
X60096Y792806D01*
X60233Y793272D01*
X60381Y793735D01*
X60540Y794194D01*
X60711Y794649D01*
X60892Y795100D01*
X61085Y795546D01*
X61288Y795988D01*
X61502Y796425D01*
X61726Y796856D01*
X61961Y797281D01*
X62206Y797701D01*
X62461Y798115D01*
X62726Y798522D01*
X63001Y798923D01*
X63285Y799317D01*
X63579Y799704D01*
X63883Y800084D01*
X64195Y800456D01*
X64517Y800821D01*
X64847Y801178D01*
X65186Y801526D01*
X65533Y801867D01*
X65888Y802198D01*
X66251Y802521D01*
X66622Y802835D01*
X67001Y803140D01*
X67386Y803436D01*
X67779Y803722D01*
X68179Y803999D01*
X68585Y804266D01*
X68998Y804523D01*
X69416Y804770D01*
X69841Y805006D01*
X69954Y804795D01*
X69534Y804561D01*
X69121Y804317D01*
X68713Y804063D01*
X68312Y803799D01*
X67917Y803526D01*
X67529Y803243D01*
X67148Y802951D01*
X66774Y802650D01*
X66408Y802339D01*
X66049Y802020D01*
X65698Y801693D01*
X65355Y801356D01*
X65021Y801012D01*
X64694Y800660D01*
X64377Y800300D01*
X64068Y799932D01*
X63769Y799557D01*
X63478Y799174D01*
X63197Y798785D01*
X62925Y798389D01*
X62664Y797986D01*
X62411Y797578D01*
X62169Y797163D01*
X61938Y796743D01*
X61716Y796317D01*
X61505Y795885D01*
X61304Y795449D01*
X61114Y795008D01*
X60935Y794563D01*
X60766Y794113D01*
X60609Y793659D01*
X60462Y793202D01*
X60327Y792741D01*
X60203Y792278D01*
X60090Y791811D01*
X59989Y791341D01*
X59899Y790870D01*
X59820Y790396D01*
X59753Y789921D01*
X59698Y789444D01*
X59654Y788965D01*
X59622Y788486D01*
X59601Y788007D01*
X59592Y787527D01*
X59832Y787527D01*
X59841Y788001D01*
X59862Y788475D01*
X59893Y788948D01*
X59937Y789420D01*
X59992Y789891D01*
X60058Y790361D01*
X60135Y790829D01*
X60224Y791295D01*
X60324Y791758D01*
X60436Y792219D01*
X60558Y792677D01*
X60692Y793132D01*
X60837Y793584D01*
X60992Y794032D01*
X61158Y794476D01*
X61336Y794916D01*
X61523Y795352D01*
X61722Y795783D01*
X61930Y796209D01*
X62149Y796629D01*
X62378Y797045D01*
X62617Y797454D01*
X62866Y797858D01*
X63125Y798255D01*
X63393Y798647D01*
X63671Y799031D01*
X63958Y799409D01*
X64254Y799779D01*
X64558Y800143D01*
X64872Y800498D01*
X65194Y800846D01*
X65525Y801187D01*
X65863Y801519D01*
X66210Y801842D01*
X66564Y802158D01*
X66926Y802464D01*
X67296Y802762D01*
X67672Y803050D01*
X68055Y803330D01*
X68445Y803600D01*
X68841Y803860D01*
X69244Y804111D01*
X69653Y804352D01*
X70067Y804583D01*
X70180Y804371D01*
X69771Y804143D01*
X69367Y803905D01*
X68970Y803657D01*
X68578Y803400D01*
X68193Y803133D01*
X67815Y802858D01*
X67443Y802572D01*
X67078Y802279D01*
X66721Y801976D01*
X66371Y801664D01*
X66029Y801345D01*
X65694Y801017D01*
X65368Y800681D01*
X65050Y800337D01*
X64740Y799986D01*
X64439Y799627D01*
X64147Y799261D01*
X63863Y798888D01*
X63589Y798508D01*
X63324Y798122D01*
X63069Y797729D01*
X62823Y797331D01*
X62587Y796926D01*
X62361Y796516D01*
X62145Y796101D01*
X61938Y795680D01*
X61743Y795254D01*
X61557Y794824D01*
X61382Y794390D01*
X61218Y793951D01*
X61064Y793509D01*
X60922Y793063D01*
X60790Y792613D01*
X60669Y792161D01*
X60559Y791706D01*
X60460Y791248D01*
X60372Y790788D01*
X60295Y790326D01*
X60230Y789862D01*
X60176Y789397D01*
X60133Y788930D01*
X60101Y788463D01*
X60081Y787995D01*
X60072Y787527D01*
X93336Y771099D02*
X91859Y772844D01*
X91859Y772843D02*
X92211Y773153D01*
X92556Y773471D01*
X92892Y773797D01*
X93220Y774131D01*
X93540Y774473D01*
X93852Y774823D01*
X94155Y775181D01*
X94449Y775546D01*
X94734Y775917D01*
X95010Y776296D01*
X95277Y776682D01*
X95534Y777073D01*
X95782Y777471D01*
X96019Y777875D01*
X96247Y778285D01*
X96465Y778700D01*
X96672Y779120D01*
X96869Y779545D01*
X97056Y779975D01*
X97232Y780409D01*
X97398Y780847D01*
X97552Y781290D01*
X97696Y781736D01*
X97829Y782185D01*
X97951Y782637D01*
X98062Y783093D01*
X98162Y783551D01*
X98250Y784011D01*
X98327Y784473D01*
X98393Y784937D01*
X98448Y785402D01*
X98491Y785869D01*
X98522Y786337D01*
X98543Y786805D01*
X98552Y787273D01*
X100837Y787274D01*
X100838Y787273D01*
X100828Y786748D01*
X100806Y786223D01*
X100770Y785699D01*
X100722Y785176D01*
X100662Y784654D01*
X100588Y784134D01*
X100502Y783616D01*
X100403Y783100D01*
X100291Y782587D01*
X100167Y782076D01*
X100031Y781569D01*
X99882Y781065D01*
X99721Y780565D01*
X99547Y780069D01*
X99362Y779578D01*
X99164Y779091D01*
X98955Y778609D01*
X98734Y778132D01*
X98501Y777661D01*
X98257Y777196D01*
X98002Y776737D01*
X97735Y776284D01*
X97458Y775838D01*
X97169Y775399D01*
X96870Y774967D01*
X96561Y774543D01*
X96241Y774126D01*
X95911Y773717D01*
X95571Y773317D01*
X95222Y772924D01*
X94863Y772541D01*
X94494Y772166D01*
X94117Y771801D01*
X93731Y771445D01*
X93336Y771098D01*
X93181Y771281D01*
X93571Y771624D01*
X93953Y771976D01*
X94326Y772338D01*
X94690Y772708D01*
X95045Y773087D01*
X95391Y773475D01*
X95727Y773871D01*
X96053Y774275D01*
X96369Y774687D01*
X96675Y775107D01*
X96971Y775534D01*
X97256Y775968D01*
X97530Y776409D01*
X97794Y776857D01*
X98046Y777310D01*
X98288Y777770D01*
X98518Y778236D01*
X98736Y778707D01*
X98943Y779184D01*
X99138Y779665D01*
X99322Y780151D01*
X99493Y780641D01*
X99652Y781135D01*
X99800Y781633D01*
X99935Y782135D01*
X100057Y782640D01*
X100168Y783147D01*
X100265Y783657D01*
X100351Y784170D01*
X100423Y784684D01*
X100484Y785200D01*
X100531Y785717D01*
X100566Y786235D01*
X100588Y786754D01*
X100598Y787273D01*
X100358Y787273D01*
X100348Y786760D01*
X100326Y786247D01*
X100292Y785735D01*
X100245Y785224D01*
X100185Y784714D01*
X100113Y784205D01*
X100029Y783699D01*
X99932Y783195D01*
X99823Y782693D01*
X99702Y782194D01*
X99568Y781698D01*
X99423Y781206D01*
X99265Y780717D01*
X99096Y780233D01*
X98915Y779752D01*
X98722Y779276D01*
X98517Y778805D01*
X98301Y778340D01*
X98074Y777879D01*
X97835Y777425D01*
X97586Y776976D01*
X97325Y776534D01*
X97054Y776098D01*
X96772Y775668D01*
X96480Y775246D01*
X96177Y774831D01*
X95865Y774424D01*
X95542Y774025D01*
X95210Y773633D01*
X94869Y773250D01*
X94518Y772875D01*
X94158Y772509D01*
X93789Y772151D01*
X93412Y771803D01*
X93026Y771465D01*
X92871Y771648D01*
X93252Y771983D01*
X93625Y772327D01*
X93990Y772680D01*
X94345Y773042D01*
X94692Y773412D01*
X95030Y773791D01*
X95358Y774178D01*
X95677Y774573D01*
X95986Y774976D01*
X96285Y775386D01*
X96573Y775803D01*
X96852Y776227D01*
X97120Y776658D01*
X97377Y777095D01*
X97624Y777539D01*
X97860Y777988D01*
X98085Y778443D01*
X98298Y778904D01*
X98500Y779369D01*
X98691Y779839D01*
X98870Y780314D01*
X99038Y780793D01*
X99193Y781276D01*
X99337Y781763D01*
X99469Y782253D01*
X99589Y782746D01*
X99697Y783242D01*
X99793Y783740D01*
X99876Y784241D01*
X99947Y784743D01*
X100006Y785247D01*
X100052Y785753D01*
X100087Y786259D01*
X100108Y786766D01*
X100118Y787273D01*
X99878Y787273D01*
X99868Y786772D01*
X99847Y786271D01*
X99813Y785771D01*
X99767Y785271D01*
X99709Y784773D01*
X99639Y784276D01*
X99556Y783782D01*
X99462Y783289D01*
X99355Y782799D01*
X99237Y782312D01*
X99106Y781828D01*
X98964Y781347D01*
X98810Y780869D01*
X98645Y780396D01*
X98467Y779927D01*
X98279Y779462D01*
X98079Y779002D01*
X97868Y778547D01*
X97646Y778097D01*
X97413Y777653D01*
X97169Y777215D01*
X96915Y776783D01*
X96650Y776357D01*
X96375Y775938D01*
X96089Y775525D01*
X95794Y775120D01*
X95489Y774722D01*
X95174Y774332D01*
X94849Y773949D01*
X94516Y773575D01*
X94173Y773209D01*
X93821Y772851D01*
X93461Y772502D01*
X93093Y772162D01*
X92716Y771831D01*
X92561Y772014D01*
X92933Y772341D01*
X93297Y772677D01*
X93653Y773022D01*
X94001Y773376D01*
X94339Y773738D01*
X94669Y774108D01*
X94989Y774486D01*
X95300Y774871D01*
X95602Y775264D01*
X95894Y775665D01*
X96176Y776072D01*
X96448Y776487D01*
X96710Y776907D01*
X96961Y777334D01*
X97202Y777768D01*
X97432Y778206D01*
X97652Y778651D01*
X97860Y779100D01*
X98058Y779555D01*
X98244Y780014D01*
X98419Y780478D01*
X98582Y780945D01*
X98735Y781417D01*
X98875Y781892D01*
X99004Y782371D01*
X99121Y782852D01*
X99226Y783337D01*
X99320Y783823D01*
X99401Y784312D01*
X99471Y784803D01*
X99528Y785295D01*
X99574Y785788D01*
X99607Y786283D01*
X99628Y786778D01*
X99638Y787273D01*
X99398Y787273D01*
X99389Y786784D01*
X99367Y786295D01*
X99334Y785806D01*
X99290Y785319D01*
X99233Y784832D01*
X99164Y784348D01*
X99083Y783865D01*
X98991Y783384D01*
X98887Y782905D01*
X98771Y782430D01*
X98644Y781957D01*
X98505Y781487D01*
X98355Y781021D01*
X98193Y780559D01*
X98020Y780101D01*
X97836Y779648D01*
X97641Y779199D01*
X97435Y778754D01*
X97218Y778315D01*
X96991Y777882D01*
X96753Y777454D01*
X96505Y777032D01*
X96246Y776616D01*
X95977Y776207D01*
X95699Y775804D01*
X95410Y775409D01*
X95112Y775020D01*
X94805Y774639D01*
X94488Y774266D01*
X94163Y773900D01*
X93828Y773543D01*
X93485Y773193D01*
X93133Y772853D01*
X92774Y772521D01*
X92406Y772197D01*
X92251Y772381D01*
X92614Y772700D01*
X92970Y773028D01*
X93317Y773365D01*
X93656Y773710D01*
X93986Y774063D01*
X94308Y774424D01*
X94621Y774793D01*
X94924Y775169D01*
X95219Y775553D01*
X95503Y775944D01*
X95779Y776342D01*
X96044Y776746D01*
X96300Y777157D01*
X96545Y777573D01*
X96780Y777996D01*
X97005Y778424D01*
X97219Y778858D01*
X97422Y779297D01*
X97615Y779740D01*
X97797Y780189D01*
X97968Y780641D01*
X98127Y781098D01*
X98276Y781558D01*
X98413Y782022D01*
X98539Y782489D01*
X98653Y782959D01*
X98756Y783431D01*
X98847Y783906D01*
X98927Y784383D01*
X98995Y784862D01*
X99051Y785342D01*
X99095Y785824D01*
X99128Y786307D01*
X99149Y786790D01*
X99158Y787273D01*
X98918Y787273D01*
X98909Y786796D01*
X98888Y786319D01*
X98856Y785842D01*
X98812Y785366D01*
X98756Y784892D01*
X98689Y784419D01*
X98611Y783948D01*
X98521Y783479D01*
X98419Y783012D01*
X98306Y782548D01*
X98182Y782086D01*
X98046Y781628D01*
X97900Y781174D01*
X97742Y780723D01*
X97573Y780276D01*
X97394Y779833D01*
X97203Y779395D01*
X97002Y778962D01*
X96791Y778533D01*
X96569Y778110D01*
X96337Y777693D01*
X96094Y777281D01*
X95842Y776876D01*
X95580Y776476D01*
X95308Y776083D01*
X95027Y775697D01*
X94736Y775318D01*
X94436Y774947D01*
X94127Y774582D01*
X93810Y774225D01*
X93483Y773877D01*
X93149Y773536D01*
X92806Y773203D01*
X92455Y772879D01*
X92096Y772564D01*
X91941Y772747D01*
X92295Y773059D01*
X92642Y773379D01*
X92980Y773707D01*
X93311Y774043D01*
X93633Y774388D01*
X93947Y774740D01*
X94252Y775100D01*
X94548Y775467D01*
X94835Y775842D01*
X95113Y776223D01*
X95381Y776611D01*
X95640Y777005D01*
X95889Y777406D01*
X96129Y777812D01*
X96358Y778225D01*
X96577Y778642D01*
X96786Y779065D01*
X96984Y779493D01*
X97172Y779926D01*
X97350Y780363D01*
X97516Y780804D01*
X97672Y781250D01*
X97817Y781699D01*
X97951Y782151D01*
X98073Y782607D01*
X98185Y783065D01*
X98285Y783526D01*
X98374Y783989D01*
X98452Y784454D01*
X98518Y784921D01*
X98573Y785390D01*
X98616Y785860D01*
X98648Y786330D01*
X98669Y786802D01*
X98678Y787273D01*
X100837Y787527D02*
X98551Y787527D01*
X98552Y787527D02*
X98543Y787990D01*
X98523Y788453D01*
X98492Y788915D01*
X98450Y789376D01*
X98397Y789836D01*
X98332Y790295D01*
X98257Y790752D01*
X98171Y791207D01*
X98073Y791660D01*
X97965Y792110D01*
X97846Y792557D01*
X97716Y793002D01*
X97575Y793443D01*
X97424Y793881D01*
X97262Y794315D01*
X97090Y794745D01*
X96908Y795170D01*
X96715Y795591D01*
X96512Y796008D01*
X96299Y796419D01*
X96077Y796825D01*
X95844Y797226D01*
X95602Y797620D01*
X95351Y798009D01*
X95090Y798392D01*
X94820Y798768D01*
X94541Y799138D01*
X94253Y799501D01*
X93957Y799856D01*
X93652Y800205D01*
X93338Y800546D01*
X93017Y800879D01*
X92687Y801205D01*
X92350Y801522D01*
X92005Y801831D01*
X91653Y802132D01*
X91294Y802424D01*
X90928Y802708D01*
X90555Y802982D01*
X90175Y803247D01*
X89790Y803504D01*
X89398Y803750D01*
X89000Y803988D01*
X90134Y805972D01*
X90580Y805707D01*
X91019Y805431D01*
X91452Y805144D01*
X91877Y804847D01*
X92296Y804539D01*
X92706Y804222D01*
X93109Y803895D01*
X93504Y803558D01*
X93890Y803211D01*
X94268Y802856D01*
X94638Y802491D01*
X94998Y802118D01*
X95349Y801736D01*
X95691Y801345D01*
X96024Y800946D01*
X96346Y800540D01*
X96659Y800126D01*
X96962Y799704D01*
X97254Y799275D01*
X97536Y798839D01*
X97807Y798397D01*
X98068Y797948D01*
X98317Y797493D01*
X98556Y797032D01*
X98783Y796565D01*
X98999Y796094D01*
X99203Y795617D01*
X99396Y795135D01*
X99577Y794648D01*
X99747Y794158D01*
X99904Y793663D01*
X100050Y793165D01*
X100183Y792663D01*
X100304Y792159D01*
X100413Y791651D01*
X100510Y791141D01*
X100594Y790629D01*
X100666Y790115D01*
X100725Y789600D01*
X100772Y789083D01*
X100806Y788565D01*
X100828Y788046D01*
X100838Y787527D01*
X100598Y787527D01*
X100588Y788040D01*
X100567Y788553D01*
X100533Y789065D01*
X100486Y789576D01*
X100427Y790086D01*
X100356Y790594D01*
X100273Y791100D01*
X100178Y791605D01*
X100070Y792106D01*
X99950Y792605D01*
X99818Y793101D01*
X99674Y793594D01*
X99519Y794083D01*
X99351Y794568D01*
X99172Y795049D01*
X98982Y795525D01*
X98779Y795997D01*
X98566Y796463D01*
X98341Y796925D01*
X98105Y797380D01*
X97859Y797830D01*
X97601Y798274D01*
X97333Y798711D01*
X97054Y799142D01*
X96765Y799566D01*
X96466Y799983D01*
X96157Y800393D01*
X95838Y800795D01*
X95509Y801189D01*
X95171Y801575D01*
X94824Y801953D01*
X94468Y802322D01*
X94102Y802682D01*
X93729Y803034D01*
X93347Y803376D01*
X92956Y803709D01*
X92558Y804033D01*
X92152Y804347D01*
X91739Y804651D01*
X91318Y804945D01*
X90890Y805228D01*
X90456Y805502D01*
X90015Y805764D01*
X89896Y805556D01*
X90332Y805296D01*
X90761Y805026D01*
X91184Y804746D01*
X91600Y804455D01*
X92008Y804155D01*
X92410Y803844D01*
X92803Y803524D01*
X93189Y803195D01*
X93567Y802857D01*
X93936Y802509D01*
X94297Y802153D01*
X94650Y801788D01*
X94993Y801414D01*
X95327Y801032D01*
X95652Y800643D01*
X95967Y800246D01*
X96273Y799841D01*
X96569Y799429D01*
X96854Y799009D01*
X97130Y798584D01*
X97395Y798151D01*
X97650Y797712D01*
X97894Y797268D01*
X98127Y796817D01*
X98349Y796361D01*
X98560Y795900D01*
X98760Y795433D01*
X98948Y794963D01*
X99125Y794487D01*
X99291Y794008D01*
X99445Y793524D01*
X99587Y793037D01*
X99717Y792547D01*
X99836Y792054D01*
X99942Y791558D01*
X100037Y791060D01*
X100119Y790559D01*
X100189Y790057D01*
X100247Y789553D01*
X100293Y789048D01*
X100327Y788541D01*
X100348Y788035D01*
X100358Y787527D01*
X100118Y787527D01*
X100108Y788029D01*
X100087Y788530D01*
X100054Y789030D01*
X100009Y789529D01*
X99951Y790027D01*
X99882Y790524D01*
X99800Y791019D01*
X99707Y791511D01*
X99601Y792001D01*
X99484Y792489D01*
X99355Y792974D01*
X99215Y793455D01*
X99063Y793933D01*
X98899Y794407D01*
X98724Y794876D01*
X98538Y795342D01*
X98340Y795803D01*
X98132Y796259D01*
X97912Y796709D01*
X97682Y797155D01*
X97441Y797594D01*
X97189Y798028D01*
X96927Y798456D01*
X96655Y798877D01*
X96372Y799291D01*
X96080Y799698D01*
X95778Y800098D01*
X95466Y800491D01*
X95145Y800876D01*
X94815Y801253D01*
X94475Y801623D01*
X94127Y801983D01*
X93770Y802336D01*
X93405Y802679D01*
X93032Y803014D01*
X92651Y803339D01*
X92261Y803656D01*
X91865Y803962D01*
X91461Y804259D01*
X91050Y804547D01*
X90632Y804824D01*
X90208Y805091D01*
X89777Y805347D01*
X89658Y805139D01*
X90084Y804885D01*
X90503Y804621D01*
X90916Y804347D01*
X91322Y804064D01*
X91721Y803770D01*
X92113Y803467D01*
X92498Y803154D01*
X92875Y802833D01*
X93244Y802502D01*
X93604Y802162D01*
X93957Y801814D01*
X94301Y801457D01*
X94636Y801093D01*
X94963Y800720D01*
X95280Y800339D01*
X95588Y799951D01*
X95887Y799556D01*
X96176Y799153D01*
X96455Y798744D01*
X96724Y798328D01*
X96983Y797905D01*
X97232Y797476D01*
X97470Y797042D01*
X97698Y796602D01*
X97915Y796156D01*
X98121Y795706D01*
X98316Y795250D01*
X98500Y794790D01*
X98673Y794326D01*
X98835Y793858D01*
X98985Y793385D01*
X99124Y792910D01*
X99251Y792431D01*
X99367Y791949D01*
X99471Y791465D01*
X99564Y790978D01*
X99644Y790489D01*
X99713Y789998D01*
X99770Y789506D01*
X99815Y789012D01*
X99848Y788518D01*
X99869Y788023D01*
X99878Y787527D01*
X99638Y787527D01*
X99629Y788017D01*
X99608Y788506D01*
X99575Y788995D01*
X99531Y789482D01*
X99475Y789969D01*
X99407Y790454D01*
X99327Y790937D01*
X99236Y791418D01*
X99133Y791897D01*
X99019Y792373D01*
X98893Y792846D01*
X98755Y793316D01*
X98607Y793783D01*
X98447Y794245D01*
X98276Y794704D01*
X98094Y795159D01*
X97901Y795609D01*
X97697Y796054D01*
X97483Y796494D01*
X97258Y796929D01*
X97023Y797359D01*
X96777Y797782D01*
X96521Y798200D01*
X96255Y798611D01*
X95979Y799015D01*
X95694Y799413D01*
X95399Y799804D01*
X95094Y800187D01*
X94781Y800564D01*
X94458Y800932D01*
X94127Y801292D01*
X93787Y801645D01*
X93438Y801989D01*
X93082Y802325D01*
X92717Y802651D01*
X92345Y802969D01*
X91965Y803278D01*
X91578Y803578D01*
X91183Y803868D01*
X90782Y804148D01*
X90374Y804419D01*
X89959Y804680D01*
X89539Y804931D01*
X89420Y804722D01*
X89835Y804474D01*
X90245Y804217D01*
X90648Y803949D01*
X91044Y803672D01*
X91434Y803385D01*
X91817Y803089D01*
X92192Y802784D01*
X92560Y802470D01*
X92920Y802147D01*
X93272Y801816D01*
X93617Y801476D01*
X93953Y801127D01*
X94280Y800771D01*
X94599Y800407D01*
X94908Y800036D01*
X95209Y799657D01*
X95501Y799271D01*
X95783Y798878D01*
X96055Y798478D01*
X96318Y798072D01*
X96571Y797659D01*
X96814Y797241D01*
X97046Y796816D01*
X97268Y796387D01*
X97480Y795952D01*
X97682Y795512D01*
X97872Y795067D01*
X98052Y794618D01*
X98221Y794165D01*
X98379Y793708D01*
X98526Y793247D01*
X98661Y792782D01*
X98786Y792315D01*
X98899Y791844D01*
X99000Y791371D01*
X99091Y790896D01*
X99169Y790419D01*
X99236Y789940D01*
X99292Y789459D01*
X99336Y788977D01*
X99368Y788494D01*
X99389Y788011D01*
X99398Y787527D01*
X99158Y787527D01*
X99149Y788005D01*
X99128Y788483D01*
X99097Y788960D01*
X99053Y789436D01*
X98998Y789910D01*
X98932Y790384D01*
X98854Y790855D01*
X98765Y791325D01*
X98665Y791792D01*
X98553Y792257D01*
X98430Y792718D01*
X98296Y793177D01*
X98151Y793633D01*
X97995Y794084D01*
X97828Y794532D01*
X97650Y794976D01*
X97462Y795415D01*
X97263Y795850D01*
X97054Y796279D01*
X96834Y796704D01*
X96604Y797123D01*
X96365Y797536D01*
X96115Y797944D01*
X95855Y798345D01*
X95586Y798740D01*
X95307Y799128D01*
X95020Y799509D01*
X94722Y799884D01*
X94416Y800251D01*
X94102Y800611D01*
X93778Y800962D01*
X93446Y801306D01*
X93106Y801642D01*
X92758Y801970D01*
X92403Y802289D01*
X92039Y802599D01*
X91668Y802901D01*
X91290Y803193D01*
X90905Y803476D01*
X90514Y803750D01*
X90116Y804014D01*
X89711Y804269D01*
X89301Y804514D01*
X89182Y804305D01*
X89587Y804064D01*
X89986Y803812D01*
X90380Y803551D01*
X90767Y803281D01*
X91147Y803001D01*
X91520Y802712D01*
X91886Y802414D01*
X92245Y802108D01*
X92597Y801792D01*
X92940Y801469D01*
X93276Y801137D01*
X93604Y800797D01*
X93923Y800450D01*
X94234Y800095D01*
X94537Y799732D01*
X94830Y799362D01*
X95114Y798986D01*
X95390Y798602D01*
X95655Y798212D01*
X95912Y797816D01*
X96159Y797413D01*
X96395Y797005D01*
X96622Y796591D01*
X96839Y796172D01*
X97046Y795747D01*
X97243Y795318D01*
X97429Y794884D01*
X97604Y794446D01*
X97769Y794004D01*
X97923Y793558D01*
X98066Y793108D01*
X98199Y792655D01*
X98320Y792198D01*
X98430Y791740D01*
X98530Y791278D01*
X98618Y790814D01*
X98694Y790349D01*
X98760Y789881D01*
X98814Y789412D01*
X98857Y788942D01*
X98889Y788471D01*
X98909Y787999D01*
X98918Y787527D01*
X98678Y787527D01*
X98669Y787994D01*
X98649Y788459D01*
X98618Y788924D01*
X98575Y789389D01*
X98522Y789852D01*
X98457Y790313D01*
X98381Y790773D01*
X98294Y791231D01*
X98196Y791687D01*
X98087Y792140D01*
X97967Y792591D01*
X97836Y793038D01*
X97695Y793483D01*
X97543Y793923D01*
X97380Y794360D01*
X97207Y794793D01*
X97023Y795221D01*
X96829Y795645D01*
X96625Y796064D01*
X96411Y796478D01*
X96186Y796887D01*
X95952Y797290D01*
X95709Y797688D01*
X95456Y798079D01*
X95193Y798464D01*
X94921Y798843D01*
X94640Y799215D01*
X94351Y799580D01*
X94052Y799938D01*
X93745Y800289D01*
X93430Y800632D01*
X93106Y800968D01*
X92774Y801296D01*
X92435Y801615D01*
X92088Y801926D01*
X91734Y802229D01*
X91372Y802523D01*
X91003Y802809D01*
X90628Y803085D01*
X90246Y803352D01*
X89857Y803610D01*
X89463Y803858D01*
X89062Y804097D01*
D11*
X71501Y771652D02*
X66421Y771652D01*
X87757Y771652D02*
X92329Y771652D01*
D10*
X13463Y787274D02*
X15749Y787274D01*
X15748Y787273D02*
X15757Y786814D01*
X15777Y786354D01*
X15807Y785896D01*
X15849Y785438D01*
X15901Y784982D01*
X15965Y784526D01*
X16039Y784073D01*
X16124Y783621D01*
X16220Y783172D01*
X16327Y782725D01*
X16444Y782280D01*
X16572Y781839D01*
X16711Y781401D01*
X16860Y780966D01*
X17019Y780535D01*
X17189Y780108D01*
X17368Y779685D01*
X17558Y779266D01*
X17758Y778852D01*
X17968Y778444D01*
X18188Y778040D01*
X18417Y777641D01*
X18655Y777249D01*
X18903Y776862D01*
X19160Y776481D01*
X19427Y776106D01*
X19702Y775738D01*
X19985Y775376D01*
X20278Y775022D01*
X20579Y774674D01*
X20888Y774334D01*
X21205Y774002D01*
X21530Y773677D01*
X21863Y773360D01*
X22203Y773051D01*
X22550Y772750D01*
X21087Y770994D01*
X20697Y771331D01*
X20315Y771677D01*
X19942Y772032D01*
X19578Y772396D01*
X19222Y772769D01*
X18875Y773150D01*
X18538Y773539D01*
X18210Y773936D01*
X17892Y774342D01*
X17583Y774754D01*
X17284Y775174D01*
X16996Y775601D01*
X16718Y776035D01*
X16450Y776475D01*
X16194Y776922D01*
X15947Y777374D01*
X15712Y777833D01*
X15488Y778297D01*
X15275Y778766D01*
X15074Y779240D01*
X14884Y779719D01*
X14705Y780202D01*
X14538Y780690D01*
X14383Y781181D01*
X14239Y781676D01*
X14108Y782174D01*
X13989Y782675D01*
X13881Y783179D01*
X13786Y783685D01*
X13703Y784194D01*
X13632Y784704D01*
X13573Y785216D01*
X13527Y785729D01*
X13493Y786243D01*
X13472Y786758D01*
X13462Y787273D01*
X13702Y787273D01*
X13712Y786764D01*
X13733Y786255D01*
X13767Y785747D01*
X13812Y785239D01*
X13870Y784733D01*
X13940Y784229D01*
X14022Y783726D01*
X14117Y783225D01*
X14223Y782727D01*
X14341Y782232D01*
X14471Y781739D01*
X14613Y781250D01*
X14766Y780764D01*
X14931Y780282D01*
X15108Y779805D01*
X15296Y779331D01*
X15495Y778862D01*
X15706Y778398D01*
X15927Y777940D01*
X16160Y777487D01*
X16403Y777039D01*
X16657Y776598D01*
X16921Y776162D01*
X17196Y775733D01*
X17481Y775311D01*
X17777Y774896D01*
X18082Y774488D01*
X18396Y774088D01*
X18721Y773695D01*
X19054Y773310D01*
X19397Y772933D01*
X19749Y772565D01*
X20109Y772205D01*
X20478Y771853D01*
X20855Y771511D01*
X21241Y771178D01*
X21394Y771362D01*
X21013Y771692D01*
X20640Y772030D01*
X20276Y772377D01*
X19919Y772733D01*
X19572Y773097D01*
X19233Y773470D01*
X18903Y773850D01*
X18583Y774239D01*
X18272Y774635D01*
X17970Y775038D01*
X17678Y775448D01*
X17397Y775866D01*
X17125Y776290D01*
X16863Y776720D01*
X16612Y777156D01*
X16372Y777599D01*
X16142Y778047D01*
X15923Y778500D01*
X15715Y778959D01*
X15518Y779422D01*
X15332Y779890D01*
X15157Y780363D01*
X14994Y780839D01*
X14842Y781319D01*
X14702Y781803D01*
X14574Y782290D01*
X14457Y782779D01*
X14352Y783272D01*
X14259Y783767D01*
X14178Y784264D01*
X14108Y784762D01*
X14051Y785263D01*
X14006Y785764D01*
X13973Y786267D01*
X13951Y786770D01*
X13942Y787273D01*
X14182Y787273D01*
X14191Y786776D01*
X14212Y786278D01*
X14245Y785782D01*
X14290Y785286D01*
X14347Y784791D01*
X14415Y784299D01*
X14495Y783807D01*
X14588Y783318D01*
X14691Y782831D01*
X14807Y782347D01*
X14934Y781866D01*
X15072Y781388D01*
X15222Y780914D01*
X15384Y780443D01*
X15556Y779976D01*
X15740Y779513D01*
X15935Y779055D01*
X16140Y778602D01*
X16357Y778154D01*
X16584Y777711D01*
X16822Y777274D01*
X17070Y776842D01*
X17328Y776417D01*
X17597Y775998D01*
X17875Y775586D01*
X18164Y775180D01*
X18462Y774781D01*
X18769Y774390D01*
X19086Y774006D01*
X19412Y773630D01*
X19747Y773262D01*
X20090Y772902D01*
X20442Y772550D01*
X20803Y772207D01*
X21171Y771872D01*
X21548Y771547D01*
X21702Y771731D01*
X21329Y772053D01*
X20965Y772383D01*
X20609Y772723D01*
X20261Y773070D01*
X19922Y773426D01*
X19591Y773790D01*
X19269Y774162D01*
X18956Y774541D01*
X18652Y774928D01*
X18357Y775322D01*
X18072Y775723D01*
X17797Y776130D01*
X17532Y776545D01*
X17276Y776965D01*
X17031Y777391D01*
X16796Y777823D01*
X16571Y778261D01*
X16358Y778704D01*
X16154Y779152D01*
X15962Y779604D01*
X15780Y780062D01*
X15610Y780523D01*
X15450Y780988D01*
X15302Y781457D01*
X15165Y781930D01*
X15040Y782405D01*
X14926Y782884D01*
X14823Y783365D01*
X14732Y783848D01*
X14653Y784333D01*
X14585Y784821D01*
X14529Y785309D01*
X14485Y785799D01*
X14452Y786290D01*
X14431Y786781D01*
X14422Y787273D01*
X14662Y787273D01*
X14671Y786787D01*
X14692Y786302D01*
X14724Y785817D01*
X14768Y785333D01*
X14823Y784850D01*
X14890Y784368D01*
X14969Y783889D01*
X15058Y783411D01*
X15160Y782936D01*
X15273Y782463D01*
X15397Y781993D01*
X15532Y781526D01*
X15678Y781063D01*
X15836Y780603D01*
X16004Y780147D01*
X16184Y779696D01*
X16374Y779248D01*
X16575Y778806D01*
X16786Y778368D01*
X17008Y777936D01*
X17240Y777509D01*
X17483Y777087D01*
X17735Y776672D01*
X17997Y776263D01*
X18269Y775860D01*
X18551Y775464D01*
X18842Y775075D01*
X19142Y774692D01*
X19451Y774317D01*
X19770Y773950D01*
X20096Y773590D01*
X20432Y773239D01*
X20776Y772895D01*
X21128Y772560D01*
X21488Y772233D01*
X21855Y771916D01*
X22009Y772100D01*
X21646Y772414D01*
X21290Y772737D01*
X20942Y773068D01*
X20603Y773407D01*
X20271Y773755D01*
X19948Y774110D01*
X19634Y774473D01*
X19328Y774843D01*
X19032Y775221D01*
X18744Y775606D01*
X18466Y775997D01*
X18197Y776395D01*
X17938Y776799D01*
X17689Y777210D01*
X17450Y777626D01*
X17220Y778048D01*
X17001Y778475D01*
X16792Y778907D01*
X16594Y779345D01*
X16406Y779787D01*
X16229Y780233D01*
X16062Y780683D01*
X15907Y781138D01*
X15762Y781595D01*
X15628Y782057D01*
X15506Y782521D01*
X15394Y782988D01*
X15294Y783458D01*
X15205Y783929D01*
X15128Y784403D01*
X15061Y784879D01*
X15007Y785356D01*
X14963Y785834D01*
X14932Y786313D01*
X14911Y786793D01*
X14902Y787273D01*
X15142Y787273D01*
X15151Y786799D01*
X15171Y786325D01*
X15203Y785852D01*
X15245Y785379D01*
X15300Y784908D01*
X15365Y784438D01*
X15442Y783970D01*
X15529Y783504D01*
X15628Y783040D01*
X15738Y782579D01*
X15860Y782120D01*
X15992Y781664D01*
X16135Y781212D01*
X16288Y780763D01*
X16453Y780319D01*
X16628Y779878D01*
X16814Y779441D01*
X17010Y779009D01*
X17216Y778582D01*
X17432Y778160D01*
X17659Y777743D01*
X17895Y777332D01*
X18142Y776927D01*
X18398Y776527D01*
X18663Y776134D01*
X18938Y775748D01*
X19222Y775368D01*
X19515Y774995D01*
X19817Y774629D01*
X20127Y774270D01*
X20446Y773919D01*
X20774Y773576D01*
X21109Y773241D01*
X21453Y772913D01*
X21804Y772595D01*
X22162Y772284D01*
X22316Y772469D01*
X21962Y772775D01*
X21615Y773090D01*
X21276Y773413D01*
X20944Y773744D01*
X20621Y774084D01*
X20306Y774430D01*
X19999Y774784D01*
X19701Y775146D01*
X19412Y775514D01*
X19131Y775890D01*
X18860Y776271D01*
X18598Y776660D01*
X18345Y777054D01*
X18102Y777455D01*
X17868Y777861D01*
X17645Y778272D01*
X17431Y778689D01*
X17227Y779111D01*
X17033Y779538D01*
X16850Y779969D01*
X16677Y780404D01*
X16515Y780844D01*
X16363Y781287D01*
X16222Y781734D01*
X16091Y782184D01*
X15971Y782636D01*
X15863Y783092D01*
X15765Y783550D01*
X15678Y784011D01*
X15602Y784473D01*
X15538Y784937D01*
X15484Y785403D01*
X15442Y785869D01*
X15411Y786337D01*
X15391Y786805D01*
X15382Y787273D01*
X15622Y787273D01*
X15631Y786811D01*
X15651Y786348D01*
X15681Y785887D01*
X15723Y785426D01*
X15776Y784966D01*
X15840Y784508D01*
X15915Y784051D01*
X16000Y783597D01*
X16097Y783144D01*
X16204Y782694D01*
X16323Y782247D01*
X16451Y781803D01*
X16591Y781362D01*
X16741Y780924D01*
X16901Y780490D01*
X17072Y780060D01*
X17253Y779634D01*
X17444Y779213D01*
X17646Y778796D01*
X17857Y778385D01*
X18078Y777978D01*
X18308Y777577D01*
X18548Y777182D01*
X18798Y776792D01*
X19057Y776409D01*
X19325Y776031D01*
X19602Y775661D01*
X19888Y775297D01*
X20182Y774940D01*
X20485Y774590D01*
X20796Y774248D01*
X21115Y773913D01*
X21442Y773586D01*
X21777Y773267D01*
X22120Y772956D01*
X22470Y772653D01*
X24714Y806277D02*
X25790Y804259D01*
X25789Y804260D02*
X25383Y804033D01*
X24982Y803797D01*
X24587Y803551D01*
X24198Y803295D01*
X23816Y803030D01*
X23440Y802756D01*
X23070Y802473D01*
X22708Y802181D01*
X22353Y801880D01*
X22006Y801571D01*
X21666Y801253D01*
X21333Y800928D01*
X21009Y800594D01*
X20693Y800252D01*
X20385Y799903D01*
X20086Y799547D01*
X19796Y799183D01*
X19515Y798813D01*
X19242Y798436D01*
X18979Y798052D01*
X18725Y797662D01*
X18481Y797266D01*
X18247Y796864D01*
X18022Y796457D01*
X17807Y796044D01*
X17602Y795626D01*
X17408Y795203D01*
X17224Y794776D01*
X17050Y794344D01*
X16887Y793909D01*
X16734Y793469D01*
X16592Y793026D01*
X16461Y792580D01*
X16341Y792130D01*
X16231Y791678D01*
X16133Y791223D01*
X16046Y790766D01*
X15970Y790307D01*
X15905Y789846D01*
X15851Y789384D01*
X15808Y788921D01*
X15777Y788457D01*
X15757Y787992D01*
X15748Y787527D01*
X13463Y787526D01*
X13462Y787527D01*
X13472Y788048D01*
X13494Y788569D01*
X13529Y789089D01*
X13576Y789609D01*
X13636Y790126D01*
X13709Y790643D01*
X13794Y791157D01*
X13891Y791670D01*
X14001Y792179D01*
X14123Y792686D01*
X14258Y793190D01*
X14405Y793690D01*
X14564Y794187D01*
X14735Y794680D01*
X14917Y795168D01*
X15112Y795652D01*
X15318Y796131D01*
X15536Y796604D01*
X15766Y797073D01*
X16006Y797535D01*
X16258Y797992D01*
X16521Y798442D01*
X16795Y798886D01*
X17079Y799323D01*
X17374Y799753D01*
X17679Y800176D01*
X17995Y800591D01*
X18320Y800998D01*
X18655Y801398D01*
X19000Y801789D01*
X19355Y802171D01*
X19718Y802545D01*
X20090Y802910D01*
X20472Y803266D01*
X20861Y803612D01*
X21259Y803949D01*
X21665Y804276D01*
X22079Y804594D01*
X22501Y804900D01*
X22930Y805197D01*
X23366Y805483D01*
X23808Y805759D01*
X24258Y806023D01*
X24713Y806277D01*
X24826Y806065D01*
X24376Y805814D01*
X23932Y805553D01*
X23494Y805280D01*
X23063Y804997D01*
X22639Y804704D01*
X22222Y804401D01*
X21813Y804087D01*
X21412Y803764D01*
X21018Y803431D01*
X20633Y803088D01*
X20256Y802736D01*
X19888Y802375D01*
X19528Y802006D01*
X19178Y801627D01*
X18837Y801241D01*
X18506Y800846D01*
X18184Y800443D01*
X17872Y800033D01*
X17570Y799615D01*
X17278Y799190D01*
X16997Y798757D01*
X16727Y798319D01*
X16467Y797873D01*
X16218Y797422D01*
X15980Y796965D01*
X15753Y796502D01*
X15538Y796033D01*
X15334Y795560D01*
X15141Y795081D01*
X14961Y794599D01*
X14792Y794112D01*
X14634Y793621D01*
X14489Y793126D01*
X14356Y792628D01*
X14235Y792127D01*
X14127Y791623D01*
X14030Y791116D01*
X13946Y790608D01*
X13874Y790097D01*
X13815Y789585D01*
X13768Y789072D01*
X13734Y788557D01*
X13712Y788042D01*
X13702Y787527D01*
X13942Y787527D01*
X13952Y788036D01*
X13973Y788545D01*
X14007Y789054D01*
X14054Y789561D01*
X14112Y790068D01*
X14183Y790572D01*
X14267Y791075D01*
X14362Y791576D01*
X14469Y792074D01*
X14589Y792569D01*
X14721Y793062D01*
X14864Y793551D01*
X15019Y794036D01*
X15186Y794518D01*
X15365Y794995D01*
X15555Y795468D01*
X15757Y795936D01*
X15970Y796399D01*
X16194Y796857D01*
X16429Y797309D01*
X16676Y797755D01*
X16932Y798195D01*
X17200Y798629D01*
X17478Y799056D01*
X17766Y799476D01*
X18065Y799890D01*
X18373Y800295D01*
X18691Y800694D01*
X19019Y801084D01*
X19356Y801466D01*
X19702Y801840D01*
X20057Y802206D01*
X20421Y802562D01*
X20794Y802910D01*
X21175Y803249D01*
X21564Y803578D01*
X21961Y803898D01*
X22365Y804208D01*
X22777Y804508D01*
X23196Y804798D01*
X23622Y805078D01*
X24055Y805347D01*
X24494Y805606D01*
X24939Y805854D01*
X25052Y805642D01*
X24612Y805397D01*
X24178Y805141D01*
X23750Y804875D01*
X23329Y804598D01*
X22915Y804311D01*
X22508Y804015D01*
X22108Y803708D01*
X21716Y803392D01*
X21331Y803067D01*
X20955Y802732D01*
X20587Y802388D01*
X20227Y802036D01*
X19876Y801675D01*
X19533Y801305D01*
X19200Y800927D01*
X18876Y800541D01*
X18562Y800148D01*
X18257Y799746D01*
X17962Y799338D01*
X17677Y798923D01*
X17403Y798500D01*
X17138Y798072D01*
X16884Y797637D01*
X16641Y797195D01*
X16409Y796749D01*
X16187Y796296D01*
X15976Y795838D01*
X15777Y795376D01*
X15589Y794909D01*
X15412Y794437D01*
X15247Y793961D01*
X15094Y793481D01*
X14952Y792998D01*
X14822Y792511D01*
X14704Y792021D01*
X14597Y791529D01*
X14503Y791034D01*
X14421Y790537D01*
X14351Y790038D01*
X14293Y789538D01*
X14247Y789036D01*
X14213Y788534D01*
X14192Y788030D01*
X14182Y787527D01*
X14422Y787527D01*
X14432Y788024D01*
X14453Y788522D01*
X14486Y789019D01*
X14531Y789514D01*
X14589Y790009D01*
X14658Y790502D01*
X14739Y790993D01*
X14833Y791482D01*
X14938Y791969D01*
X15055Y792453D01*
X15183Y792934D01*
X15323Y793411D01*
X15475Y793886D01*
X15638Y794356D01*
X15813Y794822D01*
X15999Y795284D01*
X16196Y795741D01*
X16404Y796193D01*
X16623Y796641D01*
X16853Y797082D01*
X17093Y797518D01*
X17344Y797948D01*
X17605Y798372D01*
X17877Y798789D01*
X18159Y799200D01*
X18450Y799603D01*
X18751Y800000D01*
X19062Y800389D01*
X19382Y800770D01*
X19711Y801144D01*
X20049Y801509D01*
X20396Y801866D01*
X20752Y802214D01*
X21116Y802554D01*
X21488Y802885D01*
X21868Y803207D01*
X22256Y803519D01*
X22651Y803822D01*
X23053Y804115D01*
X23462Y804398D01*
X23879Y804672D01*
X24301Y804935D01*
X24730Y805188D01*
X25165Y805430D01*
X25278Y805218D01*
X24848Y804979D01*
X24424Y804729D01*
X24007Y804469D01*
X23596Y804199D01*
X23191Y803919D01*
X22793Y803629D01*
X22403Y803330D01*
X22020Y803021D01*
X21645Y802703D01*
X21277Y802376D01*
X20917Y802041D01*
X20566Y801696D01*
X20223Y801343D01*
X19889Y800982D01*
X19564Y800613D01*
X19247Y800236D01*
X18940Y799852D01*
X18643Y799460D01*
X18355Y799061D01*
X18076Y798656D01*
X17808Y798243D01*
X17550Y797825D01*
X17302Y797400D01*
X17064Y796969D01*
X16837Y796533D01*
X16621Y796091D01*
X16415Y795644D01*
X16221Y795192D01*
X16037Y794736D01*
X15864Y794275D01*
X15703Y793810D01*
X15553Y793342D01*
X15414Y792870D01*
X15287Y792394D01*
X15172Y791916D01*
X15068Y791435D01*
X14976Y790952D01*
X14896Y790467D01*
X14827Y789979D01*
X14770Y789491D01*
X14725Y789001D01*
X14692Y788510D01*
X14671Y788018D01*
X14662Y787527D01*
X14902Y787527D01*
X14911Y788013D01*
X14932Y788498D01*
X14965Y788983D01*
X15009Y789467D01*
X15065Y789950D01*
X15133Y790431D01*
X15212Y790911D01*
X15303Y791388D01*
X15406Y791863D01*
X15520Y792336D01*
X15646Y792806D01*
X15783Y793272D01*
X15931Y793735D01*
X16090Y794194D01*
X16261Y794649D01*
X16442Y795100D01*
X16635Y795546D01*
X16838Y795988D01*
X17052Y796425D01*
X17276Y796856D01*
X17511Y797281D01*
X17756Y797701D01*
X18011Y798115D01*
X18276Y798522D01*
X18551Y798923D01*
X18835Y799317D01*
X19129Y799704D01*
X19433Y800084D01*
X19745Y800456D01*
X20067Y800821D01*
X20397Y801178D01*
X20736Y801526D01*
X21083Y801867D01*
X21438Y802198D01*
X21801Y802521D01*
X22172Y802835D01*
X22551Y803140D01*
X22936Y803436D01*
X23329Y803722D01*
X23729Y803999D01*
X24135Y804266D01*
X24548Y804523D01*
X24966Y804770D01*
X25391Y805006D01*
X25504Y804795D01*
X25084Y804561D01*
X24671Y804317D01*
X24263Y804063D01*
X23862Y803799D01*
X23467Y803526D01*
X23079Y803243D01*
X22698Y802951D01*
X22324Y802650D01*
X21958Y802339D01*
X21599Y802020D01*
X21248Y801693D01*
X20905Y801356D01*
X20571Y801012D01*
X20244Y800660D01*
X19927Y800300D01*
X19618Y799932D01*
X19319Y799557D01*
X19028Y799174D01*
X18747Y798785D01*
X18475Y798389D01*
X18214Y797986D01*
X17961Y797578D01*
X17719Y797163D01*
X17488Y796743D01*
X17266Y796317D01*
X17055Y795885D01*
X16854Y795449D01*
X16664Y795008D01*
X16485Y794563D01*
X16316Y794113D01*
X16159Y793659D01*
X16012Y793202D01*
X15877Y792741D01*
X15753Y792278D01*
X15640Y791811D01*
X15539Y791341D01*
X15449Y790870D01*
X15370Y790396D01*
X15303Y789921D01*
X15248Y789444D01*
X15204Y788965D01*
X15172Y788486D01*
X15151Y788007D01*
X15142Y787527D01*
X15382Y787527D01*
X15391Y788001D01*
X15412Y788475D01*
X15443Y788948D01*
X15487Y789420D01*
X15542Y789891D01*
X15608Y790361D01*
X15685Y790829D01*
X15774Y791295D01*
X15874Y791758D01*
X15986Y792219D01*
X16108Y792677D01*
X16242Y793132D01*
X16387Y793584D01*
X16542Y794032D01*
X16708Y794476D01*
X16886Y794916D01*
X17073Y795352D01*
X17272Y795783D01*
X17480Y796209D01*
X17699Y796629D01*
X17928Y797045D01*
X18167Y797454D01*
X18416Y797858D01*
X18675Y798255D01*
X18943Y798647D01*
X19221Y799031D01*
X19508Y799409D01*
X19804Y799779D01*
X20108Y800143D01*
X20422Y800498D01*
X20744Y800846D01*
X21075Y801187D01*
X21413Y801519D01*
X21760Y801842D01*
X22114Y802158D01*
X22476Y802464D01*
X22846Y802762D01*
X23222Y803050D01*
X23605Y803330D01*
X23995Y803600D01*
X24391Y803860D01*
X24794Y804111D01*
X25203Y804352D01*
X25617Y804583D01*
X25730Y804371D01*
X25321Y804143D01*
X24917Y803905D01*
X24520Y803657D01*
X24128Y803400D01*
X23743Y803133D01*
X23365Y802858D01*
X22993Y802572D01*
X22628Y802279D01*
X22271Y801976D01*
X21921Y801664D01*
X21579Y801345D01*
X21244Y801017D01*
X20918Y800681D01*
X20600Y800337D01*
X20290Y799986D01*
X19989Y799627D01*
X19697Y799261D01*
X19413Y798888D01*
X19139Y798508D01*
X18874Y798122D01*
X18619Y797729D01*
X18373Y797331D01*
X18137Y796926D01*
X17911Y796516D01*
X17695Y796101D01*
X17488Y795680D01*
X17293Y795254D01*
X17107Y794824D01*
X16932Y794390D01*
X16768Y793951D01*
X16614Y793509D01*
X16472Y793063D01*
X16340Y792613D01*
X16219Y792161D01*
X16109Y791706D01*
X16010Y791248D01*
X15922Y790788D01*
X15845Y790326D01*
X15780Y789862D01*
X15726Y789397D01*
X15683Y788930D01*
X15651Y788463D01*
X15631Y787995D01*
X15622Y787527D01*
X48886Y771099D02*
X47409Y772844D01*
X47409Y772843D02*
X47761Y773153D01*
X48106Y773471D01*
X48442Y773797D01*
X48770Y774131D01*
X49090Y774473D01*
X49402Y774823D01*
X49705Y775181D01*
X49999Y775546D01*
X50284Y775917D01*
X50560Y776296D01*
X50827Y776682D01*
X51084Y777073D01*
X51332Y777471D01*
X51569Y777875D01*
X51797Y778285D01*
X52015Y778700D01*
X52222Y779120D01*
X52419Y779545D01*
X52606Y779975D01*
X52782Y780409D01*
X52948Y780847D01*
X53102Y781290D01*
X53246Y781736D01*
X53379Y782185D01*
X53501Y782637D01*
X53612Y783093D01*
X53712Y783551D01*
X53800Y784011D01*
X53877Y784473D01*
X53943Y784937D01*
X53998Y785402D01*
X54041Y785869D01*
X54072Y786337D01*
X54093Y786805D01*
X54102Y787273D01*
X56387Y787274D01*
X56388Y787273D01*
X56378Y786748D01*
X56356Y786223D01*
X56320Y785699D01*
X56272Y785176D01*
X56212Y784654D01*
X56138Y784134D01*
X56052Y783616D01*
X55953Y783100D01*
X55841Y782587D01*
X55717Y782076D01*
X55581Y781569D01*
X55432Y781065D01*
X55271Y780565D01*
X55097Y780069D01*
X54912Y779578D01*
X54714Y779091D01*
X54505Y778609D01*
X54284Y778132D01*
X54051Y777661D01*
X53807Y777196D01*
X53552Y776737D01*
X53285Y776284D01*
X53008Y775838D01*
X52719Y775399D01*
X52420Y774967D01*
X52111Y774543D01*
X51791Y774126D01*
X51461Y773717D01*
X51121Y773317D01*
X50772Y772924D01*
X50413Y772541D01*
X50044Y772166D01*
X49667Y771801D01*
X49281Y771445D01*
X48886Y771098D01*
X48731Y771281D01*
X49121Y771624D01*
X49503Y771976D01*
X49876Y772338D01*
X50240Y772708D01*
X50595Y773087D01*
X50941Y773475D01*
X51277Y773871D01*
X51603Y774275D01*
X51919Y774687D01*
X52225Y775107D01*
X52521Y775534D01*
X52806Y775968D01*
X53080Y776409D01*
X53344Y776857D01*
X53596Y777310D01*
X53838Y777770D01*
X54068Y778236D01*
X54286Y778707D01*
X54493Y779184D01*
X54688Y779665D01*
X54872Y780151D01*
X55043Y780641D01*
X55202Y781135D01*
X55350Y781633D01*
X55485Y782135D01*
X55607Y782640D01*
X55718Y783147D01*
X55815Y783657D01*
X55901Y784170D01*
X55973Y784684D01*
X56034Y785200D01*
X56081Y785717D01*
X56116Y786235D01*
X56138Y786754D01*
X56148Y787273D01*
X55908Y787273D01*
X55898Y786760D01*
X55876Y786247D01*
X55842Y785735D01*
X55795Y785224D01*
X55735Y784714D01*
X55663Y784205D01*
X55579Y783699D01*
X55482Y783195D01*
X55373Y782693D01*
X55252Y782194D01*
X55118Y781698D01*
X54973Y781206D01*
X54815Y780717D01*
X54646Y780233D01*
X54465Y779752D01*
X54272Y779276D01*
X54067Y778805D01*
X53851Y778340D01*
X53624Y777879D01*
X53385Y777425D01*
X53136Y776976D01*
X52875Y776534D01*
X52604Y776098D01*
X52322Y775668D01*
X52030Y775246D01*
X51727Y774831D01*
X51415Y774424D01*
X51092Y774025D01*
X50760Y773633D01*
X50419Y773250D01*
X50068Y772875D01*
X49708Y772509D01*
X49339Y772151D01*
X48962Y771803D01*
X48576Y771465D01*
X48421Y771648D01*
X48802Y771983D01*
X49175Y772327D01*
X49540Y772680D01*
X49895Y773042D01*
X50242Y773412D01*
X50580Y773791D01*
X50908Y774178D01*
X51227Y774573D01*
X51536Y774976D01*
X51835Y775386D01*
X52123Y775803D01*
X52402Y776227D01*
X52670Y776658D01*
X52927Y777095D01*
X53174Y777539D01*
X53410Y777988D01*
X53635Y778443D01*
X53848Y778904D01*
X54050Y779369D01*
X54241Y779839D01*
X54420Y780314D01*
X54588Y780793D01*
X54743Y781276D01*
X54887Y781763D01*
X55019Y782253D01*
X55139Y782746D01*
X55247Y783242D01*
X55343Y783740D01*
X55426Y784241D01*
X55497Y784743D01*
X55556Y785247D01*
X55602Y785753D01*
X55637Y786259D01*
X55658Y786766D01*
X55668Y787273D01*
X55428Y787273D01*
X55418Y786772D01*
X55397Y786271D01*
X55363Y785771D01*
X55317Y785271D01*
X55259Y784773D01*
X55189Y784276D01*
X55106Y783782D01*
X55012Y783289D01*
X54905Y782799D01*
X54787Y782312D01*
X54656Y781828D01*
X54514Y781347D01*
X54360Y780869D01*
X54195Y780396D01*
X54017Y779927D01*
X53829Y779462D01*
X53629Y779002D01*
X53418Y778547D01*
X53196Y778097D01*
X52963Y777653D01*
X52719Y777215D01*
X52465Y776783D01*
X52200Y776357D01*
X51925Y775938D01*
X51639Y775525D01*
X51344Y775120D01*
X51039Y774722D01*
X50724Y774332D01*
X50399Y773949D01*
X50066Y773575D01*
X49723Y773209D01*
X49371Y772851D01*
X49011Y772502D01*
X48643Y772162D01*
X48266Y771831D01*
X48111Y772014D01*
X48483Y772341D01*
X48847Y772677D01*
X49203Y773022D01*
X49551Y773376D01*
X49889Y773738D01*
X50219Y774108D01*
X50539Y774486D01*
X50850Y774871D01*
X51152Y775264D01*
X51444Y775665D01*
X51726Y776072D01*
X51998Y776487D01*
X52260Y776907D01*
X52511Y777334D01*
X52752Y777768D01*
X52982Y778206D01*
X53202Y778651D01*
X53410Y779100D01*
X53608Y779555D01*
X53794Y780014D01*
X53969Y780478D01*
X54132Y780945D01*
X54285Y781417D01*
X54425Y781892D01*
X54554Y782371D01*
X54671Y782852D01*
X54776Y783337D01*
X54870Y783823D01*
X54951Y784312D01*
X55021Y784803D01*
X55078Y785295D01*
X55124Y785788D01*
X55157Y786283D01*
X55178Y786778D01*
X55188Y787273D01*
X54948Y787273D01*
X54939Y786784D01*
X54917Y786295D01*
X54884Y785806D01*
X54840Y785319D01*
X54783Y784832D01*
X54714Y784348D01*
X54633Y783865D01*
X54541Y783384D01*
X54437Y782905D01*
X54321Y782430D01*
X54194Y781957D01*
X54055Y781487D01*
X53905Y781021D01*
X53743Y780559D01*
X53570Y780101D01*
X53386Y779648D01*
X53191Y779199D01*
X52985Y778754D01*
X52768Y778315D01*
X52541Y777882D01*
X52303Y777454D01*
X52055Y777032D01*
X51796Y776616D01*
X51527Y776207D01*
X51249Y775804D01*
X50960Y775409D01*
X50662Y775020D01*
X50355Y774639D01*
X50038Y774266D01*
X49713Y773900D01*
X49378Y773543D01*
X49035Y773193D01*
X48683Y772853D01*
X48324Y772521D01*
X47956Y772197D01*
X47801Y772381D01*
X48164Y772700D01*
X48520Y773028D01*
X48867Y773365D01*
X49206Y773710D01*
X49536Y774063D01*
X49858Y774424D01*
X50171Y774793D01*
X50474Y775169D01*
X50769Y775553D01*
X51053Y775944D01*
X51329Y776342D01*
X51594Y776746D01*
X51850Y777157D01*
X52095Y777573D01*
X52330Y777996D01*
X52555Y778424D01*
X52769Y778858D01*
X52972Y779297D01*
X53165Y779740D01*
X53347Y780189D01*
X53518Y780641D01*
X53677Y781098D01*
X53826Y781558D01*
X53963Y782022D01*
X54089Y782489D01*
X54203Y782959D01*
X54306Y783431D01*
X54397Y783906D01*
X54477Y784383D01*
X54545Y784862D01*
X54601Y785342D01*
X54645Y785824D01*
X54678Y786307D01*
X54699Y786790D01*
X54708Y787273D01*
X54468Y787273D01*
X54459Y786796D01*
X54438Y786319D01*
X54406Y785842D01*
X54362Y785366D01*
X54306Y784892D01*
X54239Y784419D01*
X54161Y783948D01*
X54071Y783479D01*
X53969Y783012D01*
X53856Y782548D01*
X53732Y782086D01*
X53596Y781628D01*
X53450Y781174D01*
X53292Y780723D01*
X53123Y780276D01*
X52944Y779833D01*
X52753Y779395D01*
X52552Y778962D01*
X52341Y778533D01*
X52119Y778110D01*
X51887Y777693D01*
X51644Y777281D01*
X51392Y776876D01*
X51130Y776476D01*
X50858Y776083D01*
X50577Y775697D01*
X50286Y775318D01*
X49986Y774947D01*
X49677Y774582D01*
X49360Y774225D01*
X49033Y773877D01*
X48699Y773536D01*
X48356Y773203D01*
X48005Y772879D01*
X47646Y772564D01*
X47491Y772747D01*
X47845Y773059D01*
X48192Y773379D01*
X48530Y773707D01*
X48861Y774043D01*
X49183Y774388D01*
X49497Y774740D01*
X49802Y775100D01*
X50098Y775467D01*
X50385Y775842D01*
X50663Y776223D01*
X50931Y776611D01*
X51190Y777005D01*
X51439Y777406D01*
X51679Y777812D01*
X51908Y778225D01*
X52127Y778642D01*
X52336Y779065D01*
X52534Y779493D01*
X52722Y779926D01*
X52900Y780363D01*
X53066Y780804D01*
X53222Y781250D01*
X53367Y781699D01*
X53501Y782151D01*
X53623Y782607D01*
X53735Y783065D01*
X53835Y783526D01*
X53924Y783989D01*
X54002Y784454D01*
X54068Y784921D01*
X54123Y785390D01*
X54166Y785860D01*
X54198Y786330D01*
X54219Y786802D01*
X54228Y787273D01*
X56387Y787527D02*
X54101Y787527D01*
X54102Y787527D02*
X54093Y787990D01*
X54073Y788453D01*
X54042Y788915D01*
X54000Y789376D01*
X53947Y789836D01*
X53882Y790295D01*
X53807Y790752D01*
X53721Y791207D01*
X53623Y791660D01*
X53515Y792110D01*
X53396Y792557D01*
X53266Y793002D01*
X53125Y793443D01*
X52974Y793881D01*
X52812Y794315D01*
X52640Y794745D01*
X52458Y795170D01*
X52265Y795591D01*
X52062Y796008D01*
X51849Y796419D01*
X51627Y796825D01*
X51394Y797226D01*
X51152Y797620D01*
X50901Y798009D01*
X50640Y798392D01*
X50370Y798768D01*
X50091Y799138D01*
X49803Y799501D01*
X49507Y799856D01*
X49202Y800205D01*
X48888Y800546D01*
X48567Y800879D01*
X48237Y801205D01*
X47900Y801522D01*
X47555Y801831D01*
X47203Y802132D01*
X46844Y802424D01*
X46478Y802708D01*
X46105Y802982D01*
X45725Y803247D01*
X45340Y803504D01*
X44948Y803750D01*
X44550Y803988D01*
X45684Y805972D01*
X46130Y805707D01*
X46569Y805431D01*
X47002Y805144D01*
X47427Y804847D01*
X47846Y804539D01*
X48256Y804222D01*
X48659Y803895D01*
X49054Y803558D01*
X49440Y803211D01*
X49818Y802856D01*
X50188Y802491D01*
X50548Y802118D01*
X50899Y801736D01*
X51241Y801345D01*
X51574Y800946D01*
X51896Y800540D01*
X52209Y800126D01*
X52512Y799704D01*
X52804Y799275D01*
X53086Y798839D01*
X53357Y798397D01*
X53618Y797948D01*
X53867Y797493D01*
X54106Y797032D01*
X54333Y796565D01*
X54549Y796094D01*
X54753Y795617D01*
X54946Y795135D01*
X55127Y794648D01*
X55297Y794158D01*
X55454Y793663D01*
X55600Y793165D01*
X55733Y792663D01*
X55854Y792159D01*
X55963Y791651D01*
X56060Y791141D01*
X56144Y790629D01*
X56216Y790115D01*
X56275Y789600D01*
X56322Y789083D01*
X56356Y788565D01*
X56378Y788046D01*
X56388Y787527D01*
X56148Y787527D01*
X56138Y788040D01*
X56117Y788553D01*
X56083Y789065D01*
X56036Y789576D01*
X55977Y790086D01*
X55906Y790594D01*
X55823Y791100D01*
X55728Y791605D01*
X55620Y792106D01*
X55500Y792605D01*
X55368Y793101D01*
X55224Y793594D01*
X55069Y794083D01*
X54901Y794568D01*
X54722Y795049D01*
X54532Y795525D01*
X54329Y795997D01*
X54116Y796463D01*
X53891Y796925D01*
X53655Y797380D01*
X53409Y797830D01*
X53151Y798274D01*
X52883Y798711D01*
X52604Y799142D01*
X52315Y799566D01*
X52016Y799983D01*
X51707Y800393D01*
X51388Y800795D01*
X51059Y801189D01*
X50721Y801575D01*
X50374Y801953D01*
X50018Y802322D01*
X49652Y802682D01*
X49279Y803034D01*
X48897Y803376D01*
X48506Y803709D01*
X48108Y804033D01*
X47702Y804347D01*
X47289Y804651D01*
X46868Y804945D01*
X46440Y805228D01*
X46006Y805502D01*
X45565Y805764D01*
X45446Y805556D01*
X45882Y805296D01*
X46311Y805026D01*
X46734Y804746D01*
X47150Y804455D01*
X47558Y804155D01*
X47960Y803844D01*
X48353Y803524D01*
X48739Y803195D01*
X49117Y802857D01*
X49486Y802509D01*
X49847Y802153D01*
X50200Y801788D01*
X50543Y801414D01*
X50877Y801032D01*
X51202Y800643D01*
X51517Y800246D01*
X51823Y799841D01*
X52119Y799429D01*
X52404Y799009D01*
X52680Y798584D01*
X52945Y798151D01*
X53200Y797712D01*
X53444Y797268D01*
X53677Y796817D01*
X53899Y796361D01*
X54110Y795900D01*
X54310Y795433D01*
X54498Y794963D01*
X54675Y794487D01*
X54841Y794008D01*
X54995Y793524D01*
X55137Y793037D01*
X55267Y792547D01*
X55386Y792054D01*
X55492Y791558D01*
X55587Y791060D01*
X55669Y790559D01*
X55739Y790057D01*
X55797Y789553D01*
X55843Y789048D01*
X55877Y788541D01*
X55898Y788035D01*
X55908Y787527D01*
X55668Y787527D01*
X55658Y788029D01*
X55637Y788530D01*
X55604Y789030D01*
X55559Y789529D01*
X55501Y790027D01*
X55432Y790524D01*
X55350Y791019D01*
X55257Y791511D01*
X55151Y792001D01*
X55034Y792489D01*
X54905Y792974D01*
X54765Y793455D01*
X54613Y793933D01*
X54449Y794407D01*
X54274Y794876D01*
X54088Y795342D01*
X53890Y795803D01*
X53682Y796259D01*
X53462Y796709D01*
X53232Y797155D01*
X52991Y797594D01*
X52739Y798028D01*
X52477Y798456D01*
X52205Y798877D01*
X51922Y799291D01*
X51630Y799698D01*
X51328Y800098D01*
X51016Y800491D01*
X50695Y800876D01*
X50365Y801253D01*
X50025Y801623D01*
X49677Y801983D01*
X49320Y802336D01*
X48955Y802679D01*
X48582Y803014D01*
X48201Y803339D01*
X47811Y803656D01*
X47415Y803962D01*
X47011Y804259D01*
X46600Y804547D01*
X46182Y804824D01*
X45758Y805091D01*
X45327Y805347D01*
X45208Y805139D01*
X45634Y804885D01*
X46053Y804621D01*
X46466Y804347D01*
X46872Y804064D01*
X47271Y803770D01*
X47663Y803467D01*
X48048Y803154D01*
X48425Y802833D01*
X48794Y802502D01*
X49154Y802162D01*
X49507Y801814D01*
X49851Y801457D01*
X50186Y801093D01*
X50513Y800720D01*
X50830Y800339D01*
X51138Y799951D01*
X51437Y799556D01*
X51726Y799153D01*
X52005Y798744D01*
X52274Y798328D01*
X52533Y797905D01*
X52782Y797476D01*
X53020Y797042D01*
X53248Y796602D01*
X53465Y796156D01*
X53671Y795706D01*
X53866Y795250D01*
X54050Y794790D01*
X54223Y794326D01*
X54385Y793858D01*
X54535Y793385D01*
X54674Y792910D01*
X54801Y792431D01*
X54917Y791949D01*
X55021Y791465D01*
X55114Y790978D01*
X55194Y790489D01*
X55263Y789998D01*
X55320Y789506D01*
X55365Y789012D01*
X55398Y788518D01*
X55419Y788023D01*
X55428Y787527D01*
X55188Y787527D01*
X55179Y788017D01*
X55158Y788506D01*
X55125Y788995D01*
X55081Y789482D01*
X55025Y789969D01*
X54957Y790454D01*
X54877Y790937D01*
X54786Y791418D01*
X54683Y791897D01*
X54569Y792373D01*
X54443Y792846D01*
X54305Y793316D01*
X54157Y793783D01*
X53997Y794245D01*
X53826Y794704D01*
X53644Y795159D01*
X53451Y795609D01*
X53247Y796054D01*
X53033Y796494D01*
X52808Y796929D01*
X52573Y797359D01*
X52327Y797782D01*
X52071Y798200D01*
X51805Y798611D01*
X51529Y799015D01*
X51244Y799413D01*
X50949Y799804D01*
X50644Y800187D01*
X50331Y800564D01*
X50008Y800932D01*
X49677Y801292D01*
X49337Y801645D01*
X48988Y801989D01*
X48632Y802325D01*
X48267Y802651D01*
X47895Y802969D01*
X47515Y803278D01*
X47128Y803578D01*
X46733Y803868D01*
X46332Y804148D01*
X45924Y804419D01*
X45509Y804680D01*
X45089Y804931D01*
X44970Y804722D01*
X45385Y804474D01*
X45795Y804217D01*
X46198Y803949D01*
X46594Y803672D01*
X46984Y803385D01*
X47367Y803089D01*
X47742Y802784D01*
X48110Y802470D01*
X48470Y802147D01*
X48822Y801816D01*
X49167Y801476D01*
X49503Y801127D01*
X49830Y800771D01*
X50149Y800407D01*
X50458Y800036D01*
X50759Y799657D01*
X51051Y799271D01*
X51333Y798878D01*
X51605Y798478D01*
X51868Y798072D01*
X52121Y797659D01*
X52364Y797241D01*
X52596Y796816D01*
X52818Y796387D01*
X53030Y795952D01*
X53232Y795512D01*
X53422Y795067D01*
X53602Y794618D01*
X53771Y794165D01*
X53929Y793708D01*
X54076Y793247D01*
X54211Y792782D01*
X54336Y792315D01*
X54449Y791844D01*
X54550Y791371D01*
X54641Y790896D01*
X54719Y790419D01*
X54786Y789940D01*
X54842Y789459D01*
X54886Y788977D01*
X54918Y788494D01*
X54939Y788011D01*
X54948Y787527D01*
X54708Y787527D01*
X54699Y788005D01*
X54678Y788483D01*
X54647Y788960D01*
X54603Y789436D01*
X54548Y789910D01*
X54482Y790384D01*
X54404Y790855D01*
X54315Y791325D01*
X54215Y791792D01*
X54103Y792257D01*
X53980Y792718D01*
X53846Y793177D01*
X53701Y793633D01*
X53545Y794084D01*
X53378Y794532D01*
X53200Y794976D01*
X53012Y795415D01*
X52813Y795850D01*
X52604Y796279D01*
X52384Y796704D01*
X52154Y797123D01*
X51915Y797536D01*
X51665Y797944D01*
X51405Y798345D01*
X51136Y798740D01*
X50857Y799128D01*
X50570Y799509D01*
X50272Y799884D01*
X49966Y800251D01*
X49652Y800611D01*
X49328Y800962D01*
X48996Y801306D01*
X48656Y801642D01*
X48308Y801970D01*
X47953Y802289D01*
X47589Y802599D01*
X47218Y802901D01*
X46840Y803193D01*
X46455Y803476D01*
X46064Y803750D01*
X45666Y804014D01*
X45261Y804269D01*
X44851Y804514D01*
X44732Y804305D01*
X45137Y804064D01*
X45536Y803812D01*
X45930Y803551D01*
X46317Y803281D01*
X46697Y803001D01*
X47070Y802712D01*
X47436Y802414D01*
X47795Y802108D01*
X48147Y801792D01*
X48490Y801469D01*
X48826Y801137D01*
X49154Y800797D01*
X49473Y800450D01*
X49784Y800095D01*
X50087Y799732D01*
X50380Y799362D01*
X50664Y798986D01*
X50940Y798602D01*
X51205Y798212D01*
X51462Y797816D01*
X51709Y797413D01*
X51945Y797005D01*
X52172Y796591D01*
X52389Y796172D01*
X52596Y795747D01*
X52793Y795318D01*
X52979Y794884D01*
X53154Y794446D01*
X53319Y794004D01*
X53473Y793558D01*
X53616Y793108D01*
X53749Y792655D01*
X53870Y792198D01*
X53980Y791740D01*
X54080Y791278D01*
X54168Y790814D01*
X54244Y790349D01*
X54310Y789881D01*
X54364Y789412D01*
X54407Y788942D01*
X54439Y788471D01*
X54459Y787999D01*
X54468Y787527D01*
X54228Y787527D01*
X54219Y787994D01*
X54199Y788459D01*
X54168Y788924D01*
X54125Y789389D01*
X54072Y789852D01*
X54007Y790313D01*
X53931Y790773D01*
X53844Y791231D01*
X53746Y791687D01*
X53637Y792140D01*
X53517Y792591D01*
X53386Y793038D01*
X53245Y793483D01*
X53093Y793923D01*
X52930Y794360D01*
X52757Y794793D01*
X52573Y795221D01*
X52379Y795645D01*
X52175Y796064D01*
X51961Y796478D01*
X51736Y796887D01*
X51502Y797290D01*
X51259Y797688D01*
X51006Y798079D01*
X50743Y798464D01*
X50471Y798843D01*
X50190Y799215D01*
X49901Y799580D01*
X49602Y799938D01*
X49295Y800289D01*
X48980Y800632D01*
X48656Y800968D01*
X48324Y801296D01*
X47985Y801615D01*
X47638Y801926D01*
X47284Y802229D01*
X46922Y802523D01*
X46553Y802809D01*
X46178Y803085D01*
X45796Y803352D01*
X45407Y803610D01*
X45013Y803858D01*
X44612Y804097D01*
D11*
X27051Y771652D02*
X21971Y771652D01*
X43307Y771652D02*
X47879Y771652D01*
D12*
X152400Y819150D02*
X152400Y831850D01*
X158750Y838200D01*
X171450Y838200D02*
X177800Y831850D01*
X158750Y838200D02*
X152400Y844550D01*
X152400Y857250D01*
X158750Y863600D01*
X171450Y863600D02*
X177800Y857250D01*
X177800Y844550D01*
X171450Y838200D01*
X171450Y812800D02*
X158750Y812800D01*
X152400Y819150D01*
X171450Y812800D02*
X177800Y819150D01*
X177800Y831850D01*
X158750Y863600D02*
X152400Y869950D01*
X152400Y882650D01*
X158750Y889000D01*
X171450Y889000D02*
X177800Y882650D01*
X177800Y869950D01*
X171450Y863600D01*
X152400Y895350D02*
X152400Y908050D01*
X158750Y914400D01*
X171450Y914400D02*
X177800Y908050D01*
X158750Y889000D02*
X152400Y895350D01*
X171450Y889000D02*
X177800Y895350D01*
X177800Y908050D01*
X152400Y920750D02*
X152400Y933450D01*
X158750Y939800D01*
X171450Y939800D02*
X177800Y933450D01*
X158750Y939800D02*
X152400Y946150D01*
X152400Y958850D01*
X158750Y965200D01*
X171450Y965200D02*
X177800Y958850D01*
X177800Y946150D01*
X171450Y939800D01*
X152400Y920750D02*
X158750Y914400D01*
X171450Y914400D02*
X177800Y920750D01*
X177800Y933450D01*
X158750Y965200D02*
X152400Y971550D01*
X152400Y984250D01*
X158750Y990600D01*
X171450Y990600D02*
X177800Y984250D01*
X177800Y971550D01*
X171450Y965200D01*
X152400Y996950D02*
X152400Y1009650D01*
X158750Y1016000D01*
X171450Y1016000D02*
X177800Y1009650D01*
X158750Y990600D02*
X152400Y996950D01*
X171450Y990600D02*
X177800Y996950D01*
X177800Y1009650D01*
X152400Y1022350D02*
X152400Y1035050D01*
X158750Y1041400D01*
X171450Y1041400D02*
X177800Y1035050D01*
X158750Y1041400D02*
X152400Y1047750D01*
X152400Y1060450D01*
X158750Y1066800D01*
X171450Y1066800D02*
X177800Y1060450D01*
X177800Y1047750D01*
X171450Y1041400D01*
X152400Y1022350D02*
X158750Y1016000D01*
X171450Y1016000D02*
X177800Y1022350D01*
X177800Y1035050D01*
X171450Y1066800D02*
X158750Y1066800D01*
D13*
X182245Y824230D02*
X184785Y821055D01*
X182245Y824230D02*
X193675Y824230D01*
X193675Y821055D02*
X193675Y827405D01*
X139065Y1048385D02*
X136525Y1051560D01*
X147955Y1051560D01*
X147955Y1048385D02*
X147955Y1054735D01*
X142240Y1059815D02*
X142015Y1059818D01*
X141790Y1059826D01*
X141566Y1059839D01*
X141342Y1059858D01*
X141118Y1059882D01*
X140895Y1059911D01*
X140673Y1059946D01*
X140452Y1059986D01*
X140232Y1060032D01*
X140013Y1060082D01*
X139795Y1060138D01*
X139578Y1060199D01*
X139363Y1060265D01*
X139150Y1060336D01*
X138939Y1060413D01*
X138729Y1060494D01*
X138521Y1060580D01*
X138316Y1060671D01*
X138113Y1060767D01*
X138025Y1060799D01*
X137938Y1060835D01*
X137852Y1060874D01*
X137768Y1060917D01*
X137686Y1060963D01*
X137606Y1061012D01*
X137528Y1061064D01*
X137452Y1061120D01*
X137378Y1061178D01*
X137307Y1061240D01*
X137238Y1061304D01*
X137172Y1061371D01*
X137109Y1061440D01*
X137048Y1061512D01*
X136990Y1061586D01*
X136936Y1061663D01*
X136884Y1061741D01*
X136836Y1061822D01*
X136791Y1061904D01*
X136749Y1061989D01*
X136711Y1062075D01*
X136676Y1062162D01*
X136644Y1062250D01*
X136617Y1062340D01*
X136592Y1062431D01*
X136572Y1062523D01*
X136555Y1062615D01*
X136542Y1062709D01*
X136533Y1062802D01*
X136527Y1062896D01*
X136525Y1062990D01*
X136527Y1063084D01*
X136533Y1063178D01*
X136542Y1063271D01*
X136555Y1063365D01*
X136572Y1063457D01*
X136592Y1063549D01*
X136617Y1063640D01*
X136644Y1063730D01*
X136676Y1063818D01*
X136711Y1063905D01*
X136749Y1063991D01*
X136791Y1064076D01*
X136836Y1064158D01*
X136884Y1064239D01*
X136936Y1064317D01*
X136990Y1064394D01*
X137048Y1064468D01*
X137109Y1064540D01*
X137172Y1064609D01*
X137238Y1064676D01*
X137307Y1064740D01*
X137378Y1064802D01*
X137452Y1064860D01*
X137528Y1064916D01*
X137606Y1064968D01*
X137686Y1065017D01*
X137768Y1065063D01*
X137852Y1065106D01*
X137938Y1065145D01*
X138025Y1065181D01*
X138113Y1065213D01*
X138316Y1065309D01*
X138521Y1065400D01*
X138729Y1065486D01*
X138939Y1065567D01*
X139150Y1065644D01*
X139363Y1065715D01*
X139578Y1065781D01*
X139795Y1065842D01*
X140013Y1065898D01*
X140232Y1065948D01*
X140452Y1065994D01*
X140673Y1066034D01*
X140895Y1066069D01*
X141118Y1066098D01*
X141342Y1066122D01*
X141566Y1066141D01*
X141790Y1066154D01*
X142015Y1066162D01*
X142240Y1066165D01*
X142240Y1059815D02*
X142465Y1059818D01*
X142690Y1059826D01*
X142914Y1059839D01*
X143138Y1059858D01*
X143362Y1059882D01*
X143585Y1059911D01*
X143807Y1059946D01*
X144028Y1059986D01*
X144248Y1060032D01*
X144467Y1060082D01*
X144685Y1060138D01*
X144902Y1060199D01*
X145117Y1060265D01*
X145330Y1060336D01*
X145541Y1060413D01*
X145751Y1060494D01*
X145959Y1060580D01*
X146164Y1060671D01*
X146367Y1060767D01*
X146368Y1060767D02*
X146456Y1060799D01*
X146543Y1060835D01*
X146629Y1060874D01*
X146713Y1060917D01*
X146795Y1060963D01*
X146875Y1061012D01*
X146953Y1061064D01*
X147029Y1061120D01*
X147103Y1061178D01*
X147174Y1061240D01*
X147243Y1061304D01*
X147309Y1061371D01*
X147372Y1061440D01*
X147433Y1061512D01*
X147491Y1061586D01*
X147545Y1061663D01*
X147597Y1061741D01*
X147645Y1061822D01*
X147690Y1061904D01*
X147732Y1061989D01*
X147770Y1062075D01*
X147805Y1062162D01*
X147837Y1062250D01*
X147864Y1062340D01*
X147889Y1062431D01*
X147909Y1062523D01*
X147926Y1062615D01*
X147939Y1062709D01*
X147948Y1062802D01*
X147954Y1062896D01*
X147956Y1062990D01*
X146367Y1065213D02*
X146164Y1065309D01*
X145959Y1065400D01*
X145751Y1065486D01*
X145541Y1065567D01*
X145330Y1065644D01*
X145117Y1065715D01*
X144902Y1065781D01*
X144685Y1065842D01*
X144467Y1065898D01*
X144248Y1065948D01*
X144028Y1065994D01*
X143807Y1066034D01*
X143585Y1066069D01*
X143362Y1066098D01*
X143138Y1066122D01*
X142914Y1066141D01*
X142690Y1066154D01*
X142465Y1066162D01*
X142240Y1066165D01*
X146368Y1065213D02*
X146456Y1065181D01*
X146543Y1065145D01*
X146629Y1065106D01*
X146713Y1065063D01*
X146795Y1065017D01*
X146875Y1064968D01*
X146953Y1064916D01*
X147029Y1064860D01*
X147103Y1064802D01*
X147174Y1064740D01*
X147243Y1064676D01*
X147309Y1064609D01*
X147372Y1064540D01*
X147433Y1064468D01*
X147491Y1064394D01*
X147545Y1064317D01*
X147597Y1064239D01*
X147645Y1064158D01*
X147690Y1064076D01*
X147732Y1063991D01*
X147770Y1063905D01*
X147805Y1063818D01*
X147837Y1063730D01*
X147864Y1063640D01*
X147889Y1063549D01*
X147909Y1063457D01*
X147926Y1063365D01*
X147939Y1063271D01*
X147948Y1063178D01*
X147954Y1063084D01*
X147956Y1062990D01*
X145415Y1060450D02*
X139065Y1065530D01*
X132715Y946785D02*
X132815Y946783D01*
X132914Y946777D01*
X133014Y946767D01*
X133112Y946754D01*
X133211Y946736D01*
X133308Y946715D01*
X133404Y946690D01*
X133500Y946661D01*
X133594Y946628D01*
X133687Y946592D01*
X133778Y946552D01*
X133868Y946508D01*
X133956Y946461D01*
X134042Y946411D01*
X134126Y946357D01*
X134208Y946300D01*
X134287Y946240D01*
X134365Y946176D01*
X134439Y946110D01*
X134511Y946041D01*
X134580Y945969D01*
X134646Y945895D01*
X134710Y945817D01*
X134770Y945738D01*
X134827Y945656D01*
X134881Y945572D01*
X134931Y945486D01*
X134978Y945398D01*
X135022Y945308D01*
X135062Y945217D01*
X135098Y945124D01*
X135131Y945030D01*
X135160Y944934D01*
X135185Y944838D01*
X135206Y944741D01*
X135224Y944642D01*
X135237Y944544D01*
X135247Y944444D01*
X135253Y944345D01*
X135255Y944245D01*
X135253Y944104D01*
X135248Y943963D01*
X135238Y943822D01*
X135225Y943681D01*
X135209Y943541D01*
X135188Y943401D01*
X135164Y943262D01*
X135136Y943123D01*
X135105Y942986D01*
X135070Y942849D01*
X135032Y942713D01*
X134990Y942578D01*
X134944Y942445D01*
X134895Y942312D01*
X134842Y942181D01*
X134786Y942052D01*
X134727Y941923D01*
X134664Y941797D01*
X134598Y941672D01*
X134529Y941549D01*
X134456Y941428D01*
X134380Y941309D01*
X134301Y941191D01*
X134220Y941076D01*
X134135Y940964D01*
X134047Y940853D01*
X133956Y940745D01*
X133863Y940639D01*
X133766Y940536D01*
X133667Y940435D01*
X126365Y940753D02*
X126265Y940755D01*
X126166Y940761D01*
X126066Y940771D01*
X125968Y940784D01*
X125869Y940802D01*
X125772Y940823D01*
X125676Y940848D01*
X125580Y940877D01*
X125486Y940910D01*
X125393Y940946D01*
X125302Y940986D01*
X125212Y941030D01*
X125124Y941077D01*
X125038Y941127D01*
X124954Y941181D01*
X124872Y941238D01*
X124793Y941298D01*
X124715Y941362D01*
X124641Y941428D01*
X124569Y941497D01*
X124500Y941569D01*
X124434Y941643D01*
X124370Y941721D01*
X124310Y941800D01*
X124253Y941882D01*
X124199Y941966D01*
X124149Y942052D01*
X124102Y942140D01*
X124058Y942230D01*
X124018Y942321D01*
X123982Y942414D01*
X123949Y942508D01*
X123920Y942604D01*
X123895Y942700D01*
X123874Y942797D01*
X123856Y942896D01*
X123843Y942994D01*
X123833Y943094D01*
X123827Y943193D01*
X123825Y943293D01*
X123827Y943426D01*
X123832Y943559D01*
X123842Y943692D01*
X123855Y943825D01*
X123872Y943957D01*
X123892Y944089D01*
X123916Y944220D01*
X123944Y944350D01*
X123975Y944480D01*
X124010Y944608D01*
X124049Y944736D01*
X124091Y944862D01*
X124137Y944987D01*
X124186Y945111D01*
X124238Y945234D01*
X124294Y945355D01*
X124354Y945474D01*
X124416Y945592D01*
X124482Y945707D01*
X124551Y945821D01*
X124624Y945933D01*
X124699Y946043D01*
X124778Y946151D01*
X128588Y942022D02*
X128536Y941938D01*
X128481Y941855D01*
X128422Y941775D01*
X128361Y941697D01*
X128297Y941622D01*
X128229Y941549D01*
X128159Y941478D01*
X128087Y941411D01*
X128012Y941346D01*
X127934Y941284D01*
X127854Y941225D01*
X127772Y941169D01*
X127688Y941117D01*
X127602Y941068D01*
X127514Y941022D01*
X127424Y940979D01*
X127333Y940940D01*
X127240Y940905D01*
X127146Y940873D01*
X127051Y940845D01*
X126955Y940820D01*
X126858Y940800D01*
X126760Y940782D01*
X126662Y940769D01*
X126563Y940760D01*
X126464Y940754D01*
X126365Y940752D01*
X130492Y945515D02*
X130544Y945599D01*
X130599Y945682D01*
X130658Y945762D01*
X130719Y945840D01*
X130783Y945915D01*
X130851Y945988D01*
X130921Y946059D01*
X130993Y946126D01*
X131068Y946191D01*
X131146Y946253D01*
X131226Y946312D01*
X131308Y946368D01*
X131392Y946420D01*
X131478Y946469D01*
X131566Y946515D01*
X131656Y946558D01*
X131747Y946597D01*
X131840Y946632D01*
X131934Y946664D01*
X132029Y946692D01*
X132125Y946717D01*
X132222Y946737D01*
X132320Y946755D01*
X132418Y946768D01*
X132517Y946777D01*
X132616Y946783D01*
X132715Y946785D01*
X130493Y945515D02*
X128588Y942023D01*
X123825Y950849D02*
X135255Y954659D01*
X123825Y958469D01*
X126365Y962914D02*
X123825Y966089D01*
X135255Y966089D01*
X135255Y962914D02*
X135255Y969264D01*
D12*
X25400Y831850D02*
X25400Y819150D01*
X25400Y831850D02*
X31750Y838200D01*
X44450Y838200D02*
X50800Y831850D01*
X31750Y838200D02*
X25400Y844550D01*
X25400Y857250D01*
X31750Y863600D01*
X44450Y863600D02*
X50800Y857250D01*
X50800Y844550D01*
X44450Y838200D01*
X44450Y812800D02*
X31750Y812800D01*
X25400Y819150D01*
X44450Y812800D02*
X50800Y819150D01*
X50800Y831850D01*
X31750Y863600D02*
X25400Y869950D01*
X25400Y882650D01*
X31750Y889000D01*
X44450Y889000D02*
X50800Y882650D01*
X50800Y869950D01*
X44450Y863600D01*
X25400Y895350D02*
X25400Y908050D01*
X31750Y914400D01*
X44450Y914400D02*
X50800Y908050D01*
X31750Y889000D02*
X25400Y895350D01*
X44450Y889000D02*
X50800Y895350D01*
X50800Y908050D01*
X25400Y920750D02*
X25400Y933450D01*
X31750Y939800D01*
X44450Y939800D02*
X50800Y933450D01*
X31750Y939800D02*
X25400Y946150D01*
X25400Y958850D01*
X31750Y965200D01*
X44450Y965200D02*
X50800Y958850D01*
X50800Y946150D01*
X44450Y939800D01*
X25400Y920750D02*
X31750Y914400D01*
X44450Y914400D02*
X50800Y920750D01*
X50800Y933450D01*
X31750Y965200D02*
X25400Y971550D01*
X25400Y984250D01*
X31750Y990600D01*
X44450Y990600D02*
X50800Y984250D01*
X50800Y971550D01*
X44450Y965200D01*
X25400Y996950D02*
X25400Y1009650D01*
X31750Y1016000D01*
X44450Y1016000D02*
X50800Y1009650D01*
X31750Y990600D02*
X25400Y996950D01*
X44450Y990600D02*
X50800Y996950D01*
X50800Y1009650D01*
X25400Y1022350D02*
X25400Y1035050D01*
X31750Y1041400D01*
X44450Y1041400D02*
X50800Y1035050D01*
X31750Y1041400D02*
X25400Y1047750D01*
X25400Y1060450D01*
X31750Y1066800D01*
X44450Y1066800D02*
X50800Y1060450D01*
X50800Y1047750D01*
X44450Y1041400D01*
X25400Y1022350D02*
X31750Y1016000D01*
X44450Y1016000D02*
X50800Y1022350D01*
X50800Y1035050D01*
X44450Y1066800D02*
X31750Y1066800D01*
D13*
X55245Y824230D02*
X57785Y821055D01*
X55245Y824230D02*
X66675Y824230D01*
X66675Y821055D02*
X66675Y827405D01*
X12065Y1048385D02*
X9525Y1051560D01*
X20955Y1051560D01*
X20955Y1048385D02*
X20955Y1054735D01*
X15240Y1059815D02*
X15015Y1059818D01*
X14790Y1059826D01*
X14566Y1059839D01*
X14342Y1059858D01*
X14118Y1059882D01*
X13895Y1059911D01*
X13673Y1059946D01*
X13452Y1059986D01*
X13232Y1060032D01*
X13013Y1060082D01*
X12795Y1060138D01*
X12578Y1060199D01*
X12363Y1060265D01*
X12150Y1060336D01*
X11939Y1060413D01*
X11729Y1060494D01*
X11521Y1060580D01*
X11316Y1060671D01*
X11113Y1060767D01*
X11025Y1060799D01*
X10938Y1060835D01*
X10852Y1060874D01*
X10768Y1060917D01*
X10686Y1060963D01*
X10606Y1061012D01*
X10528Y1061064D01*
X10452Y1061120D01*
X10378Y1061178D01*
X10307Y1061240D01*
X10238Y1061304D01*
X10172Y1061371D01*
X10109Y1061440D01*
X10048Y1061512D01*
X9990Y1061586D01*
X9936Y1061663D01*
X9884Y1061741D01*
X9836Y1061822D01*
X9791Y1061904D01*
X9749Y1061989D01*
X9711Y1062075D01*
X9676Y1062162D01*
X9644Y1062250D01*
X9617Y1062340D01*
X9592Y1062431D01*
X9572Y1062523D01*
X9555Y1062615D01*
X9542Y1062709D01*
X9533Y1062802D01*
X9527Y1062896D01*
X9525Y1062990D01*
X9527Y1063084D01*
X9533Y1063178D01*
X9542Y1063271D01*
X9555Y1063365D01*
X9572Y1063457D01*
X9592Y1063549D01*
X9617Y1063640D01*
X9644Y1063730D01*
X9676Y1063818D01*
X9711Y1063905D01*
X9749Y1063991D01*
X9791Y1064076D01*
X9836Y1064158D01*
X9884Y1064239D01*
X9936Y1064317D01*
X9990Y1064394D01*
X10048Y1064468D01*
X10109Y1064540D01*
X10172Y1064609D01*
X10238Y1064676D01*
X10307Y1064740D01*
X10378Y1064802D01*
X10452Y1064860D01*
X10528Y1064916D01*
X10606Y1064968D01*
X10686Y1065017D01*
X10768Y1065063D01*
X10852Y1065106D01*
X10938Y1065145D01*
X11025Y1065181D01*
X11113Y1065213D01*
X11316Y1065309D01*
X11521Y1065400D01*
X11729Y1065486D01*
X11939Y1065567D01*
X12150Y1065644D01*
X12363Y1065715D01*
X12578Y1065781D01*
X12795Y1065842D01*
X13013Y1065898D01*
X13232Y1065948D01*
X13452Y1065994D01*
X13673Y1066034D01*
X13895Y1066069D01*
X14118Y1066098D01*
X14342Y1066122D01*
X14566Y1066141D01*
X14790Y1066154D01*
X15015Y1066162D01*
X15240Y1066165D01*
X15240Y1059815D02*
X15465Y1059818D01*
X15690Y1059826D01*
X15914Y1059839D01*
X16138Y1059858D01*
X16362Y1059882D01*
X16585Y1059911D01*
X16807Y1059946D01*
X17028Y1059986D01*
X17248Y1060032D01*
X17467Y1060082D01*
X17685Y1060138D01*
X17902Y1060199D01*
X18117Y1060265D01*
X18330Y1060336D01*
X18541Y1060413D01*
X18751Y1060494D01*
X18959Y1060580D01*
X19164Y1060671D01*
X19367Y1060767D01*
X19368Y1060767D02*
X19456Y1060799D01*
X19543Y1060835D01*
X19629Y1060874D01*
X19713Y1060917D01*
X19795Y1060963D01*
X19875Y1061012D01*
X19953Y1061064D01*
X20029Y1061120D01*
X20103Y1061178D01*
X20174Y1061240D01*
X20243Y1061304D01*
X20309Y1061371D01*
X20372Y1061440D01*
X20433Y1061512D01*
X20491Y1061586D01*
X20545Y1061663D01*
X20597Y1061741D01*
X20645Y1061822D01*
X20690Y1061904D01*
X20732Y1061989D01*
X20770Y1062075D01*
X20805Y1062162D01*
X20837Y1062250D01*
X20864Y1062340D01*
X20889Y1062431D01*
X20909Y1062523D01*
X20926Y1062615D01*
X20939Y1062709D01*
X20948Y1062802D01*
X20954Y1062896D01*
X20956Y1062990D01*
X19367Y1065213D02*
X19164Y1065309D01*
X18959Y1065400D01*
X18751Y1065486D01*
X18541Y1065567D01*
X18330Y1065644D01*
X18117Y1065715D01*
X17902Y1065781D01*
X17685Y1065842D01*
X17467Y1065898D01*
X17248Y1065948D01*
X17028Y1065994D01*
X16807Y1066034D01*
X16585Y1066069D01*
X16362Y1066098D01*
X16138Y1066122D01*
X15914Y1066141D01*
X15690Y1066154D01*
X15465Y1066162D01*
X15240Y1066165D01*
X19368Y1065213D02*
X19456Y1065181D01*
X19543Y1065145D01*
X19629Y1065106D01*
X19713Y1065063D01*
X19795Y1065017D01*
X19875Y1064968D01*
X19953Y1064916D01*
X20029Y1064860D01*
X20103Y1064802D01*
X20174Y1064740D01*
X20243Y1064676D01*
X20309Y1064609D01*
X20372Y1064540D01*
X20433Y1064468D01*
X20491Y1064394D01*
X20545Y1064317D01*
X20597Y1064239D01*
X20645Y1064158D01*
X20690Y1064076D01*
X20732Y1063991D01*
X20770Y1063905D01*
X20805Y1063818D01*
X20837Y1063730D01*
X20864Y1063640D01*
X20889Y1063549D01*
X20909Y1063457D01*
X20926Y1063365D01*
X20939Y1063271D01*
X20948Y1063178D01*
X20954Y1063084D01*
X20956Y1062990D01*
X18415Y1060450D02*
X12065Y1065530D01*
X69215Y946785D02*
X69315Y946783D01*
X69414Y946777D01*
X69514Y946767D01*
X69612Y946754D01*
X69711Y946736D01*
X69808Y946715D01*
X69904Y946690D01*
X70000Y946661D01*
X70094Y946628D01*
X70187Y946592D01*
X70278Y946552D01*
X70368Y946508D01*
X70456Y946461D01*
X70542Y946411D01*
X70626Y946357D01*
X70708Y946300D01*
X70787Y946240D01*
X70865Y946176D01*
X70939Y946110D01*
X71011Y946041D01*
X71080Y945969D01*
X71146Y945895D01*
X71210Y945817D01*
X71270Y945738D01*
X71327Y945656D01*
X71381Y945572D01*
X71431Y945486D01*
X71478Y945398D01*
X71522Y945308D01*
X71562Y945217D01*
X71598Y945124D01*
X71631Y945030D01*
X71660Y944934D01*
X71685Y944838D01*
X71706Y944741D01*
X71724Y944642D01*
X71737Y944544D01*
X71747Y944444D01*
X71753Y944345D01*
X71755Y944245D01*
X71753Y944104D01*
X71748Y943963D01*
X71738Y943822D01*
X71725Y943681D01*
X71709Y943541D01*
X71688Y943401D01*
X71664Y943262D01*
X71636Y943123D01*
X71605Y942986D01*
X71570Y942849D01*
X71532Y942713D01*
X71490Y942578D01*
X71444Y942445D01*
X71395Y942312D01*
X71342Y942181D01*
X71286Y942052D01*
X71227Y941923D01*
X71164Y941797D01*
X71098Y941672D01*
X71029Y941549D01*
X70956Y941428D01*
X70880Y941309D01*
X70801Y941191D01*
X70720Y941076D01*
X70635Y940964D01*
X70547Y940853D01*
X70456Y940745D01*
X70363Y940639D01*
X70266Y940536D01*
X70167Y940435D01*
X62865Y940753D02*
X62765Y940755D01*
X62666Y940761D01*
X62566Y940771D01*
X62468Y940784D01*
X62369Y940802D01*
X62272Y940823D01*
X62176Y940848D01*
X62080Y940877D01*
X61986Y940910D01*
X61893Y940946D01*
X61802Y940986D01*
X61712Y941030D01*
X61624Y941077D01*
X61538Y941127D01*
X61454Y941181D01*
X61372Y941238D01*
X61293Y941298D01*
X61215Y941362D01*
X61141Y941428D01*
X61069Y941497D01*
X61000Y941569D01*
X60934Y941643D01*
X60870Y941721D01*
X60810Y941800D01*
X60753Y941882D01*
X60699Y941966D01*
X60649Y942052D01*
X60602Y942140D01*
X60558Y942230D01*
X60518Y942321D01*
X60482Y942414D01*
X60449Y942508D01*
X60420Y942604D01*
X60395Y942700D01*
X60374Y942797D01*
X60356Y942896D01*
X60343Y942994D01*
X60333Y943094D01*
X60327Y943193D01*
X60325Y943293D01*
X60327Y943426D01*
X60332Y943559D01*
X60342Y943692D01*
X60355Y943825D01*
X60372Y943957D01*
X60392Y944089D01*
X60416Y944220D01*
X60444Y944350D01*
X60475Y944480D01*
X60510Y944608D01*
X60549Y944736D01*
X60591Y944862D01*
X60637Y944987D01*
X60686Y945111D01*
X60738Y945234D01*
X60794Y945355D01*
X60854Y945474D01*
X60916Y945592D01*
X60982Y945707D01*
X61051Y945821D01*
X61124Y945933D01*
X61199Y946043D01*
X61278Y946151D01*
X65088Y942022D02*
X65036Y941938D01*
X64981Y941855D01*
X64922Y941775D01*
X64861Y941697D01*
X64797Y941622D01*
X64729Y941549D01*
X64659Y941478D01*
X64587Y941411D01*
X64512Y941346D01*
X64434Y941284D01*
X64354Y941225D01*
X64272Y941169D01*
X64188Y941117D01*
X64102Y941068D01*
X64014Y941022D01*
X63924Y940979D01*
X63833Y940940D01*
X63740Y940905D01*
X63646Y940873D01*
X63551Y940845D01*
X63455Y940820D01*
X63358Y940800D01*
X63260Y940782D01*
X63162Y940769D01*
X63063Y940760D01*
X62964Y940754D01*
X62865Y940752D01*
X66992Y945515D02*
X67044Y945599D01*
X67099Y945682D01*
X67158Y945762D01*
X67219Y945840D01*
X67283Y945915D01*
X67351Y945988D01*
X67421Y946059D01*
X67493Y946126D01*
X67568Y946191D01*
X67646Y946253D01*
X67726Y946312D01*
X67808Y946368D01*
X67892Y946420D01*
X67978Y946469D01*
X68066Y946515D01*
X68156Y946558D01*
X68247Y946597D01*
X68340Y946632D01*
X68434Y946664D01*
X68529Y946692D01*
X68625Y946717D01*
X68722Y946737D01*
X68820Y946755D01*
X68918Y946768D01*
X69017Y946777D01*
X69116Y946783D01*
X69215Y946785D01*
X66993Y945515D02*
X65088Y942023D01*
X60325Y950849D02*
X71755Y954659D01*
X60325Y958469D01*
X60325Y966407D02*
X60327Y966511D01*
X60333Y966616D01*
X60342Y966720D01*
X60355Y966823D01*
X60373Y966926D01*
X60393Y967028D01*
X60418Y967130D01*
X60446Y967230D01*
X60478Y967330D01*
X60514Y967428D01*
X60553Y967525D01*
X60595Y967620D01*
X60641Y967714D01*
X60691Y967806D01*
X60743Y967896D01*
X60799Y967984D01*
X60859Y968070D01*
X60921Y968154D01*
X60986Y968235D01*
X61054Y968314D01*
X61126Y968391D01*
X61199Y968464D01*
X61276Y968536D01*
X61355Y968604D01*
X61436Y968669D01*
X61520Y968731D01*
X61606Y968791D01*
X61694Y968847D01*
X61784Y968899D01*
X61876Y968949D01*
X61970Y968995D01*
X62065Y969037D01*
X62162Y969076D01*
X62260Y969112D01*
X62360Y969144D01*
X62460Y969172D01*
X62562Y969197D01*
X62664Y969217D01*
X62767Y969235D01*
X62870Y969248D01*
X62974Y969257D01*
X63079Y969263D01*
X63183Y969265D01*
X60325Y966407D02*
X60327Y966289D01*
X60333Y966170D01*
X60342Y966052D01*
X60355Y965935D01*
X60373Y965818D01*
X60393Y965701D01*
X60418Y965585D01*
X60446Y965470D01*
X60479Y965357D01*
X60514Y965244D01*
X60554Y965132D01*
X60596Y965022D01*
X60643Y964913D01*
X60693Y964805D01*
X60746Y964700D01*
X60803Y964596D01*
X60863Y964494D01*
X60926Y964394D01*
X60993Y964296D01*
X61062Y964200D01*
X61135Y964107D01*
X61211Y964016D01*
X61289Y963927D01*
X61371Y963841D01*
X61455Y963758D01*
X61541Y963677D01*
X61631Y963600D01*
X61722Y963525D01*
X61816Y963453D01*
X61913Y963384D01*
X62011Y963319D01*
X62112Y963256D01*
X62215Y963197D01*
X62319Y963141D01*
X62425Y963089D01*
X62533Y963040D01*
X62642Y962995D01*
X62753Y962953D01*
X62865Y962915D01*
X65405Y968312D02*
X65330Y968388D01*
X65251Y968463D01*
X65170Y968534D01*
X65086Y968603D01*
X65000Y968668D01*
X64912Y968730D01*
X64822Y968790D01*
X64730Y968846D01*
X64635Y968899D01*
X64539Y968948D01*
X64441Y968994D01*
X64342Y969037D01*
X64241Y969076D01*
X64139Y969111D01*
X64036Y969143D01*
X63932Y969171D01*
X63827Y969196D01*
X63720Y969217D01*
X63614Y969234D01*
X63507Y969247D01*
X63399Y969256D01*
X63291Y969262D01*
X63183Y969264D01*
X65405Y968312D02*
X71755Y962914D01*
X71755Y969264D01*
D14*
X76895Y742442D02*
X76895Y730758D01*
X76895Y742442D02*
X80140Y742442D01*
X80253Y742440D01*
X80366Y742434D01*
X80479Y742424D01*
X80592Y742410D01*
X80704Y742393D01*
X80815Y742371D01*
X80925Y742346D01*
X81035Y742316D01*
X81143Y742283D01*
X81250Y742246D01*
X81356Y742206D01*
X81460Y742161D01*
X81563Y742113D01*
X81664Y742062D01*
X81763Y742007D01*
X81860Y741949D01*
X81955Y741887D01*
X82048Y741822D01*
X82138Y741754D01*
X82226Y741683D01*
X82312Y741608D01*
X82395Y741531D01*
X82475Y741451D01*
X82552Y741368D01*
X82627Y741282D01*
X82698Y741194D01*
X82766Y741104D01*
X82831Y741011D01*
X82893Y740916D01*
X82951Y740819D01*
X83006Y740720D01*
X83057Y740619D01*
X83105Y740516D01*
X83150Y740412D01*
X83190Y740306D01*
X83227Y740199D01*
X83260Y740091D01*
X83290Y739981D01*
X83315Y739871D01*
X83337Y739760D01*
X83354Y739648D01*
X83368Y739535D01*
X83378Y739422D01*
X83384Y739309D01*
X83386Y739196D01*
X83384Y739083D01*
X83378Y738970D01*
X83368Y738857D01*
X83354Y738744D01*
X83337Y738632D01*
X83315Y738521D01*
X83290Y738411D01*
X83260Y738301D01*
X83227Y738193D01*
X83190Y738086D01*
X83150Y737980D01*
X83105Y737876D01*
X83057Y737773D01*
X83006Y737672D01*
X82951Y737573D01*
X82893Y737476D01*
X82831Y737381D01*
X82766Y737288D01*
X82698Y737198D01*
X82627Y737110D01*
X82552Y737024D01*
X82475Y736941D01*
X82395Y736861D01*
X82312Y736784D01*
X82226Y736709D01*
X82138Y736638D01*
X82048Y736570D01*
X81955Y736505D01*
X81860Y736443D01*
X81763Y736385D01*
X81664Y736330D01*
X81563Y736279D01*
X81460Y736231D01*
X81356Y736186D01*
X81250Y736146D01*
X81143Y736109D01*
X81035Y736076D01*
X80925Y736046D01*
X80815Y736021D01*
X80704Y735999D01*
X80592Y735982D01*
X80479Y735968D01*
X80366Y735958D01*
X80253Y735952D01*
X80140Y735950D01*
X80140Y735951D02*
X76895Y735951D01*
X80789Y735951D02*
X83386Y730758D01*
X88251Y739846D02*
X91496Y742442D01*
X91496Y730758D01*
X88251Y730758D02*
X94742Y730758D01*
D12*
X120650Y101600D02*
X133350Y101600D01*
X120650Y101600D02*
X114300Y107950D01*
X114300Y120650D02*
X120650Y127000D01*
X114300Y107950D02*
X107950Y101600D01*
X95250Y101600D01*
X88900Y107950D01*
X88900Y120650D02*
X95250Y127000D01*
X107950Y127000D01*
X114300Y120650D01*
X139700Y120650D02*
X139700Y107950D01*
X133350Y101600D01*
X139700Y120650D02*
X133350Y127000D01*
X120650Y127000D01*
X88900Y107950D02*
X82550Y101600D01*
X69850Y101600D01*
X63500Y107950D01*
X63500Y120650D02*
X69850Y127000D01*
X82550Y127000D01*
X88900Y120650D01*
X63500Y120650D02*
X63500Y107950D01*
D13*
X145415Y117475D02*
X148590Y120015D01*
X148590Y108585D01*
X145415Y108585D02*
X151765Y108585D01*
X91186Y139065D02*
X91184Y138965D01*
X91178Y138866D01*
X91168Y138766D01*
X91155Y138668D01*
X91137Y138569D01*
X91116Y138472D01*
X91091Y138376D01*
X91062Y138280D01*
X91029Y138186D01*
X90993Y138093D01*
X90953Y138002D01*
X90909Y137912D01*
X90862Y137824D01*
X90812Y137738D01*
X90758Y137654D01*
X90701Y137572D01*
X90641Y137493D01*
X90577Y137415D01*
X90511Y137341D01*
X90442Y137269D01*
X90370Y137200D01*
X90296Y137134D01*
X90218Y137070D01*
X90139Y137010D01*
X90057Y136953D01*
X89973Y136899D01*
X89887Y136849D01*
X89799Y136802D01*
X89709Y136758D01*
X89618Y136718D01*
X89525Y136682D01*
X89431Y136649D01*
X89335Y136620D01*
X89239Y136595D01*
X89142Y136574D01*
X89043Y136556D01*
X88945Y136543D01*
X88845Y136533D01*
X88746Y136527D01*
X88646Y136525D01*
X88505Y136527D01*
X88364Y136532D01*
X88223Y136542D01*
X88082Y136555D01*
X87942Y136571D01*
X87802Y136592D01*
X87663Y136616D01*
X87524Y136644D01*
X87387Y136675D01*
X87250Y136710D01*
X87114Y136748D01*
X86979Y136790D01*
X86846Y136836D01*
X86713Y136885D01*
X86582Y136938D01*
X86453Y136994D01*
X86324Y137053D01*
X86198Y137116D01*
X86073Y137182D01*
X85950Y137251D01*
X85829Y137324D01*
X85710Y137400D01*
X85592Y137479D01*
X85477Y137560D01*
X85365Y137645D01*
X85254Y137733D01*
X85146Y137824D01*
X85040Y137917D01*
X84937Y138014D01*
X84836Y138113D01*
X85154Y145415D02*
X85156Y145515D01*
X85162Y145614D01*
X85172Y145714D01*
X85185Y145812D01*
X85203Y145911D01*
X85224Y146008D01*
X85249Y146104D01*
X85278Y146200D01*
X85311Y146294D01*
X85347Y146387D01*
X85387Y146478D01*
X85431Y146568D01*
X85478Y146656D01*
X85528Y146742D01*
X85582Y146826D01*
X85639Y146908D01*
X85699Y146987D01*
X85763Y147065D01*
X85829Y147139D01*
X85898Y147211D01*
X85970Y147280D01*
X86044Y147346D01*
X86122Y147410D01*
X86201Y147470D01*
X86283Y147527D01*
X86367Y147581D01*
X86453Y147631D01*
X86541Y147678D01*
X86631Y147722D01*
X86722Y147762D01*
X86815Y147798D01*
X86909Y147831D01*
X87005Y147860D01*
X87101Y147885D01*
X87198Y147906D01*
X87297Y147924D01*
X87395Y147937D01*
X87495Y147947D01*
X87594Y147953D01*
X87694Y147955D01*
X87694Y147956D02*
X87827Y147954D01*
X87960Y147949D01*
X88093Y147939D01*
X88226Y147926D01*
X88358Y147909D01*
X88490Y147889D01*
X88621Y147865D01*
X88751Y147837D01*
X88881Y147806D01*
X89009Y147771D01*
X89137Y147732D01*
X89263Y147690D01*
X89388Y147644D01*
X89512Y147595D01*
X89635Y147543D01*
X89756Y147487D01*
X89875Y147427D01*
X89993Y147365D01*
X90108Y147299D01*
X90222Y147230D01*
X90334Y147157D01*
X90444Y147082D01*
X90552Y147003D01*
X86423Y143192D02*
X86339Y143244D01*
X86256Y143299D01*
X86176Y143358D01*
X86098Y143419D01*
X86023Y143483D01*
X85950Y143551D01*
X85879Y143621D01*
X85812Y143693D01*
X85747Y143768D01*
X85685Y143846D01*
X85626Y143926D01*
X85570Y144008D01*
X85518Y144092D01*
X85469Y144178D01*
X85423Y144266D01*
X85380Y144356D01*
X85341Y144447D01*
X85306Y144540D01*
X85274Y144634D01*
X85246Y144729D01*
X85221Y144825D01*
X85201Y144922D01*
X85183Y145020D01*
X85170Y145118D01*
X85161Y145217D01*
X85155Y145316D01*
X85153Y145415D01*
X89916Y141288D02*
X90000Y141236D01*
X90083Y141181D01*
X90163Y141122D01*
X90241Y141061D01*
X90316Y140997D01*
X90389Y140929D01*
X90460Y140859D01*
X90527Y140787D01*
X90592Y140712D01*
X90654Y140634D01*
X90713Y140554D01*
X90769Y140472D01*
X90821Y140388D01*
X90870Y140302D01*
X90916Y140214D01*
X90959Y140124D01*
X90998Y140033D01*
X91033Y139940D01*
X91065Y139846D01*
X91093Y139751D01*
X91118Y139655D01*
X91138Y139558D01*
X91156Y139460D01*
X91169Y139362D01*
X91178Y139263D01*
X91184Y139164D01*
X91186Y139065D01*
X89916Y141288D02*
X86424Y143193D01*
X95250Y147955D02*
X99060Y136525D01*
X102870Y147955D01*
X107315Y136525D02*
X110490Y136525D01*
X110601Y136527D01*
X110711Y136533D01*
X110822Y136542D01*
X110932Y136556D01*
X111041Y136573D01*
X111150Y136594D01*
X111258Y136619D01*
X111365Y136648D01*
X111471Y136680D01*
X111576Y136716D01*
X111679Y136756D01*
X111781Y136799D01*
X111882Y136846D01*
X111981Y136897D01*
X112077Y136950D01*
X112172Y137007D01*
X112265Y137068D01*
X112356Y137131D01*
X112445Y137198D01*
X112531Y137268D01*
X112614Y137341D01*
X112696Y137416D01*
X112774Y137494D01*
X112849Y137576D01*
X112922Y137659D01*
X112992Y137745D01*
X113059Y137834D01*
X113122Y137925D01*
X113183Y138018D01*
X113240Y138112D01*
X113293Y138209D01*
X113344Y138308D01*
X113391Y138409D01*
X113434Y138511D01*
X113474Y138614D01*
X113510Y138719D01*
X113542Y138825D01*
X113571Y138932D01*
X113596Y139040D01*
X113617Y139149D01*
X113634Y139258D01*
X113648Y139368D01*
X113657Y139479D01*
X113663Y139589D01*
X113665Y139700D01*
X113663Y139811D01*
X113657Y139921D01*
X113648Y140032D01*
X113634Y140142D01*
X113617Y140251D01*
X113596Y140360D01*
X113571Y140468D01*
X113542Y140575D01*
X113510Y140681D01*
X113474Y140786D01*
X113434Y140889D01*
X113391Y140991D01*
X113344Y141092D01*
X113293Y141191D01*
X113240Y141287D01*
X113183Y141382D01*
X113122Y141475D01*
X113059Y141566D01*
X112992Y141655D01*
X112922Y141741D01*
X112849Y141824D01*
X112774Y141906D01*
X112696Y141984D01*
X112614Y142059D01*
X112531Y142132D01*
X112445Y142202D01*
X112356Y142269D01*
X112265Y142332D01*
X112172Y142393D01*
X112078Y142450D01*
X111981Y142503D01*
X111882Y142554D01*
X111781Y142601D01*
X111679Y142644D01*
X111576Y142684D01*
X111471Y142720D01*
X111365Y142752D01*
X111258Y142781D01*
X111150Y142806D01*
X111041Y142827D01*
X110932Y142844D01*
X110822Y142858D01*
X110711Y142867D01*
X110601Y142873D01*
X110490Y142875D01*
X111125Y147955D02*
X107315Y147955D01*
X111125Y147955D02*
X111225Y147953D01*
X111324Y147947D01*
X111424Y147937D01*
X111522Y147924D01*
X111621Y147906D01*
X111718Y147885D01*
X111814Y147860D01*
X111910Y147831D01*
X112004Y147798D01*
X112097Y147762D01*
X112188Y147722D01*
X112278Y147678D01*
X112366Y147631D01*
X112452Y147581D01*
X112536Y147527D01*
X112618Y147470D01*
X112697Y147410D01*
X112775Y147346D01*
X112849Y147280D01*
X112921Y147211D01*
X112990Y147139D01*
X113056Y147065D01*
X113120Y146987D01*
X113180Y146908D01*
X113237Y146826D01*
X113291Y146742D01*
X113341Y146656D01*
X113388Y146568D01*
X113432Y146478D01*
X113472Y146387D01*
X113508Y146294D01*
X113541Y146200D01*
X113570Y146104D01*
X113595Y146008D01*
X113616Y145911D01*
X113634Y145812D01*
X113647Y145714D01*
X113657Y145614D01*
X113663Y145515D01*
X113665Y145415D01*
X113663Y145315D01*
X113657Y145216D01*
X113647Y145116D01*
X113634Y145018D01*
X113616Y144919D01*
X113595Y144822D01*
X113570Y144726D01*
X113541Y144630D01*
X113508Y144536D01*
X113472Y144443D01*
X113432Y144352D01*
X113388Y144262D01*
X113341Y144174D01*
X113291Y144088D01*
X113237Y144004D01*
X113180Y143922D01*
X113120Y143843D01*
X113056Y143765D01*
X112990Y143691D01*
X112921Y143619D01*
X112849Y143550D01*
X112775Y143484D01*
X112697Y143420D01*
X112618Y143360D01*
X112536Y143303D01*
X112452Y143249D01*
X112366Y143199D01*
X112278Y143152D01*
X112188Y143108D01*
X112097Y143068D01*
X112004Y143032D01*
X111910Y142999D01*
X111814Y142970D01*
X111718Y142945D01*
X111621Y142924D01*
X111522Y142906D01*
X111424Y142893D01*
X111324Y142883D01*
X111225Y142877D01*
X111125Y142875D01*
X108585Y142875D01*
M02*
