G04 EAGLE Gerber RS-274X export*
G75*
%MOMM*%
%FSLAX34Y34*%
%LPD*%
%INSoldermask Bottom*%
%IPPOS*%
%AMOC8*
5,1,8,0,0,1.08239X$1,22.5*%
G01*
%ADD10P,2.199416X8X202.500000*%
%ADD11C,2.403200*%
%ADD12C,2.082800*%
%ADD13C,2.032000*%
%ADD14C,0.655600*%


D10*
X152400Y654050D03*
X152400Y730250D03*
X152400Y628650D03*
D11*
X152400Y685800D03*
D10*
X152400Y527050D03*
X152400Y603250D03*
X152400Y501650D03*
D11*
X152400Y558800D03*
D10*
X152400Y400050D03*
X152400Y476250D03*
X152400Y374650D03*
D11*
X152400Y431800D03*
D10*
X152400Y273050D03*
X152400Y349250D03*
X152400Y247650D03*
D11*
X152400Y304800D03*
D10*
X152400Y146050D03*
X152400Y222250D03*
X152400Y120650D03*
D11*
X152400Y177800D03*
D10*
X50800Y654050D03*
X50800Y730250D03*
X50800Y628650D03*
D11*
X50800Y685800D03*
D10*
X50800Y527050D03*
X50800Y603250D03*
X50800Y501650D03*
D11*
X50800Y558800D03*
D10*
X50800Y400050D03*
X50800Y476250D03*
X50800Y374650D03*
D11*
X50800Y431800D03*
D10*
X50800Y273050D03*
X50800Y349250D03*
X50800Y247650D03*
D11*
X50800Y304800D03*
D10*
X50800Y146050D03*
X50800Y222250D03*
X50800Y120650D03*
D11*
X50800Y177800D03*
D10*
X152400Y1101725D03*
X152400Y1177925D03*
X152400Y1076325D03*
D11*
X152400Y1133475D03*
D10*
X50800Y1101725D03*
X50800Y1177925D03*
X50800Y1076325D03*
D11*
X50800Y1133475D03*
D12*
X168275Y800100D03*
X168275Y774700D03*
X123825Y800100D03*
X123825Y774700D03*
X79375Y800100D03*
X79375Y774700D03*
X34925Y800100D03*
X34925Y774700D03*
D13*
X155956Y825500D02*
X174244Y825500D01*
X174244Y850900D02*
X155956Y850900D01*
X155956Y876300D02*
X174244Y876300D01*
X174244Y901700D02*
X155956Y901700D01*
X155956Y927100D02*
X174244Y927100D01*
X174244Y952500D02*
X155956Y952500D01*
X155956Y977900D02*
X174244Y977900D01*
X174244Y1003300D02*
X155956Y1003300D01*
X155956Y1028700D02*
X174244Y1028700D01*
X174244Y1054100D02*
X155956Y1054100D01*
X47244Y825500D02*
X28956Y825500D01*
X28956Y850900D02*
X47244Y850900D01*
X47244Y876300D02*
X28956Y876300D01*
X28956Y901700D02*
X47244Y901700D01*
X47244Y927100D02*
X28956Y927100D01*
X28956Y952500D02*
X47244Y952500D01*
X47244Y977900D02*
X28956Y977900D01*
X28956Y1003300D02*
X47244Y1003300D01*
X47244Y1028700D02*
X28956Y1028700D01*
X28956Y1054100D02*
X47244Y1054100D01*
D12*
X101600Y901700D03*
X101600Y876300D03*
X101600Y850900D03*
D13*
X127000Y123444D02*
X127000Y105156D01*
X101600Y105156D02*
X101600Y123444D01*
X76200Y123444D02*
X76200Y105156D01*
D12*
X124206Y996188D03*
X124206Y1061212D03*
X78994Y996188D03*
X78994Y1061212D03*
D14*
X137160Y810768D03*
X140208Y758952D03*
X131064Y914400D03*
X76200Y908304D03*
X97536Y826008D03*
X67056Y917448D03*
X67056Y893064D03*
X88392Y816864D03*
X64008Y755904D03*
X121920Y841248D03*
X155448Y786384D03*
X42672Y755904D03*
X100584Y762000D03*
X57912Y801624D03*
M02*
