M48
;GenerationSoftware,Autodesk,EAGLE,9.6.2*%
;CreationDate,2021-02-23T07:12:59Z*%
FMAT,2
ICI,OFF
METRIC,TZ,000.000
T4C0.300
T3C0.813
T2C1.016
T1C2.200
%
G90
M71
T1
X15240Y113347
X5080Y17780
X5080Y113347
X15240Y68580
X15240Y55880
X15240Y43180
X15240Y30480
X15240Y17780
X5080Y68580
X5080Y55880
X5080Y43180
X5080Y30480
T2
X3810Y97790
X3810Y102870
X3810Y105410
X10160Y90170
X10160Y87630
X10160Y85090
X12700Y11430
X10160Y11430
X7620Y11430
X12421Y99619
X12421Y106121
X5080Y27305
X7899Y99619
X7899Y106121
X15240Y65405
X15240Y73025
X15240Y62865
X15240Y52705
X15240Y60325
X15240Y50165
X15240Y40005
X15240Y47625
X15240Y37465
X15240Y27305
X15240Y34925
X15240Y24765
X15240Y14605
X15240Y22225
X15240Y12065
X5080Y65405
X5080Y73025
X5080Y62865
X5080Y52705
X5080Y60325
X5080Y50165
X5080Y40005
X5080Y47625
X5080Y37465
X3810Y100330
X5080Y34925
X5080Y24765
X5080Y14605
X5080Y22225
X5080Y12065
X15240Y110172
X15240Y117792
X15240Y107632
X5080Y110172
X5080Y117792
X5080Y107632
X16510Y82550
X16510Y85090
X16510Y87630
X16510Y90170
X16510Y92710
X16510Y95250
X16510Y97790
X16510Y100330
X16510Y102870
X16510Y105410
X3810Y82550
X3810Y85090
X3810Y87630
X3810Y90170
X3810Y92710
X3810Y95250
T3
X7937Y80010
X7937Y77470
X3492Y80010
X3492Y77470
X16828Y80010
X16828Y77470
X12382Y80010
X12382Y77470
T4
X14021Y75895
X13106Y91440
X7620Y90830
X9754Y82601
X6706Y91745
X6706Y89306
X8839Y81686
X6401Y75590
X12192Y84125
X15545Y78638
X4267Y75590
X5791Y80162
X10058Y76200
X13716Y81077
M30