G04 EAGLE Gerber RS-274X export*
G75*
%MOMM*%
%FSLAX34Y34*%
%LPD*%
%INSilkscreen Bottom*%
%IPPOS*%
%AMOC8*
5,1,8,0,0,1.08239X$1,22.5*%
G01*
%ADD10R,19.050000X1.587500*%
%ADD11C,0.203200*%
%ADD12C,0.127000*%
%ADD13C,0.101600*%


D10*
X101600Y639763D03*
D11*
X73850Y635000D02*
X73850Y647700D01*
X146600Y591150D02*
X146600Y793150D01*
X56600Y793150D02*
X56600Y714150D01*
X56600Y670150D01*
X56600Y591150D01*
X145600Y591150D01*
X146600Y793150D02*
X56600Y793150D01*
X56600Y670150D02*
X71600Y670150D01*
X71600Y714150D01*
X56600Y714150D01*
D12*
X64684Y587375D02*
X64684Y583621D01*
X64686Y583556D01*
X64692Y583492D01*
X64702Y583428D01*
X64715Y583364D01*
X64733Y583302D01*
X64754Y583241D01*
X64778Y583181D01*
X64807Y583123D01*
X64839Y583066D01*
X64874Y583012D01*
X64912Y582960D01*
X64954Y582910D01*
X64998Y582863D01*
X65045Y582819D01*
X65095Y582777D01*
X65147Y582739D01*
X65201Y582704D01*
X65258Y582672D01*
X65316Y582643D01*
X65376Y582619D01*
X65437Y582598D01*
X65499Y582580D01*
X65563Y582567D01*
X65627Y582557D01*
X65691Y582551D01*
X65756Y582549D01*
X66293Y582549D01*
X61736Y586303D02*
X60396Y587375D01*
X60396Y582549D01*
X61736Y582549D02*
X59055Y582549D01*
D11*
X68600Y347850D02*
X68600Y290850D01*
X90600Y290850D01*
X112600Y290850D02*
X134600Y290850D01*
X134600Y347850D01*
X125600Y356850D02*
X112600Y356850D01*
X90600Y356850D02*
X77600Y356850D01*
X68600Y347850D01*
X125600Y356850D02*
X134600Y347850D01*
X92100Y353349D02*
X91386Y353109D01*
X90678Y352852D01*
X89977Y352577D01*
X89282Y352285D01*
X88595Y351977D01*
X87916Y351652D01*
X87244Y351310D01*
X86582Y350952D01*
X85928Y350578D01*
X85283Y350189D01*
X84648Y349783D01*
X84023Y349363D01*
X83409Y348927D01*
X82805Y348476D01*
X82213Y348011D01*
X81632Y347532D01*
X81063Y347038D01*
X80506Y346531D01*
X79961Y346010D01*
X79430Y345477D01*
X78911Y344930D01*
X78407Y344371D01*
X77915Y343800D01*
X77438Y343217D01*
X76976Y342623D01*
X76527Y342017D01*
X76094Y341401D01*
X75676Y340775D01*
X75273Y340138D01*
X74886Y339492D01*
X74515Y338837D01*
X74160Y338172D01*
X73821Y337500D01*
X73499Y336819D01*
X73193Y336130D01*
X72904Y335435D01*
X72632Y334732D01*
X72378Y334023D01*
X72140Y333308D01*
X71921Y332588D01*
X71718Y331862D01*
X71534Y331132D01*
X71367Y330397D01*
X71219Y329659D01*
X71088Y328917D01*
X70976Y328172D01*
X70881Y327425D01*
X70805Y326675D01*
X70748Y325924D01*
X70708Y325172D01*
X70687Y324419D01*
X70684Y323666D01*
X70700Y322913D01*
X70734Y322160D01*
X70786Y321409D01*
X70856Y320659D01*
X70945Y319911D01*
X71052Y319165D01*
X71177Y318423D01*
X71320Y317683D01*
X71481Y316947D01*
X71660Y316216D01*
X71857Y315488D01*
X72072Y314766D01*
X72304Y314050D01*
X72553Y313339D01*
X72820Y312634D01*
X73103Y311937D01*
X73404Y311246D01*
X73721Y310563D01*
X74055Y309888D01*
X74405Y309221D01*
X74772Y308563D01*
X75154Y307914D01*
X75552Y307274D01*
X75965Y306644D01*
X76394Y306025D01*
X76838Y305416D01*
X77296Y304818D01*
X77769Y304232D01*
X78256Y303657D01*
X78756Y303095D01*
X79271Y302544D01*
X79798Y302007D01*
X80339Y301482D01*
X80892Y300971D01*
X81457Y300473D01*
X82035Y299989D01*
X82624Y299520D01*
X83224Y299065D01*
X83835Y298624D01*
X84457Y298199D01*
X85089Y297789D01*
X85730Y297395D01*
X86382Y297016D01*
X87042Y296653D01*
X87711Y296307D01*
X88388Y295976D01*
X89072Y295663D01*
X89765Y295366D01*
X90464Y295086D01*
X91170Y294823D01*
X91882Y294578D01*
X92600Y294350D01*
X111100Y294351D02*
X111814Y294591D01*
X112522Y294848D01*
X113223Y295123D01*
X113918Y295415D01*
X114605Y295723D01*
X115284Y296048D01*
X115956Y296390D01*
X116618Y296748D01*
X117272Y297122D01*
X117917Y297511D01*
X118552Y297917D01*
X119177Y298337D01*
X119791Y298773D01*
X120395Y299224D01*
X120987Y299689D01*
X121568Y300168D01*
X122137Y300662D01*
X122694Y301169D01*
X123239Y301690D01*
X123770Y302223D01*
X124289Y302770D01*
X124793Y303329D01*
X125285Y303900D01*
X125762Y304483D01*
X126224Y305077D01*
X126673Y305683D01*
X127106Y306299D01*
X127524Y306925D01*
X127927Y307562D01*
X128314Y308208D01*
X128685Y308863D01*
X129040Y309528D01*
X129379Y310200D01*
X129701Y310881D01*
X130007Y311570D01*
X130296Y312265D01*
X130568Y312968D01*
X130822Y313677D01*
X131060Y314392D01*
X131279Y315112D01*
X131482Y315838D01*
X131666Y316568D01*
X131833Y317303D01*
X131981Y318041D01*
X132112Y318783D01*
X132224Y319528D01*
X132319Y320275D01*
X132395Y321025D01*
X132452Y321776D01*
X132492Y322528D01*
X132513Y323281D01*
X132516Y324034D01*
X132500Y324787D01*
X132466Y325540D01*
X132414Y326291D01*
X132344Y327041D01*
X132255Y327789D01*
X132148Y328535D01*
X132023Y329277D01*
X131880Y330017D01*
X131719Y330753D01*
X131540Y331484D01*
X131343Y332212D01*
X131128Y332934D01*
X130896Y333650D01*
X130647Y334361D01*
X130380Y335066D01*
X130097Y335763D01*
X129796Y336454D01*
X129479Y337137D01*
X129145Y337812D01*
X128795Y338479D01*
X128428Y339137D01*
X128046Y339786D01*
X127648Y340426D01*
X127235Y341056D01*
X126806Y341675D01*
X126362Y342284D01*
X125904Y342882D01*
X125431Y343468D01*
X124944Y344043D01*
X124444Y344605D01*
X123929Y345156D01*
X123402Y345693D01*
X122861Y346218D01*
X122308Y346729D01*
X121743Y347227D01*
X121165Y347711D01*
X120576Y348180D01*
X119976Y348635D01*
X119365Y349076D01*
X118743Y349501D01*
X118111Y349911D01*
X117470Y350305D01*
X116818Y350684D01*
X116158Y351047D01*
X115489Y351393D01*
X114812Y351724D01*
X114128Y352037D01*
X113435Y352334D01*
X112736Y352614D01*
X112030Y352877D01*
X111318Y353122D01*
X110600Y353350D01*
D13*
X77896Y271233D02*
X75299Y271233D01*
X77896Y271233D02*
X77995Y271235D01*
X78095Y271241D01*
X78194Y271250D01*
X78292Y271263D01*
X78390Y271280D01*
X78488Y271301D01*
X78584Y271326D01*
X78679Y271354D01*
X78773Y271386D01*
X78866Y271421D01*
X78958Y271460D01*
X79048Y271503D01*
X79136Y271548D01*
X79223Y271598D01*
X79307Y271650D01*
X79390Y271706D01*
X79470Y271764D01*
X79548Y271826D01*
X79623Y271891D01*
X79696Y271959D01*
X79766Y272029D01*
X79834Y272102D01*
X79899Y272177D01*
X79961Y272255D01*
X80019Y272335D01*
X80075Y272418D01*
X80127Y272502D01*
X80177Y272589D01*
X80222Y272677D01*
X80265Y272767D01*
X80304Y272859D01*
X80339Y272952D01*
X80371Y273046D01*
X80399Y273141D01*
X80424Y273237D01*
X80445Y273335D01*
X80462Y273433D01*
X80475Y273531D01*
X80484Y273630D01*
X80490Y273730D01*
X80492Y273829D01*
X80492Y280321D01*
X80490Y280420D01*
X80484Y280520D01*
X80475Y280619D01*
X80462Y280717D01*
X80445Y280815D01*
X80424Y280913D01*
X80399Y281009D01*
X80371Y281104D01*
X80339Y281198D01*
X80304Y281291D01*
X80265Y281383D01*
X80222Y281473D01*
X80177Y281561D01*
X80127Y281648D01*
X80075Y281732D01*
X80019Y281815D01*
X79961Y281895D01*
X79899Y281973D01*
X79834Y282048D01*
X79766Y282121D01*
X79696Y282191D01*
X79623Y282259D01*
X79548Y282324D01*
X79470Y282386D01*
X79390Y282444D01*
X79307Y282500D01*
X79223Y282552D01*
X79136Y282602D01*
X79048Y282647D01*
X78958Y282690D01*
X78866Y282729D01*
X78773Y282764D01*
X78679Y282796D01*
X78584Y282824D01*
X78488Y282849D01*
X78390Y282870D01*
X78292Y282887D01*
X78194Y282900D01*
X78095Y282909D01*
X77995Y282915D01*
X77896Y282917D01*
X75299Y282917D01*
X70934Y282917D02*
X70934Y281619D01*
X70934Y282917D02*
X64443Y282917D01*
X67688Y271233D01*
D11*
X68600Y236725D02*
X68600Y179725D01*
X90600Y179725D01*
X112600Y179725D02*
X134600Y179725D01*
X134600Y236725D01*
X125600Y245725D02*
X112600Y245725D01*
X90600Y245725D02*
X77600Y245725D01*
X68600Y236725D01*
X125600Y245725D02*
X134600Y236725D01*
X92100Y242224D02*
X91386Y241984D01*
X90678Y241727D01*
X89977Y241452D01*
X89282Y241160D01*
X88595Y240852D01*
X87916Y240527D01*
X87244Y240185D01*
X86582Y239827D01*
X85928Y239453D01*
X85283Y239064D01*
X84648Y238658D01*
X84023Y238238D01*
X83409Y237802D01*
X82805Y237351D01*
X82213Y236886D01*
X81632Y236407D01*
X81063Y235913D01*
X80506Y235406D01*
X79961Y234885D01*
X79430Y234352D01*
X78911Y233805D01*
X78407Y233246D01*
X77915Y232675D01*
X77438Y232092D01*
X76976Y231498D01*
X76527Y230892D01*
X76094Y230276D01*
X75676Y229650D01*
X75273Y229013D01*
X74886Y228367D01*
X74515Y227712D01*
X74160Y227047D01*
X73821Y226375D01*
X73499Y225694D01*
X73193Y225005D01*
X72904Y224310D01*
X72632Y223607D01*
X72378Y222898D01*
X72140Y222183D01*
X71921Y221463D01*
X71718Y220737D01*
X71534Y220007D01*
X71367Y219272D01*
X71219Y218534D01*
X71088Y217792D01*
X70976Y217047D01*
X70881Y216300D01*
X70805Y215550D01*
X70748Y214799D01*
X70708Y214047D01*
X70687Y213294D01*
X70684Y212541D01*
X70700Y211788D01*
X70734Y211035D01*
X70786Y210284D01*
X70856Y209534D01*
X70945Y208786D01*
X71052Y208040D01*
X71177Y207298D01*
X71320Y206558D01*
X71481Y205822D01*
X71660Y205091D01*
X71857Y204363D01*
X72072Y203641D01*
X72304Y202925D01*
X72553Y202214D01*
X72820Y201509D01*
X73103Y200812D01*
X73404Y200121D01*
X73721Y199438D01*
X74055Y198763D01*
X74405Y198096D01*
X74772Y197438D01*
X75154Y196789D01*
X75552Y196149D01*
X75965Y195519D01*
X76394Y194900D01*
X76838Y194291D01*
X77296Y193693D01*
X77769Y193107D01*
X78256Y192532D01*
X78756Y191970D01*
X79271Y191419D01*
X79798Y190882D01*
X80339Y190357D01*
X80892Y189846D01*
X81457Y189348D01*
X82035Y188864D01*
X82624Y188395D01*
X83224Y187940D01*
X83835Y187499D01*
X84457Y187074D01*
X85089Y186664D01*
X85730Y186270D01*
X86382Y185891D01*
X87042Y185528D01*
X87711Y185182D01*
X88388Y184851D01*
X89072Y184538D01*
X89765Y184241D01*
X90464Y183961D01*
X91170Y183698D01*
X91882Y183453D01*
X92600Y183225D01*
X111100Y183226D02*
X111814Y183466D01*
X112522Y183723D01*
X113223Y183998D01*
X113918Y184290D01*
X114605Y184598D01*
X115284Y184923D01*
X115956Y185265D01*
X116618Y185623D01*
X117272Y185997D01*
X117917Y186386D01*
X118552Y186792D01*
X119177Y187212D01*
X119791Y187648D01*
X120395Y188099D01*
X120987Y188564D01*
X121568Y189043D01*
X122137Y189537D01*
X122694Y190044D01*
X123239Y190565D01*
X123770Y191098D01*
X124289Y191645D01*
X124793Y192204D01*
X125285Y192775D01*
X125762Y193358D01*
X126224Y193952D01*
X126673Y194558D01*
X127106Y195174D01*
X127524Y195800D01*
X127927Y196437D01*
X128314Y197083D01*
X128685Y197738D01*
X129040Y198403D01*
X129379Y199075D01*
X129701Y199756D01*
X130007Y200445D01*
X130296Y201140D01*
X130568Y201843D01*
X130822Y202552D01*
X131060Y203267D01*
X131279Y203987D01*
X131482Y204713D01*
X131666Y205443D01*
X131833Y206178D01*
X131981Y206916D01*
X132112Y207658D01*
X132224Y208403D01*
X132319Y209150D01*
X132395Y209900D01*
X132452Y210651D01*
X132492Y211403D01*
X132513Y212156D01*
X132516Y212909D01*
X132500Y213662D01*
X132466Y214415D01*
X132414Y215166D01*
X132344Y215916D01*
X132255Y216664D01*
X132148Y217410D01*
X132023Y218152D01*
X131880Y218892D01*
X131719Y219628D01*
X131540Y220359D01*
X131343Y221087D01*
X131128Y221809D01*
X130896Y222525D01*
X130647Y223236D01*
X130380Y223941D01*
X130097Y224638D01*
X129796Y225329D01*
X129479Y226012D01*
X129145Y226687D01*
X128795Y227354D01*
X128428Y228012D01*
X128046Y228661D01*
X127648Y229301D01*
X127235Y229931D01*
X126806Y230550D01*
X126362Y231159D01*
X125904Y231757D01*
X125431Y232343D01*
X124944Y232918D01*
X124444Y233480D01*
X123929Y234031D01*
X123402Y234568D01*
X122861Y235093D01*
X122308Y235604D01*
X121743Y236102D01*
X121165Y236586D01*
X120576Y237055D01*
X119976Y237510D01*
X119365Y237951D01*
X118743Y238376D01*
X118111Y238786D01*
X117470Y239180D01*
X116818Y239559D01*
X116158Y239922D01*
X115489Y240268D01*
X114812Y240599D01*
X114128Y240912D01*
X113435Y241209D01*
X112736Y241489D01*
X112030Y241752D01*
X111318Y241997D01*
X110600Y242225D01*
D13*
X81071Y163283D02*
X78474Y163283D01*
X81071Y163283D02*
X81170Y163285D01*
X81270Y163291D01*
X81369Y163300D01*
X81467Y163313D01*
X81565Y163330D01*
X81663Y163351D01*
X81759Y163376D01*
X81854Y163404D01*
X81948Y163436D01*
X82041Y163471D01*
X82133Y163510D01*
X82223Y163553D01*
X82311Y163598D01*
X82398Y163648D01*
X82482Y163700D01*
X82565Y163756D01*
X82645Y163814D01*
X82723Y163876D01*
X82798Y163941D01*
X82871Y164009D01*
X82941Y164079D01*
X83009Y164152D01*
X83074Y164227D01*
X83136Y164305D01*
X83194Y164385D01*
X83250Y164468D01*
X83302Y164552D01*
X83352Y164639D01*
X83397Y164727D01*
X83440Y164817D01*
X83479Y164909D01*
X83514Y165002D01*
X83546Y165096D01*
X83574Y165191D01*
X83599Y165287D01*
X83620Y165385D01*
X83637Y165483D01*
X83650Y165581D01*
X83659Y165680D01*
X83665Y165780D01*
X83667Y165879D01*
X83667Y172371D01*
X83665Y172470D01*
X83659Y172570D01*
X83650Y172669D01*
X83637Y172767D01*
X83620Y172865D01*
X83599Y172963D01*
X83574Y173059D01*
X83546Y173154D01*
X83514Y173248D01*
X83479Y173341D01*
X83440Y173433D01*
X83397Y173523D01*
X83352Y173611D01*
X83302Y173698D01*
X83250Y173782D01*
X83194Y173865D01*
X83136Y173945D01*
X83074Y174023D01*
X83009Y174098D01*
X82941Y174171D01*
X82871Y174241D01*
X82798Y174309D01*
X82723Y174374D01*
X82645Y174436D01*
X82565Y174494D01*
X82482Y174550D01*
X82398Y174602D01*
X82311Y174652D01*
X82223Y174697D01*
X82133Y174740D01*
X82041Y174779D01*
X81948Y174814D01*
X81854Y174846D01*
X81759Y174874D01*
X81663Y174899D01*
X81565Y174920D01*
X81467Y174937D01*
X81369Y174950D01*
X81270Y174959D01*
X81170Y174965D01*
X81071Y174967D01*
X78474Y174967D01*
X74109Y166529D02*
X74107Y166642D01*
X74101Y166755D01*
X74091Y166868D01*
X74077Y166981D01*
X74060Y167093D01*
X74038Y167204D01*
X74013Y167314D01*
X73983Y167424D01*
X73950Y167532D01*
X73913Y167639D01*
X73873Y167745D01*
X73828Y167849D01*
X73780Y167952D01*
X73729Y168053D01*
X73674Y168152D01*
X73616Y168249D01*
X73554Y168344D01*
X73489Y168437D01*
X73421Y168527D01*
X73350Y168615D01*
X73275Y168701D01*
X73198Y168784D01*
X73118Y168864D01*
X73035Y168941D01*
X72949Y169016D01*
X72861Y169087D01*
X72771Y169155D01*
X72678Y169220D01*
X72583Y169282D01*
X72486Y169340D01*
X72387Y169395D01*
X72286Y169446D01*
X72183Y169494D01*
X72079Y169539D01*
X71973Y169579D01*
X71866Y169616D01*
X71758Y169649D01*
X71648Y169679D01*
X71538Y169704D01*
X71427Y169726D01*
X71315Y169743D01*
X71202Y169757D01*
X71089Y169767D01*
X70976Y169773D01*
X70863Y169775D01*
X70750Y169773D01*
X70637Y169767D01*
X70524Y169757D01*
X70411Y169743D01*
X70299Y169726D01*
X70188Y169704D01*
X70078Y169679D01*
X69968Y169649D01*
X69860Y169616D01*
X69753Y169579D01*
X69647Y169539D01*
X69543Y169494D01*
X69440Y169446D01*
X69339Y169395D01*
X69240Y169340D01*
X69143Y169282D01*
X69048Y169220D01*
X68955Y169155D01*
X68865Y169087D01*
X68777Y169016D01*
X68691Y168941D01*
X68608Y168864D01*
X68528Y168784D01*
X68451Y168701D01*
X68376Y168615D01*
X68305Y168527D01*
X68237Y168437D01*
X68172Y168344D01*
X68110Y168249D01*
X68052Y168152D01*
X67997Y168053D01*
X67946Y167952D01*
X67898Y167849D01*
X67853Y167745D01*
X67813Y167639D01*
X67776Y167532D01*
X67743Y167424D01*
X67713Y167314D01*
X67688Y167204D01*
X67666Y167093D01*
X67649Y166981D01*
X67635Y166868D01*
X67625Y166755D01*
X67619Y166642D01*
X67617Y166529D01*
X67619Y166416D01*
X67625Y166303D01*
X67635Y166190D01*
X67649Y166077D01*
X67666Y165965D01*
X67688Y165854D01*
X67713Y165744D01*
X67743Y165634D01*
X67776Y165526D01*
X67813Y165419D01*
X67853Y165313D01*
X67898Y165209D01*
X67946Y165106D01*
X67997Y165005D01*
X68052Y164906D01*
X68110Y164809D01*
X68172Y164714D01*
X68237Y164621D01*
X68305Y164531D01*
X68376Y164443D01*
X68451Y164357D01*
X68528Y164274D01*
X68608Y164194D01*
X68691Y164117D01*
X68777Y164042D01*
X68865Y163971D01*
X68955Y163903D01*
X69048Y163838D01*
X69143Y163776D01*
X69240Y163718D01*
X69339Y163663D01*
X69440Y163612D01*
X69543Y163564D01*
X69647Y163519D01*
X69753Y163479D01*
X69860Y163442D01*
X69968Y163409D01*
X70078Y163379D01*
X70188Y163354D01*
X70299Y163332D01*
X70411Y163315D01*
X70524Y163301D01*
X70637Y163291D01*
X70750Y163285D01*
X70863Y163283D01*
X70976Y163285D01*
X71089Y163291D01*
X71202Y163301D01*
X71315Y163315D01*
X71427Y163332D01*
X71538Y163354D01*
X71648Y163379D01*
X71758Y163409D01*
X71866Y163442D01*
X71973Y163479D01*
X72079Y163519D01*
X72183Y163564D01*
X72286Y163612D01*
X72387Y163663D01*
X72486Y163718D01*
X72583Y163776D01*
X72678Y163838D01*
X72771Y163903D01*
X72861Y163971D01*
X72949Y164042D01*
X73035Y164117D01*
X73118Y164194D01*
X73198Y164274D01*
X73275Y164357D01*
X73350Y164443D01*
X73421Y164531D01*
X73489Y164621D01*
X73554Y164714D01*
X73616Y164809D01*
X73674Y164906D01*
X73729Y165005D01*
X73780Y165106D01*
X73828Y165209D01*
X73873Y165313D01*
X73913Y165419D01*
X73950Y165526D01*
X73983Y165634D01*
X74013Y165744D01*
X74038Y165854D01*
X74060Y165965D01*
X74077Y166077D01*
X74091Y166190D01*
X74101Y166303D01*
X74107Y166416D01*
X74109Y166529D01*
X73459Y172371D02*
X73457Y172472D01*
X73451Y172572D01*
X73441Y172672D01*
X73428Y172772D01*
X73410Y172871D01*
X73389Y172970D01*
X73364Y173067D01*
X73335Y173164D01*
X73302Y173259D01*
X73266Y173353D01*
X73226Y173445D01*
X73183Y173536D01*
X73136Y173625D01*
X73086Y173712D01*
X73032Y173798D01*
X72975Y173881D01*
X72915Y173961D01*
X72852Y174040D01*
X72785Y174116D01*
X72716Y174189D01*
X72644Y174259D01*
X72570Y174327D01*
X72493Y174392D01*
X72413Y174453D01*
X72331Y174512D01*
X72247Y174567D01*
X72161Y174619D01*
X72073Y174668D01*
X71983Y174713D01*
X71891Y174755D01*
X71798Y174793D01*
X71703Y174827D01*
X71608Y174858D01*
X71511Y174885D01*
X71413Y174908D01*
X71314Y174928D01*
X71214Y174943D01*
X71114Y174955D01*
X71014Y174963D01*
X70913Y174967D01*
X70813Y174967D01*
X70712Y174963D01*
X70612Y174955D01*
X70512Y174943D01*
X70412Y174928D01*
X70313Y174908D01*
X70215Y174885D01*
X70118Y174858D01*
X70023Y174827D01*
X69928Y174793D01*
X69835Y174755D01*
X69743Y174713D01*
X69653Y174668D01*
X69565Y174619D01*
X69479Y174567D01*
X69395Y174512D01*
X69313Y174453D01*
X69233Y174392D01*
X69156Y174327D01*
X69082Y174259D01*
X69010Y174189D01*
X68941Y174116D01*
X68874Y174040D01*
X68811Y173961D01*
X68751Y173881D01*
X68694Y173798D01*
X68640Y173712D01*
X68590Y173625D01*
X68543Y173536D01*
X68500Y173445D01*
X68460Y173353D01*
X68424Y173259D01*
X68391Y173164D01*
X68362Y173067D01*
X68337Y172970D01*
X68316Y172871D01*
X68298Y172772D01*
X68285Y172672D01*
X68275Y172572D01*
X68269Y172472D01*
X68267Y172371D01*
X68269Y172270D01*
X68275Y172170D01*
X68285Y172070D01*
X68298Y171970D01*
X68316Y171871D01*
X68337Y171772D01*
X68362Y171675D01*
X68391Y171578D01*
X68424Y171483D01*
X68460Y171389D01*
X68500Y171297D01*
X68543Y171206D01*
X68590Y171117D01*
X68640Y171030D01*
X68694Y170944D01*
X68751Y170861D01*
X68811Y170781D01*
X68874Y170702D01*
X68941Y170626D01*
X69010Y170553D01*
X69082Y170483D01*
X69156Y170415D01*
X69233Y170350D01*
X69313Y170289D01*
X69395Y170230D01*
X69479Y170175D01*
X69565Y170123D01*
X69653Y170074D01*
X69743Y170029D01*
X69835Y169987D01*
X69928Y169949D01*
X70023Y169915D01*
X70118Y169884D01*
X70215Y169857D01*
X70313Y169834D01*
X70412Y169814D01*
X70512Y169799D01*
X70612Y169787D01*
X70712Y169779D01*
X70813Y169775D01*
X70913Y169775D01*
X71014Y169779D01*
X71114Y169787D01*
X71214Y169799D01*
X71314Y169814D01*
X71413Y169834D01*
X71511Y169857D01*
X71608Y169884D01*
X71703Y169915D01*
X71798Y169949D01*
X71891Y169987D01*
X71983Y170029D01*
X72073Y170074D01*
X72161Y170123D01*
X72247Y170175D01*
X72331Y170230D01*
X72413Y170289D01*
X72493Y170350D01*
X72570Y170415D01*
X72644Y170483D01*
X72716Y170553D01*
X72785Y170626D01*
X72852Y170702D01*
X72915Y170781D01*
X72975Y170861D01*
X73032Y170944D01*
X73086Y171030D01*
X73136Y171117D01*
X73183Y171206D01*
X73226Y171297D01*
X73266Y171389D01*
X73302Y171483D01*
X73335Y171578D01*
X73364Y171675D01*
X73389Y171772D01*
X73410Y171871D01*
X73428Y171970D01*
X73441Y172070D01*
X73451Y172170D01*
X73457Y172270D01*
X73459Y172371D01*
M02*
