G04 EAGLE Gerber RS-274X export*
G75*
%MOMM*%
%FSLAX34Y34*%
%LPD*%
%INSoldermask Bottom*%
%IPPOS*%
%AMOC8*
5,1,8,0,0,1.08239X$1,22.5*%
G01*
%ADD10C,1.666238*%
%ADD11R,2.003200X2.003200*%
%ADD12C,2.003200*%
%ADD13C,2.082800*%
%ADD14C,2.032000*%
%ADD15R,1.803200X3.703200*%
%ADD16C,0.655600*%


D10*
X56185Y577850D02*
X70815Y577850D01*
X70815Y552450D02*
X56185Y552450D01*
X56185Y425450D02*
X70815Y425450D01*
X70815Y400050D02*
X56185Y400050D01*
X56185Y527050D02*
X70815Y527050D01*
X70815Y501650D02*
X56185Y501650D01*
X56185Y450850D02*
X70815Y450850D01*
X70815Y476250D02*
X56185Y476250D01*
X132385Y400050D02*
X147015Y400050D01*
X147015Y425450D02*
X132385Y425450D01*
X132385Y450850D02*
X147015Y450850D01*
X147015Y476250D02*
X132385Y476250D01*
X132385Y501650D02*
X147015Y501650D01*
X147015Y527050D02*
X132385Y527050D01*
X132385Y552450D02*
X147015Y552450D01*
X147015Y577850D02*
X132385Y577850D01*
D11*
X165100Y680650D03*
D12*
X165100Y767150D03*
D11*
X38100Y680650D03*
D12*
X38100Y767150D03*
D13*
X88900Y641350D03*
X114300Y641350D03*
X88900Y666750D03*
X114300Y666750D03*
X88900Y692150D03*
X114300Y692150D03*
X88900Y717550D03*
X114300Y717550D03*
X88900Y742950D03*
X114300Y742950D03*
D14*
X47244Y825500D02*
X28956Y825500D01*
X28956Y850900D02*
X47244Y850900D01*
X47244Y876300D02*
X28956Y876300D01*
X28956Y901700D02*
X47244Y901700D01*
X47244Y927100D02*
X28956Y927100D01*
X28956Y952500D02*
X47244Y952500D01*
X47244Y977900D02*
X28956Y977900D01*
X28956Y1003300D02*
X47244Y1003300D01*
X47244Y1028700D02*
X28956Y1028700D01*
X28956Y1054100D02*
X47244Y1054100D01*
X155956Y825500D02*
X174244Y825500D01*
X174244Y850900D02*
X155956Y850900D01*
X155956Y876300D02*
X174244Y876300D01*
X174244Y901700D02*
X155956Y901700D01*
X155956Y927100D02*
X174244Y927100D01*
X174244Y952500D02*
X155956Y952500D01*
X155956Y977900D02*
X174244Y977900D01*
X174244Y1003300D02*
X155956Y1003300D01*
X155956Y1028700D02*
X174244Y1028700D01*
X174244Y1054100D02*
X155956Y1054100D01*
X76200Y123444D02*
X76200Y105156D01*
X101600Y105156D02*
X101600Y123444D01*
X127000Y123444D02*
X127000Y105156D01*
D15*
X101600Y350850D03*
X101600Y296850D03*
X101600Y239725D03*
X101600Y185725D03*
D16*
X53721Y658368D03*
X58293Y1148715D03*
X115697Y314579D03*
X126873Y924687D03*
X118872Y916686D03*
X41148Y304038D03*
X52578Y310896D03*
X86868Y195072D03*
X68580Y786384D03*
X105156Y886968D03*
X141732Y742950D03*
X172593Y704088D03*
X147447Y337185D03*
X147447Y275971D03*
X113157Y275463D03*
X113157Y886968D03*
X120015Y580644D03*
X120015Y518922D03*
X133731Y377190D03*
X163449Y347472D03*
X115697Y222250D03*
X76581Y861822D03*
X59436Y763524D03*
X88011Y491490D03*
X70866Y368046D03*
X90297Y835533D03*
X144018Y645795D03*
X176022Y613791D03*
X115697Y327152D03*
X51435Y790956D03*
X24003Y708660D03*
X96012Y385191D03*
X107442Y373761D03*
X113157Y861822D03*
X98298Y566928D03*
X85725Y484632D03*
X52578Y253492D03*
X51435Y716661D03*
X38862Y376047D03*
X50292Y364617D03*
X100584Y210312D03*
X158877Y810387D03*
X180594Y368046D03*
X70866Y249428D03*
X57150Y346075D03*
X81153Y418338D03*
X30861Y753237D03*
X153162Y292608D03*
X153162Y332613D03*
X108585Y507492D03*
X90297Y764667D03*
X146304Y149987D03*
X147447Y256032D03*
X100584Y906399D03*
X65151Y665226D03*
X65151Y606933D03*
X56007Y145923D03*
X49657Y234950D03*
X19939Y323469D03*
X113157Y962406D03*
X67437Y1069848D03*
X42291Y1156716D03*
X33147Y642366D03*
X61722Y1003554D03*
X134874Y1061847D03*
X163449Y1151001D03*
X178308Y774954D03*
X134874Y1043559D03*
X59436Y1010412D03*
X171450Y605790D03*
X69723Y912114D03*
X69723Y793242D03*
X118872Y757809D03*
X157734Y236601D03*
X164592Y563499D03*
X176022Y660654D03*
X148590Y804672D03*
X110871Y932688D03*
M02*
