G04 EAGLE Gerber RS-274X export*
G75*
%MOMM*%
%FSLAX34Y34*%
%LPD*%
%INBoard Outline*%
%IPPOS*%
%AMOC8*
5,1,8,0,0,1.08239X$1,22.5*%
G01*
%ADD10C,0.000000*%
%ADD11C,0.254000*%


D10*
X184150Y88900D02*
X19050Y88900D01*
X18892Y88902D01*
X18733Y88908D01*
X18575Y88918D01*
X18418Y88932D01*
X18260Y88949D01*
X18104Y88971D01*
X17947Y88996D01*
X17792Y89026D01*
X17637Y89059D01*
X17483Y89096D01*
X17330Y89137D01*
X17178Y89182D01*
X17028Y89231D01*
X16878Y89283D01*
X16730Y89339D01*
X16583Y89399D01*
X16438Y89462D01*
X16295Y89529D01*
X16153Y89599D01*
X16013Y89673D01*
X15875Y89751D01*
X15739Y89832D01*
X15605Y89916D01*
X15473Y90003D01*
X15343Y90094D01*
X15216Y90188D01*
X15091Y90285D01*
X14968Y90386D01*
X14848Y90489D01*
X14731Y90595D01*
X14616Y90704D01*
X14504Y90816D01*
X14395Y90931D01*
X14289Y91048D01*
X14186Y91168D01*
X14085Y91291D01*
X13988Y91416D01*
X13894Y91543D01*
X13803Y91673D01*
X13716Y91805D01*
X13632Y91939D01*
X13551Y92075D01*
X13473Y92213D01*
X13399Y92353D01*
X13329Y92495D01*
X13262Y92638D01*
X13199Y92783D01*
X13139Y92930D01*
X13083Y93078D01*
X13031Y93228D01*
X12982Y93378D01*
X12937Y93530D01*
X12896Y93683D01*
X12859Y93837D01*
X12826Y93992D01*
X12796Y94147D01*
X12771Y94304D01*
X12749Y94460D01*
X12732Y94618D01*
X12718Y94775D01*
X12708Y94933D01*
X12702Y95092D01*
X12700Y95250D01*
X12700Y1187450D01*
X12702Y1187608D01*
X12708Y1187767D01*
X12718Y1187925D01*
X12732Y1188082D01*
X12749Y1188240D01*
X12771Y1188396D01*
X12796Y1188553D01*
X12826Y1188708D01*
X12859Y1188863D01*
X12896Y1189017D01*
X12937Y1189170D01*
X12982Y1189322D01*
X13031Y1189472D01*
X13083Y1189622D01*
X13139Y1189770D01*
X13199Y1189917D01*
X13262Y1190062D01*
X13329Y1190205D01*
X13399Y1190347D01*
X13473Y1190487D01*
X13551Y1190625D01*
X13632Y1190761D01*
X13716Y1190895D01*
X13803Y1191027D01*
X13894Y1191157D01*
X13988Y1191284D01*
X14085Y1191409D01*
X14186Y1191532D01*
X14289Y1191652D01*
X14395Y1191769D01*
X14504Y1191884D01*
X14616Y1191996D01*
X14731Y1192105D01*
X14848Y1192211D01*
X14968Y1192314D01*
X15091Y1192415D01*
X15216Y1192512D01*
X15343Y1192606D01*
X15473Y1192697D01*
X15605Y1192784D01*
X15739Y1192868D01*
X15875Y1192949D01*
X16013Y1193027D01*
X16153Y1193101D01*
X16295Y1193171D01*
X16438Y1193238D01*
X16583Y1193301D01*
X16730Y1193361D01*
X16878Y1193417D01*
X17028Y1193469D01*
X17178Y1193518D01*
X17330Y1193563D01*
X17483Y1193604D01*
X17637Y1193641D01*
X17792Y1193674D01*
X17947Y1193704D01*
X18104Y1193729D01*
X18260Y1193751D01*
X18418Y1193768D01*
X18575Y1193782D01*
X18733Y1193792D01*
X18892Y1193798D01*
X19050Y1193800D01*
X184150Y1193800D01*
X184308Y1193798D01*
X184467Y1193792D01*
X184625Y1193782D01*
X184782Y1193768D01*
X184940Y1193751D01*
X185096Y1193729D01*
X185253Y1193704D01*
X185408Y1193674D01*
X185563Y1193641D01*
X185717Y1193604D01*
X185870Y1193563D01*
X186022Y1193518D01*
X186172Y1193469D01*
X186322Y1193417D01*
X186470Y1193361D01*
X186617Y1193301D01*
X186762Y1193238D01*
X186905Y1193171D01*
X187047Y1193101D01*
X187187Y1193027D01*
X187325Y1192949D01*
X187461Y1192868D01*
X187595Y1192784D01*
X187727Y1192697D01*
X187857Y1192606D01*
X187984Y1192512D01*
X188109Y1192415D01*
X188232Y1192314D01*
X188352Y1192211D01*
X188469Y1192105D01*
X188584Y1191996D01*
X188696Y1191884D01*
X188805Y1191769D01*
X188911Y1191652D01*
X189014Y1191532D01*
X189115Y1191409D01*
X189212Y1191284D01*
X189306Y1191157D01*
X189397Y1191027D01*
X189484Y1190895D01*
X189568Y1190761D01*
X189649Y1190625D01*
X189727Y1190487D01*
X189801Y1190347D01*
X189871Y1190205D01*
X189938Y1190062D01*
X190001Y1189917D01*
X190061Y1189770D01*
X190117Y1189622D01*
X190169Y1189472D01*
X190218Y1189322D01*
X190263Y1189170D01*
X190304Y1189017D01*
X190341Y1188863D01*
X190374Y1188708D01*
X190404Y1188553D01*
X190429Y1188396D01*
X190451Y1188240D01*
X190468Y1188082D01*
X190482Y1187925D01*
X190492Y1187767D01*
X190498Y1187608D01*
X190500Y1187450D01*
X190500Y95250D01*
X190498Y95092D01*
X190492Y94933D01*
X190482Y94775D01*
X190468Y94618D01*
X190451Y94460D01*
X190429Y94304D01*
X190404Y94147D01*
X190374Y93992D01*
X190341Y93837D01*
X190304Y93683D01*
X190263Y93530D01*
X190218Y93378D01*
X190169Y93228D01*
X190117Y93078D01*
X190061Y92930D01*
X190001Y92783D01*
X189938Y92638D01*
X189871Y92495D01*
X189801Y92353D01*
X189727Y92213D01*
X189649Y92075D01*
X189568Y91939D01*
X189484Y91805D01*
X189397Y91673D01*
X189306Y91543D01*
X189212Y91416D01*
X189115Y91291D01*
X189014Y91168D01*
X188911Y91048D01*
X188805Y90931D01*
X188696Y90816D01*
X188584Y90704D01*
X188469Y90595D01*
X188352Y90489D01*
X188232Y90386D01*
X188109Y90285D01*
X187984Y90188D01*
X187857Y90094D01*
X187727Y90003D01*
X187595Y89916D01*
X187461Y89832D01*
X187325Y89751D01*
X187187Y89673D01*
X187047Y89599D01*
X186905Y89529D01*
X186762Y89462D01*
X186617Y89399D01*
X186470Y89339D01*
X186322Y89283D01*
X186172Y89231D01*
X186022Y89182D01*
X185870Y89137D01*
X185717Y89096D01*
X185563Y89059D01*
X185408Y89026D01*
X185253Y88996D01*
X185096Y88971D01*
X184940Y88949D01*
X184782Y88932D01*
X184625Y88918D01*
X184467Y88908D01*
X184308Y88902D01*
X184150Y88900D01*
D11*
X12700Y95250D02*
X12724Y94697D01*
X12796Y94147D01*
X12916Y93607D01*
X13083Y93078D01*
X13295Y92566D01*
X13551Y92075D01*
X13848Y91608D01*
X14186Y91168D01*
X14560Y90760D01*
X14968Y90386D01*
X15408Y90048D01*
X15875Y89751D01*
X16366Y89495D01*
X16878Y89283D01*
X17407Y89116D01*
X17947Y88996D01*
X18497Y88924D01*
X19050Y88900D01*
X184150Y88900D01*
X184703Y88924D01*
X185253Y88996D01*
X185794Y89116D01*
X186322Y89283D01*
X186834Y89495D01*
X187325Y89751D01*
X187792Y90048D01*
X188232Y90386D01*
X188640Y90760D01*
X189014Y91168D01*
X189352Y91608D01*
X189649Y92075D01*
X189905Y92566D01*
X190117Y93078D01*
X190284Y93607D01*
X190404Y94147D01*
X190476Y94697D01*
X190500Y95250D01*
X190500Y1187450D01*
X190476Y1188003D01*
X190404Y1188553D01*
X190284Y1189094D01*
X190117Y1189622D01*
X189905Y1190134D01*
X189649Y1190625D01*
X189352Y1191092D01*
X189014Y1191532D01*
X188640Y1191940D01*
X188232Y1192314D01*
X187792Y1192652D01*
X187325Y1192949D01*
X186834Y1193205D01*
X186322Y1193417D01*
X185794Y1193584D01*
X185253Y1193704D01*
X184703Y1193776D01*
X184150Y1193800D01*
X19050Y1193800D01*
X18497Y1193776D01*
X17947Y1193704D01*
X17407Y1193584D01*
X16878Y1193417D01*
X16366Y1193205D01*
X15875Y1192949D01*
X15408Y1192652D01*
X14968Y1192314D01*
X14560Y1191940D01*
X14186Y1191532D01*
X13848Y1191092D01*
X13551Y1190625D01*
X13295Y1190134D01*
X13083Y1189622D01*
X12916Y1189094D01*
X12796Y1188553D01*
X12724Y1188003D01*
X12700Y1187450D01*
X12700Y95250D01*
M02*
