G04 EAGLE Gerber RS-274X export*
G75*
%MOMM*%
%FSLAX34Y34*%
%LPD*%
%INBottom Copper*%
%IPPOS*%
%AMOC8*
5,1,8,0,0,1.08239X$1,22.5*%
G01*
%ADD10C,1.463037*%
%ADD11R,1.800000X1.800000*%
%ADD12C,1.800000*%
%ADD13C,1.879600*%
%ADD14C,1.828800*%
%ADD15R,1.600000X3.500000*%
%ADD16C,0.406400*%
%ADD17C,0.452400*%
%ADD18C,0.254000*%

G36*
X71202Y90901D02*
X71202Y90901D01*
X71206Y90901D01*
X71400Y90921D01*
X71598Y90941D01*
X71602Y90942D01*
X71607Y90942D01*
X71794Y91001D01*
X71983Y91059D01*
X71987Y91061D01*
X71991Y91062D01*
X72166Y91158D01*
X72337Y91251D01*
X72340Y91253D01*
X72344Y91256D01*
X72497Y91384D01*
X72646Y91508D01*
X72649Y91512D01*
X72652Y91515D01*
X72777Y91671D01*
X72898Y91822D01*
X72900Y91826D01*
X72903Y91829D01*
X72996Y92010D01*
X73084Y92179D01*
X73085Y92184D01*
X73087Y92188D01*
X73141Y92378D01*
X73195Y92566D01*
X73196Y92571D01*
X73197Y92575D01*
X73212Y92767D01*
X73228Y92968D01*
X73228Y92972D01*
X73228Y92976D01*
X73204Y93170D01*
X73181Y93367D01*
X73180Y93372D01*
X73179Y93376D01*
X73118Y93561D01*
X73056Y93750D01*
X73054Y93754D01*
X73053Y93758D01*
X72956Y93927D01*
X72859Y94101D01*
X72856Y94104D01*
X72853Y94108D01*
X72726Y94255D01*
X72595Y94405D01*
X72592Y94408D01*
X72589Y94412D01*
X72434Y94530D01*
X72277Y94652D01*
X72273Y94654D01*
X72270Y94657D01*
X71975Y94809D01*
X69869Y95681D01*
X66725Y98825D01*
X65023Y102933D01*
X65023Y125667D01*
X66725Y129775D01*
X69869Y132919D01*
X73977Y134621D01*
X78423Y134621D01*
X82531Y132919D01*
X85675Y129775D01*
X86760Y127156D01*
X86802Y127078D01*
X86835Y126995D01*
X86897Y126900D01*
X86950Y126801D01*
X87007Y126732D01*
X87055Y126658D01*
X87135Y126578D01*
X87207Y126491D01*
X87276Y126435D01*
X87338Y126371D01*
X87432Y126308D01*
X87519Y126237D01*
X87598Y126196D01*
X87672Y126146D01*
X87776Y126102D01*
X87876Y126050D01*
X87961Y126025D01*
X88043Y125991D01*
X88154Y125968D01*
X88262Y125937D01*
X88351Y125929D01*
X88438Y125912D01*
X88551Y125912D01*
X88663Y125902D01*
X88752Y125912D01*
X88840Y125912D01*
X88951Y125935D01*
X89063Y125947D01*
X89148Y125974D01*
X89235Y125992D01*
X89339Y126036D01*
X89447Y126070D01*
X89524Y126114D01*
X89606Y126148D01*
X89700Y126212D01*
X89798Y126267D01*
X89866Y126324D01*
X89939Y126374D01*
X90018Y126455D01*
X90104Y126529D01*
X90159Y126599D01*
X90221Y126662D01*
X90283Y126756D01*
X90352Y126846D01*
X90392Y126925D01*
X90441Y126999D01*
X90495Y127130D01*
X90533Y127205D01*
X90545Y127250D01*
X90569Y127305D01*
X90771Y127929D01*
X91606Y129568D01*
X92687Y131056D01*
X93988Y132357D01*
X95476Y133438D01*
X97114Y134273D01*
X98864Y134841D01*
X99061Y134872D01*
X99061Y114808D01*
X99062Y114790D01*
X99061Y114773D01*
X99082Y114590D01*
X99101Y114408D01*
X99106Y114391D01*
X99108Y114373D01*
X99165Y114198D01*
X99219Y114023D01*
X99227Y114007D01*
X99233Y113990D01*
X99323Y113830D01*
X99410Y113669D01*
X99422Y113655D01*
X99431Y113639D01*
X99551Y113500D01*
X99668Y113359D01*
X99682Y113348D01*
X99694Y113335D01*
X99839Y113222D01*
X99982Y113107D01*
X99998Y113099D01*
X100012Y113088D01*
X100177Y113006D01*
X100339Y112922D01*
X100356Y112917D01*
X100372Y112909D01*
X100551Y112861D01*
X100726Y112810D01*
X100744Y112809D01*
X100761Y112804D01*
X101092Y112777D01*
X102108Y112777D01*
X102126Y112779D01*
X102144Y112777D01*
X102326Y112799D01*
X102509Y112817D01*
X102526Y112822D01*
X102543Y112824D01*
X102718Y112881D01*
X102894Y112935D01*
X102909Y112943D01*
X102926Y112949D01*
X103086Y113039D01*
X103248Y113127D01*
X103261Y113138D01*
X103277Y113147D01*
X103416Y113267D01*
X103557Y113385D01*
X103568Y113398D01*
X103582Y113410D01*
X103694Y113555D01*
X103809Y113698D01*
X103817Y113714D01*
X103828Y113728D01*
X103910Y113893D01*
X103995Y114056D01*
X104000Y114073D01*
X104008Y114089D01*
X104055Y114267D01*
X104106Y114442D01*
X104108Y114460D01*
X104112Y114477D01*
X104139Y114808D01*
X104139Y134872D01*
X104336Y134841D01*
X106086Y134273D01*
X107724Y133438D01*
X109212Y132357D01*
X110513Y131056D01*
X111594Y129568D01*
X112429Y127929D01*
X112631Y127305D01*
X112667Y127224D01*
X112693Y127139D01*
X112748Y127040D01*
X112793Y126937D01*
X112844Y126864D01*
X112887Y126786D01*
X112959Y126700D01*
X113024Y126607D01*
X113089Y126546D01*
X113146Y126478D01*
X113234Y126408D01*
X113316Y126330D01*
X113391Y126282D01*
X113461Y126227D01*
X113561Y126176D01*
X113657Y126115D01*
X113740Y126084D01*
X113819Y126043D01*
X113927Y126012D01*
X114033Y125972D01*
X114121Y125958D01*
X114206Y125933D01*
X114319Y125925D01*
X114430Y125906D01*
X114519Y125909D01*
X114608Y125902D01*
X114720Y125916D01*
X114833Y125920D01*
X114919Y125940D01*
X115007Y125951D01*
X115115Y125986D01*
X115225Y126013D01*
X115305Y126050D01*
X115390Y126078D01*
X115488Y126134D01*
X115590Y126181D01*
X115662Y126233D01*
X115739Y126277D01*
X115825Y126351D01*
X115916Y126418D01*
X115976Y126483D01*
X116043Y126541D01*
X116112Y126631D01*
X116188Y126714D01*
X116234Y126790D01*
X116288Y126861D01*
X116353Y126986D01*
X116397Y127059D01*
X116412Y127102D01*
X116440Y127156D01*
X117525Y129775D01*
X120669Y132919D01*
X124777Y134621D01*
X129223Y134621D01*
X133331Y132919D01*
X136475Y129775D01*
X138177Y125667D01*
X138177Y102933D01*
X136475Y98825D01*
X133331Y95681D01*
X131225Y94809D01*
X131222Y94807D01*
X131217Y94805D01*
X131045Y94712D01*
X130871Y94618D01*
X130867Y94616D01*
X130863Y94613D01*
X130714Y94489D01*
X130560Y94362D01*
X130557Y94359D01*
X130554Y94356D01*
X130431Y94203D01*
X130306Y94049D01*
X130304Y94045D01*
X130302Y94042D01*
X130211Y93867D01*
X130119Y93693D01*
X130118Y93689D01*
X130116Y93685D01*
X130062Y93497D01*
X130006Y93306D01*
X130006Y93302D01*
X130005Y93298D01*
X129988Y93100D01*
X129972Y92905D01*
X129972Y92901D01*
X129972Y92896D01*
X129995Y92700D01*
X130017Y92505D01*
X130018Y92501D01*
X130019Y92497D01*
X130079Y92311D01*
X130140Y92122D01*
X130142Y92118D01*
X130144Y92114D01*
X130242Y91939D01*
X130336Y91770D01*
X130339Y91767D01*
X130341Y91763D01*
X130470Y91615D01*
X130598Y91465D01*
X130602Y91462D01*
X130605Y91458D01*
X130759Y91338D01*
X130915Y91216D01*
X130919Y91214D01*
X130923Y91212D01*
X131101Y91123D01*
X131275Y91036D01*
X131279Y91034D01*
X131283Y91032D01*
X131475Y90981D01*
X131663Y90929D01*
X131668Y90929D01*
X131672Y90928D01*
X132003Y90901D01*
X184150Y90901D01*
X184236Y90909D01*
X184415Y90918D01*
X185015Y90997D01*
X185046Y91004D01*
X185077Y91006D01*
X185241Y91050D01*
X185407Y91089D01*
X185436Y91102D01*
X185466Y91110D01*
X185766Y91252D01*
X186805Y91852D01*
X186938Y91947D01*
X187074Y92038D01*
X187101Y92065D01*
X187132Y92087D01*
X187243Y92207D01*
X187359Y92322D01*
X187383Y92357D01*
X187406Y92381D01*
X187452Y92456D01*
X187548Y92595D01*
X188148Y93634D01*
X188161Y93663D01*
X188178Y93689D01*
X188244Y93846D01*
X188314Y94001D01*
X188321Y94032D01*
X188333Y94061D01*
X188403Y94385D01*
X188482Y94985D01*
X188485Y95071D01*
X188499Y95250D01*
X188499Y358376D01*
X188498Y358384D01*
X188499Y358393D01*
X188478Y358587D01*
X188459Y358776D01*
X188457Y358785D01*
X188456Y358794D01*
X188398Y358978D01*
X188341Y359161D01*
X188337Y359169D01*
X188334Y359178D01*
X188241Y359346D01*
X188149Y359515D01*
X188144Y359522D01*
X188139Y359530D01*
X188015Y359677D01*
X187892Y359824D01*
X187885Y359830D01*
X187879Y359837D01*
X187728Y359956D01*
X187578Y360077D01*
X187570Y360081D01*
X187563Y360086D01*
X187390Y360174D01*
X187221Y360262D01*
X187212Y360265D01*
X187204Y360269D01*
X187018Y360321D01*
X186834Y360374D01*
X186825Y360374D01*
X186816Y360377D01*
X186623Y360391D01*
X186432Y360407D01*
X186424Y360406D01*
X186415Y360406D01*
X186222Y360382D01*
X186033Y360360D01*
X186024Y360357D01*
X186015Y360356D01*
X185832Y360294D01*
X185650Y360235D01*
X185642Y360230D01*
X185634Y360228D01*
X185467Y360131D01*
X185299Y360037D01*
X185292Y360031D01*
X185285Y360027D01*
X185032Y359812D01*
X177634Y352414D01*
X175104Y349884D01*
X169775Y349884D01*
X169757Y349882D01*
X169739Y349884D01*
X169557Y349863D01*
X169374Y349844D01*
X169357Y349839D01*
X169340Y349837D01*
X169165Y349780D01*
X168989Y349726D01*
X168974Y349718D01*
X168957Y349712D01*
X168797Y349622D01*
X168635Y349534D01*
X168622Y349523D01*
X168606Y349514D01*
X168467Y349394D01*
X168326Y349277D01*
X168315Y349263D01*
X168301Y349251D01*
X168189Y349106D01*
X168074Y348963D01*
X168066Y348947D01*
X168055Y348933D01*
X167973Y348768D01*
X167888Y348606D01*
X167883Y348589D01*
X167875Y348573D01*
X167828Y348394D01*
X167777Y348219D01*
X167775Y348201D01*
X167771Y348184D01*
X167744Y347853D01*
X167744Y346618D01*
X166980Y344775D01*
X166903Y344629D01*
X166895Y344603D01*
X166883Y344579D01*
X166838Y344410D01*
X166788Y344243D01*
X166786Y344216D01*
X166779Y344190D01*
X166752Y343860D01*
X166752Y278667D01*
X150255Y262170D01*
X150244Y262156D01*
X150230Y262145D01*
X150116Y262001D01*
X150000Y261859D01*
X149992Y261843D01*
X149981Y261829D01*
X149898Y261666D01*
X149811Y261503D01*
X149806Y261486D01*
X149798Y261470D01*
X149749Y261293D01*
X149697Y261117D01*
X149695Y261099D01*
X149690Y261082D01*
X149677Y260899D01*
X149660Y260716D01*
X149662Y260698D01*
X149661Y260681D01*
X149684Y260499D01*
X149704Y260316D01*
X149709Y260299D01*
X149711Y260281D01*
X149770Y260107D01*
X149825Y259932D01*
X149834Y259916D01*
X149839Y259900D01*
X149931Y259741D01*
X150020Y259580D01*
X150031Y259566D01*
X150040Y259551D01*
X150255Y259298D01*
X151088Y258465D01*
X151851Y256622D01*
X151900Y256464D01*
X151913Y256440D01*
X151921Y256415D01*
X152008Y256263D01*
X152092Y256110D01*
X152109Y256089D01*
X152122Y256066D01*
X152337Y255813D01*
X166752Y241398D01*
X166752Y232947D01*
X150202Y216397D01*
X150185Y216376D01*
X150164Y216359D01*
X150057Y216221D01*
X149947Y216085D01*
X149934Y216062D01*
X149918Y216041D01*
X149840Y215884D01*
X149758Y215730D01*
X149750Y215704D01*
X149738Y215680D01*
X149693Y215511D01*
X149643Y215344D01*
X149641Y215317D01*
X149634Y215291D01*
X149607Y214961D01*
X149607Y153599D01*
X149609Y153572D01*
X149607Y153545D01*
X149629Y153372D01*
X149647Y153199D01*
X149655Y153173D01*
X149658Y153145D01*
X149714Y152980D01*
X149765Y152814D01*
X149778Y152790D01*
X149786Y152764D01*
X149843Y152666D01*
X150599Y150841D01*
X150599Y149133D01*
X149945Y147554D01*
X148737Y146346D01*
X147158Y145692D01*
X145450Y145692D01*
X143871Y146346D01*
X142663Y147554D01*
X142009Y149133D01*
X142009Y150841D01*
X142773Y152684D01*
X142850Y152829D01*
X142857Y152855D01*
X142870Y152880D01*
X142915Y153049D01*
X142965Y153215D01*
X142967Y153242D01*
X142974Y153269D01*
X143001Y153599D01*
X143001Y218538D01*
X159551Y235088D01*
X159568Y235109D01*
X159589Y235126D01*
X159696Y235264D01*
X159806Y235400D01*
X159819Y235423D01*
X159835Y235444D01*
X159913Y235601D01*
X159995Y235755D01*
X160003Y235781D01*
X160015Y235805D01*
X160060Y235974D01*
X160110Y236141D01*
X160112Y236168D01*
X160119Y236194D01*
X160146Y236524D01*
X160146Y237821D01*
X160144Y237847D01*
X160146Y237874D01*
X160124Y238048D01*
X160106Y238221D01*
X160099Y238247D01*
X160095Y238273D01*
X160040Y238439D01*
X159988Y238606D01*
X159975Y238630D01*
X159967Y238655D01*
X159880Y238807D01*
X159796Y238960D01*
X159779Y238981D01*
X159766Y239004D01*
X159551Y239257D01*
X147666Y251142D01*
X147645Y251159D01*
X147628Y251180D01*
X147490Y251287D01*
X147354Y251397D01*
X147331Y251410D01*
X147310Y251426D01*
X147153Y251504D01*
X146999Y251586D01*
X146973Y251594D01*
X146949Y251606D01*
X146839Y251635D01*
X145014Y252391D01*
X144181Y253224D01*
X144168Y253235D01*
X144156Y253249D01*
X144012Y253362D01*
X143870Y253479D01*
X143854Y253487D01*
X143840Y253498D01*
X143676Y253582D01*
X143514Y253668D01*
X143497Y253673D01*
X143481Y253681D01*
X143304Y253730D01*
X143128Y253782D01*
X143110Y253784D01*
X143093Y253789D01*
X142910Y253802D01*
X142727Y253819D01*
X142710Y253817D01*
X142692Y253818D01*
X142510Y253795D01*
X142327Y253775D01*
X142310Y253770D01*
X142292Y253768D01*
X142118Y253709D01*
X141943Y253654D01*
X141927Y253645D01*
X141911Y253640D01*
X141752Y253548D01*
X141591Y253459D01*
X141577Y253448D01*
X141562Y253439D01*
X141309Y253224D01*
X119595Y231510D01*
X119578Y231489D01*
X119557Y231472D01*
X119450Y231334D01*
X119340Y231198D01*
X119327Y231175D01*
X119311Y231154D01*
X119233Y230997D01*
X119151Y230843D01*
X119143Y230817D01*
X119131Y230793D01*
X119086Y230624D01*
X119036Y230457D01*
X119034Y230430D01*
X119027Y230404D01*
X119000Y230074D01*
X119000Y225862D01*
X119002Y225836D01*
X119000Y225809D01*
X119022Y225635D01*
X119040Y225462D01*
X119047Y225436D01*
X119051Y225410D01*
X119106Y225244D01*
X119158Y225077D01*
X119171Y225053D01*
X119179Y225028D01*
X119236Y224929D01*
X119992Y223104D01*
X119992Y221396D01*
X119338Y219817D01*
X118130Y218609D01*
X116551Y217955D01*
X114843Y217955D01*
X113264Y218609D01*
X112542Y219331D01*
X112471Y219389D01*
X112408Y219454D01*
X112316Y219516D01*
X112230Y219587D01*
X112150Y219629D01*
X112075Y219680D01*
X111972Y219723D01*
X111875Y219775D01*
X111788Y219801D01*
X111704Y219836D01*
X111595Y219858D01*
X111489Y219890D01*
X111398Y219898D01*
X111309Y219916D01*
X111198Y219916D01*
X111088Y219926D01*
X110997Y219916D01*
X110906Y219917D01*
X110771Y219892D01*
X110688Y219883D01*
X110642Y219868D01*
X110580Y219857D01*
X109935Y219684D01*
X105599Y219684D01*
X105599Y235726D01*
X113628Y235726D01*
X113654Y235728D01*
X113681Y235726D01*
X113855Y235748D01*
X114028Y235766D01*
X114054Y235773D01*
X114080Y235777D01*
X114246Y235832D01*
X114413Y235884D01*
X114437Y235897D01*
X114462Y235905D01*
X114614Y235992D01*
X114767Y236075D01*
X114788Y236093D01*
X114811Y236106D01*
X115064Y236321D01*
X147149Y268406D01*
X147158Y268416D01*
X147168Y268425D01*
X147285Y268572D01*
X147404Y268717D01*
X147410Y268729D01*
X147419Y268740D01*
X147505Y268908D01*
X147593Y269073D01*
X147597Y269086D01*
X147603Y269098D01*
X147654Y269280D01*
X147708Y269459D01*
X147709Y269472D01*
X147712Y269485D01*
X147727Y269672D01*
X147744Y269860D01*
X147742Y269873D01*
X147744Y269887D01*
X147721Y270071D01*
X147701Y270260D01*
X147696Y270273D01*
X147695Y270286D01*
X147636Y270464D01*
X147579Y270644D01*
X147573Y270656D01*
X147568Y270669D01*
X147475Y270832D01*
X147384Y270996D01*
X147376Y271007D01*
X147369Y271018D01*
X147246Y271160D01*
X147124Y271303D01*
X147113Y271312D01*
X147104Y271322D01*
X146956Y271436D01*
X146808Y271553D01*
X146796Y271559D01*
X146785Y271567D01*
X146490Y271719D01*
X145798Y272006D01*
X145768Y272015D01*
X145740Y272029D01*
X145575Y272073D01*
X145412Y272122D01*
X145381Y272125D01*
X145351Y272133D01*
X145020Y272160D01*
X116769Y272160D01*
X116742Y272158D01*
X116715Y272160D01*
X116542Y272138D01*
X116369Y272120D01*
X116343Y272112D01*
X116315Y272109D01*
X116150Y272053D01*
X115984Y272002D01*
X115960Y271989D01*
X115934Y271981D01*
X115836Y271924D01*
X114870Y271524D01*
X114011Y271168D01*
X112303Y271168D01*
X110724Y271822D01*
X109516Y273030D01*
X108862Y274609D01*
X108862Y274778D01*
X108860Y274796D01*
X108862Y274814D01*
X108841Y274996D01*
X108822Y275179D01*
X108817Y275196D01*
X108815Y275213D01*
X108758Y275388D01*
X108704Y275564D01*
X108696Y275579D01*
X108690Y275596D01*
X108600Y275756D01*
X108512Y275918D01*
X108501Y275931D01*
X108492Y275947D01*
X108372Y276086D01*
X108255Y276227D01*
X108241Y276238D01*
X108229Y276252D01*
X108084Y276364D01*
X107941Y276479D01*
X107925Y276487D01*
X107911Y276498D01*
X107746Y276580D01*
X107584Y276665D01*
X107567Y276670D01*
X107551Y276678D01*
X107372Y276725D01*
X107197Y276776D01*
X107179Y276778D01*
X107162Y276782D01*
X106831Y276809D01*
X105599Y276809D01*
X105599Y292851D01*
X112141Y292851D01*
X112141Y281789D01*
X112143Y281771D01*
X112141Y281753D01*
X112162Y281571D01*
X112181Y281388D01*
X112186Y281371D01*
X112188Y281354D01*
X112245Y281179D01*
X112299Y281003D01*
X112307Y280988D01*
X112313Y280971D01*
X112403Y280811D01*
X112491Y280649D01*
X112502Y280636D01*
X112511Y280620D01*
X112631Y280481D01*
X112748Y280340D01*
X112762Y280329D01*
X112774Y280315D01*
X112919Y280203D01*
X113062Y280088D01*
X113078Y280080D01*
X113092Y280069D01*
X113257Y279987D01*
X113419Y279902D01*
X113436Y279897D01*
X113452Y279889D01*
X113631Y279842D01*
X113806Y279791D01*
X113824Y279789D01*
X113841Y279785D01*
X113972Y279774D01*
X115854Y278994D01*
X115999Y278917D01*
X116025Y278910D01*
X116050Y278897D01*
X116219Y278852D01*
X116385Y278802D01*
X116412Y278800D01*
X116439Y278793D01*
X116769Y278766D01*
X142113Y278766D01*
X142131Y278768D01*
X142149Y278766D01*
X142331Y278787D01*
X142514Y278806D01*
X142531Y278811D01*
X142548Y278813D01*
X142723Y278870D01*
X142899Y278924D01*
X142914Y278932D01*
X142931Y278938D01*
X143091Y279028D01*
X143253Y279116D01*
X143266Y279127D01*
X143282Y279136D01*
X143421Y279256D01*
X143562Y279373D01*
X143573Y279387D01*
X143587Y279399D01*
X143699Y279544D01*
X143814Y279687D01*
X143822Y279703D01*
X143833Y279717D01*
X143915Y279882D01*
X144000Y280044D01*
X144005Y280061D01*
X144013Y280077D01*
X144060Y280256D01*
X144111Y280431D01*
X144113Y280449D01*
X144117Y280466D01*
X144144Y280797D01*
X144144Y333573D01*
X144142Y333599D01*
X144144Y333626D01*
X144122Y333800D01*
X144104Y333973D01*
X144097Y333999D01*
X144093Y334025D01*
X144038Y334191D01*
X143986Y334358D01*
X143973Y334382D01*
X143965Y334407D01*
X143908Y334506D01*
X143152Y336331D01*
X143152Y338039D01*
X143916Y339882D01*
X143993Y340028D01*
X144001Y340054D01*
X144013Y340078D01*
X144058Y340247D01*
X144108Y340414D01*
X144110Y340441D01*
X144117Y340467D01*
X144144Y340797D01*
X144144Y340839D01*
X159795Y356490D01*
X171527Y356490D01*
X171553Y356492D01*
X171580Y356490D01*
X171754Y356512D01*
X171927Y356530D01*
X171953Y356537D01*
X171979Y356541D01*
X172145Y356596D01*
X172312Y356648D01*
X172336Y356661D01*
X172361Y356669D01*
X172512Y356756D01*
X172666Y356840D01*
X172687Y356857D01*
X172710Y356870D01*
X172963Y357085D01*
X177786Y361908D01*
X177797Y361922D01*
X177811Y361933D01*
X177925Y362077D01*
X178041Y362219D01*
X178049Y362235D01*
X178060Y362249D01*
X178143Y362412D01*
X178230Y362575D01*
X178235Y362592D01*
X178243Y362608D01*
X178292Y362785D01*
X178344Y362961D01*
X178346Y362979D01*
X178351Y362996D01*
X178364Y363179D01*
X178381Y363362D01*
X178379Y363380D01*
X178380Y363397D01*
X178357Y363579D01*
X178337Y363762D01*
X178332Y363779D01*
X178330Y363797D01*
X178272Y363970D01*
X178216Y364146D01*
X178207Y364162D01*
X178202Y364178D01*
X178110Y364337D01*
X178021Y364498D01*
X178010Y364512D01*
X178001Y364527D01*
X177786Y364780D01*
X176953Y365613D01*
X176299Y367192D01*
X176299Y368900D01*
X176953Y370479D01*
X177839Y371365D01*
X177856Y371386D01*
X177877Y371403D01*
X177984Y371541D01*
X178094Y371677D01*
X178107Y371700D01*
X178123Y371721D01*
X178201Y371878D01*
X178283Y372032D01*
X178291Y372058D01*
X178303Y372082D01*
X178348Y372251D01*
X178398Y372418D01*
X178400Y372445D01*
X178407Y372471D01*
X178434Y372801D01*
X178434Y380315D01*
X178433Y380323D01*
X178434Y380332D01*
X178413Y380526D01*
X178394Y380715D01*
X178392Y380724D01*
X178391Y380733D01*
X178332Y380917D01*
X178276Y381100D01*
X178272Y381108D01*
X178269Y381117D01*
X178176Y381285D01*
X178084Y381454D01*
X178079Y381461D01*
X178074Y381469D01*
X177950Y381616D01*
X177827Y381763D01*
X177820Y381769D01*
X177814Y381776D01*
X177662Y381896D01*
X177513Y382016D01*
X177505Y382020D01*
X177498Y382025D01*
X177325Y382113D01*
X177156Y382201D01*
X177147Y382204D01*
X177139Y382208D01*
X176953Y382260D01*
X176769Y382313D01*
X176760Y382313D01*
X176751Y382316D01*
X176558Y382330D01*
X176367Y382346D01*
X176359Y382345D01*
X176350Y382345D01*
X176157Y382321D01*
X175968Y382299D01*
X175959Y382296D01*
X175950Y382295D01*
X175768Y382234D01*
X175585Y382174D01*
X175577Y382169D01*
X175569Y382167D01*
X175402Y382070D01*
X175234Y381976D01*
X175227Y381970D01*
X175220Y381966D01*
X174967Y381751D01*
X120587Y327371D01*
X120570Y327350D01*
X120549Y327333D01*
X120442Y327195D01*
X120332Y327059D01*
X120319Y327036D01*
X120303Y327015D01*
X120225Y326858D01*
X120143Y326704D01*
X120135Y326678D01*
X120123Y326654D01*
X120094Y326544D01*
X119338Y324719D01*
X118130Y323511D01*
X116967Y323029D01*
X116955Y323023D01*
X116942Y323019D01*
X116778Y322928D01*
X116612Y322839D01*
X116602Y322831D01*
X116590Y322824D01*
X116447Y322703D01*
X116302Y322583D01*
X116293Y322572D01*
X116283Y322564D01*
X116166Y322416D01*
X116048Y322270D01*
X116042Y322258D01*
X116033Y322248D01*
X115948Y322080D01*
X115861Y321914D01*
X115857Y321901D01*
X115851Y321889D01*
X115801Y321708D01*
X115748Y321527D01*
X115747Y321514D01*
X115743Y321501D01*
X115729Y321312D01*
X115713Y321126D01*
X115715Y321113D01*
X115714Y321099D01*
X115737Y320912D01*
X115758Y320726D01*
X115762Y320713D01*
X115764Y320700D01*
X115824Y320522D01*
X115881Y320343D01*
X115888Y320331D01*
X115892Y320318D01*
X115986Y320155D01*
X116078Y319991D01*
X116086Y319981D01*
X116093Y319969D01*
X116308Y319716D01*
X117289Y318736D01*
X117313Y318716D01*
X117333Y318692D01*
X117469Y318588D01*
X117600Y318481D01*
X117628Y318466D01*
X117653Y318447D01*
X117948Y318295D01*
X118130Y318220D01*
X119338Y317012D01*
X119992Y315433D01*
X119992Y313725D01*
X119338Y312146D01*
X118130Y310938D01*
X116551Y310284D01*
X114806Y310284D01*
X114745Y310302D01*
X114564Y310357D01*
X114551Y310358D01*
X114538Y310362D01*
X114350Y310377D01*
X114163Y310395D01*
X114150Y310393D01*
X114136Y310394D01*
X113950Y310373D01*
X113763Y310353D01*
X113750Y310349D01*
X113737Y310348D01*
X113557Y310289D01*
X113378Y310233D01*
X113367Y310227D01*
X113354Y310223D01*
X113189Y310130D01*
X113025Y310040D01*
X113015Y310031D01*
X113003Y310025D01*
X112861Y309902D01*
X112717Y309781D01*
X112709Y309770D01*
X112698Y309762D01*
X112584Y309614D01*
X112466Y309466D01*
X112460Y309454D01*
X112452Y309444D01*
X112368Y309275D01*
X112282Y309108D01*
X112278Y309095D01*
X112272Y309083D01*
X112223Y308900D01*
X112172Y308720D01*
X112171Y308707D01*
X112168Y308694D01*
X112141Y308363D01*
X112141Y300849D01*
X105599Y300849D01*
X105599Y318087D01*
X105597Y318114D01*
X105599Y318140D01*
X105577Y318314D01*
X105559Y318488D01*
X105552Y318513D01*
X105548Y318540D01*
X105492Y318706D01*
X105441Y318873D01*
X105428Y318896D01*
X105420Y318921D01*
X105333Y319073D01*
X105249Y319227D01*
X105232Y319247D01*
X105219Y319270D01*
X105004Y319523D01*
X98281Y326247D01*
X97662Y327740D01*
X97662Y329286D01*
X97660Y329304D01*
X97662Y329322D01*
X97641Y329504D01*
X97622Y329687D01*
X97617Y329704D01*
X97615Y329721D01*
X97558Y329896D01*
X97504Y330072D01*
X97496Y330087D01*
X97490Y330104D01*
X97400Y330264D01*
X97312Y330426D01*
X97301Y330439D01*
X97292Y330455D01*
X97172Y330594D01*
X97055Y330735D01*
X97041Y330746D01*
X97029Y330760D01*
X96884Y330872D01*
X96741Y330987D01*
X96725Y330995D01*
X96711Y331006D01*
X96546Y331088D01*
X96384Y331173D01*
X96367Y331178D01*
X96351Y331186D01*
X96172Y331233D01*
X95997Y331284D01*
X95979Y331286D01*
X95962Y331290D01*
X95631Y331317D01*
X92758Y331317D01*
X91567Y332508D01*
X91567Y369192D01*
X92758Y370383D01*
X101153Y370383D01*
X101166Y370384D01*
X101180Y370383D01*
X101366Y370404D01*
X101553Y370423D01*
X101566Y370427D01*
X101580Y370428D01*
X101758Y370485D01*
X101938Y370541D01*
X101950Y370547D01*
X101963Y370551D01*
X102127Y370643D01*
X102292Y370733D01*
X102303Y370741D01*
X102315Y370748D01*
X102458Y370870D01*
X102602Y370990D01*
X102610Y371001D01*
X102620Y371010D01*
X102737Y371158D01*
X102854Y371304D01*
X102860Y371316D01*
X102869Y371327D01*
X102954Y371496D01*
X103039Y371661D01*
X103043Y371674D01*
X103049Y371686D01*
X103099Y371868D01*
X103151Y372048D01*
X103152Y372062D01*
X103155Y372075D01*
X103168Y372261D01*
X103184Y372450D01*
X103182Y372463D01*
X103183Y372476D01*
X103159Y372661D01*
X103137Y372849D01*
X103133Y372862D01*
X103131Y372876D01*
X103099Y372975D01*
X103096Y372996D01*
X103041Y373162D01*
X102989Y373329D01*
X102976Y373353D01*
X102968Y373378D01*
X102881Y373530D01*
X102797Y373683D01*
X102780Y373704D01*
X102767Y373727D01*
X102552Y373980D01*
X96231Y380301D01*
X96210Y380318D01*
X96193Y380339D01*
X96055Y380446D01*
X95919Y380556D01*
X95896Y380569D01*
X95875Y380585D01*
X95718Y380663D01*
X95564Y380745D01*
X95538Y380753D01*
X95514Y380765D01*
X95404Y380794D01*
X93579Y381550D01*
X92746Y382383D01*
X92733Y382394D01*
X92721Y382408D01*
X92577Y382521D01*
X92435Y382638D01*
X92419Y382646D01*
X92405Y382657D01*
X92241Y382741D01*
X92079Y382827D01*
X92062Y382832D01*
X92046Y382840D01*
X91869Y382889D01*
X91693Y382941D01*
X91675Y382943D01*
X91658Y382948D01*
X91475Y382961D01*
X91292Y382978D01*
X91275Y382976D01*
X91257Y382977D01*
X91075Y382954D01*
X90892Y382934D01*
X90875Y382929D01*
X90857Y382927D01*
X90683Y382868D01*
X90508Y382813D01*
X90492Y382804D01*
X90476Y382799D01*
X90317Y382707D01*
X90156Y382618D01*
X90142Y382607D01*
X90127Y382598D01*
X89874Y382383D01*
X75756Y368265D01*
X75739Y368244D01*
X75718Y368227D01*
X75611Y368089D01*
X75501Y367953D01*
X75488Y367930D01*
X75472Y367909D01*
X75394Y367752D01*
X75312Y367598D01*
X75304Y367572D01*
X75292Y367548D01*
X75263Y367438D01*
X74507Y365613D01*
X73299Y364405D01*
X71720Y363751D01*
X70012Y363751D01*
X68433Y364405D01*
X67225Y365613D01*
X66571Y367192D01*
X66571Y368900D01*
X67225Y370479D01*
X68433Y371687D01*
X70276Y372450D01*
X70434Y372499D01*
X70458Y372512D01*
X70483Y372520D01*
X70635Y372607D01*
X70788Y372691D01*
X70809Y372708D01*
X70832Y372721D01*
X71085Y372936D01*
X87542Y389393D01*
X87559Y389414D01*
X87580Y389431D01*
X87687Y389569D01*
X87797Y389705D01*
X87810Y389728D01*
X87826Y389749D01*
X87904Y389906D01*
X87986Y390060D01*
X87994Y390086D01*
X88006Y390110D01*
X88051Y390279D01*
X88101Y390446D01*
X88103Y390473D01*
X88110Y390499D01*
X88137Y390829D01*
X88137Y407747D01*
X88136Y407755D01*
X88137Y407764D01*
X88116Y407956D01*
X88097Y408147D01*
X88095Y408156D01*
X88094Y408165D01*
X88036Y408347D01*
X87979Y408532D01*
X87975Y408540D01*
X87972Y408549D01*
X87879Y408717D01*
X87787Y408886D01*
X87782Y408893D01*
X87777Y408901D01*
X87652Y409049D01*
X87530Y409195D01*
X87523Y409201D01*
X87517Y409208D01*
X87365Y409328D01*
X87216Y409448D01*
X87208Y409452D01*
X87201Y409457D01*
X87029Y409545D01*
X86859Y409633D01*
X86850Y409636D01*
X86842Y409640D01*
X86656Y409692D01*
X86472Y409745D01*
X86463Y409745D01*
X86454Y409748D01*
X86262Y409762D01*
X86070Y409778D01*
X86062Y409777D01*
X86053Y409777D01*
X85860Y409753D01*
X85671Y409731D01*
X85662Y409728D01*
X85653Y409727D01*
X85470Y409665D01*
X85288Y409606D01*
X85280Y409601D01*
X85272Y409599D01*
X85106Y409503D01*
X84937Y409408D01*
X84930Y409402D01*
X84923Y409398D01*
X84670Y409183D01*
X83664Y408177D01*
X81050Y408177D01*
X80958Y408168D01*
X80864Y408169D01*
X80758Y408148D01*
X80650Y408137D01*
X80561Y408110D01*
X80469Y408092D01*
X80369Y408051D01*
X80265Y408019D01*
X80183Y407975D01*
X80097Y407939D01*
X80006Y407879D01*
X79911Y407827D01*
X79839Y407768D01*
X79762Y407716D01*
X79685Y407639D01*
X79602Y407570D01*
X79543Y407497D01*
X79477Y407431D01*
X79417Y407341D01*
X79349Y407256D01*
X79306Y407173D01*
X79255Y407096D01*
X79214Y406995D01*
X79164Y406899D01*
X79138Y406809D01*
X79103Y406723D01*
X79082Y406616D01*
X79052Y406512D01*
X79045Y406419D01*
X79027Y406327D01*
X79028Y406219D01*
X79019Y406110D01*
X79030Y406018D01*
X79031Y405925D01*
X79054Y405818D01*
X79066Y405711D01*
X79095Y405622D01*
X79115Y405531D01*
X79165Y405407D01*
X79191Y405328D01*
X79216Y405285D01*
X79241Y405224D01*
X79949Y403833D01*
X80428Y402358D01*
X80472Y402081D01*
X63500Y402081D01*
X63483Y402080D01*
X63465Y402081D01*
X63282Y402060D01*
X63100Y402041D01*
X63083Y402036D01*
X63065Y402034D01*
X62890Y401977D01*
X62715Y401923D01*
X62699Y401915D01*
X62682Y401909D01*
X62522Y401819D01*
X62361Y401732D01*
X62347Y401720D01*
X62332Y401711D01*
X62192Y401591D01*
X62052Y401474D01*
X62051Y401474D01*
X62051Y401473D01*
X62040Y401460D01*
X62027Y401448D01*
X62026Y401448D01*
X61914Y401303D01*
X61799Y401160D01*
X61790Y401144D01*
X61780Y401130D01*
X61698Y400965D01*
X61613Y400802D01*
X61608Y400785D01*
X61600Y400769D01*
X61552Y400591D01*
X61502Y400415D01*
X61500Y400398D01*
X61496Y400380D01*
X61469Y400050D01*
X61469Y390194D01*
X55409Y390194D01*
X53877Y390437D01*
X52401Y390916D01*
X50877Y391693D01*
X50870Y391696D01*
X50758Y391761D01*
X50709Y391778D01*
X50664Y391802D01*
X50519Y391843D01*
X50377Y391892D01*
X50326Y391899D01*
X50277Y391913D01*
X50127Y391925D01*
X49978Y391945D01*
X49927Y391942D01*
X49875Y391946D01*
X49726Y391928D01*
X49576Y391918D01*
X49527Y391905D01*
X49476Y391899D01*
X49333Y391852D01*
X49188Y391813D01*
X49142Y391790D01*
X49093Y391774D01*
X48962Y391700D01*
X48827Y391633D01*
X48787Y391601D01*
X48742Y391576D01*
X48628Y391478D01*
X48510Y391385D01*
X48476Y391347D01*
X48437Y391313D01*
X48345Y391194D01*
X48247Y391080D01*
X48222Y391035D01*
X48191Y390995D01*
X48124Y390860D01*
X48050Y390729D01*
X48034Y390680D01*
X48011Y390634D01*
X47972Y390489D01*
X47926Y390346D01*
X47920Y390295D01*
X47907Y390246D01*
X47888Y390016D01*
X47880Y389946D01*
X47881Y389932D01*
X47880Y389915D01*
X47880Y370943D01*
X47882Y370925D01*
X47880Y370907D01*
X47901Y370725D01*
X47920Y370542D01*
X47925Y370525D01*
X47927Y370508D01*
X47984Y370333D01*
X48038Y370157D01*
X48046Y370142D01*
X48052Y370125D01*
X48142Y369965D01*
X48230Y369803D01*
X48241Y369790D01*
X48250Y369774D01*
X48370Y369635D01*
X48487Y369494D01*
X48501Y369483D01*
X48513Y369469D01*
X48658Y369357D01*
X48801Y369242D01*
X48817Y369234D01*
X48831Y369223D01*
X48996Y369141D01*
X49158Y369056D01*
X49175Y369051D01*
X49191Y369043D01*
X49370Y368996D01*
X49545Y368945D01*
X49563Y368943D01*
X49580Y368939D01*
X49911Y368912D01*
X51146Y368912D01*
X52725Y368258D01*
X53933Y367050D01*
X54587Y365471D01*
X54587Y363763D01*
X54388Y363282D01*
X54381Y363261D01*
X54371Y363241D01*
X54323Y363068D01*
X54271Y362897D01*
X54269Y362875D01*
X54263Y362853D01*
X54250Y362674D01*
X54233Y362496D01*
X54235Y362474D01*
X54234Y362452D01*
X54256Y362273D01*
X54275Y362096D01*
X54281Y362074D01*
X54284Y362052D01*
X54341Y361882D01*
X54395Y361711D01*
X54405Y361692D01*
X54412Y361671D01*
X54502Y361515D01*
X54588Y361358D01*
X54602Y361341D01*
X54613Y361322D01*
X54828Y361069D01*
X91070Y324827D01*
X93600Y322297D01*
X93600Y318922D01*
X93602Y318904D01*
X93600Y318886D01*
X93621Y318704D01*
X93640Y318521D01*
X93645Y318504D01*
X93647Y318487D01*
X93704Y318312D01*
X93758Y318136D01*
X93766Y318121D01*
X93772Y318104D01*
X93862Y317944D01*
X93950Y317782D01*
X93961Y317769D01*
X93970Y317753D01*
X94090Y317614D01*
X94207Y317473D01*
X94221Y317462D01*
X94233Y317448D01*
X94378Y317336D01*
X94521Y317221D01*
X94537Y317213D01*
X94551Y317202D01*
X94716Y317120D01*
X94878Y317035D01*
X94895Y317030D01*
X94911Y317022D01*
X95090Y316974D01*
X95265Y316924D01*
X95283Y316922D01*
X95300Y316918D01*
X95631Y316891D01*
X97601Y316891D01*
X97601Y298818D01*
X97602Y298800D01*
X97601Y298783D01*
X97622Y298600D01*
X97641Y298418D01*
X97646Y298401D01*
X97648Y298383D01*
X97705Y298208D01*
X97759Y298033D01*
X97767Y298017D01*
X97773Y298000D01*
X97863Y297840D01*
X97950Y297679D01*
X97962Y297665D01*
X97971Y297649D01*
X98091Y297510D01*
X98208Y297369D01*
X98222Y297358D01*
X98234Y297345D01*
X98379Y297232D01*
X98522Y297117D01*
X98538Y297109D01*
X98552Y297098D01*
X98717Y297016D01*
X98879Y296932D01*
X98896Y296927D01*
X98912Y296919D01*
X99091Y296871D01*
X99155Y296852D01*
X99022Y296809D01*
X98846Y296755D01*
X98831Y296747D01*
X98814Y296741D01*
X98654Y296651D01*
X98492Y296563D01*
X98479Y296552D01*
X98463Y296543D01*
X98324Y296423D01*
X98183Y296305D01*
X98172Y296292D01*
X98158Y296280D01*
X98046Y296135D01*
X97931Y295992D01*
X97923Y295976D01*
X97912Y295962D01*
X97830Y295797D01*
X97745Y295634D01*
X97740Y295617D01*
X97732Y295601D01*
X97684Y295423D01*
X97634Y295248D01*
X97632Y295230D01*
X97628Y295213D01*
X97601Y294882D01*
X97601Y276809D01*
X95631Y276809D01*
X95613Y276807D01*
X95595Y276809D01*
X95413Y276788D01*
X95230Y276769D01*
X95213Y276764D01*
X95196Y276762D01*
X95021Y276705D01*
X94845Y276651D01*
X94830Y276643D01*
X94813Y276637D01*
X94653Y276547D01*
X94491Y276459D01*
X94478Y276448D01*
X94462Y276439D01*
X94323Y276319D01*
X94182Y276202D01*
X94171Y276188D01*
X94157Y276176D01*
X94045Y276031D01*
X93930Y275888D01*
X93922Y275872D01*
X93911Y275858D01*
X93829Y275693D01*
X93744Y275531D01*
X93739Y275514D01*
X93731Y275498D01*
X93684Y275319D01*
X93633Y275144D01*
X93631Y275126D01*
X93627Y275109D01*
X93600Y274778D01*
X93600Y261797D01*
X93602Y261779D01*
X93600Y261761D01*
X93621Y261579D01*
X93640Y261396D01*
X93645Y261379D01*
X93647Y261362D01*
X93704Y261187D01*
X93758Y261011D01*
X93766Y260996D01*
X93772Y260979D01*
X93862Y260819D01*
X93950Y260657D01*
X93961Y260644D01*
X93970Y260628D01*
X94090Y260489D01*
X94207Y260348D01*
X94221Y260337D01*
X94233Y260323D01*
X94378Y260211D01*
X94521Y260096D01*
X94537Y260088D01*
X94551Y260077D01*
X94716Y259995D01*
X94878Y259910D01*
X94895Y259905D01*
X94911Y259897D01*
X95090Y259849D01*
X95265Y259799D01*
X95283Y259797D01*
X95300Y259793D01*
X95631Y259766D01*
X97601Y259766D01*
X97601Y241693D01*
X97602Y241675D01*
X97601Y241658D01*
X97622Y241475D01*
X97641Y241293D01*
X97646Y241276D01*
X97648Y241258D01*
X97705Y241083D01*
X97759Y240908D01*
X97767Y240892D01*
X97773Y240875D01*
X97863Y240715D01*
X97950Y240554D01*
X97962Y240540D01*
X97971Y240524D01*
X98091Y240385D01*
X98208Y240244D01*
X98222Y240233D01*
X98234Y240220D01*
X98379Y240107D01*
X98522Y239992D01*
X98538Y239984D01*
X98552Y239973D01*
X98717Y239891D01*
X98879Y239807D01*
X98896Y239802D01*
X98912Y239794D01*
X99091Y239746D01*
X99155Y239727D01*
X99022Y239684D01*
X98846Y239630D01*
X98831Y239622D01*
X98814Y239616D01*
X98654Y239526D01*
X98492Y239438D01*
X98479Y239427D01*
X98463Y239418D01*
X98324Y239298D01*
X98183Y239180D01*
X98172Y239167D01*
X98158Y239155D01*
X98046Y239010D01*
X97931Y238867D01*
X97923Y238851D01*
X97912Y238837D01*
X97830Y238672D01*
X97745Y238509D01*
X97740Y238492D01*
X97732Y238476D01*
X97684Y238298D01*
X97634Y238123D01*
X97632Y238105D01*
X97628Y238088D01*
X97601Y237757D01*
X97601Y218807D01*
X97603Y218781D01*
X97601Y218754D01*
X97623Y218580D01*
X97641Y218407D01*
X97648Y218381D01*
X97652Y218355D01*
X97707Y218189D01*
X97759Y218022D01*
X97772Y217998D01*
X97780Y217973D01*
X97867Y217821D01*
X97950Y217668D01*
X97968Y217647D01*
X97981Y217624D01*
X98196Y217371D01*
X100365Y215202D01*
X100386Y215185D01*
X100403Y215164D01*
X100541Y215057D01*
X100677Y214947D01*
X100700Y214934D01*
X100721Y214918D01*
X100878Y214840D01*
X101032Y214758D01*
X101058Y214750D01*
X101082Y214738D01*
X101192Y214709D01*
X103017Y213953D01*
X104225Y212745D01*
X104879Y211166D01*
X104879Y209458D01*
X104302Y208066D01*
X104298Y208053D01*
X104292Y208042D01*
X104241Y207862D01*
X104186Y207681D01*
X104185Y207668D01*
X104181Y207655D01*
X104166Y207467D01*
X104148Y207280D01*
X104149Y207267D01*
X104148Y207253D01*
X104170Y207067D01*
X104189Y206880D01*
X104193Y206867D01*
X104195Y206854D01*
X104253Y206675D01*
X104309Y206495D01*
X104316Y206484D01*
X104320Y206471D01*
X104412Y206307D01*
X104503Y206142D01*
X104511Y206132D01*
X104518Y206120D01*
X104640Y205978D01*
X104762Y205834D01*
X104772Y205826D01*
X104781Y205815D01*
X104929Y205701D01*
X105076Y205583D01*
X105088Y205577D01*
X105099Y205569D01*
X105267Y205485D01*
X105435Y205399D01*
X105447Y205395D01*
X105460Y205389D01*
X105642Y205340D01*
X105822Y205289D01*
X105835Y205288D01*
X105848Y205285D01*
X106179Y205258D01*
X110442Y205258D01*
X111633Y204067D01*
X111633Y167383D01*
X110442Y166192D01*
X92758Y166192D01*
X91567Y167383D01*
X91567Y186069D01*
X91565Y186096D01*
X91567Y186122D01*
X91545Y186296D01*
X91527Y186470D01*
X91520Y186495D01*
X91516Y186522D01*
X91461Y186687D01*
X91409Y186854D01*
X91396Y186878D01*
X91388Y186903D01*
X91301Y187055D01*
X91217Y187209D01*
X91200Y187229D01*
X91187Y187252D01*
X90972Y187505D01*
X88295Y190182D01*
X88275Y190199D01*
X88257Y190220D01*
X88119Y190327D01*
X87984Y190437D01*
X87960Y190450D01*
X87939Y190466D01*
X87782Y190544D01*
X87628Y190626D01*
X87603Y190634D01*
X87578Y190646D01*
X87409Y190691D01*
X87242Y190741D01*
X87216Y190743D01*
X87190Y190750D01*
X86859Y190777D01*
X86014Y190777D01*
X84435Y191431D01*
X83227Y192639D01*
X83152Y192821D01*
X83137Y192849D01*
X83127Y192878D01*
X83042Y193026D01*
X82962Y193176D01*
X82942Y193200D01*
X82926Y193227D01*
X82711Y193480D01*
X79358Y196834D01*
X78739Y198327D01*
X78739Y211597D01*
X78737Y211624D01*
X78739Y211650D01*
X78717Y211824D01*
X78699Y211998D01*
X78692Y212023D01*
X78688Y212050D01*
X78633Y212215D01*
X78581Y212382D01*
X78568Y212406D01*
X78560Y212431D01*
X78473Y212583D01*
X78389Y212737D01*
X78372Y212757D01*
X78359Y212780D01*
X78144Y213033D01*
X57018Y234159D01*
X57008Y234168D01*
X56999Y234178D01*
X56852Y234295D01*
X56707Y234415D01*
X56695Y234421D01*
X56684Y234429D01*
X56517Y234515D01*
X56351Y234603D01*
X56338Y234607D01*
X56326Y234613D01*
X56145Y234664D01*
X55965Y234718D01*
X55952Y234719D01*
X55939Y234723D01*
X55753Y234737D01*
X55564Y234754D01*
X55551Y234753D01*
X55537Y234754D01*
X55353Y234731D01*
X55164Y234711D01*
X55151Y234707D01*
X55138Y234705D01*
X54960Y234646D01*
X54780Y234589D01*
X54768Y234583D01*
X54756Y234579D01*
X54592Y234485D01*
X54428Y234395D01*
X54417Y234386D01*
X54406Y234379D01*
X54264Y234256D01*
X54121Y234134D01*
X54112Y234124D01*
X54102Y234115D01*
X53987Y233965D01*
X53871Y233818D01*
X53865Y233806D01*
X53857Y233796D01*
X53705Y233500D01*
X53188Y232253D01*
X53111Y232107D01*
X53103Y232081D01*
X53091Y232057D01*
X53046Y231888D01*
X52996Y231721D01*
X52994Y231694D01*
X52987Y231668D01*
X52960Y231338D01*
X52960Y154482D01*
X52962Y154456D01*
X52960Y154429D01*
X52982Y154255D01*
X53000Y154082D01*
X53007Y154056D01*
X53011Y154030D01*
X53067Y153864D01*
X53118Y153697D01*
X53130Y153673D01*
X53139Y153648D01*
X53226Y153496D01*
X53310Y153343D01*
X53327Y153322D01*
X53340Y153299D01*
X53555Y153046D01*
X55788Y150813D01*
X55809Y150796D01*
X55826Y150775D01*
X55964Y150668D01*
X56100Y150558D01*
X56123Y150545D01*
X56144Y150529D01*
X56301Y150451D01*
X56455Y150369D01*
X56481Y150361D01*
X56505Y150349D01*
X56615Y150320D01*
X58440Y149564D01*
X59648Y148356D01*
X60302Y146777D01*
X60302Y145069D01*
X59648Y143490D01*
X58440Y142282D01*
X56861Y141628D01*
X55153Y141628D01*
X53574Y142282D01*
X52366Y143490D01*
X51603Y145333D01*
X51554Y145491D01*
X51541Y145515D01*
X51533Y145540D01*
X51446Y145692D01*
X51362Y145845D01*
X51345Y145866D01*
X51332Y145889D01*
X51117Y146142D01*
X46354Y150905D01*
X46354Y229616D01*
X46352Y229634D01*
X46354Y229652D01*
X46333Y229834D01*
X46314Y230017D01*
X46309Y230034D01*
X46307Y230051D01*
X46250Y230226D01*
X46196Y230402D01*
X46188Y230417D01*
X46182Y230434D01*
X46092Y230594D01*
X46004Y230756D01*
X45993Y230769D01*
X45984Y230785D01*
X45864Y230924D01*
X45747Y231065D01*
X45733Y231076D01*
X45721Y231090D01*
X45576Y231202D01*
X45433Y231317D01*
X45417Y231325D01*
X45403Y231336D01*
X45238Y231418D01*
X45076Y231503D01*
X45059Y231508D01*
X45043Y231516D01*
X44864Y231563D01*
X44689Y231614D01*
X44671Y231616D01*
X44654Y231620D01*
X44323Y231647D01*
X43082Y231647D01*
X18168Y256561D01*
X18161Y256567D01*
X18156Y256573D01*
X18006Y256694D01*
X17857Y256816D01*
X17849Y256820D01*
X17842Y256826D01*
X17671Y256915D01*
X17501Y257005D01*
X17493Y257007D01*
X17485Y257011D01*
X17299Y257065D01*
X17115Y257119D01*
X17106Y257120D01*
X17098Y257123D01*
X16906Y257138D01*
X16714Y257156D01*
X16705Y257155D01*
X16696Y257156D01*
X16507Y257133D01*
X16314Y257112D01*
X16305Y257110D01*
X16297Y257109D01*
X16115Y257049D01*
X15930Y256991D01*
X15922Y256987D01*
X15914Y256984D01*
X15745Y256889D01*
X15578Y256796D01*
X15571Y256790D01*
X15563Y256786D01*
X15417Y256660D01*
X15271Y256536D01*
X15265Y256529D01*
X15258Y256523D01*
X15141Y256371D01*
X15021Y256220D01*
X15017Y256212D01*
X15012Y256205D01*
X14926Y256033D01*
X14839Y255861D01*
X14836Y255852D01*
X14832Y255844D01*
X14782Y255658D01*
X14731Y255473D01*
X14730Y255464D01*
X14728Y255455D01*
X14701Y255125D01*
X14701Y95250D01*
X14709Y95164D01*
X14718Y94985D01*
X14797Y94385D01*
X14804Y94354D01*
X14806Y94323D01*
X14850Y94159D01*
X14889Y93993D01*
X14902Y93965D01*
X14910Y93934D01*
X15052Y93634D01*
X15652Y92595D01*
X15747Y92462D01*
X15838Y92326D01*
X15865Y92299D01*
X15887Y92268D01*
X16007Y92157D01*
X16122Y92041D01*
X16157Y92017D01*
X16181Y91994D01*
X16256Y91948D01*
X16395Y91852D01*
X17434Y91252D01*
X17463Y91239D01*
X17489Y91222D01*
X17646Y91156D01*
X17801Y91086D01*
X17832Y91079D01*
X17861Y91067D01*
X18185Y90997D01*
X18785Y90918D01*
X18871Y90915D01*
X19050Y90901D01*
X71197Y90901D01*
X71202Y90901D01*
G37*
G36*
X59100Y1007268D02*
X59100Y1007268D01*
X59118Y1007267D01*
X59302Y1007291D01*
X59483Y1007311D01*
X59500Y1007316D01*
X59518Y1007319D01*
X59834Y1007420D01*
X61132Y1007958D01*
X61290Y1008007D01*
X61314Y1008020D01*
X61339Y1008028D01*
X61490Y1008115D01*
X61644Y1008199D01*
X61665Y1008216D01*
X61688Y1008229D01*
X61941Y1008444D01*
X63539Y1010042D01*
X63556Y1010063D01*
X63577Y1010080D01*
X63684Y1010218D01*
X63794Y1010354D01*
X63807Y1010377D01*
X63823Y1010398D01*
X63901Y1010555D01*
X63983Y1010709D01*
X63991Y1010735D01*
X64003Y1010759D01*
X64048Y1010928D01*
X64098Y1011095D01*
X64100Y1011122D01*
X64107Y1011148D01*
X64134Y1011478D01*
X64134Y1066236D01*
X64132Y1066262D01*
X64134Y1066289D01*
X64112Y1066463D01*
X64094Y1066636D01*
X64087Y1066662D01*
X64083Y1066688D01*
X64028Y1066854D01*
X63976Y1067021D01*
X63963Y1067045D01*
X63955Y1067070D01*
X63898Y1067169D01*
X63142Y1068994D01*
X63142Y1070702D01*
X63906Y1072545D01*
X63983Y1072691D01*
X63991Y1072717D01*
X64003Y1072741D01*
X64048Y1072910D01*
X64098Y1073077D01*
X64100Y1073104D01*
X64107Y1073130D01*
X64134Y1073460D01*
X64134Y1129361D01*
X64132Y1129387D01*
X64134Y1129414D01*
X64112Y1129588D01*
X64094Y1129761D01*
X64087Y1129787D01*
X64083Y1129813D01*
X64028Y1129979D01*
X63976Y1130146D01*
X63963Y1130170D01*
X63955Y1130195D01*
X63868Y1130347D01*
X63784Y1130500D01*
X63767Y1130521D01*
X63754Y1130544D01*
X63539Y1130797D01*
X42510Y1151826D01*
X42489Y1151843D01*
X42472Y1151864D01*
X42334Y1151971D01*
X42198Y1152081D01*
X42175Y1152094D01*
X42154Y1152110D01*
X41997Y1152188D01*
X41843Y1152270D01*
X41817Y1152278D01*
X41793Y1152290D01*
X41683Y1152319D01*
X39858Y1153075D01*
X38650Y1154283D01*
X37996Y1155862D01*
X37996Y1157570D01*
X38650Y1159149D01*
X39858Y1160357D01*
X41437Y1161011D01*
X43145Y1161011D01*
X44724Y1160357D01*
X45932Y1159149D01*
X46695Y1157306D01*
X46744Y1157148D01*
X46757Y1157124D01*
X46765Y1157099D01*
X46852Y1156947D01*
X46936Y1156794D01*
X46953Y1156773D01*
X46966Y1156750D01*
X47181Y1156497D01*
X52155Y1151523D01*
X52169Y1151512D01*
X52180Y1151498D01*
X52324Y1151384D01*
X52466Y1151268D01*
X52482Y1151260D01*
X52496Y1151249D01*
X52660Y1151165D01*
X52822Y1151079D01*
X52839Y1151074D01*
X52855Y1151066D01*
X53032Y1151017D01*
X53208Y1150965D01*
X53226Y1150963D01*
X53243Y1150958D01*
X53426Y1150945D01*
X53609Y1150928D01*
X53627Y1150930D01*
X53644Y1150929D01*
X53826Y1150952D01*
X54009Y1150972D01*
X54026Y1150977D01*
X54044Y1150979D01*
X54217Y1151037D01*
X54393Y1151093D01*
X54409Y1151102D01*
X54425Y1151107D01*
X54584Y1151199D01*
X54745Y1151288D01*
X54759Y1151299D01*
X54774Y1151308D01*
X55027Y1151523D01*
X55860Y1152356D01*
X57439Y1153010D01*
X59147Y1153010D01*
X60726Y1152356D01*
X61934Y1151148D01*
X62009Y1150966D01*
X62024Y1150938D01*
X62034Y1150909D01*
X62119Y1150761D01*
X62199Y1150611D01*
X62219Y1150587D01*
X62235Y1150560D01*
X62450Y1150307D01*
X128104Y1084653D01*
X128111Y1084647D01*
X128116Y1084640D01*
X128266Y1084520D01*
X128415Y1084398D01*
X128423Y1084393D01*
X128430Y1084388D01*
X128601Y1084299D01*
X128771Y1084209D01*
X128779Y1084206D01*
X128787Y1084202D01*
X128973Y1084149D01*
X129157Y1084094D01*
X129166Y1084093D01*
X129174Y1084091D01*
X129366Y1084075D01*
X129558Y1084058D01*
X129567Y1084059D01*
X129576Y1084058D01*
X129765Y1084080D01*
X129958Y1084101D01*
X129967Y1084104D01*
X129975Y1084105D01*
X130157Y1084164D01*
X130342Y1084223D01*
X130350Y1084227D01*
X130358Y1084230D01*
X130527Y1084325D01*
X130694Y1084418D01*
X130701Y1084423D01*
X130709Y1084428D01*
X130855Y1084554D01*
X131001Y1084678D01*
X131007Y1084685D01*
X131014Y1084691D01*
X131131Y1084842D01*
X131251Y1084994D01*
X131255Y1085002D01*
X131260Y1085009D01*
X131346Y1085181D01*
X131433Y1085353D01*
X131436Y1085361D01*
X131440Y1085369D01*
X131490Y1085556D01*
X131541Y1085741D01*
X131542Y1085750D01*
X131544Y1085758D01*
X131571Y1086089D01*
X131571Y1123794D01*
X158559Y1150782D01*
X158576Y1150803D01*
X158597Y1150820D01*
X158703Y1150958D01*
X158814Y1151094D01*
X158827Y1151117D01*
X158843Y1151138D01*
X158921Y1151295D01*
X159003Y1151449D01*
X159011Y1151475D01*
X159023Y1151499D01*
X159052Y1151609D01*
X159808Y1153434D01*
X161016Y1154642D01*
X162595Y1155296D01*
X164303Y1155296D01*
X165882Y1154642D01*
X167090Y1153434D01*
X167744Y1151855D01*
X167744Y1150147D01*
X167090Y1148568D01*
X165882Y1147360D01*
X164995Y1146993D01*
X164039Y1146597D01*
X163881Y1146548D01*
X163857Y1146535D01*
X163832Y1146527D01*
X163680Y1146440D01*
X163527Y1146356D01*
X163506Y1146339D01*
X163483Y1146326D01*
X163230Y1146111D01*
X138772Y1121653D01*
X138755Y1121632D01*
X138734Y1121615D01*
X138627Y1121477D01*
X138517Y1121341D01*
X138504Y1121318D01*
X138488Y1121297D01*
X138410Y1121140D01*
X138328Y1120986D01*
X138320Y1120960D01*
X138308Y1120936D01*
X138263Y1120767D01*
X138213Y1120600D01*
X138211Y1120573D01*
X138204Y1120547D01*
X138177Y1120217D01*
X138177Y1065459D01*
X138179Y1065433D01*
X138177Y1065406D01*
X138199Y1065232D01*
X138217Y1065059D01*
X138224Y1065033D01*
X138228Y1065007D01*
X138283Y1064841D01*
X138335Y1064674D01*
X138348Y1064650D01*
X138356Y1064625D01*
X138413Y1064526D01*
X139169Y1062701D01*
X139169Y1060993D01*
X138515Y1059414D01*
X137649Y1058549D01*
X137638Y1058535D01*
X137624Y1058523D01*
X137510Y1058379D01*
X137394Y1058237D01*
X137386Y1058221D01*
X137375Y1058207D01*
X137291Y1058043D01*
X137206Y1057881D01*
X137201Y1057864D01*
X137192Y1057848D01*
X137143Y1057672D01*
X137091Y1057496D01*
X137089Y1057478D01*
X137084Y1057461D01*
X137071Y1057278D01*
X137054Y1057095D01*
X137056Y1057077D01*
X137055Y1057059D01*
X137078Y1056878D01*
X137098Y1056694D01*
X137103Y1056677D01*
X137106Y1056660D01*
X137164Y1056486D01*
X137219Y1056310D01*
X137228Y1056295D01*
X137234Y1056278D01*
X137325Y1056119D01*
X137414Y1055958D01*
X137426Y1055944D01*
X137435Y1055929D01*
X137649Y1055676D01*
X138606Y1054720D01*
X141312Y1052014D01*
X141319Y1052008D01*
X141324Y1052001D01*
X141474Y1051881D01*
X141623Y1051759D01*
X141631Y1051754D01*
X141638Y1051749D01*
X141808Y1051660D01*
X141979Y1051570D01*
X141988Y1051567D01*
X141995Y1051563D01*
X142180Y1051510D01*
X142365Y1051455D01*
X142374Y1051454D01*
X142382Y1051452D01*
X142573Y1051436D01*
X142766Y1051419D01*
X142775Y1051420D01*
X142784Y1051419D01*
X142973Y1051441D01*
X143166Y1051462D01*
X143175Y1051465D01*
X143183Y1051466D01*
X143365Y1051525D01*
X143550Y1051584D01*
X143558Y1051588D01*
X143566Y1051591D01*
X143735Y1051686D01*
X143902Y1051779D01*
X143909Y1051784D01*
X143917Y1051789D01*
X144063Y1051915D01*
X144209Y1052039D01*
X144215Y1052046D01*
X144222Y1052052D01*
X144339Y1052203D01*
X144459Y1052355D01*
X144463Y1052363D01*
X144468Y1052370D01*
X144554Y1052542D01*
X144641Y1052714D01*
X144644Y1052722D01*
X144648Y1052730D01*
X144698Y1052916D01*
X144749Y1053102D01*
X144750Y1053111D01*
X144752Y1053119D01*
X144779Y1053450D01*
X144779Y1056323D01*
X146481Y1060431D01*
X149625Y1063575D01*
X150717Y1064027D01*
X150717Y1064028D01*
X153733Y1065277D01*
X176467Y1065277D01*
X180575Y1063575D01*
X183719Y1060431D01*
X184591Y1058325D01*
X184593Y1058322D01*
X184595Y1058317D01*
X184689Y1058144D01*
X184782Y1057971D01*
X184784Y1057967D01*
X184787Y1057963D01*
X184911Y1057814D01*
X185038Y1057660D01*
X185041Y1057657D01*
X185044Y1057654D01*
X185197Y1057531D01*
X185351Y1057406D01*
X185355Y1057404D01*
X185358Y1057402D01*
X185531Y1057312D01*
X185707Y1057219D01*
X185711Y1057218D01*
X185715Y1057216D01*
X185903Y1057162D01*
X186094Y1057106D01*
X186098Y1057106D01*
X186102Y1057105D01*
X186300Y1057088D01*
X186495Y1057072D01*
X186499Y1057072D01*
X186504Y1057072D01*
X186698Y1057095D01*
X186895Y1057117D01*
X186899Y1057118D01*
X186903Y1057119D01*
X187089Y1057179D01*
X187278Y1057240D01*
X187282Y1057242D01*
X187286Y1057244D01*
X187456Y1057339D01*
X187630Y1057436D01*
X187633Y1057439D01*
X187637Y1057441D01*
X187785Y1057570D01*
X187935Y1057698D01*
X187938Y1057702D01*
X187942Y1057705D01*
X188062Y1057859D01*
X188184Y1058015D01*
X188186Y1058019D01*
X188188Y1058023D01*
X188277Y1058201D01*
X188364Y1058375D01*
X188366Y1058379D01*
X188368Y1058383D01*
X188419Y1058575D01*
X188471Y1058763D01*
X188471Y1058768D01*
X188472Y1058772D01*
X188499Y1059103D01*
X188499Y1187450D01*
X188491Y1187536D01*
X188482Y1187715D01*
X188403Y1188315D01*
X188396Y1188346D01*
X188394Y1188377D01*
X188350Y1188541D01*
X188311Y1188707D01*
X188298Y1188735D01*
X188290Y1188766D01*
X188148Y1189066D01*
X187548Y1190105D01*
X187453Y1190238D01*
X187362Y1190374D01*
X187335Y1190401D01*
X187313Y1190432D01*
X187193Y1190543D01*
X187078Y1190659D01*
X187043Y1190683D01*
X187019Y1190706D01*
X186944Y1190752D01*
X186805Y1190848D01*
X185766Y1191448D01*
X185737Y1191461D01*
X185711Y1191478D01*
X185554Y1191544D01*
X185399Y1191614D01*
X185368Y1191621D01*
X185339Y1191633D01*
X185015Y1191703D01*
X184415Y1191782D01*
X184329Y1191785D01*
X184150Y1191799D01*
X19050Y1191799D01*
X18964Y1191791D01*
X18785Y1191782D01*
X18185Y1191703D01*
X18154Y1191696D01*
X18123Y1191694D01*
X17959Y1191650D01*
X17793Y1191611D01*
X17765Y1191598D01*
X17734Y1191590D01*
X17434Y1191448D01*
X16395Y1190848D01*
X16262Y1190753D01*
X16126Y1190662D01*
X16099Y1190635D01*
X16068Y1190613D01*
X15957Y1190493D01*
X15841Y1190378D01*
X15817Y1190343D01*
X15794Y1190319D01*
X15748Y1190244D01*
X15652Y1190105D01*
X15052Y1189066D01*
X15039Y1189037D01*
X15022Y1189011D01*
X14956Y1188854D01*
X14886Y1188699D01*
X14879Y1188668D01*
X14867Y1188640D01*
X14797Y1188315D01*
X14718Y1187715D01*
X14715Y1187629D01*
X14701Y1187450D01*
X14701Y1059103D01*
X14701Y1059098D01*
X14701Y1059094D01*
X14721Y1058900D01*
X14741Y1058702D01*
X14742Y1058698D01*
X14742Y1058693D01*
X14800Y1058508D01*
X14859Y1058317D01*
X14861Y1058313D01*
X14862Y1058309D01*
X14956Y1058137D01*
X15051Y1057963D01*
X15053Y1057960D01*
X15056Y1057956D01*
X15184Y1057803D01*
X15308Y1057654D01*
X15312Y1057651D01*
X15315Y1057648D01*
X15469Y1057524D01*
X15622Y1057402D01*
X15626Y1057400D01*
X15629Y1057397D01*
X15804Y1057307D01*
X15979Y1057216D01*
X15984Y1057215D01*
X15988Y1057213D01*
X16175Y1057160D01*
X16366Y1057105D01*
X16371Y1057104D01*
X16375Y1057103D01*
X16568Y1057088D01*
X16768Y1057072D01*
X16772Y1057072D01*
X16776Y1057072D01*
X16970Y1057096D01*
X17167Y1057119D01*
X17172Y1057120D01*
X17176Y1057121D01*
X17361Y1057182D01*
X17550Y1057244D01*
X17554Y1057246D01*
X17558Y1057247D01*
X17730Y1057345D01*
X17901Y1057441D01*
X17904Y1057444D01*
X17908Y1057447D01*
X18059Y1057578D01*
X18205Y1057705D01*
X18208Y1057708D01*
X18212Y1057711D01*
X18331Y1057867D01*
X18452Y1058023D01*
X18454Y1058027D01*
X18457Y1058030D01*
X18609Y1058325D01*
X19481Y1060431D01*
X22625Y1063575D01*
X23717Y1064027D01*
X23717Y1064028D01*
X26733Y1065277D01*
X49467Y1065277D01*
X53575Y1063575D01*
X56719Y1060431D01*
X58421Y1056323D01*
X58421Y1051877D01*
X56719Y1047769D01*
X53575Y1044625D01*
X50956Y1043540D01*
X50878Y1043498D01*
X50795Y1043465D01*
X50700Y1043403D01*
X50601Y1043350D01*
X50532Y1043293D01*
X50458Y1043245D01*
X50378Y1043165D01*
X50291Y1043093D01*
X50235Y1043024D01*
X50171Y1042962D01*
X50108Y1042868D01*
X50037Y1042781D01*
X49996Y1042702D01*
X49946Y1042628D01*
X49902Y1042524D01*
X49850Y1042424D01*
X49825Y1042339D01*
X49791Y1042257D01*
X49768Y1042146D01*
X49737Y1042038D01*
X49729Y1041949D01*
X49712Y1041862D01*
X49712Y1041749D01*
X49702Y1041637D01*
X49712Y1041548D01*
X49712Y1041460D01*
X49735Y1041349D01*
X49747Y1041237D01*
X49774Y1041152D01*
X49792Y1041065D01*
X49836Y1040961D01*
X49870Y1040853D01*
X49914Y1040776D01*
X49948Y1040694D01*
X50012Y1040600D01*
X50067Y1040502D01*
X50124Y1040434D01*
X50174Y1040361D01*
X50255Y1040282D01*
X50329Y1040196D01*
X50399Y1040141D01*
X50462Y1040079D01*
X50556Y1040017D01*
X50646Y1039948D01*
X50725Y1039908D01*
X50799Y1039859D01*
X50930Y1039805D01*
X51005Y1039767D01*
X51050Y1039755D01*
X51105Y1039731D01*
X51729Y1039529D01*
X53368Y1038694D01*
X54856Y1037613D01*
X56157Y1036312D01*
X57238Y1034824D01*
X58073Y1033186D01*
X58641Y1031436D01*
X58672Y1031239D01*
X38608Y1031239D01*
X38590Y1031237D01*
X38573Y1031239D01*
X38390Y1031218D01*
X38208Y1031199D01*
X38191Y1031194D01*
X38173Y1031192D01*
X37998Y1031135D01*
X37823Y1031081D01*
X37807Y1031073D01*
X37790Y1031067D01*
X37630Y1030977D01*
X37469Y1030889D01*
X37455Y1030878D01*
X37439Y1030869D01*
X37300Y1030749D01*
X37159Y1030632D01*
X37148Y1030618D01*
X37135Y1030606D01*
X37022Y1030461D01*
X36907Y1030318D01*
X36899Y1030302D01*
X36888Y1030288D01*
X36806Y1030123D01*
X36722Y1029961D01*
X36717Y1029944D01*
X36709Y1029928D01*
X36661Y1029749D01*
X36610Y1029574D01*
X36609Y1029556D01*
X36604Y1029539D01*
X36577Y1029208D01*
X36577Y1028192D01*
X36579Y1028174D01*
X36577Y1028156D01*
X36599Y1027974D01*
X36617Y1027791D01*
X36622Y1027774D01*
X36624Y1027757D01*
X36681Y1027582D01*
X36735Y1027406D01*
X36743Y1027391D01*
X36749Y1027374D01*
X36839Y1027214D01*
X36927Y1027052D01*
X36938Y1027039D01*
X36947Y1027023D01*
X37067Y1026884D01*
X37185Y1026743D01*
X37198Y1026732D01*
X37210Y1026718D01*
X37355Y1026606D01*
X37498Y1026491D01*
X37514Y1026483D01*
X37528Y1026472D01*
X37693Y1026390D01*
X37856Y1026305D01*
X37873Y1026300D01*
X37889Y1026292D01*
X38067Y1026244D01*
X38242Y1026194D01*
X38260Y1026192D01*
X38277Y1026188D01*
X38608Y1026161D01*
X58672Y1026161D01*
X58641Y1025964D01*
X58073Y1024214D01*
X57238Y1022576D01*
X56157Y1021088D01*
X54856Y1019787D01*
X53368Y1018706D01*
X51729Y1017871D01*
X51105Y1017669D01*
X51024Y1017633D01*
X50939Y1017607D01*
X50840Y1017552D01*
X50737Y1017507D01*
X50664Y1017456D01*
X50586Y1017413D01*
X50500Y1017341D01*
X50407Y1017276D01*
X50346Y1017211D01*
X50278Y1017154D01*
X50208Y1017066D01*
X50130Y1016984D01*
X50082Y1016909D01*
X50027Y1016839D01*
X49976Y1016739D01*
X49915Y1016643D01*
X49884Y1016560D01*
X49843Y1016481D01*
X49812Y1016373D01*
X49772Y1016267D01*
X49758Y1016179D01*
X49733Y1016094D01*
X49725Y1015981D01*
X49706Y1015870D01*
X49709Y1015781D01*
X49702Y1015692D01*
X49716Y1015580D01*
X49720Y1015467D01*
X49740Y1015381D01*
X49751Y1015293D01*
X49786Y1015185D01*
X49813Y1015075D01*
X49850Y1014995D01*
X49878Y1014910D01*
X49934Y1014812D01*
X49981Y1014710D01*
X50033Y1014638D01*
X50077Y1014561D01*
X50151Y1014475D01*
X50218Y1014384D01*
X50283Y1014324D01*
X50341Y1014257D01*
X50431Y1014188D01*
X50514Y1014112D01*
X50590Y1014066D01*
X50661Y1014012D01*
X50786Y1013947D01*
X50859Y1013903D01*
X50902Y1013888D01*
X50956Y1013860D01*
X53575Y1012775D01*
X56719Y1009631D01*
X57180Y1008520D01*
X57188Y1008504D01*
X57193Y1008487D01*
X57284Y1008326D01*
X57370Y1008165D01*
X57381Y1008151D01*
X57390Y1008135D01*
X57509Y1007996D01*
X57626Y1007854D01*
X57640Y1007843D01*
X57652Y1007830D01*
X57796Y1007716D01*
X57939Y1007601D01*
X57955Y1007592D01*
X57969Y1007581D01*
X58133Y1007499D01*
X58295Y1007414D01*
X58312Y1007409D01*
X58328Y1007401D01*
X58505Y1007352D01*
X58682Y1007301D01*
X58700Y1007299D01*
X58717Y1007294D01*
X58901Y1007282D01*
X59083Y1007266D01*
X59100Y1007268D01*
G37*
G36*
X126686Y633928D02*
X126686Y633928D01*
X126691Y633928D01*
X126889Y633952D01*
X127082Y633976D01*
X127086Y633977D01*
X127090Y633978D01*
X127274Y634040D01*
X127464Y634103D01*
X127468Y634105D01*
X127472Y634106D01*
X127643Y634204D01*
X127814Y634302D01*
X127817Y634305D01*
X127821Y634307D01*
X128074Y634522D01*
X139128Y645576D01*
X139145Y645597D01*
X139166Y645614D01*
X139273Y645752D01*
X139383Y645888D01*
X139396Y645911D01*
X139412Y645932D01*
X139490Y646089D01*
X139572Y646243D01*
X139580Y646269D01*
X139592Y646293D01*
X139621Y646403D01*
X140377Y648228D01*
X141585Y649436D01*
X142890Y649976D01*
X142910Y649987D01*
X142931Y649994D01*
X143087Y650082D01*
X143245Y650167D01*
X143262Y650181D01*
X143282Y650192D01*
X143418Y650309D01*
X143556Y650423D01*
X143570Y650440D01*
X143587Y650455D01*
X143696Y650596D01*
X143809Y650736D01*
X143820Y650755D01*
X143833Y650773D01*
X143913Y650934D01*
X143996Y651092D01*
X144003Y651114D01*
X144013Y651134D01*
X144059Y651307D01*
X144109Y651479D01*
X144111Y651501D01*
X144117Y651522D01*
X144144Y651853D01*
X144144Y736624D01*
X144142Y736642D01*
X144144Y736660D01*
X144123Y736842D01*
X144104Y737025D01*
X144099Y737042D01*
X144097Y737059D01*
X144040Y737234D01*
X143986Y737410D01*
X143978Y737425D01*
X143972Y737442D01*
X143882Y737602D01*
X143794Y737764D01*
X143783Y737777D01*
X143774Y737793D01*
X143654Y737932D01*
X143537Y738073D01*
X143523Y738084D01*
X143511Y738098D01*
X143366Y738210D01*
X143223Y738325D01*
X143207Y738333D01*
X143193Y738344D01*
X143028Y738426D01*
X142866Y738511D01*
X142849Y738516D01*
X142833Y738524D01*
X142654Y738571D01*
X142479Y738622D01*
X142461Y738624D01*
X142444Y738628D01*
X142113Y738655D01*
X140878Y738655D01*
X139299Y739309D01*
X138091Y740517D01*
X137328Y742360D01*
X137279Y742518D01*
X137266Y742542D01*
X137258Y742567D01*
X137171Y742719D01*
X137087Y742872D01*
X137070Y742893D01*
X137057Y742916D01*
X136842Y743169D01*
X106592Y773419D01*
X106578Y773430D01*
X106567Y773444D01*
X106423Y773558D01*
X106281Y773674D01*
X106265Y773682D01*
X106251Y773693D01*
X106087Y773777D01*
X105925Y773863D01*
X105908Y773868D01*
X105892Y773876D01*
X105715Y773925D01*
X105539Y773977D01*
X105521Y773979D01*
X105504Y773984D01*
X105321Y773997D01*
X105138Y774014D01*
X105120Y774012D01*
X105103Y774013D01*
X104921Y773990D01*
X104738Y773970D01*
X104721Y773965D01*
X104703Y773963D01*
X104529Y773904D01*
X104354Y773849D01*
X104338Y773840D01*
X104322Y773835D01*
X104162Y773743D01*
X104002Y773654D01*
X103988Y773643D01*
X103973Y773634D01*
X103720Y773419D01*
X95187Y764886D01*
X95170Y764865D01*
X95149Y764848D01*
X95042Y764710D01*
X94932Y764574D01*
X94919Y764551D01*
X94903Y764530D01*
X94825Y764373D01*
X94743Y764219D01*
X94735Y764193D01*
X94723Y764169D01*
X94694Y764059D01*
X93938Y762234D01*
X92730Y761026D01*
X91151Y760372D01*
X89443Y760372D01*
X87864Y761026D01*
X87031Y761859D01*
X87017Y761870D01*
X87006Y761884D01*
X86863Y761997D01*
X86720Y762114D01*
X86704Y762122D01*
X86690Y762133D01*
X86526Y762217D01*
X86364Y762303D01*
X86347Y762308D01*
X86331Y762316D01*
X86154Y762365D01*
X85978Y762417D01*
X85960Y762419D01*
X85943Y762424D01*
X85760Y762437D01*
X85577Y762454D01*
X85560Y762452D01*
X85542Y762453D01*
X85360Y762430D01*
X85177Y762410D01*
X85160Y762405D01*
X85142Y762403D01*
X84968Y762344D01*
X84793Y762289D01*
X84777Y762280D01*
X84761Y762275D01*
X84602Y762183D01*
X84441Y762094D01*
X84427Y762083D01*
X84412Y762074D01*
X84159Y761859D01*
X78193Y755893D01*
X78176Y755872D01*
X78155Y755855D01*
X78048Y755717D01*
X77938Y755581D01*
X77925Y755558D01*
X77909Y755537D01*
X77831Y755380D01*
X77749Y755226D01*
X77741Y755200D01*
X77729Y755176D01*
X77684Y755007D01*
X77634Y754840D01*
X77632Y754813D01*
X77625Y754787D01*
X77598Y754457D01*
X77598Y752717D01*
X77599Y752708D01*
X77598Y752699D01*
X77619Y752507D01*
X77638Y752316D01*
X77640Y752308D01*
X77641Y752299D01*
X77699Y752117D01*
X77756Y751932D01*
X77760Y751924D01*
X77763Y751915D01*
X77856Y751747D01*
X77948Y751578D01*
X77953Y751571D01*
X77958Y751563D01*
X78083Y751415D01*
X78205Y751268D01*
X78212Y751263D01*
X78218Y751256D01*
X78370Y751136D01*
X78519Y751016D01*
X78527Y751012D01*
X78534Y751006D01*
X78706Y750919D01*
X78876Y750830D01*
X78885Y750828D01*
X78893Y750824D01*
X79079Y750772D01*
X79263Y750719D01*
X79272Y750718D01*
X79281Y750716D01*
X79473Y750702D01*
X79665Y750686D01*
X79673Y750687D01*
X79682Y750687D01*
X79875Y750711D01*
X80064Y750733D01*
X80073Y750736D01*
X80082Y750737D01*
X80265Y750798D01*
X80447Y750858D01*
X80455Y750862D01*
X80463Y750865D01*
X80629Y750961D01*
X80798Y751056D01*
X80805Y751062D01*
X80812Y751066D01*
X81065Y751281D01*
X82425Y752641D01*
X86626Y754381D01*
X91174Y754381D01*
X95375Y752641D01*
X98591Y749425D01*
X99723Y746690D01*
X99728Y746682D01*
X99730Y746674D01*
X99822Y746506D01*
X99914Y746335D01*
X99919Y746328D01*
X99924Y746320D01*
X100047Y746174D01*
X100170Y746025D01*
X100177Y746019D01*
X100183Y746012D01*
X100333Y745893D01*
X100483Y745771D01*
X100491Y745767D01*
X100497Y745761D01*
X100669Y745673D01*
X100839Y745584D01*
X100848Y745581D01*
X100856Y745577D01*
X101041Y745525D01*
X101226Y745471D01*
X101234Y745470D01*
X101243Y745468D01*
X101434Y745453D01*
X101627Y745436D01*
X101636Y745437D01*
X101644Y745437D01*
X101837Y745460D01*
X102027Y745481D01*
X102035Y745484D01*
X102044Y745485D01*
X102229Y745546D01*
X102410Y745605D01*
X102418Y745609D01*
X102426Y745612D01*
X102594Y745707D01*
X102762Y745801D01*
X102768Y745807D01*
X102776Y745811D01*
X102921Y745938D01*
X103067Y746063D01*
X103073Y746070D01*
X103080Y746076D01*
X103197Y746228D01*
X103316Y746380D01*
X103320Y746388D01*
X103325Y746395D01*
X103477Y746690D01*
X104609Y749425D01*
X107825Y752641D01*
X112026Y754381D01*
X116574Y754381D01*
X120775Y752641D01*
X123991Y749425D01*
X125731Y745224D01*
X125731Y740676D01*
X123991Y736475D01*
X120775Y733259D01*
X118745Y732419D01*
X118667Y732377D01*
X118584Y732344D01*
X118490Y732282D01*
X118390Y732229D01*
X118322Y732172D01*
X118247Y732123D01*
X118167Y732044D01*
X118080Y731972D01*
X118024Y731903D01*
X117961Y731841D01*
X117897Y731747D01*
X117826Y731659D01*
X117785Y731581D01*
X117735Y731507D01*
X117691Y731403D01*
X117639Y731303D01*
X117614Y731218D01*
X117580Y731136D01*
X117558Y731025D01*
X117526Y730917D01*
X117518Y730828D01*
X117501Y730741D01*
X117501Y730628D01*
X117491Y730515D01*
X117501Y730427D01*
X117501Y730338D01*
X117524Y730228D01*
X117536Y730115D01*
X117564Y730031D01*
X117581Y729944D01*
X117625Y729840D01*
X117660Y729732D01*
X117703Y729654D01*
X117737Y729573D01*
X117801Y729479D01*
X117856Y729381D01*
X117914Y729313D01*
X117964Y729240D01*
X118044Y729160D01*
X118118Y729075D01*
X118188Y729020D01*
X118251Y728958D01*
X118346Y728896D01*
X118435Y728826D01*
X118514Y728787D01*
X118589Y728738D01*
X118719Y728684D01*
X118795Y728646D01*
X118839Y728634D01*
X118871Y728620D01*
X120557Y727761D01*
X122078Y726656D01*
X123406Y725328D01*
X124511Y723807D01*
X125364Y722133D01*
X125945Y720346D01*
X125985Y720089D01*
X114808Y720089D01*
X114790Y720087D01*
X114773Y720089D01*
X114590Y720068D01*
X114408Y720049D01*
X114391Y720044D01*
X114373Y720042D01*
X114295Y720017D01*
X114158Y720056D01*
X114140Y720058D01*
X114123Y720062D01*
X113792Y720089D01*
X89408Y720089D01*
X89390Y720087D01*
X89373Y720089D01*
X89190Y720068D01*
X89008Y720049D01*
X88991Y720044D01*
X88973Y720042D01*
X88798Y719985D01*
X88623Y719931D01*
X88607Y719923D01*
X88590Y719917D01*
X88430Y719827D01*
X88269Y719739D01*
X88255Y719728D01*
X88239Y719719D01*
X88100Y719599D01*
X87959Y719482D01*
X87948Y719468D01*
X87935Y719456D01*
X87822Y719311D01*
X87707Y719168D01*
X87699Y719152D01*
X87688Y719138D01*
X87606Y718973D01*
X87566Y718897D01*
X87414Y718811D01*
X87252Y718723D01*
X87239Y718712D01*
X87223Y718703D01*
X87084Y718583D01*
X86943Y718465D01*
X86932Y718452D01*
X86918Y718440D01*
X86806Y718295D01*
X86691Y718152D01*
X86683Y718136D01*
X86672Y718122D01*
X86590Y717957D01*
X86505Y717794D01*
X86500Y717777D01*
X86492Y717761D01*
X86444Y717583D01*
X86394Y717408D01*
X86392Y717390D01*
X86388Y717373D01*
X86361Y717042D01*
X86361Y692658D01*
X86362Y692640D01*
X86361Y692623D01*
X86382Y692440D01*
X86401Y692258D01*
X86406Y692241D01*
X86408Y692223D01*
X86433Y692145D01*
X86394Y692008D01*
X86392Y691990D01*
X86388Y691973D01*
X86361Y691642D01*
X86361Y669289D01*
X75796Y669289D01*
X75683Y669348D01*
X75674Y669351D01*
X75666Y669355D01*
X75481Y669406D01*
X75296Y669460D01*
X75287Y669460D01*
X75278Y669463D01*
X75085Y669477D01*
X74895Y669493D01*
X74886Y669492D01*
X74877Y669492D01*
X74684Y669468D01*
X74495Y669446D01*
X74486Y669443D01*
X74477Y669442D01*
X74295Y669381D01*
X74112Y669321D01*
X74104Y669316D01*
X74096Y669314D01*
X73929Y669218D01*
X73761Y669123D01*
X73755Y669117D01*
X73747Y669113D01*
X73494Y668898D01*
X70496Y665900D01*
X70490Y665893D01*
X70484Y665888D01*
X70363Y665738D01*
X70241Y665589D01*
X70237Y665581D01*
X70231Y665574D01*
X70142Y665403D01*
X70052Y665233D01*
X70050Y665225D01*
X70046Y665217D01*
X69992Y665031D01*
X69938Y664847D01*
X69937Y664838D01*
X69934Y664830D01*
X69919Y664638D01*
X69901Y664446D01*
X69902Y664437D01*
X69901Y664428D01*
X69924Y664239D01*
X69945Y664046D01*
X69947Y664037D01*
X69948Y664029D01*
X70008Y663847D01*
X70066Y663662D01*
X70070Y663654D01*
X70073Y663646D01*
X70168Y663477D01*
X70261Y663310D01*
X70267Y663303D01*
X70271Y663295D01*
X70397Y663149D01*
X70521Y663003D01*
X70528Y662997D01*
X70534Y662990D01*
X70686Y662873D01*
X70837Y662753D01*
X70845Y662749D01*
X70852Y662744D01*
X71024Y662658D01*
X71196Y662571D01*
X71205Y662568D01*
X71213Y662564D01*
X71399Y662514D01*
X71584Y662463D01*
X71593Y662462D01*
X71602Y662460D01*
X71932Y662433D01*
X72818Y662433D01*
X74474Y661747D01*
X74639Y661697D01*
X74803Y661642D01*
X74832Y661639D01*
X74859Y661630D01*
X75031Y661614D01*
X75202Y661593D01*
X75231Y661595D01*
X75260Y661592D01*
X75432Y661610D01*
X75604Y661623D01*
X75632Y661631D01*
X75660Y661634D01*
X75825Y661685D01*
X75992Y661732D01*
X76017Y661745D01*
X76045Y661754D01*
X76196Y661837D01*
X76350Y661915D01*
X76373Y661933D01*
X76398Y661947D01*
X76530Y662058D01*
X76665Y662165D01*
X76684Y662187D01*
X76706Y662206D01*
X76814Y662341D01*
X76925Y662473D01*
X76939Y662498D01*
X76957Y662521D01*
X77036Y662675D01*
X77119Y662826D01*
X77128Y662853D01*
X77141Y662879D01*
X77188Y663045D01*
X77240Y663210D01*
X77243Y663239D01*
X77251Y663266D01*
X77264Y663438D01*
X77282Y663610D01*
X77280Y663642D01*
X77282Y663668D01*
X77272Y663751D01*
X77257Y663941D01*
X77215Y664211D01*
X88392Y664211D01*
X88410Y664212D01*
X88427Y664211D01*
X88610Y664232D01*
X88792Y664251D01*
X88809Y664256D01*
X88827Y664258D01*
X88905Y664283D01*
X89042Y664244D01*
X89060Y664242D01*
X89077Y664238D01*
X89408Y664211D01*
X113792Y664211D01*
X113810Y664212D01*
X113827Y664211D01*
X114010Y664232D01*
X114192Y664251D01*
X114209Y664256D01*
X114227Y664258D01*
X114305Y664283D01*
X114442Y664244D01*
X114460Y664242D01*
X114477Y664238D01*
X114808Y664211D01*
X125985Y664211D01*
X125945Y663954D01*
X125364Y662167D01*
X124511Y660493D01*
X123406Y658972D01*
X122078Y657644D01*
X120557Y656539D01*
X118864Y655676D01*
X118813Y655654D01*
X118729Y655628D01*
X118630Y655574D01*
X118526Y655528D01*
X118453Y655477D01*
X118375Y655434D01*
X118289Y655362D01*
X118196Y655297D01*
X118135Y655232D01*
X118067Y655175D01*
X117997Y655087D01*
X117919Y655005D01*
X117872Y654930D01*
X117816Y654860D01*
X117765Y654760D01*
X117705Y654664D01*
X117673Y654581D01*
X117632Y654502D01*
X117602Y654394D01*
X117561Y654288D01*
X117547Y654200D01*
X117523Y654115D01*
X117514Y654002D01*
X117495Y653891D01*
X117498Y653802D01*
X117492Y653714D01*
X117505Y653601D01*
X117509Y653488D01*
X117530Y653402D01*
X117540Y653314D01*
X117576Y653207D01*
X117602Y653097D01*
X117639Y653016D01*
X117667Y652932D01*
X117723Y652834D01*
X117770Y652731D01*
X117822Y652659D01*
X117866Y652582D01*
X117941Y652497D01*
X118007Y652405D01*
X118072Y652345D01*
X118131Y652278D01*
X118220Y652209D01*
X118303Y652133D01*
X118380Y652087D01*
X118450Y652033D01*
X118575Y651969D01*
X118648Y651925D01*
X118691Y651909D01*
X118745Y651881D01*
X120775Y651041D01*
X123991Y647825D01*
X125731Y643624D01*
X125731Y639076D01*
X124761Y636735D01*
X124760Y636731D01*
X124758Y636727D01*
X124703Y636542D01*
X124645Y636350D01*
X124644Y636346D01*
X124643Y636341D01*
X124625Y636143D01*
X124607Y635949D01*
X124607Y635945D01*
X124607Y635940D01*
X124628Y635742D01*
X124648Y635549D01*
X124649Y635544D01*
X124650Y635540D01*
X124710Y635351D01*
X124768Y635164D01*
X124770Y635161D01*
X124771Y635156D01*
X124866Y634986D01*
X124961Y634811D01*
X124964Y634808D01*
X124966Y634804D01*
X125092Y634656D01*
X125220Y634503D01*
X125224Y634500D01*
X125227Y634497D01*
X125380Y634375D01*
X125535Y634252D01*
X125539Y634250D01*
X125543Y634247D01*
X125718Y634158D01*
X125893Y634068D01*
X125898Y634067D01*
X125902Y634065D01*
X126094Y634011D01*
X126281Y633958D01*
X126285Y633958D01*
X126290Y633957D01*
X126491Y633942D01*
X126682Y633927D01*
X126686Y633928D01*
G37*
G36*
X113713Y331128D02*
X113713Y331128D01*
X113726Y331127D01*
X113912Y331151D01*
X114099Y331173D01*
X114112Y331177D01*
X114125Y331179D01*
X114441Y331280D01*
X115107Y331556D01*
X115265Y331605D01*
X115289Y331618D01*
X115314Y331626D01*
X115466Y331713D01*
X115619Y331797D01*
X115640Y331814D01*
X115663Y331827D01*
X115916Y332042D01*
X173267Y389393D01*
X173284Y389414D01*
X173305Y389431D01*
X173412Y389569D01*
X173522Y389705D01*
X173535Y389728D01*
X173551Y389749D01*
X173629Y389906D01*
X173711Y390060D01*
X173719Y390086D01*
X173731Y390110D01*
X173776Y390279D01*
X173826Y390446D01*
X173828Y390473D01*
X173835Y390499D01*
X173862Y390829D01*
X173862Y605867D01*
X173860Y605893D01*
X173862Y605920D01*
X173840Y606094D01*
X173822Y606267D01*
X173815Y606293D01*
X173811Y606319D01*
X173756Y606485D01*
X173704Y606652D01*
X173691Y606676D01*
X173683Y606701D01*
X173596Y606853D01*
X173512Y607006D01*
X173495Y607027D01*
X173482Y607050D01*
X173267Y607303D01*
X172712Y607859D01*
X172699Y607980D01*
X172679Y608172D01*
X172677Y608181D01*
X172676Y608190D01*
X172618Y608373D01*
X172561Y608557D01*
X172557Y608565D01*
X172554Y608574D01*
X172461Y608741D01*
X172369Y608911D01*
X172364Y608918D01*
X172359Y608926D01*
X172235Y609073D01*
X172112Y609220D01*
X172105Y609226D01*
X172099Y609233D01*
X171947Y609353D01*
X171798Y609473D01*
X171790Y609477D01*
X171783Y609482D01*
X171610Y609570D01*
X171441Y609658D01*
X171432Y609661D01*
X171424Y609665D01*
X171239Y609716D01*
X171054Y609770D01*
X171045Y609770D01*
X171036Y609773D01*
X170844Y609787D01*
X170652Y609803D01*
X170644Y609802D01*
X170635Y609802D01*
X170443Y609778D01*
X170253Y609756D01*
X170244Y609753D01*
X170235Y609752D01*
X170053Y609691D01*
X169870Y609631D01*
X169862Y609626D01*
X169854Y609624D01*
X169686Y609527D01*
X169519Y609433D01*
X169512Y609427D01*
X169505Y609423D01*
X169252Y609208D01*
X168490Y608446D01*
X168473Y608425D01*
X168452Y608408D01*
X168346Y608270D01*
X168235Y608134D01*
X168222Y608111D01*
X168206Y608090D01*
X168128Y607933D01*
X168046Y607779D01*
X168038Y607753D01*
X168026Y607729D01*
X167981Y607560D01*
X167931Y607393D01*
X167929Y607366D01*
X167922Y607340D01*
X167895Y607010D01*
X167895Y567111D01*
X167897Y567085D01*
X167895Y567058D01*
X167917Y566884D01*
X167935Y566711D01*
X167942Y566685D01*
X167946Y566659D01*
X168001Y566493D01*
X168053Y566326D01*
X168066Y566302D01*
X168074Y566277D01*
X168131Y566178D01*
X168887Y564353D01*
X168887Y562645D01*
X168233Y561066D01*
X167025Y559858D01*
X165446Y559204D01*
X164973Y559204D01*
X164955Y559202D01*
X164937Y559204D01*
X164755Y559183D01*
X164572Y559164D01*
X164555Y559159D01*
X164538Y559157D01*
X164363Y559100D01*
X164187Y559046D01*
X164172Y559038D01*
X164155Y559032D01*
X163995Y558942D01*
X163833Y558854D01*
X163820Y558843D01*
X163804Y558834D01*
X163665Y558714D01*
X163524Y558597D01*
X163513Y558583D01*
X163499Y558571D01*
X163387Y558426D01*
X163272Y558283D01*
X163264Y558267D01*
X163253Y558253D01*
X163171Y558088D01*
X163086Y557926D01*
X163081Y557909D01*
X163073Y557893D01*
X163026Y557714D01*
X162975Y557539D01*
X162973Y557521D01*
X162969Y557504D01*
X162942Y557173D01*
X162942Y521542D01*
X162323Y520049D01*
X153875Y511601D01*
X153864Y511587D01*
X153850Y511576D01*
X153736Y511431D01*
X153620Y511289D01*
X153612Y511274D01*
X153601Y511260D01*
X153517Y511096D01*
X153432Y510934D01*
X153426Y510917D01*
X153418Y510901D01*
X153369Y510724D01*
X153317Y510548D01*
X153315Y510530D01*
X153310Y510513D01*
X153297Y510330D01*
X153280Y510147D01*
X153282Y510129D01*
X153281Y510111D01*
X153304Y509930D01*
X153324Y509747D01*
X153329Y509729D01*
X153331Y509712D01*
X153390Y509538D01*
X153445Y509363D01*
X153454Y509347D01*
X153460Y509330D01*
X153552Y509170D01*
X153640Y509010D01*
X153652Y508997D01*
X153661Y508981D01*
X153875Y508728D01*
X154533Y508071D01*
X155445Y506816D01*
X156149Y505433D01*
X156628Y503958D01*
X156672Y503681D01*
X139700Y503681D01*
X139683Y503680D01*
X139665Y503681D01*
X139482Y503660D01*
X139300Y503641D01*
X139283Y503636D01*
X139265Y503634D01*
X139090Y503577D01*
X138915Y503523D01*
X138899Y503515D01*
X138882Y503509D01*
X138722Y503419D01*
X138561Y503332D01*
X138547Y503320D01*
X138532Y503311D01*
X138392Y503191D01*
X138252Y503074D01*
X138251Y503074D01*
X138251Y503073D01*
X138240Y503060D01*
X138227Y503048D01*
X138226Y503048D01*
X138114Y502903D01*
X137999Y502760D01*
X137990Y502744D01*
X137980Y502730D01*
X137898Y502565D01*
X137813Y502402D01*
X137808Y502385D01*
X137800Y502369D01*
X137752Y502191D01*
X137702Y502015D01*
X137700Y501998D01*
X137696Y501980D01*
X137669Y501650D01*
X137669Y491794D01*
X131609Y491794D01*
X130077Y492037D01*
X128601Y492516D01*
X127077Y493293D01*
X127070Y493296D01*
X126958Y493361D01*
X126909Y493378D01*
X126864Y493402D01*
X126719Y493443D01*
X126577Y493492D01*
X126526Y493499D01*
X126477Y493513D01*
X126327Y493525D01*
X126178Y493545D01*
X126127Y493542D01*
X126075Y493546D01*
X125926Y493528D01*
X125776Y493518D01*
X125727Y493505D01*
X125676Y493499D01*
X125533Y493452D01*
X125388Y493413D01*
X125342Y493390D01*
X125293Y493374D01*
X125162Y493300D01*
X125027Y493233D01*
X124987Y493201D01*
X124942Y493176D01*
X124828Y493078D01*
X124710Y492985D01*
X124676Y492947D01*
X124637Y492913D01*
X124545Y492794D01*
X124447Y492680D01*
X124422Y492635D01*
X124391Y492595D01*
X124324Y492460D01*
X124250Y492329D01*
X124234Y492280D01*
X124211Y492234D01*
X124172Y492089D01*
X124126Y491946D01*
X124120Y491895D01*
X124107Y491846D01*
X124088Y491616D01*
X124080Y491546D01*
X124081Y491532D01*
X124080Y491515D01*
X124080Y485968D01*
X124081Y485955D01*
X124080Y485941D01*
X124101Y485755D01*
X124120Y485567D01*
X124124Y485555D01*
X124125Y485541D01*
X124183Y485362D01*
X124238Y485182D01*
X124244Y485171D01*
X124248Y485158D01*
X124340Y484993D01*
X124430Y484828D01*
X124438Y484818D01*
X124445Y484806D01*
X124567Y484664D01*
X124687Y484519D01*
X124698Y484511D01*
X124706Y484501D01*
X124854Y484385D01*
X125001Y484267D01*
X125013Y484261D01*
X125023Y484252D01*
X125192Y484168D01*
X125358Y484081D01*
X125371Y484078D01*
X125383Y484072D01*
X125564Y484022D01*
X125745Y483970D01*
X125759Y483969D01*
X125772Y483965D01*
X125960Y483952D01*
X126147Y483937D01*
X126160Y483939D01*
X126173Y483938D01*
X126361Y483962D01*
X126546Y483984D01*
X126559Y483988D01*
X126572Y483990D01*
X126888Y484091D01*
X130525Y485598D01*
X148875Y485598D01*
X152310Y484175D01*
X154940Y481545D01*
X156363Y478109D01*
X156363Y474391D01*
X154940Y470955D01*
X152310Y468325D01*
X148875Y466902D01*
X130525Y466902D01*
X126888Y468409D01*
X126875Y468413D01*
X126864Y468419D01*
X126684Y468470D01*
X126503Y468525D01*
X126490Y468526D01*
X126477Y468530D01*
X126289Y468545D01*
X126102Y468563D01*
X126089Y468562D01*
X126075Y468563D01*
X125888Y468541D01*
X125702Y468522D01*
X125689Y468518D01*
X125676Y468516D01*
X125496Y468457D01*
X125317Y468402D01*
X125306Y468395D01*
X125293Y468391D01*
X125128Y468298D01*
X124964Y468208D01*
X124954Y468200D01*
X124942Y468193D01*
X124800Y468070D01*
X124656Y467949D01*
X124648Y467939D01*
X124637Y467930D01*
X124522Y467782D01*
X124405Y467634D01*
X124399Y467623D01*
X124391Y467612D01*
X124307Y467443D01*
X124221Y467276D01*
X124217Y467264D01*
X124211Y467251D01*
X124162Y467069D01*
X124111Y466889D01*
X124110Y466876D01*
X124107Y466863D01*
X124080Y466532D01*
X124080Y460568D01*
X124081Y460559D01*
X124080Y460553D01*
X124081Y460549D01*
X124080Y460541D01*
X124101Y460355D01*
X124120Y460167D01*
X124124Y460155D01*
X124125Y460141D01*
X124183Y459962D01*
X124238Y459782D01*
X124244Y459771D01*
X124248Y459758D01*
X124340Y459593D01*
X124430Y459428D01*
X124438Y459418D01*
X124445Y459406D01*
X124567Y459264D01*
X124687Y459119D01*
X124698Y459111D01*
X124706Y459101D01*
X124854Y458985D01*
X125001Y458867D01*
X125013Y458861D01*
X125023Y458852D01*
X125192Y458768D01*
X125358Y458681D01*
X125371Y458678D01*
X125383Y458672D01*
X125564Y458622D01*
X125745Y458570D01*
X125759Y458569D01*
X125772Y458565D01*
X125960Y458552D01*
X126147Y458537D01*
X126160Y458539D01*
X126173Y458538D01*
X126361Y458562D01*
X126546Y458584D01*
X126559Y458588D01*
X126572Y458590D01*
X126888Y458691D01*
X130525Y460198D01*
X148875Y460198D01*
X152310Y458775D01*
X154940Y456145D01*
X156363Y452709D01*
X156363Y448991D01*
X154940Y445555D01*
X152310Y442925D01*
X150436Y442149D01*
X148875Y441502D01*
X130525Y441502D01*
X126888Y443009D01*
X126875Y443013D01*
X126864Y443019D01*
X126684Y443070D01*
X126503Y443125D01*
X126490Y443126D01*
X126477Y443130D01*
X126289Y443145D01*
X126102Y443163D01*
X126089Y443162D01*
X126075Y443163D01*
X125888Y443141D01*
X125702Y443122D01*
X125689Y443118D01*
X125676Y443116D01*
X125496Y443057D01*
X125317Y443002D01*
X125306Y442995D01*
X125293Y442991D01*
X125128Y442898D01*
X124964Y442808D01*
X124954Y442800D01*
X124942Y442793D01*
X124800Y442670D01*
X124656Y442549D01*
X124648Y442539D01*
X124637Y442530D01*
X124522Y442382D01*
X124405Y442234D01*
X124399Y442223D01*
X124391Y442212D01*
X124307Y442043D01*
X124221Y441876D01*
X124217Y441864D01*
X124211Y441851D01*
X124162Y441669D01*
X124111Y441489D01*
X124110Y441476D01*
X124107Y441463D01*
X124080Y441132D01*
X124080Y435168D01*
X124081Y435155D01*
X124080Y435141D01*
X124101Y434955D01*
X124120Y434767D01*
X124124Y434755D01*
X124125Y434741D01*
X124183Y434562D01*
X124238Y434382D01*
X124244Y434371D01*
X124248Y434358D01*
X124340Y434193D01*
X124430Y434028D01*
X124438Y434018D01*
X124445Y434006D01*
X124567Y433864D01*
X124687Y433719D01*
X124698Y433711D01*
X124706Y433701D01*
X124854Y433585D01*
X125001Y433467D01*
X125013Y433461D01*
X125023Y433452D01*
X125192Y433368D01*
X125358Y433281D01*
X125371Y433278D01*
X125383Y433272D01*
X125564Y433222D01*
X125745Y433170D01*
X125759Y433169D01*
X125772Y433165D01*
X125960Y433152D01*
X126147Y433137D01*
X126160Y433139D01*
X126173Y433138D01*
X126361Y433162D01*
X126546Y433184D01*
X126559Y433188D01*
X126572Y433190D01*
X126888Y433291D01*
X130525Y434798D01*
X148875Y434798D01*
X152310Y433375D01*
X154940Y430745D01*
X156363Y427309D01*
X156363Y423591D01*
X154940Y420155D01*
X153211Y418426D01*
X153202Y418415D01*
X153192Y418407D01*
X153075Y418260D01*
X152956Y418114D01*
X152950Y418103D01*
X152941Y418092D01*
X152855Y417924D01*
X152767Y417759D01*
X152763Y417746D01*
X152757Y417734D01*
X152706Y417553D01*
X152653Y417373D01*
X152651Y417359D01*
X152648Y417346D01*
X152633Y417160D01*
X152616Y416972D01*
X152618Y416958D01*
X152617Y416945D01*
X152639Y416760D01*
X152660Y416572D01*
X152664Y416559D01*
X152665Y416545D01*
X152724Y416367D01*
X152781Y416188D01*
X152788Y416176D01*
X152792Y416163D01*
X152885Y416000D01*
X152976Y415835D01*
X152985Y415825D01*
X152991Y415813D01*
X153114Y415672D01*
X153236Y415528D01*
X153247Y415520D01*
X153256Y415510D01*
X153404Y415396D01*
X153552Y415279D01*
X153564Y415273D01*
X153575Y415264D01*
X153870Y415113D01*
X154322Y414926D01*
X162323Y406924D01*
X162942Y405431D01*
X162942Y392383D01*
X162323Y390890D01*
X120031Y348598D01*
X118538Y347979D01*
X113664Y347979D01*
X113646Y347977D01*
X113628Y347979D01*
X113446Y347958D01*
X113263Y347939D01*
X113246Y347934D01*
X113229Y347932D01*
X113054Y347875D01*
X112878Y347821D01*
X112863Y347813D01*
X112846Y347807D01*
X112686Y347717D01*
X112524Y347629D01*
X112511Y347618D01*
X112495Y347609D01*
X112356Y347489D01*
X112215Y347372D01*
X112204Y347358D01*
X112190Y347346D01*
X112078Y347201D01*
X111963Y347058D01*
X111955Y347042D01*
X111944Y347028D01*
X111862Y346863D01*
X111777Y346701D01*
X111772Y346684D01*
X111764Y346668D01*
X111716Y346488D01*
X111666Y346314D01*
X111664Y346296D01*
X111660Y346279D01*
X111633Y345948D01*
X111633Y333157D01*
X111634Y333144D01*
X111633Y333130D01*
X111654Y332944D01*
X111673Y332756D01*
X111677Y332744D01*
X111678Y332730D01*
X111736Y332551D01*
X111791Y332372D01*
X111797Y332360D01*
X111801Y332347D01*
X111893Y332183D01*
X111983Y332018D01*
X111991Y332007D01*
X111998Y331996D01*
X112120Y331852D01*
X112240Y331708D01*
X112251Y331700D01*
X112259Y331690D01*
X112408Y331573D01*
X112554Y331456D01*
X112566Y331450D01*
X112576Y331441D01*
X112746Y331356D01*
X112911Y331270D01*
X112924Y331267D01*
X112936Y331261D01*
X113118Y331211D01*
X113298Y331159D01*
X113312Y331158D01*
X113325Y331154D01*
X113511Y331142D01*
X113700Y331126D01*
X113713Y331128D01*
G37*
G36*
X71269Y790097D02*
X71269Y790097D01*
X71283Y790096D01*
X71470Y790118D01*
X71656Y790137D01*
X71669Y790141D01*
X71682Y790142D01*
X71862Y790201D01*
X72041Y790257D01*
X72052Y790263D01*
X72065Y790267D01*
X72230Y790360D01*
X72394Y790450D01*
X72404Y790459D01*
X72416Y790465D01*
X72558Y790588D01*
X72702Y790709D01*
X72710Y790720D01*
X72721Y790728D01*
X72836Y790877D01*
X72953Y791024D01*
X72959Y791036D01*
X72967Y791046D01*
X73051Y791215D01*
X73137Y791382D01*
X73141Y791395D01*
X73147Y791407D01*
X73196Y791590D01*
X73247Y791770D01*
X73248Y791783D01*
X73251Y791796D01*
X73278Y792126D01*
X73278Y858210D01*
X73276Y858236D01*
X73278Y858263D01*
X73256Y858437D01*
X73238Y858610D01*
X73231Y858636D01*
X73227Y858662D01*
X73172Y858828D01*
X73120Y858995D01*
X73107Y859019D01*
X73099Y859044D01*
X73042Y859143D01*
X72286Y860968D01*
X72286Y862676D01*
X72940Y864255D01*
X74148Y865463D01*
X75727Y866117D01*
X76962Y866117D01*
X76980Y866119D01*
X76998Y866117D01*
X77180Y866138D01*
X77363Y866157D01*
X77380Y866162D01*
X77397Y866164D01*
X77572Y866221D01*
X77748Y866275D01*
X77763Y866283D01*
X77780Y866289D01*
X77940Y866379D01*
X78102Y866467D01*
X78115Y866478D01*
X78131Y866487D01*
X78270Y866607D01*
X78411Y866724D01*
X78422Y866738D01*
X78436Y866750D01*
X78548Y866895D01*
X78663Y867038D01*
X78671Y867054D01*
X78682Y867068D01*
X78764Y867233D01*
X78849Y867395D01*
X78854Y867412D01*
X78862Y867428D01*
X78909Y867607D01*
X78960Y867782D01*
X78962Y867800D01*
X78966Y867817D01*
X78993Y868148D01*
X78993Y920340D01*
X109259Y950606D01*
X109276Y950627D01*
X109297Y950644D01*
X109404Y950782D01*
X109514Y950918D01*
X109527Y950941D01*
X109543Y950962D01*
X109621Y951119D01*
X109703Y951273D01*
X109711Y951299D01*
X109723Y951323D01*
X109768Y951492D01*
X109818Y951659D01*
X109820Y951686D01*
X109827Y951712D01*
X109854Y952042D01*
X109854Y958794D01*
X109852Y958821D01*
X109854Y958848D01*
X109832Y959021D01*
X109814Y959194D01*
X109806Y959220D01*
X109803Y959248D01*
X109747Y959413D01*
X109696Y959579D01*
X109683Y959603D01*
X109675Y959629D01*
X109618Y959727D01*
X108862Y961552D01*
X108862Y963260D01*
X109516Y964839D01*
X110349Y965672D01*
X110360Y965686D01*
X110374Y965697D01*
X110487Y965840D01*
X110604Y965983D01*
X110612Y965999D01*
X110623Y966013D01*
X110707Y966177D01*
X110793Y966339D01*
X110798Y966356D01*
X110806Y966372D01*
X110855Y966549D01*
X110907Y966725D01*
X110909Y966743D01*
X110914Y966760D01*
X110927Y966943D01*
X110944Y967126D01*
X110942Y967143D01*
X110943Y967161D01*
X110920Y967343D01*
X110900Y967526D01*
X110895Y967543D01*
X110893Y967561D01*
X110834Y967735D01*
X110779Y967910D01*
X110770Y967926D01*
X110765Y967942D01*
X110673Y968101D01*
X110584Y968262D01*
X110573Y968276D01*
X110564Y968291D01*
X110349Y968544D01*
X105526Y973367D01*
X105505Y973384D01*
X105488Y973405D01*
X105350Y973511D01*
X105214Y973622D01*
X105191Y973635D01*
X105170Y973651D01*
X105014Y973729D01*
X104859Y973811D01*
X104833Y973819D01*
X104809Y973831D01*
X104640Y973876D01*
X104473Y973926D01*
X104446Y973928D01*
X104420Y973935D01*
X104090Y973962D01*
X59068Y973962D01*
X59046Y973960D01*
X59023Y973962D01*
X58846Y973940D01*
X58667Y973922D01*
X58646Y973916D01*
X58624Y973913D01*
X58454Y973857D01*
X58282Y973804D01*
X58263Y973794D01*
X58241Y973787D01*
X58086Y973698D01*
X57928Y973612D01*
X57911Y973598D01*
X57892Y973587D01*
X57756Y973469D01*
X57619Y973355D01*
X57605Y973337D01*
X57588Y973323D01*
X57479Y973181D01*
X57367Y973041D01*
X57356Y973021D01*
X57343Y973003D01*
X57191Y972708D01*
X56719Y971569D01*
X53575Y968425D01*
X53136Y968243D01*
X53135Y968243D01*
X50320Y967077D01*
X50312Y967072D01*
X50304Y967070D01*
X50134Y966977D01*
X49965Y966886D01*
X49959Y966881D01*
X49951Y966876D01*
X49803Y966752D01*
X49655Y966630D01*
X49649Y966623D01*
X49643Y966617D01*
X49523Y966467D01*
X49401Y966317D01*
X49397Y966309D01*
X49392Y966302D01*
X49304Y966132D01*
X49214Y965961D01*
X49212Y965952D01*
X49208Y965944D01*
X49155Y965760D01*
X49101Y965574D01*
X49100Y965565D01*
X49098Y965557D01*
X49083Y965365D01*
X49067Y965173D01*
X49068Y965164D01*
X49067Y965156D01*
X49090Y964964D01*
X49112Y964773D01*
X49114Y964765D01*
X49116Y964756D01*
X49176Y964573D01*
X49235Y964390D01*
X49239Y964382D01*
X49242Y964374D01*
X49338Y964206D01*
X49431Y964038D01*
X49437Y964032D01*
X49441Y964024D01*
X49569Y963878D01*
X49693Y963733D01*
X49700Y963727D01*
X49706Y963720D01*
X49858Y963603D01*
X50010Y963484D01*
X50018Y963480D01*
X50025Y963475D01*
X50320Y963323D01*
X53575Y961975D01*
X56719Y958831D01*
X58421Y954723D01*
X58421Y950277D01*
X56719Y946169D01*
X55109Y944559D01*
X55098Y944545D01*
X55084Y944533D01*
X54970Y944389D01*
X54854Y944247D01*
X54845Y944231D01*
X54834Y944217D01*
X54751Y944053D01*
X54665Y943891D01*
X54660Y943874D01*
X54652Y943858D01*
X54603Y943681D01*
X54550Y943505D01*
X54549Y943488D01*
X54544Y943470D01*
X54531Y943287D01*
X54514Y943104D01*
X54516Y943087D01*
X54515Y943069D01*
X54538Y942887D01*
X54557Y942704D01*
X54563Y942687D01*
X54565Y942669D01*
X54623Y942496D01*
X54679Y942320D01*
X54688Y942305D01*
X54693Y942288D01*
X54785Y942129D01*
X54874Y941968D01*
X54885Y941954D01*
X54894Y941939D01*
X55109Y941686D01*
X63882Y932913D01*
X63882Y796594D01*
X63884Y796568D01*
X63882Y796541D01*
X63904Y796367D01*
X63922Y796194D01*
X63929Y796168D01*
X63933Y796142D01*
X63988Y795976D01*
X64040Y795809D01*
X64053Y795785D01*
X64061Y795760D01*
X64148Y795608D01*
X64232Y795455D01*
X64249Y795434D01*
X64262Y795411D01*
X64477Y795158D01*
X68361Y791274D01*
X68382Y791257D01*
X68399Y791236D01*
X68537Y791129D01*
X68673Y791019D01*
X68696Y791006D01*
X68717Y790990D01*
X68874Y790912D01*
X69028Y790830D01*
X69054Y790822D01*
X69078Y790810D01*
X69188Y790781D01*
X70470Y790250D01*
X70483Y790246D01*
X70494Y790240D01*
X70674Y790188D01*
X70855Y790133D01*
X70868Y790132D01*
X70881Y790128D01*
X71069Y790113D01*
X71256Y790095D01*
X71269Y790097D01*
G37*
%LPC*%
G36*
X91439Y694689D02*
X91439Y694689D01*
X91439Y715011D01*
X111761Y715011D01*
X111761Y694689D01*
X91439Y694689D01*
G37*
%LPD*%
%LPC*%
G36*
X91439Y669289D02*
X91439Y669289D01*
X91439Y689611D01*
X111761Y689611D01*
X111761Y669289D01*
X91439Y669289D01*
G37*
%LPD*%
%LPC*%
G36*
X116839Y694689D02*
X116839Y694689D01*
X116839Y715011D01*
X125985Y715011D01*
X125945Y714754D01*
X125364Y712967D01*
X124511Y711293D01*
X123406Y709772D01*
X122078Y708444D01*
X120557Y707339D01*
X119224Y706660D01*
X119181Y706632D01*
X119134Y706611D01*
X119012Y706524D01*
X118885Y706442D01*
X118849Y706407D01*
X118807Y706377D01*
X118704Y706267D01*
X118596Y706162D01*
X118567Y706120D01*
X118532Y706083D01*
X118453Y705955D01*
X118368Y705831D01*
X118347Y705784D01*
X118321Y705740D01*
X118268Y705599D01*
X118209Y705461D01*
X118199Y705411D01*
X118181Y705363D01*
X118157Y705214D01*
X118127Y705067D01*
X118126Y705016D01*
X118118Y704965D01*
X118125Y704814D01*
X118124Y704664D01*
X118133Y704614D01*
X118135Y704563D01*
X118172Y704416D01*
X118200Y704269D01*
X118219Y704222D01*
X118232Y704172D01*
X118296Y704036D01*
X118353Y703896D01*
X118381Y703854D01*
X118403Y703807D01*
X118493Y703687D01*
X118576Y703561D01*
X118613Y703525D01*
X118643Y703484D01*
X118754Y703383D01*
X118861Y703277D01*
X118904Y703249D01*
X118942Y703214D01*
X119138Y703093D01*
X119197Y703054D01*
X119210Y703049D01*
X119224Y703040D01*
X120557Y702361D01*
X122078Y701256D01*
X123406Y699928D01*
X124511Y698407D01*
X125364Y696733D01*
X125945Y694946D01*
X125985Y694689D01*
X116839Y694689D01*
G37*
%LPD*%
%LPC*%
G36*
X116839Y669289D02*
X116839Y669289D01*
X116839Y689611D01*
X125985Y689611D01*
X125945Y689354D01*
X125364Y687567D01*
X124511Y685893D01*
X123406Y684372D01*
X122078Y683044D01*
X120557Y681939D01*
X119224Y681260D01*
X119181Y681232D01*
X119134Y681211D01*
X119012Y681124D01*
X118885Y681042D01*
X118849Y681007D01*
X118807Y680977D01*
X118704Y680867D01*
X118596Y680762D01*
X118567Y680720D01*
X118532Y680683D01*
X118453Y680555D01*
X118368Y680431D01*
X118347Y680384D01*
X118321Y680340D01*
X118268Y680199D01*
X118209Y680061D01*
X118199Y680011D01*
X118181Y679963D01*
X118157Y679814D01*
X118127Y679667D01*
X118126Y679616D01*
X118118Y679565D01*
X118125Y679414D01*
X118124Y679264D01*
X118133Y679214D01*
X118135Y679163D01*
X118171Y679017D01*
X118200Y678869D01*
X118219Y678821D01*
X118232Y678772D01*
X118296Y678636D01*
X118353Y678496D01*
X118381Y678454D01*
X118403Y678407D01*
X118493Y678287D01*
X118576Y678161D01*
X118612Y678125D01*
X118643Y678084D01*
X118755Y677983D01*
X118861Y677877D01*
X118904Y677849D01*
X118942Y677814D01*
X119139Y677693D01*
X119197Y677654D01*
X119209Y677649D01*
X119224Y677640D01*
X120557Y676961D01*
X122078Y675856D01*
X123406Y674528D01*
X124511Y673007D01*
X125364Y671333D01*
X125945Y669546D01*
X125985Y669289D01*
X116839Y669289D01*
G37*
%LPD*%
%LPC*%
G36*
X105599Y243724D02*
X105599Y243724D01*
X105599Y259766D01*
X109935Y259766D01*
X110581Y259593D01*
X111160Y259258D01*
X111633Y258785D01*
X111968Y258206D01*
X112141Y257560D01*
X112141Y243724D01*
X105599Y243724D01*
G37*
%LPD*%
%LPC*%
G36*
X141731Y491794D02*
X141731Y491794D01*
X141731Y499619D01*
X156672Y499619D01*
X156628Y499342D01*
X156149Y497867D01*
X155445Y496484D01*
X154533Y495229D01*
X153436Y494132D01*
X152181Y493220D01*
X150799Y492516D01*
X149323Y492037D01*
X147791Y491794D01*
X141731Y491794D01*
G37*
%LPD*%
%LPC*%
G36*
X65531Y390194D02*
X65531Y390194D01*
X65531Y398019D01*
X80472Y398019D01*
X80428Y397742D01*
X79949Y396267D01*
X79245Y394884D01*
X78333Y393629D01*
X77236Y392532D01*
X75981Y391620D01*
X74599Y390916D01*
X73123Y390437D01*
X71591Y390194D01*
X65531Y390194D01*
G37*
%LPD*%
D10*
X56185Y577850D02*
X70815Y577850D01*
X70815Y552450D02*
X56185Y552450D01*
X56185Y425450D02*
X70815Y425450D01*
X70815Y400050D02*
X56185Y400050D01*
X56185Y527050D02*
X70815Y527050D01*
X70815Y501650D02*
X56185Y501650D01*
X56185Y450850D02*
X70815Y450850D01*
X70815Y476250D02*
X56185Y476250D01*
X132385Y400050D02*
X147015Y400050D01*
X147015Y425450D02*
X132385Y425450D01*
X132385Y450850D02*
X147015Y450850D01*
X147015Y476250D02*
X132385Y476250D01*
X132385Y501650D02*
X147015Y501650D01*
X147015Y527050D02*
X132385Y527050D01*
X132385Y552450D02*
X147015Y552450D01*
X147015Y577850D02*
X132385Y577850D01*
D11*
X165100Y680650D03*
D12*
X165100Y767150D03*
D11*
X38100Y680650D03*
D12*
X38100Y767150D03*
D13*
X88900Y641350D03*
X114300Y641350D03*
X88900Y666750D03*
X114300Y666750D03*
X88900Y692150D03*
X114300Y692150D03*
X88900Y717550D03*
X114300Y717550D03*
X88900Y742950D03*
X114300Y742950D03*
D14*
X47244Y825500D02*
X28956Y825500D01*
X28956Y850900D02*
X47244Y850900D01*
X47244Y876300D02*
X28956Y876300D01*
X28956Y901700D02*
X47244Y901700D01*
X47244Y927100D02*
X28956Y927100D01*
X28956Y952500D02*
X47244Y952500D01*
X47244Y977900D02*
X28956Y977900D01*
X28956Y1003300D02*
X47244Y1003300D01*
X47244Y1028700D02*
X28956Y1028700D01*
X28956Y1054100D02*
X47244Y1054100D01*
X155956Y825500D02*
X174244Y825500D01*
X174244Y850900D02*
X155956Y850900D01*
X155956Y876300D02*
X174244Y876300D01*
X174244Y901700D02*
X155956Y901700D01*
X155956Y927100D02*
X174244Y927100D01*
X174244Y952500D02*
X155956Y952500D01*
X155956Y977900D02*
X174244Y977900D01*
X174244Y1003300D02*
X155956Y1003300D01*
X155956Y1028700D02*
X174244Y1028700D01*
X174244Y1054100D02*
X155956Y1054100D01*
X76200Y123444D02*
X76200Y105156D01*
X101600Y105156D02*
X101600Y123444D01*
X127000Y123444D02*
X127000Y105156D01*
D15*
X101600Y350850D03*
X101600Y296850D03*
X101600Y239725D03*
X101600Y185725D03*
D16*
X72009Y658368D02*
X53721Y658368D01*
X72009Y658368D02*
X88011Y642366D01*
X88900Y641350D01*
X90297Y642366D02*
X114300Y642366D01*
X114300Y641350D01*
X90297Y642366D02*
X88900Y641350D01*
D17*
X53721Y658368D03*
D16*
X128016Y1078992D02*
X58293Y1148715D01*
X128016Y1078992D02*
X128016Y1059561D01*
X134874Y1052703D02*
X158877Y1028700D01*
X134874Y1052703D02*
X128016Y1059561D01*
X158877Y1028700D02*
X165100Y1028700D01*
X140589Y593217D02*
X140589Y578358D01*
X140589Y593217D02*
X164592Y617220D01*
X164592Y680085D01*
X140589Y578358D02*
X139700Y577850D01*
X164592Y680085D02*
X165100Y680650D01*
X101727Y349758D02*
X101727Y328549D01*
X115697Y314579D01*
X101727Y349758D02*
X101600Y350850D01*
X158877Y557784D02*
X140589Y576072D01*
X158877Y557784D02*
X158877Y522351D01*
X149733Y513207D01*
X126873Y513207D01*
X120015Y506349D01*
X120015Y420624D01*
X129159Y411480D01*
X152019Y411480D01*
X158877Y404622D01*
X158877Y393192D01*
X117729Y352044D01*
X102870Y352044D01*
X140589Y576072D02*
X139700Y577850D01*
X102870Y352044D02*
X101600Y350850D01*
X126873Y1044702D02*
X134874Y1052703D01*
X126873Y1044702D02*
X126873Y924687D01*
X118872Y916686D02*
X118872Y890397D01*
X132588Y876681D01*
X132588Y774954D01*
X161163Y746379D01*
X161163Y685800D01*
X164592Y682371D01*
X165100Y680650D01*
D17*
X58293Y1148715D03*
X115697Y314579D03*
X126873Y924687D03*
X118872Y916686D03*
D16*
X41148Y304038D02*
X41148Y255778D01*
X86868Y195072D02*
X89154Y195072D01*
X82804Y199136D02*
X82804Y214122D01*
X82804Y199136D02*
X86868Y195072D01*
X82804Y214122D02*
X41148Y255778D01*
X48006Y310896D02*
X52578Y310896D01*
X48006Y310896D02*
X41148Y304038D01*
X37719Y731520D02*
X37719Y766953D01*
X37719Y731520D02*
X17145Y710946D01*
X17145Y341757D01*
X48006Y310896D01*
X37719Y766953D02*
X38100Y767150D01*
D17*
X41148Y304038D03*
X52578Y310896D03*
X86868Y195072D03*
D16*
X98501Y185725D02*
X101600Y185725D01*
X98501Y185725D02*
X89154Y195072D01*
D18*
X68580Y786384D02*
X60579Y794385D01*
X60579Y931545D01*
X38862Y953262D01*
X38100Y952500D01*
D17*
X68580Y786384D03*
D18*
X105156Y779526D02*
X105156Y886968D01*
X105156Y779526D02*
X141732Y742950D01*
X172593Y704088D02*
X186309Y690372D01*
X186309Y365760D01*
X173736Y353187D01*
X161163Y353187D01*
X147447Y339471D01*
X147447Y337185D01*
X147447Y275971D01*
X146939Y275463D01*
X113157Y275463D01*
D17*
X105156Y886968D03*
X141732Y742950D03*
X172593Y704088D03*
X147447Y337185D03*
X147447Y275971D03*
X113157Y275463D03*
D18*
X113157Y869823D02*
X113157Y886968D01*
X113157Y869823D02*
X126873Y856107D01*
X126873Y772668D01*
X152019Y747522D01*
X152019Y652653D01*
X154305Y650367D01*
X154305Y614934D01*
X120015Y580644D01*
X120015Y518922D02*
X120015Y514350D01*
X114300Y508635D01*
X114300Y396621D01*
X133731Y377190D01*
X163449Y347472D02*
X163449Y280035D01*
X115697Y232283D01*
X115697Y222250D01*
D17*
X113157Y886968D03*
X120015Y580644D03*
X120015Y518922D03*
X133731Y377190D03*
X163449Y347472D03*
X115697Y222250D03*
D18*
X76581Y780669D02*
X76581Y861822D01*
X76581Y780669D02*
X59436Y763524D01*
X88011Y491490D02*
X91440Y488061D01*
X91440Y388620D01*
X70866Y368046D01*
D17*
X76581Y861822D03*
X59436Y763524D03*
X88011Y491490D03*
X70866Y368046D03*
D18*
X90297Y779526D02*
X90297Y835533D01*
X90297Y779526D02*
X61722Y750951D01*
X61722Y674370D01*
X48006Y660654D01*
X48006Y656082D01*
X75438Y628650D01*
X126873Y628650D01*
X144018Y645795D01*
X176022Y613791D02*
X176022Y609219D01*
X177165Y608076D01*
X177165Y388620D01*
X115697Y327152D01*
D17*
X90297Y835533D03*
X144018Y645795D03*
X176022Y613791D03*
X115697Y327152D03*
D18*
X51435Y736092D02*
X51435Y790956D01*
X51435Y736092D02*
X24003Y708660D01*
X96012Y385191D02*
X107442Y373761D01*
D17*
X51435Y790956D03*
X24003Y708660D03*
X96012Y385191D03*
X107442Y373761D03*
D18*
X113157Y779526D02*
X113157Y861822D01*
X113157Y779526D02*
X147447Y745236D01*
X147447Y650367D01*
X149733Y648081D01*
X149733Y618363D01*
X98298Y566928D01*
X85725Y484632D02*
X85725Y483489D01*
X86868Y482346D01*
X86868Y416052D01*
X82296Y411480D01*
X52578Y411480D01*
X44577Y403479D01*
X44577Y326898D01*
X58293Y313182D01*
X58293Y259207D01*
X52578Y253492D01*
D17*
X113157Y861822D03*
X98298Y566928D03*
X85725Y484632D03*
X52578Y253492D03*
D18*
X22860Y688086D02*
X51435Y716661D01*
X22860Y688086D02*
X22860Y392049D01*
X38862Y376047D01*
X50292Y364617D02*
X50292Y360934D01*
X90297Y320929D01*
X90297Y220599D01*
X100584Y210312D01*
D17*
X51435Y716661D03*
X38862Y376047D03*
X50292Y364617D03*
X100584Y210312D03*
D18*
X184023Y785241D02*
X158877Y810387D01*
X184023Y785241D02*
X184023Y723519D01*
X166878Y706374D01*
X166878Y701802D01*
X181737Y686943D01*
X181737Y369189D01*
X180594Y368046D01*
D17*
X158877Y810387D03*
X180594Y368046D03*
D18*
X70866Y332359D02*
X70866Y249428D01*
X70866Y332359D02*
X57150Y346075D01*
X64008Y523494D02*
X64008Y526923D01*
X64008Y523494D02*
X82296Y505206D01*
X82296Y489204D01*
X80010Y486918D01*
X80010Y482346D01*
X82296Y480060D01*
X82296Y419481D01*
X81153Y418338D01*
X64008Y526923D02*
X63500Y527050D01*
X37719Y1002411D02*
X35433Y1002411D01*
X16002Y982980D01*
X16002Y768096D01*
X30861Y753237D01*
X37719Y1002411D02*
X38100Y1003300D01*
D17*
X70866Y249428D03*
X57150Y346075D03*
X81153Y418338D03*
X30861Y753237D03*
D18*
X153162Y332613D02*
X153162Y292608D01*
X108585Y507492D02*
X64008Y552069D01*
X63500Y552450D01*
X38862Y977265D02*
X106299Y977265D01*
X118872Y964692D01*
X118872Y948690D01*
X105156Y934974D01*
X105156Y909828D01*
X106299Y908685D01*
X106299Y896112D01*
X99441Y889254D01*
X99441Y841248D01*
X100584Y840105D01*
X100584Y774954D01*
X90297Y764667D01*
X38862Y977265D02*
X38100Y977900D01*
D17*
X153162Y292608D03*
X153162Y332613D03*
X108585Y507492D03*
X90297Y764667D03*
D18*
X162306Y928116D02*
X164592Y928116D01*
X162306Y928116D02*
X142875Y947547D01*
X142875Y982980D01*
X162306Y1002411D01*
X164592Y1002411D01*
X164592Y928116D02*
X165100Y927100D01*
X164592Y1002411D02*
X165100Y1003300D01*
X146304Y217170D02*
X146304Y149987D01*
X146304Y217170D02*
X163449Y234315D01*
X163449Y240030D01*
X147447Y256032D01*
X100584Y897255D02*
X100584Y906399D01*
X100584Y897255D02*
X94869Y891540D01*
X94869Y838962D01*
X96012Y837819D01*
X96012Y778383D01*
X74295Y756666D01*
X74295Y674370D01*
X65151Y665226D01*
X65151Y606933D02*
X65151Y602361D01*
X44577Y581787D01*
X44577Y520065D01*
X62865Y501777D01*
X63500Y501650D01*
D17*
X146304Y149987D03*
X147447Y256032D03*
X100584Y906399D03*
X65151Y665226D03*
X65151Y606933D03*
D18*
X49657Y234950D02*
X49657Y152273D01*
X56007Y145923D01*
X19939Y259461D02*
X19939Y323469D01*
X44450Y234950D02*
X49657Y234950D01*
X44450Y234950D02*
X19939Y259461D01*
X113157Y949833D02*
X113157Y962406D01*
X113157Y949833D02*
X82296Y918972D01*
X82296Y778383D01*
X57150Y753237D01*
X57150Y676656D01*
X27432Y646938D01*
X27432Y461772D01*
X62865Y426339D01*
X63500Y425450D01*
D17*
X56007Y145923D03*
X49657Y234950D03*
X19939Y323469D03*
X113157Y962406D03*
D18*
X67437Y1069848D02*
X67437Y1131570D01*
X42291Y1156716D01*
X129159Y528066D02*
X139446Y528066D01*
X129159Y528066D02*
X82296Y574929D01*
X82296Y597789D01*
X37719Y642366D01*
X33147Y642366D01*
X61722Y1003554D02*
X67437Y1009269D01*
X67437Y1069848D01*
X139446Y528066D02*
X139700Y527050D01*
D17*
X67437Y1069848D03*
X42291Y1156716D03*
X33147Y642366D03*
X61722Y1003554D03*
D18*
X134874Y1061847D02*
X134874Y1122426D01*
X163449Y1151001D01*
X178308Y782955D02*
X178308Y774954D01*
X178308Y782955D02*
X142875Y818388D01*
X142875Y940689D01*
X134874Y948690D01*
X134874Y1043559D01*
D17*
X134874Y1061847D03*
X163449Y1151001D03*
X178308Y774954D03*
X134874Y1043559D03*
D16*
X101727Y296037D02*
X101727Y240030D01*
X101600Y239725D01*
X101727Y296037D02*
X101600Y296850D01*
X100584Y298323D02*
X100584Y320040D01*
X64008Y356616D01*
X64008Y400050D01*
X100584Y298323D02*
X101600Y296850D01*
X64008Y400050D02*
X63500Y400050D01*
X101727Y154305D02*
X101727Y114300D01*
X101727Y154305D02*
X114300Y166878D01*
X114300Y209042D02*
X114300Y211328D01*
X114300Y209042D02*
X114300Y166878D01*
X114300Y211328D02*
X101727Y223901D01*
X101727Y237744D01*
X101727Y114300D02*
X101600Y114300D01*
X101727Y237744D02*
X101600Y239725D01*
X59436Y1010412D02*
X41148Y1028700D01*
X38100Y1028700D01*
X171450Y605790D02*
X171450Y525780D01*
X147447Y501777D01*
X140589Y501777D01*
X139700Y501650D01*
X69723Y793242D02*
X69723Y912114D01*
X118872Y757809D02*
X128016Y748665D01*
X128016Y731520D01*
X114300Y717804D01*
X114300Y717550D01*
X114300Y209042D02*
X130175Y209042D01*
X157734Y236601D01*
D17*
X59436Y1010412D03*
X171450Y605790D03*
X69723Y912114D03*
X69723Y793242D03*
X118872Y757809D03*
X157734Y236601D03*
D18*
X164592Y563499D02*
X164592Y609219D01*
X170307Y614934D01*
X170307Y654939D01*
X176022Y660654D01*
X148590Y804672D02*
X138303Y814959D01*
X138303Y905256D01*
X110871Y932688D01*
D17*
X164592Y563499D03*
X176022Y660654D03*
X148590Y804672D03*
X110871Y932688D03*
M02*
