M48
;GenerationSoftware,Autodesk,EAGLE,9.6.2*%
;CreationDate,2021-02-23T07:13:51Z*%
FMAT,2
ICI,OFF
METRIC,TZ,000.000
T4C0.300
T3C0.813
T2C1.000
T1C1.016
%
G90
M71
T1
X3810Y97790
X3810Y90170
X3810Y92710
X3810Y95250
X3810Y100330
X3810Y102870
X3810Y85090
X3810Y105410
X16510Y82550
X16510Y85090
X16510Y87630
X16510Y90170
X16510Y92710
X16510Y95250
X16510Y100330
X16510Y102870
X16510Y105410
X7620Y11430
X10160Y11430
X12700Y11430
X11430Y69215
X8890Y64135
X11430Y64135
X8890Y66675
X11430Y66675
X8890Y69215
X16510Y97790
X8890Y71755
X11430Y71755
X8890Y74295
X11430Y74295
X3810Y82550
X3810Y87630
T2
X16510Y68065
X16510Y76715
X3810Y68065
X3810Y76715
T3
X6350Y40005
X6350Y57785
X6350Y55245
X6350Y42545
X6350Y52705
X6350Y45085
X6350Y47625
X13970Y40005
X13970Y42545
X13970Y45085
X13970Y47625
X13970Y50165
X13970Y52705
X13970Y55245
X13970Y57785
X6350Y50165
T4
X10058Y90640
X6515Y66523
X6515Y60693
X5601Y14592
X4966Y23495
X1994Y32347
X11316Y96241
X6744Y106985
X4229Y115672
X3315Y64237
X6172Y100355
X13487Y106185
X12001Y58064
X17831Y77495
X13487Y104356
X5944Y101041
X17145Y60579
X6972Y91211
X6972Y79324
X11887Y75781
X15773Y23660
X16459Y56350
X17602Y66065
X14859Y80467
X11087Y93269
X5372Y65837
X5829Y114871
X11570Y31458
X16345Y115100
X12687Y92469
X11887Y91669
X4115Y30404
X5258Y31090
X8687Y19507
X6858Y78638
X10516Y88697
X14173Y74295
X17259Y70409
X14745Y33719
X14745Y27597
X11316Y27546
X11316Y88697
X12001Y51892
X13373Y37719
X16345Y34747
X11570Y22225
X7658Y86182
X5944Y76352
X8801Y49149
X7087Y36805
X9030Y83553
X14402Y64579
X17602Y61379
X11570Y32715
X5144Y79096
X2400Y70866
X9601Y38519
X10744Y37376
X11316Y86182
X9830Y56693
X8573Y48463
X10859Y50749
X5258Y25349
X5144Y71666
X3886Y37605
X5029Y36462
X10058Y21031
X15888Y81039
X18059Y36805
X7087Y24943
X5715Y34608
X8115Y41834
X3086Y75324
X15316Y29261
X15316Y33261
X9030Y76467
X14630Y14999
X14745Y25603
M30