G04 EAGLE Gerber RS-274X export*
G75*
%MOMM*%
%FSLAX34Y34*%
%LPD*%
%INSolderpaste Top*%
%IPPOS*%
%AMOC8*
5,1,8,0,0,1.08239X$1,22.5*%
G01*
%ADD10R,2.032000X0.660400*%
%ADD11R,1.223500X0.624800*%
%ADD12R,1.100000X1.000000*%
%ADD13R,0.500000X0.700000*%
%ADD14R,1.000000X1.100000*%
%ADD15R,0.624800X1.223500*%


D10*
X70866Y349250D03*
X132334Y349250D03*
X70866Y336550D03*
X70866Y323850D03*
X132334Y336550D03*
X132334Y323850D03*
X70866Y311150D03*
X132334Y311150D03*
X70866Y298450D03*
X132334Y298450D03*
X70866Y285750D03*
X70866Y273050D03*
X132334Y285750D03*
X132334Y273050D03*
X70866Y260350D03*
X132334Y260350D03*
D11*
X59210Y1177900D03*
X59210Y1158900D03*
X80490Y1168400D03*
D12*
X38100Y1083700D03*
X38100Y1100700D03*
D13*
X82550Y1067450D03*
X82550Y1054450D03*
D10*
X70866Y234950D03*
X132334Y234950D03*
X70866Y222250D03*
X70866Y209550D03*
X132334Y222250D03*
X132334Y209550D03*
X70866Y196850D03*
X132334Y196850D03*
X70866Y184150D03*
X132334Y184150D03*
X70866Y171450D03*
X70866Y158750D03*
X132334Y171450D03*
X132334Y158750D03*
X70866Y146050D03*
X132334Y146050D03*
D14*
X91050Y901700D03*
X74050Y901700D03*
X112150Y901700D03*
X129150Y901700D03*
X91050Y876300D03*
X74050Y876300D03*
X91050Y850900D03*
X74050Y850900D03*
X91050Y825500D03*
X74050Y825500D03*
D12*
X31750Y129150D03*
X31750Y112150D03*
D14*
X112150Y876300D03*
X129150Y876300D03*
X112150Y850900D03*
X129150Y850900D03*
X112150Y825500D03*
X129150Y825500D03*
D12*
X171450Y129150D03*
X171450Y112150D03*
D15*
X85700Y1140940D03*
X66700Y1140940D03*
X76200Y1119660D03*
D14*
X46600Y1130300D03*
X29600Y1130300D03*
X74050Y1092200D03*
X91050Y1092200D03*
D12*
X31750Y1159900D03*
X31750Y1176900D03*
D13*
X177800Y475600D03*
X177800Y488600D03*
D11*
X143990Y1158900D03*
X143990Y1177900D03*
X122710Y1168400D03*
D12*
X165100Y1083700D03*
X165100Y1100700D03*
D13*
X127000Y1067450D03*
X127000Y1054450D03*
D15*
X136500Y1140940D03*
X117500Y1140940D03*
X127000Y1119660D03*
D14*
X173600Y1130300D03*
X156600Y1130300D03*
X129150Y1092200D03*
X112150Y1092200D03*
D12*
X171450Y1159900D03*
X171450Y1176900D03*
D14*
X171450Y578875D03*
X171450Y595875D03*
X171450Y296300D03*
X171450Y313300D03*
X31750Y296300D03*
X31750Y313300D03*
X171450Y182000D03*
X171450Y199000D03*
X31750Y182000D03*
X31750Y199000D03*
D13*
X177800Y518175D03*
X177800Y505175D03*
X177800Y549925D03*
X177800Y536925D03*
D12*
X93100Y990600D03*
X110100Y990600D03*
D14*
X110100Y952500D03*
X93100Y952500D03*
M02*
