G04 MADE WITH FRITZING*
G04 WWW.FRITZING.ORG*
G04 DOUBLE SIDED*
G04 HOLES PLATED*
G04 CONTOUR ON CENTER OF CONTOUR VECTOR*
%ASAXBY*%
%FSLAX23Y23*%
%MOIN*%
%OFA0B0*%
%SFA1.0B1.0*%
%ADD10C,0.075000*%
%LNCOPPER0*%
G90*
G70*
G54D10*
X109Y4958D03*
G36*
X40Y5019D02*
X40Y4869D01*
X288Y4869D01*
X288Y4871D01*
X278Y4871D01*
X278Y4873D01*
X272Y4873D01*
X272Y4875D01*
X268Y4875D01*
X268Y4877D01*
X264Y4877D01*
X264Y4879D01*
X260Y4879D01*
X260Y4881D01*
X258Y4881D01*
X258Y4883D01*
X254Y4883D01*
X254Y4885D01*
X252Y4885D01*
X252Y4887D01*
X250Y4887D01*
X250Y4889D01*
X248Y4889D01*
X248Y4891D01*
X246Y4891D01*
X246Y4893D01*
X244Y4893D01*
X244Y4895D01*
X242Y4895D01*
X242Y4899D01*
X240Y4899D01*
X240Y4901D01*
X238Y4901D01*
X238Y4905D01*
X236Y4905D01*
X236Y4909D01*
X234Y4909D01*
X234Y4913D01*
X232Y4913D01*
X232Y4919D01*
X230Y4919D01*
X230Y4927D01*
X228Y4927D01*
X228Y4951D01*
X230Y4951D01*
X230Y4959D01*
X232Y4959D01*
X232Y4963D01*
X234Y4963D01*
X234Y4969D01*
X236Y4969D01*
X236Y4973D01*
X238Y4973D01*
X238Y4975D01*
X240Y4975D01*
X240Y4979D01*
X242Y4979D01*
X242Y4981D01*
X244Y4981D01*
X244Y4983D01*
X246Y4983D01*
X246Y4987D01*
X248Y4987D01*
X248Y4989D01*
X252Y4989D01*
X252Y4991D01*
X254Y4991D01*
X254Y4993D01*
X256Y4993D01*
X256Y4995D01*
X260Y4995D01*
X260Y4997D01*
X262Y4997D01*
X262Y4999D01*
X266Y4999D01*
X266Y5019D01*
X40Y5019D01*
G37*
D02*
G36*
X328Y5019D02*
X328Y4999D01*
X332Y4999D01*
X332Y4997D01*
X334Y4997D01*
X334Y4995D01*
X338Y4995D01*
X338Y4993D01*
X340Y4993D01*
X340Y4991D01*
X342Y4991D01*
X342Y4989D01*
X344Y4989D01*
X344Y4987D01*
X346Y4987D01*
X346Y4985D01*
X348Y4985D01*
X348Y4983D01*
X350Y4983D01*
X350Y4981D01*
X352Y4981D01*
X352Y4979D01*
X354Y4979D01*
X354Y4975D01*
X356Y4975D01*
X356Y4973D01*
X358Y4973D01*
X358Y4969D01*
X360Y4969D01*
X360Y4963D01*
X362Y4963D01*
X362Y4957D01*
X364Y4957D01*
X364Y4949D01*
X366Y4949D01*
X366Y4927D01*
X364Y4927D01*
X364Y4919D01*
X362Y4919D01*
X362Y4913D01*
X360Y4913D01*
X360Y4909D01*
X358Y4909D01*
X358Y4905D01*
X356Y4905D01*
X356Y4901D01*
X354Y4901D01*
X354Y4899D01*
X352Y4899D01*
X352Y4895D01*
X350Y4895D01*
X350Y4893D01*
X348Y4893D01*
X348Y4891D01*
X346Y4891D01*
X346Y4889D01*
X344Y4889D01*
X344Y4887D01*
X342Y4887D01*
X342Y4885D01*
X340Y4885D01*
X340Y4883D01*
X336Y4883D01*
X336Y4881D01*
X334Y4881D01*
X334Y4879D01*
X330Y4879D01*
X330Y4877D01*
X326Y4877D01*
X326Y4875D01*
X322Y4875D01*
X322Y4873D01*
X316Y4873D01*
X316Y4871D01*
X306Y4871D01*
X306Y4869D01*
X758Y4869D01*
X758Y5019D01*
X328Y5019D01*
G37*
D02*
G36*
X40Y4869D02*
X40Y4867D01*
X758Y4867D01*
X758Y4869D01*
X40Y4869D01*
G37*
D02*
G36*
X40Y4869D02*
X40Y4867D01*
X758Y4867D01*
X758Y4869D01*
X40Y4869D01*
G37*
D02*
G36*
X40Y4867D02*
X40Y4373D01*
X602Y4373D01*
X602Y4371D01*
X622Y4371D01*
X622Y4369D01*
X630Y4369D01*
X630Y4367D01*
X638Y4367D01*
X638Y4365D01*
X644Y4365D01*
X644Y4363D01*
X648Y4363D01*
X648Y4361D01*
X652Y4361D01*
X652Y4359D01*
X656Y4359D01*
X656Y4357D01*
X660Y4357D01*
X660Y4355D01*
X664Y4355D01*
X664Y4353D01*
X668Y4353D01*
X668Y4351D01*
X670Y4351D01*
X670Y4349D01*
X674Y4349D01*
X674Y4347D01*
X676Y4347D01*
X676Y4345D01*
X678Y4345D01*
X678Y4343D01*
X682Y4343D01*
X682Y4341D01*
X684Y4341D01*
X684Y4339D01*
X686Y4339D01*
X686Y4337D01*
X688Y4337D01*
X688Y4335D01*
X690Y4335D01*
X690Y4333D01*
X692Y4333D01*
X692Y4331D01*
X694Y4331D01*
X694Y4329D01*
X696Y4329D01*
X696Y4327D01*
X698Y4327D01*
X698Y4323D01*
X700Y4323D01*
X700Y4321D01*
X702Y4321D01*
X702Y4319D01*
X704Y4319D01*
X704Y4315D01*
X706Y4315D01*
X706Y4313D01*
X708Y4313D01*
X708Y4309D01*
X710Y4309D01*
X710Y4305D01*
X712Y4305D01*
X712Y4301D01*
X714Y4301D01*
X714Y4297D01*
X716Y4297D01*
X716Y4293D01*
X718Y4293D01*
X718Y4289D01*
X720Y4289D01*
X720Y4283D01*
X722Y4283D01*
X722Y4275D01*
X724Y4275D01*
X724Y4267D01*
X726Y4267D01*
X726Y4247D01*
X728Y4247D01*
X728Y4241D01*
X726Y4241D01*
X726Y4221D01*
X724Y4221D01*
X724Y4213D01*
X722Y4213D01*
X722Y4205D01*
X720Y4205D01*
X720Y4199D01*
X718Y4199D01*
X718Y4195D01*
X716Y4195D01*
X716Y4191D01*
X714Y4191D01*
X714Y4187D01*
X712Y4187D01*
X712Y4183D01*
X710Y4183D01*
X710Y4179D01*
X708Y4179D01*
X708Y4175D01*
X706Y4175D01*
X706Y4173D01*
X704Y4173D01*
X704Y4169D01*
X702Y4169D01*
X702Y4167D01*
X700Y4167D01*
X700Y4165D01*
X698Y4165D01*
X698Y4161D01*
X696Y4161D01*
X696Y4159D01*
X694Y4159D01*
X694Y4157D01*
X692Y4157D01*
X692Y4155D01*
X690Y4155D01*
X690Y4153D01*
X688Y4153D01*
X688Y4151D01*
X686Y4151D01*
X686Y4149D01*
X684Y4149D01*
X684Y4147D01*
X682Y4147D01*
X682Y4145D01*
X678Y4145D01*
X678Y4143D01*
X676Y4143D01*
X676Y4141D01*
X674Y4141D01*
X674Y4139D01*
X670Y4139D01*
X670Y4137D01*
X668Y4137D01*
X668Y4135D01*
X664Y4135D01*
X664Y4133D01*
X660Y4133D01*
X660Y4131D01*
X656Y4131D01*
X656Y4129D01*
X652Y4129D01*
X652Y4127D01*
X648Y4127D01*
X648Y4125D01*
X644Y4125D01*
X644Y4123D01*
X638Y4123D01*
X638Y4121D01*
X630Y4121D01*
X630Y4119D01*
X622Y4119D01*
X622Y4117D01*
X600Y4117D01*
X600Y4115D01*
X758Y4115D01*
X758Y4867D01*
X40Y4867D01*
G37*
D02*
G36*
X40Y4373D02*
X40Y4115D01*
X198Y4115D01*
X198Y4117D01*
X176Y4117D01*
X176Y4119D01*
X168Y4119D01*
X168Y4121D01*
X160Y4121D01*
X160Y4123D01*
X156Y4123D01*
X156Y4125D01*
X150Y4125D01*
X150Y4127D01*
X146Y4127D01*
X146Y4129D01*
X142Y4129D01*
X142Y4131D01*
X138Y4131D01*
X138Y4133D01*
X134Y4133D01*
X134Y4135D01*
X130Y4135D01*
X130Y4137D01*
X128Y4137D01*
X128Y4139D01*
X124Y4139D01*
X124Y4141D01*
X122Y4141D01*
X122Y4143D01*
X120Y4143D01*
X120Y4145D01*
X116Y4145D01*
X116Y4147D01*
X114Y4147D01*
X114Y4149D01*
X112Y4149D01*
X112Y4151D01*
X110Y4151D01*
X110Y4153D01*
X108Y4153D01*
X108Y4155D01*
X106Y4155D01*
X106Y4157D01*
X104Y4157D01*
X104Y4159D01*
X102Y4159D01*
X102Y4161D01*
X100Y4161D01*
X100Y4165D01*
X98Y4165D01*
X98Y4167D01*
X96Y4167D01*
X96Y4169D01*
X94Y4169D01*
X94Y4173D01*
X92Y4173D01*
X92Y4175D01*
X90Y4175D01*
X90Y4179D01*
X88Y4179D01*
X88Y4183D01*
X86Y4183D01*
X86Y4187D01*
X84Y4187D01*
X84Y4191D01*
X82Y4191D01*
X82Y4195D01*
X80Y4195D01*
X80Y4201D01*
X78Y4201D01*
X78Y4205D01*
X76Y4205D01*
X76Y4213D01*
X74Y4213D01*
X74Y4223D01*
X72Y4223D01*
X72Y4243D01*
X70Y4243D01*
X70Y4245D01*
X72Y4245D01*
X72Y4265D01*
X74Y4265D01*
X74Y4275D01*
X76Y4275D01*
X76Y4283D01*
X78Y4283D01*
X78Y4287D01*
X80Y4287D01*
X80Y4293D01*
X82Y4293D01*
X82Y4297D01*
X84Y4297D01*
X84Y4301D01*
X86Y4301D01*
X86Y4305D01*
X88Y4305D01*
X88Y4309D01*
X90Y4309D01*
X90Y4313D01*
X92Y4313D01*
X92Y4315D01*
X94Y4315D01*
X94Y4319D01*
X96Y4319D01*
X96Y4321D01*
X98Y4321D01*
X98Y4323D01*
X100Y4323D01*
X100Y4327D01*
X102Y4327D01*
X102Y4329D01*
X104Y4329D01*
X104Y4331D01*
X106Y4331D01*
X106Y4333D01*
X108Y4333D01*
X108Y4335D01*
X110Y4335D01*
X110Y4337D01*
X112Y4337D01*
X112Y4339D01*
X114Y4339D01*
X114Y4341D01*
X116Y4341D01*
X116Y4343D01*
X120Y4343D01*
X120Y4345D01*
X122Y4345D01*
X122Y4347D01*
X124Y4347D01*
X124Y4349D01*
X128Y4349D01*
X128Y4351D01*
X130Y4351D01*
X130Y4353D01*
X134Y4353D01*
X134Y4355D01*
X138Y4355D01*
X138Y4357D01*
X142Y4357D01*
X142Y4359D01*
X146Y4359D01*
X146Y4361D01*
X150Y4361D01*
X150Y4363D01*
X156Y4363D01*
X156Y4365D01*
X160Y4365D01*
X160Y4367D01*
X168Y4367D01*
X168Y4369D01*
X176Y4369D01*
X176Y4371D01*
X196Y4371D01*
X196Y4373D01*
X40Y4373D01*
G37*
D02*
G36*
X202Y4373D02*
X202Y4371D01*
X222Y4371D01*
X222Y4369D01*
X230Y4369D01*
X230Y4367D01*
X238Y4367D01*
X238Y4365D01*
X244Y4365D01*
X244Y4363D01*
X248Y4363D01*
X248Y4361D01*
X252Y4361D01*
X252Y4359D01*
X256Y4359D01*
X256Y4357D01*
X260Y4357D01*
X260Y4355D01*
X264Y4355D01*
X264Y4353D01*
X268Y4353D01*
X268Y4351D01*
X270Y4351D01*
X270Y4349D01*
X274Y4349D01*
X274Y4347D01*
X276Y4347D01*
X276Y4345D01*
X278Y4345D01*
X278Y4343D01*
X282Y4343D01*
X282Y4341D01*
X284Y4341D01*
X284Y4339D01*
X286Y4339D01*
X286Y4337D01*
X288Y4337D01*
X288Y4335D01*
X290Y4335D01*
X290Y4333D01*
X292Y4333D01*
X292Y4331D01*
X294Y4331D01*
X294Y4329D01*
X296Y4329D01*
X296Y4327D01*
X298Y4327D01*
X298Y4323D01*
X300Y4323D01*
X300Y4321D01*
X302Y4321D01*
X302Y4319D01*
X304Y4319D01*
X304Y4315D01*
X306Y4315D01*
X306Y4313D01*
X308Y4313D01*
X308Y4309D01*
X310Y4309D01*
X310Y4305D01*
X312Y4305D01*
X312Y4301D01*
X314Y4301D01*
X314Y4297D01*
X316Y4297D01*
X316Y4293D01*
X318Y4293D01*
X318Y4289D01*
X320Y4289D01*
X320Y4283D01*
X322Y4283D01*
X322Y4275D01*
X324Y4275D01*
X324Y4267D01*
X326Y4267D01*
X326Y4247D01*
X328Y4247D01*
X328Y4241D01*
X326Y4241D01*
X326Y4221D01*
X324Y4221D01*
X324Y4213D01*
X322Y4213D01*
X322Y4205D01*
X320Y4205D01*
X320Y4199D01*
X318Y4199D01*
X318Y4195D01*
X316Y4195D01*
X316Y4191D01*
X314Y4191D01*
X314Y4187D01*
X312Y4187D01*
X312Y4183D01*
X310Y4183D01*
X310Y4179D01*
X308Y4179D01*
X308Y4175D01*
X306Y4175D01*
X306Y4173D01*
X304Y4173D01*
X304Y4169D01*
X302Y4169D01*
X302Y4167D01*
X300Y4167D01*
X300Y4165D01*
X298Y4165D01*
X298Y4161D01*
X296Y4161D01*
X296Y4159D01*
X294Y4159D01*
X294Y4157D01*
X292Y4157D01*
X292Y4155D01*
X290Y4155D01*
X290Y4153D01*
X288Y4153D01*
X288Y4151D01*
X286Y4151D01*
X286Y4149D01*
X284Y4149D01*
X284Y4147D01*
X282Y4147D01*
X282Y4145D01*
X278Y4145D01*
X278Y4143D01*
X276Y4143D01*
X276Y4141D01*
X274Y4141D01*
X274Y4139D01*
X270Y4139D01*
X270Y4137D01*
X268Y4137D01*
X268Y4135D01*
X264Y4135D01*
X264Y4133D01*
X260Y4133D01*
X260Y4131D01*
X256Y4131D01*
X256Y4129D01*
X252Y4129D01*
X252Y4127D01*
X248Y4127D01*
X248Y4125D01*
X244Y4125D01*
X244Y4123D01*
X238Y4123D01*
X238Y4121D01*
X230Y4121D01*
X230Y4119D01*
X222Y4119D01*
X222Y4117D01*
X200Y4117D01*
X200Y4115D01*
X598Y4115D01*
X598Y4117D01*
X576Y4117D01*
X576Y4119D01*
X568Y4119D01*
X568Y4121D01*
X560Y4121D01*
X560Y4123D01*
X556Y4123D01*
X556Y4125D01*
X550Y4125D01*
X550Y4127D01*
X546Y4127D01*
X546Y4129D01*
X542Y4129D01*
X542Y4131D01*
X538Y4131D01*
X538Y4133D01*
X534Y4133D01*
X534Y4135D01*
X530Y4135D01*
X530Y4137D01*
X528Y4137D01*
X528Y4139D01*
X524Y4139D01*
X524Y4141D01*
X522Y4141D01*
X522Y4143D01*
X520Y4143D01*
X520Y4145D01*
X516Y4145D01*
X516Y4147D01*
X514Y4147D01*
X514Y4149D01*
X512Y4149D01*
X512Y4151D01*
X510Y4151D01*
X510Y4153D01*
X508Y4153D01*
X508Y4155D01*
X506Y4155D01*
X506Y4157D01*
X504Y4157D01*
X504Y4159D01*
X502Y4159D01*
X502Y4161D01*
X500Y4161D01*
X500Y4165D01*
X498Y4165D01*
X498Y4167D01*
X496Y4167D01*
X496Y4169D01*
X494Y4169D01*
X494Y4173D01*
X492Y4173D01*
X492Y4175D01*
X490Y4175D01*
X490Y4179D01*
X488Y4179D01*
X488Y4183D01*
X486Y4183D01*
X486Y4187D01*
X484Y4187D01*
X484Y4191D01*
X482Y4191D01*
X482Y4195D01*
X480Y4195D01*
X480Y4201D01*
X478Y4201D01*
X478Y4205D01*
X476Y4205D01*
X476Y4213D01*
X474Y4213D01*
X474Y4223D01*
X472Y4223D01*
X472Y4243D01*
X470Y4243D01*
X470Y4245D01*
X472Y4245D01*
X472Y4265D01*
X474Y4265D01*
X474Y4275D01*
X476Y4275D01*
X476Y4283D01*
X478Y4283D01*
X478Y4287D01*
X480Y4287D01*
X480Y4293D01*
X482Y4293D01*
X482Y4297D01*
X484Y4297D01*
X484Y4301D01*
X486Y4301D01*
X486Y4305D01*
X488Y4305D01*
X488Y4309D01*
X490Y4309D01*
X490Y4313D01*
X492Y4313D01*
X492Y4315D01*
X494Y4315D01*
X494Y4319D01*
X496Y4319D01*
X496Y4321D01*
X498Y4321D01*
X498Y4323D01*
X500Y4323D01*
X500Y4327D01*
X502Y4327D01*
X502Y4329D01*
X504Y4329D01*
X504Y4331D01*
X506Y4331D01*
X506Y4333D01*
X508Y4333D01*
X508Y4335D01*
X510Y4335D01*
X510Y4337D01*
X512Y4337D01*
X512Y4339D01*
X514Y4339D01*
X514Y4341D01*
X516Y4341D01*
X516Y4343D01*
X520Y4343D01*
X520Y4345D01*
X522Y4345D01*
X522Y4347D01*
X524Y4347D01*
X524Y4349D01*
X528Y4349D01*
X528Y4351D01*
X530Y4351D01*
X530Y4353D01*
X534Y4353D01*
X534Y4355D01*
X538Y4355D01*
X538Y4357D01*
X542Y4357D01*
X542Y4359D01*
X546Y4359D01*
X546Y4361D01*
X550Y4361D01*
X550Y4363D01*
X556Y4363D01*
X556Y4365D01*
X560Y4365D01*
X560Y4367D01*
X568Y4367D01*
X568Y4369D01*
X576Y4369D01*
X576Y4371D01*
X596Y4371D01*
X596Y4373D01*
X202Y4373D01*
G37*
D02*
G36*
X40Y4115D02*
X40Y4113D01*
X758Y4113D01*
X758Y4115D01*
X40Y4115D01*
G37*
D02*
G36*
X40Y4115D02*
X40Y4113D01*
X758Y4113D01*
X758Y4115D01*
X40Y4115D01*
G37*
D02*
G36*
X40Y4115D02*
X40Y4113D01*
X758Y4113D01*
X758Y4115D01*
X40Y4115D01*
G37*
D02*
G36*
X40Y4113D02*
X40Y3567D01*
X190Y3567D01*
X190Y3565D01*
X200Y3565D01*
X200Y3563D01*
X208Y3563D01*
X208Y3561D01*
X212Y3561D01*
X212Y3559D01*
X218Y3559D01*
X218Y3557D01*
X222Y3557D01*
X222Y3555D01*
X226Y3555D01*
X226Y3553D01*
X230Y3553D01*
X230Y3551D01*
X232Y3551D01*
X232Y3549D01*
X236Y3549D01*
X236Y3547D01*
X238Y3547D01*
X238Y3545D01*
X242Y3545D01*
X242Y3543D01*
X244Y3543D01*
X244Y3541D01*
X246Y3541D01*
X246Y3539D01*
X248Y3539D01*
X248Y3537D01*
X250Y3537D01*
X250Y3535D01*
X252Y3535D01*
X252Y3533D01*
X254Y3533D01*
X254Y3531D01*
X256Y3531D01*
X256Y3529D01*
X258Y3529D01*
X258Y3527D01*
X260Y3527D01*
X260Y3523D01*
X262Y3523D01*
X262Y3521D01*
X264Y3521D01*
X264Y3517D01*
X266Y3517D01*
X266Y3515D01*
X268Y3515D01*
X268Y3511D01*
X270Y3511D01*
X270Y3507D01*
X272Y3507D01*
X272Y3503D01*
X274Y3503D01*
X274Y3497D01*
X276Y3497D01*
X276Y3493D01*
X278Y3493D01*
X278Y3485D01*
X280Y3485D01*
X280Y3475D01*
X282Y3475D01*
X282Y3443D01*
X280Y3443D01*
X280Y3433D01*
X278Y3433D01*
X278Y3425D01*
X276Y3425D01*
X276Y3421D01*
X274Y3421D01*
X274Y3415D01*
X272Y3415D01*
X272Y3411D01*
X270Y3411D01*
X270Y3407D01*
X268Y3407D01*
X268Y3403D01*
X266Y3403D01*
X266Y3401D01*
X264Y3401D01*
X264Y3397D01*
X262Y3397D01*
X262Y3395D01*
X260Y3395D01*
X260Y3391D01*
X258Y3391D01*
X258Y3389D01*
X256Y3389D01*
X256Y3387D01*
X254Y3387D01*
X254Y3385D01*
X252Y3385D01*
X252Y3383D01*
X250Y3383D01*
X250Y3381D01*
X248Y3381D01*
X248Y3379D01*
X246Y3379D01*
X246Y3377D01*
X244Y3377D01*
X244Y3375D01*
X242Y3375D01*
X242Y3373D01*
X238Y3373D01*
X238Y3371D01*
X236Y3371D01*
X236Y3369D01*
X232Y3369D01*
X232Y3367D01*
X230Y3367D01*
X230Y3365D01*
X226Y3365D01*
X226Y3363D01*
X222Y3363D01*
X222Y3361D01*
X218Y3361D01*
X218Y3359D01*
X212Y3359D01*
X212Y3357D01*
X208Y3357D01*
X208Y3355D01*
X200Y3355D01*
X200Y3353D01*
X190Y3353D01*
X190Y3351D01*
X758Y3351D01*
X758Y4113D01*
X40Y4113D01*
G37*
D02*
G36*
X40Y3567D02*
X40Y3351D01*
X158Y3351D01*
X158Y3353D01*
X148Y3353D01*
X148Y3355D01*
X140Y3355D01*
X140Y3357D01*
X136Y3357D01*
X136Y3359D01*
X130Y3359D01*
X130Y3361D01*
X126Y3361D01*
X126Y3363D01*
X122Y3363D01*
X122Y3365D01*
X118Y3365D01*
X118Y3367D01*
X116Y3367D01*
X116Y3369D01*
X112Y3369D01*
X112Y3371D01*
X110Y3371D01*
X110Y3373D01*
X106Y3373D01*
X106Y3375D01*
X104Y3375D01*
X104Y3377D01*
X102Y3377D01*
X102Y3379D01*
X100Y3379D01*
X100Y3381D01*
X98Y3381D01*
X98Y3383D01*
X96Y3383D01*
X96Y3385D01*
X94Y3385D01*
X94Y3387D01*
X92Y3387D01*
X92Y3389D01*
X90Y3389D01*
X90Y3391D01*
X88Y3391D01*
X88Y3395D01*
X86Y3395D01*
X86Y3397D01*
X84Y3397D01*
X84Y3401D01*
X82Y3401D01*
X82Y3403D01*
X80Y3403D01*
X80Y3407D01*
X78Y3407D01*
X78Y3411D01*
X76Y3411D01*
X76Y3415D01*
X74Y3415D01*
X74Y3421D01*
X72Y3421D01*
X72Y3425D01*
X70Y3425D01*
X70Y3433D01*
X68Y3433D01*
X68Y3443D01*
X66Y3443D01*
X66Y3475D01*
X68Y3475D01*
X68Y3485D01*
X70Y3485D01*
X70Y3493D01*
X72Y3493D01*
X72Y3497D01*
X74Y3497D01*
X74Y3503D01*
X76Y3503D01*
X76Y3507D01*
X78Y3507D01*
X78Y3511D01*
X80Y3511D01*
X80Y3515D01*
X82Y3515D01*
X82Y3517D01*
X84Y3517D01*
X84Y3521D01*
X86Y3521D01*
X86Y3523D01*
X88Y3523D01*
X88Y3527D01*
X90Y3527D01*
X90Y3529D01*
X92Y3529D01*
X92Y3531D01*
X94Y3531D01*
X94Y3533D01*
X96Y3533D01*
X96Y3535D01*
X98Y3535D01*
X98Y3537D01*
X100Y3537D01*
X100Y3539D01*
X102Y3539D01*
X102Y3541D01*
X104Y3541D01*
X104Y3543D01*
X106Y3543D01*
X106Y3545D01*
X110Y3545D01*
X110Y3547D01*
X112Y3547D01*
X112Y3549D01*
X116Y3549D01*
X116Y3551D01*
X118Y3551D01*
X118Y3553D01*
X122Y3553D01*
X122Y3555D01*
X126Y3555D01*
X126Y3557D01*
X130Y3557D01*
X130Y3559D01*
X136Y3559D01*
X136Y3561D01*
X140Y3561D01*
X140Y3563D01*
X148Y3563D01*
X148Y3565D01*
X158Y3565D01*
X158Y3567D01*
X40Y3567D01*
G37*
D02*
G36*
X40Y3351D02*
X40Y3349D01*
X758Y3349D01*
X758Y3351D01*
X40Y3351D01*
G37*
D02*
G36*
X40Y3351D02*
X40Y3349D01*
X758Y3349D01*
X758Y3351D01*
X40Y3351D01*
G37*
D02*
G36*
X40Y3349D02*
X40Y3263D01*
X710Y3263D01*
X710Y3261D01*
X718Y3261D01*
X718Y3259D01*
X724Y3259D01*
X724Y3257D01*
X728Y3257D01*
X728Y3255D01*
X732Y3255D01*
X732Y3253D01*
X736Y3253D01*
X736Y3251D01*
X758Y3251D01*
X758Y3349D01*
X40Y3349D01*
G37*
D02*
G36*
X40Y3263D02*
X40Y3251D01*
X62Y3251D01*
X62Y3253D01*
X66Y3253D01*
X66Y3255D01*
X70Y3255D01*
X70Y3257D01*
X74Y3257D01*
X74Y3259D01*
X80Y3259D01*
X80Y3261D01*
X88Y3261D01*
X88Y3263D01*
X40Y3263D01*
G37*
D02*
G36*
X110Y3263D02*
X110Y3261D01*
X118Y3261D01*
X118Y3259D01*
X124Y3259D01*
X124Y3257D01*
X128Y3257D01*
X128Y3255D01*
X132Y3255D01*
X132Y3253D01*
X136Y3253D01*
X136Y3251D01*
X140Y3251D01*
X140Y3249D01*
X142Y3249D01*
X142Y3247D01*
X144Y3247D01*
X144Y3245D01*
X146Y3245D01*
X146Y3243D01*
X148Y3243D01*
X148Y3241D01*
X150Y3241D01*
X150Y3239D01*
X152Y3239D01*
X152Y3237D01*
X154Y3237D01*
X154Y3235D01*
X156Y3235D01*
X156Y3231D01*
X158Y3231D01*
X158Y3227D01*
X160Y3227D01*
X160Y3223D01*
X162Y3223D01*
X162Y3219D01*
X164Y3219D01*
X164Y3213D01*
X166Y3213D01*
X166Y3205D01*
X168Y3205D01*
X168Y3183D01*
X166Y3183D01*
X166Y3175D01*
X164Y3175D01*
X164Y3169D01*
X162Y3169D01*
X162Y3165D01*
X160Y3165D01*
X160Y3161D01*
X158Y3161D01*
X158Y3157D01*
X156Y3157D01*
X156Y3153D01*
X154Y3153D01*
X154Y3151D01*
X152Y3151D01*
X152Y3149D01*
X150Y3149D01*
X150Y3147D01*
X148Y3147D01*
X148Y3145D01*
X146Y3145D01*
X146Y3143D01*
X144Y3143D01*
X144Y3141D01*
X142Y3141D01*
X142Y3139D01*
X140Y3139D01*
X140Y3137D01*
X136Y3137D01*
X136Y3135D01*
X132Y3135D01*
X132Y3133D01*
X128Y3133D01*
X128Y3131D01*
X124Y3131D01*
X124Y3129D01*
X118Y3129D01*
X118Y3127D01*
X110Y3127D01*
X110Y3125D01*
X288Y3125D01*
X288Y3127D01*
X280Y3127D01*
X280Y3129D01*
X274Y3129D01*
X274Y3131D01*
X270Y3131D01*
X270Y3133D01*
X266Y3133D01*
X266Y3135D01*
X262Y3135D01*
X262Y3137D01*
X258Y3137D01*
X258Y3139D01*
X256Y3139D01*
X256Y3141D01*
X254Y3141D01*
X254Y3143D01*
X252Y3143D01*
X252Y3145D01*
X250Y3145D01*
X250Y3147D01*
X248Y3147D01*
X248Y3149D01*
X246Y3149D01*
X246Y3151D01*
X244Y3151D01*
X244Y3153D01*
X242Y3153D01*
X242Y3157D01*
X240Y3157D01*
X240Y3161D01*
X238Y3161D01*
X238Y3165D01*
X236Y3165D01*
X236Y3169D01*
X234Y3169D01*
X234Y3175D01*
X232Y3175D01*
X232Y3183D01*
X230Y3183D01*
X230Y3205D01*
X232Y3205D01*
X232Y3213D01*
X234Y3213D01*
X234Y3219D01*
X236Y3219D01*
X236Y3223D01*
X238Y3223D01*
X238Y3227D01*
X240Y3227D01*
X240Y3231D01*
X242Y3231D01*
X242Y3235D01*
X244Y3235D01*
X244Y3237D01*
X246Y3237D01*
X246Y3239D01*
X248Y3239D01*
X248Y3241D01*
X250Y3241D01*
X250Y3243D01*
X252Y3243D01*
X252Y3245D01*
X254Y3245D01*
X254Y3247D01*
X256Y3247D01*
X256Y3249D01*
X258Y3249D01*
X258Y3251D01*
X262Y3251D01*
X262Y3253D01*
X266Y3253D01*
X266Y3255D01*
X270Y3255D01*
X270Y3257D01*
X274Y3257D01*
X274Y3259D01*
X280Y3259D01*
X280Y3261D01*
X288Y3261D01*
X288Y3263D01*
X110Y3263D01*
G37*
D02*
G36*
X310Y3263D02*
X310Y3261D01*
X318Y3261D01*
X318Y3259D01*
X324Y3259D01*
X324Y3257D01*
X328Y3257D01*
X328Y3255D01*
X332Y3255D01*
X332Y3253D01*
X336Y3253D01*
X336Y3251D01*
X340Y3251D01*
X340Y3249D01*
X342Y3249D01*
X342Y3247D01*
X344Y3247D01*
X344Y3245D01*
X346Y3245D01*
X346Y3243D01*
X348Y3243D01*
X348Y3241D01*
X350Y3241D01*
X350Y3239D01*
X352Y3239D01*
X352Y3237D01*
X354Y3237D01*
X354Y3235D01*
X356Y3235D01*
X356Y3231D01*
X358Y3231D01*
X358Y3227D01*
X360Y3227D01*
X360Y3223D01*
X362Y3223D01*
X362Y3219D01*
X364Y3219D01*
X364Y3213D01*
X366Y3213D01*
X366Y3205D01*
X368Y3205D01*
X368Y3183D01*
X366Y3183D01*
X366Y3175D01*
X364Y3175D01*
X364Y3169D01*
X362Y3169D01*
X362Y3165D01*
X360Y3165D01*
X360Y3161D01*
X358Y3161D01*
X358Y3157D01*
X356Y3157D01*
X356Y3153D01*
X354Y3153D01*
X354Y3151D01*
X352Y3151D01*
X352Y3149D01*
X350Y3149D01*
X350Y3147D01*
X348Y3147D01*
X348Y3145D01*
X346Y3145D01*
X346Y3143D01*
X344Y3143D01*
X344Y3141D01*
X342Y3141D01*
X342Y3139D01*
X340Y3139D01*
X340Y3137D01*
X336Y3137D01*
X336Y3135D01*
X332Y3135D01*
X332Y3133D01*
X328Y3133D01*
X328Y3131D01*
X324Y3131D01*
X324Y3129D01*
X318Y3129D01*
X318Y3127D01*
X310Y3127D01*
X310Y3125D01*
X488Y3125D01*
X488Y3127D01*
X480Y3127D01*
X480Y3129D01*
X474Y3129D01*
X474Y3131D01*
X470Y3131D01*
X470Y3133D01*
X466Y3133D01*
X466Y3135D01*
X462Y3135D01*
X462Y3137D01*
X458Y3137D01*
X458Y3139D01*
X456Y3139D01*
X456Y3141D01*
X454Y3141D01*
X454Y3143D01*
X452Y3143D01*
X452Y3145D01*
X450Y3145D01*
X450Y3147D01*
X448Y3147D01*
X448Y3149D01*
X446Y3149D01*
X446Y3151D01*
X444Y3151D01*
X444Y3153D01*
X442Y3153D01*
X442Y3157D01*
X440Y3157D01*
X440Y3161D01*
X438Y3161D01*
X438Y3165D01*
X436Y3165D01*
X436Y3169D01*
X434Y3169D01*
X434Y3175D01*
X432Y3175D01*
X432Y3183D01*
X430Y3183D01*
X430Y3205D01*
X432Y3205D01*
X432Y3213D01*
X434Y3213D01*
X434Y3219D01*
X436Y3219D01*
X436Y3223D01*
X438Y3223D01*
X438Y3227D01*
X440Y3227D01*
X440Y3231D01*
X442Y3231D01*
X442Y3235D01*
X444Y3235D01*
X444Y3237D01*
X446Y3237D01*
X446Y3239D01*
X448Y3239D01*
X448Y3241D01*
X450Y3241D01*
X450Y3243D01*
X452Y3243D01*
X452Y3245D01*
X454Y3245D01*
X454Y3247D01*
X456Y3247D01*
X456Y3249D01*
X458Y3249D01*
X458Y3251D01*
X462Y3251D01*
X462Y3253D01*
X466Y3253D01*
X466Y3255D01*
X470Y3255D01*
X470Y3257D01*
X474Y3257D01*
X474Y3259D01*
X480Y3259D01*
X480Y3261D01*
X488Y3261D01*
X488Y3263D01*
X310Y3263D01*
G37*
D02*
G36*
X510Y3263D02*
X510Y3261D01*
X518Y3261D01*
X518Y3259D01*
X524Y3259D01*
X524Y3257D01*
X528Y3257D01*
X528Y3255D01*
X532Y3255D01*
X532Y3253D01*
X536Y3253D01*
X536Y3251D01*
X540Y3251D01*
X540Y3249D01*
X542Y3249D01*
X542Y3247D01*
X544Y3247D01*
X544Y3245D01*
X546Y3245D01*
X546Y3243D01*
X548Y3243D01*
X548Y3241D01*
X550Y3241D01*
X550Y3239D01*
X552Y3239D01*
X552Y3237D01*
X554Y3237D01*
X554Y3235D01*
X556Y3235D01*
X556Y3231D01*
X558Y3231D01*
X558Y3227D01*
X560Y3227D01*
X560Y3223D01*
X562Y3223D01*
X562Y3219D01*
X564Y3219D01*
X564Y3213D01*
X566Y3213D01*
X566Y3205D01*
X568Y3205D01*
X568Y3183D01*
X566Y3183D01*
X566Y3175D01*
X564Y3175D01*
X564Y3169D01*
X562Y3169D01*
X562Y3165D01*
X560Y3165D01*
X560Y3161D01*
X558Y3161D01*
X558Y3157D01*
X556Y3157D01*
X556Y3153D01*
X554Y3153D01*
X554Y3151D01*
X552Y3151D01*
X552Y3149D01*
X550Y3149D01*
X550Y3147D01*
X548Y3147D01*
X548Y3145D01*
X546Y3145D01*
X546Y3143D01*
X544Y3143D01*
X544Y3141D01*
X542Y3141D01*
X542Y3139D01*
X540Y3139D01*
X540Y3137D01*
X536Y3137D01*
X536Y3135D01*
X532Y3135D01*
X532Y3133D01*
X528Y3133D01*
X528Y3131D01*
X524Y3131D01*
X524Y3129D01*
X518Y3129D01*
X518Y3127D01*
X510Y3127D01*
X510Y3125D01*
X688Y3125D01*
X688Y3127D01*
X680Y3127D01*
X680Y3129D01*
X674Y3129D01*
X674Y3131D01*
X670Y3131D01*
X670Y3133D01*
X666Y3133D01*
X666Y3135D01*
X662Y3135D01*
X662Y3137D01*
X658Y3137D01*
X658Y3139D01*
X656Y3139D01*
X656Y3141D01*
X654Y3141D01*
X654Y3143D01*
X652Y3143D01*
X652Y3145D01*
X650Y3145D01*
X650Y3147D01*
X648Y3147D01*
X648Y3149D01*
X646Y3149D01*
X646Y3151D01*
X644Y3151D01*
X644Y3153D01*
X642Y3153D01*
X642Y3157D01*
X640Y3157D01*
X640Y3161D01*
X638Y3161D01*
X638Y3165D01*
X636Y3165D01*
X636Y3169D01*
X634Y3169D01*
X634Y3175D01*
X632Y3175D01*
X632Y3183D01*
X630Y3183D01*
X630Y3205D01*
X632Y3205D01*
X632Y3213D01*
X634Y3213D01*
X634Y3219D01*
X636Y3219D01*
X636Y3223D01*
X638Y3223D01*
X638Y3227D01*
X640Y3227D01*
X640Y3231D01*
X642Y3231D01*
X642Y3235D01*
X644Y3235D01*
X644Y3237D01*
X646Y3237D01*
X646Y3239D01*
X648Y3239D01*
X648Y3241D01*
X650Y3241D01*
X650Y3243D01*
X652Y3243D01*
X652Y3245D01*
X654Y3245D01*
X654Y3247D01*
X656Y3247D01*
X656Y3249D01*
X658Y3249D01*
X658Y3251D01*
X662Y3251D01*
X662Y3253D01*
X666Y3253D01*
X666Y3255D01*
X670Y3255D01*
X670Y3257D01*
X674Y3257D01*
X674Y3259D01*
X680Y3259D01*
X680Y3261D01*
X688Y3261D01*
X688Y3263D01*
X510Y3263D01*
G37*
D02*
G36*
X40Y3137D02*
X40Y3125D01*
X88Y3125D01*
X88Y3127D01*
X80Y3127D01*
X80Y3129D01*
X74Y3129D01*
X74Y3131D01*
X70Y3131D01*
X70Y3133D01*
X66Y3133D01*
X66Y3135D01*
X62Y3135D01*
X62Y3137D01*
X40Y3137D01*
G37*
D02*
G36*
X736Y3137D02*
X736Y3135D01*
X732Y3135D01*
X732Y3133D01*
X728Y3133D01*
X728Y3131D01*
X724Y3131D01*
X724Y3129D01*
X718Y3129D01*
X718Y3127D01*
X710Y3127D01*
X710Y3125D01*
X758Y3125D01*
X758Y3137D01*
X736Y3137D01*
G37*
D02*
G36*
X40Y3125D02*
X40Y3123D01*
X758Y3123D01*
X758Y3125D01*
X40Y3125D01*
G37*
D02*
G36*
X40Y3125D02*
X40Y3123D01*
X758Y3123D01*
X758Y3125D01*
X40Y3125D01*
G37*
D02*
G36*
X40Y3125D02*
X40Y3123D01*
X758Y3123D01*
X758Y3125D01*
X40Y3125D01*
G37*
D02*
G36*
X40Y3125D02*
X40Y3123D01*
X758Y3123D01*
X758Y3125D01*
X40Y3125D01*
G37*
D02*
G36*
X40Y3125D02*
X40Y3123D01*
X758Y3123D01*
X758Y3125D01*
X40Y3125D01*
G37*
D02*
G36*
X40Y3123D02*
X40Y3023D01*
X602Y3023D01*
X602Y3021D01*
X622Y3021D01*
X622Y3019D01*
X630Y3019D01*
X630Y3017D01*
X638Y3017D01*
X638Y3015D01*
X644Y3015D01*
X644Y3013D01*
X648Y3013D01*
X648Y3011D01*
X652Y3011D01*
X652Y3009D01*
X656Y3009D01*
X656Y3007D01*
X660Y3007D01*
X660Y3005D01*
X664Y3005D01*
X664Y3003D01*
X668Y3003D01*
X668Y3001D01*
X670Y3001D01*
X670Y2999D01*
X674Y2999D01*
X674Y2997D01*
X676Y2997D01*
X676Y2995D01*
X678Y2995D01*
X678Y2993D01*
X682Y2993D01*
X682Y2991D01*
X684Y2991D01*
X684Y2989D01*
X686Y2989D01*
X686Y2987D01*
X688Y2987D01*
X688Y2985D01*
X690Y2985D01*
X690Y2983D01*
X692Y2983D01*
X692Y2981D01*
X694Y2981D01*
X694Y2979D01*
X696Y2979D01*
X696Y2977D01*
X698Y2977D01*
X698Y2973D01*
X700Y2973D01*
X700Y2971D01*
X702Y2971D01*
X702Y2969D01*
X704Y2969D01*
X704Y2965D01*
X706Y2965D01*
X706Y2963D01*
X708Y2963D01*
X708Y2959D01*
X710Y2959D01*
X710Y2955D01*
X712Y2955D01*
X712Y2951D01*
X714Y2951D01*
X714Y2947D01*
X716Y2947D01*
X716Y2943D01*
X718Y2943D01*
X718Y2939D01*
X720Y2939D01*
X720Y2933D01*
X722Y2933D01*
X722Y2925D01*
X724Y2925D01*
X724Y2917D01*
X726Y2917D01*
X726Y2897D01*
X728Y2897D01*
X728Y2891D01*
X726Y2891D01*
X726Y2871D01*
X724Y2871D01*
X724Y2863D01*
X722Y2863D01*
X722Y2855D01*
X720Y2855D01*
X720Y2849D01*
X718Y2849D01*
X718Y2845D01*
X716Y2845D01*
X716Y2841D01*
X714Y2841D01*
X714Y2837D01*
X712Y2837D01*
X712Y2833D01*
X710Y2833D01*
X710Y2829D01*
X708Y2829D01*
X708Y2825D01*
X706Y2825D01*
X706Y2823D01*
X704Y2823D01*
X704Y2819D01*
X702Y2819D01*
X702Y2817D01*
X700Y2817D01*
X700Y2815D01*
X698Y2815D01*
X698Y2811D01*
X696Y2811D01*
X696Y2809D01*
X694Y2809D01*
X694Y2807D01*
X692Y2807D01*
X692Y2805D01*
X690Y2805D01*
X690Y2803D01*
X688Y2803D01*
X688Y2801D01*
X686Y2801D01*
X686Y2799D01*
X684Y2799D01*
X684Y2797D01*
X682Y2797D01*
X682Y2795D01*
X678Y2795D01*
X678Y2793D01*
X676Y2793D01*
X676Y2791D01*
X674Y2791D01*
X674Y2789D01*
X670Y2789D01*
X670Y2787D01*
X668Y2787D01*
X668Y2785D01*
X664Y2785D01*
X664Y2783D01*
X660Y2783D01*
X660Y2781D01*
X656Y2781D01*
X656Y2779D01*
X652Y2779D01*
X652Y2777D01*
X648Y2777D01*
X648Y2775D01*
X644Y2775D01*
X644Y2773D01*
X638Y2773D01*
X638Y2771D01*
X630Y2771D01*
X630Y2769D01*
X622Y2769D01*
X622Y2767D01*
X602Y2767D01*
X602Y2765D01*
X758Y2765D01*
X758Y3123D01*
X40Y3123D01*
G37*
D02*
G36*
X40Y3023D02*
X40Y2765D01*
X196Y2765D01*
X196Y2767D01*
X176Y2767D01*
X176Y2769D01*
X168Y2769D01*
X168Y2771D01*
X160Y2771D01*
X160Y2773D01*
X156Y2773D01*
X156Y2775D01*
X150Y2775D01*
X150Y2777D01*
X146Y2777D01*
X146Y2779D01*
X142Y2779D01*
X142Y2781D01*
X138Y2781D01*
X138Y2783D01*
X134Y2783D01*
X134Y2785D01*
X130Y2785D01*
X130Y2787D01*
X128Y2787D01*
X128Y2789D01*
X124Y2789D01*
X124Y2791D01*
X122Y2791D01*
X122Y2793D01*
X120Y2793D01*
X120Y2795D01*
X116Y2795D01*
X116Y2797D01*
X114Y2797D01*
X114Y2799D01*
X112Y2799D01*
X112Y2801D01*
X110Y2801D01*
X110Y2803D01*
X108Y2803D01*
X108Y2805D01*
X106Y2805D01*
X106Y2807D01*
X104Y2807D01*
X104Y2809D01*
X102Y2809D01*
X102Y2811D01*
X100Y2811D01*
X100Y2815D01*
X98Y2815D01*
X98Y2817D01*
X96Y2817D01*
X96Y2819D01*
X94Y2819D01*
X94Y2823D01*
X92Y2823D01*
X92Y2825D01*
X90Y2825D01*
X90Y2829D01*
X88Y2829D01*
X88Y2833D01*
X86Y2833D01*
X86Y2837D01*
X84Y2837D01*
X84Y2841D01*
X82Y2841D01*
X82Y2845D01*
X80Y2845D01*
X80Y2851D01*
X78Y2851D01*
X78Y2855D01*
X76Y2855D01*
X76Y2863D01*
X74Y2863D01*
X74Y2873D01*
X72Y2873D01*
X72Y2893D01*
X70Y2893D01*
X70Y2895D01*
X72Y2895D01*
X72Y2915D01*
X74Y2915D01*
X74Y2925D01*
X76Y2925D01*
X76Y2933D01*
X78Y2933D01*
X78Y2937D01*
X80Y2937D01*
X80Y2943D01*
X82Y2943D01*
X82Y2947D01*
X84Y2947D01*
X84Y2951D01*
X86Y2951D01*
X86Y2955D01*
X88Y2955D01*
X88Y2959D01*
X90Y2959D01*
X90Y2963D01*
X92Y2963D01*
X92Y2965D01*
X94Y2965D01*
X94Y2969D01*
X96Y2969D01*
X96Y2971D01*
X98Y2971D01*
X98Y2973D01*
X100Y2973D01*
X100Y2977D01*
X102Y2977D01*
X102Y2979D01*
X104Y2979D01*
X104Y2981D01*
X106Y2981D01*
X106Y2983D01*
X108Y2983D01*
X108Y2985D01*
X110Y2985D01*
X110Y2987D01*
X112Y2987D01*
X112Y2989D01*
X114Y2989D01*
X114Y2991D01*
X116Y2991D01*
X116Y2993D01*
X120Y2993D01*
X120Y2995D01*
X122Y2995D01*
X122Y2997D01*
X124Y2997D01*
X124Y2999D01*
X128Y2999D01*
X128Y3001D01*
X130Y3001D01*
X130Y3003D01*
X134Y3003D01*
X134Y3005D01*
X138Y3005D01*
X138Y3007D01*
X142Y3007D01*
X142Y3009D01*
X146Y3009D01*
X146Y3011D01*
X150Y3011D01*
X150Y3013D01*
X156Y3013D01*
X156Y3015D01*
X160Y3015D01*
X160Y3017D01*
X168Y3017D01*
X168Y3019D01*
X178Y3019D01*
X178Y3021D01*
X198Y3021D01*
X198Y3023D01*
X40Y3023D01*
G37*
D02*
G36*
X202Y3023D02*
X202Y3021D01*
X222Y3021D01*
X222Y3019D01*
X230Y3019D01*
X230Y3017D01*
X238Y3017D01*
X238Y3015D01*
X244Y3015D01*
X244Y3013D01*
X248Y3013D01*
X248Y3011D01*
X252Y3011D01*
X252Y3009D01*
X256Y3009D01*
X256Y3007D01*
X260Y3007D01*
X260Y3005D01*
X264Y3005D01*
X264Y3003D01*
X268Y3003D01*
X268Y3001D01*
X270Y3001D01*
X270Y2999D01*
X274Y2999D01*
X274Y2997D01*
X276Y2997D01*
X276Y2995D01*
X278Y2995D01*
X278Y2993D01*
X282Y2993D01*
X282Y2991D01*
X284Y2991D01*
X284Y2989D01*
X286Y2989D01*
X286Y2987D01*
X288Y2987D01*
X288Y2985D01*
X290Y2985D01*
X290Y2983D01*
X292Y2983D01*
X292Y2981D01*
X294Y2981D01*
X294Y2979D01*
X296Y2979D01*
X296Y2977D01*
X298Y2977D01*
X298Y2973D01*
X300Y2973D01*
X300Y2971D01*
X302Y2971D01*
X302Y2969D01*
X304Y2969D01*
X304Y2965D01*
X306Y2965D01*
X306Y2963D01*
X308Y2963D01*
X308Y2959D01*
X310Y2959D01*
X310Y2955D01*
X312Y2955D01*
X312Y2951D01*
X314Y2951D01*
X314Y2947D01*
X316Y2947D01*
X316Y2943D01*
X318Y2943D01*
X318Y2939D01*
X320Y2939D01*
X320Y2933D01*
X322Y2933D01*
X322Y2925D01*
X324Y2925D01*
X324Y2917D01*
X326Y2917D01*
X326Y2897D01*
X328Y2897D01*
X328Y2891D01*
X326Y2891D01*
X326Y2871D01*
X324Y2871D01*
X324Y2863D01*
X322Y2863D01*
X322Y2855D01*
X320Y2855D01*
X320Y2849D01*
X318Y2849D01*
X318Y2845D01*
X316Y2845D01*
X316Y2841D01*
X314Y2841D01*
X314Y2837D01*
X312Y2837D01*
X312Y2833D01*
X310Y2833D01*
X310Y2829D01*
X308Y2829D01*
X308Y2825D01*
X306Y2825D01*
X306Y2823D01*
X304Y2823D01*
X304Y2819D01*
X302Y2819D01*
X302Y2817D01*
X300Y2817D01*
X300Y2815D01*
X298Y2815D01*
X298Y2811D01*
X296Y2811D01*
X296Y2809D01*
X294Y2809D01*
X294Y2807D01*
X292Y2807D01*
X292Y2805D01*
X290Y2805D01*
X290Y2803D01*
X288Y2803D01*
X288Y2801D01*
X286Y2801D01*
X286Y2799D01*
X284Y2799D01*
X284Y2797D01*
X282Y2797D01*
X282Y2795D01*
X278Y2795D01*
X278Y2793D01*
X276Y2793D01*
X276Y2791D01*
X274Y2791D01*
X274Y2789D01*
X270Y2789D01*
X270Y2787D01*
X268Y2787D01*
X268Y2785D01*
X264Y2785D01*
X264Y2783D01*
X260Y2783D01*
X260Y2781D01*
X256Y2781D01*
X256Y2779D01*
X252Y2779D01*
X252Y2777D01*
X248Y2777D01*
X248Y2775D01*
X244Y2775D01*
X244Y2773D01*
X238Y2773D01*
X238Y2771D01*
X230Y2771D01*
X230Y2769D01*
X222Y2769D01*
X222Y2767D01*
X202Y2767D01*
X202Y2765D01*
X596Y2765D01*
X596Y2767D01*
X576Y2767D01*
X576Y2769D01*
X568Y2769D01*
X568Y2771D01*
X560Y2771D01*
X560Y2773D01*
X556Y2773D01*
X556Y2775D01*
X550Y2775D01*
X550Y2777D01*
X546Y2777D01*
X546Y2779D01*
X542Y2779D01*
X542Y2781D01*
X538Y2781D01*
X538Y2783D01*
X534Y2783D01*
X534Y2785D01*
X530Y2785D01*
X530Y2787D01*
X528Y2787D01*
X528Y2789D01*
X524Y2789D01*
X524Y2791D01*
X522Y2791D01*
X522Y2793D01*
X520Y2793D01*
X520Y2795D01*
X516Y2795D01*
X516Y2797D01*
X514Y2797D01*
X514Y2799D01*
X512Y2799D01*
X512Y2801D01*
X510Y2801D01*
X510Y2803D01*
X508Y2803D01*
X508Y2805D01*
X506Y2805D01*
X506Y2807D01*
X504Y2807D01*
X504Y2809D01*
X502Y2809D01*
X502Y2811D01*
X500Y2811D01*
X500Y2815D01*
X498Y2815D01*
X498Y2817D01*
X496Y2817D01*
X496Y2819D01*
X494Y2819D01*
X494Y2823D01*
X492Y2823D01*
X492Y2825D01*
X490Y2825D01*
X490Y2829D01*
X488Y2829D01*
X488Y2833D01*
X486Y2833D01*
X486Y2837D01*
X484Y2837D01*
X484Y2841D01*
X482Y2841D01*
X482Y2845D01*
X480Y2845D01*
X480Y2851D01*
X478Y2851D01*
X478Y2855D01*
X476Y2855D01*
X476Y2863D01*
X474Y2863D01*
X474Y2873D01*
X472Y2873D01*
X472Y2893D01*
X470Y2893D01*
X470Y2895D01*
X472Y2895D01*
X472Y2915D01*
X474Y2915D01*
X474Y2925D01*
X476Y2925D01*
X476Y2933D01*
X478Y2933D01*
X478Y2937D01*
X480Y2937D01*
X480Y2943D01*
X482Y2943D01*
X482Y2947D01*
X484Y2947D01*
X484Y2951D01*
X486Y2951D01*
X486Y2955D01*
X488Y2955D01*
X488Y2959D01*
X490Y2959D01*
X490Y2963D01*
X492Y2963D01*
X492Y2965D01*
X494Y2965D01*
X494Y2969D01*
X496Y2969D01*
X496Y2971D01*
X498Y2971D01*
X498Y2973D01*
X500Y2973D01*
X500Y2977D01*
X502Y2977D01*
X502Y2979D01*
X504Y2979D01*
X504Y2981D01*
X506Y2981D01*
X506Y2983D01*
X508Y2983D01*
X508Y2985D01*
X510Y2985D01*
X510Y2987D01*
X512Y2987D01*
X512Y2989D01*
X514Y2989D01*
X514Y2991D01*
X516Y2991D01*
X516Y2993D01*
X520Y2993D01*
X520Y2995D01*
X522Y2995D01*
X522Y2997D01*
X524Y2997D01*
X524Y2999D01*
X528Y2999D01*
X528Y3001D01*
X530Y3001D01*
X530Y3003D01*
X534Y3003D01*
X534Y3005D01*
X538Y3005D01*
X538Y3007D01*
X542Y3007D01*
X542Y3009D01*
X546Y3009D01*
X546Y3011D01*
X550Y3011D01*
X550Y3013D01*
X556Y3013D01*
X556Y3015D01*
X560Y3015D01*
X560Y3017D01*
X568Y3017D01*
X568Y3019D01*
X578Y3019D01*
X578Y3021D01*
X598Y3021D01*
X598Y3023D01*
X202Y3023D01*
G37*
D02*
G36*
X40Y2765D02*
X40Y2763D01*
X758Y2763D01*
X758Y2765D01*
X40Y2765D01*
G37*
D02*
G36*
X40Y2765D02*
X40Y2763D01*
X758Y2763D01*
X758Y2765D01*
X40Y2765D01*
G37*
D02*
G36*
X40Y2765D02*
X40Y2763D01*
X758Y2763D01*
X758Y2765D01*
X40Y2765D01*
G37*
D02*
G36*
X40Y2763D02*
X40Y2493D01*
X602Y2493D01*
X602Y2491D01*
X622Y2491D01*
X622Y2489D01*
X630Y2489D01*
X630Y2487D01*
X638Y2487D01*
X638Y2485D01*
X644Y2485D01*
X644Y2483D01*
X648Y2483D01*
X648Y2481D01*
X652Y2481D01*
X652Y2479D01*
X656Y2479D01*
X656Y2477D01*
X660Y2477D01*
X660Y2475D01*
X664Y2475D01*
X664Y2473D01*
X668Y2473D01*
X668Y2471D01*
X670Y2471D01*
X670Y2469D01*
X674Y2469D01*
X674Y2467D01*
X676Y2467D01*
X676Y2465D01*
X678Y2465D01*
X678Y2463D01*
X682Y2463D01*
X682Y2461D01*
X684Y2461D01*
X684Y2459D01*
X686Y2459D01*
X686Y2457D01*
X688Y2457D01*
X688Y2455D01*
X690Y2455D01*
X690Y2453D01*
X692Y2453D01*
X692Y2451D01*
X694Y2451D01*
X694Y2449D01*
X696Y2449D01*
X696Y2447D01*
X698Y2447D01*
X698Y2443D01*
X700Y2443D01*
X700Y2441D01*
X702Y2441D01*
X702Y2439D01*
X704Y2439D01*
X704Y2435D01*
X706Y2435D01*
X706Y2433D01*
X708Y2433D01*
X708Y2429D01*
X710Y2429D01*
X710Y2425D01*
X712Y2425D01*
X712Y2421D01*
X714Y2421D01*
X714Y2417D01*
X716Y2417D01*
X716Y2413D01*
X718Y2413D01*
X718Y2409D01*
X720Y2409D01*
X720Y2403D01*
X722Y2403D01*
X722Y2395D01*
X724Y2395D01*
X724Y2387D01*
X726Y2387D01*
X726Y2367D01*
X728Y2367D01*
X728Y2361D01*
X726Y2361D01*
X726Y2341D01*
X724Y2341D01*
X724Y2333D01*
X722Y2333D01*
X722Y2325D01*
X720Y2325D01*
X720Y2319D01*
X718Y2319D01*
X718Y2315D01*
X716Y2315D01*
X716Y2311D01*
X714Y2311D01*
X714Y2307D01*
X712Y2307D01*
X712Y2303D01*
X710Y2303D01*
X710Y2299D01*
X708Y2299D01*
X708Y2295D01*
X706Y2295D01*
X706Y2293D01*
X704Y2293D01*
X704Y2289D01*
X702Y2289D01*
X702Y2287D01*
X700Y2287D01*
X700Y2285D01*
X698Y2285D01*
X698Y2281D01*
X696Y2281D01*
X696Y2279D01*
X694Y2279D01*
X694Y2277D01*
X692Y2277D01*
X692Y2275D01*
X690Y2275D01*
X690Y2273D01*
X688Y2273D01*
X688Y2271D01*
X686Y2271D01*
X686Y2269D01*
X684Y2269D01*
X684Y2267D01*
X682Y2267D01*
X682Y2265D01*
X678Y2265D01*
X678Y2263D01*
X676Y2263D01*
X676Y2261D01*
X674Y2261D01*
X674Y2259D01*
X670Y2259D01*
X670Y2257D01*
X668Y2257D01*
X668Y2255D01*
X664Y2255D01*
X664Y2253D01*
X660Y2253D01*
X660Y2251D01*
X656Y2251D01*
X656Y2249D01*
X652Y2249D01*
X652Y2247D01*
X648Y2247D01*
X648Y2245D01*
X644Y2245D01*
X644Y2243D01*
X638Y2243D01*
X638Y2241D01*
X630Y2241D01*
X630Y2239D01*
X622Y2239D01*
X622Y2237D01*
X602Y2237D01*
X602Y2235D01*
X758Y2235D01*
X758Y2763D01*
X40Y2763D01*
G37*
D02*
G36*
X40Y2493D02*
X40Y2235D01*
X196Y2235D01*
X196Y2237D01*
X176Y2237D01*
X176Y2239D01*
X168Y2239D01*
X168Y2241D01*
X160Y2241D01*
X160Y2243D01*
X156Y2243D01*
X156Y2245D01*
X150Y2245D01*
X150Y2247D01*
X146Y2247D01*
X146Y2249D01*
X142Y2249D01*
X142Y2251D01*
X138Y2251D01*
X138Y2253D01*
X134Y2253D01*
X134Y2255D01*
X130Y2255D01*
X130Y2257D01*
X128Y2257D01*
X128Y2259D01*
X124Y2259D01*
X124Y2261D01*
X122Y2261D01*
X122Y2263D01*
X120Y2263D01*
X120Y2265D01*
X116Y2265D01*
X116Y2267D01*
X114Y2267D01*
X114Y2269D01*
X112Y2269D01*
X112Y2271D01*
X110Y2271D01*
X110Y2273D01*
X108Y2273D01*
X108Y2275D01*
X106Y2275D01*
X106Y2277D01*
X104Y2277D01*
X104Y2279D01*
X102Y2279D01*
X102Y2281D01*
X100Y2281D01*
X100Y2285D01*
X98Y2285D01*
X98Y2287D01*
X96Y2287D01*
X96Y2289D01*
X94Y2289D01*
X94Y2293D01*
X92Y2293D01*
X92Y2295D01*
X90Y2295D01*
X90Y2299D01*
X88Y2299D01*
X88Y2303D01*
X86Y2303D01*
X86Y2307D01*
X84Y2307D01*
X84Y2311D01*
X82Y2311D01*
X82Y2315D01*
X80Y2315D01*
X80Y2321D01*
X78Y2321D01*
X78Y2325D01*
X76Y2325D01*
X76Y2333D01*
X74Y2333D01*
X74Y2343D01*
X72Y2343D01*
X72Y2363D01*
X70Y2363D01*
X70Y2365D01*
X72Y2365D01*
X72Y2385D01*
X74Y2385D01*
X74Y2395D01*
X76Y2395D01*
X76Y2403D01*
X78Y2403D01*
X78Y2407D01*
X80Y2407D01*
X80Y2413D01*
X82Y2413D01*
X82Y2417D01*
X84Y2417D01*
X84Y2421D01*
X86Y2421D01*
X86Y2425D01*
X88Y2425D01*
X88Y2429D01*
X90Y2429D01*
X90Y2433D01*
X92Y2433D01*
X92Y2435D01*
X94Y2435D01*
X94Y2439D01*
X96Y2439D01*
X96Y2441D01*
X98Y2441D01*
X98Y2443D01*
X100Y2443D01*
X100Y2447D01*
X102Y2447D01*
X102Y2449D01*
X104Y2449D01*
X104Y2451D01*
X106Y2451D01*
X106Y2453D01*
X108Y2453D01*
X108Y2455D01*
X110Y2455D01*
X110Y2457D01*
X112Y2457D01*
X112Y2459D01*
X114Y2459D01*
X114Y2461D01*
X116Y2461D01*
X116Y2463D01*
X120Y2463D01*
X120Y2465D01*
X122Y2465D01*
X122Y2467D01*
X124Y2467D01*
X124Y2469D01*
X128Y2469D01*
X128Y2471D01*
X130Y2471D01*
X130Y2473D01*
X134Y2473D01*
X134Y2475D01*
X138Y2475D01*
X138Y2477D01*
X142Y2477D01*
X142Y2479D01*
X146Y2479D01*
X146Y2481D01*
X150Y2481D01*
X150Y2483D01*
X156Y2483D01*
X156Y2485D01*
X160Y2485D01*
X160Y2487D01*
X168Y2487D01*
X168Y2489D01*
X178Y2489D01*
X178Y2491D01*
X198Y2491D01*
X198Y2493D01*
X40Y2493D01*
G37*
D02*
G36*
X202Y2493D02*
X202Y2491D01*
X222Y2491D01*
X222Y2489D01*
X230Y2489D01*
X230Y2487D01*
X238Y2487D01*
X238Y2485D01*
X244Y2485D01*
X244Y2483D01*
X248Y2483D01*
X248Y2481D01*
X252Y2481D01*
X252Y2479D01*
X256Y2479D01*
X256Y2477D01*
X260Y2477D01*
X260Y2475D01*
X264Y2475D01*
X264Y2473D01*
X268Y2473D01*
X268Y2471D01*
X270Y2471D01*
X270Y2469D01*
X274Y2469D01*
X274Y2467D01*
X276Y2467D01*
X276Y2465D01*
X278Y2465D01*
X278Y2463D01*
X282Y2463D01*
X282Y2461D01*
X284Y2461D01*
X284Y2459D01*
X286Y2459D01*
X286Y2457D01*
X288Y2457D01*
X288Y2455D01*
X290Y2455D01*
X290Y2453D01*
X292Y2453D01*
X292Y2451D01*
X294Y2451D01*
X294Y2449D01*
X296Y2449D01*
X296Y2447D01*
X298Y2447D01*
X298Y2443D01*
X300Y2443D01*
X300Y2441D01*
X302Y2441D01*
X302Y2439D01*
X304Y2439D01*
X304Y2435D01*
X306Y2435D01*
X306Y2433D01*
X308Y2433D01*
X308Y2429D01*
X310Y2429D01*
X310Y2425D01*
X312Y2425D01*
X312Y2421D01*
X314Y2421D01*
X314Y2417D01*
X316Y2417D01*
X316Y2413D01*
X318Y2413D01*
X318Y2409D01*
X320Y2409D01*
X320Y2403D01*
X322Y2403D01*
X322Y2395D01*
X324Y2395D01*
X324Y2387D01*
X326Y2387D01*
X326Y2367D01*
X328Y2367D01*
X328Y2361D01*
X326Y2361D01*
X326Y2341D01*
X324Y2341D01*
X324Y2333D01*
X322Y2333D01*
X322Y2325D01*
X320Y2325D01*
X320Y2319D01*
X318Y2319D01*
X318Y2315D01*
X316Y2315D01*
X316Y2311D01*
X314Y2311D01*
X314Y2307D01*
X312Y2307D01*
X312Y2303D01*
X310Y2303D01*
X310Y2299D01*
X308Y2299D01*
X308Y2295D01*
X306Y2295D01*
X306Y2293D01*
X304Y2293D01*
X304Y2289D01*
X302Y2289D01*
X302Y2287D01*
X300Y2287D01*
X300Y2285D01*
X298Y2285D01*
X298Y2281D01*
X296Y2281D01*
X296Y2279D01*
X294Y2279D01*
X294Y2277D01*
X292Y2277D01*
X292Y2275D01*
X290Y2275D01*
X290Y2273D01*
X288Y2273D01*
X288Y2271D01*
X286Y2271D01*
X286Y2269D01*
X284Y2269D01*
X284Y2267D01*
X282Y2267D01*
X282Y2265D01*
X278Y2265D01*
X278Y2263D01*
X276Y2263D01*
X276Y2261D01*
X274Y2261D01*
X274Y2259D01*
X270Y2259D01*
X270Y2257D01*
X268Y2257D01*
X268Y2255D01*
X264Y2255D01*
X264Y2253D01*
X260Y2253D01*
X260Y2251D01*
X256Y2251D01*
X256Y2249D01*
X252Y2249D01*
X252Y2247D01*
X248Y2247D01*
X248Y2245D01*
X244Y2245D01*
X244Y2243D01*
X238Y2243D01*
X238Y2241D01*
X230Y2241D01*
X230Y2239D01*
X222Y2239D01*
X222Y2237D01*
X202Y2237D01*
X202Y2235D01*
X596Y2235D01*
X596Y2237D01*
X576Y2237D01*
X576Y2239D01*
X568Y2239D01*
X568Y2241D01*
X560Y2241D01*
X560Y2243D01*
X556Y2243D01*
X556Y2245D01*
X550Y2245D01*
X550Y2247D01*
X546Y2247D01*
X546Y2249D01*
X542Y2249D01*
X542Y2251D01*
X538Y2251D01*
X538Y2253D01*
X534Y2253D01*
X534Y2255D01*
X530Y2255D01*
X530Y2257D01*
X528Y2257D01*
X528Y2259D01*
X524Y2259D01*
X524Y2261D01*
X522Y2261D01*
X522Y2263D01*
X520Y2263D01*
X520Y2265D01*
X516Y2265D01*
X516Y2267D01*
X514Y2267D01*
X514Y2269D01*
X512Y2269D01*
X512Y2271D01*
X510Y2271D01*
X510Y2273D01*
X508Y2273D01*
X508Y2275D01*
X506Y2275D01*
X506Y2277D01*
X504Y2277D01*
X504Y2279D01*
X502Y2279D01*
X502Y2281D01*
X500Y2281D01*
X500Y2285D01*
X498Y2285D01*
X498Y2287D01*
X496Y2287D01*
X496Y2289D01*
X494Y2289D01*
X494Y2293D01*
X492Y2293D01*
X492Y2295D01*
X490Y2295D01*
X490Y2299D01*
X488Y2299D01*
X488Y2303D01*
X486Y2303D01*
X486Y2307D01*
X484Y2307D01*
X484Y2311D01*
X482Y2311D01*
X482Y2315D01*
X480Y2315D01*
X480Y2321D01*
X478Y2321D01*
X478Y2325D01*
X476Y2325D01*
X476Y2333D01*
X474Y2333D01*
X474Y2343D01*
X472Y2343D01*
X472Y2363D01*
X470Y2363D01*
X470Y2365D01*
X472Y2365D01*
X472Y2385D01*
X474Y2385D01*
X474Y2395D01*
X476Y2395D01*
X476Y2403D01*
X478Y2403D01*
X478Y2407D01*
X480Y2407D01*
X480Y2413D01*
X482Y2413D01*
X482Y2417D01*
X484Y2417D01*
X484Y2421D01*
X486Y2421D01*
X486Y2425D01*
X488Y2425D01*
X488Y2429D01*
X490Y2429D01*
X490Y2433D01*
X492Y2433D01*
X492Y2435D01*
X494Y2435D01*
X494Y2439D01*
X496Y2439D01*
X496Y2441D01*
X498Y2441D01*
X498Y2443D01*
X500Y2443D01*
X500Y2447D01*
X502Y2447D01*
X502Y2449D01*
X504Y2449D01*
X504Y2451D01*
X506Y2451D01*
X506Y2453D01*
X508Y2453D01*
X508Y2455D01*
X510Y2455D01*
X510Y2457D01*
X512Y2457D01*
X512Y2459D01*
X514Y2459D01*
X514Y2461D01*
X516Y2461D01*
X516Y2463D01*
X520Y2463D01*
X520Y2465D01*
X522Y2465D01*
X522Y2467D01*
X524Y2467D01*
X524Y2469D01*
X528Y2469D01*
X528Y2471D01*
X530Y2471D01*
X530Y2473D01*
X534Y2473D01*
X534Y2475D01*
X538Y2475D01*
X538Y2477D01*
X542Y2477D01*
X542Y2479D01*
X546Y2479D01*
X546Y2481D01*
X550Y2481D01*
X550Y2483D01*
X556Y2483D01*
X556Y2485D01*
X560Y2485D01*
X560Y2487D01*
X568Y2487D01*
X568Y2489D01*
X578Y2489D01*
X578Y2491D01*
X598Y2491D01*
X598Y2493D01*
X202Y2493D01*
G37*
D02*
G36*
X40Y2235D02*
X40Y2233D01*
X758Y2233D01*
X758Y2235D01*
X40Y2235D01*
G37*
D02*
G36*
X40Y2235D02*
X40Y2233D01*
X758Y2233D01*
X758Y2235D01*
X40Y2235D01*
G37*
D02*
G36*
X40Y2235D02*
X40Y2233D01*
X758Y2233D01*
X758Y2235D01*
X40Y2235D01*
G37*
D02*
G36*
X40Y2233D02*
X40Y1983D01*
X602Y1983D01*
X602Y1981D01*
X622Y1981D01*
X622Y1979D01*
X630Y1979D01*
X630Y1977D01*
X638Y1977D01*
X638Y1975D01*
X644Y1975D01*
X644Y1973D01*
X648Y1973D01*
X648Y1971D01*
X652Y1971D01*
X652Y1969D01*
X656Y1969D01*
X656Y1967D01*
X660Y1967D01*
X660Y1965D01*
X664Y1965D01*
X664Y1963D01*
X668Y1963D01*
X668Y1961D01*
X670Y1961D01*
X670Y1959D01*
X674Y1959D01*
X674Y1957D01*
X676Y1957D01*
X676Y1955D01*
X678Y1955D01*
X678Y1953D01*
X682Y1953D01*
X682Y1951D01*
X684Y1951D01*
X684Y1949D01*
X686Y1949D01*
X686Y1947D01*
X688Y1947D01*
X688Y1945D01*
X690Y1945D01*
X690Y1943D01*
X692Y1943D01*
X692Y1941D01*
X694Y1941D01*
X694Y1939D01*
X696Y1939D01*
X696Y1937D01*
X698Y1937D01*
X698Y1933D01*
X700Y1933D01*
X700Y1931D01*
X702Y1931D01*
X702Y1929D01*
X704Y1929D01*
X704Y1925D01*
X706Y1925D01*
X706Y1923D01*
X708Y1923D01*
X708Y1919D01*
X710Y1919D01*
X710Y1915D01*
X712Y1915D01*
X712Y1911D01*
X714Y1911D01*
X714Y1907D01*
X716Y1907D01*
X716Y1903D01*
X718Y1903D01*
X718Y1899D01*
X720Y1899D01*
X720Y1893D01*
X722Y1893D01*
X722Y1885D01*
X724Y1885D01*
X724Y1877D01*
X726Y1877D01*
X726Y1857D01*
X728Y1857D01*
X728Y1851D01*
X726Y1851D01*
X726Y1831D01*
X724Y1831D01*
X724Y1823D01*
X722Y1823D01*
X722Y1815D01*
X720Y1815D01*
X720Y1809D01*
X718Y1809D01*
X718Y1805D01*
X716Y1805D01*
X716Y1801D01*
X714Y1801D01*
X714Y1797D01*
X712Y1797D01*
X712Y1793D01*
X710Y1793D01*
X710Y1789D01*
X708Y1789D01*
X708Y1785D01*
X706Y1785D01*
X706Y1783D01*
X704Y1783D01*
X704Y1779D01*
X702Y1779D01*
X702Y1777D01*
X700Y1777D01*
X700Y1775D01*
X698Y1775D01*
X698Y1771D01*
X696Y1771D01*
X696Y1769D01*
X694Y1769D01*
X694Y1767D01*
X692Y1767D01*
X692Y1765D01*
X690Y1765D01*
X690Y1763D01*
X688Y1763D01*
X688Y1761D01*
X686Y1761D01*
X686Y1759D01*
X684Y1759D01*
X684Y1757D01*
X682Y1757D01*
X682Y1755D01*
X678Y1755D01*
X678Y1753D01*
X676Y1753D01*
X676Y1751D01*
X674Y1751D01*
X674Y1749D01*
X670Y1749D01*
X670Y1747D01*
X668Y1747D01*
X668Y1745D01*
X664Y1745D01*
X664Y1743D01*
X660Y1743D01*
X660Y1741D01*
X656Y1741D01*
X656Y1739D01*
X652Y1739D01*
X652Y1737D01*
X648Y1737D01*
X648Y1735D01*
X644Y1735D01*
X644Y1733D01*
X638Y1733D01*
X638Y1731D01*
X630Y1731D01*
X630Y1729D01*
X622Y1729D01*
X622Y1727D01*
X602Y1727D01*
X602Y1725D01*
X758Y1725D01*
X758Y2233D01*
X40Y2233D01*
G37*
D02*
G36*
X40Y1983D02*
X40Y1725D01*
X196Y1725D01*
X196Y1727D01*
X176Y1727D01*
X176Y1729D01*
X168Y1729D01*
X168Y1731D01*
X160Y1731D01*
X160Y1733D01*
X156Y1733D01*
X156Y1735D01*
X150Y1735D01*
X150Y1737D01*
X146Y1737D01*
X146Y1739D01*
X142Y1739D01*
X142Y1741D01*
X138Y1741D01*
X138Y1743D01*
X134Y1743D01*
X134Y1745D01*
X130Y1745D01*
X130Y1747D01*
X128Y1747D01*
X128Y1749D01*
X124Y1749D01*
X124Y1751D01*
X122Y1751D01*
X122Y1753D01*
X120Y1753D01*
X120Y1755D01*
X116Y1755D01*
X116Y1757D01*
X114Y1757D01*
X114Y1759D01*
X112Y1759D01*
X112Y1761D01*
X110Y1761D01*
X110Y1763D01*
X108Y1763D01*
X108Y1765D01*
X106Y1765D01*
X106Y1767D01*
X104Y1767D01*
X104Y1769D01*
X102Y1769D01*
X102Y1771D01*
X100Y1771D01*
X100Y1775D01*
X98Y1775D01*
X98Y1777D01*
X96Y1777D01*
X96Y1779D01*
X94Y1779D01*
X94Y1783D01*
X92Y1783D01*
X92Y1785D01*
X90Y1785D01*
X90Y1789D01*
X88Y1789D01*
X88Y1793D01*
X86Y1793D01*
X86Y1797D01*
X84Y1797D01*
X84Y1801D01*
X82Y1801D01*
X82Y1805D01*
X80Y1805D01*
X80Y1811D01*
X78Y1811D01*
X78Y1815D01*
X76Y1815D01*
X76Y1823D01*
X74Y1823D01*
X74Y1833D01*
X72Y1833D01*
X72Y1853D01*
X70Y1853D01*
X70Y1855D01*
X72Y1855D01*
X72Y1875D01*
X74Y1875D01*
X74Y1885D01*
X76Y1885D01*
X76Y1893D01*
X78Y1893D01*
X78Y1897D01*
X80Y1897D01*
X80Y1903D01*
X82Y1903D01*
X82Y1907D01*
X84Y1907D01*
X84Y1911D01*
X86Y1911D01*
X86Y1915D01*
X88Y1915D01*
X88Y1919D01*
X90Y1919D01*
X90Y1923D01*
X92Y1923D01*
X92Y1925D01*
X94Y1925D01*
X94Y1929D01*
X96Y1929D01*
X96Y1931D01*
X98Y1931D01*
X98Y1933D01*
X100Y1933D01*
X100Y1937D01*
X102Y1937D01*
X102Y1939D01*
X104Y1939D01*
X104Y1941D01*
X106Y1941D01*
X106Y1943D01*
X108Y1943D01*
X108Y1945D01*
X110Y1945D01*
X110Y1947D01*
X112Y1947D01*
X112Y1949D01*
X114Y1949D01*
X114Y1951D01*
X116Y1951D01*
X116Y1953D01*
X120Y1953D01*
X120Y1955D01*
X122Y1955D01*
X122Y1957D01*
X124Y1957D01*
X124Y1959D01*
X128Y1959D01*
X128Y1961D01*
X130Y1961D01*
X130Y1963D01*
X134Y1963D01*
X134Y1965D01*
X138Y1965D01*
X138Y1967D01*
X142Y1967D01*
X142Y1969D01*
X146Y1969D01*
X146Y1971D01*
X150Y1971D01*
X150Y1973D01*
X156Y1973D01*
X156Y1975D01*
X160Y1975D01*
X160Y1977D01*
X168Y1977D01*
X168Y1979D01*
X178Y1979D01*
X178Y1981D01*
X198Y1981D01*
X198Y1983D01*
X40Y1983D01*
G37*
D02*
G36*
X202Y1983D02*
X202Y1981D01*
X222Y1981D01*
X222Y1979D01*
X230Y1979D01*
X230Y1977D01*
X238Y1977D01*
X238Y1975D01*
X244Y1975D01*
X244Y1973D01*
X248Y1973D01*
X248Y1971D01*
X252Y1971D01*
X252Y1969D01*
X256Y1969D01*
X256Y1967D01*
X260Y1967D01*
X260Y1965D01*
X264Y1965D01*
X264Y1963D01*
X268Y1963D01*
X268Y1961D01*
X270Y1961D01*
X270Y1959D01*
X274Y1959D01*
X274Y1957D01*
X276Y1957D01*
X276Y1955D01*
X278Y1955D01*
X278Y1953D01*
X282Y1953D01*
X282Y1951D01*
X284Y1951D01*
X284Y1949D01*
X286Y1949D01*
X286Y1947D01*
X288Y1947D01*
X288Y1945D01*
X290Y1945D01*
X290Y1943D01*
X292Y1943D01*
X292Y1941D01*
X294Y1941D01*
X294Y1939D01*
X296Y1939D01*
X296Y1937D01*
X298Y1937D01*
X298Y1933D01*
X300Y1933D01*
X300Y1931D01*
X302Y1931D01*
X302Y1929D01*
X304Y1929D01*
X304Y1925D01*
X306Y1925D01*
X306Y1923D01*
X308Y1923D01*
X308Y1919D01*
X310Y1919D01*
X310Y1915D01*
X312Y1915D01*
X312Y1911D01*
X314Y1911D01*
X314Y1907D01*
X316Y1907D01*
X316Y1903D01*
X318Y1903D01*
X318Y1899D01*
X320Y1899D01*
X320Y1893D01*
X322Y1893D01*
X322Y1885D01*
X324Y1885D01*
X324Y1877D01*
X326Y1877D01*
X326Y1857D01*
X328Y1857D01*
X328Y1851D01*
X326Y1851D01*
X326Y1831D01*
X324Y1831D01*
X324Y1823D01*
X322Y1823D01*
X322Y1815D01*
X320Y1815D01*
X320Y1809D01*
X318Y1809D01*
X318Y1805D01*
X316Y1805D01*
X316Y1801D01*
X314Y1801D01*
X314Y1797D01*
X312Y1797D01*
X312Y1793D01*
X310Y1793D01*
X310Y1789D01*
X308Y1789D01*
X308Y1785D01*
X306Y1785D01*
X306Y1783D01*
X304Y1783D01*
X304Y1779D01*
X302Y1779D01*
X302Y1777D01*
X300Y1777D01*
X300Y1775D01*
X298Y1775D01*
X298Y1771D01*
X296Y1771D01*
X296Y1769D01*
X294Y1769D01*
X294Y1767D01*
X292Y1767D01*
X292Y1765D01*
X290Y1765D01*
X290Y1763D01*
X288Y1763D01*
X288Y1761D01*
X286Y1761D01*
X286Y1759D01*
X284Y1759D01*
X284Y1757D01*
X282Y1757D01*
X282Y1755D01*
X278Y1755D01*
X278Y1753D01*
X276Y1753D01*
X276Y1751D01*
X274Y1751D01*
X274Y1749D01*
X270Y1749D01*
X270Y1747D01*
X268Y1747D01*
X268Y1745D01*
X264Y1745D01*
X264Y1743D01*
X260Y1743D01*
X260Y1741D01*
X256Y1741D01*
X256Y1739D01*
X252Y1739D01*
X252Y1737D01*
X248Y1737D01*
X248Y1735D01*
X244Y1735D01*
X244Y1733D01*
X238Y1733D01*
X238Y1731D01*
X230Y1731D01*
X230Y1729D01*
X222Y1729D01*
X222Y1727D01*
X202Y1727D01*
X202Y1725D01*
X596Y1725D01*
X596Y1727D01*
X576Y1727D01*
X576Y1729D01*
X568Y1729D01*
X568Y1731D01*
X560Y1731D01*
X560Y1733D01*
X556Y1733D01*
X556Y1735D01*
X550Y1735D01*
X550Y1737D01*
X546Y1737D01*
X546Y1739D01*
X542Y1739D01*
X542Y1741D01*
X538Y1741D01*
X538Y1743D01*
X534Y1743D01*
X534Y1745D01*
X530Y1745D01*
X530Y1747D01*
X528Y1747D01*
X528Y1749D01*
X524Y1749D01*
X524Y1751D01*
X522Y1751D01*
X522Y1753D01*
X520Y1753D01*
X520Y1755D01*
X516Y1755D01*
X516Y1757D01*
X514Y1757D01*
X514Y1759D01*
X512Y1759D01*
X512Y1761D01*
X510Y1761D01*
X510Y1763D01*
X508Y1763D01*
X508Y1765D01*
X506Y1765D01*
X506Y1767D01*
X504Y1767D01*
X504Y1769D01*
X502Y1769D01*
X502Y1771D01*
X500Y1771D01*
X500Y1775D01*
X498Y1775D01*
X498Y1777D01*
X496Y1777D01*
X496Y1779D01*
X494Y1779D01*
X494Y1783D01*
X492Y1783D01*
X492Y1785D01*
X490Y1785D01*
X490Y1789D01*
X488Y1789D01*
X488Y1793D01*
X486Y1793D01*
X486Y1797D01*
X484Y1797D01*
X484Y1801D01*
X482Y1801D01*
X482Y1805D01*
X480Y1805D01*
X480Y1811D01*
X478Y1811D01*
X478Y1815D01*
X476Y1815D01*
X476Y1823D01*
X474Y1823D01*
X474Y1833D01*
X472Y1833D01*
X472Y1853D01*
X470Y1853D01*
X470Y1855D01*
X472Y1855D01*
X472Y1875D01*
X474Y1875D01*
X474Y1885D01*
X476Y1885D01*
X476Y1893D01*
X478Y1893D01*
X478Y1897D01*
X480Y1897D01*
X480Y1903D01*
X482Y1903D01*
X482Y1907D01*
X484Y1907D01*
X484Y1911D01*
X486Y1911D01*
X486Y1915D01*
X488Y1915D01*
X488Y1919D01*
X490Y1919D01*
X490Y1923D01*
X492Y1923D01*
X492Y1925D01*
X494Y1925D01*
X494Y1929D01*
X496Y1929D01*
X496Y1931D01*
X498Y1931D01*
X498Y1933D01*
X500Y1933D01*
X500Y1937D01*
X502Y1937D01*
X502Y1939D01*
X504Y1939D01*
X504Y1941D01*
X506Y1941D01*
X506Y1943D01*
X508Y1943D01*
X508Y1945D01*
X510Y1945D01*
X510Y1947D01*
X512Y1947D01*
X512Y1949D01*
X514Y1949D01*
X514Y1951D01*
X516Y1951D01*
X516Y1953D01*
X520Y1953D01*
X520Y1955D01*
X522Y1955D01*
X522Y1957D01*
X524Y1957D01*
X524Y1959D01*
X528Y1959D01*
X528Y1961D01*
X530Y1961D01*
X530Y1963D01*
X534Y1963D01*
X534Y1965D01*
X538Y1965D01*
X538Y1967D01*
X542Y1967D01*
X542Y1969D01*
X546Y1969D01*
X546Y1971D01*
X550Y1971D01*
X550Y1973D01*
X556Y1973D01*
X556Y1975D01*
X560Y1975D01*
X560Y1977D01*
X568Y1977D01*
X568Y1979D01*
X578Y1979D01*
X578Y1981D01*
X598Y1981D01*
X598Y1983D01*
X202Y1983D01*
G37*
D02*
G36*
X40Y1725D02*
X40Y1723D01*
X758Y1723D01*
X758Y1725D01*
X40Y1725D01*
G37*
D02*
G36*
X40Y1725D02*
X40Y1723D01*
X758Y1723D01*
X758Y1725D01*
X40Y1725D01*
G37*
D02*
G36*
X40Y1725D02*
X40Y1723D01*
X758Y1723D01*
X758Y1725D01*
X40Y1725D01*
G37*
D02*
G36*
X40Y1723D02*
X40Y1453D01*
X602Y1453D01*
X602Y1451D01*
X622Y1451D01*
X622Y1449D01*
X630Y1449D01*
X630Y1447D01*
X638Y1447D01*
X638Y1445D01*
X644Y1445D01*
X644Y1443D01*
X648Y1443D01*
X648Y1441D01*
X652Y1441D01*
X652Y1439D01*
X656Y1439D01*
X656Y1437D01*
X660Y1437D01*
X660Y1435D01*
X664Y1435D01*
X664Y1433D01*
X668Y1433D01*
X668Y1431D01*
X670Y1431D01*
X670Y1429D01*
X674Y1429D01*
X674Y1427D01*
X676Y1427D01*
X676Y1425D01*
X678Y1425D01*
X678Y1423D01*
X682Y1423D01*
X682Y1421D01*
X684Y1421D01*
X684Y1419D01*
X686Y1419D01*
X686Y1417D01*
X688Y1417D01*
X688Y1415D01*
X690Y1415D01*
X690Y1413D01*
X692Y1413D01*
X692Y1411D01*
X694Y1411D01*
X694Y1409D01*
X696Y1409D01*
X696Y1407D01*
X698Y1407D01*
X698Y1403D01*
X700Y1403D01*
X700Y1401D01*
X702Y1401D01*
X702Y1399D01*
X704Y1399D01*
X704Y1395D01*
X706Y1395D01*
X706Y1393D01*
X708Y1393D01*
X708Y1389D01*
X710Y1389D01*
X710Y1385D01*
X712Y1385D01*
X712Y1381D01*
X714Y1381D01*
X714Y1377D01*
X716Y1377D01*
X716Y1373D01*
X718Y1373D01*
X718Y1369D01*
X720Y1369D01*
X720Y1363D01*
X722Y1363D01*
X722Y1355D01*
X724Y1355D01*
X724Y1347D01*
X726Y1347D01*
X726Y1327D01*
X728Y1327D01*
X728Y1321D01*
X726Y1321D01*
X726Y1301D01*
X724Y1301D01*
X724Y1293D01*
X722Y1293D01*
X722Y1285D01*
X720Y1285D01*
X720Y1279D01*
X718Y1279D01*
X718Y1275D01*
X716Y1275D01*
X716Y1271D01*
X714Y1271D01*
X714Y1267D01*
X712Y1267D01*
X712Y1263D01*
X710Y1263D01*
X710Y1259D01*
X708Y1259D01*
X708Y1255D01*
X706Y1255D01*
X706Y1253D01*
X704Y1253D01*
X704Y1249D01*
X702Y1249D01*
X702Y1247D01*
X700Y1247D01*
X700Y1245D01*
X698Y1245D01*
X698Y1241D01*
X696Y1241D01*
X696Y1239D01*
X694Y1239D01*
X694Y1237D01*
X692Y1237D01*
X692Y1235D01*
X690Y1235D01*
X690Y1233D01*
X688Y1233D01*
X688Y1231D01*
X686Y1231D01*
X686Y1229D01*
X684Y1229D01*
X684Y1227D01*
X682Y1227D01*
X682Y1225D01*
X678Y1225D01*
X678Y1223D01*
X676Y1223D01*
X676Y1221D01*
X674Y1221D01*
X674Y1219D01*
X670Y1219D01*
X670Y1217D01*
X668Y1217D01*
X668Y1215D01*
X664Y1215D01*
X664Y1213D01*
X660Y1213D01*
X660Y1211D01*
X656Y1211D01*
X656Y1209D01*
X652Y1209D01*
X652Y1207D01*
X648Y1207D01*
X648Y1205D01*
X644Y1205D01*
X644Y1203D01*
X638Y1203D01*
X638Y1201D01*
X630Y1201D01*
X630Y1199D01*
X622Y1199D01*
X622Y1197D01*
X602Y1197D01*
X602Y1195D01*
X758Y1195D01*
X758Y1723D01*
X40Y1723D01*
G37*
D02*
G36*
X40Y1453D02*
X40Y1195D01*
X196Y1195D01*
X196Y1197D01*
X176Y1197D01*
X176Y1199D01*
X168Y1199D01*
X168Y1201D01*
X160Y1201D01*
X160Y1203D01*
X156Y1203D01*
X156Y1205D01*
X150Y1205D01*
X150Y1207D01*
X146Y1207D01*
X146Y1209D01*
X142Y1209D01*
X142Y1211D01*
X138Y1211D01*
X138Y1213D01*
X134Y1213D01*
X134Y1215D01*
X130Y1215D01*
X130Y1217D01*
X128Y1217D01*
X128Y1219D01*
X124Y1219D01*
X124Y1221D01*
X122Y1221D01*
X122Y1223D01*
X120Y1223D01*
X120Y1225D01*
X116Y1225D01*
X116Y1227D01*
X114Y1227D01*
X114Y1229D01*
X112Y1229D01*
X112Y1231D01*
X110Y1231D01*
X110Y1233D01*
X108Y1233D01*
X108Y1235D01*
X106Y1235D01*
X106Y1237D01*
X104Y1237D01*
X104Y1239D01*
X102Y1239D01*
X102Y1241D01*
X100Y1241D01*
X100Y1245D01*
X98Y1245D01*
X98Y1247D01*
X96Y1247D01*
X96Y1249D01*
X94Y1249D01*
X94Y1253D01*
X92Y1253D01*
X92Y1255D01*
X90Y1255D01*
X90Y1259D01*
X88Y1259D01*
X88Y1263D01*
X86Y1263D01*
X86Y1267D01*
X84Y1267D01*
X84Y1271D01*
X82Y1271D01*
X82Y1275D01*
X80Y1275D01*
X80Y1281D01*
X78Y1281D01*
X78Y1285D01*
X76Y1285D01*
X76Y1293D01*
X74Y1293D01*
X74Y1303D01*
X72Y1303D01*
X72Y1323D01*
X70Y1323D01*
X70Y1325D01*
X72Y1325D01*
X72Y1345D01*
X74Y1345D01*
X74Y1355D01*
X76Y1355D01*
X76Y1363D01*
X78Y1363D01*
X78Y1367D01*
X80Y1367D01*
X80Y1373D01*
X82Y1373D01*
X82Y1377D01*
X84Y1377D01*
X84Y1381D01*
X86Y1381D01*
X86Y1385D01*
X88Y1385D01*
X88Y1389D01*
X90Y1389D01*
X90Y1393D01*
X92Y1393D01*
X92Y1395D01*
X94Y1395D01*
X94Y1399D01*
X96Y1399D01*
X96Y1401D01*
X98Y1401D01*
X98Y1403D01*
X100Y1403D01*
X100Y1407D01*
X102Y1407D01*
X102Y1409D01*
X104Y1409D01*
X104Y1411D01*
X106Y1411D01*
X106Y1413D01*
X108Y1413D01*
X108Y1415D01*
X110Y1415D01*
X110Y1417D01*
X112Y1417D01*
X112Y1419D01*
X114Y1419D01*
X114Y1421D01*
X116Y1421D01*
X116Y1423D01*
X120Y1423D01*
X120Y1425D01*
X122Y1425D01*
X122Y1427D01*
X124Y1427D01*
X124Y1429D01*
X128Y1429D01*
X128Y1431D01*
X130Y1431D01*
X130Y1433D01*
X134Y1433D01*
X134Y1435D01*
X138Y1435D01*
X138Y1437D01*
X142Y1437D01*
X142Y1439D01*
X146Y1439D01*
X146Y1441D01*
X150Y1441D01*
X150Y1443D01*
X156Y1443D01*
X156Y1445D01*
X160Y1445D01*
X160Y1447D01*
X168Y1447D01*
X168Y1449D01*
X178Y1449D01*
X178Y1451D01*
X198Y1451D01*
X198Y1453D01*
X40Y1453D01*
G37*
D02*
G36*
X202Y1453D02*
X202Y1451D01*
X222Y1451D01*
X222Y1449D01*
X230Y1449D01*
X230Y1447D01*
X238Y1447D01*
X238Y1445D01*
X244Y1445D01*
X244Y1443D01*
X248Y1443D01*
X248Y1441D01*
X252Y1441D01*
X252Y1439D01*
X256Y1439D01*
X256Y1437D01*
X260Y1437D01*
X260Y1435D01*
X264Y1435D01*
X264Y1433D01*
X268Y1433D01*
X268Y1431D01*
X270Y1431D01*
X270Y1429D01*
X274Y1429D01*
X274Y1427D01*
X276Y1427D01*
X276Y1425D01*
X278Y1425D01*
X278Y1423D01*
X282Y1423D01*
X282Y1421D01*
X284Y1421D01*
X284Y1419D01*
X286Y1419D01*
X286Y1417D01*
X288Y1417D01*
X288Y1415D01*
X290Y1415D01*
X290Y1413D01*
X292Y1413D01*
X292Y1411D01*
X294Y1411D01*
X294Y1409D01*
X296Y1409D01*
X296Y1407D01*
X298Y1407D01*
X298Y1403D01*
X300Y1403D01*
X300Y1401D01*
X302Y1401D01*
X302Y1399D01*
X304Y1399D01*
X304Y1395D01*
X306Y1395D01*
X306Y1393D01*
X308Y1393D01*
X308Y1389D01*
X310Y1389D01*
X310Y1385D01*
X312Y1385D01*
X312Y1381D01*
X314Y1381D01*
X314Y1377D01*
X316Y1377D01*
X316Y1373D01*
X318Y1373D01*
X318Y1369D01*
X320Y1369D01*
X320Y1363D01*
X322Y1363D01*
X322Y1355D01*
X324Y1355D01*
X324Y1347D01*
X326Y1347D01*
X326Y1327D01*
X328Y1327D01*
X328Y1321D01*
X326Y1321D01*
X326Y1301D01*
X324Y1301D01*
X324Y1293D01*
X322Y1293D01*
X322Y1285D01*
X320Y1285D01*
X320Y1279D01*
X318Y1279D01*
X318Y1275D01*
X316Y1275D01*
X316Y1271D01*
X314Y1271D01*
X314Y1267D01*
X312Y1267D01*
X312Y1263D01*
X310Y1263D01*
X310Y1259D01*
X308Y1259D01*
X308Y1255D01*
X306Y1255D01*
X306Y1253D01*
X304Y1253D01*
X304Y1249D01*
X302Y1249D01*
X302Y1247D01*
X300Y1247D01*
X300Y1245D01*
X298Y1245D01*
X298Y1241D01*
X296Y1241D01*
X296Y1239D01*
X294Y1239D01*
X294Y1237D01*
X292Y1237D01*
X292Y1235D01*
X290Y1235D01*
X290Y1233D01*
X288Y1233D01*
X288Y1231D01*
X286Y1231D01*
X286Y1229D01*
X284Y1229D01*
X284Y1227D01*
X282Y1227D01*
X282Y1225D01*
X278Y1225D01*
X278Y1223D01*
X276Y1223D01*
X276Y1221D01*
X274Y1221D01*
X274Y1219D01*
X270Y1219D01*
X270Y1217D01*
X268Y1217D01*
X268Y1215D01*
X264Y1215D01*
X264Y1213D01*
X260Y1213D01*
X260Y1211D01*
X256Y1211D01*
X256Y1209D01*
X252Y1209D01*
X252Y1207D01*
X248Y1207D01*
X248Y1205D01*
X244Y1205D01*
X244Y1203D01*
X238Y1203D01*
X238Y1201D01*
X230Y1201D01*
X230Y1199D01*
X222Y1199D01*
X222Y1197D01*
X202Y1197D01*
X202Y1195D01*
X596Y1195D01*
X596Y1197D01*
X576Y1197D01*
X576Y1199D01*
X568Y1199D01*
X568Y1201D01*
X560Y1201D01*
X560Y1203D01*
X556Y1203D01*
X556Y1205D01*
X550Y1205D01*
X550Y1207D01*
X546Y1207D01*
X546Y1209D01*
X542Y1209D01*
X542Y1211D01*
X538Y1211D01*
X538Y1213D01*
X534Y1213D01*
X534Y1215D01*
X530Y1215D01*
X530Y1217D01*
X528Y1217D01*
X528Y1219D01*
X524Y1219D01*
X524Y1221D01*
X522Y1221D01*
X522Y1223D01*
X520Y1223D01*
X520Y1225D01*
X516Y1225D01*
X516Y1227D01*
X514Y1227D01*
X514Y1229D01*
X512Y1229D01*
X512Y1231D01*
X510Y1231D01*
X510Y1233D01*
X508Y1233D01*
X508Y1235D01*
X506Y1235D01*
X506Y1237D01*
X504Y1237D01*
X504Y1239D01*
X502Y1239D01*
X502Y1241D01*
X500Y1241D01*
X500Y1245D01*
X498Y1245D01*
X498Y1247D01*
X496Y1247D01*
X496Y1249D01*
X494Y1249D01*
X494Y1253D01*
X492Y1253D01*
X492Y1255D01*
X490Y1255D01*
X490Y1259D01*
X488Y1259D01*
X488Y1263D01*
X486Y1263D01*
X486Y1267D01*
X484Y1267D01*
X484Y1271D01*
X482Y1271D01*
X482Y1275D01*
X480Y1275D01*
X480Y1281D01*
X478Y1281D01*
X478Y1285D01*
X476Y1285D01*
X476Y1293D01*
X474Y1293D01*
X474Y1303D01*
X472Y1303D01*
X472Y1323D01*
X470Y1323D01*
X470Y1325D01*
X472Y1325D01*
X472Y1345D01*
X474Y1345D01*
X474Y1355D01*
X476Y1355D01*
X476Y1363D01*
X478Y1363D01*
X478Y1367D01*
X480Y1367D01*
X480Y1373D01*
X482Y1373D01*
X482Y1377D01*
X484Y1377D01*
X484Y1381D01*
X486Y1381D01*
X486Y1385D01*
X488Y1385D01*
X488Y1389D01*
X490Y1389D01*
X490Y1393D01*
X492Y1393D01*
X492Y1395D01*
X494Y1395D01*
X494Y1399D01*
X496Y1399D01*
X496Y1401D01*
X498Y1401D01*
X498Y1403D01*
X500Y1403D01*
X500Y1407D01*
X502Y1407D01*
X502Y1409D01*
X504Y1409D01*
X504Y1411D01*
X506Y1411D01*
X506Y1413D01*
X508Y1413D01*
X508Y1415D01*
X510Y1415D01*
X510Y1417D01*
X512Y1417D01*
X512Y1419D01*
X514Y1419D01*
X514Y1421D01*
X516Y1421D01*
X516Y1423D01*
X520Y1423D01*
X520Y1425D01*
X522Y1425D01*
X522Y1427D01*
X524Y1427D01*
X524Y1429D01*
X528Y1429D01*
X528Y1431D01*
X530Y1431D01*
X530Y1433D01*
X534Y1433D01*
X534Y1435D01*
X538Y1435D01*
X538Y1437D01*
X542Y1437D01*
X542Y1439D01*
X546Y1439D01*
X546Y1441D01*
X550Y1441D01*
X550Y1443D01*
X556Y1443D01*
X556Y1445D01*
X560Y1445D01*
X560Y1447D01*
X568Y1447D01*
X568Y1449D01*
X578Y1449D01*
X578Y1451D01*
X598Y1451D01*
X598Y1453D01*
X202Y1453D01*
G37*
D02*
G36*
X40Y1195D02*
X40Y1193D01*
X758Y1193D01*
X758Y1195D01*
X40Y1195D01*
G37*
D02*
G36*
X40Y1195D02*
X40Y1193D01*
X758Y1193D01*
X758Y1195D01*
X40Y1195D01*
G37*
D02*
G36*
X40Y1195D02*
X40Y1193D01*
X758Y1193D01*
X758Y1195D01*
X40Y1195D01*
G37*
D02*
G36*
X40Y1193D02*
X40Y943D01*
X602Y943D01*
X602Y941D01*
X622Y941D01*
X622Y939D01*
X630Y939D01*
X630Y937D01*
X638Y937D01*
X638Y935D01*
X644Y935D01*
X644Y933D01*
X648Y933D01*
X648Y931D01*
X652Y931D01*
X652Y929D01*
X656Y929D01*
X656Y927D01*
X660Y927D01*
X660Y925D01*
X664Y925D01*
X664Y923D01*
X668Y923D01*
X668Y921D01*
X670Y921D01*
X670Y919D01*
X674Y919D01*
X674Y917D01*
X676Y917D01*
X676Y915D01*
X678Y915D01*
X678Y913D01*
X682Y913D01*
X682Y911D01*
X684Y911D01*
X684Y909D01*
X686Y909D01*
X686Y907D01*
X688Y907D01*
X688Y905D01*
X690Y905D01*
X690Y903D01*
X692Y903D01*
X692Y901D01*
X694Y901D01*
X694Y899D01*
X696Y899D01*
X696Y897D01*
X698Y897D01*
X698Y893D01*
X700Y893D01*
X700Y891D01*
X702Y891D01*
X702Y889D01*
X704Y889D01*
X704Y885D01*
X706Y885D01*
X706Y883D01*
X708Y883D01*
X708Y879D01*
X710Y879D01*
X710Y875D01*
X712Y875D01*
X712Y871D01*
X714Y871D01*
X714Y867D01*
X716Y867D01*
X716Y863D01*
X718Y863D01*
X718Y859D01*
X720Y859D01*
X720Y853D01*
X722Y853D01*
X722Y845D01*
X724Y845D01*
X724Y837D01*
X726Y837D01*
X726Y817D01*
X728Y817D01*
X728Y811D01*
X726Y811D01*
X726Y791D01*
X724Y791D01*
X724Y783D01*
X722Y783D01*
X722Y775D01*
X720Y775D01*
X720Y769D01*
X718Y769D01*
X718Y765D01*
X716Y765D01*
X716Y761D01*
X714Y761D01*
X714Y757D01*
X712Y757D01*
X712Y753D01*
X710Y753D01*
X710Y749D01*
X708Y749D01*
X708Y745D01*
X706Y745D01*
X706Y743D01*
X704Y743D01*
X704Y739D01*
X702Y739D01*
X702Y737D01*
X700Y737D01*
X700Y735D01*
X698Y735D01*
X698Y731D01*
X696Y731D01*
X696Y729D01*
X694Y729D01*
X694Y727D01*
X692Y727D01*
X692Y725D01*
X690Y725D01*
X690Y723D01*
X688Y723D01*
X688Y721D01*
X686Y721D01*
X686Y719D01*
X684Y719D01*
X684Y717D01*
X682Y717D01*
X682Y715D01*
X678Y715D01*
X678Y713D01*
X676Y713D01*
X676Y711D01*
X674Y711D01*
X674Y709D01*
X670Y709D01*
X670Y707D01*
X668Y707D01*
X668Y705D01*
X664Y705D01*
X664Y703D01*
X660Y703D01*
X660Y701D01*
X656Y701D01*
X656Y699D01*
X652Y699D01*
X652Y697D01*
X648Y697D01*
X648Y695D01*
X644Y695D01*
X644Y693D01*
X638Y693D01*
X638Y691D01*
X630Y691D01*
X630Y689D01*
X622Y689D01*
X622Y687D01*
X602Y687D01*
X602Y685D01*
X758Y685D01*
X758Y1193D01*
X40Y1193D01*
G37*
D02*
G36*
X40Y943D02*
X40Y685D01*
X196Y685D01*
X196Y687D01*
X176Y687D01*
X176Y689D01*
X168Y689D01*
X168Y691D01*
X160Y691D01*
X160Y693D01*
X156Y693D01*
X156Y695D01*
X150Y695D01*
X150Y697D01*
X146Y697D01*
X146Y699D01*
X142Y699D01*
X142Y701D01*
X138Y701D01*
X138Y703D01*
X134Y703D01*
X134Y705D01*
X130Y705D01*
X130Y707D01*
X128Y707D01*
X128Y709D01*
X124Y709D01*
X124Y711D01*
X122Y711D01*
X122Y713D01*
X120Y713D01*
X120Y715D01*
X116Y715D01*
X116Y717D01*
X114Y717D01*
X114Y719D01*
X112Y719D01*
X112Y721D01*
X110Y721D01*
X110Y723D01*
X108Y723D01*
X108Y725D01*
X106Y725D01*
X106Y727D01*
X104Y727D01*
X104Y729D01*
X102Y729D01*
X102Y731D01*
X100Y731D01*
X100Y735D01*
X98Y735D01*
X98Y737D01*
X96Y737D01*
X96Y739D01*
X94Y739D01*
X94Y743D01*
X92Y743D01*
X92Y745D01*
X90Y745D01*
X90Y749D01*
X88Y749D01*
X88Y753D01*
X86Y753D01*
X86Y757D01*
X84Y757D01*
X84Y761D01*
X82Y761D01*
X82Y765D01*
X80Y765D01*
X80Y771D01*
X78Y771D01*
X78Y775D01*
X76Y775D01*
X76Y783D01*
X74Y783D01*
X74Y793D01*
X72Y793D01*
X72Y813D01*
X70Y813D01*
X70Y815D01*
X72Y815D01*
X72Y835D01*
X74Y835D01*
X74Y845D01*
X76Y845D01*
X76Y853D01*
X78Y853D01*
X78Y857D01*
X80Y857D01*
X80Y863D01*
X82Y863D01*
X82Y867D01*
X84Y867D01*
X84Y871D01*
X86Y871D01*
X86Y875D01*
X88Y875D01*
X88Y879D01*
X90Y879D01*
X90Y883D01*
X92Y883D01*
X92Y885D01*
X94Y885D01*
X94Y889D01*
X96Y889D01*
X96Y891D01*
X98Y891D01*
X98Y893D01*
X100Y893D01*
X100Y897D01*
X102Y897D01*
X102Y899D01*
X104Y899D01*
X104Y901D01*
X106Y901D01*
X106Y903D01*
X108Y903D01*
X108Y905D01*
X110Y905D01*
X110Y907D01*
X112Y907D01*
X112Y909D01*
X114Y909D01*
X114Y911D01*
X116Y911D01*
X116Y913D01*
X120Y913D01*
X120Y915D01*
X122Y915D01*
X122Y917D01*
X124Y917D01*
X124Y919D01*
X128Y919D01*
X128Y921D01*
X130Y921D01*
X130Y923D01*
X134Y923D01*
X134Y925D01*
X138Y925D01*
X138Y927D01*
X142Y927D01*
X142Y929D01*
X146Y929D01*
X146Y931D01*
X150Y931D01*
X150Y933D01*
X156Y933D01*
X156Y935D01*
X160Y935D01*
X160Y937D01*
X168Y937D01*
X168Y939D01*
X178Y939D01*
X178Y941D01*
X198Y941D01*
X198Y943D01*
X40Y943D01*
G37*
D02*
G36*
X202Y943D02*
X202Y941D01*
X222Y941D01*
X222Y939D01*
X230Y939D01*
X230Y937D01*
X238Y937D01*
X238Y935D01*
X244Y935D01*
X244Y933D01*
X248Y933D01*
X248Y931D01*
X252Y931D01*
X252Y929D01*
X256Y929D01*
X256Y927D01*
X260Y927D01*
X260Y925D01*
X264Y925D01*
X264Y923D01*
X268Y923D01*
X268Y921D01*
X270Y921D01*
X270Y919D01*
X274Y919D01*
X274Y917D01*
X276Y917D01*
X276Y915D01*
X278Y915D01*
X278Y913D01*
X282Y913D01*
X282Y911D01*
X284Y911D01*
X284Y909D01*
X286Y909D01*
X286Y907D01*
X288Y907D01*
X288Y905D01*
X290Y905D01*
X290Y903D01*
X292Y903D01*
X292Y901D01*
X294Y901D01*
X294Y899D01*
X296Y899D01*
X296Y897D01*
X298Y897D01*
X298Y893D01*
X300Y893D01*
X300Y891D01*
X302Y891D01*
X302Y889D01*
X304Y889D01*
X304Y885D01*
X306Y885D01*
X306Y883D01*
X308Y883D01*
X308Y879D01*
X310Y879D01*
X310Y875D01*
X312Y875D01*
X312Y871D01*
X314Y871D01*
X314Y867D01*
X316Y867D01*
X316Y863D01*
X318Y863D01*
X318Y859D01*
X320Y859D01*
X320Y853D01*
X322Y853D01*
X322Y845D01*
X324Y845D01*
X324Y837D01*
X326Y837D01*
X326Y817D01*
X328Y817D01*
X328Y811D01*
X326Y811D01*
X326Y791D01*
X324Y791D01*
X324Y783D01*
X322Y783D01*
X322Y775D01*
X320Y775D01*
X320Y769D01*
X318Y769D01*
X318Y765D01*
X316Y765D01*
X316Y761D01*
X314Y761D01*
X314Y757D01*
X312Y757D01*
X312Y753D01*
X310Y753D01*
X310Y749D01*
X308Y749D01*
X308Y745D01*
X306Y745D01*
X306Y743D01*
X304Y743D01*
X304Y739D01*
X302Y739D01*
X302Y737D01*
X300Y737D01*
X300Y735D01*
X298Y735D01*
X298Y731D01*
X296Y731D01*
X296Y729D01*
X294Y729D01*
X294Y727D01*
X292Y727D01*
X292Y725D01*
X290Y725D01*
X290Y723D01*
X288Y723D01*
X288Y721D01*
X286Y721D01*
X286Y719D01*
X284Y719D01*
X284Y717D01*
X282Y717D01*
X282Y715D01*
X278Y715D01*
X278Y713D01*
X276Y713D01*
X276Y711D01*
X274Y711D01*
X274Y709D01*
X270Y709D01*
X270Y707D01*
X268Y707D01*
X268Y705D01*
X264Y705D01*
X264Y703D01*
X260Y703D01*
X260Y701D01*
X256Y701D01*
X256Y699D01*
X252Y699D01*
X252Y697D01*
X248Y697D01*
X248Y695D01*
X244Y695D01*
X244Y693D01*
X238Y693D01*
X238Y691D01*
X230Y691D01*
X230Y689D01*
X222Y689D01*
X222Y687D01*
X202Y687D01*
X202Y685D01*
X596Y685D01*
X596Y687D01*
X576Y687D01*
X576Y689D01*
X568Y689D01*
X568Y691D01*
X560Y691D01*
X560Y693D01*
X556Y693D01*
X556Y695D01*
X550Y695D01*
X550Y697D01*
X546Y697D01*
X546Y699D01*
X542Y699D01*
X542Y701D01*
X538Y701D01*
X538Y703D01*
X534Y703D01*
X534Y705D01*
X530Y705D01*
X530Y707D01*
X528Y707D01*
X528Y709D01*
X524Y709D01*
X524Y711D01*
X522Y711D01*
X522Y713D01*
X520Y713D01*
X520Y715D01*
X516Y715D01*
X516Y717D01*
X514Y717D01*
X514Y719D01*
X512Y719D01*
X512Y721D01*
X510Y721D01*
X510Y723D01*
X508Y723D01*
X508Y725D01*
X506Y725D01*
X506Y727D01*
X504Y727D01*
X504Y729D01*
X502Y729D01*
X502Y731D01*
X500Y731D01*
X500Y735D01*
X498Y735D01*
X498Y737D01*
X496Y737D01*
X496Y739D01*
X494Y739D01*
X494Y743D01*
X492Y743D01*
X492Y745D01*
X490Y745D01*
X490Y749D01*
X488Y749D01*
X488Y753D01*
X486Y753D01*
X486Y757D01*
X484Y757D01*
X484Y761D01*
X482Y761D01*
X482Y765D01*
X480Y765D01*
X480Y771D01*
X478Y771D01*
X478Y775D01*
X476Y775D01*
X476Y783D01*
X474Y783D01*
X474Y793D01*
X472Y793D01*
X472Y813D01*
X470Y813D01*
X470Y815D01*
X472Y815D01*
X472Y835D01*
X474Y835D01*
X474Y845D01*
X476Y845D01*
X476Y853D01*
X478Y853D01*
X478Y857D01*
X480Y857D01*
X480Y863D01*
X482Y863D01*
X482Y867D01*
X484Y867D01*
X484Y871D01*
X486Y871D01*
X486Y875D01*
X488Y875D01*
X488Y879D01*
X490Y879D01*
X490Y883D01*
X492Y883D01*
X492Y885D01*
X494Y885D01*
X494Y889D01*
X496Y889D01*
X496Y891D01*
X498Y891D01*
X498Y893D01*
X500Y893D01*
X500Y897D01*
X502Y897D01*
X502Y899D01*
X504Y899D01*
X504Y901D01*
X506Y901D01*
X506Y903D01*
X508Y903D01*
X508Y905D01*
X510Y905D01*
X510Y907D01*
X512Y907D01*
X512Y909D01*
X514Y909D01*
X514Y911D01*
X516Y911D01*
X516Y913D01*
X520Y913D01*
X520Y915D01*
X522Y915D01*
X522Y917D01*
X524Y917D01*
X524Y919D01*
X528Y919D01*
X528Y921D01*
X530Y921D01*
X530Y923D01*
X534Y923D01*
X534Y925D01*
X538Y925D01*
X538Y927D01*
X542Y927D01*
X542Y929D01*
X546Y929D01*
X546Y931D01*
X550Y931D01*
X550Y933D01*
X556Y933D01*
X556Y935D01*
X560Y935D01*
X560Y937D01*
X568Y937D01*
X568Y939D01*
X578Y939D01*
X578Y941D01*
X598Y941D01*
X598Y943D01*
X202Y943D01*
G37*
D02*
G36*
X40Y685D02*
X40Y683D01*
X758Y683D01*
X758Y685D01*
X40Y685D01*
G37*
D02*
G36*
X40Y685D02*
X40Y683D01*
X758Y683D01*
X758Y685D01*
X40Y685D01*
G37*
D02*
G36*
X40Y685D02*
X40Y683D01*
X758Y683D01*
X758Y685D01*
X40Y685D01*
G37*
D02*
G36*
X40Y683D02*
X40Y183D01*
X292Y183D01*
X292Y181D01*
X300Y181D01*
X300Y179D01*
X306Y179D01*
X306Y177D01*
X310Y177D01*
X310Y175D01*
X314Y175D01*
X314Y173D01*
X316Y173D01*
X316Y171D01*
X320Y171D01*
X320Y169D01*
X322Y169D01*
X322Y167D01*
X324Y167D01*
X324Y165D01*
X326Y165D01*
X326Y163D01*
X328Y163D01*
X328Y161D01*
X330Y161D01*
X330Y159D01*
X332Y159D01*
X332Y157D01*
X334Y157D01*
X334Y155D01*
X336Y155D01*
X336Y151D01*
X338Y151D01*
X338Y147D01*
X340Y147D01*
X340Y143D01*
X342Y143D01*
X342Y139D01*
X344Y139D01*
X344Y133D01*
X346Y133D01*
X346Y123D01*
X348Y123D01*
X348Y107D01*
X346Y107D01*
X346Y97D01*
X344Y97D01*
X344Y91D01*
X342Y91D01*
X342Y85D01*
X340Y85D01*
X340Y81D01*
X338Y81D01*
X338Y79D01*
X336Y79D01*
X336Y75D01*
X334Y75D01*
X334Y73D01*
X332Y73D01*
X332Y69D01*
X330Y69D01*
X330Y67D01*
X328Y67D01*
X328Y65D01*
X326Y65D01*
X326Y63D01*
X324Y63D01*
X324Y61D01*
X320Y61D01*
X320Y41D01*
X758Y41D01*
X758Y683D01*
X40Y683D01*
G37*
D02*
G36*
X40Y183D02*
X40Y41D01*
X236Y41D01*
X236Y61D01*
X234Y61D01*
X234Y63D01*
X232Y63D01*
X232Y65D01*
X230Y65D01*
X230Y67D01*
X228Y67D01*
X228Y69D01*
X226Y69D01*
X226Y71D01*
X224Y71D01*
X224Y73D01*
X222Y73D01*
X222Y77D01*
X220Y77D01*
X220Y81D01*
X218Y81D01*
X218Y83D01*
X216Y83D01*
X216Y89D01*
X214Y89D01*
X214Y93D01*
X212Y93D01*
X212Y101D01*
X210Y101D01*
X210Y129D01*
X212Y129D01*
X212Y135D01*
X214Y135D01*
X214Y141D01*
X216Y141D01*
X216Y145D01*
X218Y145D01*
X218Y149D01*
X220Y149D01*
X220Y153D01*
X222Y153D01*
X222Y155D01*
X224Y155D01*
X224Y159D01*
X226Y159D01*
X226Y161D01*
X228Y161D01*
X228Y163D01*
X230Y163D01*
X230Y165D01*
X232Y165D01*
X232Y167D01*
X234Y167D01*
X234Y169D01*
X238Y169D01*
X238Y171D01*
X240Y171D01*
X240Y173D01*
X244Y173D01*
X244Y175D01*
X248Y175D01*
X248Y177D01*
X252Y177D01*
X252Y179D01*
X258Y179D01*
X258Y181D01*
X264Y181D01*
X264Y183D01*
X40Y183D01*
G37*
D02*
G04 End of Copper0*
M02*