G04 MADE WITH FRITZING*
G04 WWW.FRITZING.ORG*
G04 DOUBLE SIDED*
G04 HOLES PLATED*
G04 CONTOUR ON CENTER OF CONTOUR VECTOR*
%ASAXBY*%
%FSLAX23Y23*%
%MOIN*%
%OFA0B0*%
%SFA1.0B1.0*%
%ADD10R,0.799213X5.059060X0.783213X5.043060*%
%ADD11C,0.008000*%
%ADD12R,0.001000X0.001000*%
%LNSILK1*%
G90*
G70*
G54D11*
X4Y5055D02*
X795Y5055D01*
X795Y4D01*
X4Y4D01*
X4Y5055D01*
D02*
G54D12*
X180Y4858D02*
X202Y4858D01*
X453Y4858D02*
X470Y4858D01*
X632Y4858D02*
X634Y4858D01*
X177Y4857D02*
X204Y4857D01*
X452Y4857D02*
X472Y4857D01*
X630Y4857D02*
X636Y4857D01*
X175Y4856D02*
X205Y4856D01*
X451Y4856D02*
X473Y4856D01*
X629Y4856D02*
X637Y4856D01*
X173Y4855D02*
X205Y4855D01*
X450Y4855D02*
X473Y4855D01*
X629Y4855D02*
X637Y4855D01*
X172Y4854D02*
X206Y4854D01*
X450Y4854D02*
X474Y4854D01*
X629Y4854D02*
X637Y4854D01*
X171Y4853D02*
X206Y4853D01*
X450Y4853D02*
X474Y4853D01*
X629Y4853D02*
X638Y4853D01*
X171Y4852D02*
X205Y4852D01*
X450Y4852D02*
X474Y4852D01*
X629Y4852D02*
X638Y4852D01*
X170Y4851D02*
X205Y4851D01*
X450Y4851D02*
X474Y4851D01*
X629Y4851D02*
X638Y4851D01*
X169Y4850D02*
X204Y4850D01*
X451Y4850D02*
X474Y4850D01*
X629Y4850D02*
X638Y4850D01*
X169Y4849D02*
X203Y4849D01*
X452Y4849D02*
X474Y4849D01*
X629Y4849D02*
X638Y4849D01*
X168Y4848D02*
X180Y4848D01*
X465Y4848D02*
X474Y4848D01*
X629Y4848D02*
X638Y4848D01*
X168Y4847D02*
X179Y4847D01*
X465Y4847D02*
X474Y4847D01*
X629Y4847D02*
X638Y4847D01*
X167Y4846D02*
X178Y4846D01*
X465Y4846D02*
X474Y4846D01*
X629Y4846D02*
X638Y4846D01*
X167Y4845D02*
X177Y4845D01*
X465Y4845D02*
X474Y4845D01*
X629Y4845D02*
X638Y4845D01*
X166Y4844D02*
X177Y4844D01*
X465Y4844D02*
X474Y4844D01*
X629Y4844D02*
X638Y4844D01*
X166Y4843D02*
X176Y4843D01*
X465Y4843D02*
X474Y4843D01*
X629Y4843D02*
X638Y4843D01*
X165Y4842D02*
X176Y4842D01*
X465Y4842D02*
X474Y4842D01*
X629Y4842D02*
X638Y4842D01*
X165Y4841D02*
X175Y4841D01*
X465Y4841D02*
X474Y4841D01*
X629Y4841D02*
X638Y4841D01*
X164Y4840D02*
X175Y4840D01*
X465Y4840D02*
X474Y4840D01*
X629Y4840D02*
X638Y4840D01*
X164Y4839D02*
X174Y4839D01*
X376Y4839D02*
X378Y4839D01*
X394Y4839D02*
X401Y4839D01*
X465Y4839D02*
X474Y4839D01*
X629Y4839D02*
X638Y4839D01*
X163Y4838D02*
X174Y4838D01*
X375Y4838D02*
X380Y4838D01*
X391Y4838D02*
X404Y4838D01*
X465Y4838D02*
X474Y4838D01*
X629Y4838D02*
X638Y4838D01*
X163Y4837D02*
X173Y4837D01*
X245Y4837D02*
X261Y4837D01*
X305Y4837D02*
X306Y4837D01*
X345Y4837D02*
X346Y4837D01*
X374Y4837D02*
X381Y4837D01*
X389Y4837D02*
X406Y4837D01*
X465Y4837D02*
X474Y4837D01*
X533Y4837D02*
X549Y4837D01*
X605Y4837D02*
X615Y4837D01*
X629Y4837D02*
X638Y4837D01*
X162Y4836D02*
X173Y4836D01*
X242Y4836D02*
X265Y4836D01*
X303Y4836D02*
X308Y4836D01*
X343Y4836D02*
X348Y4836D01*
X373Y4836D02*
X382Y4836D01*
X388Y4836D02*
X407Y4836D01*
X465Y4836D02*
X474Y4836D01*
X530Y4836D02*
X553Y4836D01*
X602Y4836D02*
X620Y4836D01*
X629Y4836D02*
X638Y4836D01*
X162Y4835D02*
X172Y4835D01*
X240Y4835D02*
X267Y4835D01*
X302Y4835D02*
X309Y4835D01*
X342Y4835D02*
X349Y4835D01*
X373Y4835D02*
X382Y4835D01*
X386Y4835D02*
X409Y4835D01*
X465Y4835D02*
X474Y4835D01*
X528Y4835D02*
X555Y4835D01*
X600Y4835D02*
X622Y4835D01*
X629Y4835D02*
X638Y4835D01*
X161Y4834D02*
X172Y4834D01*
X238Y4834D02*
X268Y4834D01*
X301Y4834D02*
X310Y4834D01*
X341Y4834D02*
X349Y4834D01*
X373Y4834D02*
X382Y4834D01*
X385Y4834D02*
X410Y4834D01*
X465Y4834D02*
X474Y4834D01*
X526Y4834D02*
X556Y4834D01*
X598Y4834D02*
X623Y4834D01*
X629Y4834D02*
X638Y4834D01*
X161Y4833D02*
X171Y4833D01*
X237Y4833D02*
X269Y4833D01*
X301Y4833D02*
X310Y4833D01*
X341Y4833D02*
X350Y4833D01*
X373Y4833D02*
X382Y4833D01*
X384Y4833D02*
X411Y4833D01*
X465Y4833D02*
X474Y4833D01*
X525Y4833D02*
X557Y4833D01*
X597Y4833D02*
X624Y4833D01*
X629Y4833D02*
X638Y4833D01*
X160Y4832D02*
X171Y4832D01*
X236Y4832D02*
X271Y4832D01*
X301Y4832D02*
X310Y4832D01*
X341Y4832D02*
X350Y4832D01*
X373Y4832D02*
X412Y4832D01*
X465Y4832D02*
X474Y4832D01*
X524Y4832D02*
X559Y4832D01*
X596Y4832D02*
X626Y4832D01*
X629Y4832D02*
X638Y4832D01*
X160Y4831D02*
X170Y4831D01*
X235Y4831D02*
X272Y4831D01*
X301Y4831D02*
X310Y4831D01*
X341Y4831D02*
X350Y4831D01*
X373Y4831D02*
X413Y4831D01*
X465Y4831D02*
X474Y4831D01*
X523Y4831D02*
X560Y4831D01*
X595Y4831D02*
X638Y4831D01*
X160Y4830D02*
X170Y4830D01*
X234Y4830D02*
X273Y4830D01*
X301Y4830D02*
X310Y4830D01*
X341Y4830D02*
X350Y4830D01*
X373Y4830D02*
X414Y4830D01*
X465Y4830D02*
X474Y4830D01*
X522Y4830D02*
X561Y4830D01*
X594Y4830D02*
X638Y4830D01*
X159Y4829D02*
X169Y4829D01*
X233Y4829D02*
X274Y4829D01*
X301Y4829D02*
X310Y4829D01*
X341Y4829D02*
X350Y4829D01*
X373Y4829D02*
X395Y4829D01*
X400Y4829D02*
X415Y4829D01*
X465Y4829D02*
X474Y4829D01*
X521Y4829D02*
X562Y4829D01*
X593Y4829D02*
X638Y4829D01*
X159Y4828D02*
X169Y4828D01*
X232Y4828D02*
X275Y4828D01*
X301Y4828D02*
X310Y4828D01*
X341Y4828D02*
X350Y4828D01*
X373Y4828D02*
X393Y4828D01*
X402Y4828D02*
X417Y4828D01*
X465Y4828D02*
X474Y4828D01*
X520Y4828D02*
X563Y4828D01*
X592Y4828D02*
X638Y4828D01*
X158Y4827D02*
X168Y4827D01*
X231Y4827D02*
X246Y4827D01*
X260Y4827D02*
X275Y4827D01*
X301Y4827D02*
X310Y4827D01*
X341Y4827D02*
X350Y4827D01*
X373Y4827D02*
X392Y4827D01*
X403Y4827D02*
X418Y4827D01*
X465Y4827D02*
X474Y4827D01*
X519Y4827D02*
X534Y4827D01*
X548Y4827D02*
X563Y4827D01*
X591Y4827D02*
X606Y4827D01*
X615Y4827D02*
X638Y4827D01*
X158Y4826D02*
X168Y4826D01*
X231Y4826D02*
X243Y4826D01*
X263Y4826D02*
X276Y4826D01*
X301Y4826D02*
X310Y4826D01*
X341Y4826D02*
X350Y4826D01*
X373Y4826D02*
X391Y4826D01*
X404Y4826D02*
X418Y4826D01*
X465Y4826D02*
X474Y4826D01*
X519Y4826D02*
X531Y4826D01*
X551Y4826D02*
X564Y4826D01*
X590Y4826D02*
X603Y4826D01*
X618Y4826D02*
X638Y4826D01*
X158Y4825D02*
X167Y4825D01*
X230Y4825D02*
X242Y4825D01*
X265Y4825D02*
X276Y4825D01*
X301Y4825D02*
X310Y4825D01*
X341Y4825D02*
X350Y4825D01*
X373Y4825D02*
X390Y4825D01*
X406Y4825D02*
X419Y4825D01*
X465Y4825D02*
X474Y4825D01*
X518Y4825D02*
X530Y4825D01*
X553Y4825D02*
X564Y4825D01*
X590Y4825D02*
X602Y4825D01*
X619Y4825D02*
X638Y4825D01*
X157Y4824D02*
X167Y4824D01*
X230Y4824D02*
X241Y4824D01*
X266Y4824D02*
X277Y4824D01*
X301Y4824D02*
X310Y4824D01*
X341Y4824D02*
X350Y4824D01*
X373Y4824D02*
X389Y4824D01*
X407Y4824D02*
X420Y4824D01*
X465Y4824D02*
X474Y4824D01*
X518Y4824D02*
X529Y4824D01*
X554Y4824D02*
X565Y4824D01*
X590Y4824D02*
X601Y4824D01*
X620Y4824D02*
X638Y4824D01*
X157Y4823D02*
X167Y4823D01*
X230Y4823D02*
X240Y4823D01*
X267Y4823D02*
X277Y4823D01*
X301Y4823D02*
X310Y4823D01*
X341Y4823D02*
X350Y4823D01*
X373Y4823D02*
X388Y4823D01*
X408Y4823D02*
X420Y4823D01*
X465Y4823D02*
X474Y4823D01*
X517Y4823D02*
X528Y4823D01*
X555Y4823D02*
X565Y4823D01*
X589Y4823D02*
X600Y4823D01*
X621Y4823D02*
X638Y4823D01*
X157Y4822D02*
X166Y4822D01*
X229Y4822D02*
X239Y4822D01*
X268Y4822D02*
X277Y4822D01*
X301Y4822D02*
X310Y4822D01*
X341Y4822D02*
X350Y4822D01*
X373Y4822D02*
X387Y4822D01*
X409Y4822D02*
X421Y4822D01*
X465Y4822D02*
X474Y4822D01*
X517Y4822D02*
X527Y4822D01*
X556Y4822D02*
X565Y4822D01*
X589Y4822D02*
X599Y4822D01*
X623Y4822D02*
X638Y4822D01*
X157Y4821D02*
X166Y4821D01*
X229Y4821D02*
X238Y4821D01*
X268Y4821D02*
X278Y4821D01*
X301Y4821D02*
X310Y4821D01*
X341Y4821D02*
X350Y4821D01*
X373Y4821D02*
X386Y4821D01*
X410Y4821D02*
X421Y4821D01*
X465Y4821D02*
X474Y4821D01*
X517Y4821D02*
X526Y4821D01*
X556Y4821D02*
X565Y4821D01*
X589Y4821D02*
X598Y4821D01*
X624Y4821D02*
X638Y4821D01*
X157Y4820D02*
X166Y4820D01*
X229Y4820D02*
X238Y4820D01*
X268Y4820D02*
X278Y4820D01*
X301Y4820D02*
X310Y4820D01*
X341Y4820D02*
X350Y4820D01*
X373Y4820D02*
X385Y4820D01*
X411Y4820D02*
X421Y4820D01*
X465Y4820D02*
X474Y4820D01*
X517Y4820D02*
X526Y4820D01*
X556Y4820D02*
X566Y4820D01*
X589Y4820D02*
X598Y4820D01*
X625Y4820D02*
X638Y4820D01*
X157Y4819D02*
X166Y4819D01*
X229Y4819D02*
X238Y4819D01*
X269Y4819D02*
X278Y4819D01*
X301Y4819D02*
X310Y4819D01*
X341Y4819D02*
X350Y4819D01*
X373Y4819D02*
X384Y4819D01*
X412Y4819D02*
X422Y4819D01*
X465Y4819D02*
X474Y4819D01*
X517Y4819D02*
X526Y4819D01*
X557Y4819D02*
X566Y4819D01*
X589Y4819D02*
X598Y4819D01*
X626Y4819D02*
X638Y4819D01*
X157Y4818D02*
X166Y4818D01*
X229Y4818D02*
X238Y4818D01*
X269Y4818D02*
X278Y4818D01*
X301Y4818D02*
X310Y4818D01*
X341Y4818D02*
X350Y4818D01*
X373Y4818D02*
X383Y4818D01*
X412Y4818D02*
X422Y4818D01*
X465Y4818D02*
X474Y4818D01*
X517Y4818D02*
X526Y4818D01*
X557Y4818D02*
X566Y4818D01*
X589Y4818D02*
X598Y4818D01*
X627Y4818D02*
X638Y4818D01*
X157Y4817D02*
X166Y4817D01*
X229Y4817D02*
X238Y4817D01*
X269Y4817D02*
X278Y4817D01*
X301Y4817D02*
X310Y4817D01*
X341Y4817D02*
X350Y4817D01*
X373Y4817D02*
X382Y4817D01*
X413Y4817D02*
X422Y4817D01*
X465Y4817D02*
X474Y4817D01*
X517Y4817D02*
X526Y4817D01*
X557Y4817D02*
X566Y4817D01*
X589Y4817D02*
X598Y4817D01*
X628Y4817D02*
X638Y4817D01*
X157Y4816D02*
X167Y4816D01*
X229Y4816D02*
X238Y4816D01*
X269Y4816D02*
X278Y4816D01*
X301Y4816D02*
X310Y4816D01*
X341Y4816D02*
X350Y4816D01*
X373Y4816D02*
X382Y4816D01*
X413Y4816D02*
X422Y4816D01*
X465Y4816D02*
X474Y4816D01*
X517Y4816D02*
X526Y4816D01*
X557Y4816D02*
X566Y4816D01*
X589Y4816D02*
X598Y4816D01*
X628Y4816D02*
X638Y4816D01*
X157Y4815D02*
X167Y4815D01*
X229Y4815D02*
X238Y4815D01*
X269Y4815D02*
X278Y4815D01*
X301Y4815D02*
X311Y4815D01*
X341Y4815D02*
X350Y4815D01*
X373Y4815D02*
X382Y4815D01*
X413Y4815D02*
X422Y4815D01*
X465Y4815D02*
X474Y4815D01*
X517Y4815D02*
X526Y4815D01*
X557Y4815D02*
X566Y4815D01*
X589Y4815D02*
X598Y4815D01*
X628Y4815D02*
X638Y4815D01*
X158Y4814D02*
X167Y4814D01*
X229Y4814D02*
X238Y4814D01*
X269Y4814D02*
X278Y4814D01*
X301Y4814D02*
X311Y4814D01*
X341Y4814D02*
X350Y4814D01*
X373Y4814D02*
X382Y4814D01*
X413Y4814D02*
X422Y4814D01*
X465Y4814D02*
X474Y4814D01*
X517Y4814D02*
X526Y4814D01*
X557Y4814D02*
X566Y4814D01*
X589Y4814D02*
X598Y4814D01*
X629Y4814D02*
X638Y4814D01*
X158Y4813D02*
X168Y4813D01*
X229Y4813D02*
X238Y4813D01*
X269Y4813D02*
X278Y4813D01*
X302Y4813D02*
X311Y4813D01*
X341Y4813D02*
X350Y4813D01*
X373Y4813D02*
X382Y4813D01*
X413Y4813D02*
X422Y4813D01*
X465Y4813D02*
X474Y4813D01*
X517Y4813D02*
X526Y4813D01*
X557Y4813D02*
X566Y4813D01*
X589Y4813D02*
X598Y4813D01*
X629Y4813D02*
X638Y4813D01*
X158Y4812D02*
X168Y4812D01*
X229Y4812D02*
X238Y4812D01*
X269Y4812D02*
X278Y4812D01*
X302Y4812D02*
X311Y4812D01*
X341Y4812D02*
X350Y4812D01*
X373Y4812D02*
X382Y4812D01*
X413Y4812D02*
X422Y4812D01*
X465Y4812D02*
X474Y4812D01*
X517Y4812D02*
X526Y4812D01*
X556Y4812D02*
X566Y4812D01*
X589Y4812D02*
X598Y4812D01*
X629Y4812D02*
X638Y4812D01*
X159Y4811D02*
X169Y4811D01*
X229Y4811D02*
X238Y4811D01*
X269Y4811D02*
X278Y4811D01*
X302Y4811D02*
X311Y4811D01*
X341Y4811D02*
X350Y4811D01*
X373Y4811D02*
X382Y4811D01*
X413Y4811D02*
X422Y4811D01*
X465Y4811D02*
X474Y4811D01*
X517Y4811D02*
X566Y4811D01*
X589Y4811D02*
X598Y4811D01*
X629Y4811D02*
X638Y4811D01*
X159Y4810D02*
X169Y4810D01*
X229Y4810D02*
X238Y4810D01*
X269Y4810D02*
X278Y4810D01*
X302Y4810D02*
X311Y4810D01*
X341Y4810D02*
X350Y4810D01*
X373Y4810D02*
X382Y4810D01*
X413Y4810D02*
X422Y4810D01*
X465Y4810D02*
X474Y4810D01*
X517Y4810D02*
X566Y4810D01*
X589Y4810D02*
X598Y4810D01*
X629Y4810D02*
X638Y4810D01*
X159Y4809D02*
X170Y4809D01*
X229Y4809D02*
X238Y4809D01*
X269Y4809D02*
X278Y4809D01*
X302Y4809D02*
X311Y4809D01*
X341Y4809D02*
X350Y4809D01*
X373Y4809D02*
X382Y4809D01*
X413Y4809D02*
X422Y4809D01*
X465Y4809D02*
X474Y4809D01*
X517Y4809D02*
X566Y4809D01*
X589Y4809D02*
X598Y4809D01*
X629Y4809D02*
X638Y4809D01*
X160Y4808D02*
X170Y4808D01*
X229Y4808D02*
X238Y4808D01*
X269Y4808D02*
X278Y4808D01*
X302Y4808D02*
X311Y4808D01*
X341Y4808D02*
X350Y4808D01*
X373Y4808D02*
X382Y4808D01*
X413Y4808D02*
X422Y4808D01*
X465Y4808D02*
X474Y4808D01*
X517Y4808D02*
X566Y4808D01*
X589Y4808D02*
X598Y4808D01*
X629Y4808D02*
X638Y4808D01*
X160Y4807D02*
X171Y4807D01*
X229Y4807D02*
X238Y4807D01*
X269Y4807D02*
X278Y4807D01*
X302Y4807D02*
X311Y4807D01*
X341Y4807D02*
X350Y4807D01*
X373Y4807D02*
X382Y4807D01*
X413Y4807D02*
X422Y4807D01*
X465Y4807D02*
X474Y4807D01*
X517Y4807D02*
X566Y4807D01*
X589Y4807D02*
X598Y4807D01*
X629Y4807D02*
X638Y4807D01*
X161Y4806D02*
X171Y4806D01*
X229Y4806D02*
X238Y4806D01*
X269Y4806D02*
X278Y4806D01*
X302Y4806D02*
X311Y4806D01*
X341Y4806D02*
X350Y4806D01*
X373Y4806D02*
X382Y4806D01*
X413Y4806D02*
X422Y4806D01*
X465Y4806D02*
X474Y4806D01*
X517Y4806D02*
X566Y4806D01*
X589Y4806D02*
X598Y4806D01*
X629Y4806D02*
X638Y4806D01*
X161Y4805D02*
X172Y4805D01*
X229Y4805D02*
X238Y4805D01*
X269Y4805D02*
X278Y4805D01*
X302Y4805D02*
X311Y4805D01*
X341Y4805D02*
X350Y4805D01*
X373Y4805D02*
X382Y4805D01*
X413Y4805D02*
X422Y4805D01*
X465Y4805D02*
X474Y4805D01*
X517Y4805D02*
X565Y4805D01*
X589Y4805D02*
X598Y4805D01*
X629Y4805D02*
X638Y4805D01*
X162Y4804D02*
X172Y4804D01*
X229Y4804D02*
X238Y4804D01*
X269Y4804D02*
X278Y4804D01*
X302Y4804D02*
X311Y4804D01*
X341Y4804D02*
X350Y4804D01*
X373Y4804D02*
X382Y4804D01*
X413Y4804D02*
X422Y4804D01*
X465Y4804D02*
X474Y4804D01*
X517Y4804D02*
X565Y4804D01*
X589Y4804D02*
X598Y4804D01*
X629Y4804D02*
X638Y4804D01*
X162Y4803D02*
X173Y4803D01*
X229Y4803D02*
X238Y4803D01*
X269Y4803D02*
X278Y4803D01*
X302Y4803D02*
X311Y4803D01*
X341Y4803D02*
X350Y4803D01*
X373Y4803D02*
X382Y4803D01*
X413Y4803D02*
X422Y4803D01*
X465Y4803D02*
X474Y4803D01*
X517Y4803D02*
X564Y4803D01*
X589Y4803D02*
X598Y4803D01*
X629Y4803D02*
X638Y4803D01*
X163Y4802D02*
X173Y4802D01*
X229Y4802D02*
X238Y4802D01*
X269Y4802D02*
X278Y4802D01*
X302Y4802D02*
X311Y4802D01*
X341Y4802D02*
X350Y4802D01*
X373Y4802D02*
X382Y4802D01*
X413Y4802D02*
X422Y4802D01*
X465Y4802D02*
X474Y4802D01*
X517Y4802D02*
X563Y4802D01*
X589Y4802D02*
X598Y4802D01*
X628Y4802D02*
X638Y4802D01*
X163Y4801D02*
X174Y4801D01*
X229Y4801D02*
X238Y4801D01*
X269Y4801D02*
X278Y4801D01*
X302Y4801D02*
X311Y4801D01*
X341Y4801D02*
X350Y4801D01*
X373Y4801D02*
X382Y4801D01*
X413Y4801D02*
X422Y4801D01*
X465Y4801D02*
X474Y4801D01*
X517Y4801D02*
X526Y4801D01*
X589Y4801D02*
X598Y4801D01*
X628Y4801D02*
X638Y4801D01*
X164Y4800D02*
X174Y4800D01*
X229Y4800D02*
X238Y4800D01*
X269Y4800D02*
X278Y4800D01*
X302Y4800D02*
X311Y4800D01*
X339Y4800D02*
X350Y4800D01*
X373Y4800D02*
X383Y4800D01*
X413Y4800D02*
X422Y4800D01*
X465Y4800D02*
X474Y4800D01*
X517Y4800D02*
X526Y4800D01*
X589Y4800D02*
X598Y4800D01*
X628Y4800D02*
X638Y4800D01*
X164Y4799D02*
X175Y4799D01*
X229Y4799D02*
X238Y4799D01*
X269Y4799D02*
X278Y4799D01*
X302Y4799D02*
X311Y4799D01*
X338Y4799D02*
X350Y4799D01*
X373Y4799D02*
X383Y4799D01*
X412Y4799D02*
X422Y4799D01*
X465Y4799D02*
X474Y4799D01*
X517Y4799D02*
X526Y4799D01*
X589Y4799D02*
X598Y4799D01*
X627Y4799D02*
X638Y4799D01*
X165Y4798D02*
X175Y4798D01*
X229Y4798D02*
X238Y4798D01*
X269Y4798D02*
X278Y4798D01*
X302Y4798D02*
X311Y4798D01*
X336Y4798D02*
X350Y4798D01*
X373Y4798D02*
X384Y4798D01*
X412Y4798D02*
X421Y4798D01*
X465Y4798D02*
X474Y4798D01*
X517Y4798D02*
X526Y4798D01*
X589Y4798D02*
X598Y4798D01*
X625Y4798D02*
X638Y4798D01*
X165Y4797D02*
X176Y4797D01*
X229Y4797D02*
X238Y4797D01*
X268Y4797D02*
X278Y4797D01*
X302Y4797D02*
X311Y4797D01*
X335Y4797D02*
X350Y4797D01*
X373Y4797D02*
X385Y4797D01*
X411Y4797D02*
X421Y4797D01*
X465Y4797D02*
X474Y4797D01*
X517Y4797D02*
X526Y4797D01*
X589Y4797D02*
X598Y4797D01*
X624Y4797D02*
X638Y4797D01*
X166Y4796D02*
X176Y4796D01*
X229Y4796D02*
X239Y4796D01*
X268Y4796D02*
X278Y4796D01*
X302Y4796D02*
X311Y4796D01*
X333Y4796D02*
X350Y4796D01*
X373Y4796D02*
X386Y4796D01*
X410Y4796D02*
X421Y4796D01*
X465Y4796D02*
X474Y4796D01*
X517Y4796D02*
X527Y4796D01*
X589Y4796D02*
X599Y4796D01*
X623Y4796D02*
X638Y4796D01*
X166Y4795D02*
X177Y4795D01*
X229Y4795D02*
X239Y4795D01*
X267Y4795D02*
X277Y4795D01*
X302Y4795D02*
X311Y4795D01*
X331Y4795D02*
X350Y4795D01*
X373Y4795D02*
X387Y4795D01*
X409Y4795D02*
X421Y4795D01*
X465Y4795D02*
X474Y4795D01*
X517Y4795D02*
X527Y4795D01*
X589Y4795D02*
X599Y4795D01*
X622Y4795D02*
X638Y4795D01*
X167Y4794D02*
X177Y4794D01*
X230Y4794D02*
X240Y4794D01*
X266Y4794D02*
X277Y4794D01*
X302Y4794D02*
X312Y4794D01*
X330Y4794D02*
X350Y4794D01*
X373Y4794D02*
X388Y4794D01*
X407Y4794D02*
X420Y4794D01*
X465Y4794D02*
X474Y4794D01*
X518Y4794D02*
X528Y4794D01*
X590Y4794D02*
X600Y4794D01*
X621Y4794D02*
X638Y4794D01*
X167Y4793D02*
X178Y4793D01*
X230Y4793D02*
X242Y4793D01*
X265Y4793D02*
X277Y4793D01*
X302Y4793D02*
X312Y4793D01*
X328Y4793D02*
X350Y4793D01*
X373Y4793D02*
X389Y4793D01*
X406Y4793D02*
X419Y4793D01*
X465Y4793D02*
X474Y4793D01*
X518Y4793D02*
X530Y4793D01*
X590Y4793D02*
X602Y4793D01*
X620Y4793D02*
X638Y4793D01*
X168Y4792D02*
X179Y4792D01*
X230Y4792D02*
X243Y4792D01*
X264Y4792D02*
X276Y4792D01*
X302Y4792D02*
X313Y4792D01*
X327Y4792D02*
X350Y4792D01*
X373Y4792D02*
X390Y4792D01*
X405Y4792D02*
X419Y4792D01*
X465Y4792D02*
X474Y4792D01*
X518Y4792D02*
X531Y4792D01*
X590Y4792D02*
X603Y4792D01*
X618Y4792D02*
X638Y4792D01*
X168Y4791D02*
X180Y4791D01*
X231Y4791D02*
X244Y4791D01*
X262Y4791D02*
X276Y4791D01*
X303Y4791D02*
X314Y4791D01*
X325Y4791D02*
X350Y4791D01*
X373Y4791D02*
X391Y4791D01*
X404Y4791D02*
X418Y4791D01*
X465Y4791D02*
X474Y4791D01*
X519Y4791D02*
X532Y4791D01*
X591Y4791D02*
X604Y4791D01*
X617Y4791D02*
X638Y4791D01*
X169Y4790D02*
X203Y4790D01*
X231Y4790D02*
X275Y4790D01*
X303Y4790D02*
X350Y4790D01*
X373Y4790D02*
X392Y4790D01*
X403Y4790D02*
X417Y4790D01*
X453Y4790D02*
X486Y4790D01*
X519Y4790D02*
X563Y4790D01*
X591Y4790D02*
X638Y4790D01*
X169Y4789D02*
X204Y4789D01*
X232Y4789D02*
X274Y4789D01*
X304Y4789D02*
X350Y4789D01*
X373Y4789D02*
X394Y4789D01*
X401Y4789D02*
X416Y4789D01*
X451Y4789D02*
X487Y4789D01*
X520Y4789D02*
X564Y4789D01*
X592Y4789D02*
X638Y4789D01*
X170Y4788D02*
X205Y4788D01*
X233Y4788D02*
X273Y4788D01*
X304Y4788D02*
X338Y4788D01*
X341Y4788D02*
X350Y4788D01*
X373Y4788D02*
X415Y4788D01*
X451Y4788D02*
X488Y4788D01*
X521Y4788D02*
X565Y4788D01*
X593Y4788D02*
X638Y4788D01*
X171Y4787D02*
X205Y4787D01*
X234Y4787D02*
X272Y4787D01*
X305Y4787D02*
X337Y4787D01*
X341Y4787D02*
X350Y4787D01*
X373Y4787D02*
X414Y4787D01*
X450Y4787D02*
X488Y4787D01*
X522Y4787D02*
X565Y4787D01*
X594Y4787D02*
X638Y4787D01*
X171Y4786D02*
X206Y4786D01*
X235Y4786D02*
X271Y4786D01*
X306Y4786D02*
X335Y4786D01*
X341Y4786D02*
X350Y4786D01*
X373Y4786D02*
X413Y4786D01*
X450Y4786D02*
X489Y4786D01*
X523Y4786D02*
X566Y4786D01*
X595Y4786D02*
X626Y4786D01*
X629Y4786D02*
X638Y4786D01*
X172Y4785D02*
X206Y4785D01*
X237Y4785D02*
X270Y4785D01*
X306Y4785D02*
X333Y4785D01*
X341Y4785D02*
X350Y4785D01*
X373Y4785D02*
X382Y4785D01*
X384Y4785D02*
X411Y4785D01*
X450Y4785D02*
X489Y4785D01*
X524Y4785D02*
X566Y4785D01*
X596Y4785D02*
X625Y4785D01*
X629Y4785D02*
X638Y4785D01*
X174Y4784D02*
X205Y4784D01*
X238Y4784D02*
X269Y4784D01*
X307Y4784D02*
X332Y4784D01*
X341Y4784D02*
X349Y4784D01*
X373Y4784D02*
X382Y4784D01*
X385Y4784D02*
X410Y4784D01*
X450Y4784D02*
X488Y4784D01*
X526Y4784D02*
X565Y4784D01*
X598Y4784D02*
X624Y4784D01*
X629Y4784D02*
X637Y4784D01*
X175Y4783D02*
X205Y4783D01*
X239Y4783D02*
X267Y4783D01*
X309Y4783D02*
X330Y4783D01*
X341Y4783D02*
X349Y4783D01*
X373Y4783D02*
X382Y4783D01*
X386Y4783D02*
X409Y4783D01*
X450Y4783D02*
X488Y4783D01*
X527Y4783D02*
X565Y4783D01*
X599Y4783D02*
X623Y4783D01*
X629Y4783D02*
X637Y4783D01*
X176Y4782D02*
X204Y4782D01*
X241Y4782D02*
X266Y4782D01*
X310Y4782D02*
X328Y4782D01*
X342Y4782D02*
X348Y4782D01*
X373Y4782D02*
X382Y4782D01*
X387Y4782D02*
X408Y4782D01*
X451Y4782D02*
X487Y4782D01*
X529Y4782D02*
X564Y4782D01*
X601Y4782D02*
X621Y4782D01*
X630Y4782D02*
X636Y4782D01*
X179Y4781D02*
X203Y4781D01*
X243Y4781D02*
X263Y4781D01*
X313Y4781D02*
X326Y4781D01*
X343Y4781D02*
X347Y4781D01*
X373Y4781D02*
X382Y4781D01*
X388Y4781D02*
X407Y4781D01*
X453Y4781D02*
X486Y4781D01*
X531Y4781D02*
X563Y4781D01*
X603Y4781D02*
X618Y4781D01*
X631Y4781D02*
X635Y4781D01*
X373Y4780D02*
X382Y4780D01*
X390Y4780D02*
X405Y4780D01*
X373Y4779D02*
X382Y4779D01*
X393Y4779D02*
X403Y4779D01*
X373Y4778D02*
X382Y4778D01*
X373Y4777D02*
X382Y4777D01*
X373Y4776D02*
X382Y4776D01*
X373Y4775D02*
X382Y4775D01*
X373Y4774D02*
X382Y4774D01*
X373Y4773D02*
X382Y4773D01*
X373Y4772D02*
X382Y4772D01*
X373Y4771D02*
X382Y4771D01*
X575Y4771D02*
X584Y4771D01*
X373Y4770D02*
X382Y4770D01*
X573Y4770D02*
X585Y4770D01*
X373Y4769D02*
X382Y4769D01*
X573Y4769D02*
X586Y4769D01*
X373Y4768D02*
X382Y4768D01*
X572Y4768D02*
X586Y4768D01*
X61Y4767D02*
X92Y4767D01*
X373Y4767D02*
X382Y4767D01*
X572Y4767D02*
X586Y4767D01*
X709Y4767D02*
X727Y4767D01*
X59Y4766D02*
X95Y4766D01*
X373Y4766D02*
X382Y4766D01*
X572Y4766D02*
X586Y4766D01*
X708Y4766D02*
X729Y4766D01*
X58Y4765D02*
X96Y4765D01*
X373Y4765D02*
X382Y4765D01*
X572Y4765D02*
X586Y4765D01*
X707Y4765D02*
X729Y4765D01*
X57Y4764D02*
X98Y4764D01*
X373Y4764D02*
X382Y4764D01*
X572Y4764D02*
X586Y4764D01*
X706Y4764D02*
X730Y4764D01*
X56Y4763D02*
X99Y4763D01*
X373Y4763D02*
X382Y4763D01*
X498Y4763D02*
X501Y4763D01*
X572Y4763D02*
X586Y4763D01*
X706Y4763D02*
X730Y4763D01*
X55Y4762D02*
X99Y4762D01*
X373Y4762D02*
X381Y4762D01*
X497Y4762D02*
X503Y4762D01*
X572Y4762D02*
X586Y4762D01*
X706Y4762D02*
X730Y4762D01*
X54Y4761D02*
X100Y4761D01*
X374Y4761D02*
X381Y4761D01*
X496Y4761D02*
X503Y4761D01*
X572Y4761D02*
X586Y4761D01*
X706Y4761D02*
X730Y4761D01*
X54Y4760D02*
X101Y4760D01*
X375Y4760D02*
X380Y4760D01*
X496Y4760D02*
X504Y4760D01*
X573Y4760D02*
X585Y4760D01*
X707Y4760D02*
X730Y4760D01*
X54Y4759D02*
X101Y4759D01*
X495Y4759D02*
X504Y4759D01*
X574Y4759D02*
X585Y4759D01*
X708Y4759D02*
X730Y4759D01*
X54Y4758D02*
X102Y4758D01*
X495Y4758D02*
X504Y4758D01*
X575Y4758D02*
X583Y4758D01*
X709Y4758D02*
X730Y4758D01*
X53Y4757D02*
X63Y4757D01*
X91Y4757D02*
X102Y4757D01*
X495Y4757D02*
X504Y4757D01*
X721Y4757D02*
X730Y4757D01*
X53Y4756D02*
X63Y4756D01*
X92Y4756D02*
X102Y4756D01*
X495Y4756D02*
X504Y4756D01*
X721Y4756D02*
X730Y4756D01*
X54Y4755D02*
X63Y4755D01*
X93Y4755D02*
X102Y4755D01*
X495Y4755D02*
X504Y4755D01*
X721Y4755D02*
X730Y4755D01*
X54Y4754D02*
X64Y4754D01*
X93Y4754D02*
X102Y4754D01*
X495Y4754D02*
X504Y4754D01*
X721Y4754D02*
X730Y4754D01*
X54Y4753D02*
X65Y4753D01*
X93Y4753D02*
X102Y4753D01*
X495Y4753D02*
X504Y4753D01*
X721Y4753D02*
X730Y4753D01*
X54Y4752D02*
X65Y4752D01*
X94Y4752D02*
X102Y4752D01*
X495Y4752D02*
X504Y4752D01*
X721Y4752D02*
X730Y4752D01*
X55Y4751D02*
X66Y4751D01*
X94Y4751D02*
X101Y4751D01*
X495Y4751D02*
X504Y4751D01*
X721Y4751D02*
X730Y4751D01*
X55Y4750D02*
X67Y4750D01*
X95Y4750D02*
X100Y4750D01*
X495Y4750D02*
X504Y4750D01*
X721Y4750D02*
X730Y4750D01*
X56Y4749D02*
X68Y4749D01*
X495Y4749D02*
X504Y4749D01*
X721Y4749D02*
X730Y4749D01*
X57Y4748D02*
X69Y4748D01*
X495Y4748D02*
X504Y4748D01*
X721Y4748D02*
X730Y4748D01*
X57Y4747D02*
X69Y4747D01*
X495Y4747D02*
X504Y4747D01*
X721Y4747D02*
X730Y4747D01*
X58Y4746D02*
X70Y4746D01*
X141Y4746D02*
X159Y4746D01*
X213Y4746D02*
X225Y4746D01*
X240Y4746D02*
X243Y4746D01*
X273Y4746D02*
X275Y4746D01*
X312Y4746D02*
X315Y4746D01*
X357Y4746D02*
X375Y4746D01*
X417Y4746D02*
X419Y4746D01*
X438Y4746D02*
X449Y4746D01*
X489Y4746D02*
X526Y4746D01*
X566Y4746D02*
X583Y4746D01*
X642Y4746D02*
X665Y4746D01*
X721Y4746D02*
X730Y4746D01*
X59Y4745D02*
X71Y4745D01*
X138Y4745D02*
X162Y4745D01*
X210Y4745D02*
X229Y4745D01*
X239Y4745D02*
X244Y4745D01*
X271Y4745D02*
X277Y4745D01*
X311Y4745D02*
X316Y4745D01*
X354Y4745D02*
X378Y4745D01*
X415Y4745D02*
X421Y4745D01*
X435Y4745D02*
X452Y4745D01*
X487Y4745D02*
X527Y4745D01*
X564Y4745D02*
X584Y4745D01*
X641Y4745D02*
X668Y4745D01*
X721Y4745D02*
X730Y4745D01*
X60Y4744D02*
X72Y4744D01*
X136Y4744D02*
X164Y4744D01*
X208Y4744D02*
X230Y4744D01*
X238Y4744D02*
X245Y4744D01*
X270Y4744D02*
X277Y4744D01*
X310Y4744D02*
X317Y4744D01*
X352Y4744D02*
X379Y4744D01*
X414Y4744D02*
X421Y4744D01*
X433Y4744D02*
X454Y4744D01*
X486Y4744D02*
X528Y4744D01*
X563Y4744D02*
X585Y4744D01*
X640Y4744D02*
X670Y4744D01*
X721Y4744D02*
X730Y4744D01*
X60Y4743D02*
X72Y4743D01*
X135Y4743D02*
X165Y4743D01*
X207Y4743D02*
X232Y4743D01*
X237Y4743D02*
X246Y4743D01*
X270Y4743D02*
X278Y4743D01*
X309Y4743D02*
X318Y4743D01*
X351Y4743D02*
X381Y4743D01*
X414Y4743D02*
X422Y4743D01*
X432Y4743D02*
X455Y4743D01*
X486Y4743D02*
X529Y4743D01*
X563Y4743D02*
X586Y4743D01*
X640Y4743D02*
X671Y4743D01*
X721Y4743D02*
X730Y4743D01*
X61Y4742D02*
X73Y4742D01*
X133Y4742D02*
X166Y4742D01*
X205Y4742D02*
X233Y4742D01*
X237Y4742D02*
X246Y4742D01*
X270Y4742D02*
X278Y4742D01*
X309Y4742D02*
X318Y4742D01*
X349Y4742D02*
X382Y4742D01*
X413Y4742D02*
X422Y4742D01*
X430Y4742D02*
X456Y4742D01*
X485Y4742D02*
X529Y4742D01*
X562Y4742D02*
X586Y4742D01*
X639Y4742D02*
X672Y4742D01*
X721Y4742D02*
X730Y4742D01*
X62Y4741D02*
X74Y4741D01*
X132Y4741D02*
X167Y4741D01*
X204Y4741D02*
X234Y4741D01*
X237Y4741D02*
X246Y4741D01*
X269Y4741D02*
X278Y4741D01*
X309Y4741D02*
X318Y4741D01*
X348Y4741D02*
X383Y4741D01*
X413Y4741D02*
X422Y4741D01*
X428Y4741D02*
X457Y4741D01*
X485Y4741D02*
X529Y4741D01*
X562Y4741D02*
X586Y4741D01*
X639Y4741D02*
X673Y4741D01*
X721Y4741D02*
X730Y4741D01*
X63Y4740D02*
X75Y4740D01*
X131Y4740D02*
X169Y4740D01*
X203Y4740D02*
X235Y4740D01*
X237Y4740D02*
X246Y4740D01*
X269Y4740D02*
X278Y4740D01*
X309Y4740D02*
X318Y4740D01*
X347Y4740D02*
X384Y4740D01*
X413Y4740D02*
X422Y4740D01*
X427Y4740D02*
X458Y4740D01*
X486Y4740D02*
X529Y4740D01*
X562Y4740D02*
X586Y4740D01*
X639Y4740D02*
X674Y4740D01*
X721Y4740D02*
X730Y4740D01*
X64Y4739D02*
X76Y4739D01*
X130Y4739D02*
X170Y4739D01*
X202Y4739D02*
X246Y4739D01*
X269Y4739D02*
X278Y4739D01*
X309Y4739D02*
X318Y4739D01*
X346Y4739D02*
X385Y4739D01*
X413Y4739D02*
X422Y4739D01*
X425Y4739D02*
X459Y4739D01*
X486Y4739D02*
X528Y4739D01*
X563Y4739D02*
X586Y4739D01*
X640Y4739D02*
X675Y4739D01*
X721Y4739D02*
X730Y4739D01*
X64Y4738D02*
X76Y4738D01*
X129Y4738D02*
X170Y4738D01*
X201Y4738D02*
X246Y4738D01*
X269Y4738D02*
X278Y4738D01*
X309Y4738D02*
X318Y4738D01*
X345Y4738D02*
X386Y4738D01*
X413Y4738D02*
X459Y4738D01*
X487Y4738D02*
X528Y4738D01*
X563Y4738D02*
X586Y4738D01*
X640Y4738D02*
X675Y4738D01*
X721Y4738D02*
X730Y4738D01*
X65Y4737D02*
X77Y4737D01*
X128Y4737D02*
X171Y4737D01*
X200Y4737D02*
X246Y4737D01*
X270Y4737D02*
X279Y4737D01*
X309Y4737D02*
X318Y4737D01*
X344Y4737D02*
X387Y4737D01*
X413Y4737D02*
X460Y4737D01*
X488Y4737D02*
X527Y4737D01*
X565Y4737D02*
X586Y4737D01*
X642Y4737D02*
X676Y4737D01*
X721Y4737D02*
X730Y4737D01*
X66Y4736D02*
X78Y4736D01*
X128Y4736D02*
X141Y4736D01*
X158Y4736D02*
X172Y4736D01*
X200Y4736D02*
X213Y4736D01*
X225Y4736D02*
X246Y4736D01*
X270Y4736D02*
X279Y4736D01*
X309Y4736D02*
X318Y4736D01*
X344Y4736D02*
X357Y4736D01*
X374Y4736D02*
X388Y4736D01*
X413Y4736D02*
X438Y4736D01*
X448Y4736D02*
X460Y4736D01*
X495Y4736D02*
X504Y4736D01*
X577Y4736D02*
X586Y4736D01*
X664Y4736D02*
X676Y4736D01*
X721Y4736D02*
X730Y4736D01*
X67Y4735D02*
X79Y4735D01*
X127Y4735D02*
X140Y4735D01*
X160Y4735D02*
X173Y4735D01*
X199Y4735D02*
X212Y4735D01*
X227Y4735D02*
X246Y4735D01*
X270Y4735D02*
X279Y4735D01*
X309Y4735D02*
X318Y4735D01*
X343Y4735D02*
X356Y4735D01*
X376Y4735D02*
X389Y4735D01*
X413Y4735D02*
X437Y4735D01*
X450Y4735D02*
X460Y4735D01*
X495Y4735D02*
X504Y4735D01*
X577Y4735D02*
X586Y4735D01*
X666Y4735D02*
X676Y4735D01*
X721Y4735D02*
X730Y4735D01*
X67Y4734D02*
X79Y4734D01*
X127Y4734D02*
X138Y4734D01*
X161Y4734D02*
X173Y4734D01*
X198Y4734D02*
X210Y4734D01*
X228Y4734D02*
X246Y4734D01*
X270Y4734D02*
X279Y4734D01*
X309Y4734D02*
X318Y4734D01*
X343Y4734D02*
X354Y4734D01*
X377Y4734D02*
X389Y4734D01*
X413Y4734D02*
X435Y4734D01*
X451Y4734D02*
X461Y4734D01*
X495Y4734D02*
X504Y4734D01*
X577Y4734D02*
X586Y4734D01*
X667Y4734D02*
X676Y4734D01*
X721Y4734D02*
X730Y4734D01*
X68Y4733D02*
X80Y4733D01*
X126Y4733D02*
X137Y4733D01*
X163Y4733D02*
X173Y4733D01*
X198Y4733D02*
X209Y4733D01*
X229Y4733D02*
X246Y4733D01*
X270Y4733D02*
X279Y4733D01*
X309Y4733D02*
X318Y4733D01*
X342Y4733D02*
X353Y4733D01*
X379Y4733D02*
X389Y4733D01*
X413Y4733D02*
X434Y4733D01*
X451Y4733D02*
X461Y4733D01*
X495Y4733D02*
X504Y4733D01*
X577Y4733D02*
X586Y4733D01*
X667Y4733D02*
X677Y4733D01*
X721Y4733D02*
X730Y4733D01*
X69Y4732D02*
X81Y4732D01*
X126Y4732D02*
X136Y4732D01*
X164Y4732D02*
X174Y4732D01*
X198Y4732D02*
X208Y4732D01*
X230Y4732D02*
X246Y4732D01*
X270Y4732D02*
X279Y4732D01*
X309Y4732D02*
X318Y4732D01*
X342Y4732D02*
X352Y4732D01*
X379Y4732D02*
X390Y4732D01*
X413Y4732D02*
X432Y4732D01*
X452Y4732D02*
X461Y4732D01*
X495Y4732D02*
X504Y4732D01*
X577Y4732D02*
X586Y4732D01*
X667Y4732D02*
X677Y4732D01*
X721Y4732D02*
X730Y4732D01*
X70Y4731D02*
X82Y4731D01*
X126Y4731D02*
X135Y4731D01*
X164Y4731D02*
X174Y4731D01*
X198Y4731D02*
X207Y4731D01*
X231Y4731D02*
X246Y4731D01*
X270Y4731D02*
X279Y4731D01*
X309Y4731D02*
X318Y4731D01*
X342Y4731D02*
X351Y4731D01*
X380Y4731D02*
X390Y4731D01*
X413Y4731D02*
X431Y4731D01*
X452Y4731D02*
X461Y4731D01*
X495Y4731D02*
X504Y4731D01*
X577Y4731D02*
X586Y4731D01*
X668Y4731D02*
X677Y4731D01*
X721Y4731D02*
X730Y4731D01*
X71Y4730D02*
X83Y4730D01*
X126Y4730D02*
X135Y4730D01*
X165Y4730D02*
X174Y4730D01*
X197Y4730D02*
X207Y4730D01*
X233Y4730D02*
X246Y4730D01*
X270Y4730D02*
X279Y4730D01*
X309Y4730D02*
X318Y4730D01*
X342Y4730D02*
X351Y4730D01*
X381Y4730D02*
X390Y4730D01*
X413Y4730D02*
X429Y4730D01*
X452Y4730D02*
X461Y4730D01*
X495Y4730D02*
X504Y4730D01*
X577Y4730D02*
X586Y4730D01*
X668Y4730D02*
X677Y4730D01*
X721Y4730D02*
X730Y4730D01*
X71Y4729D02*
X83Y4729D01*
X125Y4729D02*
X135Y4729D01*
X165Y4729D02*
X174Y4729D01*
X197Y4729D02*
X207Y4729D01*
X234Y4729D02*
X246Y4729D01*
X270Y4729D02*
X279Y4729D01*
X309Y4729D02*
X318Y4729D01*
X341Y4729D02*
X351Y4729D01*
X381Y4729D02*
X390Y4729D01*
X413Y4729D02*
X427Y4729D01*
X452Y4729D02*
X461Y4729D01*
X495Y4729D02*
X504Y4729D01*
X577Y4729D02*
X586Y4729D01*
X668Y4729D02*
X677Y4729D01*
X721Y4729D02*
X730Y4729D01*
X72Y4728D02*
X84Y4728D01*
X125Y4728D02*
X135Y4728D01*
X165Y4728D02*
X174Y4728D01*
X197Y4728D02*
X206Y4728D01*
X235Y4728D02*
X246Y4728D01*
X270Y4728D02*
X279Y4728D01*
X309Y4728D02*
X318Y4728D01*
X341Y4728D02*
X350Y4728D01*
X381Y4728D02*
X390Y4728D01*
X413Y4728D02*
X426Y4728D01*
X452Y4728D02*
X461Y4728D01*
X495Y4728D02*
X504Y4728D01*
X577Y4728D02*
X586Y4728D01*
X668Y4728D02*
X677Y4728D01*
X721Y4728D02*
X730Y4728D01*
X73Y4727D02*
X85Y4727D01*
X125Y4727D02*
X135Y4727D01*
X165Y4727D02*
X174Y4727D01*
X197Y4727D02*
X206Y4727D01*
X236Y4727D02*
X246Y4727D01*
X270Y4727D02*
X279Y4727D01*
X309Y4727D02*
X318Y4727D01*
X341Y4727D02*
X350Y4727D01*
X381Y4727D02*
X390Y4727D01*
X413Y4727D02*
X424Y4727D01*
X452Y4727D02*
X461Y4727D01*
X495Y4727D02*
X504Y4727D01*
X577Y4727D02*
X586Y4727D01*
X668Y4727D02*
X677Y4727D01*
X721Y4727D02*
X730Y4727D01*
X74Y4726D02*
X86Y4726D01*
X125Y4726D02*
X135Y4726D01*
X165Y4726D02*
X174Y4726D01*
X197Y4726D02*
X206Y4726D01*
X237Y4726D02*
X246Y4726D01*
X270Y4726D02*
X279Y4726D01*
X309Y4726D02*
X318Y4726D01*
X341Y4726D02*
X350Y4726D01*
X381Y4726D02*
X390Y4726D01*
X413Y4726D02*
X423Y4726D01*
X452Y4726D02*
X461Y4726D01*
X495Y4726D02*
X504Y4726D01*
X577Y4726D02*
X586Y4726D01*
X668Y4726D02*
X677Y4726D01*
X721Y4726D02*
X730Y4726D01*
X74Y4725D02*
X86Y4725D01*
X125Y4725D02*
X135Y4725D01*
X165Y4725D02*
X174Y4725D01*
X197Y4725D02*
X206Y4725D01*
X237Y4725D02*
X246Y4725D01*
X270Y4725D02*
X279Y4725D01*
X309Y4725D02*
X318Y4725D01*
X341Y4725D02*
X350Y4725D01*
X381Y4725D02*
X390Y4725D01*
X413Y4725D02*
X422Y4725D01*
X452Y4725D02*
X461Y4725D01*
X495Y4725D02*
X504Y4725D01*
X577Y4725D02*
X586Y4725D01*
X643Y4725D02*
X664Y4725D01*
X668Y4725D02*
X677Y4725D01*
X721Y4725D02*
X730Y4725D01*
X75Y4724D02*
X87Y4724D01*
X125Y4724D02*
X135Y4724D01*
X165Y4724D02*
X174Y4724D01*
X197Y4724D02*
X206Y4724D01*
X237Y4724D02*
X246Y4724D01*
X270Y4724D02*
X279Y4724D01*
X309Y4724D02*
X318Y4724D01*
X341Y4724D02*
X350Y4724D01*
X381Y4724D02*
X390Y4724D01*
X413Y4724D02*
X422Y4724D01*
X452Y4724D02*
X461Y4724D01*
X495Y4724D02*
X504Y4724D01*
X577Y4724D02*
X586Y4724D01*
X638Y4724D02*
X677Y4724D01*
X721Y4724D02*
X730Y4724D01*
X76Y4723D02*
X88Y4723D01*
X125Y4723D02*
X135Y4723D01*
X165Y4723D02*
X174Y4723D01*
X197Y4723D02*
X206Y4723D01*
X237Y4723D02*
X246Y4723D01*
X270Y4723D02*
X279Y4723D01*
X309Y4723D02*
X318Y4723D01*
X341Y4723D02*
X350Y4723D01*
X381Y4723D02*
X390Y4723D01*
X413Y4723D02*
X422Y4723D01*
X452Y4723D02*
X461Y4723D01*
X495Y4723D02*
X504Y4723D01*
X577Y4723D02*
X586Y4723D01*
X637Y4723D02*
X677Y4723D01*
X721Y4723D02*
X730Y4723D01*
X77Y4722D02*
X89Y4722D01*
X125Y4722D02*
X135Y4722D01*
X165Y4722D02*
X174Y4722D01*
X197Y4722D02*
X206Y4722D01*
X237Y4722D02*
X246Y4722D01*
X270Y4722D02*
X279Y4722D01*
X309Y4722D02*
X318Y4722D01*
X341Y4722D02*
X350Y4722D01*
X381Y4722D02*
X390Y4722D01*
X413Y4722D02*
X422Y4722D01*
X452Y4722D02*
X461Y4722D01*
X495Y4722D02*
X504Y4722D01*
X577Y4722D02*
X586Y4722D01*
X635Y4722D02*
X677Y4722D01*
X721Y4722D02*
X730Y4722D01*
X78Y4721D02*
X90Y4721D01*
X125Y4721D02*
X135Y4721D01*
X165Y4721D02*
X174Y4721D01*
X197Y4721D02*
X206Y4721D01*
X237Y4721D02*
X246Y4721D01*
X270Y4721D02*
X279Y4721D01*
X309Y4721D02*
X318Y4721D01*
X341Y4721D02*
X351Y4721D01*
X381Y4721D02*
X390Y4721D01*
X413Y4721D02*
X422Y4721D01*
X452Y4721D02*
X461Y4721D01*
X495Y4721D02*
X504Y4721D01*
X577Y4721D02*
X586Y4721D01*
X634Y4721D02*
X677Y4721D01*
X721Y4721D02*
X730Y4721D01*
X78Y4720D02*
X90Y4720D01*
X125Y4720D02*
X174Y4720D01*
X197Y4720D02*
X206Y4720D01*
X237Y4720D02*
X246Y4720D01*
X270Y4720D02*
X279Y4720D01*
X309Y4720D02*
X318Y4720D01*
X341Y4720D02*
X390Y4720D01*
X413Y4720D02*
X422Y4720D01*
X452Y4720D02*
X461Y4720D01*
X495Y4720D02*
X504Y4720D01*
X577Y4720D02*
X586Y4720D01*
X633Y4720D02*
X677Y4720D01*
X721Y4720D02*
X730Y4720D01*
X79Y4719D02*
X91Y4719D01*
X125Y4719D02*
X174Y4719D01*
X197Y4719D02*
X206Y4719D01*
X237Y4719D02*
X246Y4719D01*
X270Y4719D02*
X279Y4719D01*
X309Y4719D02*
X318Y4719D01*
X341Y4719D02*
X390Y4719D01*
X413Y4719D02*
X422Y4719D01*
X452Y4719D02*
X461Y4719D01*
X495Y4719D02*
X504Y4719D01*
X577Y4719D02*
X586Y4719D01*
X632Y4719D02*
X677Y4719D01*
X721Y4719D02*
X730Y4719D01*
X80Y4718D02*
X92Y4718D01*
X125Y4718D02*
X174Y4718D01*
X197Y4718D02*
X206Y4718D01*
X237Y4718D02*
X246Y4718D01*
X270Y4718D02*
X279Y4718D01*
X309Y4718D02*
X318Y4718D01*
X341Y4718D02*
X390Y4718D01*
X413Y4718D02*
X422Y4718D01*
X452Y4718D02*
X461Y4718D01*
X495Y4718D02*
X504Y4718D01*
X577Y4718D02*
X586Y4718D01*
X632Y4718D02*
X677Y4718D01*
X721Y4718D02*
X730Y4718D01*
X81Y4717D02*
X93Y4717D01*
X125Y4717D02*
X174Y4717D01*
X197Y4717D02*
X206Y4717D01*
X237Y4717D02*
X246Y4717D01*
X270Y4717D02*
X279Y4717D01*
X309Y4717D02*
X318Y4717D01*
X341Y4717D02*
X390Y4717D01*
X413Y4717D02*
X422Y4717D01*
X452Y4717D02*
X461Y4717D01*
X495Y4717D02*
X504Y4717D01*
X577Y4717D02*
X586Y4717D01*
X631Y4717D02*
X677Y4717D01*
X721Y4717D02*
X730Y4717D01*
X81Y4716D02*
X93Y4716D01*
X125Y4716D02*
X174Y4716D01*
X197Y4716D02*
X206Y4716D01*
X237Y4716D02*
X246Y4716D01*
X270Y4716D02*
X279Y4716D01*
X309Y4716D02*
X318Y4716D01*
X341Y4716D02*
X390Y4716D01*
X413Y4716D02*
X422Y4716D01*
X452Y4716D02*
X461Y4716D01*
X495Y4716D02*
X504Y4716D01*
X577Y4716D02*
X586Y4716D01*
X630Y4716D02*
X677Y4716D01*
X721Y4716D02*
X730Y4716D01*
X82Y4715D02*
X94Y4715D01*
X125Y4715D02*
X174Y4715D01*
X197Y4715D02*
X206Y4715D01*
X237Y4715D02*
X246Y4715D01*
X270Y4715D02*
X279Y4715D01*
X309Y4715D02*
X318Y4715D01*
X341Y4715D02*
X390Y4715D01*
X413Y4715D02*
X422Y4715D01*
X452Y4715D02*
X461Y4715D01*
X495Y4715D02*
X504Y4715D01*
X577Y4715D02*
X586Y4715D01*
X630Y4715D02*
X643Y4715D01*
X664Y4715D02*
X677Y4715D01*
X721Y4715D02*
X730Y4715D01*
X83Y4714D02*
X95Y4714D01*
X125Y4714D02*
X174Y4714D01*
X197Y4714D02*
X206Y4714D01*
X237Y4714D02*
X246Y4714D01*
X270Y4714D02*
X279Y4714D01*
X309Y4714D02*
X318Y4714D01*
X341Y4714D02*
X390Y4714D01*
X413Y4714D02*
X422Y4714D01*
X452Y4714D02*
X461Y4714D01*
X495Y4714D02*
X504Y4714D01*
X577Y4714D02*
X586Y4714D01*
X630Y4714D02*
X640Y4714D01*
X666Y4714D02*
X677Y4714D01*
X721Y4714D02*
X730Y4714D01*
X84Y4713D02*
X96Y4713D01*
X125Y4713D02*
X173Y4713D01*
X197Y4713D02*
X206Y4713D01*
X237Y4713D02*
X246Y4713D01*
X270Y4713D02*
X279Y4713D01*
X309Y4713D02*
X318Y4713D01*
X341Y4713D02*
X389Y4713D01*
X413Y4713D02*
X422Y4713D01*
X452Y4713D02*
X461Y4713D01*
X495Y4713D02*
X504Y4713D01*
X577Y4713D02*
X586Y4713D01*
X630Y4713D02*
X639Y4713D01*
X667Y4713D02*
X677Y4713D01*
X721Y4713D02*
X730Y4713D01*
X85Y4712D02*
X97Y4712D01*
X125Y4712D02*
X172Y4712D01*
X197Y4712D02*
X206Y4712D01*
X237Y4712D02*
X246Y4712D01*
X270Y4712D02*
X279Y4712D01*
X309Y4712D02*
X318Y4712D01*
X341Y4712D02*
X388Y4712D01*
X413Y4712D02*
X422Y4712D01*
X452Y4712D02*
X461Y4712D01*
X495Y4712D02*
X504Y4712D01*
X577Y4712D02*
X586Y4712D01*
X629Y4712D02*
X639Y4712D01*
X668Y4712D02*
X677Y4712D01*
X721Y4712D02*
X730Y4712D01*
X85Y4711D02*
X97Y4711D01*
X125Y4711D02*
X170Y4711D01*
X197Y4711D02*
X206Y4711D01*
X237Y4711D02*
X246Y4711D01*
X270Y4711D02*
X279Y4711D01*
X309Y4711D02*
X318Y4711D01*
X341Y4711D02*
X386Y4711D01*
X413Y4711D02*
X422Y4711D01*
X452Y4711D02*
X461Y4711D01*
X495Y4711D02*
X504Y4711D01*
X577Y4711D02*
X586Y4711D01*
X629Y4711D02*
X639Y4711D01*
X668Y4711D02*
X677Y4711D01*
X721Y4711D02*
X730Y4711D01*
X86Y4710D02*
X98Y4710D01*
X125Y4710D02*
X135Y4710D01*
X197Y4710D02*
X206Y4710D01*
X237Y4710D02*
X246Y4710D01*
X270Y4710D02*
X279Y4710D01*
X309Y4710D02*
X318Y4710D01*
X341Y4710D02*
X350Y4710D01*
X413Y4710D02*
X422Y4710D01*
X452Y4710D02*
X462Y4710D01*
X495Y4710D02*
X504Y4710D01*
X577Y4710D02*
X586Y4710D01*
X629Y4710D02*
X638Y4710D01*
X668Y4710D02*
X678Y4710D01*
X721Y4710D02*
X730Y4710D01*
X87Y4709D02*
X99Y4709D01*
X125Y4709D02*
X135Y4709D01*
X197Y4709D02*
X206Y4709D01*
X236Y4709D02*
X246Y4709D01*
X270Y4709D02*
X280Y4709D01*
X307Y4709D02*
X318Y4709D01*
X341Y4709D02*
X350Y4709D01*
X413Y4709D02*
X422Y4709D01*
X453Y4709D02*
X462Y4709D01*
X495Y4709D02*
X504Y4709D01*
X577Y4709D02*
X586Y4709D01*
X629Y4709D02*
X638Y4709D01*
X668Y4709D02*
X678Y4709D01*
X721Y4709D02*
X730Y4709D01*
X58Y4708D02*
X58Y4708D01*
X88Y4708D02*
X100Y4708D01*
X125Y4708D02*
X135Y4708D01*
X197Y4708D02*
X206Y4708D01*
X235Y4708D02*
X246Y4708D01*
X270Y4708D02*
X280Y4708D01*
X306Y4708D02*
X318Y4708D01*
X341Y4708D02*
X350Y4708D01*
X413Y4708D02*
X422Y4708D01*
X453Y4708D02*
X462Y4708D01*
X495Y4708D02*
X504Y4708D01*
X529Y4708D02*
X530Y4708D01*
X577Y4708D02*
X586Y4708D01*
X629Y4708D02*
X638Y4708D01*
X668Y4708D02*
X678Y4708D01*
X721Y4708D02*
X730Y4708D01*
X55Y4707D02*
X61Y4707D01*
X88Y4707D02*
X100Y4707D01*
X125Y4707D02*
X135Y4707D01*
X197Y4707D02*
X207Y4707D01*
X234Y4707D02*
X246Y4707D01*
X270Y4707D02*
X280Y4707D01*
X304Y4707D02*
X318Y4707D01*
X341Y4707D02*
X351Y4707D01*
X413Y4707D02*
X422Y4707D01*
X453Y4707D02*
X462Y4707D01*
X495Y4707D02*
X504Y4707D01*
X527Y4707D02*
X532Y4707D01*
X577Y4707D02*
X586Y4707D01*
X629Y4707D02*
X638Y4707D01*
X668Y4707D02*
X678Y4707D01*
X721Y4707D02*
X730Y4707D01*
X54Y4706D02*
X61Y4706D01*
X89Y4706D02*
X101Y4706D01*
X126Y4706D02*
X135Y4706D01*
X198Y4706D02*
X207Y4706D01*
X233Y4706D02*
X246Y4706D01*
X270Y4706D02*
X280Y4706D01*
X303Y4706D02*
X318Y4706D01*
X341Y4706D02*
X351Y4706D01*
X413Y4706D02*
X422Y4706D01*
X453Y4706D02*
X462Y4706D01*
X495Y4706D02*
X504Y4706D01*
X526Y4706D02*
X533Y4706D01*
X577Y4706D02*
X586Y4706D01*
X629Y4706D02*
X638Y4706D01*
X668Y4706D02*
X678Y4706D01*
X721Y4706D02*
X730Y4706D01*
X54Y4705D02*
X62Y4705D01*
X90Y4705D02*
X101Y4705D01*
X126Y4705D02*
X135Y4705D01*
X198Y4705D02*
X207Y4705D01*
X231Y4705D02*
X246Y4705D01*
X271Y4705D02*
X280Y4705D01*
X301Y4705D02*
X318Y4705D01*
X342Y4705D02*
X351Y4705D01*
X413Y4705D02*
X422Y4705D01*
X453Y4705D02*
X462Y4705D01*
X495Y4705D02*
X504Y4705D01*
X526Y4705D02*
X534Y4705D01*
X577Y4705D02*
X586Y4705D01*
X629Y4705D02*
X638Y4705D01*
X667Y4705D02*
X678Y4705D01*
X721Y4705D02*
X730Y4705D01*
X54Y4704D02*
X62Y4704D01*
X91Y4704D02*
X102Y4704D01*
X126Y4704D02*
X136Y4704D01*
X198Y4704D02*
X208Y4704D01*
X230Y4704D02*
X246Y4704D01*
X271Y4704D02*
X280Y4704D01*
X300Y4704D02*
X318Y4704D01*
X342Y4704D02*
X352Y4704D01*
X413Y4704D02*
X422Y4704D01*
X453Y4704D02*
X462Y4704D01*
X495Y4704D02*
X504Y4704D01*
X525Y4704D02*
X534Y4704D01*
X577Y4704D02*
X586Y4704D01*
X629Y4704D02*
X638Y4704D01*
X665Y4704D02*
X678Y4704D01*
X721Y4704D02*
X730Y4704D01*
X53Y4703D02*
X63Y4703D01*
X92Y4703D02*
X102Y4703D01*
X126Y4703D02*
X137Y4703D01*
X198Y4703D02*
X209Y4703D01*
X229Y4703D02*
X246Y4703D01*
X271Y4703D02*
X280Y4703D01*
X298Y4703D02*
X318Y4703D01*
X342Y4703D02*
X353Y4703D01*
X413Y4703D02*
X422Y4703D01*
X453Y4703D02*
X462Y4703D01*
X495Y4703D02*
X505Y4703D01*
X525Y4703D02*
X534Y4703D01*
X577Y4703D02*
X586Y4703D01*
X629Y4703D02*
X639Y4703D01*
X663Y4703D02*
X678Y4703D01*
X721Y4703D02*
X730Y4703D01*
X54Y4702D02*
X63Y4702D01*
X92Y4702D02*
X102Y4702D01*
X126Y4702D02*
X138Y4702D01*
X198Y4702D02*
X210Y4702D01*
X228Y4702D02*
X246Y4702D01*
X271Y4702D02*
X281Y4702D01*
X296Y4702D02*
X318Y4702D01*
X342Y4702D02*
X354Y4702D01*
X413Y4702D02*
X422Y4702D01*
X453Y4702D02*
X462Y4702D01*
X495Y4702D02*
X505Y4702D01*
X524Y4702D02*
X534Y4702D01*
X577Y4702D02*
X586Y4702D01*
X630Y4702D02*
X639Y4702D01*
X662Y4702D02*
X678Y4702D01*
X721Y4702D02*
X730Y4702D01*
X54Y4701D02*
X63Y4701D01*
X93Y4701D02*
X102Y4701D01*
X127Y4701D02*
X140Y4701D01*
X199Y4701D02*
X212Y4701D01*
X227Y4701D02*
X246Y4701D01*
X271Y4701D02*
X281Y4701D01*
X295Y4701D02*
X318Y4701D01*
X343Y4701D02*
X356Y4701D01*
X413Y4701D02*
X422Y4701D01*
X453Y4701D02*
X462Y4701D01*
X496Y4701D02*
X506Y4701D01*
X523Y4701D02*
X534Y4701D01*
X577Y4701D02*
X586Y4701D01*
X630Y4701D02*
X640Y4701D01*
X660Y4701D02*
X678Y4701D01*
X721Y4701D02*
X730Y4701D01*
X54Y4700D02*
X65Y4700D01*
X93Y4700D02*
X102Y4700D01*
X127Y4700D02*
X141Y4700D01*
X199Y4700D02*
X213Y4700D01*
X225Y4700D02*
X246Y4700D01*
X271Y4700D02*
X283Y4700D01*
X293Y4700D02*
X318Y4700D01*
X343Y4700D02*
X357Y4700D01*
X413Y4700D02*
X422Y4700D01*
X453Y4700D02*
X462Y4700D01*
X496Y4700D02*
X507Y4700D01*
X522Y4700D02*
X533Y4700D01*
X577Y4700D02*
X586Y4700D01*
X630Y4700D02*
X641Y4700D01*
X658Y4700D02*
X678Y4700D01*
X721Y4700D02*
X730Y4700D01*
X54Y4699D02*
X102Y4699D01*
X128Y4699D02*
X171Y4699D01*
X200Y4699D02*
X246Y4699D01*
X272Y4699D02*
X318Y4699D01*
X344Y4699D02*
X387Y4699D01*
X413Y4699D02*
X422Y4699D01*
X453Y4699D02*
X462Y4699D01*
X496Y4699D02*
X533Y4699D01*
X565Y4699D02*
X598Y4699D01*
X630Y4699D02*
X678Y4699D01*
X709Y4699D02*
X742Y4699D01*
X54Y4698D02*
X102Y4698D01*
X129Y4698D02*
X173Y4698D01*
X201Y4698D02*
X246Y4698D01*
X272Y4698D02*
X318Y4698D01*
X345Y4698D02*
X389Y4698D01*
X413Y4698D02*
X422Y4698D01*
X453Y4698D02*
X462Y4698D01*
X497Y4698D02*
X533Y4698D01*
X564Y4698D02*
X600Y4698D01*
X631Y4698D02*
X678Y4698D01*
X708Y4698D02*
X744Y4698D01*
X55Y4697D02*
X101Y4697D01*
X130Y4697D02*
X173Y4697D01*
X202Y4697D02*
X246Y4697D01*
X273Y4697D02*
X306Y4697D01*
X309Y4697D02*
X318Y4697D01*
X346Y4697D02*
X389Y4697D01*
X413Y4697D02*
X422Y4697D01*
X453Y4697D02*
X462Y4697D01*
X497Y4697D02*
X532Y4697D01*
X563Y4697D02*
X600Y4697D01*
X631Y4697D02*
X678Y4697D01*
X707Y4697D02*
X744Y4697D01*
X55Y4696D02*
X101Y4696D01*
X131Y4696D02*
X174Y4696D01*
X203Y4696D02*
X246Y4696D01*
X273Y4696D02*
X305Y4696D01*
X309Y4696D02*
X318Y4696D01*
X347Y4696D02*
X390Y4696D01*
X413Y4696D02*
X422Y4696D01*
X453Y4696D02*
X462Y4696D01*
X498Y4696D02*
X531Y4696D01*
X562Y4696D02*
X601Y4696D01*
X632Y4696D02*
X678Y4696D01*
X706Y4696D02*
X745Y4696D01*
X56Y4695D02*
X100Y4695D01*
X132Y4695D02*
X174Y4695D01*
X204Y4695D02*
X235Y4695D01*
X237Y4695D02*
X246Y4695D01*
X274Y4695D02*
X303Y4695D01*
X309Y4695D02*
X318Y4695D01*
X348Y4695D02*
X390Y4695D01*
X413Y4695D02*
X422Y4695D01*
X453Y4695D02*
X462Y4695D01*
X499Y4695D02*
X531Y4695D01*
X562Y4695D02*
X601Y4695D01*
X633Y4695D02*
X678Y4695D01*
X706Y4695D02*
X745Y4695D01*
X57Y4694D02*
X100Y4694D01*
X133Y4694D02*
X174Y4694D01*
X205Y4694D02*
X234Y4694D01*
X237Y4694D02*
X246Y4694D01*
X275Y4694D02*
X302Y4694D01*
X309Y4694D02*
X318Y4694D01*
X349Y4694D02*
X390Y4694D01*
X413Y4694D02*
X422Y4694D01*
X453Y4694D02*
X462Y4694D01*
X500Y4694D02*
X530Y4694D01*
X562Y4694D02*
X601Y4694D01*
X634Y4694D02*
X667Y4694D01*
X669Y4694D02*
X678Y4694D01*
X706Y4694D02*
X745Y4694D01*
X58Y4693D02*
X99Y4693D01*
X134Y4693D02*
X174Y4693D01*
X206Y4693D02*
X232Y4693D01*
X237Y4693D02*
X246Y4693D01*
X276Y4693D02*
X300Y4693D01*
X309Y4693D02*
X318Y4693D01*
X350Y4693D02*
X390Y4693D01*
X414Y4693D02*
X422Y4693D01*
X453Y4693D02*
X462Y4693D01*
X501Y4693D02*
X528Y4693D01*
X563Y4693D02*
X601Y4693D01*
X635Y4693D02*
X665Y4693D01*
X669Y4693D02*
X678Y4693D01*
X706Y4693D02*
X745Y4693D01*
X59Y4692D02*
X98Y4692D01*
X136Y4692D02*
X173Y4692D01*
X208Y4692D02*
X231Y4692D01*
X237Y4692D02*
X246Y4692D01*
X277Y4692D02*
X298Y4692D01*
X310Y4692D02*
X317Y4692D01*
X352Y4692D02*
X389Y4692D01*
X414Y4692D02*
X422Y4692D01*
X454Y4692D02*
X461Y4692D01*
X502Y4692D02*
X527Y4692D01*
X563Y4692D02*
X600Y4692D01*
X636Y4692D02*
X664Y4692D01*
X670Y4692D02*
X677Y4692D01*
X707Y4692D02*
X744Y4692D01*
X61Y4691D02*
X96Y4691D01*
X138Y4691D02*
X173Y4691D01*
X210Y4691D02*
X229Y4691D01*
X237Y4691D02*
X246Y4691D01*
X279Y4691D02*
X297Y4691D01*
X311Y4691D02*
X317Y4691D01*
X354Y4691D02*
X389Y4691D01*
X415Y4691D02*
X421Y4691D01*
X455Y4691D02*
X460Y4691D01*
X504Y4691D02*
X525Y4691D01*
X564Y4691D02*
X599Y4691D01*
X638Y4691D02*
X662Y4691D01*
X671Y4691D02*
X676Y4691D01*
X708Y4691D02*
X743Y4691D01*
X64Y4690D02*
X94Y4690D01*
X140Y4690D02*
X171Y4690D01*
X212Y4690D02*
X226Y4690D01*
X237Y4690D02*
X246Y4690D01*
X282Y4690D02*
X294Y4690D01*
X312Y4690D02*
X315Y4690D01*
X356Y4690D02*
X387Y4690D01*
X416Y4690D02*
X419Y4690D01*
X456Y4690D02*
X459Y4690D01*
X507Y4690D02*
X523Y4690D01*
X565Y4690D02*
X598Y4690D01*
X641Y4690D02*
X660Y4690D01*
X672Y4690D02*
X675Y4690D01*
X709Y4690D02*
X742Y4690D01*
X237Y4689D02*
X246Y4689D01*
X237Y4688D02*
X246Y4688D01*
X237Y4687D02*
X246Y4687D01*
X237Y4686D02*
X246Y4686D01*
X237Y4685D02*
X246Y4685D01*
X237Y4684D02*
X246Y4684D01*
X237Y4683D02*
X246Y4683D01*
X237Y4682D02*
X246Y4682D01*
X237Y4681D02*
X246Y4681D01*
X359Y4681D02*
X367Y4681D01*
X237Y4680D02*
X246Y4680D01*
X357Y4680D02*
X369Y4680D01*
X237Y4679D02*
X246Y4679D01*
X357Y4679D02*
X369Y4679D01*
X237Y4678D02*
X246Y4678D01*
X356Y4678D02*
X370Y4678D01*
X206Y4677D02*
X246Y4677D01*
X356Y4677D02*
X370Y4677D01*
X560Y4677D02*
X563Y4677D01*
X203Y4676D02*
X246Y4676D01*
X356Y4676D02*
X370Y4676D01*
X559Y4676D02*
X565Y4676D01*
X202Y4675D02*
X246Y4675D01*
X356Y4675D02*
X370Y4675D01*
X558Y4675D02*
X565Y4675D01*
X201Y4674D02*
X246Y4674D01*
X356Y4674D02*
X370Y4674D01*
X557Y4674D02*
X566Y4674D01*
X200Y4673D02*
X246Y4673D01*
X356Y4673D02*
X370Y4673D01*
X427Y4673D02*
X428Y4673D01*
X557Y4673D02*
X566Y4673D01*
X199Y4672D02*
X246Y4672D01*
X356Y4672D02*
X370Y4672D01*
X425Y4672D02*
X430Y4672D01*
X557Y4672D02*
X566Y4672D01*
X198Y4671D02*
X246Y4671D01*
X356Y4671D02*
X370Y4671D01*
X424Y4671D02*
X431Y4671D01*
X557Y4671D02*
X566Y4671D01*
X198Y4670D02*
X245Y4670D01*
X357Y4670D02*
X369Y4670D01*
X424Y4670D02*
X432Y4670D01*
X557Y4670D02*
X566Y4670D01*
X198Y4669D02*
X245Y4669D01*
X357Y4669D02*
X369Y4669D01*
X423Y4669D02*
X432Y4669D01*
X557Y4669D02*
X566Y4669D01*
X197Y4668D02*
X245Y4668D01*
X359Y4668D02*
X368Y4668D01*
X423Y4668D02*
X432Y4668D01*
X557Y4668D02*
X566Y4668D01*
X197Y4667D02*
X207Y4667D01*
X235Y4667D02*
X246Y4667D01*
X423Y4667D02*
X432Y4667D01*
X557Y4667D02*
X566Y4667D01*
X197Y4666D02*
X206Y4666D01*
X236Y4666D02*
X246Y4666D01*
X423Y4666D02*
X432Y4666D01*
X557Y4666D02*
X566Y4666D01*
X197Y4665D02*
X207Y4665D01*
X237Y4665D02*
X246Y4665D01*
X423Y4665D02*
X432Y4665D01*
X557Y4665D02*
X566Y4665D01*
X197Y4664D02*
X208Y4664D01*
X237Y4664D02*
X246Y4664D01*
X423Y4664D02*
X432Y4664D01*
X557Y4664D02*
X566Y4664D01*
X198Y4663D02*
X208Y4663D01*
X237Y4663D02*
X246Y4663D01*
X423Y4663D02*
X432Y4663D01*
X557Y4663D02*
X566Y4663D01*
X198Y4662D02*
X209Y4662D01*
X237Y4662D02*
X246Y4662D01*
X423Y4662D02*
X432Y4662D01*
X557Y4662D02*
X566Y4662D01*
X198Y4661D02*
X210Y4661D01*
X238Y4661D02*
X245Y4661D01*
X423Y4661D02*
X432Y4661D01*
X557Y4661D02*
X566Y4661D01*
X199Y4660D02*
X211Y4660D01*
X239Y4660D02*
X244Y4660D01*
X423Y4660D02*
X432Y4660D01*
X557Y4660D02*
X566Y4660D01*
X200Y4659D02*
X211Y4659D01*
X241Y4659D02*
X242Y4659D01*
X423Y4659D02*
X432Y4659D01*
X557Y4659D02*
X566Y4659D01*
X200Y4658D02*
X212Y4658D01*
X423Y4658D02*
X432Y4658D01*
X557Y4658D02*
X566Y4658D01*
X201Y4657D02*
X213Y4657D01*
X423Y4657D02*
X432Y4657D01*
X557Y4657D02*
X566Y4657D01*
X202Y4656D02*
X214Y4656D01*
X272Y4656D02*
X273Y4656D01*
X314Y4656D02*
X315Y4656D01*
X350Y4656D02*
X366Y4656D01*
X417Y4656D02*
X453Y4656D01*
X507Y4656D02*
X530Y4656D01*
X557Y4656D02*
X566Y4656D01*
X583Y4656D02*
X592Y4656D01*
X203Y4655D02*
X215Y4655D01*
X270Y4655D02*
X275Y4655D01*
X312Y4655D02*
X317Y4655D01*
X348Y4655D02*
X368Y4655D01*
X415Y4655D02*
X455Y4655D01*
X503Y4655D02*
X532Y4655D01*
X557Y4655D02*
X566Y4655D01*
X579Y4655D02*
X596Y4655D01*
X203Y4654D02*
X215Y4654D01*
X269Y4654D02*
X276Y4654D01*
X311Y4654D02*
X318Y4654D01*
X347Y4654D02*
X369Y4654D01*
X414Y4654D02*
X456Y4654D01*
X501Y4654D02*
X533Y4654D01*
X557Y4654D02*
X566Y4654D01*
X577Y4654D02*
X597Y4654D01*
X204Y4653D02*
X216Y4653D01*
X269Y4653D02*
X277Y4653D01*
X310Y4653D02*
X319Y4653D01*
X347Y4653D02*
X370Y4653D01*
X414Y4653D02*
X456Y4653D01*
X499Y4653D02*
X534Y4653D01*
X557Y4653D02*
X566Y4653D01*
X576Y4653D02*
X599Y4653D01*
X205Y4652D02*
X217Y4652D01*
X268Y4652D02*
X277Y4652D01*
X310Y4652D02*
X319Y4652D01*
X346Y4652D02*
X370Y4652D01*
X413Y4652D02*
X457Y4652D01*
X498Y4652D02*
X534Y4652D01*
X557Y4652D02*
X566Y4652D01*
X574Y4652D02*
X600Y4652D01*
X206Y4651D02*
X218Y4651D01*
X268Y4651D02*
X277Y4651D01*
X310Y4651D02*
X319Y4651D01*
X346Y4651D02*
X370Y4651D01*
X413Y4651D02*
X457Y4651D01*
X497Y4651D02*
X534Y4651D01*
X557Y4651D02*
X566Y4651D01*
X572Y4651D02*
X601Y4651D01*
X207Y4650D02*
X218Y4650D01*
X268Y4650D02*
X277Y4650D01*
X310Y4650D02*
X319Y4650D01*
X346Y4650D02*
X370Y4650D01*
X413Y4650D02*
X457Y4650D01*
X496Y4650D02*
X534Y4650D01*
X557Y4650D02*
X566Y4650D01*
X571Y4650D02*
X602Y4650D01*
X207Y4649D02*
X219Y4649D01*
X268Y4649D02*
X277Y4649D01*
X310Y4649D02*
X319Y4649D01*
X347Y4649D02*
X370Y4649D01*
X414Y4649D02*
X456Y4649D01*
X495Y4649D02*
X533Y4649D01*
X557Y4649D02*
X566Y4649D01*
X569Y4649D02*
X602Y4649D01*
X208Y4648D02*
X220Y4648D01*
X268Y4648D02*
X277Y4648D01*
X310Y4648D02*
X319Y4648D01*
X347Y4648D02*
X370Y4648D01*
X414Y4648D02*
X456Y4648D01*
X493Y4648D02*
X533Y4648D01*
X557Y4648D02*
X603Y4648D01*
X209Y4647D02*
X221Y4647D01*
X268Y4647D02*
X277Y4647D01*
X310Y4647D02*
X319Y4647D01*
X348Y4647D02*
X370Y4647D01*
X415Y4647D02*
X455Y4647D01*
X492Y4647D02*
X532Y4647D01*
X557Y4647D02*
X603Y4647D01*
X210Y4646D02*
X222Y4646D01*
X268Y4646D02*
X277Y4646D01*
X310Y4646D02*
X319Y4646D01*
X361Y4646D02*
X370Y4646D01*
X423Y4646D02*
X433Y4646D01*
X491Y4646D02*
X507Y4646D01*
X557Y4646D02*
X583Y4646D01*
X591Y4646D02*
X604Y4646D01*
X210Y4645D02*
X222Y4645D01*
X268Y4645D02*
X277Y4645D01*
X310Y4645D02*
X319Y4645D01*
X361Y4645D02*
X370Y4645D01*
X423Y4645D02*
X432Y4645D01*
X490Y4645D02*
X505Y4645D01*
X557Y4645D02*
X581Y4645D01*
X594Y4645D02*
X604Y4645D01*
X211Y4644D02*
X223Y4644D01*
X268Y4644D02*
X277Y4644D01*
X310Y4644D02*
X319Y4644D01*
X361Y4644D02*
X370Y4644D01*
X423Y4644D02*
X432Y4644D01*
X489Y4644D02*
X504Y4644D01*
X557Y4644D02*
X579Y4644D01*
X594Y4644D02*
X604Y4644D01*
X212Y4643D02*
X224Y4643D01*
X268Y4643D02*
X278Y4643D01*
X310Y4643D02*
X319Y4643D01*
X361Y4643D02*
X370Y4643D01*
X423Y4643D02*
X432Y4643D01*
X488Y4643D02*
X502Y4643D01*
X557Y4643D02*
X578Y4643D01*
X595Y4643D02*
X604Y4643D01*
X213Y4642D02*
X225Y4642D01*
X268Y4642D02*
X278Y4642D01*
X310Y4642D02*
X319Y4642D01*
X361Y4642D02*
X370Y4642D01*
X423Y4642D02*
X432Y4642D01*
X488Y4642D02*
X501Y4642D01*
X557Y4642D02*
X576Y4642D01*
X595Y4642D02*
X605Y4642D01*
X213Y4641D02*
X225Y4641D01*
X268Y4641D02*
X278Y4641D01*
X310Y4641D02*
X319Y4641D01*
X361Y4641D02*
X370Y4641D01*
X423Y4641D02*
X432Y4641D01*
X487Y4641D02*
X500Y4641D01*
X557Y4641D02*
X575Y4641D01*
X596Y4641D02*
X605Y4641D01*
X214Y4640D02*
X226Y4640D01*
X269Y4640D02*
X278Y4640D01*
X310Y4640D02*
X319Y4640D01*
X361Y4640D02*
X370Y4640D01*
X423Y4640D02*
X432Y4640D01*
X486Y4640D02*
X499Y4640D01*
X557Y4640D02*
X573Y4640D01*
X596Y4640D02*
X605Y4640D01*
X215Y4639D02*
X227Y4639D01*
X269Y4639D02*
X278Y4639D01*
X293Y4639D02*
X294Y4639D01*
X309Y4639D02*
X319Y4639D01*
X361Y4639D02*
X370Y4639D01*
X423Y4639D02*
X432Y4639D01*
X486Y4639D02*
X498Y4639D01*
X557Y4639D02*
X572Y4639D01*
X596Y4639D02*
X605Y4639D01*
X216Y4638D02*
X228Y4638D01*
X269Y4638D02*
X278Y4638D01*
X291Y4638D02*
X296Y4638D01*
X309Y4638D02*
X319Y4638D01*
X361Y4638D02*
X370Y4638D01*
X423Y4638D02*
X432Y4638D01*
X486Y4638D02*
X497Y4638D01*
X557Y4638D02*
X570Y4638D01*
X596Y4638D02*
X605Y4638D01*
X217Y4637D02*
X229Y4637D01*
X269Y4637D02*
X278Y4637D01*
X290Y4637D02*
X297Y4637D01*
X309Y4637D02*
X319Y4637D01*
X361Y4637D02*
X370Y4637D01*
X423Y4637D02*
X432Y4637D01*
X486Y4637D02*
X495Y4637D01*
X557Y4637D02*
X568Y4637D01*
X596Y4637D02*
X605Y4637D01*
X217Y4636D02*
X229Y4636D01*
X269Y4636D02*
X278Y4636D01*
X289Y4636D02*
X298Y4636D01*
X309Y4636D02*
X318Y4636D01*
X361Y4636D02*
X370Y4636D01*
X423Y4636D02*
X432Y4636D01*
X485Y4636D02*
X495Y4636D01*
X557Y4636D02*
X567Y4636D01*
X596Y4636D02*
X605Y4636D01*
X218Y4635D02*
X230Y4635D01*
X269Y4635D02*
X278Y4635D01*
X289Y4635D02*
X298Y4635D01*
X309Y4635D02*
X318Y4635D01*
X361Y4635D02*
X370Y4635D01*
X423Y4635D02*
X432Y4635D01*
X485Y4635D02*
X494Y4635D01*
X557Y4635D02*
X566Y4635D01*
X596Y4635D02*
X605Y4635D01*
X219Y4634D02*
X231Y4634D01*
X269Y4634D02*
X278Y4634D01*
X289Y4634D02*
X298Y4634D01*
X309Y4634D02*
X318Y4634D01*
X361Y4634D02*
X370Y4634D01*
X423Y4634D02*
X432Y4634D01*
X485Y4634D02*
X494Y4634D01*
X557Y4634D02*
X566Y4634D01*
X596Y4634D02*
X605Y4634D01*
X220Y4633D02*
X232Y4633D01*
X269Y4633D02*
X278Y4633D01*
X289Y4633D02*
X298Y4633D01*
X309Y4633D02*
X318Y4633D01*
X361Y4633D02*
X370Y4633D01*
X423Y4633D02*
X432Y4633D01*
X485Y4633D02*
X494Y4633D01*
X557Y4633D02*
X566Y4633D01*
X596Y4633D02*
X605Y4633D01*
X220Y4632D02*
X232Y4632D01*
X269Y4632D02*
X278Y4632D01*
X289Y4632D02*
X298Y4632D01*
X309Y4632D02*
X318Y4632D01*
X361Y4632D02*
X370Y4632D01*
X423Y4632D02*
X432Y4632D01*
X485Y4632D02*
X494Y4632D01*
X557Y4632D02*
X566Y4632D01*
X596Y4632D02*
X605Y4632D01*
X221Y4631D02*
X233Y4631D01*
X269Y4631D02*
X278Y4631D01*
X289Y4631D02*
X298Y4631D01*
X309Y4631D02*
X318Y4631D01*
X361Y4631D02*
X370Y4631D01*
X423Y4631D02*
X432Y4631D01*
X485Y4631D02*
X494Y4631D01*
X557Y4631D02*
X566Y4631D01*
X596Y4631D02*
X605Y4631D01*
X222Y4630D02*
X234Y4630D01*
X269Y4630D02*
X278Y4630D01*
X289Y4630D02*
X298Y4630D01*
X309Y4630D02*
X318Y4630D01*
X361Y4630D02*
X370Y4630D01*
X423Y4630D02*
X432Y4630D01*
X485Y4630D02*
X494Y4630D01*
X557Y4630D02*
X566Y4630D01*
X596Y4630D02*
X605Y4630D01*
X223Y4629D02*
X235Y4629D01*
X269Y4629D02*
X278Y4629D01*
X289Y4629D02*
X298Y4629D01*
X309Y4629D02*
X318Y4629D01*
X361Y4629D02*
X370Y4629D01*
X423Y4629D02*
X432Y4629D01*
X485Y4629D02*
X494Y4629D01*
X557Y4629D02*
X566Y4629D01*
X596Y4629D02*
X605Y4629D01*
X224Y4628D02*
X236Y4628D01*
X269Y4628D02*
X278Y4628D01*
X289Y4628D02*
X298Y4628D01*
X309Y4628D02*
X318Y4628D01*
X361Y4628D02*
X370Y4628D01*
X423Y4628D02*
X432Y4628D01*
X485Y4628D02*
X494Y4628D01*
X557Y4628D02*
X566Y4628D01*
X596Y4628D02*
X605Y4628D01*
X224Y4627D02*
X236Y4627D01*
X269Y4627D02*
X278Y4627D01*
X289Y4627D02*
X298Y4627D01*
X309Y4627D02*
X318Y4627D01*
X361Y4627D02*
X370Y4627D01*
X423Y4627D02*
X432Y4627D01*
X485Y4627D02*
X494Y4627D01*
X557Y4627D02*
X566Y4627D01*
X596Y4627D02*
X605Y4627D01*
X225Y4626D02*
X237Y4626D01*
X269Y4626D02*
X278Y4626D01*
X289Y4626D02*
X298Y4626D01*
X309Y4626D02*
X318Y4626D01*
X361Y4626D02*
X370Y4626D01*
X423Y4626D02*
X432Y4626D01*
X485Y4626D02*
X494Y4626D01*
X557Y4626D02*
X566Y4626D01*
X596Y4626D02*
X605Y4626D01*
X226Y4625D02*
X238Y4625D01*
X269Y4625D02*
X278Y4625D01*
X289Y4625D02*
X298Y4625D01*
X309Y4625D02*
X318Y4625D01*
X361Y4625D02*
X370Y4625D01*
X423Y4625D02*
X432Y4625D01*
X485Y4625D02*
X494Y4625D01*
X557Y4625D02*
X566Y4625D01*
X596Y4625D02*
X605Y4625D01*
X227Y4624D02*
X239Y4624D01*
X269Y4624D02*
X278Y4624D01*
X289Y4624D02*
X298Y4624D01*
X309Y4624D02*
X318Y4624D01*
X361Y4624D02*
X370Y4624D01*
X423Y4624D02*
X432Y4624D01*
X485Y4624D02*
X494Y4624D01*
X557Y4624D02*
X566Y4624D01*
X596Y4624D02*
X605Y4624D01*
X227Y4623D02*
X239Y4623D01*
X269Y4623D02*
X278Y4623D01*
X289Y4623D02*
X298Y4623D01*
X309Y4623D02*
X318Y4623D01*
X361Y4623D02*
X370Y4623D01*
X423Y4623D02*
X432Y4623D01*
X485Y4623D02*
X494Y4623D01*
X557Y4623D02*
X566Y4623D01*
X596Y4623D02*
X605Y4623D01*
X228Y4622D02*
X240Y4622D01*
X269Y4622D02*
X278Y4622D01*
X289Y4622D02*
X299Y4622D01*
X309Y4622D02*
X318Y4622D01*
X361Y4622D02*
X370Y4622D01*
X423Y4622D02*
X432Y4622D01*
X485Y4622D02*
X494Y4622D01*
X557Y4622D02*
X566Y4622D01*
X596Y4622D02*
X605Y4622D01*
X229Y4621D02*
X241Y4621D01*
X269Y4621D02*
X279Y4621D01*
X288Y4621D02*
X299Y4621D01*
X309Y4621D02*
X318Y4621D01*
X361Y4621D02*
X370Y4621D01*
X423Y4621D02*
X432Y4621D01*
X485Y4621D02*
X494Y4621D01*
X557Y4621D02*
X566Y4621D01*
X596Y4621D02*
X605Y4621D01*
X230Y4620D02*
X242Y4620D01*
X269Y4620D02*
X279Y4620D01*
X287Y4620D02*
X300Y4620D01*
X308Y4620D02*
X318Y4620D01*
X361Y4620D02*
X370Y4620D01*
X423Y4620D02*
X432Y4620D01*
X485Y4620D02*
X495Y4620D01*
X557Y4620D02*
X566Y4620D01*
X596Y4620D02*
X605Y4620D01*
X231Y4619D02*
X243Y4619D01*
X270Y4619D02*
X279Y4619D01*
X287Y4619D02*
X300Y4619D01*
X308Y4619D02*
X318Y4619D01*
X361Y4619D02*
X370Y4619D01*
X423Y4619D02*
X432Y4619D01*
X485Y4619D02*
X495Y4619D01*
X557Y4619D02*
X566Y4619D01*
X596Y4619D02*
X605Y4619D01*
X231Y4618D02*
X243Y4618D01*
X270Y4618D02*
X279Y4618D01*
X286Y4618D02*
X301Y4618D01*
X308Y4618D02*
X317Y4618D01*
X361Y4618D02*
X370Y4618D01*
X423Y4618D02*
X432Y4618D01*
X486Y4618D02*
X496Y4618D01*
X557Y4618D02*
X566Y4618D01*
X596Y4618D02*
X605Y4618D01*
X199Y4617D02*
X204Y4617D01*
X232Y4617D02*
X244Y4617D01*
X270Y4617D02*
X280Y4617D01*
X286Y4617D02*
X301Y4617D01*
X307Y4617D02*
X317Y4617D01*
X361Y4617D02*
X370Y4617D01*
X423Y4617D02*
X432Y4617D01*
X455Y4617D02*
X460Y4617D01*
X486Y4617D02*
X497Y4617D01*
X557Y4617D02*
X566Y4617D01*
X596Y4617D02*
X605Y4617D01*
X198Y4616D02*
X205Y4616D01*
X233Y4616D02*
X245Y4616D01*
X271Y4616D02*
X280Y4616D01*
X285Y4616D02*
X302Y4616D01*
X307Y4616D02*
X317Y4616D01*
X361Y4616D02*
X370Y4616D01*
X423Y4616D02*
X432Y4616D01*
X454Y4616D02*
X461Y4616D01*
X486Y4616D02*
X498Y4616D01*
X557Y4616D02*
X566Y4616D01*
X596Y4616D02*
X605Y4616D01*
X198Y4615D02*
X206Y4615D01*
X234Y4615D02*
X245Y4615D01*
X271Y4615D02*
X280Y4615D01*
X285Y4615D02*
X303Y4615D01*
X307Y4615D02*
X316Y4615D01*
X361Y4615D02*
X370Y4615D01*
X423Y4615D02*
X432Y4615D01*
X454Y4615D02*
X461Y4615D01*
X487Y4615D02*
X499Y4615D01*
X557Y4615D02*
X566Y4615D01*
X596Y4615D02*
X606Y4615D01*
X197Y4614D02*
X206Y4614D01*
X234Y4614D02*
X246Y4614D01*
X271Y4614D02*
X281Y4614D01*
X284Y4614D02*
X303Y4614D01*
X307Y4614D02*
X316Y4614D01*
X361Y4614D02*
X370Y4614D01*
X423Y4614D02*
X432Y4614D01*
X453Y4614D02*
X462Y4614D01*
X487Y4614D02*
X501Y4614D01*
X557Y4614D02*
X566Y4614D01*
X596Y4614D02*
X606Y4614D01*
X197Y4613D02*
X206Y4613D01*
X235Y4613D02*
X246Y4613D01*
X271Y4613D02*
X281Y4613D01*
X283Y4613D02*
X304Y4613D01*
X306Y4613D02*
X316Y4613D01*
X361Y4613D02*
X370Y4613D01*
X423Y4613D02*
X432Y4613D01*
X453Y4613D02*
X462Y4613D01*
X488Y4613D02*
X502Y4613D01*
X557Y4613D02*
X566Y4613D01*
X597Y4613D02*
X606Y4613D01*
X197Y4612D02*
X207Y4612D01*
X236Y4612D02*
X246Y4612D01*
X272Y4612D02*
X281Y4612D01*
X283Y4612D02*
X304Y4612D01*
X306Y4612D02*
X316Y4612D01*
X361Y4612D02*
X370Y4612D01*
X423Y4612D02*
X433Y4612D01*
X452Y4612D02*
X462Y4612D01*
X489Y4612D02*
X503Y4612D01*
X557Y4612D02*
X566Y4612D01*
X597Y4612D02*
X606Y4612D01*
X197Y4611D02*
X207Y4611D01*
X237Y4611D02*
X246Y4611D01*
X272Y4611D02*
X315Y4611D01*
X361Y4611D02*
X370Y4611D01*
X423Y4611D02*
X434Y4611D01*
X451Y4611D02*
X462Y4611D01*
X490Y4611D02*
X504Y4611D01*
X557Y4611D02*
X566Y4611D01*
X597Y4611D02*
X606Y4611D01*
X198Y4610D02*
X208Y4610D01*
X237Y4610D02*
X246Y4610D01*
X272Y4610D02*
X292Y4610D01*
X295Y4610D02*
X315Y4610D01*
X361Y4610D02*
X370Y4610D01*
X424Y4610D02*
X435Y4610D01*
X450Y4610D02*
X461Y4610D01*
X491Y4610D02*
X506Y4610D01*
X557Y4610D02*
X566Y4610D01*
X597Y4610D02*
X606Y4610D01*
X198Y4609D02*
X246Y4609D01*
X273Y4609D02*
X292Y4609D01*
X295Y4609D02*
X315Y4609D01*
X349Y4609D02*
X382Y4609D01*
X424Y4609D02*
X461Y4609D01*
X492Y4609D02*
X531Y4609D01*
X557Y4609D02*
X566Y4609D01*
X597Y4609D02*
X606Y4609D01*
X198Y4608D02*
X246Y4608D01*
X273Y4608D02*
X291Y4608D01*
X296Y4608D02*
X314Y4608D01*
X348Y4608D02*
X383Y4608D01*
X425Y4608D02*
X461Y4608D01*
X493Y4608D02*
X532Y4608D01*
X557Y4608D02*
X566Y4608D01*
X597Y4608D02*
X606Y4608D01*
X199Y4607D02*
X245Y4607D01*
X273Y4607D02*
X291Y4607D01*
X297Y4607D02*
X314Y4607D01*
X347Y4607D02*
X384Y4607D01*
X425Y4607D02*
X460Y4607D01*
X494Y4607D02*
X533Y4607D01*
X557Y4607D02*
X566Y4607D01*
X597Y4607D02*
X606Y4607D01*
X199Y4606D02*
X245Y4606D01*
X273Y4606D02*
X290Y4606D01*
X297Y4606D02*
X314Y4606D01*
X346Y4606D02*
X385Y4606D01*
X426Y4606D02*
X459Y4606D01*
X495Y4606D02*
X534Y4606D01*
X557Y4606D02*
X566Y4606D01*
X597Y4606D02*
X606Y4606D01*
X200Y4605D02*
X244Y4605D01*
X274Y4605D02*
X289Y4605D01*
X298Y4605D02*
X313Y4605D01*
X346Y4605D02*
X385Y4605D01*
X427Y4605D02*
X459Y4605D01*
X497Y4605D02*
X534Y4605D01*
X557Y4605D02*
X566Y4605D01*
X597Y4605D02*
X606Y4605D01*
X201Y4604D02*
X244Y4604D01*
X274Y4604D02*
X289Y4604D01*
X298Y4604D02*
X313Y4604D01*
X346Y4604D02*
X385Y4604D01*
X427Y4604D02*
X458Y4604D01*
X498Y4604D02*
X534Y4604D01*
X557Y4604D02*
X566Y4604D01*
X597Y4604D02*
X606Y4604D01*
X202Y4603D02*
X243Y4603D01*
X274Y4603D02*
X288Y4603D01*
X299Y4603D02*
X313Y4603D01*
X346Y4603D02*
X385Y4603D01*
X428Y4603D02*
X457Y4603D01*
X499Y4603D02*
X534Y4603D01*
X557Y4603D02*
X566Y4603D01*
X597Y4603D02*
X606Y4603D01*
X203Y4602D02*
X242Y4602D01*
X275Y4602D02*
X288Y4602D01*
X300Y4602D02*
X312Y4602D01*
X347Y4602D02*
X384Y4602D01*
X430Y4602D02*
X455Y4602D01*
X500Y4602D02*
X533Y4602D01*
X558Y4602D02*
X566Y4602D01*
X598Y4602D02*
X605Y4602D01*
X204Y4601D02*
X240Y4601D01*
X276Y4601D02*
X287Y4601D01*
X300Y4601D02*
X312Y4601D01*
X348Y4601D02*
X384Y4601D01*
X431Y4601D02*
X454Y4601D01*
X502Y4601D02*
X533Y4601D01*
X559Y4601D02*
X565Y4601D01*
X598Y4601D02*
X604Y4601D01*
X207Y4600D02*
X238Y4600D01*
X277Y4600D02*
X286Y4600D01*
X302Y4600D02*
X310Y4600D01*
X349Y4600D02*
X382Y4600D01*
X434Y4600D02*
X451Y4600D01*
X504Y4600D02*
X531Y4600D01*
X560Y4600D02*
X563Y4600D01*
X600Y4600D02*
X603Y4600D01*
X81Y4479D02*
X113Y4479D01*
X145Y4479D02*
X194Y4479D01*
X217Y4479D02*
X264Y4479D01*
X289Y4479D02*
X328Y4479D01*
X429Y4479D02*
X467Y4479D01*
X501Y4479D02*
X547Y4479D01*
X580Y4479D02*
X612Y4479D01*
X645Y4479D02*
X691Y4479D01*
X717Y4479D02*
X766Y4479D01*
X79Y4478D02*
X115Y4478D01*
X145Y4478D02*
X194Y4478D01*
X217Y4478D02*
X265Y4478D01*
X289Y4478D02*
X330Y4478D01*
X429Y4478D02*
X469Y4478D01*
X501Y4478D02*
X548Y4478D01*
X578Y4478D02*
X615Y4478D01*
X645Y4478D02*
X692Y4478D01*
X717Y4478D02*
X766Y4478D01*
X77Y4477D02*
X117Y4477D01*
X145Y4477D02*
X194Y4477D01*
X217Y4477D02*
X266Y4477D01*
X289Y4477D02*
X332Y4477D01*
X429Y4477D02*
X471Y4477D01*
X501Y4477D02*
X549Y4477D01*
X577Y4477D02*
X616Y4477D01*
X645Y4477D02*
X693Y4477D01*
X717Y4477D02*
X766Y4477D01*
X76Y4476D02*
X118Y4476D01*
X145Y4476D02*
X194Y4476D01*
X217Y4476D02*
X266Y4476D01*
X289Y4476D02*
X333Y4476D01*
X429Y4476D02*
X472Y4476D01*
X501Y4476D02*
X549Y4476D01*
X576Y4476D02*
X617Y4476D01*
X645Y4476D02*
X693Y4476D01*
X717Y4476D02*
X766Y4476D01*
X76Y4475D02*
X119Y4475D01*
X145Y4475D02*
X194Y4475D01*
X217Y4475D02*
X266Y4475D01*
X289Y4475D02*
X334Y4475D01*
X429Y4475D02*
X473Y4475D01*
X501Y4475D02*
X550Y4475D01*
X575Y4475D02*
X618Y4475D01*
X645Y4475D02*
X693Y4475D01*
X717Y4475D02*
X766Y4475D01*
X75Y4474D02*
X120Y4474D01*
X145Y4474D02*
X194Y4474D01*
X217Y4474D02*
X266Y4474D01*
X289Y4474D02*
X335Y4474D01*
X429Y4474D02*
X474Y4474D01*
X501Y4474D02*
X549Y4474D01*
X574Y4474D02*
X619Y4474D01*
X645Y4474D02*
X693Y4474D01*
X717Y4474D02*
X766Y4474D01*
X74Y4473D02*
X120Y4473D01*
X145Y4473D02*
X194Y4473D01*
X217Y4473D02*
X266Y4473D01*
X289Y4473D02*
X336Y4473D01*
X429Y4473D02*
X475Y4473D01*
X501Y4473D02*
X549Y4473D01*
X574Y4473D02*
X620Y4473D01*
X645Y4473D02*
X693Y4473D01*
X717Y4473D02*
X766Y4473D01*
X74Y4472D02*
X121Y4472D01*
X145Y4472D02*
X194Y4472D01*
X217Y4472D02*
X265Y4472D01*
X289Y4472D02*
X336Y4472D01*
X429Y4472D02*
X476Y4472D01*
X501Y4472D02*
X549Y4472D01*
X573Y4472D02*
X620Y4472D01*
X645Y4472D02*
X693Y4472D01*
X717Y4472D02*
X766Y4472D01*
X74Y4471D02*
X121Y4471D01*
X145Y4471D02*
X194Y4471D01*
X217Y4471D02*
X264Y4471D01*
X289Y4471D02*
X337Y4471D01*
X429Y4471D02*
X476Y4471D01*
X501Y4471D02*
X548Y4471D01*
X573Y4471D02*
X621Y4471D01*
X645Y4471D02*
X692Y4471D01*
X717Y4471D02*
X766Y4471D01*
X74Y4470D02*
X122Y4470D01*
X145Y4470D02*
X194Y4470D01*
X217Y4470D02*
X262Y4470D01*
X289Y4470D02*
X337Y4470D01*
X429Y4470D02*
X477Y4470D01*
X501Y4470D02*
X546Y4470D01*
X573Y4470D02*
X621Y4470D01*
X645Y4470D02*
X690Y4470D01*
X717Y4470D02*
X766Y4470D01*
X74Y4469D02*
X83Y4469D01*
X112Y4469D02*
X122Y4469D01*
X145Y4469D02*
X155Y4469D01*
X165Y4469D02*
X174Y4469D01*
X185Y4469D02*
X194Y4469D01*
X217Y4469D02*
X227Y4469D01*
X289Y4469D02*
X299Y4469D01*
X326Y4469D02*
X338Y4469D01*
X429Y4469D02*
X438Y4469D01*
X466Y4469D02*
X477Y4469D01*
X501Y4469D02*
X510Y4469D01*
X573Y4469D02*
X582Y4469D01*
X611Y4469D02*
X621Y4469D01*
X645Y4469D02*
X654Y4469D01*
X717Y4469D02*
X726Y4469D01*
X737Y4469D02*
X746Y4469D01*
X756Y4469D02*
X766Y4469D01*
X74Y4468D02*
X83Y4468D01*
X113Y4468D02*
X122Y4468D01*
X145Y4468D02*
X155Y4468D01*
X165Y4468D02*
X174Y4468D01*
X185Y4468D02*
X194Y4468D01*
X217Y4468D02*
X227Y4468D01*
X289Y4468D02*
X299Y4468D01*
X328Y4468D02*
X338Y4468D01*
X429Y4468D02*
X438Y4468D01*
X467Y4468D02*
X477Y4468D01*
X501Y4468D02*
X510Y4468D01*
X573Y4468D02*
X582Y4468D01*
X612Y4468D02*
X621Y4468D01*
X645Y4468D02*
X654Y4468D01*
X717Y4468D02*
X726Y4468D01*
X737Y4468D02*
X746Y4468D01*
X756Y4468D02*
X766Y4468D01*
X74Y4467D02*
X83Y4467D01*
X113Y4467D02*
X122Y4467D01*
X145Y4467D02*
X155Y4467D01*
X165Y4467D02*
X174Y4467D01*
X185Y4467D02*
X194Y4467D01*
X217Y4467D02*
X227Y4467D01*
X289Y4467D02*
X299Y4467D01*
X328Y4467D02*
X338Y4467D01*
X429Y4467D02*
X438Y4467D01*
X468Y4467D02*
X477Y4467D01*
X501Y4467D02*
X510Y4467D01*
X573Y4467D02*
X583Y4467D01*
X612Y4467D02*
X621Y4467D01*
X645Y4467D02*
X654Y4467D01*
X717Y4467D02*
X726Y4467D01*
X737Y4467D02*
X746Y4467D01*
X756Y4467D02*
X766Y4467D01*
X74Y4466D02*
X84Y4466D01*
X113Y4466D02*
X122Y4466D01*
X146Y4466D02*
X155Y4466D01*
X165Y4466D02*
X174Y4466D01*
X185Y4466D02*
X194Y4466D01*
X217Y4466D02*
X227Y4466D01*
X289Y4466D02*
X299Y4466D01*
X329Y4466D02*
X338Y4466D01*
X429Y4466D02*
X438Y4466D01*
X468Y4466D02*
X477Y4466D01*
X501Y4466D02*
X510Y4466D01*
X573Y4466D02*
X583Y4466D01*
X613Y4466D02*
X622Y4466D01*
X645Y4466D02*
X654Y4466D01*
X717Y4466D02*
X726Y4466D01*
X737Y4466D02*
X746Y4466D01*
X756Y4466D02*
X765Y4466D01*
X74Y4465D02*
X85Y4465D01*
X113Y4465D02*
X122Y4465D01*
X146Y4465D02*
X154Y4465D01*
X165Y4465D02*
X174Y4465D01*
X185Y4465D02*
X194Y4465D01*
X217Y4465D02*
X227Y4465D01*
X289Y4465D02*
X299Y4465D01*
X329Y4465D02*
X338Y4465D01*
X429Y4465D02*
X438Y4465D01*
X468Y4465D02*
X478Y4465D01*
X501Y4465D02*
X510Y4465D01*
X573Y4465D02*
X584Y4465D01*
X613Y4465D02*
X621Y4465D01*
X645Y4465D02*
X654Y4465D01*
X717Y4465D02*
X726Y4465D01*
X737Y4465D02*
X746Y4465D01*
X757Y4465D02*
X765Y4465D01*
X74Y4464D02*
X86Y4464D01*
X114Y4464D02*
X122Y4464D01*
X146Y4464D02*
X154Y4464D01*
X165Y4464D02*
X174Y4464D01*
X186Y4464D02*
X194Y4464D01*
X217Y4464D02*
X227Y4464D01*
X289Y4464D02*
X299Y4464D01*
X329Y4464D02*
X338Y4464D01*
X429Y4464D02*
X438Y4464D01*
X468Y4464D02*
X478Y4464D01*
X501Y4464D02*
X510Y4464D01*
X574Y4464D02*
X585Y4464D01*
X613Y4464D02*
X621Y4464D01*
X645Y4464D02*
X654Y4464D01*
X717Y4464D02*
X725Y4464D01*
X737Y4464D02*
X746Y4464D01*
X757Y4464D02*
X765Y4464D01*
X75Y4463D02*
X87Y4463D01*
X114Y4463D02*
X121Y4463D01*
X147Y4463D02*
X153Y4463D01*
X165Y4463D02*
X174Y4463D01*
X186Y4463D02*
X193Y4463D01*
X217Y4463D02*
X227Y4463D01*
X289Y4463D02*
X299Y4463D01*
X329Y4463D02*
X338Y4463D01*
X429Y4463D02*
X438Y4463D01*
X468Y4463D02*
X478Y4463D01*
X501Y4463D02*
X510Y4463D01*
X574Y4463D02*
X586Y4463D01*
X614Y4463D02*
X620Y4463D01*
X645Y4463D02*
X654Y4463D01*
X718Y4463D02*
X725Y4463D01*
X737Y4463D02*
X746Y4463D01*
X758Y4463D02*
X764Y4463D01*
X75Y4462D02*
X87Y4462D01*
X116Y4462D02*
X120Y4462D01*
X148Y4462D02*
X152Y4462D01*
X165Y4462D02*
X174Y4462D01*
X188Y4462D02*
X192Y4462D01*
X217Y4462D02*
X227Y4462D01*
X289Y4462D02*
X299Y4462D01*
X329Y4462D02*
X338Y4462D01*
X429Y4462D02*
X438Y4462D01*
X468Y4462D02*
X478Y4462D01*
X501Y4462D02*
X510Y4462D01*
X575Y4462D02*
X587Y4462D01*
X615Y4462D02*
X619Y4462D01*
X645Y4462D02*
X654Y4462D01*
X719Y4462D02*
X723Y4462D01*
X737Y4462D02*
X746Y4462D01*
X759Y4462D02*
X763Y4462D01*
X76Y4461D02*
X88Y4461D01*
X165Y4461D02*
X174Y4461D01*
X217Y4461D02*
X227Y4461D01*
X289Y4461D02*
X299Y4461D01*
X329Y4461D02*
X338Y4461D01*
X429Y4461D02*
X438Y4461D01*
X468Y4461D02*
X478Y4461D01*
X501Y4461D02*
X510Y4461D01*
X575Y4461D02*
X587Y4461D01*
X645Y4461D02*
X654Y4461D01*
X737Y4461D02*
X746Y4461D01*
X77Y4460D02*
X89Y4460D01*
X165Y4460D02*
X174Y4460D01*
X217Y4460D02*
X227Y4460D01*
X289Y4460D02*
X299Y4460D01*
X329Y4460D02*
X338Y4460D01*
X429Y4460D02*
X438Y4460D01*
X468Y4460D02*
X478Y4460D01*
X501Y4460D02*
X510Y4460D01*
X576Y4460D02*
X588Y4460D01*
X645Y4460D02*
X654Y4460D01*
X737Y4460D02*
X746Y4460D01*
X78Y4459D02*
X90Y4459D01*
X165Y4459D02*
X174Y4459D01*
X217Y4459D02*
X227Y4459D01*
X289Y4459D02*
X299Y4459D01*
X329Y4459D02*
X338Y4459D01*
X429Y4459D02*
X438Y4459D01*
X468Y4459D02*
X478Y4459D01*
X501Y4459D02*
X510Y4459D01*
X577Y4459D02*
X589Y4459D01*
X645Y4459D02*
X654Y4459D01*
X737Y4459D02*
X746Y4459D01*
X78Y4458D02*
X90Y4458D01*
X165Y4458D02*
X174Y4458D01*
X217Y4458D02*
X227Y4458D01*
X289Y4458D02*
X299Y4458D01*
X329Y4458D02*
X338Y4458D01*
X429Y4458D02*
X438Y4458D01*
X468Y4458D02*
X477Y4458D01*
X501Y4458D02*
X510Y4458D01*
X578Y4458D02*
X590Y4458D01*
X645Y4458D02*
X654Y4458D01*
X737Y4458D02*
X746Y4458D01*
X79Y4457D02*
X91Y4457D01*
X165Y4457D02*
X174Y4457D01*
X217Y4457D02*
X227Y4457D01*
X289Y4457D02*
X299Y4457D01*
X329Y4457D02*
X338Y4457D01*
X429Y4457D02*
X438Y4457D01*
X468Y4457D02*
X477Y4457D01*
X501Y4457D02*
X510Y4457D01*
X578Y4457D02*
X590Y4457D01*
X645Y4457D02*
X654Y4457D01*
X737Y4457D02*
X746Y4457D01*
X80Y4456D02*
X92Y4456D01*
X165Y4456D02*
X174Y4456D01*
X217Y4456D02*
X227Y4456D01*
X289Y4456D02*
X299Y4456D01*
X329Y4456D02*
X338Y4456D01*
X429Y4456D02*
X438Y4456D01*
X467Y4456D02*
X477Y4456D01*
X501Y4456D02*
X510Y4456D01*
X579Y4456D02*
X591Y4456D01*
X645Y4456D02*
X654Y4456D01*
X737Y4456D02*
X746Y4456D01*
X81Y4455D02*
X93Y4455D01*
X165Y4455D02*
X174Y4455D01*
X217Y4455D02*
X227Y4455D01*
X289Y4455D02*
X299Y4455D01*
X329Y4455D02*
X338Y4455D01*
X429Y4455D02*
X438Y4455D01*
X466Y4455D02*
X477Y4455D01*
X501Y4455D02*
X510Y4455D01*
X580Y4455D02*
X592Y4455D01*
X645Y4455D02*
X654Y4455D01*
X737Y4455D02*
X746Y4455D01*
X82Y4454D02*
X94Y4454D01*
X165Y4454D02*
X174Y4454D01*
X217Y4454D02*
X227Y4454D01*
X289Y4454D02*
X299Y4454D01*
X329Y4454D02*
X338Y4454D01*
X429Y4454D02*
X477Y4454D01*
X501Y4454D02*
X510Y4454D01*
X581Y4454D02*
X593Y4454D01*
X645Y4454D02*
X654Y4454D01*
X737Y4454D02*
X746Y4454D01*
X82Y4453D02*
X94Y4453D01*
X165Y4453D02*
X174Y4453D01*
X217Y4453D02*
X227Y4453D01*
X289Y4453D02*
X299Y4453D01*
X329Y4453D02*
X338Y4453D01*
X429Y4453D02*
X476Y4453D01*
X501Y4453D02*
X510Y4453D01*
X582Y4453D02*
X594Y4453D01*
X645Y4453D02*
X654Y4453D01*
X737Y4453D02*
X746Y4453D01*
X83Y4452D02*
X95Y4452D01*
X165Y4452D02*
X174Y4452D01*
X217Y4452D02*
X227Y4452D01*
X289Y4452D02*
X299Y4452D01*
X329Y4452D02*
X338Y4452D01*
X429Y4452D02*
X476Y4452D01*
X501Y4452D02*
X510Y4452D01*
X582Y4452D02*
X594Y4452D01*
X645Y4452D02*
X654Y4452D01*
X737Y4452D02*
X746Y4452D01*
X84Y4451D02*
X96Y4451D01*
X165Y4451D02*
X174Y4451D01*
X217Y4451D02*
X227Y4451D01*
X289Y4451D02*
X299Y4451D01*
X329Y4451D02*
X338Y4451D01*
X429Y4451D02*
X475Y4451D01*
X501Y4451D02*
X510Y4451D01*
X583Y4451D02*
X595Y4451D01*
X645Y4451D02*
X654Y4451D01*
X737Y4451D02*
X746Y4451D01*
X85Y4450D02*
X97Y4450D01*
X165Y4450D02*
X174Y4450D01*
X217Y4450D02*
X227Y4450D01*
X289Y4450D02*
X299Y4450D01*
X329Y4450D02*
X338Y4450D01*
X429Y4450D02*
X474Y4450D01*
X501Y4450D02*
X510Y4450D01*
X584Y4450D02*
X596Y4450D01*
X645Y4450D02*
X654Y4450D01*
X737Y4450D02*
X746Y4450D01*
X85Y4449D02*
X97Y4449D01*
X165Y4449D02*
X174Y4449D01*
X217Y4449D02*
X227Y4449D01*
X289Y4449D02*
X299Y4449D01*
X329Y4449D02*
X338Y4449D01*
X429Y4449D02*
X473Y4449D01*
X501Y4449D02*
X510Y4449D01*
X585Y4449D02*
X597Y4449D01*
X645Y4449D02*
X654Y4449D01*
X737Y4449D02*
X746Y4449D01*
X86Y4448D02*
X98Y4448D01*
X165Y4448D02*
X174Y4448D01*
X217Y4448D02*
X227Y4448D01*
X289Y4448D02*
X299Y4448D01*
X329Y4448D02*
X338Y4448D01*
X429Y4448D02*
X472Y4448D01*
X501Y4448D02*
X510Y4448D01*
X585Y4448D02*
X597Y4448D01*
X645Y4448D02*
X654Y4448D01*
X737Y4448D02*
X746Y4448D01*
X87Y4447D02*
X99Y4447D01*
X165Y4447D02*
X174Y4447D01*
X217Y4447D02*
X227Y4447D01*
X289Y4447D02*
X299Y4447D01*
X329Y4447D02*
X338Y4447D01*
X429Y4447D02*
X471Y4447D01*
X501Y4447D02*
X510Y4447D01*
X586Y4447D02*
X598Y4447D01*
X645Y4447D02*
X654Y4447D01*
X737Y4447D02*
X746Y4447D01*
X88Y4446D02*
X100Y4446D01*
X165Y4446D02*
X174Y4446D01*
X217Y4446D02*
X227Y4446D01*
X289Y4446D02*
X299Y4446D01*
X329Y4446D02*
X338Y4446D01*
X429Y4446D02*
X469Y4446D01*
X501Y4446D02*
X510Y4446D01*
X587Y4446D02*
X599Y4446D01*
X645Y4446D02*
X654Y4446D01*
X737Y4446D02*
X746Y4446D01*
X89Y4445D02*
X101Y4445D01*
X165Y4445D02*
X174Y4445D01*
X217Y4445D02*
X244Y4445D01*
X289Y4445D02*
X299Y4445D01*
X329Y4445D02*
X338Y4445D01*
X429Y4445D02*
X467Y4445D01*
X501Y4445D02*
X527Y4445D01*
X588Y4445D02*
X600Y4445D01*
X645Y4445D02*
X671Y4445D01*
X737Y4445D02*
X746Y4445D01*
X89Y4444D02*
X101Y4444D01*
X165Y4444D02*
X174Y4444D01*
X217Y4444D02*
X245Y4444D01*
X289Y4444D02*
X299Y4444D01*
X328Y4444D02*
X338Y4444D01*
X429Y4444D02*
X438Y4444D01*
X446Y4444D02*
X457Y4444D01*
X501Y4444D02*
X528Y4444D01*
X589Y4444D02*
X601Y4444D01*
X645Y4444D02*
X672Y4444D01*
X737Y4444D02*
X746Y4444D01*
X90Y4443D02*
X102Y4443D01*
X165Y4443D02*
X174Y4443D01*
X217Y4443D02*
X246Y4443D01*
X289Y4443D02*
X299Y4443D01*
X327Y4443D02*
X338Y4443D01*
X429Y4443D02*
X438Y4443D01*
X446Y4443D02*
X457Y4443D01*
X501Y4443D02*
X529Y4443D01*
X589Y4443D02*
X601Y4443D01*
X645Y4443D02*
X673Y4443D01*
X737Y4443D02*
X746Y4443D01*
X91Y4442D02*
X103Y4442D01*
X165Y4442D02*
X174Y4442D01*
X217Y4442D02*
X246Y4442D01*
X289Y4442D02*
X299Y4442D01*
X326Y4442D02*
X337Y4442D01*
X429Y4442D02*
X438Y4442D01*
X447Y4442D02*
X458Y4442D01*
X501Y4442D02*
X529Y4442D01*
X590Y4442D02*
X602Y4442D01*
X645Y4442D02*
X673Y4442D01*
X737Y4442D02*
X746Y4442D01*
X92Y4441D02*
X104Y4441D01*
X165Y4441D02*
X174Y4441D01*
X217Y4441D02*
X246Y4441D01*
X289Y4441D02*
X337Y4441D01*
X429Y4441D02*
X438Y4441D01*
X448Y4441D02*
X458Y4441D01*
X501Y4441D02*
X530Y4441D01*
X591Y4441D02*
X603Y4441D01*
X645Y4441D02*
X674Y4441D01*
X737Y4441D02*
X746Y4441D01*
X92Y4440D02*
X104Y4440D01*
X165Y4440D02*
X174Y4440D01*
X217Y4440D02*
X246Y4440D01*
X289Y4440D02*
X337Y4440D01*
X429Y4440D02*
X438Y4440D01*
X448Y4440D02*
X459Y4440D01*
X501Y4440D02*
X530Y4440D01*
X592Y4440D02*
X604Y4440D01*
X645Y4440D02*
X674Y4440D01*
X737Y4440D02*
X746Y4440D01*
X93Y4439D02*
X105Y4439D01*
X165Y4439D02*
X174Y4439D01*
X217Y4439D02*
X246Y4439D01*
X289Y4439D02*
X336Y4439D01*
X429Y4439D02*
X438Y4439D01*
X449Y4439D02*
X460Y4439D01*
X501Y4439D02*
X529Y4439D01*
X592Y4439D02*
X604Y4439D01*
X645Y4439D02*
X673Y4439D01*
X737Y4439D02*
X746Y4439D01*
X94Y4438D02*
X106Y4438D01*
X165Y4438D02*
X174Y4438D01*
X217Y4438D02*
X245Y4438D01*
X289Y4438D02*
X335Y4438D01*
X429Y4438D02*
X438Y4438D01*
X449Y4438D02*
X460Y4438D01*
X501Y4438D02*
X529Y4438D01*
X593Y4438D02*
X605Y4438D01*
X645Y4438D02*
X673Y4438D01*
X737Y4438D02*
X746Y4438D01*
X95Y4437D02*
X107Y4437D01*
X165Y4437D02*
X174Y4437D01*
X217Y4437D02*
X244Y4437D01*
X289Y4437D02*
X335Y4437D01*
X429Y4437D02*
X438Y4437D01*
X450Y4437D02*
X461Y4437D01*
X501Y4437D02*
X528Y4437D01*
X594Y4437D02*
X606Y4437D01*
X645Y4437D02*
X672Y4437D01*
X737Y4437D02*
X746Y4437D01*
X96Y4436D02*
X108Y4436D01*
X165Y4436D02*
X174Y4436D01*
X217Y4436D02*
X242Y4436D01*
X289Y4436D02*
X334Y4436D01*
X429Y4436D02*
X438Y4436D01*
X451Y4436D02*
X461Y4436D01*
X501Y4436D02*
X526Y4436D01*
X595Y4436D02*
X607Y4436D01*
X645Y4436D02*
X670Y4436D01*
X737Y4436D02*
X746Y4436D01*
X96Y4435D02*
X108Y4435D01*
X165Y4435D02*
X174Y4435D01*
X217Y4435D02*
X227Y4435D01*
X289Y4435D02*
X332Y4435D01*
X429Y4435D02*
X438Y4435D01*
X451Y4435D02*
X462Y4435D01*
X501Y4435D02*
X510Y4435D01*
X596Y4435D02*
X608Y4435D01*
X645Y4435D02*
X654Y4435D01*
X737Y4435D02*
X746Y4435D01*
X97Y4434D02*
X109Y4434D01*
X165Y4434D02*
X174Y4434D01*
X217Y4434D02*
X227Y4434D01*
X289Y4434D02*
X331Y4434D01*
X429Y4434D02*
X438Y4434D01*
X452Y4434D02*
X463Y4434D01*
X501Y4434D02*
X510Y4434D01*
X596Y4434D02*
X608Y4434D01*
X645Y4434D02*
X654Y4434D01*
X737Y4434D02*
X746Y4434D01*
X98Y4433D02*
X110Y4433D01*
X165Y4433D02*
X174Y4433D01*
X217Y4433D02*
X227Y4433D01*
X289Y4433D02*
X329Y4433D01*
X429Y4433D02*
X438Y4433D01*
X452Y4433D02*
X463Y4433D01*
X501Y4433D02*
X510Y4433D01*
X597Y4433D02*
X609Y4433D01*
X645Y4433D02*
X654Y4433D01*
X737Y4433D02*
X746Y4433D01*
X99Y4432D02*
X111Y4432D01*
X165Y4432D02*
X174Y4432D01*
X217Y4432D02*
X227Y4432D01*
X289Y4432D02*
X327Y4432D01*
X429Y4432D02*
X438Y4432D01*
X453Y4432D02*
X464Y4432D01*
X501Y4432D02*
X510Y4432D01*
X598Y4432D02*
X610Y4432D01*
X645Y4432D02*
X654Y4432D01*
X737Y4432D02*
X746Y4432D01*
X99Y4431D02*
X111Y4431D01*
X165Y4431D02*
X174Y4431D01*
X217Y4431D02*
X227Y4431D01*
X289Y4431D02*
X299Y4431D01*
X429Y4431D02*
X438Y4431D01*
X453Y4431D02*
X464Y4431D01*
X501Y4431D02*
X510Y4431D01*
X599Y4431D02*
X611Y4431D01*
X645Y4431D02*
X654Y4431D01*
X737Y4431D02*
X746Y4431D01*
X100Y4430D02*
X112Y4430D01*
X165Y4430D02*
X174Y4430D01*
X217Y4430D02*
X227Y4430D01*
X289Y4430D02*
X299Y4430D01*
X429Y4430D02*
X438Y4430D01*
X454Y4430D02*
X465Y4430D01*
X501Y4430D02*
X510Y4430D01*
X599Y4430D02*
X611Y4430D01*
X645Y4430D02*
X654Y4430D01*
X737Y4430D02*
X746Y4430D01*
X101Y4429D02*
X113Y4429D01*
X165Y4429D02*
X174Y4429D01*
X217Y4429D02*
X227Y4429D01*
X289Y4429D02*
X299Y4429D01*
X429Y4429D02*
X438Y4429D01*
X455Y4429D02*
X465Y4429D01*
X501Y4429D02*
X510Y4429D01*
X600Y4429D02*
X612Y4429D01*
X645Y4429D02*
X654Y4429D01*
X737Y4429D02*
X746Y4429D01*
X102Y4428D02*
X114Y4428D01*
X165Y4428D02*
X174Y4428D01*
X217Y4428D02*
X227Y4428D01*
X289Y4428D02*
X299Y4428D01*
X429Y4428D02*
X438Y4428D01*
X455Y4428D02*
X466Y4428D01*
X501Y4428D02*
X510Y4428D01*
X601Y4428D02*
X613Y4428D01*
X645Y4428D02*
X654Y4428D01*
X737Y4428D02*
X746Y4428D01*
X103Y4427D02*
X115Y4427D01*
X165Y4427D02*
X174Y4427D01*
X217Y4427D02*
X227Y4427D01*
X289Y4427D02*
X299Y4427D01*
X429Y4427D02*
X438Y4427D01*
X456Y4427D02*
X467Y4427D01*
X501Y4427D02*
X510Y4427D01*
X602Y4427D02*
X614Y4427D01*
X645Y4427D02*
X654Y4427D01*
X737Y4427D02*
X746Y4427D01*
X103Y4426D02*
X115Y4426D01*
X165Y4426D02*
X174Y4426D01*
X217Y4426D02*
X227Y4426D01*
X289Y4426D02*
X299Y4426D01*
X429Y4426D02*
X438Y4426D01*
X456Y4426D02*
X467Y4426D01*
X501Y4426D02*
X510Y4426D01*
X603Y4426D02*
X615Y4426D01*
X645Y4426D02*
X654Y4426D01*
X737Y4426D02*
X746Y4426D01*
X104Y4425D02*
X116Y4425D01*
X165Y4425D02*
X174Y4425D01*
X217Y4425D02*
X227Y4425D01*
X289Y4425D02*
X299Y4425D01*
X429Y4425D02*
X438Y4425D01*
X457Y4425D02*
X468Y4425D01*
X501Y4425D02*
X510Y4425D01*
X603Y4425D02*
X615Y4425D01*
X645Y4425D02*
X654Y4425D01*
X737Y4425D02*
X746Y4425D01*
X105Y4424D02*
X117Y4424D01*
X165Y4424D02*
X174Y4424D01*
X217Y4424D02*
X227Y4424D01*
X289Y4424D02*
X299Y4424D01*
X429Y4424D02*
X438Y4424D01*
X458Y4424D02*
X468Y4424D01*
X501Y4424D02*
X510Y4424D01*
X604Y4424D02*
X616Y4424D01*
X645Y4424D02*
X654Y4424D01*
X737Y4424D02*
X746Y4424D01*
X106Y4423D02*
X118Y4423D01*
X165Y4423D02*
X174Y4423D01*
X217Y4423D02*
X227Y4423D01*
X289Y4423D02*
X299Y4423D01*
X429Y4423D02*
X438Y4423D01*
X458Y4423D02*
X469Y4423D01*
X501Y4423D02*
X510Y4423D01*
X605Y4423D02*
X617Y4423D01*
X645Y4423D02*
X654Y4423D01*
X737Y4423D02*
X746Y4423D01*
X106Y4422D02*
X118Y4422D01*
X165Y4422D02*
X174Y4422D01*
X217Y4422D02*
X227Y4422D01*
X289Y4422D02*
X299Y4422D01*
X429Y4422D02*
X438Y4422D01*
X459Y4422D02*
X470Y4422D01*
X501Y4422D02*
X510Y4422D01*
X606Y4422D02*
X618Y4422D01*
X645Y4422D02*
X654Y4422D01*
X737Y4422D02*
X746Y4422D01*
X107Y4421D02*
X119Y4421D01*
X165Y4421D02*
X174Y4421D01*
X217Y4421D02*
X227Y4421D01*
X289Y4421D02*
X299Y4421D01*
X429Y4421D02*
X438Y4421D01*
X459Y4421D02*
X470Y4421D01*
X501Y4421D02*
X510Y4421D01*
X606Y4421D02*
X618Y4421D01*
X645Y4421D02*
X654Y4421D01*
X737Y4421D02*
X746Y4421D01*
X77Y4420D02*
X79Y4420D01*
X108Y4420D02*
X120Y4420D01*
X165Y4420D02*
X174Y4420D01*
X217Y4420D02*
X227Y4420D01*
X289Y4420D02*
X299Y4420D01*
X429Y4420D02*
X438Y4420D01*
X460Y4420D02*
X471Y4420D01*
X501Y4420D02*
X510Y4420D01*
X576Y4420D02*
X579Y4420D01*
X607Y4420D02*
X619Y4420D01*
X645Y4420D02*
X654Y4420D01*
X737Y4420D02*
X746Y4420D01*
X75Y4419D02*
X81Y4419D01*
X109Y4419D02*
X121Y4419D01*
X165Y4419D02*
X174Y4419D01*
X217Y4419D02*
X227Y4419D01*
X289Y4419D02*
X299Y4419D01*
X429Y4419D02*
X438Y4419D01*
X460Y4419D02*
X471Y4419D01*
X501Y4419D02*
X510Y4419D01*
X574Y4419D02*
X580Y4419D01*
X608Y4419D02*
X620Y4419D01*
X645Y4419D02*
X654Y4419D01*
X737Y4419D02*
X746Y4419D01*
X74Y4418D02*
X82Y4418D01*
X109Y4418D02*
X121Y4418D01*
X165Y4418D02*
X174Y4418D01*
X217Y4418D02*
X227Y4418D01*
X289Y4418D02*
X299Y4418D01*
X429Y4418D02*
X438Y4418D01*
X461Y4418D02*
X472Y4418D01*
X501Y4418D02*
X510Y4418D01*
X574Y4418D02*
X581Y4418D01*
X609Y4418D02*
X620Y4418D01*
X645Y4418D02*
X654Y4418D01*
X737Y4418D02*
X746Y4418D01*
X74Y4417D02*
X82Y4417D01*
X110Y4417D02*
X122Y4417D01*
X165Y4417D02*
X174Y4417D01*
X217Y4417D02*
X227Y4417D01*
X289Y4417D02*
X299Y4417D01*
X429Y4417D02*
X438Y4417D01*
X462Y4417D02*
X472Y4417D01*
X501Y4417D02*
X510Y4417D01*
X573Y4417D02*
X582Y4417D01*
X609Y4417D02*
X621Y4417D01*
X645Y4417D02*
X654Y4417D01*
X737Y4417D02*
X746Y4417D01*
X74Y4416D02*
X82Y4416D01*
X111Y4416D02*
X122Y4416D01*
X165Y4416D02*
X174Y4416D01*
X217Y4416D02*
X227Y4416D01*
X289Y4416D02*
X299Y4416D01*
X429Y4416D02*
X438Y4416D01*
X462Y4416D02*
X473Y4416D01*
X501Y4416D02*
X510Y4416D01*
X573Y4416D02*
X582Y4416D01*
X610Y4416D02*
X621Y4416D01*
X645Y4416D02*
X654Y4416D01*
X737Y4416D02*
X746Y4416D01*
X74Y4415D02*
X83Y4415D01*
X112Y4415D02*
X122Y4415D01*
X165Y4415D02*
X174Y4415D01*
X217Y4415D02*
X227Y4415D01*
X289Y4415D02*
X299Y4415D01*
X429Y4415D02*
X438Y4415D01*
X463Y4415D02*
X474Y4415D01*
X501Y4415D02*
X510Y4415D01*
X573Y4415D02*
X582Y4415D01*
X611Y4415D02*
X621Y4415D01*
X645Y4415D02*
X654Y4415D01*
X737Y4415D02*
X746Y4415D01*
X74Y4414D02*
X83Y4414D01*
X113Y4414D02*
X122Y4414D01*
X165Y4414D02*
X174Y4414D01*
X217Y4414D02*
X227Y4414D01*
X289Y4414D02*
X299Y4414D01*
X429Y4414D02*
X438Y4414D01*
X463Y4414D02*
X474Y4414D01*
X501Y4414D02*
X510Y4414D01*
X573Y4414D02*
X582Y4414D01*
X612Y4414D02*
X621Y4414D01*
X645Y4414D02*
X654Y4414D01*
X737Y4414D02*
X746Y4414D01*
X74Y4413D02*
X84Y4413D01*
X113Y4413D02*
X122Y4413D01*
X165Y4413D02*
X174Y4413D01*
X217Y4413D02*
X227Y4413D01*
X289Y4413D02*
X299Y4413D01*
X429Y4413D02*
X438Y4413D01*
X464Y4413D02*
X475Y4413D01*
X501Y4413D02*
X510Y4413D01*
X573Y4413D02*
X583Y4413D01*
X612Y4413D02*
X622Y4413D01*
X645Y4413D02*
X654Y4413D01*
X737Y4413D02*
X746Y4413D01*
X74Y4412D02*
X86Y4412D01*
X112Y4412D02*
X122Y4412D01*
X165Y4412D02*
X174Y4412D01*
X217Y4412D02*
X227Y4412D01*
X289Y4412D02*
X299Y4412D01*
X429Y4412D02*
X438Y4412D01*
X465Y4412D02*
X475Y4412D01*
X501Y4412D02*
X510Y4412D01*
X573Y4412D02*
X585Y4412D01*
X612Y4412D02*
X621Y4412D01*
X645Y4412D02*
X654Y4412D01*
X737Y4412D02*
X746Y4412D01*
X74Y4411D02*
X122Y4411D01*
X165Y4411D02*
X174Y4411D01*
X217Y4411D02*
X264Y4411D01*
X289Y4411D02*
X299Y4411D01*
X429Y4411D02*
X438Y4411D01*
X465Y4411D02*
X476Y4411D01*
X501Y4411D02*
X547Y4411D01*
X574Y4411D02*
X621Y4411D01*
X645Y4411D02*
X691Y4411D01*
X737Y4411D02*
X746Y4411D01*
X75Y4410D02*
X122Y4410D01*
X165Y4410D02*
X174Y4410D01*
X217Y4410D02*
X265Y4410D01*
X289Y4410D02*
X299Y4410D01*
X429Y4410D02*
X438Y4410D01*
X466Y4410D02*
X477Y4410D01*
X501Y4410D02*
X548Y4410D01*
X574Y4410D02*
X621Y4410D01*
X645Y4410D02*
X692Y4410D01*
X737Y4410D02*
X746Y4410D01*
X75Y4409D02*
X121Y4409D01*
X165Y4409D02*
X174Y4409D01*
X217Y4409D02*
X266Y4409D01*
X289Y4409D02*
X299Y4409D01*
X429Y4409D02*
X438Y4409D01*
X466Y4409D02*
X477Y4409D01*
X501Y4409D02*
X549Y4409D01*
X574Y4409D02*
X621Y4409D01*
X645Y4409D02*
X693Y4409D01*
X737Y4409D02*
X746Y4409D01*
X76Y4408D02*
X121Y4408D01*
X165Y4408D02*
X174Y4408D01*
X217Y4408D02*
X266Y4408D01*
X289Y4408D02*
X299Y4408D01*
X429Y4408D02*
X438Y4408D01*
X467Y4408D02*
X477Y4408D01*
X501Y4408D02*
X549Y4408D01*
X575Y4408D02*
X620Y4408D01*
X645Y4408D02*
X693Y4408D01*
X737Y4408D02*
X746Y4408D01*
X77Y4407D02*
X120Y4407D01*
X165Y4407D02*
X174Y4407D01*
X217Y4407D02*
X266Y4407D01*
X289Y4407D02*
X299Y4407D01*
X429Y4407D02*
X438Y4407D01*
X468Y4407D02*
X478Y4407D01*
X501Y4407D02*
X550Y4407D01*
X576Y4407D02*
X620Y4407D01*
X645Y4407D02*
X693Y4407D01*
X737Y4407D02*
X746Y4407D01*
X77Y4406D02*
X119Y4406D01*
X165Y4406D02*
X174Y4406D01*
X217Y4406D02*
X266Y4406D01*
X290Y4406D02*
X298Y4406D01*
X429Y4406D02*
X438Y4406D01*
X468Y4406D02*
X477Y4406D01*
X501Y4406D02*
X549Y4406D01*
X577Y4406D02*
X619Y4406D01*
X645Y4406D02*
X693Y4406D01*
X737Y4406D02*
X745Y4406D01*
X79Y4405D02*
X119Y4405D01*
X166Y4405D02*
X174Y4405D01*
X217Y4405D02*
X266Y4405D01*
X290Y4405D02*
X298Y4405D01*
X429Y4405D02*
X438Y4405D01*
X469Y4405D02*
X477Y4405D01*
X501Y4405D02*
X549Y4405D01*
X578Y4405D02*
X618Y4405D01*
X645Y4405D02*
X693Y4405D01*
X737Y4405D02*
X745Y4405D01*
X80Y4404D02*
X117Y4404D01*
X166Y4404D02*
X173Y4404D01*
X217Y4404D02*
X265Y4404D01*
X290Y4404D02*
X297Y4404D01*
X430Y4404D02*
X437Y4404D01*
X469Y4404D02*
X477Y4404D01*
X501Y4404D02*
X549Y4404D01*
X579Y4404D02*
X617Y4404D01*
X645Y4404D02*
X693Y4404D01*
X738Y4404D02*
X745Y4404D01*
X82Y4403D02*
X116Y4403D01*
X167Y4403D02*
X172Y4403D01*
X217Y4403D02*
X264Y4403D01*
X291Y4403D02*
X297Y4403D01*
X431Y4403D02*
X436Y4403D01*
X470Y4403D02*
X476Y4403D01*
X501Y4403D02*
X548Y4403D01*
X581Y4403D02*
X615Y4403D01*
X645Y4403D02*
X692Y4403D01*
X738Y4403D02*
X744Y4403D01*
X86Y4402D02*
X112Y4402D01*
X170Y4402D02*
X170Y4402D01*
X218Y4402D02*
X262Y4402D01*
X294Y4402D02*
X294Y4402D01*
X433Y4402D02*
X434Y4402D01*
X472Y4402D02*
X474Y4402D01*
X501Y4402D02*
X546Y4402D01*
X584Y4402D02*
X612Y4402D01*
X645Y4402D02*
X690Y4402D01*
X740Y4402D02*
X742Y4402D01*
X338Y3608D02*
X375Y3608D01*
X336Y3607D02*
X378Y3607D01*
X335Y3606D02*
X379Y3606D01*
X334Y3605D02*
X380Y3605D01*
X334Y3604D02*
X381Y3604D01*
X334Y3603D02*
X382Y3603D01*
X334Y3602D02*
X382Y3602D01*
X335Y3601D02*
X382Y3601D01*
X335Y3600D02*
X383Y3600D01*
X337Y3599D02*
X383Y3599D01*
X374Y3598D02*
X383Y3598D01*
X374Y3597D02*
X383Y3597D01*
X374Y3596D02*
X383Y3596D01*
X374Y3595D02*
X383Y3595D01*
X374Y3594D02*
X383Y3594D01*
X374Y3593D02*
X383Y3593D01*
X374Y3592D02*
X383Y3592D01*
X374Y3591D02*
X383Y3591D01*
X374Y3590D02*
X383Y3590D01*
X374Y3589D02*
X383Y3589D01*
X374Y3588D02*
X383Y3588D01*
X374Y3587D02*
X383Y3587D01*
X374Y3586D02*
X383Y3586D01*
X374Y3585D02*
X383Y3585D01*
X374Y3584D02*
X383Y3584D01*
X374Y3583D02*
X383Y3583D01*
X374Y3582D02*
X383Y3582D01*
X374Y3581D02*
X383Y3581D01*
X374Y3580D02*
X383Y3580D01*
X374Y3579D02*
X383Y3579D01*
X374Y3578D02*
X383Y3578D01*
X374Y3577D02*
X383Y3577D01*
X374Y3576D02*
X383Y3576D01*
X374Y3575D02*
X383Y3575D01*
X342Y3574D02*
X383Y3574D01*
X339Y3573D02*
X383Y3573D01*
X338Y3572D02*
X383Y3572D01*
X337Y3571D02*
X382Y3571D01*
X336Y3570D02*
X382Y3570D01*
X335Y3569D02*
X381Y3569D01*
X335Y3568D02*
X380Y3568D01*
X335Y3567D02*
X380Y3567D01*
X334Y3566D02*
X378Y3566D01*
X334Y3565D02*
X376Y3565D01*
X334Y3564D02*
X343Y3564D01*
X334Y3563D02*
X343Y3563D01*
X334Y3562D02*
X343Y3562D01*
X334Y3561D02*
X343Y3561D01*
X334Y3560D02*
X343Y3560D01*
X334Y3559D02*
X343Y3559D01*
X334Y3558D02*
X343Y3558D01*
X334Y3557D02*
X343Y3557D01*
X334Y3556D02*
X343Y3556D01*
X334Y3555D02*
X343Y3555D01*
X334Y3554D02*
X343Y3554D01*
X334Y3553D02*
X343Y3553D01*
X334Y3552D02*
X343Y3552D01*
X334Y3551D02*
X343Y3551D01*
X334Y3550D02*
X343Y3550D01*
X334Y3549D02*
X343Y3549D01*
X334Y3548D02*
X343Y3548D01*
X334Y3547D02*
X343Y3547D01*
X334Y3546D02*
X343Y3546D01*
X334Y3545D02*
X343Y3545D01*
X334Y3544D02*
X343Y3544D01*
X334Y3543D02*
X343Y3543D01*
X334Y3542D02*
X343Y3542D01*
X334Y3541D02*
X343Y3541D01*
X334Y3540D02*
X380Y3540D01*
X334Y3539D02*
X381Y3539D01*
X334Y3538D02*
X382Y3538D01*
X334Y3537D02*
X383Y3537D01*
X334Y3536D02*
X383Y3536D01*
X334Y3535D02*
X383Y3535D01*
X334Y3534D02*
X383Y3534D01*
X334Y3533D02*
X382Y3533D01*
X334Y3532D02*
X382Y3532D01*
X334Y3531D02*
X380Y3531D01*
X338Y3511D02*
X343Y3511D01*
X337Y3510D02*
X344Y3510D01*
X336Y3509D02*
X344Y3509D01*
X336Y3508D02*
X345Y3508D01*
X336Y3507D02*
X345Y3507D01*
X336Y3506D02*
X345Y3506D01*
X336Y3505D02*
X345Y3505D01*
X336Y3504D02*
X345Y3504D01*
X336Y3503D02*
X345Y3503D01*
X369Y3503D02*
X372Y3503D01*
X336Y3502D02*
X345Y3502D01*
X367Y3502D02*
X373Y3502D01*
X336Y3501D02*
X345Y3501D01*
X366Y3501D02*
X374Y3501D01*
X336Y3500D02*
X345Y3500D01*
X366Y3500D02*
X374Y3500D01*
X336Y3499D02*
X345Y3499D01*
X366Y3499D02*
X375Y3499D01*
X336Y3498D02*
X345Y3498D01*
X366Y3498D02*
X375Y3498D01*
X336Y3497D02*
X345Y3497D01*
X366Y3497D02*
X375Y3497D01*
X336Y3496D02*
X345Y3496D01*
X366Y3496D02*
X375Y3496D01*
X336Y3495D02*
X345Y3495D01*
X366Y3495D02*
X375Y3495D01*
X336Y3494D02*
X345Y3494D01*
X366Y3494D02*
X375Y3494D01*
X336Y3493D02*
X345Y3493D01*
X366Y3493D02*
X375Y3493D01*
X336Y3492D02*
X345Y3492D01*
X366Y3492D02*
X375Y3492D01*
X336Y3491D02*
X345Y3491D01*
X366Y3491D02*
X375Y3491D01*
X336Y3490D02*
X345Y3490D01*
X366Y3490D02*
X375Y3490D01*
X336Y3489D02*
X345Y3489D01*
X366Y3489D02*
X375Y3489D01*
X336Y3488D02*
X345Y3488D01*
X366Y3488D02*
X375Y3488D01*
X336Y3487D02*
X345Y3487D01*
X366Y3487D02*
X375Y3487D01*
X336Y3486D02*
X345Y3486D01*
X366Y3486D02*
X375Y3486D01*
X336Y3485D02*
X345Y3485D01*
X366Y3485D02*
X375Y3485D01*
X336Y3484D02*
X345Y3484D01*
X366Y3484D02*
X375Y3484D01*
X336Y3483D02*
X345Y3483D01*
X366Y3483D02*
X375Y3483D01*
X336Y3482D02*
X345Y3482D01*
X366Y3482D02*
X375Y3482D01*
X336Y3481D02*
X345Y3481D01*
X366Y3481D02*
X375Y3481D01*
X336Y3480D02*
X345Y3480D01*
X366Y3480D02*
X375Y3480D01*
X336Y3479D02*
X345Y3479D01*
X366Y3479D02*
X375Y3479D01*
X336Y3478D02*
X345Y3478D01*
X366Y3478D02*
X375Y3478D01*
X336Y3477D02*
X345Y3477D01*
X366Y3477D02*
X375Y3477D01*
X336Y3476D02*
X345Y3476D01*
X366Y3476D02*
X375Y3476D01*
X336Y3475D02*
X345Y3475D01*
X366Y3475D02*
X375Y3475D01*
X336Y3474D02*
X345Y3474D01*
X366Y3474D02*
X375Y3474D01*
X336Y3473D02*
X345Y3473D01*
X366Y3473D02*
X375Y3473D01*
X336Y3472D02*
X345Y3472D01*
X366Y3472D02*
X375Y3472D01*
X336Y3471D02*
X345Y3471D01*
X366Y3471D02*
X375Y3471D01*
X336Y3470D02*
X345Y3470D01*
X366Y3470D02*
X375Y3470D01*
X336Y3469D02*
X377Y3469D01*
X336Y3468D02*
X378Y3468D01*
X336Y3467D02*
X379Y3467D01*
X336Y3466D02*
X379Y3466D01*
X336Y3465D02*
X380Y3465D01*
X336Y3464D02*
X380Y3464D01*
X336Y3463D02*
X379Y3463D01*
X336Y3462D02*
X379Y3462D01*
X336Y3461D02*
X378Y3461D01*
X336Y3460D02*
X377Y3460D01*
X366Y3459D02*
X375Y3459D01*
X366Y3458D02*
X375Y3458D01*
X366Y3457D02*
X375Y3457D01*
X366Y3456D02*
X375Y3456D01*
X366Y3455D02*
X375Y3455D01*
X366Y3454D02*
X375Y3454D01*
X366Y3453D02*
X375Y3453D01*
X366Y3452D02*
X375Y3452D01*
X366Y3451D02*
X375Y3451D01*
X366Y3450D02*
X375Y3450D01*
X366Y3449D02*
X375Y3449D01*
X366Y3448D02*
X375Y3448D01*
X366Y3447D02*
X375Y3447D01*
X366Y3446D02*
X375Y3446D01*
X366Y3445D02*
X375Y3445D01*
X366Y3444D02*
X375Y3444D01*
X366Y3443D02*
X375Y3443D01*
X366Y3442D02*
X375Y3442D01*
X366Y3441D02*
X375Y3441D01*
X366Y3440D02*
X375Y3440D01*
X366Y3439D02*
X375Y3439D01*
X366Y3438D02*
X375Y3438D01*
X366Y3437D02*
X374Y3437D01*
X367Y3436D02*
X374Y3436D01*
X368Y3435D02*
X373Y3435D01*
X337Y3421D02*
X376Y3421D01*
X336Y3420D02*
X378Y3420D01*
X335Y3419D02*
X379Y3419D01*
X334Y3418D02*
X380Y3418D01*
X334Y3417D02*
X381Y3417D01*
X334Y3416D02*
X382Y3416D01*
X334Y3415D02*
X382Y3415D01*
X335Y3414D02*
X382Y3414D01*
X335Y3413D02*
X383Y3413D01*
X337Y3412D02*
X383Y3412D01*
X374Y3411D02*
X383Y3411D01*
X374Y3410D02*
X383Y3410D01*
X374Y3409D02*
X383Y3409D01*
X374Y3408D02*
X383Y3408D01*
X374Y3407D02*
X383Y3407D01*
X374Y3406D02*
X383Y3406D01*
X374Y3405D02*
X383Y3405D01*
X374Y3404D02*
X383Y3404D01*
X374Y3403D02*
X383Y3403D01*
X374Y3402D02*
X383Y3402D01*
X374Y3401D02*
X383Y3401D01*
X374Y3400D02*
X383Y3400D01*
X374Y3399D02*
X383Y3399D01*
X374Y3398D02*
X383Y3398D01*
X374Y3397D02*
X383Y3397D01*
X374Y3396D02*
X383Y3396D01*
X374Y3395D02*
X383Y3395D01*
X374Y3394D02*
X383Y3394D01*
X374Y3393D02*
X383Y3393D01*
X374Y3392D02*
X383Y3392D01*
X373Y3391D02*
X383Y3391D01*
X373Y3390D02*
X383Y3390D01*
X372Y3389D02*
X382Y3389D01*
X371Y3388D02*
X382Y3388D01*
X347Y3387D02*
X382Y3387D01*
X345Y3386D02*
X381Y3386D01*
X345Y3385D02*
X381Y3385D01*
X344Y3384D02*
X380Y3384D01*
X344Y3383D02*
X379Y3383D01*
X344Y3382D02*
X379Y3382D01*
X344Y3381D02*
X380Y3381D01*
X345Y3380D02*
X381Y3380D01*
X345Y3379D02*
X381Y3379D01*
X347Y3378D02*
X382Y3378D01*
X371Y3377D02*
X382Y3377D01*
X372Y3376D02*
X382Y3376D01*
X373Y3375D02*
X383Y3375D01*
X373Y3374D02*
X383Y3374D01*
X374Y3373D02*
X383Y3373D01*
X374Y3372D02*
X383Y3372D01*
X374Y3371D02*
X383Y3371D01*
X374Y3370D02*
X383Y3370D01*
X374Y3369D02*
X383Y3369D01*
X374Y3368D02*
X383Y3368D01*
X374Y3367D02*
X383Y3367D01*
X374Y3366D02*
X383Y3366D01*
X374Y3365D02*
X383Y3365D01*
X374Y3364D02*
X383Y3364D01*
X374Y3363D02*
X383Y3363D01*
X374Y3362D02*
X383Y3362D01*
X374Y3361D02*
X383Y3361D01*
X374Y3360D02*
X383Y3360D01*
X374Y3359D02*
X383Y3359D01*
X374Y3358D02*
X383Y3358D01*
X374Y3357D02*
X383Y3357D01*
X374Y3356D02*
X383Y3356D01*
X374Y3355D02*
X383Y3355D01*
X374Y3354D02*
X383Y3354D01*
X337Y3353D02*
X383Y3353D01*
X336Y3352D02*
X383Y3352D01*
X335Y3351D02*
X382Y3351D01*
X334Y3350D02*
X382Y3350D01*
X334Y3349D02*
X382Y3349D01*
X334Y3348D02*
X381Y3348D01*
X334Y3347D02*
X380Y3347D01*
X335Y3346D02*
X379Y3346D01*
X336Y3345D02*
X378Y3345D01*
X337Y3344D02*
X376Y3344D01*
X177Y3225D02*
X181Y3225D01*
X176Y3224D02*
X183Y3224D01*
X175Y3223D02*
X185Y3223D01*
X377Y3223D02*
X382Y3223D01*
X175Y3222D02*
X187Y3222D01*
X376Y3222D02*
X383Y3222D01*
X175Y3221D02*
X188Y3221D01*
X375Y3221D02*
X385Y3221D01*
X578Y3221D02*
X582Y3221D01*
X175Y3220D02*
X190Y3220D01*
X375Y3220D02*
X387Y3220D01*
X577Y3220D02*
X584Y3220D01*
X175Y3219D02*
X192Y3219D01*
X375Y3219D02*
X389Y3219D01*
X576Y3219D02*
X585Y3219D01*
X175Y3218D02*
X193Y3218D01*
X375Y3218D02*
X390Y3218D01*
X576Y3218D02*
X587Y3218D01*
X176Y3217D02*
X195Y3217D01*
X375Y3217D02*
X392Y3217D01*
X576Y3217D02*
X589Y3217D01*
X178Y3216D02*
X197Y3216D01*
X376Y3216D02*
X394Y3216D01*
X576Y3216D02*
X591Y3216D01*
X179Y3215D02*
X198Y3215D01*
X377Y3215D02*
X395Y3215D01*
X576Y3215D02*
X592Y3215D01*
X181Y3214D02*
X200Y3214D01*
X378Y3214D02*
X397Y3214D01*
X576Y3214D02*
X594Y3214D01*
X183Y3213D02*
X202Y3213D01*
X380Y3213D02*
X399Y3213D01*
X577Y3213D02*
X596Y3213D01*
X185Y3212D02*
X204Y3212D01*
X381Y3212D02*
X400Y3212D01*
X578Y3212D02*
X597Y3212D01*
X186Y3211D02*
X205Y3211D01*
X383Y3211D02*
X402Y3211D01*
X580Y3211D02*
X599Y3211D01*
X188Y3210D02*
X207Y3210D01*
X385Y3210D02*
X404Y3210D01*
X582Y3210D02*
X601Y3210D01*
X190Y3209D02*
X209Y3209D01*
X387Y3209D02*
X406Y3209D01*
X583Y3209D02*
X602Y3209D01*
X191Y3208D02*
X210Y3208D01*
X388Y3208D02*
X407Y3208D01*
X585Y3208D02*
X604Y3208D01*
X193Y3207D02*
X212Y3207D01*
X390Y3207D02*
X409Y3207D01*
X587Y3207D02*
X606Y3207D01*
X195Y3206D02*
X214Y3206D01*
X392Y3206D02*
X411Y3206D01*
X589Y3206D02*
X608Y3206D01*
X196Y3205D02*
X215Y3205D01*
X393Y3205D02*
X412Y3205D01*
X590Y3205D02*
X609Y3205D01*
X198Y3204D02*
X217Y3204D01*
X395Y3204D02*
X414Y3204D01*
X592Y3204D02*
X611Y3204D01*
X200Y3203D02*
X219Y3203D01*
X397Y3203D02*
X416Y3203D01*
X594Y3203D02*
X613Y3203D01*
X202Y3202D02*
X221Y3202D01*
X399Y3202D02*
X418Y3202D01*
X595Y3202D02*
X614Y3202D01*
X203Y3201D02*
X222Y3201D01*
X400Y3201D02*
X419Y3201D01*
X597Y3201D02*
X616Y3201D01*
X205Y3200D02*
X223Y3200D01*
X402Y3200D02*
X421Y3200D01*
X599Y3200D02*
X618Y3200D01*
X207Y3199D02*
X223Y3199D01*
X404Y3199D02*
X422Y3199D01*
X600Y3199D02*
X619Y3199D01*
X208Y3198D02*
X223Y3198D01*
X405Y3198D02*
X423Y3198D01*
X602Y3198D02*
X621Y3198D01*
X210Y3197D02*
X223Y3197D01*
X407Y3197D02*
X423Y3197D01*
X604Y3197D02*
X623Y3197D01*
X212Y3196D02*
X223Y3196D01*
X409Y3196D02*
X423Y3196D01*
X606Y3196D02*
X623Y3196D01*
X213Y3195D02*
X223Y3195D01*
X410Y3195D02*
X424Y3195D01*
X607Y3195D02*
X624Y3195D01*
X211Y3194D02*
X223Y3194D01*
X412Y3194D02*
X424Y3194D01*
X609Y3194D02*
X624Y3194D01*
X209Y3193D02*
X223Y3193D01*
X412Y3193D02*
X424Y3193D01*
X611Y3193D02*
X624Y3193D01*
X208Y3192D02*
X223Y3192D01*
X411Y3192D02*
X424Y3192D01*
X612Y3192D02*
X624Y3192D01*
X206Y3191D02*
X223Y3191D01*
X409Y3191D02*
X424Y3191D01*
X613Y3191D02*
X624Y3191D01*
X204Y3190D02*
X223Y3190D01*
X407Y3190D02*
X423Y3190D01*
X612Y3190D02*
X624Y3190D01*
X202Y3189D02*
X221Y3189D01*
X406Y3189D02*
X423Y3189D01*
X610Y3189D02*
X624Y3189D01*
X201Y3188D02*
X220Y3188D01*
X404Y3188D02*
X422Y3188D01*
X609Y3188D02*
X624Y3188D01*
X199Y3187D02*
X218Y3187D01*
X402Y3187D02*
X421Y3187D01*
X607Y3187D02*
X624Y3187D01*
X197Y3186D02*
X216Y3186D01*
X400Y3186D02*
X419Y3186D01*
X605Y3186D02*
X623Y3186D01*
X196Y3185D02*
X215Y3185D01*
X399Y3185D02*
X418Y3185D01*
X603Y3185D02*
X622Y3185D01*
X194Y3184D02*
X213Y3184D01*
X397Y3184D02*
X416Y3184D01*
X602Y3184D02*
X621Y3184D01*
X192Y3183D02*
X211Y3183D01*
X395Y3183D02*
X414Y3183D01*
X600Y3183D02*
X619Y3183D01*
X190Y3182D02*
X209Y3182D01*
X394Y3182D02*
X413Y3182D01*
X598Y3182D02*
X617Y3182D01*
X189Y3181D02*
X208Y3181D01*
X392Y3181D02*
X411Y3181D01*
X597Y3181D02*
X616Y3181D01*
X187Y3180D02*
X206Y3180D01*
X390Y3180D02*
X409Y3180D01*
X595Y3180D02*
X614Y3180D01*
X185Y3179D02*
X204Y3179D01*
X389Y3179D02*
X408Y3179D01*
X593Y3179D02*
X612Y3179D01*
X184Y3178D02*
X203Y3178D01*
X387Y3178D02*
X406Y3178D01*
X591Y3178D02*
X610Y3178D01*
X182Y3177D02*
X201Y3177D01*
X385Y3177D02*
X404Y3177D01*
X590Y3177D02*
X609Y3177D01*
X180Y3176D02*
X199Y3176D01*
X383Y3176D02*
X402Y3176D01*
X588Y3176D02*
X607Y3176D01*
X179Y3175D02*
X198Y3175D01*
X382Y3175D02*
X401Y3175D01*
X586Y3175D02*
X605Y3175D01*
X177Y3174D02*
X196Y3174D01*
X380Y3174D02*
X399Y3174D01*
X585Y3174D02*
X604Y3174D01*
X176Y3173D02*
X194Y3173D01*
X378Y3173D02*
X397Y3173D01*
X583Y3173D02*
X602Y3173D01*
X175Y3172D02*
X192Y3172D01*
X377Y3172D02*
X396Y3172D01*
X581Y3172D02*
X600Y3172D01*
X175Y3171D02*
X191Y3171D01*
X376Y3171D02*
X394Y3171D01*
X580Y3171D02*
X599Y3171D01*
X175Y3170D02*
X189Y3170D01*
X375Y3170D02*
X392Y3170D01*
X578Y3170D02*
X597Y3170D01*
X175Y3169D02*
X187Y3169D01*
X375Y3169D02*
X390Y3169D01*
X577Y3169D02*
X595Y3169D01*
X175Y3168D02*
X186Y3168D01*
X375Y3168D02*
X389Y3168D01*
X576Y3168D02*
X593Y3168D01*
X176Y3167D02*
X184Y3167D01*
X375Y3167D02*
X387Y3167D01*
X576Y3167D02*
X592Y3167D01*
X176Y3166D02*
X182Y3166D01*
X375Y3166D02*
X385Y3166D01*
X576Y3166D02*
X590Y3166D01*
X178Y3165D02*
X180Y3165D01*
X376Y3165D02*
X384Y3165D01*
X576Y3165D02*
X588Y3165D01*
X377Y3164D02*
X382Y3164D01*
X576Y3164D02*
X587Y3164D01*
X379Y3163D02*
X379Y3163D01*
X576Y3163D02*
X585Y3163D01*
X577Y3162D02*
X583Y3162D01*
X579Y3161D02*
X581Y3161D01*
X360Y3126D02*
X366Y3126D01*
X414Y3126D02*
X457Y3126D01*
X358Y3125D02*
X369Y3125D01*
X413Y3125D02*
X458Y3125D01*
X356Y3124D02*
X370Y3124D01*
X412Y3124D02*
X459Y3124D01*
X355Y3123D02*
X372Y3123D01*
X411Y3123D02*
X459Y3123D01*
X354Y3122D02*
X373Y3122D01*
X411Y3122D02*
X460Y3122D01*
X353Y3121D02*
X373Y3121D01*
X411Y3121D02*
X460Y3121D01*
X353Y3120D02*
X374Y3120D01*
X411Y3120D02*
X460Y3120D01*
X352Y3119D02*
X375Y3119D01*
X412Y3119D02*
X459Y3119D01*
X351Y3118D02*
X375Y3118D01*
X412Y3118D02*
X458Y3118D01*
X351Y3117D02*
X376Y3117D01*
X414Y3117D02*
X457Y3117D01*
X351Y3116D02*
X362Y3116D01*
X365Y3116D02*
X376Y3116D01*
X431Y3116D02*
X440Y3116D01*
X350Y3115D02*
X361Y3115D01*
X366Y3115D02*
X377Y3115D01*
X431Y3115D02*
X440Y3115D01*
X350Y3114D02*
X360Y3114D01*
X367Y3114D02*
X377Y3114D01*
X431Y3114D02*
X440Y3114D01*
X349Y3113D02*
X359Y3113D01*
X367Y3113D02*
X378Y3113D01*
X431Y3113D02*
X440Y3113D01*
X349Y3112D02*
X359Y3112D01*
X368Y3112D02*
X378Y3112D01*
X431Y3112D02*
X440Y3112D01*
X348Y3111D02*
X358Y3111D01*
X368Y3111D02*
X379Y3111D01*
X431Y3111D02*
X440Y3111D01*
X348Y3110D02*
X358Y3110D01*
X369Y3110D02*
X379Y3110D01*
X431Y3110D02*
X440Y3110D01*
X347Y3109D02*
X357Y3109D01*
X369Y3109D02*
X380Y3109D01*
X431Y3109D02*
X440Y3109D01*
X347Y3108D02*
X357Y3108D01*
X370Y3108D02*
X380Y3108D01*
X431Y3108D02*
X440Y3108D01*
X346Y3107D02*
X356Y3107D01*
X370Y3107D02*
X381Y3107D01*
X431Y3107D02*
X440Y3107D01*
X346Y3106D02*
X356Y3106D01*
X371Y3106D02*
X381Y3106D01*
X431Y3106D02*
X440Y3106D01*
X345Y3105D02*
X355Y3105D01*
X371Y3105D02*
X382Y3105D01*
X431Y3105D02*
X440Y3105D01*
X345Y3104D02*
X355Y3104D01*
X372Y3104D02*
X382Y3104D01*
X431Y3104D02*
X440Y3104D01*
X344Y3103D02*
X354Y3103D01*
X372Y3103D02*
X383Y3103D01*
X431Y3103D02*
X440Y3103D01*
X344Y3102D02*
X354Y3102D01*
X373Y3102D02*
X383Y3102D01*
X431Y3102D02*
X440Y3102D01*
X343Y3101D02*
X353Y3101D01*
X373Y3101D02*
X384Y3101D01*
X431Y3101D02*
X440Y3101D01*
X343Y3100D02*
X353Y3100D01*
X374Y3100D02*
X384Y3100D01*
X431Y3100D02*
X440Y3100D01*
X342Y3099D02*
X352Y3099D01*
X374Y3099D02*
X385Y3099D01*
X431Y3099D02*
X440Y3099D01*
X342Y3098D02*
X352Y3098D01*
X375Y3098D02*
X385Y3098D01*
X431Y3098D02*
X440Y3098D01*
X341Y3097D02*
X351Y3097D01*
X375Y3097D02*
X386Y3097D01*
X431Y3097D02*
X440Y3097D01*
X341Y3096D02*
X351Y3096D01*
X376Y3096D02*
X386Y3096D01*
X431Y3096D02*
X440Y3096D01*
X340Y3095D02*
X350Y3095D01*
X376Y3095D02*
X386Y3095D01*
X431Y3095D02*
X440Y3095D01*
X340Y3094D02*
X350Y3094D01*
X377Y3094D02*
X387Y3094D01*
X431Y3094D02*
X440Y3094D01*
X340Y3093D02*
X349Y3093D01*
X377Y3093D02*
X387Y3093D01*
X431Y3093D02*
X440Y3093D01*
X340Y3092D02*
X349Y3092D01*
X378Y3092D02*
X387Y3092D01*
X431Y3092D02*
X440Y3092D01*
X339Y3091D02*
X349Y3091D01*
X378Y3091D02*
X387Y3091D01*
X431Y3091D02*
X440Y3091D01*
X339Y3090D02*
X348Y3090D01*
X378Y3090D02*
X388Y3090D01*
X431Y3090D02*
X440Y3090D01*
X339Y3089D02*
X348Y3089D01*
X379Y3089D02*
X388Y3089D01*
X431Y3089D02*
X440Y3089D01*
X339Y3088D02*
X348Y3088D01*
X379Y3088D02*
X388Y3088D01*
X431Y3088D02*
X440Y3088D01*
X339Y3087D02*
X348Y3087D01*
X379Y3087D02*
X388Y3087D01*
X431Y3087D02*
X440Y3087D01*
X339Y3086D02*
X348Y3086D01*
X379Y3086D02*
X388Y3086D01*
X431Y3086D02*
X440Y3086D01*
X339Y3085D02*
X348Y3085D01*
X378Y3085D02*
X388Y3085D01*
X431Y3085D02*
X440Y3085D01*
X339Y3084D02*
X349Y3084D01*
X378Y3084D02*
X387Y3084D01*
X431Y3084D02*
X440Y3084D01*
X339Y3083D02*
X349Y3083D01*
X378Y3083D02*
X387Y3083D01*
X431Y3083D02*
X440Y3083D01*
X340Y3082D02*
X349Y3082D01*
X377Y3082D02*
X387Y3082D01*
X431Y3082D02*
X440Y3082D01*
X340Y3081D02*
X350Y3081D01*
X377Y3081D02*
X387Y3081D01*
X431Y3081D02*
X440Y3081D01*
X340Y3080D02*
X350Y3080D01*
X376Y3080D02*
X386Y3080D01*
X431Y3080D02*
X440Y3080D01*
X341Y3079D02*
X351Y3079D01*
X376Y3079D02*
X386Y3079D01*
X431Y3079D02*
X440Y3079D01*
X341Y3078D02*
X351Y3078D01*
X375Y3078D02*
X386Y3078D01*
X431Y3078D02*
X440Y3078D01*
X341Y3077D02*
X352Y3077D01*
X375Y3077D02*
X385Y3077D01*
X431Y3077D02*
X440Y3077D01*
X342Y3076D02*
X352Y3076D01*
X374Y3076D02*
X385Y3076D01*
X431Y3076D02*
X440Y3076D01*
X342Y3075D02*
X353Y3075D01*
X374Y3075D02*
X384Y3075D01*
X431Y3075D02*
X440Y3075D01*
X343Y3074D02*
X353Y3074D01*
X374Y3074D02*
X384Y3074D01*
X431Y3074D02*
X440Y3074D01*
X343Y3073D02*
X354Y3073D01*
X373Y3073D02*
X383Y3073D01*
X431Y3073D02*
X440Y3073D01*
X344Y3072D02*
X354Y3072D01*
X373Y3072D02*
X383Y3072D01*
X431Y3072D02*
X440Y3072D01*
X344Y3071D02*
X355Y3071D01*
X372Y3071D02*
X382Y3071D01*
X431Y3071D02*
X440Y3071D01*
X345Y3070D02*
X355Y3070D01*
X372Y3070D02*
X382Y3070D01*
X431Y3070D02*
X440Y3070D01*
X345Y3069D02*
X356Y3069D01*
X371Y3069D02*
X381Y3069D01*
X431Y3069D02*
X440Y3069D01*
X346Y3068D02*
X356Y3068D01*
X371Y3068D02*
X381Y3068D01*
X431Y3068D02*
X440Y3068D01*
X346Y3067D02*
X357Y3067D01*
X370Y3067D02*
X380Y3067D01*
X431Y3067D02*
X440Y3067D01*
X347Y3066D02*
X357Y3066D01*
X370Y3066D02*
X380Y3066D01*
X431Y3066D02*
X440Y3066D01*
X347Y3065D02*
X358Y3065D01*
X369Y3065D02*
X379Y3065D01*
X431Y3065D02*
X440Y3065D01*
X348Y3064D02*
X358Y3064D01*
X369Y3064D02*
X379Y3064D01*
X431Y3064D02*
X440Y3064D01*
X348Y3063D02*
X359Y3063D01*
X368Y3063D02*
X378Y3063D01*
X431Y3063D02*
X440Y3063D01*
X349Y3062D02*
X359Y3062D01*
X368Y3062D02*
X378Y3062D01*
X431Y3062D02*
X440Y3062D01*
X349Y3061D02*
X360Y3061D01*
X367Y3061D02*
X377Y3061D01*
X431Y3061D02*
X440Y3061D01*
X350Y3060D02*
X360Y3060D01*
X366Y3060D02*
X377Y3060D01*
X431Y3060D02*
X440Y3060D01*
X350Y3059D02*
X361Y3059D01*
X365Y3059D02*
X376Y3059D01*
X431Y3059D02*
X440Y3059D01*
X351Y3058D02*
X376Y3058D01*
X414Y3058D02*
X457Y3058D01*
X351Y3057D02*
X375Y3057D01*
X412Y3057D02*
X458Y3057D01*
X352Y3056D02*
X375Y3056D01*
X412Y3056D02*
X459Y3056D01*
X353Y3055D02*
X374Y3055D01*
X411Y3055D02*
X460Y3055D01*
X353Y3054D02*
X373Y3054D01*
X411Y3054D02*
X460Y3054D01*
X354Y3053D02*
X373Y3053D01*
X411Y3053D02*
X460Y3053D01*
X355Y3052D02*
X372Y3052D01*
X411Y3052D02*
X459Y3052D01*
X356Y3051D02*
X370Y3051D01*
X412Y3051D02*
X459Y3051D01*
X358Y3050D02*
X369Y3050D01*
X412Y3050D02*
X458Y3050D01*
X360Y3049D02*
X367Y3049D01*
X414Y3049D02*
X457Y3049D01*
X306Y2600D02*
X350Y2600D01*
X396Y2600D02*
X404Y2600D01*
X450Y2600D02*
X476Y2600D01*
X305Y2599D02*
X351Y2599D01*
X394Y2599D02*
X406Y2599D01*
X449Y2599D02*
X476Y2599D01*
X304Y2598D02*
X352Y2598D01*
X392Y2598D02*
X407Y2598D01*
X448Y2598D02*
X476Y2598D01*
X304Y2597D02*
X352Y2597D01*
X391Y2597D02*
X408Y2597D01*
X448Y2597D02*
X476Y2597D01*
X303Y2596D02*
X352Y2596D01*
X390Y2596D02*
X409Y2596D01*
X447Y2596D02*
X476Y2596D01*
X304Y2595D02*
X352Y2595D01*
X389Y2595D02*
X410Y2595D01*
X447Y2595D02*
X476Y2595D01*
X304Y2594D02*
X352Y2594D01*
X389Y2594D02*
X411Y2594D01*
X448Y2594D02*
X476Y2594D01*
X304Y2593D02*
X351Y2593D01*
X388Y2593D02*
X411Y2593D01*
X448Y2593D02*
X476Y2593D01*
X305Y2592D02*
X350Y2592D01*
X388Y2592D02*
X412Y2592D01*
X449Y2592D02*
X476Y2592D01*
X307Y2591D02*
X349Y2591D01*
X387Y2591D02*
X412Y2591D01*
X451Y2591D02*
X476Y2591D01*
X323Y2590D02*
X332Y2590D01*
X387Y2590D02*
X398Y2590D01*
X402Y2590D02*
X413Y2590D01*
X467Y2590D02*
X476Y2590D01*
X323Y2589D02*
X332Y2589D01*
X386Y2589D02*
X397Y2589D01*
X403Y2589D02*
X413Y2589D01*
X467Y2589D02*
X476Y2589D01*
X323Y2588D02*
X332Y2588D01*
X386Y2588D02*
X396Y2588D01*
X403Y2588D02*
X414Y2588D01*
X467Y2588D02*
X476Y2588D01*
X323Y2587D02*
X332Y2587D01*
X385Y2587D02*
X396Y2587D01*
X404Y2587D02*
X414Y2587D01*
X467Y2587D02*
X476Y2587D01*
X323Y2586D02*
X332Y2586D01*
X385Y2586D02*
X395Y2586D01*
X404Y2586D02*
X415Y2586D01*
X467Y2586D02*
X476Y2586D01*
X323Y2585D02*
X332Y2585D01*
X384Y2585D02*
X395Y2585D01*
X405Y2585D02*
X415Y2585D01*
X467Y2585D02*
X476Y2585D01*
X323Y2584D02*
X332Y2584D01*
X384Y2584D02*
X394Y2584D01*
X405Y2584D02*
X416Y2584D01*
X467Y2584D02*
X476Y2584D01*
X323Y2583D02*
X332Y2583D01*
X383Y2583D02*
X394Y2583D01*
X406Y2583D02*
X416Y2583D01*
X467Y2583D02*
X476Y2583D01*
X323Y2582D02*
X332Y2582D01*
X383Y2582D02*
X393Y2582D01*
X406Y2582D02*
X417Y2582D01*
X467Y2582D02*
X476Y2582D01*
X323Y2581D02*
X332Y2581D01*
X382Y2581D02*
X393Y2581D01*
X407Y2581D02*
X417Y2581D01*
X467Y2581D02*
X476Y2581D01*
X323Y2580D02*
X332Y2580D01*
X382Y2580D02*
X392Y2580D01*
X407Y2580D02*
X418Y2580D01*
X467Y2580D02*
X476Y2580D01*
X323Y2579D02*
X332Y2579D01*
X381Y2579D02*
X392Y2579D01*
X408Y2579D02*
X418Y2579D01*
X467Y2579D02*
X476Y2579D01*
X323Y2578D02*
X332Y2578D01*
X381Y2578D02*
X391Y2578D01*
X408Y2578D02*
X419Y2578D01*
X467Y2578D02*
X476Y2578D01*
X323Y2577D02*
X332Y2577D01*
X380Y2577D02*
X391Y2577D01*
X409Y2577D02*
X419Y2577D01*
X467Y2577D02*
X476Y2577D01*
X323Y2576D02*
X332Y2576D01*
X380Y2576D02*
X390Y2576D01*
X409Y2576D02*
X420Y2576D01*
X467Y2576D02*
X476Y2576D01*
X323Y2575D02*
X332Y2575D01*
X379Y2575D02*
X390Y2575D01*
X410Y2575D02*
X420Y2575D01*
X467Y2575D02*
X476Y2575D01*
X323Y2574D02*
X332Y2574D01*
X379Y2574D02*
X389Y2574D01*
X410Y2574D02*
X421Y2574D01*
X467Y2574D02*
X476Y2574D01*
X323Y2573D02*
X332Y2573D01*
X378Y2573D02*
X389Y2573D01*
X411Y2573D02*
X421Y2573D01*
X467Y2573D02*
X476Y2573D01*
X323Y2572D02*
X332Y2572D01*
X378Y2572D02*
X388Y2572D01*
X411Y2572D02*
X422Y2572D01*
X467Y2572D02*
X476Y2572D01*
X323Y2571D02*
X332Y2571D01*
X377Y2571D02*
X388Y2571D01*
X412Y2571D02*
X422Y2571D01*
X467Y2571D02*
X476Y2571D01*
X323Y2570D02*
X332Y2570D01*
X377Y2570D02*
X387Y2570D01*
X412Y2570D02*
X423Y2570D01*
X467Y2570D02*
X476Y2570D01*
X323Y2569D02*
X332Y2569D01*
X377Y2569D02*
X387Y2569D01*
X413Y2569D02*
X423Y2569D01*
X467Y2569D02*
X476Y2569D01*
X323Y2568D02*
X332Y2568D01*
X376Y2568D02*
X386Y2568D01*
X413Y2568D02*
X423Y2568D01*
X467Y2568D02*
X476Y2568D01*
X323Y2567D02*
X332Y2567D01*
X376Y2567D02*
X386Y2567D01*
X414Y2567D02*
X424Y2567D01*
X467Y2567D02*
X476Y2567D01*
X323Y2566D02*
X332Y2566D01*
X376Y2566D02*
X385Y2566D01*
X414Y2566D02*
X424Y2566D01*
X467Y2566D02*
X476Y2566D01*
X323Y2565D02*
X332Y2565D01*
X376Y2565D02*
X385Y2565D01*
X415Y2565D02*
X424Y2565D01*
X467Y2565D02*
X476Y2565D01*
X323Y2564D02*
X332Y2564D01*
X376Y2564D02*
X385Y2564D01*
X415Y2564D02*
X424Y2564D01*
X467Y2564D02*
X476Y2564D01*
X323Y2563D02*
X332Y2563D01*
X375Y2563D02*
X385Y2563D01*
X415Y2563D02*
X424Y2563D01*
X467Y2563D02*
X476Y2563D01*
X323Y2562D02*
X332Y2562D01*
X375Y2562D02*
X385Y2562D01*
X415Y2562D02*
X424Y2562D01*
X467Y2562D02*
X476Y2562D01*
X323Y2561D02*
X332Y2561D01*
X375Y2561D02*
X385Y2561D01*
X415Y2561D02*
X424Y2561D01*
X467Y2561D02*
X476Y2561D01*
X323Y2560D02*
X332Y2560D01*
X375Y2560D02*
X385Y2560D01*
X415Y2560D02*
X424Y2560D01*
X467Y2560D02*
X476Y2560D01*
X323Y2559D02*
X332Y2559D01*
X376Y2559D02*
X385Y2559D01*
X415Y2559D02*
X424Y2559D01*
X467Y2559D02*
X476Y2559D01*
X323Y2558D02*
X332Y2558D01*
X376Y2558D02*
X385Y2558D01*
X414Y2558D02*
X424Y2558D01*
X467Y2558D02*
X476Y2558D01*
X490Y2558D02*
X493Y2558D01*
X323Y2557D02*
X332Y2557D01*
X376Y2557D02*
X385Y2557D01*
X414Y2557D02*
X424Y2557D01*
X467Y2557D02*
X476Y2557D01*
X489Y2557D02*
X494Y2557D01*
X323Y2556D02*
X332Y2556D01*
X376Y2556D02*
X386Y2556D01*
X414Y2556D02*
X423Y2556D01*
X467Y2556D02*
X476Y2556D01*
X488Y2556D02*
X495Y2556D01*
X323Y2555D02*
X332Y2555D01*
X376Y2555D02*
X386Y2555D01*
X413Y2555D02*
X423Y2555D01*
X467Y2555D02*
X476Y2555D01*
X487Y2555D02*
X496Y2555D01*
X323Y2554D02*
X332Y2554D01*
X377Y2554D02*
X387Y2554D01*
X413Y2554D02*
X423Y2554D01*
X467Y2554D02*
X476Y2554D01*
X487Y2554D02*
X496Y2554D01*
X323Y2553D02*
X332Y2553D01*
X377Y2553D02*
X387Y2553D01*
X412Y2553D02*
X422Y2553D01*
X467Y2553D02*
X476Y2553D01*
X487Y2553D02*
X496Y2553D01*
X323Y2552D02*
X332Y2552D01*
X378Y2552D02*
X388Y2552D01*
X412Y2552D02*
X422Y2552D01*
X467Y2552D02*
X476Y2552D01*
X487Y2552D02*
X496Y2552D01*
X323Y2551D02*
X332Y2551D01*
X378Y2551D02*
X388Y2551D01*
X411Y2551D02*
X421Y2551D01*
X467Y2551D02*
X476Y2551D01*
X487Y2551D02*
X496Y2551D01*
X323Y2550D02*
X332Y2550D01*
X379Y2550D02*
X389Y2550D01*
X411Y2550D02*
X421Y2550D01*
X467Y2550D02*
X476Y2550D01*
X487Y2550D02*
X496Y2550D01*
X323Y2549D02*
X332Y2549D01*
X379Y2549D02*
X389Y2549D01*
X410Y2549D02*
X420Y2549D01*
X467Y2549D02*
X476Y2549D01*
X487Y2549D02*
X496Y2549D01*
X323Y2548D02*
X332Y2548D01*
X380Y2548D02*
X390Y2548D01*
X410Y2548D02*
X420Y2548D01*
X467Y2548D02*
X476Y2548D01*
X487Y2548D02*
X496Y2548D01*
X323Y2547D02*
X332Y2547D01*
X380Y2547D02*
X390Y2547D01*
X409Y2547D02*
X419Y2547D01*
X467Y2547D02*
X476Y2547D01*
X487Y2547D02*
X496Y2547D01*
X323Y2546D02*
X332Y2546D01*
X380Y2546D02*
X391Y2546D01*
X409Y2546D02*
X419Y2546D01*
X467Y2546D02*
X476Y2546D01*
X487Y2546D02*
X496Y2546D01*
X323Y2545D02*
X332Y2545D01*
X381Y2545D02*
X391Y2545D01*
X408Y2545D02*
X418Y2545D01*
X467Y2545D02*
X476Y2545D01*
X487Y2545D02*
X496Y2545D01*
X323Y2544D02*
X332Y2544D01*
X381Y2544D02*
X392Y2544D01*
X408Y2544D02*
X418Y2544D01*
X467Y2544D02*
X476Y2544D01*
X487Y2544D02*
X496Y2544D01*
X323Y2543D02*
X332Y2543D01*
X382Y2543D02*
X392Y2543D01*
X407Y2543D02*
X417Y2543D01*
X467Y2543D02*
X476Y2543D01*
X487Y2543D02*
X496Y2543D01*
X323Y2542D02*
X332Y2542D01*
X382Y2542D02*
X393Y2542D01*
X407Y2542D02*
X417Y2542D01*
X467Y2542D02*
X476Y2542D01*
X487Y2542D02*
X496Y2542D01*
X323Y2541D02*
X332Y2541D01*
X383Y2541D02*
X393Y2541D01*
X406Y2541D02*
X416Y2541D01*
X467Y2541D02*
X476Y2541D01*
X487Y2541D02*
X496Y2541D01*
X323Y2540D02*
X332Y2540D01*
X383Y2540D02*
X394Y2540D01*
X406Y2540D02*
X416Y2540D01*
X467Y2540D02*
X476Y2540D01*
X487Y2540D02*
X496Y2540D01*
X323Y2539D02*
X332Y2539D01*
X384Y2539D02*
X394Y2539D01*
X405Y2539D02*
X415Y2539D01*
X467Y2539D02*
X476Y2539D01*
X487Y2539D02*
X496Y2539D01*
X323Y2538D02*
X332Y2538D01*
X384Y2538D02*
X395Y2538D01*
X405Y2538D02*
X415Y2538D01*
X467Y2538D02*
X476Y2538D01*
X487Y2538D02*
X496Y2538D01*
X323Y2537D02*
X332Y2537D01*
X385Y2537D02*
X395Y2537D01*
X404Y2537D02*
X414Y2537D01*
X467Y2537D02*
X476Y2537D01*
X487Y2537D02*
X496Y2537D01*
X323Y2536D02*
X332Y2536D01*
X385Y2536D02*
X396Y2536D01*
X404Y2536D02*
X414Y2536D01*
X467Y2536D02*
X476Y2536D01*
X487Y2536D02*
X496Y2536D01*
X323Y2535D02*
X332Y2535D01*
X386Y2535D02*
X396Y2535D01*
X403Y2535D02*
X413Y2535D01*
X467Y2535D02*
X476Y2535D01*
X487Y2535D02*
X496Y2535D01*
X323Y2534D02*
X332Y2534D01*
X386Y2534D02*
X397Y2534D01*
X403Y2534D02*
X413Y2534D01*
X467Y2534D02*
X476Y2534D01*
X487Y2534D02*
X496Y2534D01*
X323Y2533D02*
X333Y2533D01*
X387Y2533D02*
X398Y2533D01*
X401Y2533D02*
X412Y2533D01*
X467Y2533D02*
X477Y2533D01*
X487Y2533D02*
X496Y2533D01*
X306Y2532D02*
X350Y2532D01*
X387Y2532D02*
X412Y2532D01*
X450Y2532D02*
X496Y2532D01*
X305Y2531D02*
X351Y2531D01*
X388Y2531D02*
X411Y2531D01*
X449Y2531D02*
X496Y2531D01*
X304Y2530D02*
X352Y2530D01*
X388Y2530D02*
X411Y2530D01*
X448Y2530D02*
X496Y2530D01*
X304Y2529D02*
X352Y2529D01*
X389Y2529D02*
X410Y2529D01*
X448Y2529D02*
X496Y2529D01*
X303Y2528D02*
X352Y2528D01*
X390Y2528D02*
X410Y2528D01*
X447Y2528D02*
X496Y2528D01*
X304Y2527D02*
X352Y2527D01*
X391Y2527D02*
X409Y2527D01*
X448Y2527D02*
X496Y2527D01*
X304Y2526D02*
X352Y2526D01*
X392Y2526D02*
X408Y2526D01*
X448Y2526D02*
X496Y2526D01*
X304Y2525D02*
X351Y2525D01*
X393Y2525D02*
X406Y2525D01*
X448Y2525D02*
X495Y2525D01*
X305Y2524D02*
X350Y2524D01*
X395Y2524D02*
X405Y2524D01*
X449Y2524D02*
X494Y2524D01*
X307Y2523D02*
X348Y2523D01*
X398Y2523D02*
X402Y2523D01*
X451Y2523D02*
X492Y2523D01*
X305Y2091D02*
X348Y2091D01*
X395Y2091D02*
X402Y2091D01*
X449Y2091D02*
X488Y2091D01*
X304Y2090D02*
X349Y2090D01*
X393Y2090D02*
X404Y2090D01*
X448Y2090D02*
X490Y2090D01*
X303Y2089D02*
X350Y2089D01*
X391Y2089D02*
X406Y2089D01*
X447Y2089D02*
X491Y2089D01*
X302Y2088D02*
X351Y2088D01*
X390Y2088D02*
X407Y2088D01*
X446Y2088D02*
X492Y2088D01*
X302Y2087D02*
X351Y2087D01*
X389Y2087D02*
X408Y2087D01*
X446Y2087D02*
X493Y2087D01*
X302Y2086D02*
X351Y2086D01*
X388Y2086D02*
X409Y2086D01*
X446Y2086D02*
X494Y2086D01*
X302Y2085D02*
X351Y2085D01*
X388Y2085D02*
X409Y2085D01*
X446Y2085D02*
X494Y2085D01*
X303Y2084D02*
X350Y2084D01*
X387Y2084D02*
X410Y2084D01*
X447Y2084D02*
X495Y2084D01*
X304Y2083D02*
X349Y2083D01*
X386Y2083D02*
X410Y2083D01*
X448Y2083D02*
X495Y2083D01*
X305Y2082D02*
X348Y2082D01*
X386Y2082D02*
X411Y2082D01*
X449Y2082D02*
X495Y2082D01*
X322Y2081D02*
X331Y2081D01*
X385Y2081D02*
X396Y2081D01*
X400Y2081D02*
X411Y2081D01*
X486Y2081D02*
X495Y2081D01*
X322Y2080D02*
X331Y2080D01*
X385Y2080D02*
X396Y2080D01*
X401Y2080D02*
X412Y2080D01*
X486Y2080D02*
X495Y2080D01*
X322Y2079D02*
X331Y2079D01*
X384Y2079D02*
X395Y2079D01*
X402Y2079D02*
X412Y2079D01*
X486Y2079D02*
X495Y2079D01*
X322Y2078D02*
X331Y2078D01*
X384Y2078D02*
X394Y2078D01*
X402Y2078D02*
X413Y2078D01*
X486Y2078D02*
X495Y2078D01*
X322Y2077D02*
X331Y2077D01*
X384Y2077D02*
X394Y2077D01*
X403Y2077D02*
X413Y2077D01*
X486Y2077D02*
X495Y2077D01*
X322Y2076D02*
X331Y2076D01*
X383Y2076D02*
X393Y2076D01*
X403Y2076D02*
X414Y2076D01*
X486Y2076D02*
X495Y2076D01*
X322Y2075D02*
X331Y2075D01*
X383Y2075D02*
X393Y2075D01*
X404Y2075D02*
X414Y2075D01*
X486Y2075D02*
X495Y2075D01*
X322Y2074D02*
X331Y2074D01*
X382Y2074D02*
X392Y2074D01*
X404Y2074D02*
X415Y2074D01*
X486Y2074D02*
X495Y2074D01*
X322Y2073D02*
X331Y2073D01*
X382Y2073D02*
X392Y2073D01*
X405Y2073D02*
X415Y2073D01*
X486Y2073D02*
X495Y2073D01*
X322Y2072D02*
X331Y2072D01*
X381Y2072D02*
X391Y2072D01*
X405Y2072D02*
X416Y2072D01*
X486Y2072D02*
X495Y2072D01*
X322Y2071D02*
X331Y2071D01*
X381Y2071D02*
X391Y2071D01*
X406Y2071D02*
X416Y2071D01*
X486Y2071D02*
X495Y2071D01*
X322Y2070D02*
X331Y2070D01*
X380Y2070D02*
X390Y2070D01*
X406Y2070D02*
X417Y2070D01*
X486Y2070D02*
X495Y2070D01*
X322Y2069D02*
X331Y2069D01*
X380Y2069D02*
X390Y2069D01*
X407Y2069D02*
X417Y2069D01*
X486Y2069D02*
X495Y2069D01*
X322Y2068D02*
X331Y2068D01*
X379Y2068D02*
X389Y2068D01*
X408Y2068D02*
X418Y2068D01*
X486Y2068D02*
X495Y2068D01*
X322Y2067D02*
X331Y2067D01*
X379Y2067D02*
X389Y2067D01*
X408Y2067D02*
X418Y2067D01*
X486Y2067D02*
X495Y2067D01*
X322Y2066D02*
X331Y2066D01*
X378Y2066D02*
X388Y2066D01*
X409Y2066D02*
X419Y2066D01*
X486Y2066D02*
X495Y2066D01*
X322Y2065D02*
X331Y2065D01*
X378Y2065D02*
X388Y2065D01*
X409Y2065D02*
X419Y2065D01*
X486Y2065D02*
X495Y2065D01*
X322Y2064D02*
X331Y2064D01*
X377Y2064D02*
X387Y2064D01*
X410Y2064D02*
X420Y2064D01*
X486Y2064D02*
X495Y2064D01*
X322Y2063D02*
X331Y2063D01*
X377Y2063D02*
X387Y2063D01*
X410Y2063D02*
X420Y2063D01*
X486Y2063D02*
X495Y2063D01*
X322Y2062D02*
X331Y2062D01*
X376Y2062D02*
X386Y2062D01*
X411Y2062D02*
X421Y2062D01*
X486Y2062D02*
X495Y2062D01*
X322Y2061D02*
X331Y2061D01*
X376Y2061D02*
X386Y2061D01*
X411Y2061D02*
X421Y2061D01*
X486Y2061D02*
X495Y2061D01*
X322Y2060D02*
X331Y2060D01*
X375Y2060D02*
X385Y2060D01*
X412Y2060D02*
X422Y2060D01*
X486Y2060D02*
X495Y2060D01*
X322Y2059D02*
X331Y2059D01*
X375Y2059D02*
X385Y2059D01*
X412Y2059D02*
X422Y2059D01*
X486Y2059D02*
X495Y2059D01*
X322Y2058D02*
X331Y2058D01*
X375Y2058D02*
X384Y2058D01*
X413Y2058D02*
X422Y2058D01*
X486Y2058D02*
X495Y2058D01*
X322Y2057D02*
X331Y2057D01*
X375Y2057D02*
X384Y2057D01*
X413Y2057D02*
X422Y2057D01*
X453Y2057D02*
X495Y2057D01*
X322Y2056D02*
X331Y2056D01*
X374Y2056D02*
X384Y2056D01*
X413Y2056D02*
X423Y2056D01*
X451Y2056D02*
X495Y2056D01*
X322Y2055D02*
X331Y2055D01*
X374Y2055D02*
X383Y2055D01*
X413Y2055D02*
X423Y2055D01*
X449Y2055D02*
X494Y2055D01*
X322Y2054D02*
X331Y2054D01*
X374Y2054D02*
X383Y2054D01*
X414Y2054D02*
X423Y2054D01*
X449Y2054D02*
X494Y2054D01*
X322Y2053D02*
X331Y2053D01*
X374Y2053D02*
X383Y2053D01*
X414Y2053D02*
X423Y2053D01*
X448Y2053D02*
X494Y2053D01*
X322Y2052D02*
X331Y2052D01*
X374Y2052D02*
X383Y2052D01*
X414Y2052D02*
X423Y2052D01*
X447Y2052D02*
X493Y2052D01*
X322Y2051D02*
X331Y2051D01*
X374Y2051D02*
X383Y2051D01*
X414Y2051D02*
X423Y2051D01*
X447Y2051D02*
X492Y2051D01*
X322Y2050D02*
X331Y2050D01*
X374Y2050D02*
X383Y2050D01*
X413Y2050D02*
X423Y2050D01*
X446Y2050D02*
X491Y2050D01*
X322Y2049D02*
X331Y2049D01*
X374Y2049D02*
X384Y2049D01*
X413Y2049D02*
X423Y2049D01*
X446Y2049D02*
X490Y2049D01*
X322Y2048D02*
X331Y2048D01*
X375Y2048D02*
X384Y2048D01*
X413Y2048D02*
X422Y2048D01*
X446Y2048D02*
X487Y2048D01*
X322Y2047D02*
X331Y2047D01*
X375Y2047D02*
X384Y2047D01*
X412Y2047D02*
X422Y2047D01*
X446Y2047D02*
X455Y2047D01*
X322Y2046D02*
X331Y2046D01*
X375Y2046D02*
X385Y2046D01*
X412Y2046D02*
X422Y2046D01*
X446Y2046D02*
X455Y2046D01*
X322Y2045D02*
X331Y2045D01*
X375Y2045D02*
X385Y2045D01*
X411Y2045D02*
X421Y2045D01*
X446Y2045D02*
X455Y2045D01*
X322Y2044D02*
X331Y2044D01*
X376Y2044D02*
X386Y2044D01*
X411Y2044D02*
X421Y2044D01*
X446Y2044D02*
X455Y2044D01*
X322Y2043D02*
X331Y2043D01*
X376Y2043D02*
X386Y2043D01*
X410Y2043D02*
X421Y2043D01*
X446Y2043D02*
X455Y2043D01*
X322Y2042D02*
X331Y2042D01*
X377Y2042D02*
X387Y2042D01*
X410Y2042D02*
X420Y2042D01*
X446Y2042D02*
X455Y2042D01*
X322Y2041D02*
X331Y2041D01*
X377Y2041D02*
X387Y2041D01*
X409Y2041D02*
X420Y2041D01*
X446Y2041D02*
X455Y2041D01*
X322Y2040D02*
X331Y2040D01*
X378Y2040D02*
X388Y2040D01*
X409Y2040D02*
X419Y2040D01*
X446Y2040D02*
X455Y2040D01*
X322Y2039D02*
X331Y2039D01*
X378Y2039D02*
X388Y2039D01*
X408Y2039D02*
X419Y2039D01*
X446Y2039D02*
X455Y2039D01*
X322Y2038D02*
X331Y2038D01*
X379Y2038D02*
X389Y2038D01*
X408Y2038D02*
X418Y2038D01*
X446Y2038D02*
X455Y2038D01*
X322Y2037D02*
X331Y2037D01*
X379Y2037D02*
X389Y2037D01*
X407Y2037D02*
X418Y2037D01*
X446Y2037D02*
X455Y2037D01*
X322Y2036D02*
X331Y2036D01*
X380Y2036D02*
X390Y2036D01*
X407Y2036D02*
X417Y2036D01*
X446Y2036D02*
X455Y2036D01*
X322Y2035D02*
X331Y2035D01*
X380Y2035D02*
X390Y2035D01*
X407Y2035D02*
X417Y2035D01*
X446Y2035D02*
X455Y2035D01*
X322Y2034D02*
X331Y2034D01*
X381Y2034D02*
X391Y2034D01*
X406Y2034D02*
X416Y2034D01*
X446Y2034D02*
X455Y2034D01*
X322Y2033D02*
X331Y2033D01*
X381Y2033D02*
X391Y2033D01*
X406Y2033D02*
X416Y2033D01*
X446Y2033D02*
X455Y2033D01*
X322Y2032D02*
X331Y2032D01*
X382Y2032D02*
X392Y2032D01*
X405Y2032D02*
X415Y2032D01*
X446Y2032D02*
X455Y2032D01*
X322Y2031D02*
X331Y2031D01*
X382Y2031D02*
X392Y2031D01*
X405Y2031D02*
X415Y2031D01*
X446Y2031D02*
X455Y2031D01*
X322Y2030D02*
X331Y2030D01*
X383Y2030D02*
X393Y2030D01*
X404Y2030D02*
X414Y2030D01*
X446Y2030D02*
X455Y2030D01*
X322Y2029D02*
X331Y2029D01*
X383Y2029D02*
X393Y2029D01*
X404Y2029D02*
X414Y2029D01*
X446Y2029D02*
X455Y2029D01*
X322Y2028D02*
X331Y2028D01*
X384Y2028D02*
X394Y2028D01*
X403Y2028D02*
X413Y2028D01*
X446Y2028D02*
X455Y2028D01*
X322Y2027D02*
X331Y2027D01*
X384Y2027D02*
X394Y2027D01*
X403Y2027D02*
X413Y2027D01*
X446Y2027D02*
X455Y2027D01*
X322Y2026D02*
X331Y2026D01*
X385Y2026D02*
X395Y2026D01*
X402Y2026D02*
X412Y2026D01*
X446Y2026D02*
X455Y2026D01*
X322Y2025D02*
X331Y2025D01*
X385Y2025D02*
X396Y2025D01*
X401Y2025D02*
X412Y2025D01*
X446Y2025D02*
X455Y2025D01*
X322Y2024D02*
X331Y2024D01*
X386Y2024D02*
X397Y2024D01*
X400Y2024D02*
X411Y2024D01*
X446Y2024D02*
X455Y2024D01*
X305Y2023D02*
X348Y2023D01*
X386Y2023D02*
X411Y2023D01*
X446Y2023D02*
X492Y2023D01*
X303Y2022D02*
X350Y2022D01*
X387Y2022D02*
X410Y2022D01*
X446Y2022D02*
X493Y2022D01*
X303Y2021D02*
X350Y2021D01*
X387Y2021D02*
X410Y2021D01*
X446Y2021D02*
X494Y2021D01*
X302Y2020D02*
X351Y2020D01*
X388Y2020D02*
X409Y2020D01*
X446Y2020D02*
X495Y2020D01*
X302Y2019D02*
X351Y2019D01*
X388Y2019D02*
X408Y2019D01*
X446Y2019D02*
X495Y2019D01*
X302Y2018D02*
X351Y2018D01*
X389Y2018D02*
X408Y2018D01*
X446Y2018D02*
X495Y2018D01*
X302Y2017D02*
X351Y2017D01*
X390Y2017D02*
X407Y2017D01*
X446Y2017D02*
X495Y2017D01*
X303Y2016D02*
X350Y2016D01*
X392Y2016D02*
X405Y2016D01*
X446Y2016D02*
X494Y2016D01*
X304Y2015D02*
X349Y2015D01*
X393Y2015D02*
X404Y2015D01*
X446Y2015D02*
X493Y2015D01*
X305Y2014D02*
X348Y2014D01*
X396Y2014D02*
X401Y2014D01*
X446Y2014D02*
X492Y2014D01*
X303Y1560D02*
X346Y1560D01*
X393Y1560D02*
X400Y1560D01*
X447Y1560D02*
X486Y1560D01*
X302Y1559D02*
X347Y1559D01*
X391Y1559D02*
X402Y1559D01*
X446Y1559D02*
X488Y1559D01*
X301Y1558D02*
X348Y1558D01*
X389Y1558D02*
X403Y1558D01*
X445Y1558D02*
X489Y1558D01*
X300Y1557D02*
X349Y1557D01*
X388Y1557D02*
X405Y1557D01*
X444Y1557D02*
X490Y1557D01*
X300Y1556D02*
X349Y1556D01*
X387Y1556D02*
X406Y1556D01*
X444Y1556D02*
X491Y1556D01*
X300Y1555D02*
X349Y1555D01*
X386Y1555D02*
X406Y1555D01*
X444Y1555D02*
X492Y1555D01*
X300Y1554D02*
X349Y1554D01*
X386Y1554D02*
X407Y1554D01*
X444Y1554D02*
X492Y1554D01*
X301Y1553D02*
X348Y1553D01*
X385Y1553D02*
X408Y1553D01*
X445Y1553D02*
X492Y1553D01*
X302Y1552D02*
X347Y1552D01*
X384Y1552D02*
X408Y1552D01*
X446Y1552D02*
X493Y1552D01*
X303Y1551D02*
X346Y1551D01*
X384Y1551D02*
X409Y1551D01*
X447Y1551D02*
X493Y1551D01*
X320Y1550D02*
X329Y1550D01*
X383Y1550D02*
X395Y1550D01*
X398Y1550D02*
X409Y1550D01*
X484Y1550D02*
X493Y1550D01*
X320Y1549D02*
X329Y1549D01*
X383Y1549D02*
X394Y1549D01*
X399Y1549D02*
X410Y1549D01*
X484Y1549D02*
X493Y1549D01*
X320Y1548D02*
X329Y1548D01*
X383Y1548D02*
X393Y1548D01*
X400Y1548D02*
X410Y1548D01*
X484Y1548D02*
X493Y1548D01*
X320Y1547D02*
X329Y1547D01*
X382Y1547D02*
X392Y1547D01*
X400Y1547D02*
X411Y1547D01*
X484Y1547D02*
X493Y1547D01*
X320Y1546D02*
X329Y1546D01*
X382Y1546D02*
X392Y1546D01*
X401Y1546D02*
X411Y1546D01*
X484Y1546D02*
X493Y1546D01*
X320Y1545D02*
X329Y1545D01*
X381Y1545D02*
X391Y1545D01*
X401Y1545D02*
X412Y1545D01*
X484Y1545D02*
X493Y1545D01*
X320Y1544D02*
X329Y1544D01*
X381Y1544D02*
X391Y1544D01*
X402Y1544D02*
X412Y1544D01*
X484Y1544D02*
X493Y1544D01*
X320Y1543D02*
X329Y1543D01*
X380Y1543D02*
X390Y1543D01*
X402Y1543D02*
X413Y1543D01*
X484Y1543D02*
X493Y1543D01*
X320Y1542D02*
X329Y1542D01*
X380Y1542D02*
X390Y1542D01*
X403Y1542D02*
X413Y1542D01*
X484Y1542D02*
X493Y1542D01*
X320Y1541D02*
X329Y1541D01*
X379Y1541D02*
X389Y1541D01*
X403Y1541D02*
X414Y1541D01*
X484Y1541D02*
X493Y1541D01*
X320Y1540D02*
X329Y1540D01*
X379Y1540D02*
X389Y1540D01*
X404Y1540D02*
X414Y1540D01*
X484Y1540D02*
X493Y1540D01*
X320Y1539D02*
X329Y1539D01*
X378Y1539D02*
X388Y1539D01*
X404Y1539D02*
X415Y1539D01*
X484Y1539D02*
X493Y1539D01*
X320Y1538D02*
X329Y1538D01*
X378Y1538D02*
X388Y1538D01*
X405Y1538D02*
X415Y1538D01*
X484Y1538D02*
X493Y1538D01*
X320Y1537D02*
X329Y1537D01*
X377Y1537D02*
X387Y1537D01*
X405Y1537D02*
X416Y1537D01*
X484Y1537D02*
X493Y1537D01*
X320Y1536D02*
X329Y1536D01*
X377Y1536D02*
X387Y1536D01*
X406Y1536D02*
X416Y1536D01*
X484Y1536D02*
X493Y1536D01*
X320Y1535D02*
X329Y1535D01*
X376Y1535D02*
X386Y1535D01*
X406Y1535D02*
X417Y1535D01*
X484Y1535D02*
X493Y1535D01*
X320Y1534D02*
X329Y1534D01*
X376Y1534D02*
X386Y1534D01*
X407Y1534D02*
X417Y1534D01*
X484Y1534D02*
X493Y1534D01*
X320Y1533D02*
X329Y1533D01*
X375Y1533D02*
X385Y1533D01*
X407Y1533D02*
X418Y1533D01*
X484Y1533D02*
X493Y1533D01*
X320Y1532D02*
X329Y1532D01*
X375Y1532D02*
X385Y1532D01*
X408Y1532D02*
X418Y1532D01*
X484Y1532D02*
X493Y1532D01*
X320Y1531D02*
X329Y1531D01*
X374Y1531D02*
X384Y1531D01*
X408Y1531D02*
X419Y1531D01*
X484Y1531D02*
X493Y1531D01*
X320Y1530D02*
X329Y1530D01*
X374Y1530D02*
X384Y1530D01*
X409Y1530D02*
X419Y1530D01*
X483Y1530D02*
X493Y1530D01*
X320Y1529D02*
X329Y1529D01*
X373Y1529D02*
X383Y1529D01*
X410Y1529D02*
X420Y1529D01*
X483Y1529D02*
X493Y1529D01*
X320Y1528D02*
X329Y1528D01*
X373Y1528D02*
X383Y1528D01*
X410Y1528D02*
X420Y1528D01*
X482Y1528D02*
X492Y1528D01*
X320Y1527D02*
X329Y1527D01*
X373Y1527D02*
X382Y1527D01*
X410Y1527D02*
X420Y1527D01*
X480Y1527D02*
X492Y1527D01*
X320Y1526D02*
X329Y1526D01*
X373Y1526D02*
X382Y1526D01*
X411Y1526D02*
X420Y1526D01*
X457Y1526D02*
X492Y1526D01*
X320Y1525D02*
X329Y1525D01*
X372Y1525D02*
X382Y1525D01*
X411Y1525D02*
X421Y1525D01*
X455Y1525D02*
X491Y1525D01*
X320Y1524D02*
X329Y1524D01*
X372Y1524D02*
X381Y1524D01*
X411Y1524D02*
X421Y1524D01*
X455Y1524D02*
X491Y1524D01*
X320Y1523D02*
X329Y1523D01*
X372Y1523D02*
X381Y1523D01*
X412Y1523D02*
X421Y1523D01*
X454Y1523D02*
X490Y1523D01*
X320Y1522D02*
X329Y1522D01*
X372Y1522D02*
X381Y1522D01*
X412Y1522D02*
X421Y1522D01*
X454Y1522D02*
X489Y1522D01*
X320Y1521D02*
X329Y1521D01*
X372Y1521D02*
X381Y1521D01*
X412Y1521D02*
X421Y1521D01*
X454Y1521D02*
X489Y1521D01*
X320Y1520D02*
X329Y1520D01*
X372Y1520D02*
X381Y1520D01*
X412Y1520D02*
X421Y1520D01*
X454Y1520D02*
X490Y1520D01*
X320Y1519D02*
X329Y1519D01*
X372Y1519D02*
X381Y1519D01*
X411Y1519D02*
X421Y1519D01*
X455Y1519D02*
X491Y1519D01*
X320Y1518D02*
X329Y1518D01*
X372Y1518D02*
X382Y1518D01*
X411Y1518D02*
X421Y1518D01*
X455Y1518D02*
X491Y1518D01*
X320Y1517D02*
X329Y1517D01*
X373Y1517D02*
X382Y1517D01*
X411Y1517D02*
X420Y1517D01*
X457Y1517D02*
X492Y1517D01*
X320Y1516D02*
X329Y1516D01*
X373Y1516D02*
X382Y1516D01*
X410Y1516D02*
X420Y1516D01*
X481Y1516D02*
X492Y1516D01*
X320Y1515D02*
X329Y1515D01*
X373Y1515D02*
X383Y1515D01*
X410Y1515D02*
X420Y1515D01*
X482Y1515D02*
X492Y1515D01*
X320Y1514D02*
X329Y1514D01*
X373Y1514D02*
X383Y1514D01*
X409Y1514D02*
X420Y1514D01*
X483Y1514D02*
X493Y1514D01*
X320Y1513D02*
X329Y1513D01*
X374Y1513D02*
X384Y1513D01*
X409Y1513D02*
X419Y1513D01*
X483Y1513D02*
X493Y1513D01*
X320Y1512D02*
X329Y1512D01*
X374Y1512D02*
X384Y1512D01*
X409Y1512D02*
X419Y1512D01*
X484Y1512D02*
X493Y1512D01*
X320Y1511D02*
X329Y1511D01*
X375Y1511D02*
X385Y1511D01*
X408Y1511D02*
X418Y1511D01*
X484Y1511D02*
X493Y1511D01*
X320Y1510D02*
X329Y1510D01*
X375Y1510D02*
X385Y1510D01*
X408Y1510D02*
X418Y1510D01*
X484Y1510D02*
X493Y1510D01*
X320Y1509D02*
X329Y1509D01*
X376Y1509D02*
X386Y1509D01*
X407Y1509D02*
X417Y1509D01*
X484Y1509D02*
X493Y1509D01*
X320Y1508D02*
X329Y1508D01*
X376Y1508D02*
X386Y1508D01*
X407Y1508D02*
X417Y1508D01*
X484Y1508D02*
X493Y1508D01*
X320Y1507D02*
X329Y1507D01*
X377Y1507D02*
X387Y1507D01*
X406Y1507D02*
X416Y1507D01*
X484Y1507D02*
X493Y1507D01*
X320Y1506D02*
X329Y1506D01*
X377Y1506D02*
X387Y1506D01*
X406Y1506D02*
X416Y1506D01*
X484Y1506D02*
X493Y1506D01*
X320Y1505D02*
X329Y1505D01*
X378Y1505D02*
X388Y1505D01*
X405Y1505D02*
X415Y1505D01*
X484Y1505D02*
X493Y1505D01*
X320Y1504D02*
X329Y1504D01*
X378Y1504D02*
X388Y1504D01*
X405Y1504D02*
X415Y1504D01*
X484Y1504D02*
X493Y1504D01*
X320Y1503D02*
X329Y1503D01*
X379Y1503D02*
X389Y1503D01*
X404Y1503D02*
X414Y1503D01*
X484Y1503D02*
X493Y1503D01*
X320Y1502D02*
X329Y1502D01*
X379Y1502D02*
X389Y1502D01*
X404Y1502D02*
X414Y1502D01*
X484Y1502D02*
X493Y1502D01*
X320Y1501D02*
X329Y1501D01*
X380Y1501D02*
X390Y1501D01*
X403Y1501D02*
X413Y1501D01*
X484Y1501D02*
X493Y1501D01*
X320Y1500D02*
X329Y1500D01*
X380Y1500D02*
X390Y1500D01*
X403Y1500D02*
X413Y1500D01*
X484Y1500D02*
X493Y1500D01*
X320Y1499D02*
X329Y1499D01*
X381Y1499D02*
X391Y1499D01*
X402Y1499D02*
X412Y1499D01*
X484Y1499D02*
X493Y1499D01*
X320Y1498D02*
X329Y1498D01*
X381Y1498D02*
X391Y1498D01*
X402Y1498D02*
X412Y1498D01*
X484Y1498D02*
X493Y1498D01*
X320Y1497D02*
X329Y1497D01*
X382Y1497D02*
X392Y1497D01*
X401Y1497D02*
X411Y1497D01*
X484Y1497D02*
X493Y1497D01*
X320Y1496D02*
X329Y1496D01*
X382Y1496D02*
X392Y1496D01*
X401Y1496D02*
X411Y1496D01*
X484Y1496D02*
X493Y1496D01*
X320Y1495D02*
X329Y1495D01*
X383Y1495D02*
X393Y1495D01*
X400Y1495D02*
X410Y1495D01*
X484Y1495D02*
X493Y1495D01*
X320Y1494D02*
X329Y1494D01*
X383Y1494D02*
X394Y1494D01*
X399Y1494D02*
X410Y1494D01*
X484Y1494D02*
X493Y1494D01*
X320Y1493D02*
X329Y1493D01*
X384Y1493D02*
X395Y1493D01*
X398Y1493D02*
X409Y1493D01*
X484Y1493D02*
X493Y1493D01*
X303Y1492D02*
X346Y1492D01*
X384Y1492D02*
X409Y1492D01*
X447Y1492D02*
X493Y1492D01*
X301Y1491D02*
X347Y1491D01*
X385Y1491D02*
X408Y1491D01*
X445Y1491D02*
X493Y1491D01*
X301Y1490D02*
X348Y1490D01*
X385Y1490D02*
X408Y1490D01*
X445Y1490D02*
X492Y1490D01*
X300Y1489D02*
X349Y1489D01*
X386Y1489D02*
X407Y1489D01*
X444Y1489D02*
X492Y1489D01*
X300Y1488D02*
X349Y1488D01*
X386Y1488D02*
X406Y1488D01*
X444Y1488D02*
X492Y1488D01*
X300Y1487D02*
X349Y1487D01*
X387Y1487D02*
X406Y1487D01*
X444Y1487D02*
X491Y1487D01*
X300Y1486D02*
X349Y1486D01*
X388Y1486D02*
X405Y1486D01*
X444Y1486D02*
X490Y1486D01*
X301Y1485D02*
X348Y1485D01*
X389Y1485D02*
X403Y1485D01*
X445Y1485D02*
X489Y1485D01*
X302Y1484D02*
X347Y1484D01*
X391Y1484D02*
X402Y1484D01*
X446Y1484D02*
X488Y1484D01*
X303Y1483D02*
X346Y1483D01*
X393Y1483D02*
X399Y1483D01*
X447Y1483D02*
X486Y1483D01*
X307Y1051D02*
X347Y1051D01*
X397Y1051D02*
X401Y1051D01*
X453Y1051D02*
X454Y1051D01*
X304Y1050D02*
X349Y1050D01*
X394Y1050D02*
X404Y1050D01*
X451Y1050D02*
X456Y1050D01*
X304Y1049D02*
X350Y1049D01*
X392Y1049D02*
X406Y1049D01*
X450Y1049D02*
X457Y1049D01*
X303Y1048D02*
X351Y1048D01*
X391Y1048D02*
X407Y1048D01*
X449Y1048D02*
X458Y1048D01*
X303Y1047D02*
X351Y1047D01*
X390Y1047D02*
X408Y1047D01*
X449Y1047D02*
X458Y1047D01*
X303Y1046D02*
X351Y1046D01*
X389Y1046D02*
X409Y1046D01*
X449Y1046D02*
X458Y1046D01*
X303Y1045D02*
X351Y1045D01*
X388Y1045D02*
X409Y1045D01*
X449Y1045D02*
X458Y1045D01*
X303Y1044D02*
X351Y1044D01*
X388Y1044D02*
X410Y1044D01*
X449Y1044D02*
X458Y1044D01*
X304Y1043D02*
X350Y1043D01*
X387Y1043D02*
X411Y1043D01*
X449Y1043D02*
X458Y1043D01*
X305Y1042D02*
X349Y1042D01*
X387Y1042D02*
X411Y1042D01*
X449Y1042D02*
X458Y1042D01*
X481Y1042D02*
X485Y1042D01*
X322Y1041D02*
X332Y1041D01*
X386Y1041D02*
X398Y1041D01*
X400Y1041D02*
X412Y1041D01*
X449Y1041D02*
X458Y1041D01*
X480Y1041D02*
X487Y1041D01*
X322Y1040D02*
X332Y1040D01*
X386Y1040D02*
X396Y1040D01*
X402Y1040D02*
X412Y1040D01*
X449Y1040D02*
X458Y1040D01*
X479Y1040D02*
X487Y1040D01*
X322Y1039D02*
X332Y1039D01*
X385Y1039D02*
X396Y1039D01*
X402Y1039D02*
X413Y1039D01*
X449Y1039D02*
X458Y1039D01*
X479Y1039D02*
X488Y1039D01*
X322Y1038D02*
X332Y1038D01*
X385Y1038D02*
X395Y1038D01*
X403Y1038D02*
X413Y1038D01*
X449Y1038D02*
X458Y1038D01*
X479Y1038D02*
X488Y1038D01*
X322Y1037D02*
X332Y1037D01*
X384Y1037D02*
X395Y1037D01*
X403Y1037D02*
X414Y1037D01*
X449Y1037D02*
X458Y1037D01*
X479Y1037D02*
X488Y1037D01*
X322Y1036D02*
X332Y1036D01*
X384Y1036D02*
X394Y1036D01*
X404Y1036D02*
X414Y1036D01*
X449Y1036D02*
X458Y1036D01*
X479Y1036D02*
X488Y1036D01*
X322Y1035D02*
X332Y1035D01*
X383Y1035D02*
X394Y1035D01*
X404Y1035D02*
X415Y1035D01*
X449Y1035D02*
X458Y1035D01*
X479Y1035D02*
X488Y1035D01*
X322Y1034D02*
X332Y1034D01*
X383Y1034D02*
X393Y1034D01*
X405Y1034D02*
X415Y1034D01*
X449Y1034D02*
X458Y1034D01*
X479Y1034D02*
X488Y1034D01*
X322Y1033D02*
X332Y1033D01*
X382Y1033D02*
X393Y1033D01*
X405Y1033D02*
X416Y1033D01*
X449Y1033D02*
X458Y1033D01*
X479Y1033D02*
X488Y1033D01*
X322Y1032D02*
X332Y1032D01*
X382Y1032D02*
X392Y1032D01*
X406Y1032D02*
X416Y1032D01*
X449Y1032D02*
X458Y1032D01*
X479Y1032D02*
X488Y1032D01*
X322Y1031D02*
X332Y1031D01*
X381Y1031D02*
X392Y1031D01*
X406Y1031D02*
X417Y1031D01*
X449Y1031D02*
X458Y1031D01*
X479Y1031D02*
X488Y1031D01*
X322Y1030D02*
X332Y1030D01*
X381Y1030D02*
X391Y1030D01*
X407Y1030D02*
X417Y1030D01*
X449Y1030D02*
X458Y1030D01*
X479Y1030D02*
X488Y1030D01*
X322Y1029D02*
X332Y1029D01*
X380Y1029D02*
X391Y1029D01*
X407Y1029D02*
X418Y1029D01*
X449Y1029D02*
X458Y1029D01*
X479Y1029D02*
X488Y1029D01*
X322Y1028D02*
X332Y1028D01*
X380Y1028D02*
X390Y1028D01*
X408Y1028D02*
X418Y1028D01*
X449Y1028D02*
X458Y1028D01*
X479Y1028D02*
X488Y1028D01*
X322Y1027D02*
X332Y1027D01*
X379Y1027D02*
X390Y1027D01*
X408Y1027D02*
X419Y1027D01*
X449Y1027D02*
X458Y1027D01*
X479Y1027D02*
X488Y1027D01*
X322Y1026D02*
X332Y1026D01*
X379Y1026D02*
X389Y1026D01*
X409Y1026D02*
X419Y1026D01*
X449Y1026D02*
X458Y1026D01*
X479Y1026D02*
X488Y1026D01*
X322Y1025D02*
X332Y1025D01*
X378Y1025D02*
X389Y1025D01*
X409Y1025D02*
X420Y1025D01*
X449Y1025D02*
X458Y1025D01*
X479Y1025D02*
X488Y1025D01*
X322Y1024D02*
X332Y1024D01*
X378Y1024D02*
X388Y1024D01*
X410Y1024D02*
X420Y1024D01*
X449Y1024D02*
X458Y1024D01*
X479Y1024D02*
X488Y1024D01*
X322Y1023D02*
X332Y1023D01*
X377Y1023D02*
X388Y1023D01*
X410Y1023D02*
X421Y1023D01*
X449Y1023D02*
X458Y1023D01*
X479Y1023D02*
X488Y1023D01*
X322Y1022D02*
X332Y1022D01*
X377Y1022D02*
X387Y1022D01*
X411Y1022D02*
X421Y1022D01*
X449Y1022D02*
X458Y1022D01*
X479Y1022D02*
X488Y1022D01*
X322Y1021D02*
X332Y1021D01*
X376Y1021D02*
X386Y1021D01*
X411Y1021D02*
X422Y1021D01*
X449Y1021D02*
X458Y1021D01*
X479Y1021D02*
X488Y1021D01*
X322Y1020D02*
X332Y1020D01*
X376Y1020D02*
X386Y1020D01*
X412Y1020D02*
X422Y1020D01*
X449Y1020D02*
X458Y1020D01*
X479Y1020D02*
X488Y1020D01*
X322Y1019D02*
X332Y1019D01*
X376Y1019D02*
X385Y1019D01*
X412Y1019D02*
X422Y1019D01*
X449Y1019D02*
X458Y1019D01*
X479Y1019D02*
X488Y1019D01*
X322Y1018D02*
X332Y1018D01*
X375Y1018D02*
X385Y1018D01*
X413Y1018D02*
X423Y1018D01*
X449Y1018D02*
X458Y1018D01*
X479Y1018D02*
X488Y1018D01*
X322Y1017D02*
X332Y1017D01*
X375Y1017D02*
X385Y1017D01*
X413Y1017D02*
X423Y1017D01*
X449Y1017D02*
X458Y1017D01*
X479Y1017D02*
X488Y1017D01*
X322Y1016D02*
X332Y1016D01*
X375Y1016D02*
X384Y1016D01*
X414Y1016D02*
X423Y1016D01*
X449Y1016D02*
X458Y1016D01*
X479Y1016D02*
X488Y1016D01*
X322Y1015D02*
X332Y1015D01*
X375Y1015D02*
X384Y1015D01*
X414Y1015D02*
X423Y1015D01*
X449Y1015D02*
X458Y1015D01*
X479Y1015D02*
X488Y1015D01*
X322Y1014D02*
X332Y1014D01*
X375Y1014D02*
X384Y1014D01*
X414Y1014D02*
X423Y1014D01*
X449Y1014D02*
X458Y1014D01*
X479Y1014D02*
X488Y1014D01*
X322Y1013D02*
X332Y1013D01*
X375Y1013D02*
X384Y1013D01*
X414Y1013D02*
X423Y1013D01*
X449Y1013D02*
X458Y1013D01*
X479Y1013D02*
X488Y1013D01*
X322Y1012D02*
X332Y1012D01*
X375Y1012D02*
X384Y1012D01*
X414Y1012D02*
X423Y1012D01*
X449Y1012D02*
X458Y1012D01*
X479Y1012D02*
X488Y1012D01*
X322Y1011D02*
X332Y1011D01*
X375Y1011D02*
X384Y1011D01*
X414Y1011D02*
X423Y1011D01*
X449Y1011D02*
X458Y1011D01*
X479Y1011D02*
X488Y1011D01*
X322Y1010D02*
X332Y1010D01*
X375Y1010D02*
X384Y1010D01*
X414Y1010D02*
X423Y1010D01*
X449Y1010D02*
X458Y1010D01*
X479Y1010D02*
X488Y1010D01*
X322Y1009D02*
X332Y1009D01*
X375Y1009D02*
X384Y1009D01*
X414Y1009D02*
X423Y1009D01*
X449Y1009D02*
X458Y1009D01*
X479Y1009D02*
X488Y1009D01*
X322Y1008D02*
X332Y1008D01*
X375Y1008D02*
X384Y1008D01*
X413Y1008D02*
X423Y1008D01*
X449Y1008D02*
X490Y1008D01*
X322Y1007D02*
X332Y1007D01*
X375Y1007D02*
X385Y1007D01*
X413Y1007D02*
X423Y1007D01*
X449Y1007D02*
X492Y1007D01*
X322Y1006D02*
X332Y1006D01*
X375Y1006D02*
X385Y1006D01*
X413Y1006D02*
X422Y1006D01*
X449Y1006D02*
X492Y1006D01*
X322Y1005D02*
X332Y1005D01*
X376Y1005D02*
X386Y1005D01*
X412Y1005D02*
X422Y1005D01*
X449Y1005D02*
X493Y1005D01*
X322Y1004D02*
X332Y1004D01*
X376Y1004D02*
X386Y1004D01*
X412Y1004D02*
X422Y1004D01*
X449Y1004D02*
X493Y1004D01*
X322Y1003D02*
X332Y1003D01*
X376Y1003D02*
X387Y1003D01*
X411Y1003D02*
X421Y1003D01*
X449Y1003D02*
X493Y1003D01*
X322Y1002D02*
X332Y1002D01*
X377Y1002D02*
X387Y1002D01*
X411Y1002D02*
X421Y1002D01*
X449Y1002D02*
X493Y1002D01*
X322Y1001D02*
X332Y1001D01*
X377Y1001D02*
X388Y1001D01*
X410Y1001D02*
X420Y1001D01*
X449Y1001D02*
X492Y1001D01*
X322Y1000D02*
X332Y1000D01*
X378Y1000D02*
X388Y1000D01*
X410Y1000D02*
X420Y1000D01*
X449Y1000D02*
X491Y1000D01*
X322Y999D02*
X332Y999D01*
X378Y999D02*
X389Y999D01*
X409Y999D02*
X419Y999D01*
X449Y999D02*
X489Y999D01*
X322Y998D02*
X332Y998D01*
X379Y998D02*
X389Y998D01*
X409Y998D02*
X419Y998D01*
X479Y998D02*
X488Y998D01*
X322Y997D02*
X332Y997D01*
X379Y997D02*
X390Y997D01*
X408Y997D02*
X418Y997D01*
X479Y997D02*
X488Y997D01*
X322Y996D02*
X332Y996D01*
X380Y996D02*
X390Y996D01*
X408Y996D02*
X418Y996D01*
X479Y996D02*
X488Y996D01*
X322Y995D02*
X332Y995D01*
X380Y995D02*
X391Y995D01*
X407Y995D02*
X417Y995D01*
X479Y995D02*
X488Y995D01*
X322Y994D02*
X332Y994D01*
X381Y994D02*
X391Y994D01*
X407Y994D02*
X417Y994D01*
X479Y994D02*
X488Y994D01*
X322Y993D02*
X332Y993D01*
X381Y993D02*
X392Y993D01*
X406Y993D02*
X416Y993D01*
X479Y993D02*
X488Y993D01*
X322Y992D02*
X332Y992D01*
X382Y992D02*
X392Y992D01*
X406Y992D02*
X416Y992D01*
X479Y992D02*
X488Y992D01*
X322Y991D02*
X332Y991D01*
X382Y991D02*
X393Y991D01*
X405Y991D02*
X415Y991D01*
X479Y991D02*
X488Y991D01*
X322Y990D02*
X332Y990D01*
X383Y990D02*
X393Y990D01*
X405Y990D02*
X415Y990D01*
X479Y990D02*
X488Y990D01*
X322Y989D02*
X332Y989D01*
X383Y989D02*
X394Y989D01*
X404Y989D02*
X414Y989D01*
X479Y989D02*
X488Y989D01*
X322Y988D02*
X332Y988D01*
X384Y988D02*
X394Y988D01*
X404Y988D02*
X414Y988D01*
X479Y988D02*
X488Y988D01*
X322Y987D02*
X332Y987D01*
X384Y987D02*
X395Y987D01*
X403Y987D02*
X413Y987D01*
X479Y987D02*
X488Y987D01*
X322Y986D02*
X332Y986D01*
X385Y986D02*
X395Y986D01*
X403Y986D02*
X413Y986D01*
X479Y986D02*
X488Y986D01*
X322Y985D02*
X332Y985D01*
X385Y985D02*
X396Y985D01*
X402Y985D02*
X412Y985D01*
X479Y985D02*
X488Y985D01*
X322Y984D02*
X332Y984D01*
X386Y984D02*
X397Y984D01*
X401Y984D02*
X412Y984D01*
X479Y984D02*
X488Y984D01*
X306Y983D02*
X348Y983D01*
X386Y983D02*
X411Y983D01*
X479Y983D02*
X488Y983D01*
X304Y982D02*
X350Y982D01*
X387Y982D02*
X411Y982D01*
X479Y982D02*
X488Y982D01*
X304Y981D02*
X350Y981D01*
X387Y981D02*
X410Y981D01*
X479Y981D02*
X488Y981D01*
X303Y980D02*
X351Y980D01*
X388Y980D02*
X410Y980D01*
X479Y980D02*
X488Y980D01*
X303Y979D02*
X351Y979D01*
X389Y979D02*
X409Y979D01*
X479Y979D02*
X488Y979D01*
X303Y978D02*
X351Y978D01*
X389Y978D02*
X409Y978D01*
X479Y978D02*
X488Y978D01*
X303Y977D02*
X351Y977D01*
X390Y977D02*
X408Y977D01*
X479Y977D02*
X488Y977D01*
X303Y976D02*
X351Y976D01*
X392Y976D02*
X406Y976D01*
X479Y976D02*
X487Y976D01*
X304Y975D02*
X350Y975D01*
X393Y975D02*
X405Y975D01*
X480Y975D02*
X487Y975D01*
X305Y974D02*
X349Y974D01*
X395Y974D02*
X403Y974D01*
X481Y974D02*
X485Y974D01*
X130Y303D02*
X133Y303D01*
X253Y303D02*
X277Y303D01*
X306Y303D02*
X310Y303D01*
X128Y302D02*
X135Y302D01*
X250Y302D02*
X279Y302D01*
X305Y302D02*
X311Y302D01*
X128Y301D02*
X135Y301D01*
X249Y301D02*
X279Y301D01*
X304Y301D02*
X312Y301D01*
X127Y300D02*
X136Y300D01*
X247Y300D02*
X280Y300D01*
X303Y300D02*
X312Y300D01*
X127Y299D02*
X136Y299D01*
X246Y299D02*
X280Y299D01*
X303Y299D02*
X312Y299D01*
X127Y298D02*
X136Y298D01*
X245Y298D02*
X280Y298D01*
X303Y298D02*
X312Y298D01*
X127Y297D02*
X136Y297D01*
X245Y297D02*
X280Y297D01*
X303Y297D02*
X312Y297D01*
X127Y296D02*
X136Y296D01*
X244Y296D02*
X279Y296D01*
X303Y296D02*
X312Y296D01*
X127Y295D02*
X136Y295D01*
X244Y295D02*
X278Y295D01*
X303Y295D02*
X312Y295D01*
X127Y294D02*
X136Y294D01*
X243Y294D02*
X277Y294D01*
X303Y294D02*
X312Y294D01*
X127Y293D02*
X136Y293D01*
X243Y293D02*
X254Y293D01*
X303Y293D02*
X312Y293D01*
X127Y292D02*
X136Y292D01*
X242Y292D02*
X253Y292D01*
X303Y292D02*
X312Y292D01*
X127Y291D02*
X136Y291D01*
X242Y291D02*
X252Y291D01*
X303Y291D02*
X312Y291D01*
X127Y290D02*
X136Y290D01*
X241Y290D02*
X252Y290D01*
X303Y290D02*
X312Y290D01*
X127Y289D02*
X136Y289D01*
X241Y289D02*
X251Y289D01*
X303Y289D02*
X312Y289D01*
X127Y288D02*
X136Y288D01*
X240Y288D02*
X251Y288D01*
X303Y288D02*
X312Y288D01*
X127Y287D02*
X136Y287D01*
X240Y287D02*
X250Y287D01*
X303Y287D02*
X312Y287D01*
X127Y286D02*
X136Y286D01*
X239Y286D02*
X250Y286D01*
X303Y286D02*
X312Y286D01*
X127Y285D02*
X136Y285D01*
X239Y285D02*
X249Y285D01*
X303Y285D02*
X312Y285D01*
X127Y284D02*
X136Y284D01*
X238Y284D02*
X249Y284D01*
X303Y284D02*
X312Y284D01*
X127Y283D02*
X136Y283D01*
X238Y283D02*
X248Y283D01*
X303Y283D02*
X312Y283D01*
X102Y282D02*
X116Y282D01*
X127Y282D02*
X136Y282D01*
X162Y282D02*
X165Y282D01*
X182Y282D02*
X197Y282D01*
X237Y282D02*
X247Y282D01*
X303Y282D02*
X312Y282D01*
X327Y282D02*
X339Y282D01*
X378Y282D02*
X381Y282D01*
X418Y282D02*
X421Y282D01*
X450Y282D02*
X453Y282D01*
X471Y282D02*
X483Y282D01*
X534Y282D02*
X548Y282D01*
X562Y282D02*
X565Y282D01*
X594Y282D02*
X597Y282D01*
X634Y282D02*
X637Y282D01*
X674Y282D02*
X701Y282D01*
X99Y281D02*
X119Y281D01*
X127Y281D02*
X136Y281D01*
X161Y281D02*
X167Y281D01*
X180Y281D02*
X199Y281D01*
X237Y281D02*
X247Y281D01*
X303Y281D02*
X312Y281D01*
X325Y281D02*
X342Y281D01*
X377Y281D02*
X383Y281D01*
X416Y281D02*
X422Y281D01*
X449Y281D02*
X455Y281D01*
X469Y281D02*
X486Y281D01*
X531Y281D02*
X551Y281D01*
X560Y281D02*
X566Y281D01*
X593Y281D02*
X599Y281D01*
X632Y281D02*
X638Y281D01*
X671Y281D02*
X704Y281D01*
X98Y280D02*
X121Y280D01*
X127Y280D02*
X136Y280D01*
X160Y280D02*
X168Y280D01*
X179Y280D02*
X201Y280D01*
X236Y280D02*
X246Y280D01*
X303Y280D02*
X312Y280D01*
X323Y280D02*
X344Y280D01*
X376Y280D02*
X383Y280D01*
X416Y280D02*
X423Y280D01*
X448Y280D02*
X455Y280D01*
X467Y280D02*
X488Y280D01*
X530Y280D02*
X552Y280D01*
X560Y280D02*
X567Y280D01*
X592Y280D02*
X599Y280D01*
X632Y280D02*
X639Y280D01*
X670Y280D02*
X706Y280D01*
X96Y279D02*
X122Y279D01*
X127Y279D02*
X136Y279D01*
X160Y279D02*
X168Y279D01*
X178Y279D02*
X202Y279D01*
X236Y279D02*
X246Y279D01*
X303Y279D02*
X312Y279D01*
X321Y279D02*
X345Y279D01*
X376Y279D02*
X384Y279D01*
X415Y279D02*
X424Y279D01*
X448Y279D02*
X456Y279D01*
X465Y279D02*
X489Y279D01*
X528Y279D02*
X554Y279D01*
X559Y279D02*
X568Y279D01*
X591Y279D02*
X600Y279D01*
X631Y279D02*
X640Y279D01*
X668Y279D02*
X707Y279D01*
X95Y278D02*
X123Y278D01*
X127Y278D02*
X136Y278D01*
X159Y278D02*
X168Y278D01*
X177Y278D02*
X204Y278D01*
X235Y278D02*
X245Y278D01*
X303Y278D02*
X312Y278D01*
X320Y278D02*
X346Y278D01*
X375Y278D02*
X384Y278D01*
X415Y278D02*
X424Y278D01*
X447Y278D02*
X456Y278D01*
X464Y278D02*
X490Y278D01*
X527Y278D02*
X555Y278D01*
X559Y278D02*
X568Y278D01*
X591Y278D02*
X600Y278D01*
X631Y278D02*
X640Y278D01*
X667Y278D02*
X708Y278D01*
X94Y277D02*
X124Y277D01*
X127Y277D02*
X136Y277D01*
X159Y277D02*
X168Y277D01*
X176Y277D02*
X204Y277D01*
X235Y277D02*
X245Y277D01*
X303Y277D02*
X312Y277D01*
X318Y277D02*
X347Y277D01*
X375Y277D02*
X384Y277D01*
X415Y277D02*
X424Y277D01*
X447Y277D02*
X456Y277D01*
X462Y277D02*
X491Y277D01*
X526Y277D02*
X556Y277D01*
X559Y277D02*
X568Y277D01*
X591Y277D02*
X600Y277D01*
X631Y277D02*
X640Y277D01*
X667Y277D02*
X709Y277D01*
X93Y276D02*
X136Y276D01*
X159Y276D02*
X168Y276D01*
X175Y276D02*
X205Y276D01*
X234Y276D02*
X244Y276D01*
X303Y276D02*
X312Y276D01*
X316Y276D02*
X348Y276D01*
X375Y276D02*
X384Y276D01*
X415Y276D02*
X424Y276D01*
X447Y276D02*
X456Y276D01*
X460Y276D02*
X492Y276D01*
X525Y276D02*
X568Y276D01*
X591Y276D02*
X600Y276D01*
X631Y276D02*
X640Y276D01*
X666Y276D02*
X710Y276D01*
X92Y275D02*
X136Y275D01*
X159Y275D02*
X168Y275D01*
X173Y275D02*
X206Y275D01*
X234Y275D02*
X244Y275D01*
X303Y275D02*
X312Y275D01*
X315Y275D02*
X349Y275D01*
X375Y275D02*
X384Y275D01*
X415Y275D02*
X424Y275D01*
X447Y275D02*
X456Y275D01*
X459Y275D02*
X493Y275D01*
X524Y275D02*
X568Y275D01*
X591Y275D02*
X600Y275D01*
X631Y275D02*
X640Y275D01*
X665Y275D02*
X710Y275D01*
X91Y274D02*
X136Y274D01*
X159Y274D02*
X168Y274D01*
X172Y274D02*
X207Y274D01*
X233Y274D02*
X243Y274D01*
X303Y274D02*
X349Y274D01*
X375Y274D02*
X384Y274D01*
X415Y274D02*
X424Y274D01*
X447Y274D02*
X493Y274D01*
X523Y274D02*
X568Y274D01*
X591Y274D02*
X600Y274D01*
X631Y274D02*
X640Y274D01*
X665Y274D02*
X711Y274D01*
X90Y273D02*
X136Y273D01*
X159Y273D02*
X168Y273D01*
X171Y273D02*
X207Y273D01*
X233Y273D02*
X243Y273D01*
X303Y273D02*
X350Y273D01*
X375Y273D02*
X384Y273D01*
X415Y273D02*
X424Y273D01*
X447Y273D02*
X494Y273D01*
X522Y273D02*
X568Y273D01*
X591Y273D02*
X600Y273D01*
X631Y273D02*
X640Y273D01*
X665Y273D02*
X711Y273D01*
X89Y272D02*
X103Y272D01*
X115Y272D02*
X136Y272D01*
X159Y272D02*
X185Y272D01*
X196Y272D02*
X207Y272D01*
X232Y272D02*
X242Y272D01*
X303Y272D02*
X328Y272D01*
X339Y272D02*
X350Y272D01*
X375Y272D02*
X384Y272D01*
X415Y272D02*
X424Y272D01*
X447Y272D02*
X472Y272D01*
X482Y272D02*
X494Y272D01*
X521Y272D02*
X535Y272D01*
X547Y272D02*
X568Y272D01*
X591Y272D02*
X600Y272D01*
X631Y272D02*
X640Y272D01*
X665Y272D02*
X675Y272D01*
X700Y272D02*
X711Y272D01*
X89Y271D02*
X101Y271D01*
X117Y271D02*
X136Y271D01*
X159Y271D02*
X183Y271D01*
X197Y271D02*
X208Y271D01*
X232Y271D02*
X242Y271D01*
X303Y271D02*
X326Y271D01*
X340Y271D02*
X350Y271D01*
X375Y271D02*
X384Y271D01*
X415Y271D02*
X424Y271D01*
X447Y271D02*
X470Y271D01*
X484Y271D02*
X494Y271D01*
X521Y271D02*
X533Y271D01*
X549Y271D02*
X568Y271D01*
X591Y271D02*
X600Y271D01*
X631Y271D02*
X640Y271D01*
X664Y271D02*
X674Y271D01*
X702Y271D02*
X710Y271D01*
X88Y270D02*
X100Y270D01*
X118Y270D02*
X136Y270D01*
X159Y270D02*
X182Y270D01*
X198Y270D02*
X208Y270D01*
X232Y270D02*
X241Y270D01*
X303Y270D02*
X325Y270D01*
X341Y270D02*
X350Y270D01*
X375Y270D02*
X384Y270D01*
X415Y270D02*
X424Y270D01*
X447Y270D02*
X469Y270D01*
X485Y270D02*
X494Y270D01*
X520Y270D02*
X532Y270D01*
X550Y270D02*
X568Y270D01*
X591Y270D02*
X600Y270D01*
X631Y270D02*
X640Y270D01*
X664Y270D02*
X673Y270D01*
X703Y270D02*
X710Y270D01*
X88Y269D02*
X99Y269D01*
X119Y269D02*
X136Y269D01*
X159Y269D02*
X181Y269D01*
X199Y269D02*
X208Y269D01*
X232Y269D02*
X241Y269D01*
X303Y269D02*
X323Y269D01*
X341Y269D02*
X351Y269D01*
X375Y269D02*
X385Y269D01*
X415Y269D02*
X424Y269D01*
X447Y269D02*
X467Y269D01*
X485Y269D02*
X495Y269D01*
X520Y269D02*
X531Y269D01*
X551Y269D02*
X568Y269D01*
X591Y269D02*
X600Y269D01*
X631Y269D02*
X640Y269D01*
X664Y269D02*
X673Y269D01*
X704Y269D02*
X708Y269D01*
X88Y268D02*
X98Y268D01*
X120Y268D02*
X136Y268D01*
X159Y268D02*
X180Y268D01*
X199Y268D02*
X208Y268D01*
X232Y268D02*
X241Y268D01*
X303Y268D02*
X322Y268D01*
X342Y268D02*
X351Y268D01*
X376Y268D02*
X385Y268D01*
X415Y268D02*
X424Y268D01*
X447Y268D02*
X466Y268D01*
X486Y268D02*
X495Y268D01*
X520Y268D02*
X530Y268D01*
X552Y268D02*
X568Y268D01*
X591Y268D02*
X601Y268D01*
X631Y268D02*
X640Y268D01*
X665Y268D02*
X674Y268D01*
X87Y267D02*
X97Y267D01*
X121Y267D02*
X136Y267D01*
X159Y267D02*
X179Y267D01*
X199Y267D02*
X208Y267D01*
X231Y267D02*
X241Y267D01*
X303Y267D02*
X320Y267D01*
X342Y267D02*
X351Y267D01*
X376Y267D02*
X385Y267D01*
X415Y267D02*
X424Y267D01*
X447Y267D02*
X464Y267D01*
X486Y267D02*
X495Y267D01*
X519Y267D02*
X529Y267D01*
X553Y267D02*
X568Y267D01*
X592Y267D02*
X601Y267D01*
X631Y267D02*
X640Y267D01*
X665Y267D02*
X675Y267D01*
X87Y266D02*
X97Y266D01*
X123Y266D02*
X136Y266D01*
X159Y266D02*
X178Y266D01*
X199Y266D02*
X208Y266D01*
X231Y266D02*
X241Y266D01*
X303Y266D02*
X319Y266D01*
X342Y266D02*
X351Y266D01*
X376Y266D02*
X385Y266D01*
X415Y266D02*
X424Y266D01*
X447Y266D02*
X463Y266D01*
X486Y266D02*
X495Y266D01*
X519Y266D02*
X529Y266D01*
X555Y266D02*
X568Y266D01*
X592Y266D02*
X601Y266D01*
X631Y266D02*
X640Y266D01*
X665Y266D02*
X677Y266D01*
X87Y265D02*
X96Y265D01*
X124Y265D02*
X136Y265D01*
X159Y265D02*
X176Y265D01*
X199Y265D02*
X208Y265D01*
X231Y265D02*
X240Y265D01*
X303Y265D02*
X317Y265D01*
X342Y265D02*
X351Y265D01*
X376Y265D02*
X385Y265D01*
X415Y265D02*
X424Y265D01*
X447Y265D02*
X461Y265D01*
X486Y265D02*
X495Y265D01*
X519Y265D02*
X528Y265D01*
X556Y265D02*
X568Y265D01*
X592Y265D02*
X601Y265D01*
X631Y265D02*
X640Y265D01*
X665Y265D02*
X680Y265D01*
X87Y264D02*
X96Y264D01*
X125Y264D02*
X136Y264D01*
X159Y264D02*
X175Y264D01*
X199Y264D02*
X208Y264D01*
X231Y264D02*
X240Y264D01*
X303Y264D02*
X316Y264D01*
X342Y264D02*
X351Y264D01*
X376Y264D02*
X385Y264D01*
X415Y264D02*
X424Y264D01*
X447Y264D02*
X460Y264D01*
X486Y264D02*
X495Y264D01*
X519Y264D02*
X528Y264D01*
X557Y264D02*
X568Y264D01*
X592Y264D02*
X601Y264D01*
X631Y264D02*
X640Y264D01*
X666Y264D02*
X682Y264D01*
X87Y263D02*
X96Y263D01*
X126Y263D02*
X136Y263D01*
X159Y263D02*
X174Y263D01*
X199Y263D02*
X208Y263D01*
X231Y263D02*
X241Y263D01*
X303Y263D02*
X314Y263D01*
X342Y263D02*
X351Y263D01*
X376Y263D02*
X385Y263D01*
X415Y263D02*
X424Y263D01*
X447Y263D02*
X458Y263D01*
X486Y263D02*
X495Y263D01*
X519Y263D02*
X528Y263D01*
X558Y263D02*
X568Y263D01*
X592Y263D02*
X601Y263D01*
X631Y263D02*
X640Y263D01*
X666Y263D02*
X684Y263D01*
X87Y262D02*
X96Y262D01*
X127Y262D02*
X136Y262D01*
X159Y262D02*
X173Y262D01*
X200Y262D02*
X207Y262D01*
X231Y262D02*
X241Y262D01*
X303Y262D02*
X313Y262D01*
X342Y262D02*
X351Y262D01*
X376Y262D02*
X385Y262D01*
X415Y262D02*
X424Y262D01*
X447Y262D02*
X457Y262D01*
X486Y262D02*
X495Y262D01*
X519Y262D02*
X528Y262D01*
X558Y262D02*
X568Y262D01*
X592Y262D02*
X601Y262D01*
X631Y262D02*
X640Y262D01*
X667Y262D02*
X687Y262D01*
X87Y261D02*
X96Y261D01*
X127Y261D02*
X136Y261D01*
X159Y261D02*
X172Y261D01*
X201Y261D02*
X206Y261D01*
X232Y261D02*
X241Y261D01*
X303Y261D02*
X312Y261D01*
X342Y261D02*
X351Y261D01*
X376Y261D02*
X385Y261D01*
X415Y261D02*
X424Y261D01*
X447Y261D02*
X456Y261D01*
X486Y261D02*
X495Y261D01*
X519Y261D02*
X528Y261D01*
X559Y261D02*
X568Y261D01*
X592Y261D02*
X601Y261D01*
X631Y261D02*
X640Y261D01*
X668Y261D02*
X689Y261D01*
X87Y260D02*
X96Y260D01*
X127Y260D02*
X136Y260D01*
X159Y260D02*
X171Y260D01*
X202Y260D02*
X205Y260D01*
X232Y260D02*
X241Y260D01*
X303Y260D02*
X312Y260D01*
X342Y260D02*
X351Y260D01*
X376Y260D02*
X385Y260D01*
X415Y260D02*
X424Y260D01*
X447Y260D02*
X456Y260D01*
X486Y260D02*
X495Y260D01*
X519Y260D02*
X528Y260D01*
X559Y260D02*
X568Y260D01*
X592Y260D02*
X601Y260D01*
X631Y260D02*
X640Y260D01*
X669Y260D02*
X691Y260D01*
X87Y259D02*
X96Y259D01*
X127Y259D02*
X136Y259D01*
X159Y259D02*
X169Y259D01*
X232Y259D02*
X242Y259D01*
X303Y259D02*
X312Y259D01*
X342Y259D02*
X351Y259D01*
X376Y259D02*
X385Y259D01*
X415Y259D02*
X424Y259D01*
X447Y259D02*
X456Y259D01*
X486Y259D02*
X495Y259D01*
X519Y259D02*
X528Y259D01*
X559Y259D02*
X568Y259D01*
X592Y259D02*
X601Y259D01*
X631Y259D02*
X640Y259D01*
X670Y259D02*
X694Y259D01*
X87Y258D02*
X96Y258D01*
X127Y258D02*
X136Y258D01*
X159Y258D02*
X168Y258D01*
X232Y258D02*
X242Y258D01*
X303Y258D02*
X312Y258D01*
X342Y258D02*
X351Y258D01*
X376Y258D02*
X385Y258D01*
X415Y258D02*
X424Y258D01*
X447Y258D02*
X456Y258D01*
X486Y258D02*
X495Y258D01*
X519Y258D02*
X528Y258D01*
X559Y258D02*
X568Y258D01*
X592Y258D02*
X601Y258D01*
X631Y258D02*
X640Y258D01*
X672Y258D02*
X696Y258D01*
X87Y257D02*
X96Y257D01*
X127Y257D02*
X136Y257D01*
X159Y257D02*
X168Y257D01*
X233Y257D02*
X243Y257D01*
X303Y257D02*
X312Y257D01*
X342Y257D02*
X351Y257D01*
X376Y257D02*
X385Y257D01*
X415Y257D02*
X424Y257D01*
X447Y257D02*
X456Y257D01*
X486Y257D02*
X495Y257D01*
X519Y257D02*
X528Y257D01*
X559Y257D02*
X568Y257D01*
X592Y257D02*
X601Y257D01*
X631Y257D02*
X640Y257D01*
X674Y257D02*
X698Y257D01*
X87Y256D02*
X96Y256D01*
X127Y256D02*
X136Y256D01*
X159Y256D02*
X168Y256D01*
X233Y256D02*
X243Y256D01*
X303Y256D02*
X312Y256D01*
X342Y256D02*
X351Y256D01*
X376Y256D02*
X385Y256D01*
X415Y256D02*
X424Y256D01*
X447Y256D02*
X456Y256D01*
X486Y256D02*
X495Y256D01*
X519Y256D02*
X528Y256D01*
X559Y256D02*
X568Y256D01*
X592Y256D02*
X601Y256D01*
X631Y256D02*
X640Y256D01*
X676Y256D02*
X701Y256D01*
X87Y255D02*
X96Y255D01*
X127Y255D02*
X136Y255D01*
X159Y255D02*
X168Y255D01*
X233Y255D02*
X244Y255D01*
X303Y255D02*
X312Y255D01*
X342Y255D02*
X351Y255D01*
X376Y255D02*
X385Y255D01*
X415Y255D02*
X424Y255D01*
X447Y255D02*
X456Y255D01*
X486Y255D02*
X495Y255D01*
X519Y255D02*
X528Y255D01*
X559Y255D02*
X568Y255D01*
X592Y255D02*
X601Y255D01*
X631Y255D02*
X640Y255D01*
X679Y255D02*
X703Y255D01*
X87Y254D02*
X96Y254D01*
X127Y254D02*
X136Y254D01*
X159Y254D02*
X168Y254D01*
X234Y254D02*
X244Y254D01*
X303Y254D02*
X312Y254D01*
X342Y254D02*
X351Y254D01*
X376Y254D02*
X385Y254D01*
X415Y254D02*
X424Y254D01*
X447Y254D02*
X456Y254D01*
X486Y254D02*
X495Y254D01*
X519Y254D02*
X528Y254D01*
X559Y254D02*
X568Y254D01*
X592Y254D02*
X601Y254D01*
X631Y254D02*
X640Y254D01*
X681Y254D02*
X705Y254D01*
X87Y253D02*
X96Y253D01*
X127Y253D02*
X136Y253D01*
X159Y253D02*
X168Y253D01*
X234Y253D02*
X245Y253D01*
X303Y253D02*
X312Y253D01*
X342Y253D02*
X351Y253D01*
X376Y253D02*
X385Y253D01*
X415Y253D02*
X424Y253D01*
X447Y253D02*
X456Y253D01*
X486Y253D02*
X495Y253D01*
X519Y253D02*
X528Y253D01*
X559Y253D02*
X568Y253D01*
X592Y253D02*
X601Y253D01*
X631Y253D02*
X640Y253D01*
X683Y253D02*
X706Y253D01*
X87Y252D02*
X96Y252D01*
X127Y252D02*
X136Y252D01*
X159Y252D02*
X168Y252D01*
X235Y252D02*
X245Y252D01*
X303Y252D02*
X312Y252D01*
X342Y252D02*
X351Y252D01*
X376Y252D02*
X385Y252D01*
X415Y252D02*
X424Y252D01*
X447Y252D02*
X456Y252D01*
X486Y252D02*
X495Y252D01*
X519Y252D02*
X528Y252D01*
X559Y252D02*
X568Y252D01*
X592Y252D02*
X601Y252D01*
X631Y252D02*
X640Y252D01*
X686Y252D02*
X707Y252D01*
X87Y251D02*
X96Y251D01*
X127Y251D02*
X136Y251D01*
X159Y251D02*
X168Y251D01*
X235Y251D02*
X246Y251D01*
X303Y251D02*
X312Y251D01*
X342Y251D02*
X351Y251D01*
X376Y251D02*
X385Y251D01*
X415Y251D02*
X424Y251D01*
X447Y251D02*
X456Y251D01*
X486Y251D02*
X495Y251D01*
X519Y251D02*
X528Y251D01*
X559Y251D02*
X568Y251D01*
X592Y251D02*
X601Y251D01*
X631Y251D02*
X640Y251D01*
X688Y251D02*
X708Y251D01*
X87Y250D02*
X96Y250D01*
X127Y250D02*
X136Y250D01*
X159Y250D02*
X168Y250D01*
X236Y250D02*
X246Y250D01*
X303Y250D02*
X312Y250D01*
X342Y250D02*
X351Y250D01*
X376Y250D02*
X385Y250D01*
X415Y250D02*
X424Y250D01*
X447Y250D02*
X456Y250D01*
X486Y250D02*
X495Y250D01*
X519Y250D02*
X528Y250D01*
X558Y250D02*
X568Y250D01*
X592Y250D02*
X601Y250D01*
X631Y250D02*
X640Y250D01*
X690Y250D02*
X709Y250D01*
X87Y249D02*
X96Y249D01*
X127Y249D02*
X136Y249D01*
X159Y249D02*
X168Y249D01*
X236Y249D02*
X247Y249D01*
X303Y249D02*
X312Y249D01*
X342Y249D02*
X351Y249D01*
X376Y249D02*
X385Y249D01*
X415Y249D02*
X424Y249D01*
X447Y249D02*
X456Y249D01*
X486Y249D02*
X495Y249D01*
X519Y249D02*
X528Y249D01*
X557Y249D02*
X568Y249D01*
X592Y249D02*
X601Y249D01*
X631Y249D02*
X640Y249D01*
X692Y249D02*
X710Y249D01*
X87Y248D02*
X96Y248D01*
X127Y248D02*
X136Y248D01*
X159Y248D02*
X168Y248D01*
X237Y248D02*
X247Y248D01*
X303Y248D02*
X312Y248D01*
X342Y248D02*
X351Y248D01*
X376Y248D02*
X385Y248D01*
X415Y248D02*
X424Y248D01*
X447Y248D02*
X456Y248D01*
X486Y248D02*
X495Y248D01*
X519Y248D02*
X528Y248D01*
X556Y248D02*
X568Y248D01*
X592Y248D02*
X601Y248D01*
X631Y248D02*
X640Y248D01*
X695Y248D02*
X710Y248D01*
X87Y247D02*
X96Y247D01*
X127Y247D02*
X136Y247D01*
X159Y247D02*
X168Y247D01*
X237Y247D02*
X248Y247D01*
X303Y247D02*
X312Y247D01*
X342Y247D02*
X351Y247D01*
X376Y247D02*
X385Y247D01*
X415Y247D02*
X424Y247D01*
X447Y247D02*
X456Y247D01*
X486Y247D02*
X495Y247D01*
X519Y247D02*
X528Y247D01*
X555Y247D02*
X568Y247D01*
X592Y247D02*
X601Y247D01*
X631Y247D02*
X640Y247D01*
X697Y247D02*
X711Y247D01*
X87Y246D02*
X96Y246D01*
X126Y246D02*
X136Y246D01*
X159Y246D02*
X168Y246D01*
X238Y246D02*
X248Y246D01*
X303Y246D02*
X312Y246D01*
X342Y246D02*
X351Y246D01*
X376Y246D02*
X385Y246D01*
X415Y246D02*
X424Y246D01*
X447Y246D02*
X456Y246D01*
X486Y246D02*
X495Y246D01*
X519Y246D02*
X529Y246D01*
X554Y246D02*
X568Y246D01*
X592Y246D02*
X601Y246D01*
X630Y246D02*
X640Y246D01*
X699Y246D02*
X711Y246D01*
X87Y245D02*
X96Y245D01*
X126Y245D02*
X136Y245D01*
X159Y245D02*
X168Y245D01*
X238Y245D02*
X249Y245D01*
X303Y245D02*
X312Y245D01*
X342Y245D02*
X351Y245D01*
X376Y245D02*
X385Y245D01*
X413Y245D02*
X424Y245D01*
X447Y245D02*
X456Y245D01*
X486Y245D02*
X495Y245D01*
X520Y245D02*
X529Y245D01*
X553Y245D02*
X568Y245D01*
X592Y245D02*
X601Y245D01*
X629Y245D02*
X640Y245D01*
X701Y245D02*
X711Y245D01*
X87Y244D02*
X96Y244D01*
X125Y244D02*
X136Y244D01*
X159Y244D02*
X168Y244D01*
X239Y244D02*
X249Y244D01*
X303Y244D02*
X312Y244D01*
X342Y244D02*
X352Y244D01*
X376Y244D02*
X385Y244D01*
X411Y244D02*
X424Y244D01*
X447Y244D02*
X456Y244D01*
X486Y244D02*
X495Y244D01*
X520Y244D02*
X530Y244D01*
X552Y244D02*
X568Y244D01*
X592Y244D02*
X601Y244D01*
X627Y244D02*
X640Y244D01*
X702Y244D02*
X712Y244D01*
X87Y243D02*
X97Y243D01*
X124Y243D02*
X136Y243D01*
X159Y243D02*
X168Y243D01*
X239Y243D02*
X250Y243D01*
X303Y243D02*
X312Y243D01*
X342Y243D02*
X352Y243D01*
X376Y243D02*
X385Y243D01*
X410Y243D02*
X424Y243D01*
X447Y243D02*
X456Y243D01*
X486Y243D02*
X495Y243D01*
X520Y243D02*
X531Y243D01*
X551Y243D02*
X568Y243D01*
X592Y243D02*
X601Y243D01*
X626Y243D02*
X640Y243D01*
X702Y243D02*
X712Y243D01*
X87Y242D02*
X97Y242D01*
X122Y242D02*
X136Y242D01*
X159Y242D02*
X168Y242D01*
X240Y242D02*
X250Y242D01*
X303Y242D02*
X312Y242D01*
X343Y242D02*
X352Y242D01*
X376Y242D02*
X385Y242D01*
X408Y242D02*
X424Y242D01*
X447Y242D02*
X456Y242D01*
X486Y242D02*
X496Y242D01*
X520Y242D02*
X532Y242D01*
X549Y242D02*
X568Y242D01*
X592Y242D02*
X601Y242D01*
X624Y242D02*
X640Y242D01*
X702Y242D02*
X712Y242D01*
X88Y241D02*
X97Y241D01*
X121Y241D02*
X136Y241D01*
X159Y241D02*
X168Y241D01*
X240Y241D02*
X251Y241D01*
X303Y241D02*
X312Y241D01*
X343Y241D02*
X352Y241D01*
X376Y241D02*
X386Y241D01*
X407Y241D02*
X424Y241D01*
X447Y241D02*
X456Y241D01*
X487Y241D02*
X496Y241D01*
X521Y241D02*
X534Y241D01*
X548Y241D02*
X568Y241D01*
X592Y241D02*
X601Y241D01*
X623Y241D02*
X640Y241D01*
X702Y241D02*
X712Y241D01*
X88Y240D02*
X98Y240D01*
X120Y240D02*
X136Y240D01*
X159Y240D02*
X168Y240D01*
X241Y240D02*
X251Y240D01*
X303Y240D02*
X312Y240D01*
X343Y240D02*
X352Y240D01*
X376Y240D02*
X386Y240D01*
X405Y240D02*
X424Y240D01*
X447Y240D02*
X456Y240D01*
X487Y240D02*
X496Y240D01*
X522Y240D02*
X568Y240D01*
X592Y240D02*
X602Y240D01*
X621Y240D02*
X640Y240D01*
X702Y240D02*
X712Y240D01*
X88Y239D02*
X99Y239D01*
X119Y239D02*
X136Y239D01*
X159Y239D02*
X168Y239D01*
X241Y239D02*
X252Y239D01*
X303Y239D02*
X312Y239D01*
X343Y239D02*
X352Y239D01*
X377Y239D02*
X386Y239D01*
X404Y239D02*
X424Y239D01*
X447Y239D02*
X456Y239D01*
X487Y239D02*
X496Y239D01*
X522Y239D02*
X568Y239D01*
X593Y239D02*
X602Y239D01*
X620Y239D02*
X640Y239D01*
X665Y239D02*
X670Y239D01*
X702Y239D02*
X712Y239D01*
X88Y238D02*
X100Y238D01*
X118Y238D02*
X136Y238D01*
X159Y238D02*
X168Y238D01*
X242Y238D02*
X252Y238D01*
X303Y238D02*
X312Y238D01*
X343Y238D02*
X352Y238D01*
X377Y238D02*
X386Y238D01*
X402Y238D02*
X424Y238D01*
X447Y238D02*
X456Y238D01*
X487Y238D02*
X496Y238D01*
X523Y238D02*
X568Y238D01*
X593Y238D02*
X602Y238D01*
X618Y238D02*
X640Y238D01*
X664Y238D02*
X672Y238D01*
X702Y238D02*
X712Y238D01*
X89Y237D02*
X102Y237D01*
X117Y237D02*
X136Y237D01*
X159Y237D02*
X168Y237D01*
X242Y237D02*
X253Y237D01*
X303Y237D02*
X312Y237D01*
X343Y237D02*
X352Y237D01*
X377Y237D02*
X387Y237D01*
X400Y237D02*
X424Y237D01*
X447Y237D02*
X456Y237D01*
X487Y237D02*
X496Y237D01*
X524Y237D02*
X568Y237D01*
X593Y237D02*
X603Y237D01*
X616Y237D02*
X640Y237D01*
X664Y237D02*
X673Y237D01*
X701Y237D02*
X711Y237D01*
X89Y236D02*
X104Y236D01*
X115Y236D02*
X136Y236D01*
X159Y236D02*
X168Y236D01*
X243Y236D02*
X255Y236D01*
X303Y236D02*
X312Y236D01*
X343Y236D02*
X352Y236D01*
X377Y236D02*
X389Y236D01*
X399Y236D02*
X424Y236D01*
X447Y236D02*
X456Y236D01*
X487Y236D02*
X496Y236D01*
X525Y236D02*
X557Y236D01*
X559Y236D02*
X568Y236D01*
X593Y236D02*
X605Y236D01*
X615Y236D02*
X640Y236D01*
X663Y236D02*
X676Y236D01*
X699Y236D02*
X711Y236D01*
X90Y235D02*
X136Y235D01*
X159Y235D02*
X168Y235D01*
X243Y235D02*
X278Y235D01*
X303Y235D02*
X312Y235D01*
X343Y235D02*
X352Y235D01*
X378Y235D02*
X424Y235D01*
X447Y235D02*
X456Y235D01*
X487Y235D02*
X496Y235D01*
X526Y235D02*
X556Y235D01*
X559Y235D02*
X568Y235D01*
X593Y235D02*
X640Y235D01*
X663Y235D02*
X711Y235D01*
X91Y234D02*
X136Y234D01*
X159Y234D02*
X168Y234D01*
X244Y234D02*
X279Y234D01*
X303Y234D02*
X312Y234D01*
X343Y234D02*
X352Y234D01*
X378Y234D02*
X424Y234D01*
X447Y234D02*
X456Y234D01*
X487Y234D02*
X496Y234D01*
X528Y234D02*
X555Y234D01*
X559Y234D02*
X568Y234D01*
X594Y234D02*
X640Y234D01*
X663Y234D02*
X710Y234D01*
X92Y233D02*
X136Y233D01*
X159Y233D02*
X168Y233D01*
X245Y233D02*
X279Y233D01*
X303Y233D02*
X312Y233D01*
X343Y233D02*
X352Y233D01*
X379Y233D02*
X412Y233D01*
X415Y233D02*
X424Y233D01*
X447Y233D02*
X456Y233D01*
X487Y233D02*
X496Y233D01*
X529Y233D02*
X553Y233D01*
X559Y233D02*
X568Y233D01*
X595Y233D02*
X628Y233D01*
X631Y233D02*
X640Y233D01*
X664Y233D02*
X710Y233D01*
X93Y232D02*
X136Y232D01*
X159Y232D02*
X168Y232D01*
X245Y232D02*
X280Y232D01*
X303Y232D02*
X312Y232D01*
X343Y232D02*
X352Y232D01*
X379Y232D02*
X410Y232D01*
X415Y232D02*
X424Y232D01*
X447Y232D02*
X456Y232D01*
X487Y232D02*
X496Y232D01*
X530Y232D02*
X552Y232D01*
X559Y232D02*
X568Y232D01*
X595Y232D02*
X626Y232D01*
X631Y232D02*
X640Y232D01*
X664Y232D02*
X709Y232D01*
X94Y231D02*
X124Y231D01*
X127Y231D02*
X136Y231D01*
X159Y231D02*
X168Y231D01*
X246Y231D02*
X280Y231D01*
X303Y231D02*
X312Y231D01*
X343Y231D02*
X352Y231D01*
X380Y231D02*
X409Y231D01*
X415Y231D02*
X424Y231D01*
X447Y231D02*
X456Y231D01*
X487Y231D02*
X496Y231D01*
X532Y231D02*
X550Y231D01*
X559Y231D02*
X568Y231D01*
X596Y231D02*
X625Y231D01*
X631Y231D02*
X640Y231D01*
X665Y231D02*
X708Y231D01*
X95Y230D02*
X123Y230D01*
X127Y230D02*
X136Y230D01*
X159Y230D02*
X168Y230D01*
X247Y230D02*
X280Y230D01*
X303Y230D02*
X312Y230D01*
X343Y230D02*
X352Y230D01*
X381Y230D02*
X407Y230D01*
X415Y230D02*
X424Y230D01*
X447Y230D02*
X456Y230D01*
X487Y230D02*
X496Y230D01*
X537Y230D02*
X545Y230D01*
X559Y230D02*
X568Y230D01*
X597Y230D02*
X623Y230D01*
X631Y230D02*
X640Y230D01*
X666Y230D02*
X707Y230D01*
X96Y229D02*
X122Y229D01*
X127Y229D02*
X136Y229D01*
X160Y229D02*
X168Y229D01*
X248Y229D02*
X280Y229D01*
X304Y229D02*
X312Y229D01*
X343Y229D02*
X352Y229D01*
X382Y229D02*
X406Y229D01*
X415Y229D02*
X424Y229D01*
X448Y229D02*
X456Y229D01*
X487Y229D02*
X496Y229D01*
X559Y229D02*
X568Y229D01*
X598Y229D02*
X622Y229D01*
X631Y229D02*
X640Y229D01*
X668Y229D02*
X706Y229D01*
X98Y228D02*
X121Y228D01*
X128Y228D02*
X135Y228D01*
X160Y228D02*
X167Y228D01*
X249Y228D02*
X279Y228D01*
X304Y228D02*
X311Y228D01*
X344Y228D02*
X351Y228D01*
X384Y228D02*
X404Y228D01*
X416Y228D02*
X423Y228D01*
X448Y228D02*
X455Y228D01*
X488Y228D02*
X495Y228D01*
X559Y228D02*
X568Y228D01*
X599Y228D02*
X620Y228D01*
X632Y228D02*
X639Y228D01*
X670Y228D02*
X704Y228D01*
X100Y227D02*
X119Y227D01*
X129Y227D02*
X134Y227D01*
X161Y227D02*
X167Y227D01*
X251Y227D02*
X278Y227D01*
X305Y227D02*
X311Y227D01*
X345Y227D02*
X350Y227D01*
X385Y227D02*
X402Y227D01*
X417Y227D02*
X422Y227D01*
X449Y227D02*
X454Y227D01*
X489Y227D02*
X494Y227D01*
X559Y227D02*
X568Y227D01*
X601Y227D02*
X618Y227D01*
X633Y227D02*
X638Y227D01*
X672Y227D02*
X703Y227D01*
X103Y226D02*
X115Y226D01*
X130Y226D02*
X133Y226D01*
X163Y226D02*
X165Y226D01*
X254Y226D02*
X277Y226D01*
X307Y226D02*
X309Y226D01*
X346Y226D02*
X348Y226D01*
X388Y226D02*
X399Y226D01*
X418Y226D02*
X420Y226D01*
X451Y226D02*
X453Y226D01*
X490Y226D02*
X492Y226D01*
X559Y226D02*
X568Y226D01*
X604Y226D02*
X615Y226D01*
X634Y226D02*
X636Y226D01*
X675Y226D02*
X700Y226D01*
X559Y225D02*
X568Y225D01*
X559Y224D02*
X568Y224D01*
X559Y223D02*
X568Y223D01*
X559Y222D02*
X568Y222D01*
X559Y221D02*
X568Y221D01*
X558Y220D02*
X568Y220D01*
X557Y219D02*
X568Y219D01*
X556Y218D02*
X567Y218D01*
X555Y217D02*
X567Y217D01*
X554Y216D02*
X566Y216D01*
X552Y215D02*
X566Y215D01*
X527Y214D02*
X565Y214D01*
X526Y213D02*
X564Y213D01*
X525Y212D02*
X563Y212D01*
X524Y211D02*
X562Y211D01*
X524Y210D02*
X561Y210D01*
X524Y209D02*
X560Y209D01*
X524Y208D02*
X559Y208D01*
X525Y207D02*
X557Y207D01*
X526Y206D02*
X556Y206D01*
X527Y205D02*
X553Y205D01*
D02*
G04 End of Silk1*
M02*